<?xml version="1.0" encoding="UTF-8" standalone="no"?>
<!-- Created with Inkscape (http://www.inkscape.org/) -->
<svg
   xmlns:dc="http://purl.org/dc/elements/1.1/"
   xmlns:cc="http://creativecommons.org/ns#"
   xmlns:rdf="http://www.w3.org/1999/02/22-rdf-syntax-ns#"
   xmlns:svg="http://www.w3.org/2000/svg"
   xmlns="http://www.w3.org/2000/svg"
   xmlns:xlink="http://www.w3.org/1999/xlink"
   xmlns:sodipodi="http://sodipodi.sourceforge.net/DTD/sodipodi-0.dtd"
   xmlns:inkscape="http://www.inkscape.org/namespaces/inkscape"
   width="48px"
   height="48px"
   id="svg8388"
   sodipodi:version="0.32"
   inkscape:version="0.46"
   sodipodi:docname="drawing-1.svg"
   inkscape:output_extension="org.inkscape.output.svg.inkscape">
  <defs
     id="defs8390">
    <filter
       inkscape:collect="always"
       id="filter3558"
       x="-0.040154139"
       width="1.0803083"
       y="-0.17134313"
       height="1.3426863">
      <feGaussianBlur
         inkscape:collect="always"
         stdDeviation="3.3291985"
         id="feGaussianBlur3560" />
    </filter>
    <linearGradient
       inkscape:collect="always"
       xlink:href="#linearGradient5364"
       id="linearGradient7077"
       gradientUnits="userSpaceOnUse"
       gradientTransform="matrix(1,0,0,0.2203324,0,153.89264)"
       x1="200"
       y1="454.82452"
       x2="200"
       y2="364.83957" />
    <linearGradient
       inkscape:collect="always"
       id="linearGradient7444">
      <stop
         style="stop-color:#888a85;stop-opacity:1;"
         offset="0"
         id="stop7446" />
      <stop
         style="stop-color:#555753;stop-opacity:1"
         offset="1"
         id="stop7448" />
    </linearGradient>
    <linearGradient
       inkscape:collect="always"
       xlink:href="#linearGradient7444"
       id="linearGradient7450"
       x1="324.49731"
       y1="70.282364"
       x2="330.06076"
       y2="99.273735"
       gradientUnits="userSpaceOnUse"
       gradientTransform="translate(-296.00001,-49.999612)" />
    <linearGradient
       id="linearGradient4434">
      <stop
         id="stop4436"
         offset="0"
         style="stop-color:#d3d7cf;stop-opacity:1;" />
      <stop
         style="stop-color:#babdb6;stop-opacity:1"
         offset="0.18303643"
         id="stop4438" />
      <stop
         id="stop4440"
         offset="0.31893486"
         style="stop-color:#ffffff;stop-opacity:1" />
      <stop
         style="stop-color:#babdb6;stop-opacity:1"
         offset="0.87643671"
         id="stop4442" />
      <stop
         id="stop4444"
         offset="1"
         style="stop-color:#eeeeec;stop-opacity:1" />
    </linearGradient>
    <linearGradient
       inkscape:collect="always"
       xlink:href="#linearGradient4434"
       id="linearGradient7160"
       x1="304.76227"
       y1="64.295265"
       x2="335.30014"
       y2="81.926315"
       gradientUnits="userSpaceOnUse"
       gradientTransform="translate(-296.00001,-49.999612)" />
    <linearGradient
       inkscape:collect="always"
       id="linearGradient7381">
      <stop
         style="stop-color:#babdb6;stop-opacity:1;"
         offset="0"
         id="stop7383" />
      <stop
         style="stop-color:#ffffff;stop-opacity:1"
         offset="1"
         id="stop7385" />
    </linearGradient>
    <linearGradient
       inkscape:collect="always"
       xlink:href="#linearGradient7381"
       id="linearGradient7387"
       x1="302.29202"
       y1="58.442768"
       x2="308.64914"
       y2="60.767513"
       gradientUnits="userSpaceOnUse"
       gradientTransform="translate(-296.00001,-49.999612)" />
    <linearGradient
       inkscape:collect="always"
       id="linearGradient7389">
      <stop
         style="stop-color:#babdb6;stop-opacity:1;"
         offset="0"
         id="stop7391" />
      <stop
         style="stop-color:#eeeeec;stop-opacity:1"
         offset="1"
         id="stop7393" />
    </linearGradient>
    <linearGradient
       inkscape:collect="always"
       xlink:href="#linearGradient7389"
       id="linearGradient7395"
       x1="342.25937"
       y1="86.516823"
       x2="332.02905"
       y2="86.297417"
       gradientUnits="userSpaceOnUse"
       gradientTransform="translate(-296.00001,-49.999612)" />
    <linearGradient
       inkscape:collect="always"
       id="linearGradient7421">
      <stop
         style="stop-color:#ffffff;stop-opacity:1;"
         offset="0"
         id="stop7423" />
      <stop
         style="stop-color:#ffffff;stop-opacity:0;"
         offset="1"
         id="stop7425" />
    </linearGradient>
    <linearGradient
       inkscape:collect="always"
       xlink:href="#linearGradient7421"
       id="linearGradient7427"
       x1="326.60196"
       y1="75.575363"
       x2="317.16116"
       y2="88.006248"
       gradientUnits="userSpaceOnUse" />
    <filter
       inkscape:collect="always"
       id="filter3576"
       x="-0.086430433"
       width="1.1728609"
       y="-0.36881032"
       height="1.7376206">
      <feGaussianBlur
         inkscape:collect="always"
         stdDeviation="7.1659878"
         id="feGaussianBlur3578" />
    </filter>
    <linearGradient
       inkscape:collect="always"
       id="linearGradient5364">
      <stop
         style="stop-color:#000000;stop-opacity:1;"
         offset="0"
         id="stop5366" />
      <stop
         style="stop-color:#000000;stop-opacity:0;"
         offset="1"
         id="stop5368" />
    </linearGradient>
    <linearGradient
       inkscape:collect="always"
       xlink:href="#linearGradient5364"
       id="linearGradient3580"
       gradientUnits="userSpaceOnUse"
       gradientTransform="matrix(1,0,0,0.2203324,0,153.89264)"
       x1="200"
       y1="454.82452"
       x2="200"
       y2="242.25258" />
    <linearGradient
       id="linearGradient8352"
       inkscape:collect="always">
      <stop
         id="stop8354"
         offset="0"
         style="stop-color:#fce94f;stop-opacity:1" />
      <stop
         id="stop8356"
         offset="1"
         style="stop-color:#edd400;stop-opacity:1" />
    </linearGradient>
    <radialGradient
       inkscape:collect="always"
       xlink:href="#linearGradient8352"
       id="radialGradient7326"
       gradientUnits="userSpaceOnUse"
       gradientTransform="matrix(1.8690836,0,0,26.338911,-314.59329,-2270.1352)"
       cx="361.55728"
       cy="89.675224"
       fx="361.55728"
       fy="89.675224"
       r="1.4999996" />
    <linearGradient
       inkscape:collect="always"
       id="linearGradient7285">
      <stop
         style="stop-color:#ffffff;stop-opacity:1;"
         offset="0"
         id="stop7287" />
      <stop
         style="stop-color:#ffffff;stop-opacity:0;"
         offset="1"
         id="stop7289" />
    </linearGradient>
    <linearGradient
       inkscape:collect="always"
       xlink:href="#linearGradient7285"
       id="linearGradient7324"
       gradientUnits="userSpaceOnUse"
       x1="354.95065"
       y1="84.68325"
       x2="366.89725"
       y2="85.480919" />
    <linearGradient
       id="linearGradient8358"
       inkscape:collect="always">
      <stop
         id="stop8360"
         offset="0"
         style="stop-color:#c4a000;stop-opacity:1" />
      <stop
         id="stop8362"
         offset="1"
         style="stop-color:#fce94f;stop-opacity:1" />
    </linearGradient>
    <linearGradient
       inkscape:collect="always"
       xlink:href="#linearGradient8358"
       id="linearGradient7322"
       gradientUnits="userSpaceOnUse"
       x1="362.6875"
       y1="91.125"
       x2="357.48978"
       y2="90.6875" />
    <linearGradient
       inkscape:collect="always"
       id="linearGradient7328">
      <stop
         style="stop-color:#eeeeec;stop-opacity:1;"
         offset="0"
         id="stop7330" />
      <stop
         style="stop-color:#888a85;stop-opacity:1"
         offset="1"
         id="stop7332" />
    </linearGradient>
    <linearGradient
       inkscape:collect="always"
       xlink:href="#linearGradient7328"
       id="linearGradient7334"
       x1="360.65695"
       y1="70.583992"
       x2="360.65695"
       y2="40.202564"
       gradientUnits="userSpaceOnUse" />
    <linearGradient
       id="linearGradient7576"
       inkscape:collect="always">
      <stop
         id="stop7578"
         offset="0"
         style="stop-color:#c4a000;stop-opacity:1" />
      <stop
         id="stop7580"
         offset="1"
         style="stop-color:#886f00;stop-opacity:1" />
    </linearGradient>
    <linearGradient
       inkscape:collect="always"
       xlink:href="#linearGradient7576"
       id="linearGradient7320"
       gradientUnits="userSpaceOnUse"
       x1="357.76776"
       y1="89.5"
       x2="364.11615"
       y2="89.5" />
    <linearGradient
       inkscape:collect="always"
       id="linearGradient7340">
      <stop
         style="stop-color:#ffffff;stop-opacity:1;"
         offset="0"
         id="stop7342" />
      <stop
         style="stop-color:#ffffff;stop-opacity:0;"
         offset="1"
         id="stop7344" />
    </linearGradient>
    <linearGradient
       inkscape:collect="always"
       xlink:href="#linearGradient7340"
       id="linearGradient7430"
       gradientUnits="userSpaceOnUse"
       x1="361.38559"
       y1="49.926914"
       x2="360.5831"
       y2="41.069016"
       gradientTransform="matrix(0.7071068,0.7071068,-0.7071068,0.7071068,-179.02544,-282.79818)" />
  </defs>
  <sodipodi:namedview
     id="base"
     pagecolor="#ffffff"
     bordercolor="#666666"
     borderopacity="1.0"
     inkscape:pageopacity="0.0"
     inkscape:pageshadow="2"
     inkscape:zoom="7"
     inkscape:cx="24"
     inkscape:cy="24"
     inkscape:current-layer="layer1"
     showgrid="true"
     inkscape:grid-bbox="true"
     inkscape:document-units="px"
     inkscape:window-width="641"
     inkscape:window-height="690"
     inkscape:window-x="35"
     inkscape:window-y="331" />
  <metadata
     id="metadata8393">
    <rdf:RDF>
      <cc:Work
         rdf:about="">
        <dc:format>image/svg+xml</dc:format>
        <dc:type
           rdf:resource="http://purl.org/dc/dcmitype/StillImage" />
      </cc:Work>
    </rdf:RDF>
  </metadata>
  <g
     id="layer1"
     inkscape:label="Layer 1"
     inkscape:groupmode="layer">
    <path
       style="opacity:0.34246575;fill:url(#linearGradient7077);fill-opacity:1;fill-rule:evenodd;stroke:none;stroke-width:0.80000001;stroke-linecap:round;stroke-linejoin:round;stroke-miterlimit:4;stroke-dashoffset:0.3612;stroke-opacity:1;display:inline;filter:url(#filter3558);enable-background:new"
       d="M 89.52239,207.26931 C 88.933618,207.2625 88.35216,207.31591 87.95989,207.4189 C 87.436872,207.55621 87.359286,207.74792 87.77239,207.90507 L 94.28125,212.28058 C 95.273612,212.67329 94.774581,213.18663 93.1875,213.70168 C 91.585405,214.22161 93.440669,214.74819 90.02239,215.16019 C 86.603452,215.57227 83.196249,215.79469 80.33489,215.81464 C 77.490465,215.83448 75.236094,215.64743 74.24114,215.25368 L 63.11614,210.85947 C 62.806452,210.73723 62.27556,210.65164 61.64739,210.63509 C 61.019221,210.61855 60.377733,210.6629 59.95989,210.76598 C 59.734088,210.81949 59.567756,210.88158 59.49114,210.95296 C 57.381986,212.98893 58.431613,215.33005 62.49114,216.93657 C 68.035133,219.13055 79.549943,220.19637 90.80364,219.76009 C 95.407922,220.1058 96.999982,220.85529 104.25,222.45271 L 147.6875,232.02648 L 135.5,234.7191 C 130.67283,233.79787 127.0302,233.47651 125.71875,233.76546 C 122.89033,234.38866 117.21935,236.87589 111.5625,238.12228 C 101.17687,240.41056 90.624708,241.85604 83.55364,243.41403 C 75.068357,245.28361 59.70989,249.9212 59.70989,249.9212 C 57.261533,250.46065 59.071544,251.72767 63.77239,252.76342 C 68.473236,253.79917 74.230283,254.20041 76.67864,253.66096 C 76.678642,253.66095 90.373791,250.89938 101.6875,248.4066 C 110.52633,246.45913 116.05127,243.37504 125.71875,241.24497 C 131.37561,239.99859 142.67157,238.74547 145.5,238.12228 C 146.81144,237.83332 145.33735,237.0355 141.15625,235.97192 L 153.375,233.2793 L 199.27239,242.4043 C 205.63876,243.80701 209.13242,244.99282 211.02239,245.93836 C 209.30837,247.32146 209.916,248.81099 213.24114,250.12689 C 217.29891,251.73271 225.77946,253.15169 234.77239,253.84794 C 235.5441,253.91095 236.40561,253.85437 236.92864,253.71705 C 237.45167,253.57973 237.52925,253.38803 237.11614,253.23088 L 226.05364,248.83667 C 225.06127,248.44396 225.59156,247.94932 227.17864,247.43427 C 228.78073,246.91434 231.44786,246.38776 234.86614,245.97576 C 238.28507,245.56369 232.6475,245.34126 235.50886,245.3213 C 238.35328,245.30148 240.60766,245.48852 241.60261,245.88227 L 252.72761,250.27648 C 253.03727,250.39872 253.56819,250.48431 254.19636,250.50086 C 254.82452,250.51741 255.46602,250.47305 255.88386,250.36997 C 256.10965,250.31646 256.27599,250.25436 256.35261,250.18299 C 258.46173,248.14701 257.41214,245.8059 253.35261,244.19938 C 247.78273,241.99516 245.23225,240.94225 233.92864,241.39456 C 229.40529,241.02446 223.44935,240.25275 216.24114,238.66454 L 170.3125,229.53954 L 230.64739,217.23575 C 236.30425,215.98937 237.16511,214.44963 237.16511,214.44963 L 247.07136,211.62612 L 241.41511,210.392 L 237.70989,212.56106 C 237.70989,212.56105 230.64799,214.75524 224.99114,216.00163 L 164.6875,228.28672 L 121.21875,218.71295 C 114.68308,217.27293 111.23176,216.04005 109.46875,215.06669 C 110.97484,213.7232 110.33845,212.28075 107.125,211.00906 C 103.06721,209.40323 99.109071,207.98426 90.11614,207.28801 C 89.923214,207.27226 89.718647,207.27157 89.52239,207.26931 z"
       id="path6896"
       transform="matrix(0.221122,0,0,0.1727654,-10.670005,1.3837351)"
       sodipodi:nodetypes="csccsssccssssccccssscsssssccccsssccsssccssssccccccccccccssc" />
    <path
       style="fill:url(#linearGradient7160);fill-opacity:1;fill-rule:evenodd;stroke:url(#linearGradient7450);stroke-width:0.99999994;stroke-linecap:round;stroke-linejoin:round;stroke-miterlimit:4;stroke-dasharray:none;stroke-dashoffset:0.3612;stroke-opacity:1;display:inline;enable-background:new"
       d="M 3.1519553,4.9365021 C 3.1057253,4.9858801 3.0725853,5.0457751 3.0567953,5.1115121 C 2.6216753,6.9866571 2.8273853,9.141191 3.6527053,10.618004 C 4.7798253,12.634861 7.1272953,13.597202 9.4259653,13.190113 C 10.365265,13.506106 11.611225,14.201794 13.087985,15.668678 L 31.523865,33.981393 C 32.820635,35.269481 33.532495,36.359874 33.916295,37.229329 C 33.563295,38.503309 33.682245,39.872808 34.358265,41.082464 C 35.183215,42.558664 36.914335,43.863909 38.748925,44.500432 C 38.906355,44.558044 39.079735,44.514003 39.186835,44.387335 C 39.293925,44.260682 39.312515,44.07905 39.228515,43.934594 L 36.977815,39.902036 C 36.776075,39.541014 36.885835,39.081168 37.211005,38.606288 C 37.539265,38.126906 38.085415,37.647915 38.784245,37.267005 C 39.483215,36.886021 40.182055,36.677008 40.766305,36.657252 C 41.347105,36.637613 41.803515,36.798766 42.005805,37.160716 L 44.265475,41.211194 C 44.328425,41.32356 44.439065,41.397213 44.567285,41.412133 C 44.695495,41.427074 44.824925,41.380928 44.910465,41.285843 C 44.956675,41.236459 44.989825,41.176574 45.005615,41.110827 C 45.440725,39.23569 45.235015,37.081164 44.409705,35.60433 C 43.277325,33.578063 40.909235,32.61941 38.600335,33.041274 C 37.677605,32.702806 36.465275,31.989628 34.997025,30.531209 L 16.561155,12.218495 C 15.229895,10.89615 14.531305,9.762585 14.173475,8.8674681 C 14.483935,7.6300351 14.357455,6.3089041 13.704155,5.1398701 C 12.879175,3.6636911 11.148075,2.3584331 9.3134753,1.7219161 C 9.1560453,1.6643061 8.9826653,1.7083531 8.8755853,1.8350011 C 8.7684953,1.9616541 8.7498853,2.1433001 8.8338953,2.2877411 L 11.080085,6.3158401 C 11.281845,6.6768491 11.176575,7.1411811 10.851405,7.6160591 C 10.523145,8.0954361 9.9769853,8.5744321 9.2781653,8.9553351 C 8.5792053,9.336314 7.8803653,9.545326 7.2961053,9.565083 C 6.7152953,9.584734 6.2588853,9.423581 6.0566153,9.061617 L 3.7969253,5.0111551 C 3.7339653,4.8987821 3.6233553,4.8251241 3.4951253,4.8102041 C 3.3669053,4.7952761 3.2374953,4.8414101 3.1519553,4.9365021 z"
       id="path6912" />
    <path
       style="fill:url(#linearGradient7387);fill-opacity:1;fill-rule:evenodd;stroke:none;stroke-width:0.99999994;stroke-linecap:round;stroke-linejoin:round;stroke-miterlimit:4;stroke-dashoffset:0.3612;stroke-opacity:1;display:inline;enable-background:new"
       d="M 9.1874953,2.0628881 C 9.2062053,2.0697341 9.1949253,2.0940671 9.1874953,2.0941381 L 11.437495,6.1253881 C 11.741025,6.6684731 11.522105,7.3098401 11.156245,7.8441381 C 10.786755,8.3837341 10.214245,8.9065421 9.4687453,9.312888 C 8.7216453,9.720107 7.9380253,9.915679 7.2812453,9.937888 C 6.6259053,9.960058 6.0107753,9.772975 5.7187453,9.250388 L 3.4687453,5.1878881 C 3.4558053,5.1863821 3.4353753,5.1902411 3.4374953,5.1878881 C 3.4580653,5.1659081 3.4411653,5.2038791 3.4374953,5.2191381 C 3.0225753,7.0072671 3.2377753,9.073991 3.9999953,10.437888 C 5.0426153,12.303547 7.2194053,13.194638 9.3749953,12.812888 C 11.520465,12.428873 13.354955,10.559722 13.812495,8.7816381 C 14.101405,7.6300561 13.978325,6.3925031 13.374995,5.3128881 C 12.614845,3.9527161 10.942625,2.6718331 9.1874953,2.0628881 z"
       id="path7379"
       sodipodi:nodetypes="cccsssccsssscsc" />
    <path
       style="fill:url(#linearGradient7395);fill-opacity:1;fill-rule:evenodd;stroke:none;stroke-width:0.99999994;stroke-linecap:round;stroke-linejoin:round;stroke-miterlimit:4;stroke-dashoffset:0.3612;stroke-opacity:1;display:inline;enable-background:new"
       d="M 40.281245,33.344138 C 39.762865,33.287079 39.218495,33.312654 38.687495,33.406638 C 38.677095,33.408478 38.666645,33.404738 38.656245,33.406638 C 36.283235,34.022261 34.735295,35.594014 34.281245,37.312888 C 33.952725,38.498541 34.062715,39.788672 34.687495,40.906638 C 35.447595,42.266816 37.119865,43.547689 38.874995,44.156638 C 38.874835,44.156578 38.871645,44.127005 38.874995,44.125388 L 36.624995,40.094138 C 36.321535,39.551067 36.540385,38.909697 36.906245,38.375388 C 37.280065,37.829495 37.855845,37.340092 38.593745,36.937888 C 39.333255,36.534805 40.111055,36.304305 40.781245,36.281638 C 41.436575,36.259489 42.051695,36.446588 42.343745,36.969138 L 44.593745,41.031638 C 44.606635,41.03314 44.627095,41.0293 44.624995,41.031638 C 45.039705,39.244416 44.823605,37.14359 44.062495,35.781638 C 43.276995,34.376072 41.866235,33.518603 40.281245,33.344138 z"
       id="path7376"
       sodipodi:nodetypes="csscssccsssccssc" />
    <path
       sodipodi:type="inkscape:offset"
       inkscape:radius="-0.83321846"
       inkscape:original="M 305.3125 51.71875 C 305.15507 51.661141 304.98208 51.717102 304.875 51.84375 C 304.76792 51.970402 304.75974 52.136809 304.84375 52.28125 L 307.09375 56.3125 C 307.29552 56.673508 307.16892 57.150122 306.84375 57.625 C 306.51549 58.104379 305.98007 58.587847 305.28125 58.96875 C 304.58229 59.349728 303.86551 59.542743 303.28125 59.5625 C 302.70044 59.582153 302.26477 59.424464 302.0625 59.0625 L 299.8125 55 C 299.74953 54.887625 299.62823 54.82742 299.5 54.8125 C 299.37179 54.797574 299.24179 54.842408 299.15625 54.9375 C 299.11003 54.986877 299.07829 55.059263 299.0625 55.125 C 298.62739 57.000147 298.83093 59.148187 299.65625 60.625 C 300.78337 62.641858 303.13883 63.594589 305.4375 63.1875 C 306.37681 63.503494 307.61699 64.189366 309.09375 65.65625 L 327.53125 83.96875 C 328.82803 85.25684 329.52245 86.349295 329.90625 87.21875 C 329.55326 88.492728 329.66773 89.884094 330.34375 91.09375 C 331.16869 92.569949 332.91541 93.863477 334.75 94.5 C 334.90743 94.55761 335.0804 94.501668 335.1875 94.375 C 335.2946 94.248346 335.30275 94.081956 335.21875 93.9375 L 332.96875 89.90625 C 332.76702 89.545227 332.89358 89.06863 333.21875 88.59375 C 333.54702 88.114364 334.08242 87.66216 334.78125 87.28125 C 335.48023 86.900266 336.197 86.676006 336.78125 86.65625 C 337.36206 86.636615 337.79771 86.7943 338 87.15625 L 340.25 91.21875 C 340.31296 91.331114 340.43428 91.39133 340.5625 91.40625 C 340.69071 91.421193 340.82071 91.376335 340.90625 91.28125 C 340.95247 91.231867 340.98421 91.190747 341 91.125 C 341.43511 89.249867 341.23156 87.070584 340.40625 85.59375 C 339.27388 83.567482 336.90265 82.609386 334.59375 83.03125 C 333.67102 82.692782 332.46825 81.989669 331 80.53125 L 312.5625 62.21875 C 311.23124 60.896407 310.54533 59.770117 310.1875 58.875 C 310.49795 57.637566 310.37205 56.294034 309.71875 55.125 C 308.89377 53.648822 307.1471 52.355267 305.3125 51.71875 z "
       style="fill:none;fill-opacity:1;fill-rule:evenodd;stroke:url(#linearGradient7427);stroke-width:0.69999999;stroke-linecap:round;stroke-linejoin:miter;stroke-miterlimit:4;stroke-dasharray:none;stroke-dashoffset:0.3612;stroke-opacity:1;display:inline;enable-background:new"
       id="path7164"
       d="M 306.3125,53.1875 L 307.8125,55.90625 C 308.23906,56.669453 307.9463,57.487618 307.53125,58.09375 C 307.11191,58.706143 306.48943,59.250395 305.6875,59.6875 C 304.8822,60.126442 304.05695,60.381076 303.3125,60.40625 C 302.56706,60.431474 301.74429,60.185516 301.34375,59.46875 L 299.78125,56.65625 C 299.71505,57.972582 299.86474,59.305704 300.375,60.21875 C 301.31547,61.901621 303.29863,62.726117 305.28125,62.375 C 305.42726,62.346161 305.57832,62.356951 305.71875,62.40625 C 306.79334,62.767752 308.13739,63.522761 309.6875,65.0625 L 328.125,83.375 C 329.48338,84.724279 330.22663,85.901755 330.65625,86.875 C 330.74207,87.049467 330.76418,87.24845 330.71875,87.4375 C 330.41982,88.516369 330.49967,89.680391 331.0625,90.6875 C 331.55868,91.575387 332.60897,92.388862 333.75,93.03125 L 332.25,90.3125 C 331.82357,89.549346 332.11619,88.731152 332.53125,88.125 C 332.96013,87.498686 333.58988,86.990445 334.375,86.5625 C 335.16351,86.132718 335.9759,85.838676 336.75,85.8125 C 337.49542,85.7873 338.31819,86.0333 338.71875,86.75 L 340.28125,89.5625 C 340.34415,88.241423 340.19399,86.906324 339.6875,86 C 338.74221,84.308499 336.74026,83.480106 334.75,83.84375 C 334.60399,83.872589 334.45293,83.861799 334.3125,83.8125 C 333.25929,83.426172 331.94092,82.649394 330.40625,81.125 L 311.96875,62.8125 C 310.57118,61.424294 309.81089,60.199704 309.40625,59.1875 C 309.34479,59.027984 309.33388,58.853427 309.375,58.6875 C 309.63787,57.639707 309.54292,56.502763 309,55.53125 C 308.50379,54.643353 307.45351,53.82988 306.3125,53.1875 z"
       transform="translate(-296.00001,-49.999612)" />
    <rect
       style="opacity:0.07999998;fill:#000000;fill-opacity:1;fill-rule:evenodd;stroke:none;stroke-width:0.69999999;stroke-linecap:round;stroke-linejoin:miter;stroke-miterlimit:4;stroke-dasharray:none;stroke-dashoffset:0.3612;stroke-opacity:1;display:inline;enable-background:new"
       id="rect7166"
       width="1.9558058"
       height="30.75498"
       x="-0.35604259"
       y="17.87887"
       rx="0.88951457"
       ry="1.7769208"
       transform="matrix(0.7071068,-0.7071068,0.7071068,0.7071068,0,0)" />
    <path
       style="opacity:0.24200912;fill:#000000;fill-opacity:1;fill-rule:evenodd;stroke:#000000;stroke-width:0.99999994;stroke-linecap:round;stroke-linejoin:round;stroke-miterlimit:4;stroke-dasharray:none;stroke-dashoffset:0.3612;stroke-opacity:1;display:inline;enable-background:new"
       d="M 26.499995,22.094138 L 23.031245,25.531638 L 24.468745,26.969138 L 27.937495,23.500388 L 26.499995,22.094138 z"
       id="path7356" />
    <path
       style="opacity:0.20547946;fill:url(#linearGradient3580);fill-opacity:1;fill-rule:evenodd;stroke:none;stroke-width:0.80000001;stroke-linecap:round;stroke-linejoin:round;stroke-miterlimit:4;stroke-dashoffset:0.3612;stroke-opacity:1;display:inline;filter:url(#filter3576);enable-background:new"
       d="M 89.52239,207.26931 C 88.933618,207.2625 88.35216,207.31591 87.95989,207.4189 C 87.436872,207.55621 87.359286,207.74792 87.77239,207.90507 L 94.28125,212.28058 C 95.273612,212.67329 94.774581,213.18663 93.1875,213.70168 C 91.585405,214.22161 93.440669,214.74819 90.02239,215.16019 C 86.603452,215.57227 83.196249,215.79469 80.33489,215.81464 C 77.490465,215.83448 75.236094,215.64743 74.24114,215.25368 L 63.11614,210.85947 C 62.806452,210.73723 62.27556,210.65164 61.64739,210.63509 C 61.019221,210.61855 60.377733,210.6629 59.95989,210.76598 C 59.734088,210.81949 59.567756,210.88158 59.49114,210.95296 C 57.381986,212.98893 58.431613,215.33005 62.49114,216.93657 C 68.035133,219.13055 79.549943,220.19637 90.80364,219.76009 C 95.407922,220.1058 96.999982,220.85529 104.25,222.45271 L 147.6875,232.02648 L 135.5,234.7191 C 130.67283,233.79787 127.0302,233.47651 125.71875,233.76546 C 122.89033,234.38866 117.21935,236.87589 111.5625,238.12228 C 101.17687,240.41056 90.624708,241.85604 83.55364,243.41403 C 75.068357,245.28361 59.70989,249.9212 59.70989,249.9212 C 57.261533,250.46065 59.071544,251.72767 63.77239,252.76342 C 68.473236,253.79917 74.230283,254.20041 76.67864,253.66096 C 76.678642,253.66095 90.373791,250.89938 101.6875,248.4066 C 110.52633,246.45913 116.05127,243.37504 125.71875,241.24497 C 131.37561,239.99859 142.67157,238.74547 145.5,238.12228 C 146.81144,237.83332 145.33735,237.0355 141.15625,235.97192 L 153.375,233.2793 L 199.27239,242.4043 C 205.63876,243.80701 209.13242,244.99282 211.02239,245.93836 C 209.30837,247.32146 209.916,248.81099 213.24114,250.12689 C 217.29891,251.73271 225.77946,253.15169 234.77239,253.84794 C 235.5441,253.91095 236.40561,253.85437 236.92864,253.71705 C 237.45167,253.57973 237.52925,253.38803 237.11614,253.23088 L 226.05364,248.83667 C 225.06127,248.44396 225.59156,247.94932 227.17864,247.43427 C 228.78073,246.91434 231.44786,246.38776 234.86614,245.97576 C 238.28507,245.56369 232.6475,245.34126 235.50886,245.3213 C 238.35328,245.30148 240.60766,245.48852 241.60261,245.88227 L 252.72761,250.27648 C 253.03727,250.39872 253.56819,250.48431 254.19636,250.50086 C 254.82452,250.51741 255.46602,250.47305 255.88386,250.36997 C 256.10965,250.31646 256.27599,250.25436 256.35261,250.18299 C 258.46173,248.14701 257.41214,245.8059 253.35261,244.19938 C 247.78273,241.99516 245.23225,240.94225 233.92864,241.39456 C 229.40529,241.02446 223.44935,240.25275 216.24114,238.66454 L 170.3125,229.53954 L 230.64739,217.23575 C 236.30425,215.98937 237.16511,214.44963 237.16511,214.44963 L 247.07136,211.62612 L 241.41511,210.392 L 237.70989,212.56106 C 237.70989,212.56105 230.64799,214.75524 224.99114,216.00163 L 164.6875,228.28672 L 121.21875,218.71295 C 114.68308,217.27293 111.23176,216.04005 109.46875,215.06669 C 110.97484,213.7232 110.33845,212.28075 107.125,211.00906 C 103.06721,209.40323 99.109071,207.98426 90.11614,207.28801 C 89.923214,207.27226 89.718647,207.27157 89.52239,207.26931 z"
       id="path3562"
       transform="matrix(0.221122,0,0,0.1727654,-10.670005,1.3837351)"
       sodipodi:nodetypes="csccsssccssssccccssscsssssccccsssccsssccssssccccccccccccssc" />
    <g
       style="display:inline;enable-background:new"
       id="g7308"
       transform="matrix(0.7071068,0.7071068,-0.7071068,0.7071068,-179.02544,-282.79818)">
      <path
         style="fill:none;fill-opacity:1;fill-rule:evenodd;stroke:url(#linearGradient7320);stroke-width:1.99999917;stroke-linecap:round;stroke-linejoin:round;stroke-miterlimit:4;stroke-dasharray:none;stroke-dashoffset:0.3612;stroke-opacity:1;display:inline;enable-background:new"
         d="M 360.54964,79.000066 C 358.61068,79.00561 357.4859,79.343321 357.48427,79.758819 C 357.48135,80.508816 358.34758,82.756305 358.34174,84.256298 C 358.33103,87.010192 357.00738,89.885025 357.00008,91.760017 C 356.99133,94.010008 357.84752,98.83561 357.84752,98.83561 C 357.84499,99.484825 359.01369,100.00413 360.46791,99.999973 C 361.92214,99.995815 363.09491,99.469814 363.09744,98.820598 C 363.09744,98.820598 363.98829,94.739989 363.99997,91.740002 C 364.00908,89.396263 362.7067,86.807254 362.71668,84.243788 C 362.72251,82.743795 363.60625,80.491303 363.60917,79.741306 C 363.61079,79.325808 362.48862,78.994522 360.54964,79.000066 z"
         id="path7310"
         sodipodi:nodetypes="ccsscscsscc" />
      <path
         sodipodi:nodetypes="ccccccccc"
         id="path7312"
         d="M 359.20711,44.136038 L 358.5,49.257359 L 359.5,50.257359 L 359.5,82.875 L 361.5,82.875 L 361.5,50.257359 L 362.5,49.257359 L 361.79289,44.136038 L 359.20711,44.136038 z"
         style="fill:url(#linearGradient7334);fill-opacity:1;fill-rule:evenodd;stroke:#555753;stroke-width:0.99999994;stroke-linecap:round;stroke-linejoin:miter;stroke-miterlimit:4;stroke-dashoffset:0.3612;stroke-opacity:1" />
      <path
         style="fill:url(#linearGradient7322);fill-opacity:1;fill-rule:evenodd;stroke:none;stroke-width:1.99999917;stroke-linecap:round;stroke-linejoin:round;stroke-miterlimit:4;stroke-dasharray:none;stroke-dashoffset:0.3612;stroke-opacity:1;display:inline;enable-background:new"
         d="M 360.54962,79.000066 C 358.61066,79.00561 357.48588,79.343321 357.48426,79.758819 C 357.48134,80.508816 358.34756,82.756305 358.34173,84.256298 C 358.33101,87.010192 357.00736,89.885025 357.00007,91.760017 C 356.99131,94.010008 357.8475,98.83561 357.8475,98.83561 C 357.84498,99.484825 359.01368,100.00413 360.4679,99.999973 C 361.92212,99.995815 363.09489,99.469814 363.09742,98.820598 C 363.09742,98.820598 363.98828,94.739989 363.99995,91.740002 C 364.00907,89.396263 362.70668,86.807254 362.71666,84.243788 C 362.7225,82.743795 363.60624,80.491303 363.60916,79.741306 C 363.61077,79.325808 362.4886,78.994522 360.54962,79.000066 z"
         id="path7314"
         sodipodi:nodetypes="ccsscscsscc" />
      <path
         d="M 360.5625,79.5 C 359.62163,79.502689 358.87123,79.60062 358.40625,79.71875 C 358.18849,79.774073 358.07071,79.833443 358,79.875 C 358.0241,80.114169 358.19915,80.798911 358.40625,81.59375 C 358.62846,82.446573 358.84706,83.398652 358.84375,84.25 C 358.83807,85.708259 358.49165,87.165714 358.15625,88.46875 C 357.82085,89.771786 357.50318,90.931931 357.5,91.75 C 357.49176,93.868058 358.34375,98.75 358.34375,98.75 C 358.34662,98.781184 358.34662,98.812566 358.34375,98.84375 C 358.34372,98.851869 358.33884,98.866627 358.40625,98.9375 C 358.47366,99.008373 358.61962,99.102826 358.8125,99.1875 C 359.19826,99.356848 359.80191,99.501908 360.46875,99.5 C 361.13368,99.498101 361.73927,99.36257 362.125,99.1875 C 362.31786,99.099965 362.43047,98.980412 362.5,98.90625 C 362.56953,98.832088 362.59371,98.821815 362.59375,98.8125 C 362.58864,98.77099 362.58864,98.72901 362.59375,98.6875 C 362.59375,98.6875 363.48872,94.650193 363.5,91.75 C 363.50839,89.596744 362.20809,86.987624 362.21875,84.25 C 362.22204,83.402623 362.43634,82.446233 362.65625,81.59375 C 362.86121,80.799227 363.03741,80.120314 363.0625,79.875 C 362.99847,79.83558 362.89553,79.773721 362.6875,79.71875 C 362.24156,79.600911 361.50184,79.497314 360.5625,79.5 z"
         id="path7316"
         style="opacity:1;fill:none;fill-opacity:1;fill-rule:evenodd;stroke:url(#linearGradient7324);stroke-width:1;stroke-linecap:round;stroke-linejoin:round;stroke-miterlimit:4;stroke-dasharray:none;stroke-dashoffset:0.3612;stroke-opacity:1;display:inline;enable-background:new"
         inkscape:original="M 360.5625 79 C 358.62354 79.005541 357.47037 79.334502 357.46875 79.75 C 357.46584 80.499996 358.34958 82.750007 358.34375 84.25 C 358.33302 87.003898 357.00729 89.875008 357 91.75 C 356.99125 93.999991 357.84375 98.84375 357.84375 98.84375 C 357.84123 99.492966 359.01453 100.00416 360.46875 100 C 361.92297 99.995846 363.09122 99.461716 363.09375 98.8125 C 363.09376 98.812503 363.98833 94.749987 364 91.75 C 364.00913 89.406258 362.70877 86.813466 362.71875 84.25 C 362.72458 82.750005 363.59083 80.499997 363.59375 79.75 C 363.59536 79.334506 362.50148 78.994456 360.5625 79 z "
         inkscape:radius="-0.51103479"
         sodipodi:type="inkscape:offset" />
      <path
         style="fill:url(#radialGradient7326);fill-opacity:1;fill-rule:evenodd;stroke:none;stroke-width:1.99999917;stroke-linecap:round;stroke-linejoin:round;stroke-miterlimit:4;stroke-dasharray:none;stroke-dashoffset:0.3612;stroke-opacity:1;display:inline;enable-background:new"
         d="M 360.52127,79.000066 C 359.69028,79.00561 359.20823,79.343321 359.20754,79.758819 C 359.20629,80.508816 359.57752,82.756305 359.57503,84.256298 C 359.57043,87.010192 359.00315,89.885025 359.00003,91.760017 C 358.99627,94.010008 359.36321,98.83561 359.36321,98.83561 C 359.36213,99.484825 359.86301,100.00413 360.48624,99.999973 C 361.10948,99.995815 361.6121,99.469814 361.61318,98.820598 C 361.61318,98.820598 361.99498,94.739989 361.99998,91.740002 C 362.00389,89.396263 361.44572,86.807254 361.45,84.243788 C 361.4525,82.743795 361.83125,80.491303 361.8325,79.741306 C 361.83319,79.325808 361.35226,78.994522 360.52127,79.000066 z"
         id="path7318"
         sodipodi:nodetypes="ccsscscsscc" />
    </g>
    <path
       style="fill:url(#linearGradient7430);fill-opacity:1;fill-rule:evenodd;stroke:none;stroke-width:0.99999994;stroke-linecap:round;stroke-linejoin:miter;stroke-miterlimit:4;stroke-dashoffset:0.3612;stroke-opacity:1;display:inline;enable-background:new"
       d="M 43.718838,3.0883048 L 39.956702,5.6571983 L 39.956702,6.8062469 L 41.194139,8.0436838 L 42.343187,8.0436838 L 44.934178,4.2594504 L 43.718838,3.0883048 z"
       id="path7338"
       sodipodi:nodetypes="ccccccc" />
    <path
       style="fill:none;fill-rule:evenodd;stroke:#ffffff;stroke-width:1px;stroke-linecap:butt;stroke-linejoin:miter;stroke-opacity:1;display:inline;enable-background:new"
       d="M 44.648705,4.7006261 L 43.367075,3.4189951"
       id="path7434"
       sodipodi:nodetypes="cc" />
    <g
       id="g7440"
       style="opacity:0.48858445;display:inline;enable-background:new"
       transform="translate(-296.00001,-49.999612)">
      <rect
         y="52"
         x="305"
         height="1"
         width="1"
         id="rect7436"
         style="opacity:1;fill:#ffffff;fill-opacity:1;fill-rule:evenodd;stroke:none;stroke-width:1;stroke-linecap:round;stroke-linejoin:miter;stroke-miterlimit:4;stroke-dasharray:none;stroke-dashoffset:0.3612;stroke-opacity:1" />
      <rect
         y="55"
         x="299"
         height="1"
         width="1"
         id="rect7438"
         style="opacity:1;fill:#ffffff;fill-opacity:1;fill-rule:evenodd;stroke:none;stroke-width:1;stroke-linecap:round;stroke-linejoin:miter;stroke-miterlimit:4;stroke-dasharray:none;stroke-dashoffset:0.3612;stroke-opacity:1;display:inline;enable-background:new" />
    </g>
  </g>
</svg>
