#define bullet_width 4
#define bullet_height 8
static unsigned char bullet_bits[] = {
   0x00, 0x00, 0x01, 0x03, 0x07, 0x03, 0x01, 0x00 };
