<?xml version="1.0" encoding="UTF-8" standalone="no"?>
<!-- Created with Inkscape (http://www.inkscape.org/) -->
<svg
   xmlns:dc="http://purl.org/dc/elements/1.1/"
   xmlns:cc="http://creativecommons.org/ns#"
   xmlns:rdf="http://www.w3.org/1999/02/22-rdf-syntax-ns#"
   xmlns:svg="http://www.w3.org/2000/svg"
   xmlns="http://www.w3.org/2000/svg"
   xmlns:xlink="http://www.w3.org/1999/xlink"
   xmlns:sodipodi="http://sodipodi.sourceforge.net/DTD/sodipodi-0.dtd"
   xmlns:inkscape="http://www.inkscape.org/namespaces/inkscape"
   width="48px"
   height="48px"
   id="svg7324"
   sodipodi:version="0.32"
   inkscape:version="0.46"
   sodipodi:docname="drawing.svg"
   inkscape:output_extension="org.inkscape.output.svg.inkscape">
  <defs
     id="defs7326">
    <linearGradient
       inkscape:collect="always"
       xlink:href="#linearGradient6317"
       id="linearGradient6330"
       gradientUnits="userSpaceOnUse"
       x1="21.666193"
       y1="28.145767"
       x2="21.666193"
       y2="29.648371"
       gradientTransform="translate(-6.635503e-2,1.94e-4)" />
    <linearGradient
       inkscape:collect="always"
       id="linearGradient6317">
      <stop
         style="stop-color:#ffffff;stop-opacity:1;"
         offset="0"
         id="stop6319" />
      <stop
         style="stop-color:#ffffff;stop-opacity:0;"
         offset="1"
         id="stop6321" />
    </linearGradient>
    <linearGradient
       inkscape:collect="always"
       xlink:href="#linearGradient6317"
       id="linearGradient6323"
       x1="21.666193"
       y1="28.145767"
       x2="21.666193"
       y2="29.648371"
       gradientUnits="userSpaceOnUse"
       gradientTransform="translate(-6.4029802e-5,1.94e-4)" />
    <linearGradient
       inkscape:collect="always"
       xlink:href="#linearGradient6240"
       id="linearGradient6290"
       gradientUnits="userSpaceOnUse"
       gradientTransform="translate(-1.5,0)"
       x1="24"
       y1="28"
       x2="24"
       y2="31" />
    <linearGradient
       inkscape:collect="always"
       xlink:href="#linearGradient6260"
       id="linearGradient6288"
       gradientUnits="userSpaceOnUse"
       gradientTransform="translate(-1.5,0)"
       x1="24"
       y1="31"
       x2="24"
       y2="27.680285" />
    <linearGradient
       inkscape:collect="always"
       xlink:href="#linearGradient6240"
       id="linearGradient6286"
       gradientUnits="userSpaceOnUse"
       gradientTransform="translate(-1.5,0)"
       x1="24"
       y1="27.680285"
       x2="24"
       y2="31" />
    <linearGradient
       inkscape:collect="always"
       xlink:href="#linearGradient6240"
       id="linearGradient6284"
       gradientUnits="userSpaceOnUse"
       gradientTransform="matrix(0.7,0,0,1,5.7,0)"
       x1="24"
       y1="28"
       x2="24"
       y2="31" />
    <linearGradient
       inkscape:collect="always"
       id="linearGradient6260">
      <stop
         style="stop-color:#ffffff;stop-opacity:1;"
         offset="0"
         id="stop6262" />
      <stop
         style="stop-color:#ffffff;stop-opacity:0;"
         offset="1"
         id="stop6264" />
    </linearGradient>
    <linearGradient
       inkscape:collect="always"
       xlink:href="#linearGradient6260"
       id="linearGradient6282"
       gradientUnits="userSpaceOnUse"
       gradientTransform="matrix(0.7,0,0,1,5.7,0)"
       x1="24"
       y1="31"
       x2="24"
       y2="27.680285" />
    <linearGradient
       id="linearGradient6240">
      <stop
         style="stop-color:#999999;stop-opacity:1;"
         offset="0"
         id="stop6242" />
      <stop
         style="stop-color:#7b7b7b;stop-opacity:1;"
         offset="1"
         id="stop6244" />
    </linearGradient>
    <linearGradient
       inkscape:collect="always"
       xlink:href="#linearGradient6240"
       id="linearGradient6280"
       gradientUnits="userSpaceOnUse"
       gradientTransform="matrix(0.7,0,0,1,5.7,0)"
       x1="24"
       y1="27.680285"
       x2="24"
       y2="31" />
    <linearGradient
       inkscape:collect="always"
       id="linearGradient5804">
      <stop
         style="stop-color:#ffffff;stop-opacity:1;"
         offset="0"
         id="stop5806" />
      <stop
         style="stop-color:#ffffff;stop-opacity:0;"
         offset="1"
         id="stop5808" />
    </linearGradient>
    <linearGradient
       inkscape:collect="always"
       xlink:href="#linearGradient5804"
       id="linearGradient5810"
       x1="11.453125"
       y1="34"
       x2="11.453125"
       y2="32.390625"
       gradientUnits="userSpaceOnUse" />
    <linearGradient
       inkscape:collect="always"
       xlink:href="#linearGradient5784"
       id="linearGradient5800"
       gradientUnits="userSpaceOnUse"
       x1="9.6875"
       y1="31.34375"
       x2="9.40625"
       y2="29.3125"
       gradientTransform="matrix(-1,0,0,1,23.106302,0)" />
    <linearGradient
       inkscape:collect="always"
       id="linearGradient5784">
      <stop
         style="stop-color:#ffffff;stop-opacity:1;"
         offset="0"
         id="stop5786" />
      <stop
         style="stop-color:#ffffff;stop-opacity:0;"
         offset="1"
         id="stop5788" />
    </linearGradient>
    <linearGradient
       inkscape:collect="always"
       xlink:href="#linearGradient5784"
       id="linearGradient5790"
       x1="9.6875"
       y1="31.34375"
       x2="9.40625"
       y2="29.3125"
       gradientUnits="userSpaceOnUse" />
    <linearGradient
       inkscape:collect="always"
       id="linearGradient6297">
      <stop
         id="stop6301"
         offset="0"
         style="stop-color:#7f837c;stop-opacity:1" />
      <stop
         id="stop6299"
         offset="1"
         style="stop-color:#4e504c;stop-opacity:1" />
    </linearGradient>
    <radialGradient
       inkscape:collect="always"
       xlink:href="#linearGradient6297"
       id="radialGradient6303"
       cx="11.5"
       cy="30.75"
       fx="11.5"
       fy="30.75"
       r="5.5"
       gradientUnits="userSpaceOnUse"
       gradientTransform="matrix(1,0,0,0.9,-6.4029802e-5,3.450194)" />
    <linearGradient
       inkscape:collect="always"
       id="linearGradient5731">
      <stop
         style="stop-color:#ffffff;stop-opacity:1;"
         offset="0"
         id="stop5733" />
      <stop
         style="stop-color:#ffffff;stop-opacity:0;"
         offset="1"
         id="stop5735" />
    </linearGradient>
    <linearGradient
       inkscape:collect="always"
       xlink:href="#linearGradient5731"
       id="linearGradient5737"
       x1="24"
       y1="35"
       x2="24"
       y2="28"
       gradientUnits="userSpaceOnUse"
       gradientTransform="translate(-6.4029802e-5,1.94e-4)" />
    <linearGradient
       id="linearGradient5739">
      <stop
         style="stop-color:#eeeeec;stop-opacity:1;"
         offset="0"
         id="stop5741" />
      <stop
         id="stop5747"
         offset="0.79172641"
         style="stop-color:#cacac5;stop-opacity:1" />
      <stop
         style="stop-color:#dedede;stop-opacity:1"
         offset="1"
         id="stop5743" />
    </linearGradient>
    <linearGradient
       inkscape:collect="always"
       xlink:href="#linearGradient5739"
       id="linearGradient5745"
       x1="22"
       y1="22.700733"
       x2="22"
       y2="37.375"
       gradientUnits="userSpaceOnUse"
       gradientTransform="translate(-6.4029802e-5,1.94e-4)" />
    <linearGradient
       id="linearGradient5024">
      <stop
         style="stop-color:#555753"
         offset="0"
         id="stop5026" />
      <stop
         style="stop-color:#555753;stop-opacity:0;"
         offset="1"
         id="stop5028" />
    </linearGradient>
    <linearGradient
       inkscape:collect="always"
       xlink:href="#linearGradient5024"
       id="linearGradient6086"
       gradientUnits="userSpaceOnUse"
       gradientTransform="matrix(1,0,0,2.084749,1.416153,3.93141)"
       x1="29.87479"
       y1="4.7625585"
       x2="30.728344"
       y2="-0.46811083" />
    <filter
       inkscape:collect="always"
       id="filter6232"
       x="-0.057737055"
       width="1.1154741"
       y="-0.14605433"
       height="1.2921087">
      <feGaussianBlur
         inkscape:collect="always"
         stdDeviation="1.0326498"
         id="feGaussianBlur6234" />
    </filter>
  </defs>
  <sodipodi:namedview
     id="base"
     pagecolor="#ffffff"
     bordercolor="#666666"
     borderopacity="1.0"
     inkscape:pageopacity="0.0"
     inkscape:pageshadow="2"
     inkscape:zoom="7"
     inkscape:cx="30.862121"
     inkscape:cy="27.052293"
     inkscape:current-layer="layer1"
     showgrid="true"
     inkscape:grid-bbox="true"
     inkscape:document-units="px"
     inkscape:window-width="641"
     inkscape:window-height="690"
     inkscape:window-x="698"
     inkscape:window-y="169" />
  <metadata
     id="metadata7329">
    <rdf:RDF>
      <cc:Work
         rdf:about="">
        <dc:format>image/svg+xml</dc:format>
        <dc:type
           rdf:resource="http://purl.org/dc/dcmitype/StillImage" />
      </cc:Work>
    </rdf:RDF>
  </metadata>
  <g
     id="layer1"
     inkscape:label="Layer 1"
     inkscape:groupmode="layer">
    <path
       id="path6206"
       d="M 10.955139,22.66425 C 6.327336,22.66425 2.575,26.442269 2.575,31.10175 C 2.575,35.76123 6.327336,39.539252 10.955139,39.53925 C 14.281373,39.53925 17.142734,37.58699 18.497265,34.758 L 29.515596,34.758 C 30.850987,37.637637 33.75684,39.633 37.119797,39.633 C 41.7476,39.633 45.499935,35.854981 45.499936,31.1955 C 45.499936,26.827238 42.183639,23.221773 37.957811,22.78925 C 37.646034,22.705336 37.334413,22.66425 36.995646,22.66425 L 11.948341,22.66425 C 11.844161,22.66425 11.739951,22.687203 11.637966,22.6955 C 11.407124,22.676257 11.190888,22.66425 10.955139,22.66425 z"
       style="opacity:0.64457834;fill:#000000;fill-opacity:1;fill-rule:nonzero;stroke:none;stroke-width:0.99999994;stroke-linecap:butt;stroke-linejoin:miter;marker:none;marker-start:none;marker-mid:none;marker-end:none;stroke-miterlimit:4;stroke-dasharray:none;stroke-dashoffset:0;stroke-opacity:1;visibility:visible;display:inline;overflow:visible;filter:url(#filter6232);enable-background:accumulate" />
    <path
       style="fill:none;fill-opacity:1;fill-rule:evenodd;stroke:url(#linearGradient6086);stroke-width:0.99999994;stroke-linecap:square;stroke-linejoin:miter;stroke-miterlimit:4;stroke-dasharray:none;stroke-opacity:1;display:inline"
       d="M 23.855492,23.955515 C 27.848941,14.622999 10.335216,20.75648 13.737286,15.886328 C 17.080923,11.099823 35.542741,21.077603 39.389355,16.001395 C 43.301376,10.83887 29.292187,12.644855 35.278442,3.455516"
       id="path5014"
       sodipodi:nodetypes="czzc" />
    <path
       style="opacity:1;fill:url(#linearGradient5745);fill-opacity:1;fill-rule:nonzero;stroke:#babdb6;stroke-width:0.99999994;stroke-linecap:butt;stroke-linejoin:miter;marker:none;marker-start:none;marker-mid:none;marker-end:none;stroke-miterlimit:4;stroke-dasharray:none;stroke-dashoffset:0;stroke-opacity:1;visibility:visible;display:inline;overflow:visible;enable-background:accumulate"
       d="M 10.955139,21.66425 C 6.327336,21.66425 2.575,25.442269 2.575,30.10175 C 2.575,34.76123 6.327336,38.539252 10.955139,38.53925 C 14.281373,38.53925 17.142734,36.58699 18.497265,33.758 L 29.515596,33.758 C 30.850987,36.637637 33.75684,38.633 37.119797,38.633 C 41.7476,38.633 45.499935,34.854981 45.499936,30.1955 C 45.499936,25.827238 42.183639,22.221773 37.957811,21.78925 C 37.646034,21.705336 37.334413,21.66425 36.995646,21.66425 L 11.948341,21.66425 C 11.844161,21.66425 11.739951,21.687203 11.637966,21.6955 C 11.407124,21.676257 11.190888,21.66425 10.955139,21.66425 z"
       id="path5553" />
    <path
       id="path5729"
       d="M 11.564683,22.500195 C 7.152503,22.500195 3.575,25.617235 3.575,29.461521 C 3.575,33.305806 7.152503,36.422849 11.564683,36.422847 C 14.735938,36.422847 17.463979,34.812143 18.755399,32.478095 L 29.260353,32.478095 C 30.533524,34.853929 33.303984,36.500196 36.510251,36.500196 C 40.922431,36.500196 44.499933,33.383156 44.499934,29.538869 C 44.499934,25.934852 41.338154,22.960177 37.30922,22.603325 C 37.011969,22.534093 36.714868,22.500195 36.391885,22.500195 L 12.511609,22.500195 C 12.412283,22.500195 12.312928,22.519132 12.215695,22.525978 C 11.995609,22.510102 11.789448,22.500195 11.564683,22.500195 z"
       style="opacity:1;fill:none;fill-opacity:1;fill-rule:nonzero;stroke:url(#linearGradient5737);stroke-width:1;stroke-linecap:butt;stroke-linejoin:miter;marker:none;marker-start:none;marker-mid:none;marker-end:none;stroke-miterlimit:4;stroke-dasharray:none;stroke-dashoffset:0;stroke-opacity:1;visibility:visible;display:inline;overflow:visible;enable-background:accumulate" />
    <path
       sodipodi:type="arc"
       style="opacity:1;fill:#ef2929;fill-opacity:1;fill-rule:nonzero;stroke:#cc0000;stroke-width:1;stroke-linecap:butt;stroke-linejoin:miter;marker:none;marker-start:none;marker-mid:none;marker-end:none;stroke-miterlimit:4;stroke-dasharray:none;stroke-dashoffset:0;stroke-opacity:1;visibility:visible;display:inline;overflow:visible;enable-background:accumulate"
       id="path5767"
       sodipodi:cx="33"
       sodipodi:cy="28.5"
       sodipodi:rx="2"
       sodipodi:ry="1.5"
       d="M 35,28.5 A 2,1.5 0 1 1 31,28.5 A 2,1.5 0 1 1 35,28.5 z"
       transform="translate(-1.500064,0.500194)" />
    <path
       transform="translate(2.999936,-2.499806)"
       d="M 35,28.5 A 2,1.5 0 1 1 31,28.5 A 2,1.5 0 1 1 35,28.5 z"
       sodipodi:ry="1.5"
       sodipodi:rx="2"
       sodipodi:cy="28.5"
       sodipodi:cx="33"
       id="path5769"
       style="opacity:1;fill:#3465a4;fill-opacity:1;fill-rule:nonzero;stroke:#204a87;stroke-width:1;stroke-linecap:butt;stroke-linejoin:miter;marker:none;marker-start:none;marker-mid:none;marker-end:none;stroke-miterlimit:4;stroke-dasharray:none;stroke-dashoffset:0;stroke-opacity:1;visibility:visible;display:inline;overflow:visible;enable-background:accumulate"
       sodipodi:type="arc" />
    <path
       sodipodi:type="arc"
       style="opacity:1;fill:#73d216;fill-opacity:1;fill-rule:nonzero;stroke:#4e9a06;stroke-width:1;stroke-linecap:butt;stroke-linejoin:miter;marker:none;marker-start:none;marker-mid:none;marker-end:none;stroke-miterlimit:4;stroke-dasharray:none;stroke-dashoffset:0;stroke-opacity:1;visibility:visible;display:inline;overflow:visible;enable-background:accumulate"
       id="path5771"
       sodipodi:cx="33"
       sodipodi:cy="28.5"
       sodipodi:rx="2"
       sodipodi:ry="1.5"
       d="M 35,28.5 A 2,1.5 0 1 1 31,28.5 A 2,1.5 0 1 1 35,28.5 z"
       transform="translate(7.499936,0.500194)" />
    <path
       transform="translate(2.999936,3.500194)"
       d="M 35,28.5 A 2,1.5 0 1 1 31,28.5 A 2,1.5 0 1 1 35,28.5 z"
       sodipodi:ry="1.5"
       sodipodi:rx="2"
       sodipodi:cy="28.5"
       sodipodi:cx="33"
       id="path5773"
       style="opacity:1;fill:#edd400;fill-opacity:1;fill-rule:nonzero;stroke:#c4a000;stroke-width:1;stroke-linecap:butt;stroke-linejoin:miter;marker:none;marker-start:none;marker-mid:none;marker-end:none;stroke-miterlimit:4;stroke-dasharray:none;stroke-dashoffset:0;stroke-opacity:1;visibility:visible;display:inline;overflow:visible;enable-background:accumulate"
       sodipodi:type="arc" />
    <path
       style="opacity:1;fill:url(#radialGradient6303);fill-opacity:1;fill-rule:nonzero;stroke:#2e3436;stroke-width:1;stroke-linecap:butt;stroke-linejoin:miter;marker:none;marker-start:none;marker-mid:none;marker-end:none;stroke-miterlimit:4;stroke-dasharray:none;stroke-dashoffset:0;stroke-opacity:1;visibility:visible;display:inline;overflow:visible;enable-background:accumulate"
       d="M 10.843686,25.500194 C 10.099534,25.500194 9.499936,26.039832 9.499936,26.709569 L 9.499936,28.200194 L 7.843686,28.200194 C 7.099534,28.200194 6.499936,28.739832 6.499936,29.409569 L 6.499936,30.403319 C 6.499936,31.073056 7.099534,31.612694 7.843686,31.612694 L 9.499936,31.612694 L 9.499936,33.290819 C 9.499936,33.960556 10.099534,34.500194 10.843686,34.500194 L 12.156186,34.500194 C 12.900338,34.500194 13.499936,33.960556 13.499936,33.290819 L 13.499936,31.612694 L 15.156186,31.612694 C 15.900338,31.612694 16.499936,31.073056 16.499936,30.403319 L 16.499936,29.409569 C 16.499936,28.739832 15.900338,28.200194 15.156186,28.200194 L 13.499936,28.200194 L 13.499936,26.709569 C 13.499936,26.039832 12.900338,25.500194 12.156186,25.500194 L 10.843686,25.500194 z"
       id="rect5775"
       sodipodi:nodetypes="ccccccccccccccccccccc" />
    <g
       id="g5812"
       style="opacity:0.8433735"
       transform="translate(-6.4029802e-5,1.94e-4)">
      <path
         sodipodi:nodetypes="cccccc"
         id="path5782"
         d="M 7.0625,29.3125 C 7.0625,29.3125 7.03125,30.15625 7.625,30.1875 L 10.03125,30.1875 L 10,31.0625 L 7.6875,31 C 6.875,30.9375 7.0625,29.3125 7.0625,29.3125 z"
         style="opacity:1;fill:url(#linearGradient5790);fill-opacity:1;fill-rule:nonzero;stroke:none;stroke-width:1;stroke-linecap:butt;stroke-linejoin:miter;marker:none;marker-start:none;marker-mid:none;marker-end:none;stroke-miterlimit:4;stroke-dasharray:none;stroke-dashoffset:0;stroke-opacity:1;visibility:visible;display:inline;overflow:visible;enable-background:accumulate" />
      <path
         style="opacity:1;fill:url(#linearGradient5800);fill-opacity:1;fill-rule:nonzero;stroke:none;stroke-width:1;stroke-linecap:butt;stroke-linejoin:miter;marker:none;marker-start:none;marker-mid:none;marker-end:none;stroke-miterlimit:4;stroke-dasharray:none;stroke-dashoffset:0;stroke-opacity:1;visibility:visible;display:inline;overflow:visible;enable-background:accumulate"
         d="M 16.043802,29.3125 C 16.043802,29.3125 16.075052,30.15625 15.481302,30.1875 L 13.075052,30.1875 L 13.106302,31.0625 L 15.418802,31 C 16.231302,30.9375 16.043802,29.3125 16.043802,29.3125 z"
         id="path5798"
         sodipodi:nodetypes="cccccc" />
      <path
         sodipodi:nodetypes="ccccc"
         id="path5802"
         d="M 9.9375,32.71875 C 10.0625,32.71875 12.96875,32.71875 12.96875,32.71875 C 12.926882,33.243364 13.047904,33.869784 12.375,34 L 10.625,34 C 9.8610868,33.869998 9.9917274,33.243022 9.9375,32.71875 z"
         style="opacity:1;fill:url(#linearGradient5810);fill-opacity:1;fill-rule:nonzero;stroke:none;stroke-width:1;stroke-linecap:butt;stroke-linejoin:miter;marker:none;marker-start:none;marker-mid:none;marker-end:none;stroke-miterlimit:4;stroke-dasharray:none;stroke-dashoffset:0;stroke-opacity:1;visibility:visible;display:inline;overflow:visible;enable-background:accumulate" />
    </g>
    <path
       sodipodi:type="arc"
       style="opacity:1;fill:#ffffff;fill-opacity:0.64375;fill-rule:nonzero;stroke:none;stroke-width:1;stroke-linecap:butt;stroke-linejoin:miter;marker:none;marker-start:none;marker-mid:none;marker-end:none;stroke-miterlimit:4;stroke-dasharray:none;stroke-dashoffset:0;stroke-opacity:1;visibility:visible;display:inline;overflow:visible;enable-background:accumulate"
       id="path5817"
       sodipodi:cx="35.953125"
       sodipodi:cy="25.640625"
       sodipodi:rx="1.109375"
       sodipodi:ry="0.484375"
       d="M 37.0625,25.640625 A 1.109375,0.484375 0 1 1 34.84375,25.640625 A 1.109375,0.484375 0 1 1 37.0625,25.640625 z"
       transform="translate(6.243597e-2,-0.124806)"
       inkscape:transform-center-x="0.28125"
       inkscape:transform-center-y="1.78125" />
    <path
       inkscape:transform-center-y="1.78125"
       inkscape:transform-center-x="0.28125"
       transform="translate(-4.437564,2.843944)"
       d="M 37.0625,25.640625 A 1.109375,0.484375 0 1 1 34.84375,25.640625 A 1.109375,0.484375 0 1 1 37.0625,25.640625 z"
       sodipodi:ry="0.484375"
       sodipodi:rx="1.109375"
       sodipodi:cy="25.640625"
       sodipodi:cx="35.953125"
       id="path6200"
       style="opacity:1;fill:#ffffff;fill-opacity:0.64375;fill-rule:nonzero;stroke:none;stroke-width:1;stroke-linecap:butt;stroke-linejoin:miter;marker:none;marker-start:none;marker-mid:none;marker-end:none;stroke-miterlimit:4;stroke-dasharray:none;stroke-dashoffset:0;stroke-opacity:1;visibility:visible;display:inline;overflow:visible;enable-background:accumulate"
       sodipodi:type="arc" />
    <path
       sodipodi:type="arc"
       style="opacity:1;fill:#ffffff;fill-opacity:0.64375;fill-rule:nonzero;stroke:none;stroke-width:1;stroke-linecap:butt;stroke-linejoin:miter;marker:none;marker-start:none;marker-mid:none;marker-end:none;stroke-miterlimit:4;stroke-dasharray:none;stroke-dashoffset:0;stroke-opacity:1;visibility:visible;display:inline;overflow:visible;enable-background:accumulate"
       id="path6202"
       sodipodi:cx="35.953125"
       sodipodi:cy="25.640625"
       sodipodi:rx="1.109375"
       sodipodi:ry="0.484375"
       d="M 37.0625,25.640625 A 1.109375,0.484375 0 1 1 34.84375,25.640625 A 1.109375,0.484375 0 1 1 37.0625,25.640625 z"
       transform="translate(4.593686,2.906444)"
       inkscape:transform-center-x="0.28125"
       inkscape:transform-center-y="1.78125" />
    <path
       inkscape:transform-center-y="1.78125"
       inkscape:transform-center-x="0.28125"
       transform="translate(6.243597e-2,5.875194)"
       d="M 37.0625,25.640625 A 1.109375,0.484375 0 1 1 34.84375,25.640625 A 1.109375,0.484375 0 1 1 37.0625,25.640625 z"
       sodipodi:ry="0.484375"
       sodipodi:rx="1.109375"
       sodipodi:cy="25.640625"
       sodipodi:cx="35.953125"
       id="path6204"
       style="opacity:1;fill:#ffffff;fill-opacity:0.64375;fill-rule:nonzero;stroke:none;stroke-width:1;stroke-linecap:butt;stroke-linejoin:miter;marker:none;marker-start:none;marker-mid:none;marker-end:none;stroke-miterlimit:4;stroke-dasharray:none;stroke-dashoffset:0;stroke-opacity:1;visibility:visible;display:inline;overflow:visible;enable-background:accumulate"
       sodipodi:type="arc" />
    <g
       id="g6274"
       transform="translate(0.999936,-0.499806)">
      <path
         style="opacity:1;fill:url(#linearGradient6280);fill-opacity:1;fill-rule:nonzero;stroke:url(#linearGradient6282);stroke-width:1;stroke-linecap:butt;stroke-linejoin:miter;marker:none;marker-start:none;marker-mid:none;marker-end:none;stroke-miterlimit:4;stroke-dasharray:none;stroke-dashoffset:0;stroke-opacity:1;visibility:visible;display:inline;overflow:visible;enable-background:accumulate"
         d="M 19,28 L 19,31 L 22.5,29.5 L 19,28 z"
         id="path6256" />
      <path
         id="path6236"
         d="M 19,28 L 19,31 L 22.5,29.5 L 19,28 z"
         style="opacity:1;fill:url(#linearGradient6284);fill-opacity:1;fill-rule:nonzero;stroke:none;stroke-width:1;stroke-linecap:butt;stroke-linejoin:miter;marker:none;marker-start:none;marker-mid:none;marker-end:none;stroke-miterlimit:4;stroke-dasharray:none;stroke-dashoffset:0;stroke-opacity:1;visibility:visible;display:inline;overflow:visible;enable-background:accumulate" />
      <rect
         style="opacity:1;fill:url(#linearGradient6286);fill-opacity:1;fill-rule:nonzero;stroke:url(#linearGradient6288);stroke-width:1;stroke-linecap:butt;stroke-linejoin:miter;marker:none;marker-start:none;marker-mid:none;marker-end:none;stroke-miterlimit:4;stroke-dasharray:none;stroke-dashoffset:0;stroke-opacity:1;visibility:visible;display:inline;overflow:visible;enable-background:accumulate"
         id="rect6258"
         width="3"
         height="3"
         x="23.5"
         y="28"
         rx="0.84323502"
         ry="0.84323502" />
      <rect
         ry="0.84323502"
         rx="0.84323502"
         y="28"
         x="23.5"
         height="3"
         width="3"
         id="rect6238"
         style="opacity:1;fill:url(#linearGradient6290);fill-opacity:1;fill-rule:nonzero;stroke:none;stroke-width:1;stroke-linecap:butt;stroke-linejoin:miter;marker:none;marker-start:none;marker-mid:none;marker-end:none;stroke-miterlimit:4;stroke-dasharray:none;stroke-dashoffset:0;stroke-opacity:1;visibility:visible;display:inline;overflow:visible;enable-background:accumulate" />
    </g>
    <path
       style="font-size:1.99232042px;font-style:normal;font-variant:normal;font-weight:normal;font-stretch:normal;text-indent:0;text-align:start;text-decoration:none;line-height:200%;letter-spacing:normal;word-spacing:normal;text-transform:none;direction:ltr;block-progression:tb;writing-mode:lr-tb;text-anchor:start;fill:#204a87;fill-opacity:1;fill-rule:nonzero;stroke:none;stroke-width:1;stroke-linecap:butt;stroke-linejoin:miter;marker:none;marker-start:none;marker-mid:none;marker-end:none;stroke-miterlimit:4;stroke-dashoffset:0;stroke-opacity:1;visibility:visible;display:inline;overflow:visible;enable-background:accumulate;font-family:Qlassik Bold"
       d="M 20.845547,24.435429 C 20.8316,24.447383 20.751907,24.475275 20.726007,24.473283 C 20.662253,24.473283 20.648307,24.399567 20.640338,24.295966 L 20.640338,24.198343 C 20.640338,24.156504 20.638345,24.114665 20.638345,24.068842 C 20.638345,23.985164 20.640338,23.899495 20.64233,23.811832 C 20.716046,23.811832 20.743938,23.811832 20.783785,23.80984 C 20.799723,23.80984 20.819646,23.807848 20.833593,23.805856 C 20.873439,23.797886 20.889378,23.771986 20.895355,23.660416 L 20.64233,23.660416 C 20.64233,23.584708 20.644322,23.520954 20.646315,23.437276 L 20.646315,23.405399 C 20.526775,23.413368 20.474975,23.451223 20.459036,23.497046 C 20.457044,23.552831 20.451067,23.614593 20.449075,23.670378 C 20.437121,23.676355 20.433136,23.67237 20.417198,23.676355 C 20.391298,23.684324 20.361413,23.692293 20.331528,23.712216 C 20.315589,23.728155 20.313597,23.728155 20.313597,23.785932 C 20.343482,23.799879 20.377351,23.811832 20.431144,23.813825 L 20.431144,24.287997 C 20.431144,24.451367 20.468998,24.628684 20.66823,24.628684 C 20.731984,24.628684 20.807693,24.610753 20.853516,24.580868 C 20.867462,24.568914 20.877424,24.55696 20.881408,24.543014 C 20.883401,24.527076 20.883401,24.50516 20.883401,24.487229 C 20.883401,24.469298 20.881408,24.45336 20.879416,24.441406 L 20.845547,24.435429 M 21.033167,23.78394 C 21.037152,23.805856 21.045121,23.839725 21.073013,23.86961 C 21.102898,23.86961 21.124814,23.863633 21.146729,23.853671 C 21.204507,23.831756 21.282207,23.803863 21.345961,23.803863 C 21.411708,23.803863 21.419677,23.847694 21.419677,23.931372 L 21.419677,24.028995 C 21.407723,24.027003 21.393777,24.027003 21.375846,24.027003 C 21.357915,24.027003 21.336,24.027003 21.318069,24.028995 C 21.192553,24.042942 20.969413,24.112673 20.969413,24.353744 C 20.969413,24.539029 21.098914,24.622707 21.234391,24.622707 C 21.290176,24.622707 21.339984,24.618722 21.3878,24.594814 C 21.399754,24.586845 21.42167,24.572899 21.431631,24.56493 C 21.457531,24.592822 21.505347,24.622707 21.55117,24.622707 C 21.612932,24.620715 21.656763,24.592822 21.674694,24.566922 C 21.674694,24.554968 21.676687,24.509145 21.678679,24.481252 C 21.616917,24.493206 21.622894,24.403552 21.622894,24.403552 C 21.622894,24.36769 21.624886,24.278035 21.624886,24.232212 C 21.626879,24.158496 21.626879,24.080796 21.626879,24.00708 L 21.626879,23.919418 C 21.626879,23.746086 21.575078,23.64647 21.415693,23.636508 C 21.383815,23.634516 21.377838,23.634516 21.345961,23.634516 C 21.206499,23.638501 21.080983,23.694286 21.037152,23.734132 C 21.033167,23.744094 21.031175,23.754055 21.031175,23.760032 C 21.031175,23.768001 21.031175,23.773978 21.035159,23.785932 L 21.033167,23.78394 M 21.415693,24.387613 C 21.4137,24.399567 21.411708,24.413513 21.411708,24.411521 L 21.4137,24.409529 C 21.389792,24.441406 21.330023,24.467306 21.278222,24.467306 L 21.266269,24.467306 C 21.216461,24.463321 21.180599,24.429452 21.180599,24.337805 C 21.180599,24.220258 21.254315,24.182404 21.339984,24.166466 L 21.337992,24.166466 C 21.357915,24.164473 21.379831,24.162481 21.399754,24.162481 L 21.419677,24.162481 L 21.419677,24.293974 C 21.419677,24.33382 21.419677,24.363705 21.415693,24.387613 M 22.201258,23.799879 C 22.302867,23.799879 22.336736,23.851679 22.336736,23.995126 L 22.336736,24.517114 C 22.336736,24.546999 22.342713,24.576884 22.358652,24.606768 C 22.490145,24.606768 22.526007,24.598799 22.551907,24.574891 C 22.549914,24.497191 22.547922,24.399567 22.547922,24.291982 L 22.547922,23.991141 C 22.547922,23.764017 22.500106,23.636508 22.251066,23.636508 C 22.203251,23.636508 22.163404,23.644478 22.121565,23.658424 C 22.085704,23.670378 22.043865,23.690301 22.004019,23.718193 C 21.992065,23.694286 21.968157,23.676355 21.932295,23.676355 C 21.92831,23.676355 21.916356,23.676355 21.904403,23.680339 C 21.860572,23.69827 21.834671,23.714209 21.820725,23.730147 C 21.834671,23.769994 21.842641,23.815817 21.842641,23.879571 L 21.842641,24.214281 C 21.842641,24.365697 21.840648,24.501175 21.838656,24.606768 L 21.890456,24.606768 C 21.978118,24.604776 22.000034,24.604776 22.027926,24.580868 C 22.04785,24.552976 22.051834,24.529068 22.051834,24.485237 L 22.051834,23.871602 L 22.045857,23.877579 C 22.085704,23.833748 22.137504,23.799879 22.201258,23.799879 M 23.412371,23.979187 C 23.412371,23.915433 23.398425,23.867617 23.366548,23.817809 C 23.390456,23.819802 23.40241,23.819802 23.430302,23.819802 C 23.478118,23.819802 23.502026,23.781948 23.502026,23.730147 C 23.502026,23.702255 23.494056,23.678347 23.486087,23.662408 C 23.466164,23.662408 23.424325,23.664401 23.398425,23.666393 L 23.400417,23.666393 C 23.358579,23.668385 23.302793,23.670378 23.258962,23.67237 C 23.252986,23.676355 23.254978,23.678347 23.258962,23.680339 C 23.213139,23.658424 23.151377,23.634516 23.081646,23.634516 C 22.876437,23.634516 22.729005,23.762025 22.729005,23.987157 C 22.729005,24.11068 22.770844,24.20432 22.856514,24.258112 C 22.848544,24.266082 22.850537,24.268074 22.840575,24.276043 C 22.81069,24.303936 22.772836,24.335813 22.744944,24.363705 C 22.729005,24.383628 22.719044,24.397575 22.719044,24.411521 C 22.721036,24.47129 22.770844,24.525083 22.868468,24.554968 C 22.868468,24.554968 22.928237,24.574891 23.019884,24.58286 C 23.031838,24.58286 23.045784,24.584853 23.057738,24.584853 C 23.103561,24.586845 23.147393,24.588837 23.191224,24.594814 C 23.258962,24.602784 23.278886,24.636653 23.294824,24.678492 C 23.294824,24.684469 23.294824,24.700407 23.294824,24.706384 C 23.296817,24.788069 23.195208,24.913586 23.063715,24.949447 C 23.027853,24.955424 22.970076,24.967378 22.93023,24.967378 C 22.904329,24.967378 22.884406,24.963394 22.880422,24.947455 C 22.872452,24.911593 22.942184,24.841862 23.005938,24.78807 C 23.0418,24.7542 23.029846,24.686461 22.980038,24.660561 C 22.854522,24.744238 22.653297,24.915578 22.67322,25.015194 C 22.693143,25.080941 22.78479,25.102856 22.884406,25.102856 C 22.94816,25.102856 23.017892,25.094887 23.069692,25.084925 C 23.31674,25.027148 23.498041,24.827916 23.498041,24.652592 C 23.492064,24.535045 23.406394,24.465314 23.28287,24.441406 C 23.264939,24.437421 23.237047,24.435429 23.211147,24.433436 C 23.17927,24.431444 23.147393,24.42746 23.115515,24.425467 L 23.037815,24.41949 C 22.972068,24.413513 22.936207,24.395582 22.936207,24.377651 C 22.936207,24.369682 22.938199,24.357728 22.946168,24.349759 L 22.986015,24.309913 C 23.009922,24.313897 23.03383,24.31589 23.069692,24.31589 C 23.28287,24.31589 23.412371,24.192365 23.412371,23.979187 M 23.057738,23.768001 C 23.147392,23.768001 23.197201,23.839725 23.209154,23.961257 C 23.219116,24.086773 23.183254,24.180412 23.0936,24.180412 C 22.995976,24.180412 22.94816,24.102711 22.938199,23.977195 C 22.924253,23.83574 22.980038,23.768001 23.057738,23.768001 M 23.995405,24.461329 C 23.871881,24.461329 23.788204,24.397574 23.784219,24.198343 C 23.816096,24.200335 23.822073,24.198343 23.85395,24.198343 C 23.947589,24.198343 24.049198,24.194358 24.11096,24.186389 C 24.168737,24.178419 24.242453,24.152519 24.266361,24.132596 C 24.272338,24.102711 24.276322,24.05888 24.276322,24.015049 C 24.276322,23.98118 24.27433,23.949303 24.272338,23.919418 C 24.256399,23.746086 24.158775,23.634516 23.969505,23.634516 C 23.740388,23.634516 23.573033,23.777963 23.573033,24.164473 C 23.573033,24.327843 23.608895,24.45336 23.682611,24.529068 C 23.762304,24.608761 23.863912,24.626692 23.963528,24.626692 C 24.027282,24.626692 24.089044,24.614738 24.118929,24.606768 L 24.116937,24.606768 C 24.178699,24.59083 24.244445,24.545006 24.246438,24.503168 C 24.244445,24.481252 24.238468,24.441406 24.226514,24.403552 C 24.148814,24.44539 24.073106,24.461329 23.995405,24.461329 M 23.949582,23.781948 C 24.02529,23.781948 24.061152,23.833748 24.071113,23.939341 L 24.071113,23.959264 C 24.071113,23.967233 24.073106,23.97321 24.073106,23.98118 C 24.073106,24.005088 24.069121,24.027003 24.065136,24.040949 C 24.055175,24.046926 24.045213,24.046926 24.035252,24.048919 C 23.995405,24.052903 23.91372,24.054896 23.843989,24.054896 L 23.788204,24.054896 C 23.800158,23.875587 23.869889,23.791909 23.941612,23.781948 L 23.949582,23.781948 M 24.796723,23.799879 C 24.898331,23.799879 24.932201,23.851679 24.932201,23.995126 L 24.932201,24.517114 C 24.932201,24.546999 24.938178,24.576884 24.954116,24.606768 C 25.085609,24.606768 25.121471,24.598799 25.147371,24.574891 C 25.145379,24.497191 25.143386,24.399567 25.143386,24.291982 L 25.143386,23.991141 C 25.143386,23.764017 25.095571,23.636508 24.846531,23.636508 C 24.798715,23.636508 24.758869,23.644478 24.71703,23.658424 C 24.681168,23.670378 24.639329,23.690301 24.599483,23.718193 C 24.587529,23.694286 24.563621,23.676355 24.527759,23.676355 C 24.523775,23.676355 24.511821,23.676355 24.499867,23.680339 C 24.456036,23.69827 24.430136,23.714209 24.41619,23.730147 C 24.430136,23.769994 24.438105,23.815817 24.438105,23.879571 L 24.438105,24.214281 C 24.438105,24.365697 24.436113,24.501175 24.43412,24.606768 L 24.485921,24.606768 C 24.573583,24.604776 24.595498,24.604776 24.623391,24.580868 C 24.643314,24.552976 24.647299,24.529068 24.647299,24.485237 L 24.647299,23.871602 L 24.641322,23.877579 C 24.681168,23.833748 24.732969,23.799879 24.796723,23.799879 M 25.818565,24.435429 C 25.804619,24.447383 25.724926,24.475275 25.699026,24.473283 C 25.635272,24.473283 25.621325,24.399567 25.613356,24.295966 L 25.613356,24.198343 C 25.613356,24.156504 25.611364,24.114665 25.611364,24.068842 C 25.611364,23.985164 25.613356,23.899495 25.615349,23.811832 C 25.689064,23.811832 25.716957,23.811832 25.756803,23.80984 C 25.772742,23.80984 25.792665,23.807848 25.806611,23.805856 C 25.846458,23.797886 25.862396,23.771986 25.868373,23.660416 L 25.615349,23.660416 C 25.615349,23.584708 25.617341,23.520954 25.619333,23.437276 L 25.619333,23.405399 C 25.499794,23.413368 25.447994,23.451223 25.432055,23.497046 C 25.430063,23.552831 25.424086,23.614593 25.422093,23.670378 C 25.41014,23.676355 25.406155,23.67237 25.390216,23.676355 C 25.364316,23.684324 25.334431,23.692293 25.304547,23.712216 C 25.288608,23.728155 25.286616,23.728155 25.286616,23.785932 C 25.3165,23.799879 25.35037,23.811832 25.404163,23.813825 L 25.404163,24.287997 C 25.404163,24.451367 25.442017,24.628684 25.641249,24.628684 C 25.705003,24.628684 25.780711,24.610753 25.826534,24.580868 C 25.840481,24.568914 25.850442,24.55696 25.854427,24.543014 C 25.856419,24.527076 25.856419,24.50516 25.856419,24.487229 C 25.856419,24.469298 25.854427,24.45336 25.852435,24.441406 L 25.818565,24.435429 M 26.747329,24.122634 C 26.747329,23.801871 26.615836,23.634516 26.354842,23.634516 C 26.117756,23.634516 25.950401,23.79191 25.950401,24.134588 C 25.950401,24.483244 26.093848,24.628684 26.348865,24.628684 C 26.577982,24.628684 26.747329,24.457344 26.747329,24.122634 M 26.171548,24.126619 C 26.171548,23.879572 26.255226,23.785932 26.348865,23.785932 C 26.458442,23.785932 26.528174,23.879572 26.528174,24.128611 C 26.528174,24.391597 26.446488,24.481252 26.35285,24.481252 C 26.249249,24.481252 26.171548,24.391597 26.171548,24.126619"
       id="text6292" />
    <path
       style="opacity:0.22289159;fill:url(#linearGradient6323);fill-opacity:1;fill-rule:nonzero;stroke:none;stroke-width:1;stroke-linecap:butt;stroke-linejoin:miter;marker:none;marker-start:none;marker-mid:none;marker-end:none;stroke-miterlimit:4;stroke-dasharray:none;stroke-dashoffset:0;stroke-opacity:1;visibility:visible;display:inline;overflow:visible;enable-background:accumulate"
       d="M 20.086188,27.670874 L 20.086188,29.107185 L 22.826227,29.107185 L 23.246071,28.974602 L 20.086188,27.670874 z"
       id="path6315" />
    <path
       style="opacity:0.22289159;fill:url(#linearGradient6330);fill-opacity:1;fill-rule:nonzero;stroke:none;stroke-width:1;stroke-linecap:butt;stroke-linejoin:miter;marker:none;marker-start:none;marker-mid:none;marker-end:none;stroke-miterlimit:4;stroke-dasharray:none;stroke-dashoffset:0;stroke-opacity:1;visibility:visible;display:inline;overflow:visible;enable-background:accumulate"
       d="M 25.246145,27.718944 C 24.950378,27.718944 24.714895,27.954426 24.714895,28.250194 L 24.714895,29.093944 L 27.214895,29.093944 L 27.214895,28.250194 C 27.214895,27.954427 26.948162,27.718944 26.652395,27.718944 L 25.246145,27.718944 z"
       id="rect6325" />
  </g>
</svg>
