<?xml version="1.0" encoding="UTF-8" standalone="no"?>
<!-- Created with Inkscape (http://www.inkscape.org/) -->
<svg
   xmlns:dc="http://purl.org/dc/elements/1.1/"
   xmlns:cc="http://creativecommons.org/ns#"
   xmlns:rdf="http://www.w3.org/1999/02/22-rdf-syntax-ns#"
   xmlns:svg="http://www.w3.org/2000/svg"
   xmlns="http://www.w3.org/2000/svg"
   xmlns:xlink="http://www.w3.org/1999/xlink"
   xmlns:sodipodi="http://sodipodi.sourceforge.net/DTD/sodipodi-0.dtd"
   xmlns:inkscape="http://www.inkscape.org/namespaces/inkscape"
   width="48px"
   height="48px"
   id="svg3397"
   sodipodi:version="0.32"
   inkscape:version="0.46+devel"
   sodipodi:docname="emblem-money.svg"
   inkscape:output_extension="org.inkscape.output.svg.inkscape">
  <defs
     id="defs3399">
    <linearGradient
       id="linearGradient2300"
       inkscape:collect="always">
      <stop
         id="stop2302"
         offset="0"
         style="stop-color:#555753;stop-opacity:1;" />
      <stop
         id="stop2304"
         offset="1"
         style="stop-color:#555753;stop-opacity:0;" />
    </linearGradient>
    <radialGradient
       inkscape:collect="always"
       xlink:href="#linearGradient2649"
       id="radialGradient2655"
       cx="24.013132"
       cy="31.643599"
       fx="24.013132"
       fy="31.643599"
       r="14.986866"
       gradientTransform="matrix(3.323547,0,0,2.772052,-55.795639,-48.866195)"
       gradientUnits="userSpaceOnUse" />
    <linearGradient
       inkscape:collect="always"
       id="linearGradient2649">
      <stop
         style="stop-color:#d3d7cf;stop-opacity:1;"
         offset="0"
         id="stop2651" />
      <stop
         style="stop-color:#d3d7cf;stop-opacity:0;"
         offset="1"
         id="stop2653" />
    </linearGradient>
    <radialGradient
       inkscape:collect="always"
       xlink:href="#linearGradient2623"
       id="radialGradient2629"
       cx="24.5"
       cy="18.592903"
       fx="24.5"
       fy="18.592903"
       r="14.5"
       gradientTransform="matrix(2.94027,0,0,2.433326,-47.536589,-23.366555)"
       gradientUnits="userSpaceOnUse" />
    <linearGradient
       inkscape:collect="always"
       id="linearGradient2623">
      <stop
         style="stop-color:#babdb6;stop-opacity:1;"
         offset="0"
         id="stop2625" />
      <stop
         style="stop-color:#babdb6;stop-opacity:0;"
         offset="1"
         id="stop2627" />
    </linearGradient>
    <linearGradient
       inkscape:collect="always"
       xlink:href="#linearGradient2632"
       id="linearGradient2639"
       x1="24.612919"
       y1="20.159996"
       x2="29.182333"
       y2="12.24554"
       gradientUnits="userSpaceOnUse"
       gradientTransform="translate(1.9731731e-6,0.99998521)" />
    <linearGradient
       inkscape:collect="always"
       id="linearGradient2632">
      <stop
         style="stop-color:#204a87;stop-opacity:1;"
         offset="0"
         id="stop2635" />
      <stop
         style="stop-color:#204a87;stop-opacity:0;"
         offset="1"
         id="stop2637" />
    </linearGradient>
    <linearGradient
       inkscape:collect="always"
       xlink:href="#linearGradient2707"
       id="linearGradient2713"
       x1="18"
       y1="39"
       x2="18"
       y2="45.780262"
       gradientUnits="userSpaceOnUse"
       gradientTransform="matrix(1,0,0,0.833333,9.7317314e-7,7.4999852)" />
    <linearGradient
       inkscape:collect="always"
       id="linearGradient2707">
      <stop
         style="stop-color:#eeeeec;stop-opacity:1;"
         offset="0"
         id="stop2709" />
      <stop
         style="stop-color:#eeeeec;stop-opacity:0;"
         offset="1"
         id="stop2711" />
    </linearGradient>
    <radialGradient
       r="21.030567"
       fy="40.604275"
       fx="17.984474"
       cy="40.604275"
       cx="17.984474"
       gradientTransform="matrix(1.113818,0,0,0.539348,-2.124098,18.94132)"
       gradientUnits="userSpaceOnUse"
       id="radialGradient3502"
       xlink:href="#linearGradient2300"
       inkscape:collect="always" />
  </defs>
  <sodipodi:namedview
     id="base"
     pagecolor="#ffffff"
     bordercolor="#666666"
     borderopacity="1.0"
     inkscape:pageopacity="0.0"
     inkscape:pageshadow="2"
     inkscape:zoom="3.5"
     inkscape:cx="10.509668"
     inkscape:cy="23.899072"
     inkscape:current-layer="layer1"
     showgrid="true"
     inkscape:grid-bbox="true"
     inkscape:document-units="px"
     inkscape:window-width="567"
     inkscape:window-height="460"
     inkscape:window-x="422"
     inkscape:window-y="350" />
  <metadata
     id="metadata3402">
    <rdf:RDF>
      <cc:Work
         rdf:about="">
        <dc:format>image/svg+xml</dc:format>
        <dc:type
           rdf:resource="http://purl.org/dc/dcmitype/StillImage" />
        <dc:title />
      </cc:Work>
    </rdf:RDF>
  </metadata>
  <g
     id="layer1"
     inkscape:label="Layer 1"
     inkscape:groupmode="layer">
    <path
       sodipodi:type="arc"
       style="opacity:0.5;fill:url(#radialGradient3502);fill-opacity:1;fill-rule:evenodd;stroke:none"
       id="path2290"
       sodipodi:cx="18.66226"
       sodipodi:cy="41.416107"
       sodipodi:rx="21.030567"
       sodipodi:ry="10.183721"
       d="m 39.692827,41.416107 a 21.030567,10.183721 0 1 1 -42.0611341,0 21.030567,10.183721 0 1 1 42.0611341,0 z"
       transform="matrix(1.141197,0,0,0.834666,2.702705,4.9313782)" />
    <path
       sodipodi:type="arc"
       style="fill:#edd400;fill-opacity:1;fill-rule:evenodd;stroke:#786100;stroke-width:1.04999924;stroke-miterlimit:4;stroke-opacity:1;stroke-dasharray:none"
       id="path2773"
       sodipodi:cx="26.492901"
       sodipodi:cy="18.894651"
       sodipodi:rx="6.330162"
       sodipodi:ry="2.1770399"
       d="m 32.823063,18.894651 a 6.330162,2.1770399 0 1 1 -12.660324,0 6.330162,2.1770399 0 1 1 12.660324,0 z"
       transform="matrix(0.790399,0,0,1.147562,20.585601,17.320405)" />
    <path
       sodipodi:type="arc"
       style="opacity:0.6;fill:none;stroke:none"
       id="path2775"
       sodipodi:cx="26.492901"
       sodipodi:cy="18.894651"
       sodipodi:rx="6.330162"
       sodipodi:ry="2.1770399"
       d="m 32.823063,18.894651 a 6.330162,2.1770399 0 1 1 -12.660324,0 6.330162,2.1770399 0 1 1 12.660324,0 z"
       transform="matrix(0.632511,0,0,0.687532,24.766131,26.012525)" />
    <path
       sodipodi:type="arc"
       style="fill:#edd400;fill-opacity:1;fill-rule:evenodd;stroke:#8c7200;stroke-width:1.04999924;stroke-miterlimit:4;stroke-opacity:1;stroke-dasharray:none"
       id="path2777"
       sodipodi:cx="26.492901"
       sodipodi:cy="18.894651"
       sodipodi:rx="6.330162"
       sodipodi:ry="2.1770399"
       d="m 32.823063,18.894651 a 6.330162,2.1770399 0 1 1 -12.660324,0 6.330162,2.1770399 0 1 1 12.660324,0 z"
       transform="matrix(0.790399,0,0,1.147562,20.595241,15.326835)" />
    <path
       sodipodi:type="arc"
       style="opacity:0.6;fill:none;stroke:none"
       id="path2779"
       sodipodi:cx="26.492901"
       sodipodi:cy="18.894651"
       sodipodi:rx="6.330162"
       sodipodi:ry="2.1770399"
       d="m 32.823063,18.894651 a 6.330162,2.1770399 0 1 1 -12.660324,0 6.330162,2.1770399 0 1 1 12.660324,0 z"
       transform="matrix(0.632511,0,0,0.687532,24.775771,24.018955)" />
    <rect
       style="fill:#eeeeec;fill-opacity:1;fill-rule:evenodd;stroke:#555753;stroke-width:1.00000036;stroke-miterlimit:4;stroke-opacity:1;stroke-dasharray:none"
       id="rect1354"
       width="35.041153"
       height="34.99564"
       x="6.4726911"
       y="2.5016134"
       rx="2.0000002"
       ry="2.0000021" />
    <path
       sodipodi:type="arc"
       style="fill:#edd400;fill-opacity:1;fill-rule:evenodd;stroke:#8c7200;stroke-width:1.04999924;stroke-miterlimit:4;stroke-opacity:1;stroke-dasharray:none"
       id="path2781"
       sodipodi:cx="26.492901"
       sodipodi:cy="18.894651"
       sodipodi:rx="6.330162"
       sodipodi:ry="2.1770399"
       d="m 32.823063,18.894651 a 6.330162,2.1770399 0 1 1 -12.660324,0 6.330162,2.1770399 0 1 1 12.660324,0 z"
       transform="matrix(0.790399,0,0,1.147562,20.595241,13.326845)" />
    <rect
       style="fill:url(#radialGradient2655);fill-opacity:1;fill-rule:evenodd;stroke:none"
       id="rect2229"
       width="29.973732"
       height="25"
       x="9.026269"
       y="5.9999852"
       rx="1.6250001"
       ry="1.6250001" />
    <path
       sodipodi:type="arc"
       style="opacity:0.6;fill:none;stroke:none"
       id="path2783"
       sodipodi:cx="26.492901"
       sodipodi:cy="18.894651"
       sodipodi:rx="6.330162"
       sodipodi:ry="2.1770399"
       d="m 32.823063,18.894651 a 6.330162,2.1770399 0 1 1 -12.660324,0 6.330162,2.1770399 0 1 1 12.660324,0 z"
       transform="matrix(0.632511,0,0,0.687532,24.775771,22.018955)" />
    <path
       style="fill:url(#radialGradient2629);fill-opacity:1;fill-rule:evenodd;stroke:none"
       d="m 14.031252,5.9999852 0,4 -4.03125,0 0,0.9999998 4.03125,0 0,4 -4.03125,0 0,1 4.03125,0 0,4 -4.03125,0 0,1 4.03125,0 0,4 -4.03125,0 0,1 4.03125,0 0,4 1,0 0,-4 4,0 0,4 1,0 0,-4 4,0 0,4 1,0 0,-4 4,0 0,4 1,0 0,-4 4,0 0,4 1,0 0,-4 3.96875,0 0,-1 -3.96875,0 0,-4 3.96875,0 0,-1 -3.96875,0 0,-4 3.96875,0 0,-1 -3.96875,0 0,-4 3.96875,0 0,-0.9999998 -3.96875,0 0,-4 -1,0 0,4 -4,0 0,-4 -1,0 0,4 -4,0 0,-4 -1,0 0,4 -4,0 0,-4 -1,0 0,4 -4,0 0,-4 -1,0 z m 1,4.9999998 4,0 0,4 -4,0 0,-4 z m 5,0 4,0 0,4 -4,0 0,-4 z m 5,0 4,0 0,4 -4,0 0,-4 z m 5,0 4,0 0,4 -4,0 0,-4 z m -15,5 4,0 0,4 -4,0 0,-4 z m 5,0 4,0 0,4 -4,0 0,-4 z m 5,0 4,0 0,4 -4,0 0,-4 z m 5,0 4,0 0,4 -4,0 0,-4 z m -15,5 4,0 0,4 -4,0 0,-4 z m 5,0 4,0 0,4 -4,0 0,-4 z m 5,0 4,0 0,4 -4,0 0,-4 z m 5,0 4,0 0,4 -4,0 0,-4 z"
       id="rect2281" />
    <path
       sodipodi:type="arc"
       style="fill:#edd400;fill-opacity:1;fill-rule:evenodd;stroke:#8c7200;stroke-width:1.04999924;stroke-miterlimit:4;stroke-opacity:1;stroke-dasharray:none"
       id="path2785"
       sodipodi:cx="26.492901"
       sodipodi:cy="18.894651"
       sodipodi:rx="6.330162"
       sodipodi:ry="2.1770399"
       d="m 32.823063,18.894651 a 6.330162,2.1770399 0 1 1 -12.660324,0 6.330162,2.1770399 0 1 1 12.660324,0 z"
       transform="matrix(0.790399,0,0,1.147562,20.582671,11.321915)" />
    <path
       style="fill:url(#linearGradient2639);fill-opacity:1;fill-rule:evenodd;stroke:none"
       d="m 28.531252,12.999985 -4.883016,8.817147 -8.609782,-4.797282 -6.007202,9.480135 0.875,0.5 5.412175,-8.726766 8.70144,4.78125 5.386385,-9.554484 -0.875,-0.5 z"
       id="rect2293"
       sodipodi:nodetypes="ccccccccc" />
    <rect
       style="fill:#888a85;fill-opacity:1;fill-rule:evenodd;stroke:none"
       id="rect2600"
       width="1"
       height="30"
       x="29.999985"
       y="-39"
       transform="matrix(0,1,-1,0,0,0)" />
    <path
       sodipodi:type="arc"
       style="opacity:0.6;fill:none;stroke:none"
       id="path2787"
       sodipodi:cx="26.492901"
       sodipodi:cy="18.894651"
       sodipodi:rx="6.330162"
       sodipodi:ry="2.1770399"
       d="m 32.823063,18.894651 a 6.330162,2.1770399 0 1 1 -12.660324,0 6.330162,2.1770399 0 1 1 12.660324,0 z"
       transform="matrix(0.632511,0,0,0.687532,24.775771,20.012515)" />
    <rect
       style="fill:#888a85;fill-opacity:1;fill-rule:evenodd;stroke:none"
       id="rect2231"
       width="1"
       height="25"
       x="9.026269"
       y="5.9999852" />
    <path
       style="fill:#4e9a06;fill-opacity:1;fill-rule:evenodd;stroke:#2e5c02;stroke-width:0.99999976;stroke-miterlimit:4;stroke-opacity:1"
       d="m 1.499841,34.489065 24.000325,0 0,6.025232 -24.000325,0 0,-6.025232 z"
       id="path2321" />
    <path
       style="fill:#59af05;fill-opacity:1;fill-rule:evenodd;stroke:#2e5c02;stroke-width:1;stroke-miterlimit:4;stroke-opacity:1"
       d="m 4.325883,28.50068 20.27169,0 0.902432,6.009461 -24.000006,0 2.825884,-6.009461 z"
       id="path2323"
       sodipodi:nodetypes="ccccc" />
    <rect
       style="fill:#2e5c02;fill-opacity:1;fill-rule:evenodd;stroke:none"
       id="rect2325"
       width="23"
       height="1"
       x="2.0001378"
       y="38.036663" />
    <rect
       style="fill:#2e5c02;fill-opacity:1;fill-rule:evenodd;stroke:none"
       id="rect2327"
       width="23"
       height="1"
       x="2.0001378"
       y="36.036663" />
    <path
       style="opacity:0.25;fill:none;stroke:#ffffff;stroke-width:1;stroke-miterlimit:4;stroke-opacity:1"
       d="m 4.937599,29.552134 -1.96875,3.9375 21.34375,0 -0.59375,-3.9375 -18.78125,0 z"
       id="path2329"
       sodipodi:nodetypes="ccccc" />
    <rect
       style="fill:#eeeeec;fill-opacity:1;fill-rule:evenodd;stroke:#555753;stroke-width:1.00000012;stroke-miterlimit:4;stroke-opacity:1;stroke-dasharray:none"
       id="rect2341"
       width="4.9373136"
       height="6.1093535"
       x="11.53135"
       y="34.474033" />
    <path
       sodipodi:type="arc"
       style="fill:#2e5c02;fill-opacity:1;fill-rule:evenodd;stroke:none"
       id="path2746"
       sodipodi:cx="12.551146"
       sodipodi:cy="-0.43681452"
       sodipodi:rx="7.0710678"
       sodipodi:ry="3.6239223"
       d="m 19.622213,-0.43681452 a 7.0710678,3.6239223 0 1 1 -14.1421353,0 7.0710678,3.6239223 0 1 1 14.1421353,0 z"
       transform="matrix(0.707107,0,0,0.413916,5.124997,31.680795)" />
    <path
       style="fill:#d3d7cf;fill-opacity:1;fill-rule:evenodd;stroke:#555753;stroke-width:1.00000012;stroke-miterlimit:4;stroke-opacity:1;stroke-dasharray:none"
       d="m 12.500001,28.495693 -1,5.637161 0,6.37143 5,0 0,-6.425371 -1.09375,-5.58322 -2.90625,0 z"
       id="path2715"
       sodipodi:nodetypes="ccccccc" />
    <path
       style="fill:#4e9a06;fill-opacity:1;fill-rule:evenodd;stroke:#2e5c02;stroke-width:0.99999958;stroke-miterlimit:4;stroke-opacity:1"
       d="m 5.491464,39.471053 24.008514,0 0,6.039078 -24.008514,0 0,-6.039078 z"
       id="rect2271" />
    <path
       style="fill:#57ae06;fill-opacity:1;fill-rule:evenodd;stroke:#2e5c02;stroke-width:0.99999964;stroke-miterlimit:4;stroke-opacity:1"
       d="m 7.450819,33.505006 20.208675,0 1.839885,5.993972 -23.999394,0 1.950834,-5.993972 z"
       id="path3816"
       sodipodi:nodetypes="ccccc" />
    <path
       sodipodi:type="arc"
       style="fill:#ecd300;fill-opacity:1;fill-rule:evenodd;stroke:#786100;stroke-width:1.04999924;stroke-miterlimit:4;stroke-opacity:1;stroke-dasharray:none"
       id="path2413"
       sodipodi:cx="26.492901"
       sodipodi:cy="18.894651"
       sodipodi:rx="6.330162"
       sodipodi:ry="2.1770399"
       d="m 32.823063,18.894651 a 6.330162,2.1770399 0 1 1 -12.660324,0 6.330162,2.1770399 0 1 1 12.660324,0 z"
       transform="matrix(0.790399,0,0,1.147562,15.575961,20.313975)" />
    <path
       sodipodi:type="arc"
       style="fill:#edd400;fill-opacity:1;fill-rule:evenodd;stroke:#8c7200;stroke-width:1.04999924;stroke-miterlimit:4;stroke-opacity:1;stroke-dasharray:none"
       id="path2789"
       sodipodi:cx="26.492901"
       sodipodi:cy="18.894651"
       sodipodi:rx="6.330162"
       sodipodi:ry="2.1770399"
       d="m 32.823063,18.894651 a 6.330162,2.1770399 0 1 1 -12.660324,0 6.330162,2.1770399 0 1 1 12.660324,0 z"
       transform="matrix(0.790399,0,0,1.147562,20.595241,9.3204212)" />
    <rect
       style="fill:#2e5c02;fill-opacity:1;fill-rule:evenodd;stroke:none"
       id="rect2441"
       width="23"
       height="1"
       x="6.0000005"
       y="42.999985" />
    <path
       sodipodi:type="arc"
       style="opacity:0.6;fill:none;stroke:none"
       id="path2415"
       sodipodi:cx="26.492901"
       sodipodi:cy="18.894651"
       sodipodi:rx="6.330162"
       sodipodi:ry="2.1770399"
       d="m 32.823063,18.894651 a 6.330162,2.1770399 0 1 1 -12.660324,0 6.330162,2.1770399 0 1 1 12.660324,0 z"
       transform="matrix(0.632511,0,0,0.687532,19.756491,29.006095)" />
    <rect
       style="fill:#2e5c02;fill-opacity:1;fill-rule:evenodd;stroke:none"
       id="rect2443"
       width="23.000002"
       height="1"
       x="6.0000005"
       y="40.999985" />
    <path
       sodipodi:type="arc"
       style="fill:#ecd300;fill-opacity:1;fill-rule:evenodd;stroke:#8c7200;stroke-width:1.04999924;stroke-miterlimit:4;stroke-opacity:1;stroke-dasharray:none"
       id="path2417"
       sodipodi:cx="26.492901"
       sodipodi:cy="18.894651"
       sodipodi:rx="6.330162"
       sodipodi:ry="2.1770399"
       d="m 32.823063,18.894651 a 6.330162,2.1770399 0 1 1 -12.660324,0 6.330162,2.1770399 0 1 1 12.660324,0 z"
       transform="matrix(0.790399,0,0,1.147562,15.585601,18.320405)" />
    <path
       sodipodi:type="arc"
       style="opacity:0.6;fill:none;stroke:none"
       id="path2791"
       sodipodi:cx="26.492901"
       sodipodi:cy="18.894651"
       sodipodi:rx="6.330162"
       sodipodi:ry="2.1770399"
       d="m 32.823063,18.894651 a 6.330162,2.1770399 0 1 1 -12.660324,0 6.330162,2.1770399 0 1 1 12.660324,0 z"
       transform="matrix(0.632511,0,0,0.687532,24.775771,18.012525)" />
    <path
       sodipodi:type="arc"
       style="opacity:0.6;fill:none;stroke:none"
       id="path2419"
       sodipodi:cx="26.492901"
       sodipodi:cy="18.894651"
       sodipodi:rx="6.330162"
       sodipodi:ry="2.1770399"
       d="m 32.823063,18.894651 a 6.330162,2.1770399 0 1 1 -12.660324,0 6.330162,2.1770399 0 1 1 12.660324,0 z"
       transform="matrix(0.632511,0,0,0.687532,19.766131,27.012525)" />
    <path
       sodipodi:type="arc"
       style="fill:#ecd300;fill-opacity:1;fill-rule:evenodd;stroke:#8c7200;stroke-width:1.04999924;stroke-miterlimit:4;stroke-opacity:1;stroke-dasharray:none"
       id="path2421"
       sodipodi:cx="26.492901"
       sodipodi:cy="18.894651"
       sodipodi:rx="6.330162"
       sodipodi:ry="2.1770399"
       d="m 32.823063,18.894651 a 6.330162,2.1770399 0 1 1 -12.660324,0 6.330162,2.1770399 0 1 1 12.660324,0 z"
       transform="matrix(0.790399,0,0,1.147562,15.585601,16.320415)" />
    <path
       sodipodi:type="arc"
       style="fill:#edd400;fill-opacity:1;fill-rule:evenodd;stroke:#8c7200;stroke-width:1.04999924;stroke-miterlimit:4;stroke-opacity:1;stroke-dasharray:none"
       id="path2797"
       sodipodi:cx="26.492901"
       sodipodi:cy="18.894651"
       sodipodi:rx="6.330162"
       sodipodi:ry="2.1770399"
       d="m 32.823063,18.894651 a 6.330162,2.1770399 0 1 1 -12.660324,0 6.330162,2.1770399 0 1 1 12.660324,0 z"
       transform="matrix(0.790399,0,0,1.147562,20.595241,7.3253372)" />
    <path
       style="opacity:0.25;fill:none;stroke:#ffffff;stroke-width:1;stroke-miterlimit:4;stroke-opacity:1"
       d="m 8.218751,34.531235 -1.28125,3.9375 21.15625,0 -1.21875,-3.9375 -18.65625,0 z"
       id="path2269" />
    <path
       sodipodi:type="arc"
       style="opacity:0.6;fill:none;stroke:none"
       id="path2423"
       sodipodi:cx="26.492901"
       sodipodi:cy="18.894651"
       sodipodi:rx="6.330162"
       sodipodi:ry="2.1770399"
       d="m 32.823063,18.894651 a 6.330162,2.1770399 0 1 1 -12.660324,0 6.330162,2.1770399 0 1 1 12.660324,0 z"
       transform="matrix(0.632511,0,0,0.687532,19.766131,25.012525)" />
    <path
       sodipodi:type="arc"
       style="fill:#ecd300;fill-opacity:1;fill-rule:evenodd;stroke:#8c7200;stroke-width:1.04999924;stroke-miterlimit:4;stroke-opacity:1;stroke-dasharray:none"
       id="path2425"
       sodipodi:cx="26.492901"
       sodipodi:cy="18.894651"
       sodipodi:rx="6.330162"
       sodipodi:ry="2.1770399"
       d="m 32.823063,18.894651 a 6.330162,2.1770399 0 1 1 -12.660324,0 6.330162,2.1770399 0 1 1 12.660324,0 z"
       transform="matrix(0.790399,0,0,1.147562,15.573031,14.315485)" />
    <path
       sodipodi:type="arc"
       style="opacity:0.6;fill:none;stroke:none"
       id="path2427"
       sodipodi:cx="26.492901"
       sodipodi:cy="18.894651"
       sodipodi:rx="6.330162"
       sodipodi:ry="2.1770399"
       d="m 32.823063,18.894651 a 6.330162,2.1770399 0 1 1 -12.660324,0 6.330162,2.1770399 0 1 1 12.660324,0 z"
       transform="matrix(0.632511,0,0,0.687532,19.766131,23.006085)" />
    <path
       sodipodi:type="arc"
       style="fill:#edd400;fill-opacity:1;fill-rule:evenodd;stroke:#8c7200;stroke-width:1.04999924;stroke-miterlimit:4;stroke-opacity:1;stroke-dasharray:none"
       id="path2799"
       sodipodi:cx="26.492901"
       sodipodi:cy="18.894651"
       sodipodi:rx="6.330162"
       sodipodi:ry="2.1770399"
       d="m 32.823063,18.894651 a 6.330162,2.1770399 0 1 1 -12.660324,0 6.330162,2.1770399 0 1 1 12.660324,0 z"
       transform="matrix(0.790399,0,0,1.147562,20.582671,5.3204072)" />
    <path
       sodipodi:type="arc"
       style="fill:#ecd300;fill-opacity:1;fill-rule:evenodd;stroke:#8c7200;stroke-width:1.04999924;stroke-miterlimit:4;stroke-opacity:1;stroke-dasharray:none"
       id="path2429"
       sodipodi:cx="26.492901"
       sodipodi:cy="18.894651"
       sodipodi:rx="6.330162"
       sodipodi:ry="2.1770399"
       d="m 32.823063,18.894651 a 6.330162,2.1770399 0 1 1 -12.660324,0 6.330162,2.1770399 0 1 1 12.660324,0 z"
       transform="matrix(0.790399,0,0,1.147562,15.585601,12.313995)" />
    <path
       sodipodi:type="arc"
       style="opacity:0.6;fill:none;stroke:none"
       id="path2431"
       sodipodi:cx="26.492901"
       sodipodi:cy="18.894651"
       sodipodi:rx="6.330162"
       sodipodi:ry="2.1770399"
       d="m 32.823063,18.894651 a 6.330162,2.1770399 0 1 1 -12.660324,0 6.330162,2.1770399 0 1 1 12.660324,0 z"
       transform="matrix(0.632511,0,0,0.687532,19.766131,21.006095)" />
    <path
       sodipodi:type="arc"
       style="fill:#2e5c02;fill-opacity:1;fill-rule:evenodd;stroke:none"
       id="path2267"
       sodipodi:cx="12.551146"
       sodipodi:cy="-0.43681452"
       sodipodi:rx="7.0710678"
       sodipodi:ry="3.6239223"
       d="m 19.622213,-0.43681452 a 7.0710678,3.6239223 0 1 1 -14.1421353,0 7.0710678,3.6239223 0 1 1 14.1421353,0 z"
       transform="matrix(0.141421,0,0,0.137972,8.193789,33.544785)" />
    <path
       sodipodi:type="arc"
       style="fill:#2e5c02;fill-opacity:1;fill-rule:evenodd;stroke:none"
       id="path3843"
       sodipodi:cx="12.551146"
       sodipodi:cy="-0.43681452"
       sodipodi:rx="7.0710678"
       sodipodi:ry="3.6239223"
       d="m 19.622213,-0.43681452 a 7.0710678,3.6239223 0 1 1 -14.1421353,0 7.0710678,3.6239223 0 1 1 14.1421353,0 z"
       transform="matrix(0.141421,0,0,0.137972,23.193791,33.544785)" />
    <path
       sodipodi:type="arc"
       style="fill:#2e5c02;fill-opacity:1;fill-rule:evenodd;stroke:none"
       id="path3837"
       sodipodi:cx="12.551146"
       sodipodi:cy="-0.43681452"
       sodipodi:rx="7.0710678"
       sodipodi:ry="3.6239223"
       d="m 19.622213,-0.43681452 a 7.0710678,3.6239223 0 1 1 -14.1421353,0 7.0710678,3.6239223 0 1 1 14.1421353,0 z"
       transform="matrix(0.707106,0,0,0.413916,9.125007,36.680795)" />
    <path
       sodipodi:type="arc"
       style="fill:#2e5c02;fill-opacity:1;fill-rule:evenodd;stroke:none"
       id="path3839"
       sodipodi:cx="12.551146"
       sodipodi:cy="-0.43681452"
       sodipodi:rx="7.0710678"
       sodipodi:ry="3.6239223"
       d="m 19.622213,-0.43681452 a 7.0710678,3.6239223 0 1 1 -14.1421353,0 7.0710678,3.6239223 0 1 1 14.1421353,0 z"
       transform="matrix(0.214339,0,0,0.137972,6.794192,37.544785)" />
    <path
       sodipodi:type="arc"
       style="fill:#2e5c02;fill-opacity:1;fill-rule:evenodd;stroke:none"
       id="path3841"
       sodipodi:cx="12.551146"
       sodipodi:cy="-0.43681452"
       sodipodi:rx="7.0710678"
       sodipodi:ry="3.6239223"
       d="m 19.622213,-0.43681452 a 7.0710678,3.6239223 0 1 1 -14.1421353,0 7.0710678,3.6239223 0 1 1 14.1421353,0 z"
       transform="matrix(0.212132,0,0,0.137972,22.837501,37.560255)" />
    <path
       style="fill:#d3d7cf;fill-opacity:1;fill-rule:evenodd;stroke:#555753;stroke-width:1.00000012;stroke-miterlimit:4;stroke-opacity:1;stroke-dasharray:none"
       d="m 16.500001,33.521293 -1,5.625214 0,6.357927 5,0 0,-6.411754 -1.09375,-5.571387 -2.90625,0 z"
       id="rect1372"
       sodipodi:nodetypes="ccccccc" />
    <rect
       style="fill:#888a85;fill-opacity:1;fill-rule:evenodd;stroke:none"
       id="rect2721"
       width="4"
       height="5"
       x="16"
       y="39.999985" />
    <rect
       style="fill:url(#linearGradient2713);fill-opacity:1;fill-rule:evenodd;stroke:none"
       id="rect2673"
       width="4"
       height="5"
       x="16"
       y="39.999985" />
    <path
       sodipodi:type="arc"
       style="fill:#2e5c02;fill-opacity:1;fill-rule:evenodd;stroke:none"
       id="path2691"
       sodipodi:cx="12.551146"
       sodipodi:cy="-0.43681452"
       sodipodi:rx="7.0710678"
       sodipodi:ry="3.6239223"
       d="m 19.622213,-0.43681452 a 7.0710678,3.6239223 0 1 1 -14.1421353,0 7.0710678,3.6239223 0 1 1 14.1421353,0 z"
       transform="matrix(0.212132,0,0,0.137972,21.837501,35.560255)" />
    <path
       sodipodi:type="arc"
       style="fill:#2e5c02;fill-opacity:1;fill-rule:evenodd;stroke:none"
       id="path2693"
       sodipodi:cx="12.551146"
       sodipodi:cy="-0.43681452"
       sodipodi:rx="7.0710678"
       sodipodi:ry="3.6239223"
       d="m 19.622213,-0.43681452 a 7.0710678,3.6239223 0 1 1 -14.1421353,0 7.0710678,3.6239223 0 1 1 14.1421353,0 z"
       transform="matrix(0.212132,0,0,0.137972,7.837501,35.560255)" />
    <path
       style="opacity:0.2;fill:#ffffff;fill-opacity:1;fill-rule:evenodd;stroke:none"
       d="m 9.000002,5.9999852 30,0 c -12.160656,3.9101256 -11.337571,17.9999998 -30,17.9999998 l 0,-17.9999998 z"
       id="rect2743"
       sodipodi:nodetypes="cccc" />
    <path
       sodipodi:type="arc"
       style="fill:#2e5c02;fill-opacity:1;fill-rule:evenodd;stroke:none"
       id="path2748"
       sodipodi:cx="12.551146"
       sodipodi:cy="-0.43681452"
       sodipodi:rx="7.0710678"
       sodipodi:ry="3.6239223"
       d="m 19.622213,-0.43681452 a 7.0710678,3.6239223 0 1 1 -14.1421353,0 7.0710678,3.6239223 0 1 1 14.1421353,0 z"
       transform="matrix(0.214339,0,0,0.137972,2.794191,32.560255)" />
    <path
       sodipodi:type="arc"
       style="fill:#2e5c02;fill-opacity:1;fill-rule:evenodd;stroke:none"
       id="path2750"
       sodipodi:cx="12.551146"
       sodipodi:cy="-0.43681452"
       sodipodi:rx="7.0710678"
       sodipodi:ry="3.6239223"
       d="m 19.622213,-0.43681452 a 7.0710678,3.6239223 0 1 1 -14.1421353,0 7.0710678,3.6239223 0 1 1 14.1421353,0 z"
       transform="matrix(0.212132,0,0,0.137972,19.837501,32.560255)" />
    <path
       sodipodi:type="arc"
       style="fill:#2e5c02;fill-opacity:1;fill-rule:evenodd;stroke:none"
       id="path2752"
       sodipodi:cx="12.551146"
       sodipodi:cy="-0.43681452"
       sodipodi:rx="7.0710678"
       sodipodi:ry="3.6239223"
       d="m 19.622213,-0.43681452 a 7.0710678,3.6239223 0 1 1 -14.1421353,0 7.0710678,3.6239223 0 1 1 14.1421353,0 z"
       transform="matrix(0.212132,0,0,0.137972,18.837501,30.560255)" />
    <path
       sodipodi:type="arc"
       style="fill:#2e5c02;fill-opacity:1;fill-rule:evenodd;stroke:none"
       id="path2754"
       sodipodi:cx="12.551146"
       sodipodi:cy="-0.43681452"
       sodipodi:rx="7.0710678"
       sodipodi:ry="3.6239223"
       d="m 19.622213,-0.43681452 a 7.0710678,3.6239223 0 1 1 -14.1421353,0 7.0710678,3.6239223 0 1 1 14.1421353,0 z"
       transform="matrix(0.212132,0,0,0.137972,3.837502,30.560255)" />
    <path
       sodipodi:type="arc"
       style="fill:#edd400;fill-opacity:1;fill-rule:evenodd;stroke:#8c7200;stroke-width:1.04999924;stroke-miterlimit:4;stroke-opacity:1;stroke-dasharray:none"
       id="path2801"
       sodipodi:cx="26.492901"
       sodipodi:cy="18.894651"
       sodipodi:rx="6.330162"
       sodipodi:ry="2.1770399"
       d="m 32.823063,18.894651 a 6.330162,2.1770399 0 1 1 -12.660324,0 6.330162,2.1770399 0 1 1 12.660324,0 z"
       transform="matrix(0.790399,0,0,1.147562,20.595241,3.3189132)" />
    <path
       sodipodi:type="arc"
       style="fill:#edd400;fill-opacity:1;fill-rule:evenodd;stroke:#8c7200;stroke-width:1.04999924;stroke-miterlimit:4;stroke-opacity:1;stroke-dasharray:none"
       id="path2809"
       sodipodi:cx="26.492901"
       sodipodi:cy="18.894651"
       sodipodi:rx="6.330162"
       sodipodi:ry="2.1770399"
       d="m 32.823063,18.894651 a 6.330162,2.1770399 0 1 1 -12.660324,0 6.330162,2.1770399 0 1 1 12.660324,0 z"
       transform="matrix(0.790399,0,0,1.147562,20.595241,1.3189133)" />
    <path
       sodipodi:type="arc"
       style="fill:#fce94f;fill-opacity:1;fill-rule:evenodd;stroke:#8c7200;stroke-width:1.04999924;stroke-miterlimit:4;stroke-opacity:1;stroke-dasharray:none"
       id="path2793"
       sodipodi:cx="26.492901"
       sodipodi:cy="18.894651"
       sodipodi:rx="6.330162"
       sodipodi:ry="2.1770399"
       d="m 32.823063,18.894651 a 6.330162,2.1770399 0 1 1 -12.660324,0 6.330162,2.1770399 0 1 1 12.660324,0 z"
       transform="matrix(0.790399,0,0,1.147562,20.575961,-0.68450979)" />
    <path
       sodipodi:type="arc"
       style="fill:#fce94f;fill-opacity:1;fill-rule:evenodd;stroke:#8c7200;stroke-width:1.04999924;stroke-miterlimit:4;stroke-opacity:1;stroke-dasharray:none"
       id="path2761"
       sodipodi:cx="26.492901"
       sodipodi:cy="18.894651"
       sodipodi:rx="6.330162"
       sodipodi:ry="2.1770399"
       d="m 32.823063,18.894651 a 6.330162,2.1770399 0 1 1 -12.660324,0 6.330162,2.1770399 0 1 1 12.660324,0 z"
       transform="matrix(0.790399,0,0,1.147562,15.566321,10.313995)" />
    <path
       sodipodi:type="arc"
       style="opacity:0.5;fill:none;stroke:#ffffff;stroke-width:1.51642048;stroke-miterlimit:4;stroke-opacity:1;stroke-dasharray:none"
       id="path2763"
       sodipodi:cx="26.492901"
       sodipodi:cy="18.894651"
       sodipodi:rx="6.330162"
       sodipodi:ry="2.1770399"
       d="m 32.823063,18.894651 a 6.330162,2.1770399 0 1 1 -12.660324,0 6.330162,2.1770399 0 1 1 12.660324,0 z"
       transform="matrix(0.632511,0,0,0.687532,19.746851,19.006095)" />
    <path
       sodipodi:type="arc"
       style="opacity:0.5;fill:none;stroke:#ffffff;stroke-width:1.51642048;stroke-miterlimit:4;stroke-opacity:1;stroke-dasharray:none"
       id="path2795"
       sodipodi:cx="26.492901"
       sodipodi:cy="18.894651"
       sodipodi:rx="6.330162"
       sodipodi:ry="2.1770399"
       d="m 32.823063,18.894651 a 6.330162,2.1770399 0 1 1 -12.660324,0 6.330162,2.1770399 0 1 1 12.660324,0 z"
       transform="matrix(0.632511,0,0,0.687532,24.748691,8.0060922)" />
  </g>
</svg>
