<?xml version="1.0" encoding="UTF-8" standalone="no"?>
<!-- Created with Inkscape (http://www.inkscape.org/) -->
<svg
   xmlns:dc="http://purl.org/dc/elements/1.1/"
   xmlns:cc="http://creativecommons.org/ns#"
   xmlns:rdf="http://www.w3.org/1999/02/22-rdf-syntax-ns#"
   xmlns:svg="http://www.w3.org/2000/svg"
   xmlns="http://www.w3.org/2000/svg"
   xmlns:xlink="http://www.w3.org/1999/xlink"
   xmlns:sodipodi="http://sodipodi.sourceforge.net/DTD/sodipodi-0.dtd"
   xmlns:inkscape="http://www.inkscape.org/namespaces/inkscape"
   width="48px"
   height="48px"
   id="svg7656"
   sodipodi:version="0.32"
   inkscape:version="0.46"
   sodipodi:docname="drawing-3.svg"
   inkscape:output_extension="org.inkscape.output.svg.inkscape">
  <defs
     id="defs7658">
    <linearGradient
       id="linearGradient2880"
       inkscape:collect="always">
      <stop
         id="stop2882"
         offset="0"
         style="stop-color:#729fcf;stop-opacity:1" />
      <stop
         id="stop2884"
         offset="1"
         style="stop-color:#3465a4;stop-opacity:1" />
    </linearGradient>
    <radialGradient
       inkscape:collect="always"
       xlink:href="#linearGradient2880"
       id="radialGradient2878"
       gradientUnits="userSpaceOnUse"
       gradientTransform="matrix(-0.8570757,0.7036892,-0.6305522,-0.6305522,89.17579,19.041041)"
       cx="33.290813"
       cy="36.070057"
       fx="33.290813"
       fy="36.070057"
       r="5.0383151" />
    <linearGradient
       inkscape:collect="always"
       id="linearGradient3222">
      <stop
         style="stop-color:#eac586;stop-opacity:1;"
         offset="0"
         id="stop3224" />
      <stop
         style="stop-color:#eac586;stop-opacity:0;"
         offset="1"
         id="stop3226" />
    </linearGradient>
    <linearGradient
       inkscape:collect="always"
       xlink:href="#linearGradient3222"
       id="linearGradient3270"
       gradientUnits="userSpaceOnUse"
       gradientTransform="matrix(0.8048011,-8.4058945e-2,-0.2587753,0.8411918,10.626544,5.8764966)"
       x1="38.289421"
       y1="5.2539482"
       x2="36.610626"
       y2="7.3314619" />
    <linearGradient
       inkscape:collect="always"
       id="linearGradient2866">
      <stop
         style="stop-color:#ef2929;stop-opacity:1"
         offset="0"
         id="stop2868" />
      <stop
         style="stop-color:#cc0000;stop-opacity:1"
         offset="1"
         id="stop2870" />
    </linearGradient>
    <radialGradient
       inkscape:collect="always"
       xlink:href="#linearGradient2866"
       id="radialGradient2872"
       cx="32.450172"
       cy="33.609394"
       fx="32.450172"
       fy="33.609394"
       r="5.0383151"
       gradientTransform="matrix(0.636942,0.6968413,0.5532571,-0.5101348,-5.0013817,25.28863)"
       gradientUnits="userSpaceOnUse" />
    <linearGradient
       inkscape:collect="always"
       xlink:href="#linearGradient3171"
       id="linearGradient3252"
       gradientUnits="userSpaceOnUse"
       x1="12.186543"
       y1="38.012455"
       x2="12.186543"
       y2="39.53223" />
    <linearGradient
       id="linearGradient3171"
       inkscape:collect="always">
      <stop
         id="stop3173"
         offset="0"
         style="stop-color:white;stop-opacity:1;" />
      <stop
         id="stop3175"
         offset="1"
         style="stop-color:white;stop-opacity:0.06844106" />
    </linearGradient>
    <linearGradient
       inkscape:collect="always"
       xlink:href="#linearGradient3171"
       id="linearGradient3237"
       gradientUnits="userSpaceOnUse"
       gradientTransform="matrix(0.6424152,0,0,0.7146281,3.4456251,6.7877746)"
       x1="9.3437004"
       y1="38.811657"
       x2="10.924745"
       y2="46.82093" />
    <linearGradient
       inkscape:collect="always"
       id="linearGradient3126">
      <stop
         style="stop-color:#555753;stop-opacity:1"
         offset="0"
         id="stop3128" />
      <stop
         style="stop-color:#1f2324;stop-opacity:1"
         offset="1"
         id="stop3130" />
    </linearGradient>
    <linearGradient
       inkscape:collect="always"
       xlink:href="#linearGradient3126"
       id="linearGradient3240"
       gradientUnits="userSpaceOnUse"
       gradientTransform="matrix(1,0,0,1.2675301,-1.0001749,-14.85324)"
       x1="10.593056"
       y1="38.581955"
       x2="10.165062"
       y2="43.382187" />
    <linearGradient
       inkscape:collect="always"
       id="linearGradient2911">
      <stop
         style="stop-color:#8ae234;stop-opacity:1"
         offset="0"
         id="stop2913" />
      <stop
         style="stop-color:#73d216;stop-opacity:1"
         offset="1"
         id="stop2915" />
    </linearGradient>
    <radialGradient
       inkscape:collect="always"
       xlink:href="#linearGradient2911"
       id="radialGradient2917"
       cx="23.537704"
       cy="36.025131"
       fx="23.537704"
       fy="36.025131"
       r="4.2448119"
       gradientTransform="matrix(0.9409277,0,0,1.0482489,1.6818911,-3.1771614)"
       gradientUnits="userSpaceOnUse" />
    <linearGradient
       inkscape:collect="always"
       id="linearGradient3301">
      <stop
         style="stop-color:#ffffff;stop-opacity:1;"
         offset="0"
         id="stop3304" />
      <stop
         style="stop-color:#ffffff;stop-opacity:0;"
         offset="1"
         id="stop3306" />
    </linearGradient>
    <linearGradient
       inkscape:collect="always"
       xlink:href="#linearGradient3301"
       id="linearGradient3308"
       x1="18.1875"
       y1="28.625"
       x2="41.4375"
       y2="6.1875"
       gradientUnits="userSpaceOnUse"
       gradientTransform="translate(-1.799346e-4,-0.9996604)" />
    <linearGradient
       id="linearGradient3235"
       inkscape:collect="always">
      <stop
         id="stop3237"
         offset="0"
         style="stop-color:#eeeeec;stop-opacity:1" />
      <stop
         id="stop3239"
         offset="1"
         style="stop-color:#888a85;stop-opacity:1" />
    </linearGradient>
    <linearGradient
       inkscape:collect="always"
       xlink:href="#linearGradient3235"
       id="linearGradient3276"
       gradientUnits="userSpaceOnUse"
       gradientTransform="matrix(0.8048011,-8.4058945e-2,-0.2587753,0.8411918,10.723184,3.5108556)"
       x1="19.635454"
       y1="29.591417"
       x2="23.529133"
       y2="33.485096" />
    <linearGradient
       inkscape:collect="always"
       id="linearGradient3088">
      <stop
         style="stop-color:white;stop-opacity:1;"
         offset="0"
         id="stop3090" />
      <stop
         style="stop-color:white;stop-opacity:0.34600762"
         offset="1"
         id="stop3092" />
    </linearGradient>
    <linearGradient
       inkscape:collect="always"
       xlink:href="#linearGradient3088"
       id="linearGradient3236"
       gradientUnits="userSpaceOnUse"
       x1="21.424923"
       y1="14.769098"
       x2="16.6399"
       y2="5.5"
       gradientTransform="translate(1.0638531,2.49736e-2)" />
    <linearGradient
       inkscape:collect="always"
       id="linearGradient3310">
      <stop
         style="stop-color:#c17d11;stop-opacity:1"
         offset="0"
         id="stop3312" />
      <stop
         style="stop-color:#e9b96e;stop-opacity:1"
         offset="1"
         id="stop3314" />
    </linearGradient>
    <linearGradient
       inkscape:collect="always"
       xlink:href="#linearGradient3310"
       id="linearGradient3279"
       gradientUnits="userSpaceOnUse"
       gradientTransform="matrix(0.8048011,-8.4058945e-2,-0.2587753,0.8411918,10.723184,3.5108556)"
       x1="33.175713"
       y1="18.657627"
       x2="31.180811"
       y2="17.17729" />
    <linearGradient
       inkscape:collect="always"
       id="linearGradient3266">
      <stop
         style="stop-color:#000000;stop-opacity:1;"
         offset="0"
         id="stop3268" />
      <stop
         style="stop-color:#000000;stop-opacity:0;"
         offset="1"
         id="stop3270" />
    </linearGradient>
    <radialGradient
       inkscape:collect="always"
       xlink:href="#linearGradient3266"
       id="radialGradient3274"
       cx="28.469051"
       cy="23.21442"
       fx="28.469051"
       fy="23.21442"
       r="12.3671"
       gradientTransform="matrix(0.1675436,0.1340677,-0.9393554,1.1739072,43.937672,-7.5867473)"
       gradientUnits="userSpaceOnUse" />
    <linearGradient
       id="linearGradient3299"
       inkscape:collect="always">
      <stop
         id="stop3301"
         offset="0"
         style="stop-color:white;stop-opacity:1;" />
      <stop
         id="stop3303"
         offset="1"
         style="stop-color:#ffffff;stop-opacity:0.52091253" />
    </linearGradient>
    <linearGradient
       inkscape:collect="always"
       xlink:href="#linearGradient3299"
       id="linearGradient3238"
       gradientUnits="userSpaceOnUse"
       x1="15.299923"
       y1="9.1440983"
       x2="51.568203"
       y2="83.076073"
       gradientTransform="translate(1.0638531,2.49736e-2)" />
    <linearGradient
       inkscape:collect="always"
       id="linearGradient3201">
      <stop
         style="stop-color:#e7ce79;stop-opacity:1"
         offset="0"
         id="stop3203" />
      <stop
         style="stop-color:#c17d11;stop-opacity:1"
         offset="1"
         id="stop3205" />
    </linearGradient>
    <radialGradient
       inkscape:collect="always"
       xlink:href="#linearGradient3201"
       id="radialGradient3297"
       cx="28.6576"
       cy="33.986694"
       fx="28.6576"
       fy="33.986694"
       r="18.572308"
       gradientTransform="matrix(6.0429881,0,0,5.537076,-142.79457,-152.2381)"
       gradientUnits="userSpaceOnUse" />
    <radialGradient
       inkscape:collect="always"
       xlink:href="#linearGradient2892"
       id="radialGradient3834"
       gradientUnits="userSpaceOnUse"
       cx="6.5"
       cy="23.5"
       fx="6.5"
       fy="23.5"
       r="4.5" />
    <linearGradient
       inkscape:collect="always"
       id="linearGradient2892">
      <stop
         style="stop-color:black;stop-opacity:1;"
         offset="0"
         id="stop2894" />
      <stop
         style="stop-color:black;stop-opacity:0;"
         offset="1"
         id="stop2896" />
    </linearGradient>
    <radialGradient
       inkscape:collect="always"
       xlink:href="#linearGradient2892"
       id="radialGradient3832"
       gradientUnits="userSpaceOnUse"
       cx="6.5"
       cy="23.5"
       fx="6.5"
       fy="23.5"
       r="4.5" />
    <linearGradient
       inkscape:collect="always"
       id="linearGradient3315">
      <stop
         style="stop-color:#000000;stop-opacity:1;"
         offset="0"
         id="stop3317" />
      <stop
         style="stop-color:#000000;stop-opacity:0;"
         offset="1"
         id="stop3319" />
    </linearGradient>
    <radialGradient
       inkscape:collect="always"
       xlink:href="#linearGradient3315"
       id="radialGradient3321"
       cx="10.5625"
       cy="46.0625"
       fx="10.5625"
       fy="46.0625"
       r="8.5625"
       gradientTransform="matrix(1,0,0,0.5328467,0,21.518248)"
       gradientUnits="userSpaceOnUse" />
  </defs>
  <sodipodi:namedview
     id="base"
     pagecolor="#ffffff"
     bordercolor="#666666"
     borderopacity="1.0"
     inkscape:pageopacity="0.0"
     inkscape:pageshadow="2"
     inkscape:zoom="7"
     inkscape:cx="24"
     inkscape:cy="24"
     inkscape:current-layer="layer1"
     showgrid="true"
     inkscape:grid-bbox="true"
     inkscape:document-units="px"
     inkscape:window-width="641"
     inkscape:window-height="690"
     inkscape:window-x="224"
     inkscape:window-y="331" />
  <metadata
     id="metadata7661">
    <rdf:RDF>
      <cc:Work
         rdf:about="">
        <dc:format>image/svg+xml</dc:format>
        <dc:type
           rdf:resource="http://purl.org/dc/dcmitype/StillImage" />
      </cc:Work>
    </rdf:RDF>
  </metadata>
  <g
     id="layer1"
     inkscape:label="Layer 1"
     inkscape:groupmode="layer">
    <path
       sodipodi:type="arc"
       style="opacity:0.1;fill:url(#radialGradient3321);fill-opacity:1;stroke:none;stroke-width:1;stroke-linecap:round;stroke-linejoin:round;stroke-miterlimit:4;stroke-dasharray:none;stroke-dashoffset:0;stroke-opacity:1"
       id="path3305"
       sodipodi:cx="10.5625"
       sodipodi:cy="46.0625"
       sodipodi:rx="8.5625"
       sodipodi:ry="4.5625"
       d="M 19.125,46.0625 A 8.5625,4.5625 0 1 1 2,46.0625 A 8.5625,4.5625 0 1 1 19.125,46.0625 z"
       transform="matrix(1.1094891,0,0,0.5479452,-1.7191579,16.635614)" />
    <g
       id="g3828"
       transform="matrix(1.2345971,0,0,1.1113159,-22.672152,-10.707111)"
       style="opacity:0.30268196">
      <path
         sodipodi:end="6.2831853"
         sodipodi:start="3.1415927"
         transform="matrix(0,-1,5.888889,0,-94.88889,53)"
         d="M 2,23.5 A 4.5,4.5 0 0 1 11,23.5 L 6.5,23.5 z"
         sodipodi:ry="4.5"
         sodipodi:rx="4.5"
         sodipodi:cy="23.5"
         sodipodi:cx="6.5"
         id="path3814"
         style="opacity:1;fill:url(#radialGradient3832);fill-opacity:1;fill-rule:evenodd;stroke:none;stroke-width:0.5;stroke-linecap:round;stroke-linejoin:round;stroke-miterlimit:4;stroke-dasharray:none;stroke-opacity:1"
         sodipodi:type="arc" />
      <path
         sodipodi:end="6.2831853"
         sodipodi:start="3.1415927"
         transform="matrix(0,-1,-3,0,114,53)"
         d="M 2,23.5 A 4.5,4.5 0 0 1 11,23.5 L 6.5,23.5 z"
         sodipodi:ry="4.5"
         sodipodi:rx="4.5"
         sodipodi:cy="23.5"
         sodipodi:cx="6.5"
         id="path3824"
         style="opacity:1;fill:url(#radialGradient3834);fill-opacity:1;fill-rule:evenodd;stroke:none;stroke-width:0.5;stroke-linecap:round;stroke-linejoin:round;stroke-miterlimit:4;stroke-dasharray:none;stroke-opacity:1"
         sodipodi:type="arc" />
    </g>
    <path
       style="opacity:1;fill:url(#radialGradient3297);fill-opacity:1;fill-rule:evenodd;stroke:#c17d11;stroke-width:0.99999988;stroke-linecap:butt;stroke-linejoin:miter;stroke-miterlimit:4;stroke-dasharray:none;stroke-opacity:1"
       d="M 23.03107,4.5003396 C 17.164301,4.5772796 9.3045231,6.5849376 9.4373201,13.03159 C 9.5789811,19.90851 17.932346,17.195025 18.24982,20.25034 C 18.762923,25.188347 8.0760901,40.211363 24.31232,43.15659 C 35.151582,45.122816 46.655622,38.37218 45.49982,24.75034 C 44.460382,12.499921 34.32472,4.8121816 24.18732,4.5003396 C 23.81696,4.4889476 23.422188,4.4952106 23.03107,4.5003396 z M 20.49982,8.5003396 C 23.25982,8.5003396 25.49982,10.06834 25.49982,12.00034 C 25.499821,13.93234 23.25982,15.50034 20.49982,15.50034 C 17.73982,15.50034 15.49982,13.93234 15.49982,12.00034 C 15.49982,10.06834 17.73982,8.5003396 20.49982,8.5003396 z"
       id="path2193" />
    <path
       style="opacity:0.67049806;fill:none;fill-opacity:1;fill-rule:evenodd;stroke:url(#linearGradient3238);stroke-width:1;stroke-linecap:butt;stroke-linejoin:miter;stroke-miterlimit:4;stroke-opacity:1"
       d="M 23.095103,5.5249736 C 20.27082,5.5620126 16.971928,6.0925696 14.501353,7.3062236 C 12.030778,8.5198776 10.443436,10.213386 10.501353,13.024974 C 10.532537,14.538804 10.981019,15.35331 11.595103,15.931224 C 12.209187,16.509138 13.090776,16.855133 14.095103,17.118724 C 15.09943,17.382315 16.186657,17.537993 17.157603,17.868724 C 17.643076,18.034089 18.118683,18.248636 18.532603,18.618724 C 18.946523,18.988812 19.249882,19.565583 19.313853,20.181224 C 19.484755,21.825953 18.834926,23.684575 18.157603,25.837474 C 17.48028,27.990373 16.711513,30.351088 16.438853,32.587474 C 16.166193,34.82386 16.397641,36.867503 17.501353,38.493724 C 18.605065,40.119945 20.67206,41.475259 24.563853,42.181224 C 29.722401,43.116977 35.012717,41.974082 38.845103,39.024974 C 42.677489,36.075866 45.116737,31.384804 44.563853,24.868724 C 43.568103,13.13319 33.869022,5.8217886 24.220103,5.5249736 C 23.88311,5.5146076 23.488088,5.5198196 23.095103,5.5249736 z"
       id="path3230"
       sodipodi:nodetypes="cssssssssssssssc" />
    <path
       sodipodi:type="inkscape:offset"
       inkscape:radius="0.49386048"
       inkscape:original="M 35.59375 8.8125 C 26.637129 15.810387 22.047254 21.103661 19.5 24.5 C 17.827475 26.564266 15.917493 29.727714 14.375 32.65625 C 14.162554 34.597604 14.291968 36.50388 15.09375 38.15625 C 19.00526 35.905485 24.206667 31.000466 25.5 29.5 C 28.41897 26.164035 33.106845 20.263993 38.03125 10.90625 C 37.265184 10.155881 36.450537 9.4387222 35.59375 8.8125 z "
       style="opacity:0.16475094;fill:url(#radialGradient3274);fill-opacity:1;fill-rule:evenodd;stroke:none;stroke-width:1px;stroke-linecap:butt;stroke-linejoin:round;stroke-opacity:1"
       id="path3260"
       d="M 35.5,8.3125 C 35.417504,8.3345558 35.342135,8.3776237 35.28125,8.4375 C 26.293923,15.459378 21.66408,20.791642 19.09375,24.21875 C 17.381636,26.331878 15.48999,29.489983 13.9375,32.4375 C 13.907882,32.485625 13.886742,32.538475 13.875,32.59375 C 13.656392,34.591416 13.798454,36.607192 14.65625,38.375 C 14.714969,38.498476 14.822246,38.592088 14.952537,38.633544 C 15.082828,38.675 15.224475,38.660592 15.34375,38.59375 C 19.360055,36.282684 24.501651,31.405797 25.875,29.8125 C 28.811442,26.456567 33.524032,20.521343 38.46875,11.125 C 38.55983,10.936574 38.522268,10.711201 38.375,10.5625 C 37.596274,9.7997303 36.756404,9.0504646 35.875,8.40625 C 35.767927,8.3253531 35.632545,8.2915077 35.5,8.3125 L 35.5,8.3125 z"
       transform="translate(0.4373201,-0.8746604)" />
    <path
       style="fill:url(#linearGradient3279);fill-opacity:1;fill-rule:evenodd;stroke:#8f5902;stroke-width:0.99999994px;stroke-linecap:butt;stroke-linejoin:round;stroke-opacity:1"
       d="M 24.377423,26.217226 C 28.122214,22.660001 34.668749,15.824383 42.49982,5.0003396 C 42.814896,4.6513906 42.290428,4.3514266 41.99982,4.5003396 C 30.168117,12.786353 24.217686,18.976594 20.842493,22.51562"
       id="path3096"
       sodipodi:nodetypes="cccc" />
    <path
       style="opacity:0.15;fill:#000000;fill-opacity:1;fill-rule:evenodd;stroke:#000000;stroke-width:1;stroke-linecap:butt;stroke-linejoin:round;stroke-miterlimit:4;stroke-dasharray:none;stroke-opacity:1"
       d="M 21.436243,21.92187 C 22.917719,22.515721 24.234179,23.457939 24.971173,25.623476 C 23.470777,27.062703 17.507725,32.048182 13.789383,34.11885 L 12.697331,32.604585 C 14.810246,29.534325 18.670801,24.682611 21.436243,21.92187 z"
       id="path3316"
       sodipodi:nodetypes="ccccc" />
    <path
       style="opacity:0.7356322;fill:none;fill-opacity:1;fill-rule:evenodd;stroke:url(#linearGradient3236);stroke-width:1;stroke-linecap:butt;stroke-linejoin:miter;stroke-miterlimit:4;stroke-opacity:1"
       d="M 20.563853,7.5249736 C 22.134829,7.5249736 23.586569,7.9408756 24.688853,8.7124736 C 25.791137,9.4840726 26.563853,10.669227 26.563853,12.024974 C 26.563854,13.380722 25.791137,14.565875 24.688853,15.337474 C 23.586569,16.109073 22.134829,16.524974 20.563853,16.524974 C 18.992877,16.524974 17.541137,16.109073 16.438853,15.337474 C 15.336569,14.565875 14.563853,13.380721 14.563853,12.024974 C 14.563853,10.669227 15.336569,9.4840726 16.438853,8.7124736 C 17.541137,7.9408756 18.992877,7.5249736 20.563853,7.5249736 z"
       id="path3086"
       sodipodi:nodetypes="csssssssc" />
    <path
       style="fill:url(#linearGradient3276);fill-opacity:1;fill-rule:evenodd;stroke:#888a85;stroke-width:0.99999994px;stroke-linecap:butt;stroke-linejoin:miter;stroke-opacity:1"
       d="M 20.842493,22.51562 C 22.323969,23.109471 23.640429,24.051689 24.377423,26.217226 C 22.877027,27.656453 16.913975,32.641932 13.195633,34.7126 L 12.103581,33.198335 C 14.216496,30.128075 18.077051,25.276361 20.842493,22.51562 z"
       id="path3098"
       sodipodi:nodetypes="ccccc" />
    <g
       id="g3292"
       transform="translate(1.2207911,0.4258156)"
       style="opacity:0.13026817">
      <path
         sodipodi:nodetypes="cssssssssc"
         id="path3286"
         d="M 26.824405,37.496498 C 25.843366,38.089334 26.895931,38.770346 27.369354,39.167078 C 27.744822,39.481722 27.180957,41.00241 26.508539,40.330386 C 25.733629,39.555928 25.2347,38.478498 24.930767,38.450885 C 23.183843,38.292163 24.528898,40.598656 23.123134,40.091388 C 22.281926,39.787838 23.328561,38.513549 22.205241,38.122462 C 21.312835,37.811766 21.401497,38.766519 20.885481,38.301308 C 18.456205,36.1112 19.733093,34.20872 20.857329,32.722957 C 21.981581,31.23717 24.202522,31.077841 25.849436,32.395339 C 27.496348,33.712837 27.933134,35.998157 26.824405,37.496498 z"
         style="fill:#000000;fill-opacity:1;fill-rule:evenodd;stroke:#000000;stroke-width:0.99999982;stroke-linecap:butt;stroke-linejoin:round;stroke-miterlimit:5;stroke-opacity:1" />
      <path
         sodipodi:nodetypes="cssssssssss"
         id="path3288"
         d="M 35.474535,34.483528 C 36.369083,34.483528 37.870365,34.634524 38.265451,35.099165 C 39.189278,36.185632 40.008953,34.756527 39.30616,34.139572 C 38.496243,33.428577 37.419779,33.019366 37.366902,32.717334 C 37.062977,30.981339 39.391454,32.134717 38.782944,30.769593 C 38.418813,29.952703 37.28783,31.107681 36.815256,30.015639 C 36.439827,29.148081 37.363024,29.156758 36.87212,28.679069 C 34.561071,26.430225 32.847726,27.868477 31.520702,29.118906 C 30.193658,30.369351 30.233783,32.606693 31.64015,34.145318 C 32.217737,34.777222 32.501554,36.296156 33.238166,36.478821 C 34.295133,36.740926 33.221952,34.483528 35.474535,34.483528 z"
         style="fill:#000000;fill-opacity:1;fill-rule:evenodd;stroke:#000000;stroke-width:1;stroke-linecap:butt;stroke-linejoin:round;stroke-miterlimit:5;stroke-opacity:1" />
      <path
         sodipodi:nodetypes="cssssssssss"
         id="path3290"
         d="M 37.020609,23.500481 C 36.139674,23.500481 35.963242,24.108432 35.548119,24.500087 C 35.218887,24.810704 33.831149,24.195639 34.523247,23.647451 C 35.32084,23.015707 35.496046,22.269439 35.548119,22.001071 C 35.84742,20.458572 32.892058,21.208472 33.5,20 C 33.942679,19.120033 35.552495,19.957869 35.548119,19.502056 C 35.541371,18.799225 35.128019,17.737432 36.008764,17.56379 C 37.861929,17.198433 39.995178,18.475962 41,19.5 C 41.960731,20.479104 41.427845,22.191241 40.859805,23.407468 C 40.512739,24.150569 39.717463,25.66294 38.795277,25.480876 C 37.748856,25.274285 39.238914,23.500481 37.020609,23.500481 z"
         style="fill:#000000;fill-opacity:1;fill-rule:evenodd;stroke:#000000;stroke-width:1;stroke-linecap:butt;stroke-linejoin:round;stroke-miterlimit:5;stroke-opacity:1" />
    </g>
    <path
       style="opacity:0.68000034;fill:url(#linearGradient3308);fill-opacity:1;fill-rule:evenodd;stroke:none;stroke-width:1px;stroke-linecap:butt;stroke-linejoin:miter;stroke-opacity:1"
       d="M 12.93732,33.43784 C 18.547386,24.934269 36.615187,9.2341186 40.49982,6.6253396 C 32.235052,15.427596 21.891966,25.267073 12.93732,33.43784 z"
       id="path3299"
       sodipodi:nodetypes="ccc" />
    <path
       style="fill:url(#radialGradient2917);fill-opacity:1;fill-rule:evenodd;stroke:#4e9a06;stroke-width:0.99999982;stroke-linecap:butt;stroke-linejoin:round;stroke-miterlimit:5;stroke-opacity:1"
       d="M 27.824225,37.496838 C 26.843186,38.089674 27.895751,38.770686 28.369174,39.167418 C 28.744642,39.482062 28.180777,41.00275 27.508359,40.330726 C 26.733449,39.556268 26.23452,38.478838 25.930587,38.451225 C 24.183663,38.292503 25.528718,40.598996 24.122954,40.091728 C 23.281746,39.788178 24.328381,38.513889 23.205061,38.122802 C 22.312655,37.812106 22.401317,38.766859 21.885301,38.301648 C 19.456025,36.11154 20.732913,34.20906 21.857149,32.723297 C 22.981401,31.23751 25.202342,31.078181 26.849256,32.395679 C 28.496168,33.713177 28.932954,35.998497 27.824225,37.496838 z"
       id="path1937"
       sodipodi:nodetypes="cssssssssc" />
    <path
       style="opacity:0.77011497;fill:#eeeeec;fill-opacity:1;fill-rule:evenodd;stroke:none;stroke-width:1;stroke-linecap:round;stroke-linejoin:miter;stroke-miterlimit:4;stroke-dasharray:none;stroke-opacity:1"
       d="M 25.71857,32.75034 C 24.385292,31.972218 22.878515,32.798278 22.34357,33.46909 C 21.808625,34.139902 21.082432,35.451551 21.65607,36.68784 C 22.032876,35.498531 22.574546,34.707895 23.12482,34.09409 C 23.675912,33.479372 24.317907,32.817479 25.71857,32.75034 z"
       id="path2836"
       sodipodi:nodetypes="csczc" />
    <path
       style="fill:url(#linearGradient3240);fill-opacity:1;fill-rule:evenodd;stroke:#000000;stroke-width:0.99999988;stroke-linecap:butt;stroke-linejoin:miter;stroke-miterlimit:4;stroke-opacity:1"
       d="M 2.4998201,39.534315 C 7.1932871,39.536128 6.7209691,34.642236 8.9998201,33.142036 C 11.640589,31.403582 13.954802,33.557719 14.41683,35.330523 C 14.99982,37.56746 13.99982,40.026029 10.99982,41.009456 C 7.6361721,42.112091 2.8892931,41.484885 2.4998201,39.534315 z"
       id="path3100"
       sodipodi:nodetypes="csssc" />
    <path
       style="opacity:0.29118772;fill:none;fill-opacity:1;fill-rule:evenodd;stroke:url(#linearGradient3237);stroke-width:1;stroke-linecap:butt;stroke-linejoin:round;stroke-miterlimit:5;stroke-dasharray:none;stroke-opacity:1"
       d="M 3.9998201,40.11922 C 6.0351781,40.093587 7.4357131,37.674295 7.9660551,36.140172 C 9.5652701,31.514113 14.380529,33.713236 13.49982,36.933054 C 12.451349,42.114571 7.0446481,40.127387 3.9998201,40.11922 z"
       id="path3161"
       sodipodi:nodetypes="cscc" />
    <path
       sodipodi:type="arc"
       style="opacity:0.5;fill:url(#linearGradient3252);fill-opacity:1;fill-rule:evenodd;stroke:none;stroke-width:1;stroke-linecap:butt;stroke-linejoin:miter;stroke-miterlimit:5;stroke-dasharray:none;stroke-opacity:0.06844105"
       id="path3177"
       sodipodi:cx="12.186543"
       sodipodi:cy="38.708176"
       sodipodi:rx="1.138"
       sodipodi:ry="0.91702908"
       d="M 13.324543,38.708176 A 1.138,0.91702908 0 1 1 11.048543,38.708176 A 1.138,0.91702908 0 1 1 13.324543,38.708176 z"
       transform="matrix(2.6362041,0,0,2.180959,-21.126396,-49.420601)" />
    <path
       style="fill:url(#radialGradient2872);fill-opacity:1;fill-rule:evenodd;stroke:#a40000;stroke-width:1;stroke-linecap:butt;stroke-linejoin:round;stroke-miterlimit:5;stroke-opacity:1"
       d="M 36.474355,34.483868 C 37.368903,34.483868 38.870185,34.634864 39.265271,35.099505 C 40.189098,36.185972 41.008773,34.756867 40.30598,34.139912 C 39.496063,33.428917 38.419599,33.019706 38.366722,32.717674 C 38.062797,30.981679 40.391274,32.135057 39.782764,30.769933 C 39.418633,29.953043 38.28765,31.108021 37.815076,30.015979 C 37.439647,29.148421 38.362844,29.157098 37.87194,28.679409 C 35.560891,26.430565 33.847546,27.868817 32.520522,29.119246 C 31.193478,30.369691 31.233603,32.607033 32.63997,34.145658 C 33.217557,34.777562 33.501374,36.296496 34.237986,36.479161 C 35.294953,36.741266 34.221772,34.483868 36.474355,34.483868 z"
       id="path2852"
       sodipodi:nodetypes="cssssssssss" />
    <path
       style="fill:none;fill-opacity:1;fill-rule:evenodd;stroke:url(#linearGradient3270);stroke-width:0.99999994px;stroke-linecap:round;stroke-linejoin:miter;stroke-opacity:1"
       d="M 41.510474,5.5003396 L 38.49982,8.5091526"
       id="path3212"
       sodipodi:nodetypes="cc" />
    <path
       style="fill:url(#radialGradient2878);fill-opacity:1;fill-rule:evenodd;stroke:#204a87;stroke-width:1;stroke-linecap:butt;stroke-linejoin:round;stroke-miterlimit:5;stroke-opacity:1"
       d="M 38.020429,23.500821 C 37.139494,23.500821 36.963062,24.108772 36.547939,24.500427 C 36.218707,24.811044 34.830969,24.195979 35.523067,23.647791 C 36.32066,23.016047 36.495866,22.269779 36.547939,22.001411 C 36.84724,20.458912 33.891878,21.208812 34.49982,20.00034 C 34.942499,19.120373 36.552315,19.958209 36.547939,19.502396 C 36.541191,18.799565 36.127839,17.737772 37.008584,17.56413 C 38.861749,17.198773 40.994998,18.476302 41.99982,19.50034 C 42.960551,20.479444 42.427665,22.191581 41.859625,23.407808 C 41.512559,24.150909 40.717283,25.66328 39.795097,25.481216 C 38.748676,25.274625 40.238734,23.500821 38.020429,23.500821 z"
       id="path2876"
       sodipodi:nodetypes="cssssssssss" />
    <path
       style="opacity:0.77011497;fill:#eeeeec;fill-opacity:1;fill-rule:evenodd;stroke:none;stroke-width:1;stroke-linecap:round;stroke-linejoin:miter;stroke-miterlimit:4;stroke-dasharray:none;stroke-opacity:1"
       d="M 37.99982,18.50034 C 37.144534,18.887693 36.99982,20.00034 37.49982,21.00034 C 38.032967,19.553638 39.49982,20.00034 40.99982,20.00034 C 40.49982,19.00034 38.596144,18.300869 37.99982,18.50034 z"
       id="path2886"
       sodipodi:nodetypes="cccc" />
    <path
       style="opacity:0.77011497;fill:#eeeeec;fill-opacity:1;fill-rule:evenodd;stroke:none;stroke-width:1;stroke-linecap:round;stroke-linejoin:miter;stroke-miterlimit:4;stroke-dasharray:none;stroke-opacity:1"
       d="M 36.767856,28.732469 C 35.434578,27.954347 33.927801,28.780407 33.392856,29.451219 C 32.857911,30.122031 32.131718,31.43368 32.705356,32.669969 C 33.082162,31.48066 33.623832,30.690024 34.174106,30.076219 C 34.725198,29.461501 35.367193,28.799608 36.767856,28.732469 z"
       id="path3280"
       sodipodi:nodetypes="csczc" />
  </g>
</svg>
