<?xml version="1.0" encoding="UTF-8" standalone="no"?>
<!-- Created with Inkscape (http://www.inkscape.org/) -->

<svg
   xmlns:svg="http://www.w3.org/2000/svg"
   xmlns="http://www.w3.org/2000/svg"
   version="1.1"
   width="48"
   height="48"
   id="svg5573">
  <defs
     id="defs5575">
    <linearGradient
       x1="24.0532"
       y1="26.248501"
       x2="24.0532"
       y2="13.2114"
       id="SVGID_1_"
       gradientUnits="userSpaceOnUse">
      <stop
         id="stop4005"
         style="stop-color:#0d0d0d;stop-opacity:1"
         offset="0" />
      <stop
         id="stop4007"
         style="stop-color:#8c8c8c;stop-opacity:1"
         offset="1" />
    </linearGradient>
    <linearGradient
       x1="306.0527"
       y1="-364.4346"
       x2="306.0527"
       y2="-349.47949"
       id="SVGID_2_"
       gradientUnits="userSpaceOnUse"
       gradientTransform="matrix(1,0,0,-1,-282,-323.999)">
      <stop
         id="stop4016"
         style="stop-color:#9b9b9b;stop-opacity:1"
         offset="0" />
      <stop
         id="stop4018"
         style="stop-color:#ececec;stop-opacity:1"
         offset="1" />
    </linearGradient>
    <linearGradient
       x1="24.0532"
       y1="37.751499"
       x2="24.0532"
       y2="25.812"
       id="SVGID_3_"
       gradientUnits="userSpaceOnUse">
      <stop
         id="stop4033"
         style="stop-color:#0d0d0d;stop-opacity:1"
         offset="0" />
      <stop
         id="stop4035"
         style="stop-color:#8c8c8c;stop-opacity:1"
         offset="1" />
    </linearGradient>
    <linearGradient
       x1="321.582"
       y1="-366.07321"
       x2="321.582"
       y2="-367.60721"
       id="SVGID_4_"
       gradientUnits="userSpaceOnUse"
       gradientTransform="matrix(1,0,0,-1,-282,-323.999)">
      <stop
         id="stop4040"
         style="stop-color:#ecebf7;stop-opacity:1"
         offset="0.1917" />
      <stop
         id="stop4042"
         style="stop-color:#9e9e9e;stop-opacity:1"
         offset="0.52999997" />
    </linearGradient>
    <linearGradient
       x1="290.52341"
       y1="-366.07321"
       x2="290.52341"
       y2="-367.60721"
       id="SVGID_5_"
       gradientUnits="userSpaceOnUse"
       gradientTransform="matrix(1,0,0,-1,-282,-323.999)">
      <stop
         id="stop4047"
         style="stop-color:#ecebf7;stop-opacity:1"
         offset="0.1917" />
      <stop
         id="stop4049"
         style="stop-color:#9e9e9e;stop-opacity:1"
         offset="0.52999997" />
    </linearGradient>
    <linearGradient
       x1="306.0527"
       y1="-368.75781"
       x2="306.0527"
       y2="-369.21799"
       id="SVGID_6_"
       gradientUnits="userSpaceOnUse"
       gradientTransform="matrix(1,0,0,-1,-282,-323.999)">
      <stop
         id="stop4054"
         style="stop-color:#ecebf7;stop-opacity:1"
         offset="0.1917" />
      <stop
         id="stop4056"
         style="stop-color:#9e9e9e;stop-opacity:1"
         offset="0.52999997" />
    </linearGradient>
    <linearGradient
       x1="306.05371"
       y1="-368.3252"
       x2="306.05371"
       y2="-365.30539"
       id="SVGID_7_"
       gradientUnits="userSpaceOnUse"
       gradientTransform="matrix(1,0,0,-1,-282,-323.999)">
      <stop
         id="stop4061"
         style="stop-color:#727275;stop-opacity:1"
         offset="0" />
      <stop
         id="stop4063"
         style="stop-color:#151517;stop-opacity:1"
         offset="0.52999997" />
    </linearGradient>
    <linearGradient
       x1="306.05179"
       y1="-326.08981"
       x2="306.05179"
       y2="-349.48099"
       id="SVGID_8_"
       gradientUnits="userSpaceOnUse"
       gradientTransform="matrix(1,0,0,-1,-282,-323.999)">
      <stop
         id="stop4070"
         style="stop-color:#fcfcfc;stop-opacity:1"
         offset="0" />
      <stop
         id="stop4072"
         style="stop-color:#ffffff;stop-opacity:1"
         offset="0.1742" />
      <stop
         id="stop4074"
         style="stop-color:#ffffff;stop-opacity:1"
         offset="0.8258" />
      <stop
         id="stop4076"
         style="stop-color:#a2a2a3;stop-opacity:1"
         offset="1" />
    </linearGradient>
    <linearGradient
       x1="306.0527"
       y1="-326.08981"
       x2="306.0527"
       y2="-349.48099"
       id="SVGID_9_"
       gradientUnits="userSpaceOnUse"
       gradientTransform="matrix(1,0,0,-1,-282,-323.999)">
      <stop
         id="stop4081"
         style="stop-color:#fcfcfc;stop-opacity:1"
         offset="0" />
      <stop
         id="stop4083"
         style="stop-color:#eeeeee;stop-opacity:1"
         offset="0.1742" />
      <stop
         id="stop4085"
         style="stop-color:#eeeeee;stop-opacity:1"
         offset="0.8258" />
      <stop
         id="stop4087"
         style="stop-color:#a2a2a3;stop-opacity:1"
         offset="1" />
    </linearGradient>
    <radialGradient
       cx="314.85739"
       cy="-335.40671"
       r="5.9809999"
       id="SVGID_10_"
       gradientUnits="userSpaceOnUse"
       gradientTransform="matrix(0.8757,-0.131,-0.1048,-0.7,-279.5999,-181.8777)">
      <stop
         id="stop4092"
         style="stop-color:#c4c4c4;stop-opacity:1"
         offset="0.21349999" />
      <stop
         id="stop4094"
         style="stop-color:#eeeeee;stop-opacity:1"
         offset="0.92699999" />
    </radialGradient>
    <linearGradient
       x1="310.48929"
       y1="-325.3877"
       x2="312.9339"
       y2="-335.64539"
       id="SVGID_11_"
       gradientUnits="userSpaceOnUse"
       gradientTransform="matrix(1,0,0,-1,-282,-323.999)">
      <stop
         id="stop4099"
         style="stop-color:#fcfdfd;stop-opacity:1"
         offset="0" />
      <stop
         id="stop4101"
         style="stop-color:#eeeeee;stop-opacity:1"
         offset="1" />
    </linearGradient>
    <linearGradient
       x1="8.4042997"
       y1="0.93120003"
       x2="8.4042997"
       y2="25.789101"
       id="SVGID_12_"
       gradientUnits="userSpaceOnUse">
      <stop
         id="stop4125"
         style="stop-color:#ff6363;stop-opacity:1"
         offset="0" />
      <stop
         id="stop4127"
         style="stop-color:#cc0000;stop-opacity:1"
         offset="1" />
    </linearGradient>
  </defs>
  <g
     id="layer1">
    <g
       id="Layer_4">
      <path
         d="M 42.904,22.624 H 40.715 V 13.21 c 0,-1.154 -0.937,-2.09 -2.091,-2.09 H 36.57 C 33.851,7.616 28.358,1.685 25.28,0.362 24.722,0.119 24.219,0 23.744,0 H 12.421 C 10.762,0 9.308,1.458 9.308,3.124 v 8.002 C 8.236,11.217 7.392,12.114 7.392,13.21 v 9.413 H 5.2 c -2.714,0 -5.094,2.215 -5.094,4.744 v 17.008 c 0,1.294 0.893,2.432 2.146,2.752 0.229,0.067 0.47,0.104 0.71,0.104 H 5.946 C 6.329,47.7 6.914,48 7.565,48 H 40.54 c 0.651,0 1.236,-0.301 1.618,-0.769 h 2.983 c 1.578,0 2.858,-1.281 2.858,-2.856 V 27.368 C 48,24.839 45.618,22.624 42.904,22.624 z m 3.005,21.751 c 0,0.422 -0.345,0.767 -0.767,0.767 H 40.54 V 45.91 H 7.564 V 45.142 H 2.963 C 2.91,45.142 2.86,45.131 2.814,45.112 2.465,45.041 2.196,44.745 2.196,44.376 V 27.368 c 0,-1.459 1.527,-2.653 3.004,-2.653 H 9.482 V 13.211 h 1.917 V 3.124 c 0,-0.506 0.521,-1.033 1.022,-1.033 h 11.322 c 0.192,0 0.429,0.07 0.694,0.188 2.672,1.147 8.57,7.459 11.089,10.933 h 3.098 v 11.503 h 4.281 c 1.477,0 3.004,1.194 3.004,2.653 v 17.007 z"
         id="path3998"
         style="opacity:0.3" />
    </g>
    <g
       id="Layer_1" />
    <g
       id="Layer_2"
       style="opacity:0.3">
      <g
         id="g4002">
        <linearGradient
           x1="24.0532"
           y1="26.248501"
           x2="24.0532"
           y2="13.2114"
           id="linearGradient5462"
           gradientUnits="userSpaceOnUse">
          <stop
             id="stop5464"
             style="stop-color:#0d0d0d;stop-opacity:1"
             offset="0" />
          <stop
             id="stop5466"
             style="stop-color:#8c8c8c;stop-opacity:1"
             offset="1" />
        </linearGradient>
        <rect
           width="29.142"
           height="13.038"
           x="9.4820004"
           y="13.211"
           id="rect4009"
           style="fill:url(#SVGID_1_)" />
        <path
           d="M 45.909,40.436 V 27.368 c 0,-1.459 -1.527,-2.653 -3.004,-2.653 H 5.2 c -1.477,0 -3.004,1.194 -3.004,2.653 v 13.068 h 43.713 z"
           id="path4011"
           style="fill:#ecebf7" />
        <g
           id="g4013">
          <linearGradient
             x1="306.0527"
             y1="-364.4346"
             x2="306.0527"
             y2="-349.47949"
             id="linearGradient5471"
             gradientUnits="userSpaceOnUse"
             gradientTransform="matrix(1,0,0,-1,-282,-323.999)">
            <stop
               id="stop5473"
               style="stop-color:#9b9b9b;stop-opacity:1"
               offset="0" />
            <stop
               id="stop5475"
               style="stop-color:#ececec;stop-opacity:1"
               offset="1" />
          </linearGradient>
          <path
             d="M 45.525,40.436 V 28.132 c 0,-1.458 -1.187,-2.651 -2.637,-2.651 H 5.217 c -1.45,0 -2.637,1.193 -2.637,2.651 v 12.304 h 42.945 z"
             id="path4020"
             style="fill:url(#SVGID_2_)" />
        </g>
        <path
           d="m 45.909,40.157 v 4.218 c 0,0.422 -0.345,0.767 -0.767,0.767 H 2.963 c -0.422,0 -0.767,-0.345 -0.767,-0.767 v -4.218 h 43.713 z"
           id="path4022"
           style="fill:#333333" />
        <g
           id="g4024">
          <path
             d="m 2.58,40.923 v 3.835 c 0,0.211 0.172,0.383 0.384,0.383 h 42.179 c 0.211,0 0.383,-0.172 0.383,-0.383 V 40.923 H 2.58 z"
             id="path4026"
             style="fill:#333333" />
        </g>
        <path
           d="m 39.007,37.368 c 0,0.422 -0.345,0.767 -0.767,0.767 H 9.865 c -0.421,0 -0.766,-0.345 -0.766,-0.767 v -8.436 c 0,-0.422 0.345,-0.767 0.766,-0.767 H 38.24 c 0.422,0 0.767,0.345 0.767,0.767 v 8.436 z"
           id="path4028"
           style="fill:#cbc8e6" />
        <g
           id="g4030">
          <linearGradient
             x1="24.0532"
             y1="37.751499"
             x2="24.0532"
             y2="25.812"
             id="linearGradient5483"
             gradientUnits="userSpaceOnUse">
            <stop
               id="stop5485"
               style="stop-color:#0d0d0d;stop-opacity:1"
               offset="0" />
            <stop
               id="stop5487"
               style="stop-color:#8c8c8c;stop-opacity:1"
               offset="1" />
          </linearGradient>
          <rect
             width="29.142"
             height="11.939"
             x="9.4820004"
             y="25.812"
             id="rect4037"
             style="fill:url(#SVGID_3_)" />
        </g>
        <linearGradient
           x1="321.582"
           y1="-366.07321"
           x2="321.582"
           y2="-367.60721"
           id="linearGradient5490"
           gradientUnits="userSpaceOnUse"
           gradientTransform="matrix(1,0,0,-1,-282,-323.999)">
          <stop
             id="stop5492"
             style="stop-color:#ecebf7;stop-opacity:1"
             offset="0.1917" />
          <stop
             id="stop5494"
             style="stop-color:#9e9e9e;stop-opacity:1"
             offset="0.52999997" />
        </linearGradient>
        <rect
           width="1.9170001"
           height="3.835"
           x="38.624001"
           y="42.074001"
           id="rect4044"
           style="fill:url(#SVGID_4_)" />
        <linearGradient
           x1="290.52341"
           y1="-366.07321"
           x2="290.52341"
           y2="-367.60721"
           id="linearGradient5497"
           gradientUnits="userSpaceOnUse"
           gradientTransform="matrix(1,0,0,-1,-282,-323.999)">
          <stop
             id="stop5499"
             style="stop-color:#ecebf7;stop-opacity:1"
             offset="0.1917" />
          <stop
             id="stop5501"
             style="stop-color:#9e9e9e;stop-opacity:1"
             offset="0.52999997" />
        </linearGradient>
        <rect
           width="1.9170001"
           height="3.835"
           x="7.5640001"
           y="42.074001"
           id="rect4051"
           style="fill:url(#SVGID_5_)" />
        <linearGradient
           x1="306.0527"
           y1="-368.75781"
           x2="306.0527"
           y2="-369.21799"
           id="linearGradient5504"
           gradientUnits="userSpaceOnUse"
           gradientTransform="matrix(1,0,0,-1,-282,-323.999)">
          <stop
             id="stop5506"
             style="stop-color:#ecebf7;stop-opacity:1"
             offset="0.1917" />
          <stop
             id="stop5508"
             style="stop-color:#9e9e9e;stop-opacity:1"
             offset="0.52999997" />
        </linearGradient>
        <rect
           width="29.142"
           height="1.15"
           x="9.4820004"
           y="44.757999"
           id="rect4058"
           style="fill:url(#SVGID_6_)" />
        <linearGradient
           x1="306.05371"
           y1="-368.3252"
           x2="306.05371"
           y2="-365.30539"
           id="linearGradient5511"
           gradientUnits="userSpaceOnUse"
           gradientTransform="matrix(1,0,0,-1,-282,-323.999)">
          <stop
             id="stop5513"
             style="stop-color:#727275;stop-opacity:1"
             offset="0" />
          <stop
             id="stop5515"
             style="stop-color:#151517;stop-opacity:1"
             offset="0.52999997" />
        </linearGradient>
        <polygon
           points="9.482,44.758 9.482,42.074 9.865,41.307 38.24,41.307 38.624,42.074 38.624,44.758 "
           id="polygon4065"
           style="fill:url(#SVGID_7_)" />
        <rect
           width="29.142"
           height="1.15"
           x="9.4820004"
           y="24.714001"
           id="rect4067"
           style="fill:#333336" />
        <linearGradient
           x1="306.05179"
           y1="-326.08981"
           x2="306.05179"
           y2="-349.48099"
           id="linearGradient5519"
           gradientUnits="userSpaceOnUse"
           gradientTransform="matrix(1,0,0,-1,-282,-323.999)">
          <stop
             id="stop5521"
             style="stop-color:#fcfcfc;stop-opacity:1"
             offset="0" />
          <stop
             id="stop5523"
             style="stop-color:#ffffff;stop-opacity:1"
             offset="0.1742" />
          <stop
             id="stop5525"
             style="stop-color:#ffffff;stop-opacity:1"
             offset="0.8258" />
          <stop
             id="stop5527"
             style="stop-color:#a2a2a3;stop-opacity:1"
             offset="1" />
        </linearGradient>
        <path
           d="M 36.706,25.865 H 11.399 c 0,0 0,-22.234 0,-22.741 0,-0.507 0.521,-1.033 1.022,-1.033 0.382,0 8.232,0 11.3,0 2.697,0 12.985,11.629 12.985,13.23 0,2.067 0,10.544 0,10.544 z"
           id="path4078"
           style="fill:url(#SVGID_8_)" />
        <linearGradient
           x1="306.0527"
           y1="-326.08981"
           x2="306.0527"
           y2="-349.48099"
           id="linearGradient5530"
           gradientUnits="userSpaceOnUse"
           gradientTransform="matrix(1,0,0,-1,-282,-323.999)">
          <stop
             id="stop5532"
             style="stop-color:#fcfcfc;stop-opacity:1"
             offset="0" />
          <stop
             id="stop5534"
             style="stop-color:#eeeeee;stop-opacity:1"
             offset="0.1742" />
          <stop
             id="stop5536"
             style="stop-color:#eeeeee;stop-opacity:1"
             offset="0.8258" />
          <stop
             id="stop5538"
             style="stop-color:#a2a2a3;stop-opacity:1"
             offset="1" />
        </linearGradient>
        <path
           d="M 36.323,25.865 H 11.782 c 0,0 0,-22.234 0,-22.741 0,-0.507 0.505,-1.033 0.991,-1.033 0.37,0 7.998,0 10.97,0 2.612,0 12.58,11.629 12.58,13.23 0,2.067 0,10.544 0,10.544 z"
           id="path4089"
           style="fill:url(#SVGID_9_)" />
        <radialGradient
           cx="314.85739"
           cy="-335.40671"
           r="5.9809999"
           id="radialGradient5541"
           gradientUnits="userSpaceOnUse"
           gradientTransform="matrix(0.8757,-0.131,-0.1048,-0.7,-279.5999,-181.8777)">
          <stop
             id="stop5543"
             style="stop-color:#c4c4c4;stop-opacity:1"
             offset="0.21349999" />
          <stop
             id="stop5545"
             style="stop-color:#eeeeee;stop-opacity:1"
             offset="0.92699999" />
        </radialGradient>
        <path
           d="m 34.876,12.804 c 0.288,1.927 -0.425,3.631 -2.837,3.992 -2.409,0.361 -5.605,-0.758 -5.894,-2.685 -0.289,-1.928 0.586,-2.558 2.996,-2.919 2.411,-0.36 3.856,0.521 5.735,1.612 z"
           id="path4096"
           style="fill:url(#SVGID_10_)" />
        <linearGradient
           x1="310.48929"
           y1="-325.3877"
           x2="312.9339"
           y2="-335.64539"
           id="linearGradient5548"
           gradientUnits="userSpaceOnUse"
           gradientTransform="matrix(1,0,0,-1,-282,-323.999)">
          <stop
             id="stop5550"
             style="stop-color:#fcfdfd;stop-opacity:1"
             offset="0" />
          <stop
             id="stop5552"
             style="stop-color:#eeeeee;stop-opacity:1"
             offset="1" />
        </linearGradient>
        <path
           d="m 36.706,15.321 c 0,-3.088 -10.257,-3.093 -10.257,-3.093 C 26.439,13.25 26.553,2.09 23.72,2.09 c 2.698,0.001 12.986,12.2 12.986,13.231 z"
           id="path4103"
           style="fill:url(#SVGID_11_)" />
        <rect
           width="29.077999"
           height="0.384"
           x="9.4820004"
           y="25.865"
           id="rect4105"
           style="fill:#333336" />
      </g>
    </g>
    <g
       id="Layer_3">
      <g
         id="g4108">
        <g
           id="g4110">
          <g
             id="g4112">
            <path
               d="M 10.219,26.72 H 4.316 c -0.514,0 -0.932,-0.418 -0.932,-0.932 v -5.821 c 0,-0.514 0.418,-0.931 0.932,-0.931 h 5.902 c 0.514,0 0.932,0.417 0.932,0.931 v 5.821 c 0,0.514 -0.418,0.932 -0.931,0.932 l 0,0 z m 0,-8.243 H 4.316 c -0.514,0 -0.932,-0.417 -0.932,-0.931 v -0.8 c 0,-1.045 0.219,-1.989 0.646,-2.809 C 4.446,13.139 5.251,12.19 6.497,11.04 L 7.55,10.085 C 8.1,9.588 8.496,9.125 8.732,8.711 8.941,8.349 9.043,8.009 9.043,7.668 9.043,7.034 8.791,6.755 8.6,6.598 8.248,6.308 7.709,6.163 6.998,6.163 6.225,6.163 5.367,6.329 4.449,6.657 3.498,6.997 2.482,7.51 1.438,8.189 1.284,8.289 1.108,8.339 0.932,8.339 0.78,8.339 0.625,8.3 0.487,8.226 0.186,8.063 0,7.75 0,7.408 V 2.272 C 0,1.876 0.252,1.524 0.625,1.394 1.977,0.923 3.232,0.573 4.361,0.347 5.512,0.119 6.637,0 7.701,0 c 2.857,0 5.098,0.613 6.654,1.823 1.629,1.264 2.453,3.11 2.453,5.486 0,1.211 -0.248,2.317 -0.736,3.287 -0.479,0.951 -1.252,1.928 -2.369,2.981 l -1.068,0.95 c -0.861,0.789 -1.156,1.207 -1.258,1.385 -0.154,0.273 -0.227,0.566 -0.227,0.897 v 0.735 c 0,0.516 -0.418,0.933 -0.931,0.933 l 0,0 z"
               id="path4114" />
          </g>
          <g
             id="g4116">
            <path
               d="M 10.219,17.547 H 4.316 v -0.802 c 0,-0.895 0.18,-1.688 0.539,-2.379 0.361,-0.693 1.117,-1.573 2.273,-2.643 L 8.175,10.776 C 8.796,10.209 9.251,9.674 9.54,9.172 9.829,8.67 9.975,8.17 9.975,7.669 9.975,6.905 9.713,6.309 9.19,5.878 8.667,5.447 7.936,5.232 6.998,5.232 6.115,5.232 5.16,5.416 4.137,5.781 3.111,6.146 2.043,6.688 0.93,7.408 V 2.272 C 2.25,1.814 3.455,1.476 4.545,1.258 5.635,1.04 6.688,0.931 7.701,0.931 c 2.66,0 4.689,0.543 6.084,1.627 1.395,1.085 2.094,2.669 2.094,4.751 0,1.069 -0.213,2.025 -0.639,2.87 -0.426,0.846 -1.15,1.753 -2.176,2.723 l -1.045,0.934 c -0.742,0.675 -1.227,1.218 -1.455,1.627 -0.23,0.408 -0.346,0.858 -0.346,1.349 v 0.735 z m -5.903,2.42 h 5.902 v 5.821 H 4.316 v -5.821 z"
               id="path4118" />
          </g>
        </g>
        <g
           id="g4120">
          <g
             id="g4122">
            <linearGradient
               x1="8.4042997"
               y1="0.93120003"
               x2="8.4042997"
               y2="25.789101"
               id="linearGradient5565"
               gradientUnits="userSpaceOnUse">
              <stop
                 id="stop5567"
                 style="stop-color:#ff6363;stop-opacity:1"
                 offset="0" />
              <stop
                 id="stop5569"
                 style="stop-color:#cc0000;stop-opacity:1"
                 offset="1" />
            </linearGradient>
            <path
               d="M 10.219,17.547 H 4.316 v -0.802 c 0,-0.895 0.18,-1.688 0.539,-2.379 0.361,-0.693 1.117,-1.573 2.273,-2.643 L 8.175,10.776 C 8.796,10.209 9.251,9.674 9.54,9.172 9.829,8.67 9.975,8.17 9.975,7.669 9.975,6.905 9.713,6.309 9.19,5.878 8.667,5.447 7.936,5.232 6.998,5.232 6.115,5.232 5.16,5.416 4.137,5.781 3.111,6.146 2.043,6.688 0.93,7.408 V 2.272 C 2.25,1.814 3.455,1.476 4.545,1.258 5.635,1.04 6.688,0.931 7.701,0.931 c 2.66,0 4.689,0.543 6.084,1.627 1.395,1.085 2.094,2.669 2.094,4.751 0,1.069 -0.213,2.025 -0.639,2.87 -0.426,0.846 -1.15,1.753 -2.176,2.723 l -1.045,0.934 c -0.742,0.675 -1.227,1.218 -1.455,1.627 -0.23,0.408 -0.346,0.858 -0.346,1.349 v 0.735 z m -5.903,2.42 h 5.902 v 5.821 H 4.316 v -5.821 z"
               id="path4129"
               style="fill:url(#SVGID_12_)" />
          </g>
        </g>
        <path
           d="M 9.975,7.669 C 9.975,8.17 9.83,8.671 9.541,9.173 9.252,9.675 8.797,10.209 8.176,10.777 l -1.047,0.947 c -1.156,1.069 -1.912,1.949 -2.273,2.643 -0.359,0.691 -0.539,1.484 -0.539,2.379 v 0.802 h 0.348 v -0.259 c 0,-0.895 0.18,-1.688 0.541,-2.38 0.359,-0.692 1.117,-1.573 2.273,-2.641 L 8.524,11.32 C 9.147,10.753 9.602,10.218 9.891,9.716 10.18,9.215 10.325,8.714 10.325,8.212 10.325,7.587 10.139,7.079 9.788,6.677 9.91,6.969 9.975,7.298 9.975,7.669 z M 4.316,25.789 H 4.664 V 20.51 h 5.555 V 19.967 H 4.316 v 5.822 z M 13.785,2.558 C 12.39,1.474 10.361,0.931 7.701,0.931 6.687,0.931 5.635,1.04 4.545,1.258 3.455,1.476 2.25,1.814 0.93,2.272 V 7.408 C 1.047,7.332 1.164,7.266 1.28,7.194 V 2.815 C 2.6,2.357 3.803,2.019 4.895,1.801 5.985,1.583 7.036,1.474 8.051,1.474 c 2.66,0 4.688,0.543 6.082,1.627 0.391,0.303 0.719,0.648 1,1.029 C 14.797,3.525 14.352,3 13.785,2.558 z"
           id="path4131"
           style="opacity:0.4;fill:#ffffff" />
      </g>
    </g>
  </g>
</svg>
