<?xml version="1.0" encoding="UTF-8" standalone="no"?>
<!-- Created with Inkscape (http://www.inkscape.org/) -->

<svg
   xmlns:svg="http://www.w3.org/2000/svg"
   xmlns="http://www.w3.org/2000/svg"
   version="1.1"
   width="48"
   height="48"
   id="svg6667">
  <defs
     id="defs6669">
    <linearGradient
       x1="39.097698"
       y1="42.161598"
       x2="13.9652"
       y2="7.5697999"
       id="SVGID_1_"
       gradientUnits="userSpaceOnUse">
      <stop
         id="stop252"
         style="stop-color:#9b9b9b;stop-opacity:1"
         offset="0" />
      <stop
         id="stop254"
         style="stop-color:#ececec;stop-opacity:1"
         offset="1" />
    </linearGradient>
  </defs>
  <g
     id="layer1">
    <g
       transform="translate(0,1.121)"
       id="Layer_3">
      <g
         id="g238"
         style="opacity:0.3">
        <g
           id="g240">
          <path
             d="M 39.414,1.7 38.545,0.79 C 38.096,0.287 37.447,0 36.764,0 36.131,0 35.514,0.256 35.065,0.703 l -0.926,0.931 -1.031,1.03 -0.881,0.881 c -0.383,0.382 -0.609,0.867 -0.678,1.372 -0.545,0.062 -1.059,0.31 -1.428,0.689 l -0.914,0.912 -0.969,0.97 -0.859,0.858 c -0.391,0.392 -0.621,0.885 -0.688,1.395 -0.529,0.06 -1.025,0.293 -1.432,0.689 l -0.878,0.883 -0.862,0.862 -0.807,0.807 c -0.916,0.914 -0.945,2.375 -0.08,3.313 l 0.768,0.846 c 1.539,1.696 2.356,3.681 2.36,5.734 -0.004,2.061 -0.821,4.046 -2.362,5.745 l -0.756,0.831 c -0.875,0.951 -0.846,2.412 0.07,3.326 l 0.803,0.803 0.436,0.438 0.431,0.431 0.9,0.901 c 0.387,0.378 0.879,0.609 1.406,0.669 0.066,0.51 0.297,1.003 0.691,1.396 l 0.855,0.853 0.969,0.972 0.916,0.916 c 0.383,0.382 0.889,0.625 1.426,0.688 0.068,0.507 0.295,0.994 0.682,1.374 l 0.877,0.875 1.035,1.035 0.928,0.929 c 0.453,0.454 1.057,0.703 1.699,0.703 l 0.043,0 c 0.656,-0.012 1.281,-0.293 1.699,-0.746 l 0.906,-0.956 c 5.535,-5.832 8.584,-13.354 8.584,-21.193 0,-7.816 -3.049,-15.33 -8.584,-21.165 z m -11.31,31.283 -0.844,0.92 c -0.074,0.08 -0.18,0.129 -0.289,0.131 l -0.008,0 c -0.107,0 -0.211,-0.043 -0.287,-0.117 l -0.881,-0.883 c -0.346,-0.346 -0.518,-0.518 -0.863,-0.863 l -0.807,-0.807 c -0.152,-0.152 -0.158,-0.398 -0.012,-0.557 l 0.766,-0.844 c 1.949,-2.146 2.875,-4.619 2.878,-7.083 -0.004,-2.465 -0.93,-4.938 -2.878,-7.084 l -0.766,-0.843 c -0.146,-0.16 -0.141,-0.405 0.012,-0.558 l 0.807,-0.806 c 0.345,-0.345 0.517,-0.518 0.863,-0.862 l 0.881,-0.882 c 0.078,-0.078 0.186,-0.121 0.295,-0.119 0.109,0.002 0.215,0.05 0.289,0.131 l 0.844,0.919 c 2.682,2.918 4.068,6.495 4.068,10.086 0,0.003 0,0.003 0,0.003 l 0,0.015 c 0,3.593 -1.381,7.177 -4.068,10.103 z M 33,37.786 32.115,38.731 c -0.074,0.08 -0.18,0.127 -0.289,0.129 l -0.006,0 c -0.107,0 -0.211,-0.043 -0.287,-0.119 L 30.617,37.825 C 30.23,37.438 30.037,37.245 29.65,36.856 L 28.793,36 c -0.154,-0.154 -0.158,-0.402 -0.01,-0.561 l 0.824,-0.887 c 3.184,-3.42 4.742,-7.545 4.744,-11.667 -0.002,-4.129 -1.559,-8.258 -4.742,-11.68 l -0.826,-0.886 c -0.148,-0.16 -0.145,-0.407 0.01,-0.562 L 29.65,8.902 c 0.387,-0.387 0.58,-0.581 0.967,-0.969 l 0.918,-0.916 c 0.076,-0.078 0.182,-0.12 0.291,-0.119 0.109,0.002 0.215,0.048 0.289,0.128 L 33,7.973 c 4,4.268 6.033,9.583 6.033,14.899 l 0,0.015 C 39.033,28.204 37,33.518 33,37.786 z m 4.963,4.894 -0.904,0.955 c -0.074,0.078 -0.178,0.123 -0.287,0.125 l -0.006,0 c -0.107,0 -0.209,-0.043 -0.285,-0.119 l -0.93,-0.928 C 35.139,42.301 34.932,42.094 34.52,41.68 l -0.881,-0.879 c -0.154,-0.154 -0.158,-0.404 -0.008,-0.564 l 0.855,-0.904 C 38.955,34.603 41.174,28.759 41.175,22.914 41.173,17.04 38.968,11.173 34.486,6.427 L 33.631,5.523 C 33.483,5.364 33.485,5.114 33.639,4.96 L 34.52,4.08 c 0.412,-0.413 0.619,-0.62 1.031,-1.032 l 0.93,-0.929 C 36.557,2.041 36.663,1.999 36.772,2 c 0.109,10e-4 0.213,0.047 0.287,0.126 l 0.904,0.954 c 5.338,5.625 8.035,12.705 8.035,19.785 l 0,0.016 c 0,7.082 -2.693,14.17 -8.035,19.799 z M 19.267,7.046 C 18.677,6.757 18.016,6.605 17.36,6.605 c -0.958,0 -1.902,0.324 -2.664,0.912 L 7.485,13.115 4.34,13.117 c -1.143,0 -2.263,0.462 -3.07,1.271 C 0.462,15.193 0,16.314 0,17.457 l 0,10.846 c 0,2.396 1.948,4.344 4.419,4.344 l 3.066,0 7.217,5.602 c 0.759,0.584 1.702,0.905 2.655,0.905 0.661,0 1.321,-0.152 1.911,-0.441 1.502,-0.736 2.432,-2.23 2.432,-3.901 l 0,-23.869 C 21.697,9.272 20.767,7.78 19.267,7.046 z m 0.435,27.765 c 0,0.898 -0.508,1.711 -1.312,2.105 -0.328,0.16 -0.68,0.238 -1.031,0.238 -0.51,0 -1.016,-0.166 -1.435,-0.49 l -7.754,-6.017 -3.83,0 c -1.293,0 -2.342,-1.049 -2.342,-2.344 l 0,-10.847 c 0,-0.617 0.25,-1.22 0.686,-1.655 0.437,-0.437 1.039,-0.687 1.656,-0.687 l 3.832,-0.001 7.75,-6.016 c 0.708,-0.549 1.662,-0.647 2.467,-0.253 0.805,0.394 1.312,1.206 1.312,2.104 l 0,23.863 0.001,0 z"
             id="path242" />
        </g>
      </g>
    </g>
    <g
       transform="translate(0,1.121)"
       id="Layer_4">
      <g
         id="Layer_1" />
      <g
         id="Layer_2">
        <g
           id="g247">
          <g
             id="g249">
            <linearGradient
               x1="39.097698"
               y1="42.161598"
               x2="13.9652"
               y2="7.5697999"
               id="linearGradient6735"
               gradientUnits="userSpaceOnUse">
              <stop
                 id="stop6737"
                 style="stop-color:#9b9b9b;stop-opacity:1"
                 offset="0" />
              <stop
                 id="stop6739"
                 style="stop-color:#ececec;stop-opacity:1"
                 offset="1" />
            </linearGradient>
            <path
               d="m 19.702,10.947 0,23.864 c 0,0.898 -0.508,1.711 -1.312,2.105 -0.328,0.16 -0.68,0.238 -1.031,0.238 -0.51,0 -1.016,-0.166 -1.435,-0.49 l -7.754,-6.017 -3.75,0 c -0.026,0 -0.053,0 -0.08,0 -1.293,0 -2.342,-1.049 -2.342,-2.344 l 0,-10.847 c 0,-0.617 0.25,-1.22 0.686,-1.655 0.437,-0.437 1.039,-0.687 1.656,-0.687 l 3.832,-0.001 7.75,-6.016 c 0.708,-0.549 1.662,-0.647 2.467,-0.253 0.805,0.394 1.312,1.206 1.313,2.103 z M 36.48,43.641 c 0.076,0.076 0.178,0.119 0.285,0.119 l 0,0 c 0.002,0 0.004,0 0.006,0 l 0,0 c 0.109,-0.002 0.213,-0.047 0.287,-0.125 l 0.904,-0.955 0,0 c 5.342,-5.629 8.035,-12.717 8.035,-19.801 l 0,0 0,0 c 0,-0.002 0,-0.005 0,-0.008 l 0,-0.008 0,0 0,0 0,0 c 0,-7.08 -2.697,-14.16 -8.035,-19.785 l -0.904,-0.954 0,0 C 36.984,2.045 36.881,2 36.771,1.999 l 0,0 C 36.662,1.998 36.556,2.04 36.48,2.118 l -0.93,0.929 0,0 C 35.138,3.46 34.931,3.666 34.519,4.079 l -0.881,0.88 0,0 C 33.484,5.113 33.482,5.364 33.63,5.522 l 0.855,0.904 0,0 c 4.482,4.746 6.688,10.614 6.689,16.487 l 0,0 c -0.002,5.845 -2.221,11.689 -6.689,16.419 l 0,0 -0.855,0.904 0,0 c -0.15,0.16 -0.146,0.41 0.008,0.564 l 0.881,0.879 0,0 c 0.412,0.414 0.619,0.621 1.031,1.033 l 0.93,0.929 0,0 z m -4.947,-4.9 c 0.076,0.076 0.18,0.119 0.287,0.119 l 0,0 c 0.002,0 0.004,0 0.006,0 l 0,0 c 0.109,-0.002 0.215,-0.049 0.289,-0.129 L 33,37.786 l 0,0 c 4,-4.268 6.033,-9.582 6.033,-14.899 l 0,0 0,0 c 0,-0.002 0,-0.004 0,-0.007 l 0,-0.008 0,0 0,0 0,0 C 39.033,17.556 37,12.241 33,7.973 l -0.885,-0.946 0,0 C 32.041,6.947 31.935,6.901 31.826,6.899 l 0,0 C 31.717,6.898 31.611,6.94 31.535,7.018 l -0.918,0.916 0,0 C 30.23,8.322 30.037,8.516 29.65,8.903 l -0.857,0.855 0,0 c -0.154,0.154 -0.158,0.402 -0.01,0.562 l 0.826,0.886 0,0 c 3.184,3.422 4.74,7.551 4.742,11.68 l 0,0 c -0.002,4.123 -1.561,8.248 -4.744,11.667 l 0,0 -0.824,0.887 0,0 c -0.148,0.158 -0.145,0.406 0.01,0.561 l 0.857,0.855 0,0 c 0.387,0.389 0.58,0.582 0.967,0.969 l 0.916,0.916 0,0 z m -4.857,-4.824 c 0.076,0.074 0.18,0.117 0.287,0.117 l 0,0 c 0.002,0 0.006,0 0.008,0 l 0,0 c 0.109,-0.002 0.215,-0.051 0.289,-0.131 l 0.844,-0.92 0,0 c 2.688,-2.926 4.068,-6.51 4.068,-10.104 l 0,0 0,0 c 0,-0.002 0,-0.005 0,-0.011 l 0,-0.004 0,0 0,0 c 0,0 0,0 0,-0.003 l 0,0 c 0,-3.591 -1.387,-7.167 -4.068,-10.086 l -0.844,-0.919 0,0 c -0.074,-0.081 -0.18,-0.128 -0.289,-0.131 l 0,0 c -0.109,-0.002 -0.217,0.041 -0.295,0.119 l -0.881,0.882 0,0 c -0.346,0.345 -0.518,0.517 -0.863,0.862 l -0.807,0.806 0,0 c -0.152,0.153 -0.158,0.398 -0.012,0.558 l 0.766,0.843 0,0 c 1.949,2.147 2.875,4.62 2.878,7.084 l 0,0 c -0.004,2.464 -0.93,4.937 -2.878,7.083 l -0.766,0.844 0,0 c -0.146,0.158 -0.141,0.404 0.012,0.557 l 0.807,0.807 0,0 c 0.345,0.346 0.517,0.518 0.863,0.863 l 0.881,0.884 0,0 z"
               id="path256"
               style="fill:url(#SVGID_1_)" />
          </g>
          <g
             id="g258"
             style="opacity:0.5">
            <g
               id="g260">
              <path
                 d="m 8.653,31.022 7.27,5.643 c 0.163,0.126 0.342,0.221 0.527,0.299 l -7.654,-5.941 -0.143,0 0,-0.001 z M 15.922,9.097 8.172,15.113 4.34,15.114 c -0.617,0 -1.219,0.25 -1.656,0.687 -0.436,0.436 -0.686,1.039 -0.686,1.655 l 0,10.847 c 0,0.991 0.617,1.834 1.486,2.177 C 2.963,30.05 2.623,29.408 2.623,28.678 l 0,-10.847 c 0,-0.617 0.25,-1.22 0.686,-1.655 0.437,-0.437 1.039,-0.687 1.656,-0.687 l 3.832,-0.001 7.75,-6.016 C 17.216,8.953 18.101,8.853 18.876,9.174 18.728,9.048 18.569,8.932 18.389,8.844 17.584,8.45 16.631,8.547 15.922,9.097 z m 9.582,21.241 c 1.949,-2.146 2.875,-4.619 2.879,-7.083 -0.004,-2.465 -0.93,-4.938 -2.879,-7.084 l -0.765,-0.843 c -0.146,-0.16 -0.141,-0.405 0.012,-0.558 l 0.806,-0.806 c 0.346,-0.345 0.518,-0.518 0.863,-0.862 l 0.881,-0.882 c 0.055,-0.054 0.125,-0.084 0.199,-0.101 l -0.24,-0.262 c -0.074,-0.081 -0.18,-0.128 -0.289,-0.131 -0.109,-0.002 -0.217,0.041 -0.295,0.119 l -0.881,0.882 c -0.346,0.345 -0.518,0.517 -0.863,0.862 l -0.807,0.806 c -0.152,0.153 -0.158,0.398 -0.012,0.558 l 0.766,0.843 c 1.949,2.147 2.875,4.62 2.878,7.084 -0.004,2.464 -0.93,4.937 -2.878,7.083 l -0.766,0.844 c -0.146,0.158 -0.141,0.404 0.012,0.557 l 0.807,0.807 c 0.345,0.346 0.517,0.518 0.863,0.863 l 0.881,0.883 c 0.076,0.074 0.18,0.117 0.287,0.117 l 0.008,0 c 0.021,0 0.039,-0.01 0.06,-0.014 l -0.61,-0.611 -0.863,-0.863 -0.806,-0.807 C 24.6,31.587 24.594,31.341 24.74,31.182 l 0.764,-0.844 z m 9.641,11.717 -0.881,-0.879 C 34.11,41.022 34.106,40.772 34.256,40.612 l 0.855,-0.904 C 39.58,34.978 41.799,29.134 41.8,23.289 41.798,17.415 39.593,11.548 35.111,6.802 L 34.256,5.898 C 34.108,5.739 34.11,5.489 34.264,5.335 l 0.881,-0.88 c 0.412,-0.413 0.619,-0.62 1.031,-1.032 l 0.93,-0.929 C 37.162,2.438 37.234,2.408 37.31,2.391 L 37.059,2.126 C 36.984,2.045 36.881,2 36.771,1.999 36.661,1.998 36.557,2.04 36.48,2.117 l -0.93,0.929 c -0.412,0.413 -0.619,0.619 -1.031,1.032 l -0.881,0.88 C 33.484,5.112 33.482,5.363 33.63,5.521 l 0.855,0.904 c 4.482,4.746 6.688,10.614 6.689,16.487 -0.002,5.845 -2.221,11.689 -6.689,16.419 l -0.855,0.904 c -0.15,0.16 -0.146,0.41 0.008,0.564 l 0.881,0.879 c 0.412,0.414 0.619,0.621 1.031,1.033 l 0.93,0.928 c 0.076,0.076 0.178,0.119 0.285,0.119 l 0.006,0 c 0.022,0 0.042,-0.01 0.063,-0.014 l -0.659,-0.658 c -0.411,-0.41 -0.618,-0.617 -1.03,-1.031 z m -4.87,-4.824 -0.857,-0.855 c -0.154,-0.154 -0.158,-0.402 -0.01,-0.561 l 0.824,-0.887 c 3.184,-3.42 4.742,-7.545 4.744,-11.667 -0.002,-4.129 -1.559,-8.258 -4.742,-11.68 l -0.826,-0.886 c -0.148,-0.16 -0.145,-0.407 0.01,-0.562 l 0.857,-0.855 c 0.387,-0.387 0.58,-0.581 0.967,-0.969 L 32.16,7.393 C 32.215,7.337 32.286,7.307 32.362,7.291 L 32.115,7.027 C 32.041,6.947 31.935,6.901 31.826,6.899 31.717,6.898 31.611,6.94 31.535,7.018 L 30.617,7.934 C 30.23,8.322 30.037,8.516 29.65,8.903 l -0.857,0.855 c -0.154,0.154 -0.158,0.402 -0.01,0.562 l 0.826,0.886 c 3.184,3.422 4.74,7.551 4.742,11.68 -0.002,4.123 -1.561,8.248 -4.744,11.667 l -0.824,0.887 c -0.148,0.158 -0.145,0.406 0.01,0.561 l 0.857,0.855 c 0.387,0.389 0.58,0.582 0.967,0.969 l 0.916,0.916 c 0.076,0.076 0.18,0.119 0.287,0.119 l 0.006,0 c 0.021,0 0.041,-0.01 0.062,-0.014 L 31.242,38.2 c -0.387,-0.387 -0.58,-0.58 -0.967,-0.969 z"
                 id="path262"
                 style="fill:#ffffff" />
            </g>
          </g>
        </g>
      </g>
    </g>
  </g>
</svg>
