<?xml version="1.0" encoding="UTF-8" standalone="no"?>
<!-- Created with Inkscape (http://www.inkscape.org/) -->

<svg
   xmlns:svg="http://www.w3.org/2000/svg"
   xmlns="http://www.w3.org/2000/svg"
   xmlns:xlink="http://www.w3.org/1999/xlink"
   version="1.1"
   width="48"
   height="48"
   id="svg9587">
  <defs
     id="defs9589">
    <linearGradient
       x1="41.832001"
       y1="48.541"
       x2="6.1729002"
       y2="-0.53960001"
       id="linearGradient2813"
       xlink:href="#SVGID_1_"
       gradientUnits="userSpaceOnUse" />
    <linearGradient
       x1="41.832001"
       y1="48.541"
       x2="6.1729002"
       y2="-0.53960001"
       id="SVGID_1_"
       gradientUnits="userSpaceOnUse">
      <stop
         id="stop248"
         style="stop-color:#9b9b9b;stop-opacity:1"
         offset="0" />
      <stop
         id="stop250"
         style="stop-color:#ececec;stop-opacity:1"
         offset="1" />
    </linearGradient>
    <linearGradient
       x1="24.002399"
       y1="35.917999"
       x2="24.002399"
       y2="12.0835"
       id="linearGradient2743"
       xlink:href="#path3499_1_"
       gradientUnits="userSpaceOnUse" />
    <linearGradient
       x1="24.002399"
       y1="35.917999"
       x2="24.002399"
       y2="12.0835"
       id="path3499_1_"
       gradientUnits="userSpaceOnUse">
      <stop
         id="stop265"
         style="stop-color:#1f1f1f;stop-opacity:1"
         offset="0" />
      <stop
         id="stop267"
         style="stop-color:#000000;stop-opacity:1"
         offset="1" />
    </linearGradient>
    <linearGradient
       x1="22.3853"
       y1="33.567402"
       x2="22.3853"
       y2="30.7686"
       id="linearGradient2803"
       xlink:href="#rect3503_2_"
       gradientUnits="userSpaceOnUse" />
    <linearGradient
       x1="22.3853"
       y1="33.567402"
       x2="22.3853"
       y2="30.7686"
       id="rect3503_2_"
       gradientUnits="userSpaceOnUse">
      <stop
         id="stop273"
         style="stop-color:#ffffff;stop-opacity:1"
         offset="0.4725" />
      <stop
         id="stop275"
         style="stop-color:#737373;stop-opacity:1"
         offset="1" />
    </linearGradient>
    <linearGradient
       x1="28.7383"
       y1="33.672901"
       x2="28.7383"
       y2="30.6611"
       id="linearGradient2800"
       xlink:href="#rect3505_1_"
       gradientUnits="userSpaceOnUse" />
    <linearGradient
       x1="28.7383"
       y1="33.672901"
       x2="28.7383"
       y2="30.6611"
       id="rect3505_1_"
       gradientUnits="userSpaceOnUse">
      <stop
         id="stop279"
         style="stop-color:#ffffff;stop-opacity:1"
         offset="0.4725" />
      <stop
         id="stop281"
         style="stop-color:#737373;stop-opacity:1"
         offset="1" />
    </linearGradient>
    <linearGradient
       x1="25.560499"
       y1="33.672901"
       x2="25.560499"
       y2="30.6611"
       id="linearGradient2797"
       xlink:href="#rect3507_1_"
       gradientUnits="userSpaceOnUse" />
    <linearGradient
       x1="25.560499"
       y1="33.672901"
       x2="25.560499"
       y2="30.6611"
       id="rect3507_1_"
       gradientUnits="userSpaceOnUse">
      <stop
         id="stop285"
         style="stop-color:#ffffff;stop-opacity:1"
         offset="0.4725" />
      <stop
         id="stop287"
         style="stop-color:#737373;stop-opacity:1"
         offset="1" />
    </linearGradient>
    <linearGradient
       x1="19.2075"
       y1="33.567402"
       x2="19.2075"
       y2="30.7686"
       id="linearGradient2794"
       xlink:href="#rect3509_1_"
       gradientUnits="userSpaceOnUse" />
    <linearGradient
       x1="19.2075"
       y1="33.567402"
       x2="19.2075"
       y2="30.7686"
       id="rect3509_1_"
       gradientUnits="userSpaceOnUse">
      <stop
         id="stop291"
         style="stop-color:#ffffff;stop-opacity:1"
         offset="0.4725" />
      <stop
         id="stop293"
         style="stop-color:#737373;stop-opacity:1"
         offset="1" />
    </linearGradient>
    <linearGradient
       x1="16.0317"
       y1="33.567402"
       x2="16.0317"
       y2="30.7686"
       id="linearGradient2791"
       xlink:href="#rect3503_3_"
       gradientUnits="userSpaceOnUse" />
    <linearGradient
       x1="16.0317"
       y1="33.567402"
       x2="16.0317"
       y2="30.7686"
       id="rect3503_3_"
       gradientUnits="userSpaceOnUse">
      <stop
         id="stop297"
         style="stop-color:#ffffff;stop-opacity:1"
         offset="0.4725" />
      <stop
         id="stop299"
         style="stop-color:#737373;stop-opacity:1"
         offset="1" />
    </linearGradient>
    <linearGradient
       x1="31.916"
       y1="33.672901"
       x2="31.916"
       y2="30.6611"
       id="linearGradient2788"
       xlink:href="#rect3512_1_"
       gradientUnits="userSpaceOnUse" />
    <linearGradient
       x1="31.916"
       y1="33.672901"
       x2="31.916"
       y2="30.6611"
       id="rect3512_1_"
       gradientUnits="userSpaceOnUse">
      <stop
         id="stop303"
         style="stop-color:#ffffff;stop-opacity:1"
         offset="0.4725" />
      <stop
         id="stop305"
         style="stop-color:#737373;stop-opacity:1"
         offset="1" />
    </linearGradient>
    <linearGradient
       x1="9.0010004"
       y1="0.86040002"
       x2="9.0010004"
       y2="16.8594"
       id="linearGradient2752"
       xlink:href="#SVGID_2_"
       gradientUnits="userSpaceOnUse" />
    <linearGradient
       x1="9.0010004"
       y1="0.86040002"
       x2="9.0010004"
       y2="16.8594"
       id="SVGID_2_"
       gradientUnits="userSpaceOnUse">
      <stop
         id="stop312"
         style="stop-color:#ff6363;stop-opacity:1"
         offset="0" />
      <stop
         id="stop314"
         style="stop-color:#cc0000;stop-opacity:1"
         offset="1" />
    </linearGradient>
  </defs>
  <g
     id="layer1">
    <g
       id="g240"
       style="opacity:0.3">
      <path
         d="m 45.003,0 -42,0 c -1.655,0 -3,1.345 -3,3 l 0,42 c 0,1.655 1.345,3 3,3 l 42,0 C 46.655,48 48,46.655 48,45 L 48,3 C 48,1.346 46.655,0 45.003,0 z m 0.999,45.001 c 0,0.553 -0.447,1 -1,1 l -42,0 c -0.552,0 -1,-0.447 -1,-1 L 2.002,3 c 0,-0.552 0.448,-1 1,-1 l 42,0 c 0.553,0 1,0.448 1,1 l 0,42.001 z"
         id="path242" />
    </g>
    <path
       d="m 46.002,45.001 c 0,0.553 -0.447,1 -1,1 l -42,0 c -0.552,0 -1,-0.447 -1,-1 L 2.002,3 c 0,-0.552 0.448,-1 1,-1 l 42,0 c 0.553,0 1,0.448 1,1 l 0,42.001 z"
       id="path252"
       style="opacity:0.3;fill:url(#linearGradient2813)" />
    <g
       id="g257"
       style="opacity:0.4">
      <path
         d="m 45.002,2 -42,0 c -0.552,0 -1,0.448 -1,1 l 0,42.001 c 0,0.553 0.448,1 1,1 l 42,0 c 0.553,0 1,-0.447 1,-1 L 46.002,3 c 0,-0.552 -0.447,-1 -1,-1 z m 0,43.002 -42,0 L 3.003,3 l 41.999,0 0,42.002 z"
         id="path259"
         style="fill:#ffffff" />
    </g>
    <path
       d="m 21.03,13.083 0,1.986 -5.958,0 0,3.973 -3.974,0 0,17.876 27.808,0 0,-17.876 -3.971,0 0,-3.973 -5.961,0 0,-1.986 -7.944,0 0,0 z"
       id="path3499_3_"
       style="opacity:0.4;fill:#ffffff" />
    <path
       d="m 20.03,12.083 0,1.986 -5.958,0 0,3.973 -3.974,0 0,17.876 27.808,0 0,-17.876 -3.971,0 0,-3.973 -5.961,0 0,-1.986 -7.944,0 0,0 z"
       id="path3499_2_"
       style="fill:url(#linearGradient2743)" />
    <rect
       width="1.541"
       height="2.799"
       x="21.615002"
       y="30.768997"
       id="rect3503_4_"
       style="fill:url(#linearGradient2803)" />
    <rect
       width="1.6569999"
       height="3.0120001"
       x="27.91"
       y="30.660999"
       id="rect3505_2_"
       style="fill:url(#linearGradient2800)" />
    <rect
       width="1.655"
       height="3.0120001"
       x="24.732998"
       y="30.660999"
       id="rect3507_2_"
       style="fill:url(#linearGradient2797)" />
    <rect
       width="1.54"
       height="2.799"
       x="18.438"
       y="30.768997"
       id="rect3509_2_"
       style="fill:url(#linearGradient2794)" />
    <rect
       width="1.541"
       height="2.799"
       x="15.260998"
       y="30.768997"
       id="rect3503_1_"
       style="fill:url(#linearGradient2791)" />
    <rect
       width="1.654"
       height="3.0120001"
       x="31.089001"
       y="30.660999"
       id="rect3512_2_"
       style="fill:url(#linearGradient2788)" />
    <path
       d="m 13.932,18.002 c -0.372,0 -0.722,-0.144 -0.979,-0.405 L 9.709,14.355 C 9.514,14.16 9.259,14.063 9.002,14.063 c -0.255,0 -0.512,0.097 -0.707,0.292 l -3.242,3.24 C 4.8,17.85 4.432,18.002 4.068,18.002 3.704,18.002 3.357,17.86 3.09,17.603 L 0.409,14.918 C 0.15,14.666 0,14.302 0,13.932 c 0,-0.36 0.154,-0.726 0.409,-0.98 l 3.24,-3.2419999 c 0.391,-0.39 0.391,-1.023 0,-1.414 l -3.238,-3.24 c -0.536,-0.541 -0.54,-1.426 -0.006,-1.9680001 L 3.083,0.414 C 3.349,0.146 3.698,0 4.068,0 4.444,0 4.794,0.148 5.057,0.416 l 3.238,3.2350001 c 0.195,0.195 0.452,0.294 0.707,0.294 0.257,0 0.512,-0.099 0.707,-0.294 L 12.949,0.414 c 0.252,-0.261 0.614,-0.411 0.982,-0.411 0.366,0 0.726,0.15 0.987,0.411 l 2.672,2.672 c 0.261,0.2520001 0.411,0.6170001 0.411,0.9840001 0,0.362 -0.154,0.728 -0.409,0.983 l -3.24,3.242 c -0.391,0.391 -0.391,1.024 0,1.414 L 17.59,12.949 c 0.265,0.263 0.411,0.612 0.411,0.982 0,0.378 -0.142,0.719 -0.409,0.985 l -2.672,2.676 c -0.267,0.268 -0.608,0.41 -0.988,0.41 l 0,0 z"
       id="path309" />
    <path
       d="m 12.233,8.8600001 4.652,-4.653 c 0.073,-0.073 0.115,-0.175 0.115,-0.278 0,-0.103 -0.042,-0.205 -0.115,-0.279 L 14.21,0.976 C 14.137,0.902 14.035,0.861 13.932,0.861 c -0.104,0 -0.206,0.041 -0.278,0.115 L 9.001,5.6280001 4.348,0.976 C 4.195,0.822 3.946,0.822 3.791,0.976 L 1.117,3.6490001 c -0.154,0.154 -0.154,0.404 0,0.558 l 4.653,4.653 L 1.117,13.512 c -0.073,0.073 -0.115,0.175 -0.115,0.278 0,0.103 0.042,0.205 0.115,0.278 l 2.675,2.675 c 0.073,0.073 0.175,0.115 0.278,0.115 0.104,0 0.206,-0.042 0.278,-0.115 l 4.653,-4.652 4.653,4.652 c 0.074,0.074 0.173,0.115 0.278,0.115 0.105,0 0.204,-0.041 0.278,-0.115 l 2.675,-2.675 C 16.959,13.994 17,13.895 17,13.79 17,13.685 16.959,13.586 16.885,13.512 L 12.233,8.8600001 z"
       id="path316"
       style="fill:url(#linearGradient2752)" />
    <g
       id="g320"
       style="opacity:0.4">
      <path
         d="M 6.457,9.235 1.805,4.582 C 1.651,4.429 1.651,4.179 1.805,4.024 L 4.479,1.35 C 4.523,1.306 4.577,1.278 4.632,1.259 L 4.348,0.976 C 4.195,0.822 3.946,0.822 3.791,0.976 L 1.117,3.65 c -0.154,0.154 -0.154,0.404 0,0.557 L 5.77,8.86 1.117,13.513 c -0.073,0.073 -0.115,0.175 -0.115,0.278 0,0.103 0.042,0.205 0.115,0.278 l 2.675,2.675 c 0.073,0.073 0.175,0.115 0.278,0.115 0.043,0 0.084,-0.011 0.125,-0.025 l -2.39,-2.39 C 1.732,14.371 1.69,14.269 1.69,14.166 c 0,-0.103 0.042,-0.205 0.115,-0.278 L 6.457,9.235 z M 14.211,0.976 C 14.138,0.902 14.036,0.861 13.933,0.861 c -0.104,0 -0.206,0.042 -0.278,0.115 L 9.157,5.472 9.688,6.003 14.341,1.351 C 14.383,1.308 14.437,1.28 14.494,1.26 L 14.211,0.976 z m -4.679,11.647 4.122,4.121 c 0.074,0.074 0.173,0.115 0.278,0.115 0.043,0 0.085,-0.011 0.125,-0.024 L 9.688,12.467 9.532,12.623 z"
         id="path322"
         style="fill:#ffffff" />
    </g>
  </g>
</svg>
