<?xml version="1.0" encoding="UTF-8" standalone="no"?>
<!-- Created with Inkscape (http://www.inkscape.org/) -->

<svg
   xmlns:svg="http://www.w3.org/2000/svg"
   xmlns="http://www.w3.org/2000/svg"
   xmlns:xlink="http://www.w3.org/1999/xlink"
   version="1.1"
   width="48"
   height="48"
   id="svg8497">
  <defs
     id="defs8499">
    <linearGradient
       x1="38.306515"
       y1="15.233056"
       x2="12.151486"
       y2="15.182944"
       id="SVGID_3_"
       gradientUnits="userSpaceOnUse"
       gradientTransform="matrix(1.0337083,0,0,0.9884476,-49.646442,9.0091886)">
      <stop
         id="stop274"
         style="stop-color:#ff6363;stop-opacity:1"
         offset="0" />
      <stop
         id="stop276"
         style="stop-color:#cc0000;stop-opacity:1"
         offset="1" />
    </linearGradient>
    <linearGradient
       x1="12.222552"
       y1="15.212818"
       x2="7.1934476"
       y2="15.203182"
       id="SVGID_2_"
       xlink:href="#linearGradient3315"
       gradientUnits="userSpaceOnUse"
       gradientTransform="matrix(-0.001899,-0.79969062,0.99114485,-0.00153218,9.0344819,46.798015)">
      <stop
         id="stop265"
         style="stop-color:#ff6363;stop-opacity:1"
         offset="0" />
      <stop
         id="stop267"
         style="stop-color:#cc0000;stop-opacity:1"
         offset="1" />
    </linearGradient>
    <linearGradient
       id="linearGradient3315">
      <stop
         id="stop3317"
         style="stop-color:#ffffff;stop-opacity:1"
         offset="0" />
      <stop
         id="stop3319"
         style="stop-color:#ffffff;stop-opacity:0"
         offset="1" />
    </linearGradient>
    <linearGradient
       x1="2.5845931"
       y1="15.187757"
       x2="46.006142"
       y2="15.270951"
       id="SVGID_1_"
       gradientUnits="userSpaceOnUse"
       gradientTransform="matrix(-0.00191596,-0.9999982,0.9999982,-0.00191596,8.8190092,39.254128)">
      <stop
         id="stop248"
         style="stop-color:#9b9b9b;stop-opacity:1"
         offset="0" />
      <stop
         id="stop250"
         style="stop-color:#ececec;stop-opacity:1"
         offset="1" />
    </linearGradient>
  </defs>
  <g
     id="layer1">
    <g
       transform="matrix(-0.00191596,-0.99999822,0.99999822,-0.00191596,8.8188108,48.028574)"
       id="Layer_2">
      <g
         id="g238"
         style="opacity:0.3">
        <g
           id="g240">
          <path
             d="m 38.274,4.975 -31.423,0 c -0.541,0 -0.979,0.438 -0.979,0.979 l 0,18.733 c 0,0.54 0.439,0.979 0.979,0.979 l 31.424,0 c 0.54,0 0.979,-0.439 0.979,-0.979 l 0,-18.733 c 0,-0.541 -0.44,-0.979 -0.98,-0.979 z m -1.018,18.692 -29.386,0 0,-16.694 29.386,0 0,16.694 z m 7.833,-15.237 0,-4.473 C 45.089,1.774 43.312,0 41.13,0 L 3.957,0 C 1.774,0 0,1.774 0,3.957 l 0,22.538 c 0,2.183 1.774,3.957 3.957,3.957 l 37.173,0 c 2.183,0 3.959,-1.774 3.959,-3.957 l 0,-4.519 c 1.609,-0.039 2.909,-1.357 2.909,-2.977 l 0,-7.591 c 0,-1.618 -1.3,-2.939 -2.909,-2.978 z m 0.91,10.569 c 0,0.541 -0.438,0.979 -0.979,0.979 l -1.93,0 0,6.518 c 0,1.082 -0.877,1.958 -1.959,1.958 l -37.173,0 C 2.876,28.454 2,27.578 2,26.496 L 2,3.958 C 2,2.876 2.877,1.999 3.958,1.999 l 37.173,0 c 1.082,0 1.959,0.877 1.959,1.959 l 0,6.471 1.93,0 c 0.541,0 0.979,0.438 0.979,0.979 l 0,7.591 z"
             id="path242" />
        </g>
      </g>
    </g>
    <g
       transform="translate(-1.9857712e-4,8.7744455)"
       id="Layer_1">
      <g
         id="g245">
        <linearGradient
           x1="2.5845931"
           y1="15.187757"
           x2="46.006142"
           y2="15.270951"
           id="linearGradient8480"
           gradientUnits="userSpaceOnUse"
           gradientTransform="matrix(-0.00191596,-0.9999982,0.9999982,-0.00191596,8.8190092,39.254128)">
          <stop
             id="stop8482"
             style="stop-color:#9b9b9b;stop-opacity:1"
             offset="0" />
          <stop
             id="stop8484"
             style="stop-color:#ececec;stop-opacity:1"
             offset="1" />
        </linearGradient>
        <path
           d="m 28.709716,-5.8040642 0.0037,1.9299965 6.517988,-0.012488 c 1.081998,-0.00207 1.959676,0.873247 1.961749,1.955245 l 0.07122,37.1729317 c 0.0021,1.081998 -0.872247,1.959675 -1.954245,1.961748 l -22.536959,0.04318 c -1.081998,0.0021 -1.960677,-0.873245 -1.962748,-1.954243 L 10.7392,-1.8806261 c -0.0021,-1.081998 0.873245,-1.9606767 1.955243,-1.9627498 l 6.470988,-0.012398 -0.0037,-1.9299964 c -0.001,-0.540999 0.436124,-0.9798374 0.977123,-0.980874 l 7.589986,-0.014542 c 0.541999,-0.00104 0.979837,0.4361234 0.980874,0.9771224 z m -14.011927,5.79285702 c -0.540999,0.0010365 -0.978157,0.44087492 -0.977122,0.98087393 l 0.06021,31.42394225 c 10e-4,0.540999 0.439875,0.978159 0.980874,0.977123 l 18.732965,-0.03589 c 0.539999,-0.001 0.978157,-0.440875 0.977123,-0.980874 L 34.411629,0.93002354 c -10e-4,-0.53999901 -0.440875,-0.97815709 -0.980874,-0.97712247 l -18.732966,0.03589175 z"
           id="path252"
           style="fill:url(#SVGID_1_)" />
      </g>
    </g>
    <g
       transform="matrix(-0.00191596,-0.99999822,0.99999822,-0.00191596,8.8188108,48.028574)"
       id="Layer_7">
      <g
         id="g255"
         style="opacity:0.15">
        <g
           id="g257">
          <path
             d="m 38.274,3.975 -31.424,0 c -1.091,0 -1.979,0.887 -1.979,1.978 l 0,18.735 c 0,1.091 0.889,1.979 1.979,1.979 l 31.424,0 c 1.091,0 1.979,-0.889 1.979,-1.979 l 0,-18.735 C 40.254,4.862 39.365,3.975 38.274,3.975 z m 0.98,20.712 c 0,0.54 -0.439,0.979 -0.979,0.979 l -31.424,0 c -0.541,0 -0.979,-0.439 -0.979,-0.979 l 0,-18.733 c 0,-0.541 0.439,-0.979 0.979,-0.979 l 31.424,0 c 0.54,0 0.979,0.438 0.979,0.979 l 0,18.733 z m 5.766,-14.258 -1.93,0 0,-6.471 c 0,-1.082 -0.877,-1.959 -1.959,-1.959 l -37.173,0 C 2.876,1.999 2,2.876 2,3.958 l 0,22.537 c 0,1.082 0.877,1.958 1.958,1.958 l 37.173,0 c 1.082,0 1.959,-0.876 1.959,-1.958 l 0,-6.518 1.93,0 c 0.541,0 0.979,-0.438 0.979,-0.979 l 0,-7.59 c 0,-0.541 -0.438,-0.979 -0.979,-0.979 z m -0.021,8.57 -1.909,-0.021 c -0.553,0 -1,0.447 -1,1 l 0,6.517 c 0,0.527 -0.432,0.959 -0.959,0.959 l -37.174,0 C 3.429,27.454 3,27.022 3,26.495 L 3,3.958 C 3,3.431 3.429,3 3.957,3 l 37.174,0 c 0.527,0 0.959,0.431 0.959,0.959 l 0,6.471 c 0,0.553 0.447,1 1,1 l 1.931,0 -0.022,7.569 z"
             id="path259"
             style="fill:#ffffff" />
        </g>
      </g>
      <g
         id="g3341"
         style="opacity:0.3">
        <g
           id="g3343">
          <path
             d="M 44.90365,19.918546 C 45.00259,19.545131 45.034631,19.10456 44.999,18.999 l 0.022,-7.569 -1.931,0 c -0.553,0 -1,-0.447 -1,-1 l 0,-6.471 C 42.09,3.431 41.658,3 41.131,3 L 3.957,3 C 3.3244859,3.1058583 2.7506487,2.9789058 2.0594578,3.317575 2.4665142,2.5275089 2.876,1.999 3.958,1.999 l 37.173,0 c 1.082,0 1.959,0.877 1.959,1.959 l 0,6.471 1.93,0 c 0.541,0 0.979,0.438 0.979,0.979 l 0,7.59 c 0,0.541 -0.330259,0.938571 -1.09535,0.920546 z m -2.797696,0.28784 1,-10e-4 L 43.09,26.495 c -0.114031,0.768379 -0.407081,1.757742 -1.465552,1.882254 C 42.033867,27.436267 42.09,26.495 42.09,26.495 l 0.01595,-6.288614 z m -5.83095,5.455782 c 0.716894,0.0235 1.20085,0.05534 1.993742,-0.01109 -0.406721,0.623374 -1.135931,0.604121 -1.994009,0.604567 L 6.8507333,26.25948 C 5.9937673,26.201696 5.3860347,25.882205 5.2115387,24.688653 L 5.2077068,7.9536486 C 5.2394333,6.9209402 5.2010601,6.1242838 5.9082675,5.7159328 5.8273225,6.3848665 5.8447845,7.2936601 5.8681681,7.9539962 L 5.872,24.687 c 0,0.54 0.438,0.979 0.979,0.979 l 29.424004,-0.0038 z"
             id="path3345"
             style="fill:#ffffff" />
        </g>
      </g>
    </g>
    <path
       d="m 15.009285,41.022189 -0.0095,-3.993654 18.169667,-0.02811 0.0095,3.993656 -18.169667,0.02809 z"
       id="path269"
       style="fill:url(#SVGID_2_);fill-opacity:1" />
    <polygon
       points="12.205,6.042 7.211,6.042 7.211,24.375 8.211,24.375 8.211,7.016 8.211,7.016 12.205,7.016 "
       transform="matrix(-0.00189601,0.80656744,0.98958778,0.00154535,9.0724217,31.146619)"
       id="polygon271"
       style="opacity:0.25;fill:#ffffff" />
    <rect
       width="27.00046"
       height="18.120224"
       x="-37.067245"
       y="14.981388"
       transform="matrix(-0.00183207,-0.99999832,0.99999799,-0.0020037,0,0)"
       id="rect278"
       style="opacity:0.3;fill:url(#SVGID_3_)" />
  </g>
</svg>
