<?xml version="1.0" encoding="UTF-8" standalone="no"?>
<!-- Created with Inkscape (http://www.inkscape.org/) -->

<svg
   xmlns:svg="http://www.w3.org/2000/svg"
   xmlns="http://www.w3.org/2000/svg"
   xmlns:xlink="http://www.w3.org/1999/xlink"
   version="1.1"
   width="48"
   height="48"
   id="svg5979">
  <defs
     id="defs5981">
    <linearGradient
       x1="287.02151"
       y1="769.85553"
       x2="287.02151"
       y2="741.88959"
       id="linearGradient6502"
       xlink:href="#SVGID_10_"
       gradientUnits="userSpaceOnUse"
       gradientTransform="translate(-263.03125,-731.85979)" />
    <linearGradient
       x1="287.02151"
       y1="769.85553"
       x2="287.02151"
       y2="741.88959"
       id="SVGID_10_"
       gradientUnits="userSpaceOnUse">
      <stop
         id="stop1533"
         style="stop-color:#9b9b9b;stop-opacity:1"
         offset="0" />
      <stop
         id="stop1535"
         style="stop-color:#ececec;stop-opacity:1"
         offset="1" />
    </linearGradient>
    <linearGradient
       x1="287.02151"
       y1="769.85553"
       x2="287.02151"
       y2="741.88959"
       id="linearGradient6474"
       xlink:href="#SVGID_10_"
       gradientUnits="userSpaceOnUse" />
    <linearGradient
       x1="287.02151"
       y1="769.85553"
       x2="287.02151"
       y2="741.88959"
       id="linearGradient6476"
       xlink:href="#SVGID_10_"
       gradientUnits="userSpaceOnUse" />
    <linearGradient
       x1="287.02151"
       y1="769.85553"
       x2="287.02151"
       y2="741.88959"
       id="linearGradient6478"
       xlink:href="#SVGID_10_"
       gradientUnits="userSpaceOnUse" />
    <linearGradient
       x1="287.02151"
       y1="769.85553"
       x2="287.02151"
       y2="741.88959"
       id="linearGradient6480"
       xlink:href="#SVGID_10_"
       gradientUnits="userSpaceOnUse" />
    <linearGradient
       x1="287.02151"
       y1="769.85553"
       x2="287.02151"
       y2="741.88959"
       id="linearGradient6482"
       xlink:href="#SVGID_10_"
       gradientUnits="userSpaceOnUse" />
  </defs>
  <g
     id="layer1">
    <path
       d="m 23.75,8.01525 c -0.54502,0 -1.07466,0.01302 -1.625,0.03125 -0.01042,-10e-5 -0.02083,-8e-5 -0.03125,0 -0.52768,0.02516 -1.01575,0.1731 -1.5,0.53125 C 20.1095,8.93588 19.56482,9.6719 19.625,10.609 c 0.08795,1.40674 0.16209,2.81287 0.25,4.21875 C 19.60401,13.44464 19.33331,12.05458 19.0625,10.6715 18.88222,9.74852 18.18463,9.17603 17.625,8.95275 17.06537,8.72945 16.51767,8.71761 16,8.82775 c -8e-5,0.0104 -8e-5,0.02083 0,0.03125 C 14.91705,9.10389 13.84457,9.35521 12.78125,9.6715 12.77072,9.68178 12.7603,9.69222 12.75,9.70275 12.24987,9.8607 11.78527,10.11084 11.40625,10.57775 11.02723,11.04464 10.70253,11.89979 11,12.7965 c 0.48526,1.46924 0.9524,2.93863 1.4375,4.40625 -0.67608,-1.39142 -1.35446,-2.79481 -2.03125,-4.1875 C 9.98676,12.1587 9.15967,11.80065 8.5625,11.734 7.96533,11.66733 7.43789,11.80811 6.96875,12.0465 5.96042,12.57462 4.96967,13.13888 4,13.734 3.98947,13.74428 3.97905,13.75472 3.96875,13.76525 3.52944,14.04466 3.15758,14.37881 2.90625,14.9215 2.65492,15.46417 2.53077,16.39186 3.0625,17.20275 4.95445,20.08268 6.85794,22.97891 8.75,25.859 c 0.24704,0.36709 0.64144,0.48481 1,0.65625 l -1.59375,0 c -0.68487,-1.7e-4 -1.2987,0.25482 -1.75,0.75 -8e-5,0.0104 -8e-5,0.02083 0,0.03125 L 0.59375001,33.76525 C 0.20493001,34.19809 0,34.72311 0,35.32775 -1.9994169e-5,35.58036 0.05141001,35.8963 0.15625001,36.1715 l 0.8125,2.25 C 1.3103,39.35748 2.18562,39.984 3.1875,39.984 l 41.59375,0 c 1.00201,10e-5 1.90844,-0.6087 2.25,-1.5625 l 0.8125,-2.28125 C 47.93473,35.88572 48,35.58016 48,35.32775 c 2e-5,-0.57635 -0.22086,-1.1415 -0.59375,-1.5625 -0.01042,-1e-4 -0.02083,-8e-5 -0.03125,0 L 41.59375,27.2965 C 41.13174,26.78231 40.49712,26.51525 39.8125,26.51525 l -2.03125,0 c 0.3728,-0.1749 0.77868,-0.27108 1.03125,-0.65625 1.89218,-2.8803 3.76537,-5.77743 5.65625,-8.65625 0.53283,-0.81243 0.40698,-1.73873 0.15625,-2.28125 -0.25073,-0.54254 -0.62178,-0.90718 -1.0625,-1.1875 -0.01042,-10e-5 -0.02083,-8e-5 -0.03125,0 -0.96841,-0.59399 -1.92917,-1.15938 -2.9375,-1.6875 -0.01042,-10e-5 -0.02083,-8e-5 -0.03125,0 C 40.09257,11.80771 39.59693,11.66743 39,11.734 c -0.59693,0.06655 -1.45616,0.41712 -1.875,1.28125 -0.67776,1.39464 -1.35399,2.7935 -2.03125,4.1875 0.48561,-1.46967 0.98268,-2.93681 1.46875,-4.40625 0.29343,-0.89763 -0.05881,-1.75238 -0.4375,-2.21875 -0.37869,-0.46639 -0.83972,-0.71739 -1.34375,-0.875 -0.01042,-10e-5 -0.02083,-8e-5 -0.03125,0 C 33.68614,9.38598 32.643,9.10443 31.5625,8.859 31.5522,8.84845 31.54178,8.83805 31.53125,8.82775 31.01364,8.71763 30.49641,8.73 29.9375,8.95275 c -0.55891,0.22273 -1.28493,0.79966 -1.46875,1.71875 -0.26817,1.37208 -0.51257,2.75305 -0.78125,4.125 l 0.25,-4.1875 C 27.9977,9.67187 27.45299,8.93589 26.96875,8.57775 26.48451,8.21959 25.96512,8.0717 25.4375,8.0465 c -0.01042,-10e-5 -0.02083,-8e-5 -0.03125,0 C 24.85542,8.02826 24.29502,8.01525 23.75,8.01525 z m 0.03125,2 c 0.52637,0 1.0335,0.01375 1.5625,0.03125 0.335,0.01602 0.60775,0.2195 0.59375,0.4375 l -0.65625,10.3125 c -0.01401,0.218 -0.2095,0.385 -0.4375,0.375 -0.71999,-0.03298 -1.43625,-0.033 -2.15625,0 -0.22898,0.01002 -0.4235,-0.157 -0.4375,-0.375 -0.215,-3.439 -0.44025,-6.8735 -0.65625,-10.3125 -0.01301,-0.21802 0.25875,-0.4215 0.59375,-0.4375 0.5285,-0.01749 1.06738,-0.03125 1.59375,-0.03125 z m -7.125,0.75 c 0.22584,0.01486 0.406,0.15125 0.4375,0.3125 0.66199,3.381 1.338,6.743 2,10.125 0.04199,0.21402 -0.11875,0.42075 -0.34375,0.46875 -0.70899,0.15098 -1.40075,0.3465 -2.09375,0.5625 -0.22,0.06901 -0.46225,-0.042 -0.53125,-0.25 -1.08099,-3.271 -2.169,-6.5415 -3.25,-9.8125 -0.06801,-0.21001 0.14575,-0.4615 0.46875,-0.5625 1.021,-0.30397 2.05375,-0.5765 3.09375,-0.8125 0.0825,-0.01751 0.14347,-0.0362 0.21875,-0.03125 z m 14.21875,0 c 0.07525,-0.005 0.16775,0.01375 0.25,0.03125 1.03899,0.23497 2.0415,0.5085 3.0625,0.8125 0.32299,0.10203 0.53675,0.3545 0.46875,0.5625 -1.082,3.271 -2.169,6.5415 -3.25,9.8125 -0.06899,0.20801 -0.31125,0.319 -0.53125,0.25 -0.69201,-0.21597 -1.38575,-0.4105 -2.09375,-0.5625 -0.225,-0.04801 -0.38575,-0.25475 -0.34375,-0.46875 0.66099,-3.38002 1.339,-6.743 2,-10.125 0.03225,-0.16125 0.21175,-0.29764 0.4375,-0.3125 z M 8.125,13.734 c 0.22598,-0.04566 0.428,0.0092 0.5,0.15625 1.50599,3.09902 2.994,6.2135 4.5,9.3125 0.09599,0.19602 0.0215,0.42425 -0.1875,0.53125 -0.66301,0.33697 -1.3085,0.727 -1.9375,1.125 -0.20301,0.12701 -0.47375,0.058 -0.59375,-0.125 -1.89199,-2.87997 -3.7965,-5.746 -5.6875,-8.625 -0.12001,-0.18299 0.0185,-0.46925 0.3125,-0.65625 0.932,-0.57202 1.87575,-1.118 2.84375,-1.625 0.07675,-0.039 0.17467,-0.07853 0.25,-0.09375 z m 31.09375,0 c 0.13225,-0.01475 0.2845,0.01575 0.4375,0.09375 0.96799,0.50702 1.91275,1.054 2.84375,1.625 0.29499,0.18698 0.4335,0.47325 0.3125,0.65625 -1.891,2.87897 -3.7955,5.77625 -5.6875,8.65625 -0.11999,0.18299 -0.3615,0.22075 -0.5625,0.09375 -0.629,-0.39703 -1.2745,-0.788 -1.9375,-1.125 -0.209,-0.106 -0.31475,-0.33425 -0.21875,-0.53125 1.506,-3.09798 3.02525,-6.2145 4.53125,-9.3125 0.048,-0.09801 0.149,-0.1415 0.28125,-0.15625 z M 20.8125,22.01525 c 0.47053,0.68218 1.13892,1.19265 1.96875,1.15625 0.65904,-0.03024 1.30967,-0.03021 1.96875,0 0.82898,0.03611 1.52883,-0.47012 2,-1.15625 0.28183,0.78273 0.80839,1.45001 1.625,1.625 0.64864,0.1381 1.27364,0.30254 1.90625,0.5 0.81392,0.25415 1.64507,-0.10444 2.28125,-0.6875 0.05071,0.86457 0.39828,1.67807 1.15625,2.0625 0.5871,0.2984 1.13247,0.65083 1.6875,1 l -23.28125,0 c 0.55991,-0.35102 1.13349,-0.70252 1.71875,-1 0.7594,-0.38518 1.10926,-1.19396 1.15625,-2.0625 0.63559,0.57956 1.43489,0.94315 2.25,0.6875 0.63256,-0.19717 1.28528,-0.36017 1.9375,-0.5 0.81731,-0.17447 1.34452,-0.83788 1.625,-1.625 z M 5.09375,34.70275 c 0.35901,0.27234 0.79947,0.41551 1.25,0.40625 L 30.75,35.14025 c 0.18951,0.0059 0.37891,-0.01511 0.5625,-0.0625 0.01042,6e-5 0.02083,8e-5 0.03125,0 0.15448,0.02877 0.31181,0.03928 0.46875,0.03125 l 9.90625,0.03125 c 0.42917,-0.0045 0.8455,-0.14694 1.1875,-0.40625 l 0.84375,0.96875 -0.09375,0.28125 -39.3125,0 -0.125,-0.3125 0.875,-0.96875 z"
       id="path6335"
       style="opacity:0.3;fill:#000000;fill-opacity:1;stroke:none" />
    <path
       d="m 8.15625,28.51525 c -0.10601,2e-5 -0.20925,0.046 -0.28125,0.125 l -5.78125,6.4375 C 2.03175,35.14674 2,35.23375 2,35.32775 2,35.37278 1.984,35.442 2,35.484 l 0.84375,2.25 c 0.05401,0.14798 0.18575,0.25 0.34375,0.25 l 41.59375,0 c 0.15799,0 0.29075,-0.102 0.34375,-0.25 l 0.84375,-2.25 C 45.98376,35.442 46,35.37275 46,35.32775 c 0,-0.09397 -0.03175,-0.18 -0.09375,-0.25 l -5.8125,-6.4375 c -0.07101,-0.07898 -0.17525,-0.125 -0.28125,-0.125 l -31.65625,0 z M 9,29.95275 l 20.375,0 1.375,3.1875 L 6.34375,33.109 9,29.95275 z m 21.3125,0 8.625,0 2.78125,3.1875 -9.90625,-0.03125 -1.5,-3.15625 z"
       id="path6337"
       style="fill:url(#linearGradient6502)" />
    <g
       transform="translate(-263.03125,-731.85972)"
       id="g6339"
       style="opacity:0.8">
      <g
         id="g6341">
        <path
           d="m 279.163,753.841 c 0.069,0.208 0.303,0.317 0.523,0.248 0.693,-0.216 1.396,-0.399 2.105,-0.551 0.225,-0.048 0.373,-0.258 0.331,-0.472 -0.662,-3.382 -1.325,-6.763 -1.987,-10.144 -0.042,-0.215 -0.344,-0.337 -0.673,-0.267 -1.039,0.235 -2.061,0.503 -3.083,0.807 -0.323,0.102 -0.528,0.356 -0.459,0.564 1.081,3.273 2.163,6.543 3.243,9.815 z"
           id="path6343"
           style="fill:url(#linearGradient6474)" />
        <path
           d="m 279.473,742.635 c -1.039,0.235 -2.061,0.504 -3.083,0.808 -0.323,0.101 -0.528,0.356 -0.459,0.563 1.082,3.271 2.163,6.541 3.243,9.813 0.061,0.184 0.251,0.282 0.447,0.257 -1.063,-3.218 -2.126,-6.436 -3.19,-9.654 -0.068,-0.207 0.136,-0.463 0.459,-0.562 1.021,-0.305 2.043,-0.572 3.083,-0.807 0.069,-0.016 0.135,-0.018 0.2,-0.016 -0.009,-0.045 -0.018,-0.09 -0.026,-0.135 -0.043,-0.216 -0.344,-0.338 -0.674,-0.267 z"
           id="path6345"
           style="opacity:0.4;fill:#ffffff" />
      </g>
      <g
         id="g6347">
        <path
           d="m 273.438,756.609 c 0.12,0.183 0.379,0.225 0.58,0.098 0.629,-0.397 1.276,-0.766 1.939,-1.103 0.209,-0.106 0.303,-0.349 0.207,-0.545 -1.505,-3.099 -3.011,-6.198 -4.517,-9.297 -0.096,-0.196 -0.423,-0.235 -0.73,-0.079 -0.968,0.507 -1.909,1.042 -2.841,1.614 -0.294,0.187 -0.433,0.49 -0.313,0.673 1.892,2.88 3.783,5.759 5.675,8.639 z"
           id="path6349"
           style="fill:url(#linearGradient6476)" />
        <path
           d="m 268.587,747.693 c 0.932,-0.572 1.873,-1.107 2.841,-1.615 0.12,-0.061 0.24,-0.084 0.352,-0.087 -0.041,-0.083 -0.081,-0.166 -0.122,-0.25 -0.096,-0.197 -0.423,-0.235 -0.73,-0.08 -0.968,0.508 -1.909,1.043 -2.841,1.615 -0.294,0.186 -0.433,0.489 -0.313,0.673 1.892,2.879 3.783,5.759 5.674,8.64 0.074,0.111 0.201,0.163 0.333,0.163 -1.836,-2.795 -3.672,-5.59 -5.508,-8.385 -0.119,-0.183 0.019,-0.488 0.314,-0.674 z"
           id="path6351"
           style="opacity:0.4;fill:#ffffff" />
      </g>
      <g
         id="g6353">
        <path
           d="m 285.722,753.033 c 0.72,-0.033 1.44,-0.033 2.16,0 0.229,0.01 0.425,-0.155 0.438,-0.373 l 0.645,-10.316 c 0.014,-0.218 -0.246,-0.412 -0.581,-0.428 -1.058,-0.035 -2.106,-0.035 -3.163,0 -0.335,0.016 -0.595,0.21 -0.581,0.428 0.215,3.439 0.43,6.877 0.645,10.316 0.013,0.218 0.209,0.383 0.437,0.373 z"
           id="path6355"
           style="fill:url(#linearGradient6478)" />
        <path
           d="m 288.395,741.895 c -1.058,-0.035 -2.106,-0.035 -3.163,0 -0.335,0.015 -0.595,0.209 -0.581,0.428 0.215,3.438 0.43,6.877 0.645,10.314 0.014,0.219 0.209,0.383 0.438,0.373 0.02,0 0.04,0.002 0.059,0 -0.214,-3.424 -0.427,-6.848 -0.642,-10.271 -0.014,-0.218 0.246,-0.413 0.581,-0.429 1.057,-0.034 2.105,-0.034 3.163,0 0.029,0.002 0.054,0.012 0.081,0.016 l 0,-0.003 c 0.013,-0.219 -0.247,-0.413 -0.581,-0.428 z"
           id="path6357"
           style="opacity:0.4;fill:#ffffff" />
      </g>
      <g
         id="g6359">
        <path
           d="m 297.647,755.604 c 0.663,0.337 1.311,0.705 1.939,1.103 0.201,0.127 0.46,0.085 0.58,-0.098 1.892,-2.88 3.783,-5.76 5.674,-8.639 0.12,-0.183 -0.019,-0.487 -0.313,-0.674 -0.931,-0.571 -1.872,-1.106 -2.84,-1.613 -0.307,-0.156 -0.635,-0.117 -0.73,0.079 -1.506,3.099 -3.011,6.198 -4.517,9.296 -0.095,0.198 -0.002,0.44 0.207,0.546 z"
           id="path6361"
           style="fill:url(#linearGradient6480)" />
        <path
           d="m 305.538,747.276 c -0.932,-0.572 -1.873,-1.107 -2.84,-1.614 -0.308,-0.156 -0.636,-0.117 -0.73,0.08 -1.506,3.1 -3.012,6.197 -4.518,9.296 -0.096,0.197 -0.002,0.438 0.207,0.545 0.097,0.048 0.186,0.109 0.278,0.159 -0.03,-0.094 -0.03,-0.195 0.015,-0.287 1.506,-3.1 3.012,-6.197 4.518,-9.296 0.096,-0.197 0.424,-0.235 0.73,-0.08 0.894,0.468 1.76,0.968 2.621,1.49 -0.059,-0.107 -0.152,-0.212 -0.281,-0.293 z"
           id="path6363"
           style="opacity:0.4;fill:#ffffff" />
      </g>
      <g
         id="g6365">
        <path
           d="m 291.813,753.538 c 0.709,0.151 1.412,0.335 2.104,0.551 0.221,0.069 0.454,-0.04 0.523,-0.248 1.081,-3.271 2.161,-6.542 3.243,-9.813 0.068,-0.208 -0.137,-0.463 -0.46,-0.564 -1.021,-0.304 -2.043,-0.571 -3.082,-0.807 -0.329,-0.07 -0.631,0.052 -0.674,0.267 -0.661,3.382 -1.324,6.762 -1.986,10.144 -0.041,0.212 0.108,0.422 0.332,0.47 z"
           id="path6367"
           style="fill:url(#linearGradient6482)" />
        <path
           d="m 297.235,743.442 c -1.021,-0.304 -2.043,-0.572 -3.082,-0.808 -0.328,-0.07 -0.631,0.053 -0.674,0.268 -0.66,3.381 -1.324,6.762 -1.986,10.143 -0.041,0.215 0.106,0.424 0.332,0.473 0.058,0.012 0.112,0.031 0.17,0.043 -0.002,-0.032 -0.008,-0.064 -0.002,-0.1 0.662,-3.381 1.326,-6.762 1.986,-10.143 0.043,-0.215 0.346,-0.338 0.674,-0.268 1.026,0.232 2.035,0.498 3.045,0.797 -0.041,-0.163 -0.217,-0.329 -0.463,-0.405 z"
           id="path6369"
           style="opacity:0.4;fill:#ffffff" />
      </g>
    </g>
    <path
       d="m 29.55375,30.34229 1.195,2.79 -23.546,-0.035 -0.348,0.416 24.395,0.036 -1.375,-3.207 -0.321,0 z m 9.906,0 -0.139,0 2.416,2.787 -9.607,-0.032 0.195,0.416 9.912,0.033 -2.777,-3.204 z m -36.958,5.395 c 0,-0.095 0.036,-0.186 0.098,-0.254 l 5.798,-6.461 c 0.071,-0.078 0.174,-0.125 0.281,-0.125 l 31.647,0 c 0.018,0 0.034,0.01 0.053,0.012 l -0.271,-0.303 c -0.07,-0.08 -0.175,-0.125 -0.281,-0.125 l -31.648,0 c -0.106,0 -0.209,0.045 -0.281,0.125 l -5.798,6.459 c -0.062,0.069 -0.097,0.16 -0.097,0.254 0,0.045 0.007,0.088 0.023,0.129 l 0.829,2.278 c 0.054,0.148 0.196,0.248 0.354,0.248 l 0.084,0 -0.767,-2.108 c -0.017,-0.043 -0.024,-0.086 -0.024,-0.129 z"
       id="path6371"
       style="opacity:0.4;fill:#ffffff" />
  </g>
</svg>
