<?xml version="1.0" encoding="UTF-8" standalone="no"?>
<!-- Created with Inkscape (http://www.inkscape.org/) -->

<svg
   xmlns:svg="http://www.w3.org/2000/svg"
   xmlns="http://www.w3.org/2000/svg"
   xmlns:xlink="http://www.w3.org/1999/xlink"
   version="1.1"
   width="48"
   height="48"
   id="svg7717">
  <defs
     id="defs7719">
    <linearGradient
       x1="23.999001"
       y1="46"
       x2="23.999001"
       y2="2.0005"
       id="linearGradient2649"
       xlink:href="#SVGID_1_"
       gradientUnits="userSpaceOnUse" />
    <linearGradient
       x1="23.999001"
       y1="46"
       x2="23.999001"
       y2="2.0005"
       id="SVGID_1_"
       gradientUnits="userSpaceOnUse">
      <stop
         id="stop248"
         style="stop-color:#9b9b9b;stop-opacity:1"
         offset="0" />
      <stop
         id="stop250"
         style="stop-color:#ececec;stop-opacity:1"
         offset="1" />
    </linearGradient>
    <linearGradient
       x1="23.999001"
       y1="46"
       x2="23.999001"
       y2="2.0005"
       id="linearGradient7701"
       xlink:href="#SVGID_1_"
       gradientUnits="userSpaceOnUse" />
    <linearGradient
       x1="23.999001"
       y1="46"
       x2="23.999001"
       y2="2.0005"
       id="linearGradient7703"
       xlink:href="#SVGID_1_"
       gradientUnits="userSpaceOnUse" />
    <linearGradient
       x1="23.999001"
       y1="46"
       x2="23.999001"
       y2="2.0005"
       id="linearGradient7705"
       xlink:href="#SVGID_1_"
       gradientUnits="userSpaceOnUse" />
    <linearGradient
       x1="23.999001"
       y1="46"
       x2="23.999001"
       y2="2.0005"
       id="linearGradient7707"
       xlink:href="#SVGID_1_"
       gradientUnits="userSpaceOnUse" />
    <linearGradient
       x1="23.999001"
       y1="46"
       x2="23.999001"
       y2="2.0005"
       id="linearGradient7709"
       xlink:href="#SVGID_1_"
       gradientUnits="userSpaceOnUse" />
    <linearGradient
       x1="23.999001"
       y1="46"
       x2="23.999001"
       y2="2.0005"
       id="linearGradient7711"
       xlink:href="#SVGID_1_"
       gradientUnits="userSpaceOnUse" />
    <linearGradient
       x1="23.999001"
       y1="46"
       x2="23.999001"
       y2="2.0005"
       id="linearGradient7713"
       xlink:href="#SVGID_1_"
       gradientUnits="userSpaceOnUse" />
    <linearGradient
       x1="23.999001"
       y1="46"
       x2="23.999001"
       y2="2.0005"
       id="linearGradient7715"
       xlink:href="#SVGID_1_"
       gradientUnits="userSpaceOnUse" />
  </defs>
  <g
     id="layer1">
    <g
       id="Layer_2">
      <g
         id="g238"
         style="opacity:0.3">
        <g
           id="g240">
          <path
             d="m 46.643,20.844 c -0.885,-0.887 -1.987,-1.355 -3.186,-1.355 h -5.419 c -1.066,0 -2.059,0.371 -2.878,1.069 -0.215,-0.7 -0.495,-1.37 -0.832,-2.006 1.081,-0.091 2.045,-0.532 2.809,-1.292 l 3.827,-3.834 C 41.804,12.586 42.26,11.49 42.28,10.203 42.27,8.963 41.814,7.859 40.968,7.017 40.119,6.165 39.016,5.709 37.724,5.699 36.482,5.72 35.384,6.171 34.551,7.007 l -3.838,3.836 c -0.752,0.753 -1.189,1.716 -1.279,2.816 -0.628,-0.33 -1.288,-0.607 -1.978,-0.821 0.693,-0.825 1.057,-1.816 1.057,-2.883 V 4.533 c 0,-1.188 -0.454,-2.286 -1.352,-3.21 C 26.281,0.456 25.182,0 23.982,0 c -1.199,0 -2.3,0.456 -3.223,1.362 -0.863,0.896 -1.318,1.993 -1.318,3.171 v 5.422 c 0,1.057 0.363,2.043 1.075,2.891 -0.681,0.212 -1.335,0.487 -1.956,0.817 -0.086,-1.066 -0.528,-2.024 -1.292,-2.79 L 13.44,7.045 C 12.59,6.193 11.488,5.739 10.219,5.729 8.972,5.74 7.868,6.194 7.028,7.036 6.18,7.88 5.726,8.986 5.716,10.268 c 0.01,1.238 0.464,2.34 1.314,3.19 l 3.828,3.828 c 0.766,0.768 1.727,1.211 2.798,1.293 -0.33,0.627 -0.604,1.29 -0.817,1.977 C 12.024,19.863 11.031,19.498 9.95,19.498 H 4.542 c -1.201,0 -2.303,0.458 -3.207,1.347 C 0.462,21.729 0,22.831 0,24.032 c 0,1.196 0.46,2.299 1.36,3.211 0.881,0.866 1.983,1.322 3.182,1.322 H 9.95 c 1.089,0 2.088,-0.369 2.905,-1.071 0.208,0.669 0.477,1.311 0.798,1.921 -1.069,0.089 -2.026,0.528 -2.786,1.288 L 7.046,34.53 c -0.848,0.847 -1.3,1.95 -1.31,3.211 0,1.248 0.454,2.36 1.306,3.211 0.852,0.854 1.96,1.306 3.208,1.306 h 0.022 c 1.244,-0.015 2.346,-0.466 3.19,-1.311 l 3.828,-3.829 c 0.762,-0.766 1.199,-1.725 1.284,-2.773 0.615,0.324 1.263,0.595 1.935,0.807 -0.701,0.819 -1.068,1.81 -1.068,2.894 v 5.412 c 0,1.192 0.46,2.294 1.345,3.196 0.881,0.882 1.987,1.346 3.196,1.346 1.203,0 2.305,-0.464 3.198,-1.357 0.873,-0.887 1.333,-1.989 1.333,-3.186 v -5.412 c 0,-1.088 -0.371,-2.084 -1.059,-2.883 0.686,-0.213 1.344,-0.487 1.969,-0.817 0.085,1.092 0.524,2.062 1.285,2.818 l 3.836,3.841 c 0.853,0.848 1.96,1.295 3.202,1.295 h 0.035 c 1.232,0 2.332,-0.447 3.182,-1.3 0.858,-0.858 1.307,-1.975 1.296,-3.212 0,-1.255 -0.447,-2.367 -1.293,-3.213 l -3.83,-3.832 c -0.751,-0.755 -1.711,-1.192 -2.814,-1.281 0.33,-0.623 0.606,-1.277 0.821,-1.962 0.827,0.705 1.819,1.074 2.895,1.074 h 5.419 c 1.2,0 2.303,-0.464 3.171,-1.33 0.897,-0.877 1.37,-1.987 1.37,-3.211 0,-1.217 -0.473,-2.325 -1.355,-3.188 z m -34.92,4.97 c -0.498,0.507 -1.095,0.752 -1.773,0.752 H 4.541 c -0.679,0 -1.267,-0.245 -1.782,-0.752 -0.506,-0.516 -0.76,-1.113 -0.76,-1.783 0,-0.679 0.253,-1.268 0.76,-1.783 0.516,-0.507 1.104,-0.751 1.782,-0.751 h 5.41 c 0.678,0 1.275,0.245 1.773,0.751 0.516,0.516 0.769,1.104 0.769,1.783 -10e-4,0.67 -0.254,1.268 -0.77,1.783 z M 21.44,4.534 C 21.44,3.855 21.702,3.267 22.2,2.751 22.715,2.244 23.304,2 23.982,2 c 0.678,0 1.266,0.244 1.782,0.751 0.498,0.516 0.751,1.104 0.751,1.783 v 5.422 c 0,0.67 -0.253,1.268 -0.751,1.774 -0.516,0.507 -1.104,0.76 -1.782,0.76 -0.678,0 -1.267,-0.253 -1.782,-0.76 -0.498,-0.507 -0.76,-1.104 -0.76,-1.774 V 4.534 z M 12.27,15.871 8.445,12.044 C 7.966,11.564 7.722,10.975 7.716,10.252 7.722,9.529 7.966,8.927 8.439,8.454 8.919,7.974 9.514,7.737 10.236,7.73 c 0.723,0.007 1.312,0.25 1.791,0.73 l 3.825,3.828 c 0.48,0.48 0.729,1.075 0.723,1.786 0,0.729 -0.236,1.325 -0.716,1.805 -0.473,0.473 -1.075,0.717 -1.804,0.717 -0.71,0.005 -1.305,-0.245 -1.785,-0.725 z m 3.603,19.836 -3.825,3.827 c -0.48,0.48 -1.075,0.717 -1.797,0.724 -0.717,0 -1.318,-0.243 -1.791,-0.717 C 7.98,39.062 7.737,38.459 7.737,37.742 7.743,37.018 7.98,36.424 8.46,35.944 l 3.825,-3.828 c 0.48,-0.479 1.081,-0.723 1.791,-0.717 0.723,-0.006 1.324,0.237 1.804,0.717 0.473,0.474 0.716,1.075 0.71,1.799 0.005,0.711 -0.238,1.312 -0.717,1.792 z m 10.642,7.749 c 0,0.68 -0.253,1.268 -0.76,1.784 C 25.248,45.747 24.651,46 23.982,46 23.304,46 22.707,45.747 22.2,45.24 21.694,44.723 21.44,44.136 21.44,43.456 v -5.412 c 0,-0.679 0.253,-1.276 0.76,-1.774 0.507,-0.517 1.104,-0.77 1.782,-0.77 0.669,0 1.266,0.253 1.773,0.77 0.507,0.498 0.76,1.096 0.76,1.774 v 5.412 z m -2.516,-9.77 c -5.346,0 -9.679,-4.337 -9.679,-9.686 0,-5.349 4.333,-9.685 9.679,-9.685 5.346,0 9.679,4.336 9.679,9.685 0,5.349 -4.333,9.686 -9.679,9.686 z m 11.721,-1.533 3.831,3.834 c 0.48,0.48 0.71,1.082 0.71,1.799 0.007,0.723 -0.236,1.325 -0.71,1.799 -0.479,0.479 -1.081,0.723 -1.804,0.716 -0.716,0 -1.311,-0.236 -1.791,-0.716 L 32.125,35.75 c -0.48,-0.479 -0.717,-1.074 -0.717,-1.792 -0.006,-0.723 0.243,-1.318 0.723,-1.798 0.474,-0.474 1.068,-0.723 1.791,-0.717 0.717,0 1.318,0.231 1.798,0.71 z M 33.937,16.57 c -0.724,-0.006 -1.318,-0.244 -1.798,-0.724 -0.48,-0.48 -0.717,-1.075 -0.723,-1.799 0.006,-0.71 0.243,-1.318 0.716,-1.792 l 3.832,-3.834 c 0.479,-0.479 1.081,-0.71 1.797,-0.723 0.724,0.006 1.312,0.25 1.791,0.73 0.48,0.48 0.724,1.069 0.729,1.792 -0.013,0.717 -0.249,1.312 -0.729,1.792 l -3.831,3.833 c -0.474,0.475 -1.075,0.718 -1.784,0.725 z m 11.292,9.244 c -0.507,0.507 -1.095,0.761 -1.772,0.761 h -5.419 c -0.679,0 -1.267,-0.254 -1.773,-0.761 -0.516,-0.506 -0.76,-1.104 -0.76,-1.783 0,-0.67 0.244,-1.268 0.76,-1.774 0.507,-0.507 1.095,-0.77 1.773,-0.77 h 5.419 c 0.678,0 1.266,0.262 1.772,0.77 0.516,0.506 0.77,1.104 0.77,1.774 0,0.679 -0.254,1.278 -0.77,1.783 z"
             id="path242" />
        </g>
      </g>
    </g>
    <path
       d="m 23.999,14.315 c -5.346,0 -9.679,4.336 -9.679,9.685 0,5.349 4.333,9.686 9.679,9.686 5.346,0 9.679,-4.337 9.679,-9.686 0,-5.349 -4.333,-9.685 -9.679,-9.685 z"
       id="path2700"
       style="fill:url(#linearGradient7701)" />
    <g
       id="Layer_3" />
    <path
       d="m 23.999,14.315 c -5.346,0 -9.679,4.336 -9.679,9.685 0,1.918 0.564,3.701 1.526,5.206 -0.733,-1.364 -1.151,-2.924 -1.151,-4.581 0,-5.349 4.333,-9.685 9.679,-9.685 3.428,0 6.433,1.789 8.153,4.479 -1.633,-3.038 -4.839,-5.104 -8.528,-5.104 z"
       id="path2664"
       style="opacity:0.41000001;fill:#ffffff" />
    <g
       id="g2712"
       style="opacity:0.85">
      <g
         id="g2702">
        <path
           d="m 11.723,25.814 c 0.516,-0.516 0.769,-1.113 0.769,-1.783 0,-0.679 -0.253,-1.268 -0.769,-1.783 -0.498,-0.507 -1.095,-0.751 -1.773,-0.751 l -5.41,0 c -0.679,0 -1.267,0.245 -1.782,0.751 -0.506,0.516 -0.76,1.104 -0.76,1.783 0,0.669 0.253,1.267 0.76,1.783 0.516,0.507 1.104,0.752 1.782,0.752 l 5.41,0 c 0.678,0 1.276,-0.245 1.773,-0.752 z"
           id="path2698"
           style="fill:url(#linearGradient7703)" />
        <path
           d="m 12.27,15.871 c 0.48,0.48 1.075,0.73 1.785,0.724 0.729,0 1.331,-0.244 1.804,-0.717 0.48,-0.48 0.716,-1.076 0.716,-1.805 0.006,-0.711 -0.243,-1.306 -0.723,-1.786 L 12.027,8.459 C 11.548,7.979 10.959,7.736 10.236,7.729 9.513,7.735 8.918,7.973 8.438,8.453 7.965,8.927 7.722,9.528 7.715,10.251 c 0.006,0.723 0.25,1.312 0.729,1.792 l 3.826,3.828 z"
           id="path2696"
           style="fill:url(#linearGradient7705)" />
        <path
           d="m 33.937,16.57 c 0.71,-0.006 1.311,-0.25 1.784,-0.724 l 3.831,-3.833 c 0.48,-0.48 0.717,-1.076 0.729,-1.792 C 40.275,9.498 40.032,8.909 39.552,8.429 39.073,7.949 38.485,7.705 37.761,7.699 37.045,7.712 36.444,7.943 35.964,8.422 l -3.832,3.834 c -0.473,0.474 -0.71,1.082 -0.716,1.792 0.006,0.724 0.243,1.319 0.723,1.799 0.48,0.48 1.074,0.716 1.798,0.723 z"
           id="path2694"
           style="fill:url(#linearGradient7707)" />
        <path
           d="m 23.982,12.491 c 0.678,0 1.266,-0.253 1.782,-0.76 0.498,-0.507 0.751,-1.104 0.751,-1.774 l 0,-5.423 C 26.515,3.855 26.262,3.267 25.764,2.751 25.248,2.244 24.66,2 23.982,2 23.304,2 22.715,2.244 22.2,2.751 21.702,3.267 21.44,3.855 21.44,4.534 l 0,5.422 c 0,0.67 0.262,1.268 0.76,1.774 0.515,0.507 1.104,0.761 1.782,0.761 z"
           id="path2692"
           style="fill:url(#linearGradient7709)" />
        <path
           d="m 35.72,32.153 c -0.479,-0.479 -1.081,-0.71 -1.798,-0.71 -0.723,-0.006 -1.317,0.243 -1.791,0.717 -0.479,0.479 -0.729,1.075 -0.723,1.798 0,0.718 0.236,1.312 0.717,1.792 l 3.831,3.835 c 0.48,0.479 1.075,0.716 1.791,0.716 0.723,0.007 1.324,-0.236 1.804,-0.716 0.474,-0.474 0.717,-1.076 0.71,-1.799 0,-0.717 -0.229,-1.318 -0.71,-1.799 L 35.72,32.153 z"
           id="path2690"
           style="fill:url(#linearGradient7711)" />
        <path
           d="m 45.229,22.258 c -0.507,-0.507 -1.095,-0.77 -1.772,-0.77 l -5.419,0 c -0.679,0 -1.267,0.262 -1.773,0.77 -0.516,0.506 -0.76,1.104 -0.76,1.774 0,0.678 0.244,1.277 0.76,1.783 0.507,0.507 1.095,0.761 1.773,0.761 l 5.419,0 c 0.678,0 1.266,-0.254 1.772,-0.761 0.516,-0.506 0.77,-1.104 0.77,-1.783 0,-0.67 -0.254,-1.268 -0.77,-1.774 z"
           id="path2688"
           style="fill:url(#linearGradient7713)" />
        <path
           d="m 14.075,31.399 c -0.71,-0.006 -1.311,0.237 -1.791,0.717 l -3.825,3.828 c -0.48,0.479 -0.717,1.074 -0.723,1.798 0,0.717 0.243,1.319 0.723,1.799 0.473,0.474 1.074,0.717 1.791,0.717 0.723,-0.007 1.317,-0.243 1.797,-0.724 l 3.825,-3.827 c 0.479,-0.48 0.723,-1.081 0.716,-1.792 0.006,-0.724 -0.237,-1.325 -0.71,-1.799 -0.479,-0.479 -1.08,-0.722 -1.803,-0.717 z"
           id="path2686"
           style="fill:url(#linearGradient7715)" />
        <path
           d="m 23.982,35.5 c -0.678,0 -1.275,0.253 -1.782,0.77 -0.506,0.498 -0.76,1.096 -0.76,1.774 l 0,5.412 c 0,0.68 0.253,1.268 0.76,1.784 0.507,0.507 1.104,0.76 1.782,0.76 0.669,0 1.266,-0.253 1.773,-0.76 0.507,-0.517 0.76,-1.104 0.76,-1.784 l 0,-5.412 c 0,-0.679 -0.253,-1.276 -0.76,-1.774 -0.507,-0.517 -1.104,-0.77 -1.773,-0.77 z"
           id="path252"
           style="fill:url(#linearGradient2649)" />
      </g>
      <g
         id="g2674">
        <path
           d="m 21.815,10.581 0,-5.422 c 0,-0.679 0.262,-1.267 0.76,-1.783 0.516,-0.507 1.104,-0.751 1.782,-0.751 0.678,0 1.266,0.244 1.782,0.751 0.075,0.078 0.135,0.162 0.199,0.244 C 26.212,3.309 26.024,3.02 25.764,2.751 25.248,2.244 24.66,2 23.982,2 23.304,2 22.715,2.244 22.2,2.751 21.702,3.267 21.44,3.855 21.44,4.534 l 0,5.422 c 0,0.564 0.197,1.074 0.553,1.525 -0.115,-0.283 -0.178,-0.583 -0.178,-0.9 z"
           id="path2672"
           style="opacity:0.41000001;fill:#ffffff" />
        <path
           d="m 8.091,10.876 c 0.006,-0.723 0.25,-1.325 0.723,-1.798 0.48,-0.48 1.075,-0.717 1.797,-0.724 0.723,0.007 1.312,0.25 1.791,0.73 l 3.825,3.828 c 0.068,0.068 0.12,0.143 0.179,0.215 -0.121,-0.311 -0.305,-0.592 -0.554,-0.84 L 12.027,8.459 C 11.548,7.979 10.959,7.736 10.236,7.729 9.513,7.735 8.918,7.973 8.438,8.453 7.965,8.927 7.722,9.528 7.715,10.251 7.72,10.873 7.912,11.39 8.267,11.83 8.155,11.541 8.094,11.225 8.091,10.876 z"
           id="path2670"
           style="opacity:0.41000001;fill:#ffffff" />
        <path
           d="m 31.791,14.672 c 0.006,-0.71 0.243,-1.318 0.716,-1.792 l 3.832,-3.834 c 0.479,-0.479 1.081,-0.71 1.797,-0.723 0.724,0.006 1.312,0.25 1.791,0.73 0.067,0.067 0.12,0.143 0.178,0.214 C 39.984,8.956 39.801,8.677 39.552,8.428 39.073,7.948 38.485,7.704 37.761,7.698 37.045,7.711 36.444,7.942 35.964,8.421 l -3.832,3.834 c -0.473,0.474 -0.71,1.082 -0.716,1.792 0.005,0.625 0.194,1.149 0.552,1.591 -0.114,-0.292 -0.174,-0.613 -0.177,-0.966 z"
           id="path2668"
           style="opacity:0.41000001;fill:#ffffff" />
        <path
           d="m 45.229,22.258 c -0.507,-0.507 -1.095,-0.77 -1.772,-0.77 l -5.419,0 c -0.679,0 -1.267,0.262 -1.773,0.77 -0.516,0.506 -0.76,1.104 -0.76,1.774 0,0.571 0.185,1.081 0.546,1.531 -0.111,-0.283 -0.171,-0.585 -0.171,-0.906 0,-0.67 0.244,-1.267 0.76,-1.773 0.507,-0.507 1.095,-0.77 1.773,-0.77 l 5.419,0 c 0.678,0 1.266,0.262 1.772,0.77 0.085,0.083 0.151,0.172 0.222,0.26 -0.127,-0.319 -0.322,-0.617 -0.597,-0.886 z"
           id="path2666"
           style="opacity:0.41000001;fill:#ffffff" />
        <path
           d="m 23.982,35.5 c -0.678,0 -1.275,0.253 -1.782,0.77 -0.506,0.498 -0.76,1.096 -0.76,1.774 l 0,5.412 c 0,0.573 0.191,1.077 0.551,1.532 -0.114,-0.284 -0.176,-0.585 -0.176,-0.907 l 0,-5.412 c 0,-0.679 0.253,-1.276 0.76,-1.774 0.507,-0.517 1.104,-0.77 1.782,-0.77 0.669,0 1.266,0.253 1.773,0.77 0.081,0.079 0.145,0.166 0.212,0.25 C 26.216,36.828 26.024,36.534 25.755,36.27 25.248,35.753 24.651,35.5 23.982,35.5 z"
           id="path2662"
           style="opacity:0.41000001;fill:#ffffff" />
        <path
           d="m 12.098,22.874 c 0.084,0.084 0.15,0.173 0.22,0.261 -0.127,-0.317 -0.322,-0.613 -0.595,-0.886 -0.498,-0.507 -1.095,-0.751 -1.773,-0.751 l -5.41,0 c -0.679,0 -1.267,0.245 -1.782,0.751 -0.506,0.516 -0.76,1.104 -0.76,1.783 0,0.565 0.191,1.075 0.552,1.531 -0.115,-0.285 -0.177,-0.587 -0.177,-0.906 0,-0.679 0.253,-1.267 0.76,-1.783 0.516,-0.507 1.104,-0.751 1.782,-0.751 l 5.41,0 c 0.678,-0.001 1.276,0.244 1.773,0.751 z"
           id="path2660"
           style="opacity:0.41000001;fill:#ffffff" />
        <path
           d="m 35.72,32.153 c -0.479,-0.479 -1.081,-0.71 -1.798,-0.71 -0.723,-0.006 -1.317,0.243 -1.791,0.717 -0.479,0.479 -0.729,1.075 -0.723,1.798 0,0.62 0.188,1.144 0.546,1.585 -0.112,-0.292 -0.171,-0.61 -0.171,-0.96 -0.006,-0.723 0.243,-1.318 0.723,-1.798 0.474,-0.474 1.068,-0.723 1.791,-0.717 0.717,0 1.318,0.23 1.798,0.71 l 3.831,3.834 c 0.062,0.062 0.11,0.134 0.164,0.2 -0.117,-0.306 -0.295,-0.581 -0.539,-0.825 L 35.72,32.153 z"
           id="path2658"
           style="opacity:0.41000001;fill:#ffffff" />
        <path
           d="m 14.075,31.399 c -0.71,-0.006 -1.311,0.237 -1.791,0.717 l -3.825,3.828 c -0.48,0.479 -0.717,1.074 -0.723,1.798 0,0.618 0.192,1.146 0.549,1.588 C 8.171,39.036 8.111,38.716 8.111,38.367 8.117,37.643 8.354,37.049 8.834,36.569 l 3.825,-3.828 c 0.48,-0.479 1.081,-0.723 1.791,-0.717 0.723,-0.006 1.324,0.237 1.804,0.717 0.063,0.063 0.111,0.134 0.166,0.202 -0.119,-0.309 -0.299,-0.585 -0.541,-0.827 -0.48,-0.479 -1.081,-0.722 -1.804,-0.717 z"
           id="path258"
           style="opacity:0.41000001;fill:#ffffff" />
      </g>
    </g>
  </g>
</svg>
