<?xml version="1.0" encoding="UTF-8" standalone="no"?>
<!-- Created with Inkscape (http://www.inkscape.org/) -->

<svg
   xmlns:svg="http://www.w3.org/2000/svg"
   xmlns="http://www.w3.org/2000/svg"
   version="1.1"
   width="48"
   height="48"
   id="svg4054">
  <defs
     id="defs4056">
    <linearGradient
       x1="23.9995"
       y1="44.771"
       x2="23.9995"
       y2="3.6406"
       id="SVGID_1_"
       gradientUnits="userSpaceOnUse">
      <stop
         id="stop252"
         style="stop-color:#9b9b9b;stop-opacity:1"
         offset="0" />
      <stop
         id="stop254"
         style="stop-color:#ececec;stop-opacity:1"
         offset="1" />
    </linearGradient>
    <linearGradient
       x1="23.9995"
       y1="44.771"
       x2="23.9995"
       y2="3.6406"
       id="SVGID_2_"
       gradientUnits="userSpaceOnUse">
      <stop
         id="stop259"
         style="stop-color:#9b9b9b;stop-opacity:1"
         offset="0" />
      <stop
         id="stop261"
         style="stop-color:#ececec;stop-opacity:1"
         offset="1" />
    </linearGradient>
    <linearGradient
       x1="23.9995"
       y1="44.771"
       x2="23.9995"
       y2="3.6406"
       id="SVGID_3_"
       gradientUnits="userSpaceOnUse">
      <stop
         id="stop272"
         style="stop-color:#9b9b9b;stop-opacity:1"
         offset="0" />
      <stop
         id="stop274"
         style="stop-color:#ececec;stop-opacity:1"
         offset="1" />
    </linearGradient>
    <linearGradient
       x1="23.9995"
       y1="44.771"
       x2="23.9995"
       y2="3.6406"
       id="SVGID_4_"
       gradientUnits="userSpaceOnUse">
      <stop
         id="stop279"
         style="stop-color:#9b9b9b;stop-opacity:1"
         offset="0" />
      <stop
         id="stop281"
         style="stop-color:#ececec;stop-opacity:1"
         offset="1" />
    </linearGradient>
    <linearGradient
       x1="6.0307999"
       y1="12.5884"
       x2="6.0307999"
       y2="1.9995"
       id="SVGID_5_"
       gradientUnits="userSpaceOnUse">
      <stop
         id="stop306"
         style="stop-color:#9b9b9b;stop-opacity:1"
         offset="0" />
      <stop
         id="stop308"
         style="stop-color:#ececec;stop-opacity:1"
         offset="1" />
    </linearGradient>
    <linearGradient
       x1="15.8682"
       y1="12.5884"
       x2="15.8682"
       y2="1.9995"
       id="SVGID_6_"
       gradientUnits="userSpaceOnUse">
      <stop
         id="stop315"
         style="stop-color:#9b9b9b;stop-opacity:1"
         offset="0" />
      <stop
         id="stop317"
         style="stop-color:#ececec;stop-opacity:1"
         offset="1" />
    </linearGradient>
  </defs>
  <g
     id="layer1">
    <g
       transform="translate(0,0.615)"
       id="Layer_2"
       style="opacity:0.3">
      <g
         id="g238">
        <g
           id="g240">
          <path
             d="m 44.087,1.642 -5.74,0 c -2.158,0 -3.912,1.753 -3.912,3.912 l 0,5.169 c -0.548,-0.292 -1.164,-0.474 -1.827,-0.474 l -5.739,0 c -2.157,0 -3.913,1.756 -3.913,3.914 l 0,5.169 C 22.409,19.04 21.793,18.858 21.13,18.858 l -5.74,0 c -2.158,0 -3.912,1.756 -3.912,3.914 l 0,5.169 C 10.93,27.649 10.314,27.467 9.65,27.467 l -5.738,0 C 1.753,27.467 0,29.22 0,31.378 l 0,11.479 c 0,2.158 1.753,3.914 3.912,3.914 l 5.739,0 c 1.138,0 2.154,-0.496 2.87,-1.273 0.715,0.777 1.731,1.273 2.869,1.273 l 5.739,0 c 1.138,0 2.154,-0.496 2.869,-1.273 0.716,0.777 1.732,1.273 2.87,1.273 l 5.739,0 c 1.138,0 2.154,-0.496 2.869,-1.273 0.716,0.777 1.731,1.273 2.87,1.273 l 5.74,0 c 2.157,0 3.911,-1.754 3.911,-3.912 l 0,-37.305 C 47.998,3.396 46.244,1.642 44.087,1.642 z M 11.564,42.858 c 0,1.057 -0.857,1.913 -1.913,1.913 l -5.739,0 c -1.057,0 -1.913,-0.856 -1.913,-1.913 l 0,-11.479 c 0,-1.057 0.856,-1.913 1.913,-1.913 l 5.739,0 c 1.056,0 1.913,0.856 1.913,1.913 l 0,11.479 z m 11.478,0 c 0,1.057 -0.856,1.913 -1.913,1.913 l -5.739,0 c -1.056,0 -1.913,-0.856 -1.913,-1.913 l 0,-20.087 c 0,-1.057 0.857,-1.913 1.913,-1.913 l 5.739,0 c 1.057,0 1.913,0.856 1.913,1.913 l 0,20.087 z m 11.479,0 c 0,1.057 -0.856,1.913 -1.913,1.913 l -5.739,0 c -1.056,0 -1.913,-0.856 -1.913,-1.913 l 0,-28.696 c 0,-1.057 0.857,-1.913 1.913,-1.913 l 5.739,0 c 1.057,0 1.913,0.856 1.913,1.913 l 0,28.696 z m 11.478,0 c 0,1.057 -0.856,1.913 -1.913,1.913 l -5.739,0 c -1.057,0 -1.913,-0.856 -1.913,-1.913 l 0,-37.305 c 0,-1.056 0.856,-1.913 1.913,-1.913 l 5.739,0 c 1.057,0 1.913,0.857 1.913,1.913 l 0,37.305 z"
             id="path242" />
        </g>
      </g>
    </g>
    <g
       transform="translate(0,0.615)"
       id="Layer_1">
      <g
         id="g245">
        <g
           id="g247">
          <g
             id="g249">
            <linearGradient
               x1="23.9995"
               y1="44.771"
               x2="23.9995"
               y2="3.6406"
               id="linearGradient3996"
               gradientUnits="userSpaceOnUse">
              <stop
                 id="stop3998"
                 style="stop-color:#9b9b9b;stop-opacity:1"
                 offset="0" />
              <stop
                 id="stop4000"
                 style="stop-color:#ececec;stop-opacity:1"
                 offset="1" />
            </linearGradient>
            <path
               d="m 9.651,29.466 -5.739,0 c -1.057,0 -1.913,0.856 -1.913,1.913 l 0,11.479 c 0,1.057 0.856,1.913 1.913,1.913 l 5.739,0 c 1.056,0 1.913,-0.856 1.913,-1.913 l 0,-11.479 c 0,-1.056 -0.856,-1.913 -1.913,-1.913 z m 11.478,-8.608 -5.739,0 c -1.056,0 -1.913,0.856 -1.913,1.913 l 0,20.087 c 0,1.057 0.857,1.913 1.913,1.913 l 5.739,0 c 1.057,0 1.913,-0.856 1.913,-1.913 l 0,-20.087 c 0,-1.057 -0.856,-1.913 -1.913,-1.913 z m 11.478,-8.609 -5.739,0 c -1.056,0 -1.913,0.856 -1.913,1.913 l 0,28.696 c 0,1.057 0.857,1.913 1.913,1.913 l 5.739,0 c 1.057,0 1.913,-0.856 1.913,-1.913 l 0,-28.696 c 10e-4,-1.057 -0.856,-1.913 -1.913,-1.913 z m 11.479,-8.609 -5.739,0 c -1.057,0 -1.913,0.857 -1.913,1.913 l 0,37.305 c 0,1.057 0.856,1.913 1.913,1.913 l 5.739,0 c 1.057,0 1.913,-0.856 1.913,-1.913 l 0,-37.305 c 0,-1.056 -0.856,-1.913 -1.913,-1.913 z"
               id="path256"
               style="fill:url(#SVGID_1_)" />
            <linearGradient
               x1="23.9995"
               y1="44.771"
               x2="23.9995"
               y2="3.6406"
               id="linearGradient4003"
               gradientUnits="userSpaceOnUse">
              <stop
                 id="stop4005"
                 style="stop-color:#9b9b9b;stop-opacity:1"
                 offset="0" />
              <stop
                 id="stop4007"
                 style="stop-color:#ececec;stop-opacity:1"
                 offset="1" />
            </linearGradient>
            <path
               d="m 9.651,29.466 -5.739,0 c -1.057,0 -1.913,0.856 -1.913,1.913 l 0,11.479 c 0,1.057 0.856,1.913 1.913,1.913 l 5.739,0 c 1.056,0 1.913,-0.856 1.913,-1.913 l 0,-11.479 c 0,-1.056 -0.856,-1.913 -1.913,-1.913 z m 11.478,-8.608 -5.739,0 c -1.056,0 -1.913,0.856 -1.913,1.913 l 0,20.087 c 0,1.057 0.857,1.913 1.913,1.913 l 5.739,0 c 1.057,0 1.913,-0.856 1.913,-1.913 l 0,-20.087 c 0,-1.057 -0.856,-1.913 -1.913,-1.913 z m 11.478,-8.609 -5.739,0 c -1.056,0 -1.913,0.856 -1.913,1.913 l 0,28.696 c 0,1.057 0.857,1.913 1.913,1.913 l 5.739,0 c 1.057,0 1.913,-0.856 1.913,-1.913 l 0,-28.696 c 10e-4,-1.057 -0.856,-1.913 -1.913,-1.913 z m 11.479,-8.609 -5.739,0 c -1.057,0 -1.913,0.857 -1.913,1.913 l 0,37.305 c 0,1.057 0.856,1.913 1.913,1.913 l 5.739,0 c 1.057,0 1.913,-0.856 1.913,-1.913 l 0,-37.305 c 0,-1.056 -0.856,-1.913 -1.913,-1.913 z"
               id="path263"
               style="fill:url(#SVGID_2_)" />
          </g>
        </g>
      </g>
      <g
         id="g265">
        <g
           id="g267">
          <g
             id="g269">
            <linearGradient
               x1="23.9995"
               y1="44.771"
               x2="23.9995"
               y2="3.6406"
               id="linearGradient4013"
               gradientUnits="userSpaceOnUse">
              <stop
                 id="stop4015"
                 style="stop-color:#9b9b9b;stop-opacity:1"
                 offset="0" />
              <stop
                 id="stop4017"
                 style="stop-color:#ececec;stop-opacity:1"
                 offset="1" />
            </linearGradient>
            <path
               d="m 9.651,29.466 -5.739,0 c -1.057,0 -1.913,0.856 -1.913,1.913 l 0,11.479 c 0,1.057 0.856,1.913 1.913,1.913 l 5.739,0 c 1.056,0 1.913,-0.856 1.913,-1.913 l 0,-11.479 c 0,-1.056 -0.856,-1.913 -1.913,-1.913 z m 11.478,-8.608 -5.739,0 c -1.056,0 -1.913,0.856 -1.913,1.913 l 0,20.087 c 0,1.057 0.857,1.913 1.913,1.913 l 5.739,0 c 1.057,0 1.913,-0.856 1.913,-1.913 l 0,-20.087 c 0,-1.057 -0.856,-1.913 -1.913,-1.913 z m 11.478,-8.609 -5.739,0 c -1.056,0 -1.913,0.856 -1.913,1.913 l 0,28.696 c 0,1.057 0.857,1.913 1.913,1.913 l 5.739,0 c 1.057,0 1.913,-0.856 1.913,-1.913 l 0,-28.696 c 10e-4,-1.057 -0.856,-1.913 -1.913,-1.913 z m 11.479,-8.609 -5.739,0 c -1.057,0 -1.913,0.857 -1.913,1.913 l 0,37.305 c 0,1.057 0.856,1.913 1.913,1.913 l 5.739,0 c 1.057,0 1.913,-0.856 1.913,-1.913 l 0,-37.305 c 0,-1.056 -0.856,-1.913 -1.913,-1.913 z"
               id="path276"
               style="fill:url(#SVGID_3_)" />
            <linearGradient
               x1="23.9995"
               y1="44.771"
               x2="23.9995"
               y2="3.6406"
               id="linearGradient4020"
               gradientUnits="userSpaceOnUse">
              <stop
                 id="stop4022"
                 style="stop-color:#9b9b9b;stop-opacity:1"
                 offset="0" />
              <stop
                 id="stop4024"
                 style="stop-color:#ececec;stop-opacity:1"
                 offset="1" />
            </linearGradient>
            <path
               d="m 9.651,29.466 -5.739,0 c -1.057,0 -1.913,0.856 -1.913,1.913 l 0,11.479 c 0,1.057 0.856,1.913 1.913,1.913 l 5.739,0 c 1.056,0 1.913,-0.856 1.913,-1.913 l 0,-11.479 c 0,-1.056 -0.856,-1.913 -1.913,-1.913 z m 11.478,-8.608 -5.739,0 c -1.056,0 -1.913,0.856 -1.913,1.913 l 0,20.087 c 0,1.057 0.857,1.913 1.913,1.913 l 5.739,0 c 1.057,0 1.913,-0.856 1.913,-1.913 l 0,-20.087 c 0,-1.057 -0.856,-1.913 -1.913,-1.913 z m 11.478,-8.609 -5.739,0 c -1.056,0 -1.913,0.856 -1.913,1.913 l 0,28.696 c 0,1.057 0.857,1.913 1.913,1.913 l 5.739,0 c 1.057,0 1.913,-0.856 1.913,-1.913 l 0,-28.696 c 10e-4,-1.057 -0.856,-1.913 -1.913,-1.913 z m 11.479,-8.609 -5.739,0 c -1.057,0 -1.913,0.857 -1.913,1.913 l 0,37.305 c 0,1.057 0.856,1.913 1.913,1.913 l 5.739,0 c 1.057,0 1.913,-0.856 1.913,-1.913 l 0,-37.305 c 0,-1.056 -0.856,-1.913 -1.913,-1.913 z"
               id="path283"
               style="fill:url(#SVGID_4_)" />
          </g>
        </g>
      </g>
    </g>
    <g
       transform="translate(0,0.615)"
       id="Layer_4"
       style="opacity:0.4">
      <g
         id="g286">
        <g
           id="g288">
          <path
             d="m 21.129,20.858 -5.739,0 c -1.056,0 -1.913,0.856 -1.913,1.913 l 0,20.087 c 0,0.432 0.148,0.825 0.389,1.145 -0.087,-0.219 -0.139,-0.457 -0.139,-0.707 l 0,-20.088 c 0,-1.057 0.857,-1.913 1.913,-1.913 l 5.739,0 c 0.625,0 1.175,0.304 1.524,0.769 -0.281,-0.706 -0.967,-1.206 -1.774,-1.206 z M 44.086,3.64 l -5.739,0 c -1.057,0 -1.913,0.857 -1.913,1.913 l 0,37.305 c 0,0.432 0.147,0.825 0.389,1.145 -0.087,-0.219 -0.139,-0.457 -0.139,-0.707 l 0,-37.305 c 0,-1.056 0.856,-1.913 1.913,-1.913 l 5.739,0 c 0.625,0 1.175,0.305 1.524,0.769 C 45.579,4.141 44.893,3.64 44.086,3.64 z m -34.435,25.826 -5.739,0 c -1.057,0 -1.913,0.856 -1.913,1.913 l 0,11.479 c 0,0.432 0.148,0.825 0.389,1.145 C 2.301,43.784 2.249,43.546 2.249,43.296 l 0,-11.479 c 0,-1.057 0.856,-1.913 1.913,-1.913 l 5.739,0 c 0.625,0 1.175,0.305 1.524,0.769 -0.281,-0.707 -0.968,-1.207 -1.774,-1.207 z m 22.956,-17.217 -5.739,0 c -1.056,0 -1.913,0.856 -1.913,1.913 l 0,28.696 c 0,0.431 0.148,0.824 0.389,1.145 -0.087,-0.219 -0.139,-0.457 -0.139,-0.707 l 0,-28.696 c 0,-1.057 0.857,-1.913 1.913,-1.913 l 5.739,0 c 0.625,0 1.175,0.304 1.524,0.768 -0.28,-0.706 -0.967,-1.206 -1.774,-1.206 z"
             id="path290"
             style="fill:#ffffff" />
        </g>
      </g>
    </g>
    <g
       transform="translate(0,0.615)"
       id="Layer_5">
      <g
         id="Layer_8">
        <g
           id="g294"
           style="opacity:0.3">
          <g
             id="g296">
            <path
               d="m 22.288,5.447 c 0.056,-0.185 0.084,-0.378 0.084,-0.576 l 0,-2.113 c 0,-0.784 -0.457,-1.495 -1.17,-1.82 C 20.515,0.626 19.779,0.389 19.015,0.232 18.264,0.078 17.472,0 16.662,0 14.387,0 12.53,0.656 11.141,1.952 11.067,2.02 11.004,2.096 10.934,2.166 10.63,1.705 10.235,1.302 9.749,0.98 8.744,0.321 7.41,0 5.671,0 5.094,0 4.494,0.043 3.888,0.128 3.298,0.212 2.692,0.342 2.082,0.512 1.22,0.755 0.625,1.542 0.625,2.438 l 0,1.928 c 0,0.674 0.339,1.305 0.904,1.675 0.129,0.084 0.265,0.152 0.407,0.203 l 0,1.739 c 0,0.029 0,0.058 0.002,0.088 C 1.656,8.105 1.383,8.2 1.134,8.354 0.544,8.717 0.187,9.361 0.187,10.053 l 0,2.03 c 0,0.865 0.555,1.632 1.376,1.901 0.606,0.199 1.233,0.351 1.868,0.452 0.633,0.101 1.27,0.152 1.893,0.152 1.913,0 3.391,-0.372 4.515,-1.136 0.431,-0.293 0.789,-0.639 1.086,-1.025 0.058,0.06 0.11,0.124 0.171,0.182 1.374,1.312 3.198,1.979 5.422,1.979 0.893,0 1.775,-0.097 2.628,-0.288 0.856,-0.193 1.689,-0.485 2.477,-0.868 0.689,-0.335 1.125,-1.035 1.125,-1.8 l 0,-4.908 c 0,-0.485 -0.172,-0.932 -0.46,-1.277 z M 8.714,11.799 c -0.775,0.526 -1.905,0.79 -3.391,0.79 -0.524,0 -1.049,-0.042 -1.576,-0.126 C 3.22,12.379 2.7,12.252 2.185,12.084 l 0,-2.03 c 0.492,0.246 0.981,0.432 1.466,0.557 0.485,0.125 0.963,0.188 1.432,0.188 0.697,0 1.231,-0.121 1.603,-0.362 C 7.058,10.196 7.243,9.849 7.243,9.398 7.243,8.933 7.053,8.581 6.672,8.342 6.291,8.103 5.731,7.981 4.988,7.981 l -1.052,0 0,-1.695 1.107,0 C 5.704,6.286 6.196,6.182 6.52,5.975 6.844,5.768 7.005,5.452 7.005,5.028 7.005,4.636 6.848,4.333 6.533,4.119 6.218,3.905 5.774,3.797 5.2,3.797 4.776,3.797 4.348,3.845 3.915,3.941 3.482,4.037 3.051,4.178 2.623,4.365 l 0,-1.928 C 3.143,2.291 3.658,2.182 4.168,2.109 4.678,2.036 5.18,2 5.672,2 6.998,2 7.99,2.217 8.649,2.652 9.308,3.087 9.637,3.742 9.637,4.617 9.637,5.214 9.48,5.703 9.165,6.083 8.85,6.463 8.386,6.732 7.771,6.887 8.459,7.065 8.982,7.373 9.34,7.813 9.698,8.253 9.877,8.812 9.877,9.491 9.876,10.503 9.489,11.272 8.714,11.799 z m 12.035,-0.168 c -0.656,0.319 -1.337,0.558 -2.044,0.718 -0.707,0.16 -1.436,0.239 -2.188,0.239 -1.7,0 -3.046,-0.475 -4.04,-1.425 -0.994,-0.95 -1.49,-2.239 -1.49,-3.866 0,-1.645 0.506,-2.939 1.518,-3.883 C 13.517,2.47 14.902,2 16.661,2 c 0.679,0 1.33,0.064 1.952,0.191 0.622,0.127 1.209,0.317 1.76,0.567 l 0,2.112 C 19.803,4.546 19.237,4.305 18.674,4.145 18.111,3.985 17.547,3.906 16.982,3.906 c -1.048,0 -1.856,0.293 -2.423,0.878 -0.567,0.585 -0.851,1.423 -0.851,2.512 0,1.08 0.273,1.914 0.82,2.502 0.547,0.588 1.324,0.882 2.331,0.882 0.273,0 0.527,-0.017 0.762,-0.051 0.235,-0.034 0.445,-0.088 0.632,-0.161 l 0,-1.981 -1.606,0 0,-1.764 4.102,0 0,4.908 z"
               id="path298"
               style="fill:#231f20" />
          </g>
        </g>
      </g>
    </g>
    <g
       transform="translate(0,0.615)"
       id="Layer_7">
      <g
         id="g301">
        <g
           id="g303">
          <linearGradient
             x1="6.0307999"
             y1="12.5884"
             x2="6.0307999"
             y2="1.9995"
             id="linearGradient4039"
             gradientUnits="userSpaceOnUse">
            <stop
               id="stop4041"
               style="stop-color:#9b9b9b;stop-opacity:1"
               offset="0" />
            <stop
               id="stop4043"
               style="stop-color:#ececec;stop-opacity:1"
               offset="1" />
          </linearGradient>
          <path
             d="m 7.771,6.887 c 0.688,0.178 1.211,0.486 1.569,0.926 0.358,0.44 0.537,0.999 0.537,1.678 0,1.012 -0.387,1.781 -1.162,2.307 C 7.94,12.324 6.81,12.588 5.324,12.588 4.8,12.588 4.275,12.546 3.748,12.462 3.221,12.378 2.701,12.251 2.186,12.083 l 0,-2.03 c 0.492,0.246 0.981,0.432 1.466,0.557 0.485,0.125 0.963,0.188 1.432,0.188 0.697,0 1.231,-0.121 1.603,-0.362 C 7.059,10.195 7.244,9.848 7.244,9.397 7.244,8.932 7.054,8.58 6.673,8.341 6.292,8.102 5.731,7.981 4.988,7.981 l -1.052,0 0,-1.695 1.107,0 C 5.704,6.286 6.196,6.182 6.52,5.975 6.844,5.768 7.005,5.452 7.005,5.028 7.005,4.636 6.848,4.333 6.533,4.119 6.218,3.905 5.774,3.797 5.2,3.797 4.776,3.797 4.348,3.845 3.915,3.941 3.482,4.037 3.051,4.178 2.623,4.365 l 0,-1.928 C 3.143,2.291 3.658,2.182 4.168,2.109 4.678,2.036 5.18,2 5.672,2 6.998,2 7.99,2.217 8.649,2.652 9.308,3.087 9.637,3.742 9.637,4.617 9.637,5.214 9.48,5.703 9.165,6.083 8.85,6.463 8.386,6.732 7.771,6.887 z"
             id="path310"
             style="fill:url(#SVGID_5_)" />
        </g>
        <g
           id="g312">
          <linearGradient
             x1="15.8682"
             y1="12.5884"
             x2="15.8682"
             y2="1.9995"
             id="linearGradient4047"
             gradientUnits="userSpaceOnUse">
            <stop
               id="stop4049"
               style="stop-color:#9b9b9b;stop-opacity:1"
               offset="0" />
            <stop
               id="stop4051"
               style="stop-color:#ececec;stop-opacity:1"
               offset="1" />
          </linearGradient>
          <path
             d="m 20.749,11.631 c -0.656,0.319 -1.337,0.558 -2.044,0.718 -0.707,0.16 -1.436,0.239 -2.188,0.239 -1.7,0 -3.046,-0.475 -4.04,-1.425 -0.994,-0.95 -1.49,-2.239 -1.49,-3.866 0,-1.645 0.506,-2.939 1.518,-3.883 C 13.517,2.47 14.902,2 16.661,2 c 0.679,0 1.33,0.064 1.952,0.191 0.622,0.127 1.209,0.317 1.76,0.567 l 0,2.112 C 19.803,4.546 19.237,4.305 18.674,4.145 18.111,3.985 17.547,3.906 16.982,3.906 c -1.048,0 -1.856,0.293 -2.423,0.878 -0.567,0.585 -0.851,1.423 -0.851,2.512 0,1.08 0.273,1.914 0.82,2.502 0.547,0.588 1.324,0.882 2.331,0.882 0.273,0 0.527,-0.017 0.762,-0.051 0.235,-0.034 0.445,-0.088 0.632,-0.161 l 0,-1.981 -1.606,0 0,-1.764 4.102,0 0,4.908 z"
             id="path319"
             style="fill:url(#SVGID_6_)" />
        </g>
      </g>
    </g>
  </g>
</svg>
