<?xml version="1.0" encoding="UTF-8" standalone="no"?>
<!-- Created with Inkscape (http://www.inkscape.org/) -->

<svg
   xmlns:svg="http://www.w3.org/2000/svg"
   xmlns="http://www.w3.org/2000/svg"
   xmlns:xlink="http://www.w3.org/1999/xlink"
   version="1.1"
   width="48"
   height="48"
   id="svg15668">
  <defs
     id="defs15670">
    <linearGradient
       x1="23.9995"
       y1="44.586899"
       x2="23.9995"
       y2="3.4565001"
       id="linearGradient2774"
       xlink:href="#SVGID_4_"
       gradientUnits="userSpaceOnUse" />
    <linearGradient
       x1="23.9995"
       y1="44.586899"
       x2="23.9995"
       y2="3.4565001"
       id="SVGID_4_"
       gradientUnits="userSpaceOnUse">
      <stop
         id="stop279"
         style="stop-color:#9b9b9b;stop-opacity:1"
         offset="0" />
      <stop
         id="stop281"
         style="stop-color:#ececec;stop-opacity:1"
         offset="1" />
    </linearGradient>
    <linearGradient
       x1="6.8573999"
       y1="12.2061"
       x2="6.8573999"
       y2="2"
       id="SVGID_5_"
       gradientUnits="userSpaceOnUse">
      <stop
         id="stop303"
         style="stop-color:#9b9b9b;stop-opacity:1"
         offset="0" />
      <stop
         id="stop305"
         style="stop-color:#ececec;stop-opacity:1"
         offset="1" />
    </linearGradient>
    <linearGradient
       x1="23.9995"
       y1="44.586899"
       x2="23.9995"
       y2="3.4565001"
       id="linearGradient15662"
       xlink:href="#SVGID_4_"
       gradientUnits="userSpaceOnUse" />
    <linearGradient
       x1="23.9995"
       y1="44.586899"
       x2="23.9995"
       y2="3.4565001"
       id="linearGradient15664"
       xlink:href="#SVGID_4_"
       gradientUnits="userSpaceOnUse" />
    <linearGradient
       x1="23.9995"
       y1="44.586899"
       x2="23.9995"
       y2="3.4565001"
       id="linearGradient15666"
       xlink:href="#SVGID_4_"
       gradientUnits="userSpaceOnUse" />
  </defs>
  <g
     id="layer1">
    <g
       transform="translate(0,0.707)"
       id="Layer_2"
       style="opacity:0.3">
      <g
         id="g238">
        <g
           id="g240">
          <path
             d="m 44.087,1.458 -5.74,0 c -2.158,0 -3.912,1.753 -3.912,3.912 l 0,5.169 c -0.548,-0.292 -1.164,-0.474 -1.827,-0.474 l -5.739,0 c -2.157,0 -3.913,1.756 -3.913,3.914 l 0,5.169 C 22.409,18.856 21.793,18.674 21.13,18.674 l -5.74,0 c -2.158,0 -3.912,1.756 -3.912,3.914 l 0,5.169 C 10.93,27.465 10.314,27.283 9.65,27.283 l -5.738,0 C 1.753,27.283 0,29.036 0,31.194 l 0,11.479 c 0,2.158 1.753,3.914 3.912,3.914 l 5.739,0 c 1.138,0 2.154,-0.496 2.87,-1.273 0.715,0.777 1.731,1.273 2.869,1.273 l 5.739,0 c 1.138,0 2.154,-0.496 2.869,-1.273 0.716,0.777 1.732,1.273 2.87,1.273 l 5.739,0 c 1.138,0 2.154,-0.496 2.869,-1.273 0.716,0.777 1.731,1.273 2.87,1.273 l 5.74,0 c 2.157,0 3.911,-1.754 3.911,-3.912 l 0,-37.305 C 47.998,3.211 46.244,1.458 44.087,1.458 z M 11.564,42.674 c 0,1.057 -0.857,1.913 -1.913,1.913 l -5.739,0 c -1.057,0 -1.913,-0.856 -1.913,-1.913 l 0,-11.479 c 0,-1.057 0.856,-1.913 1.913,-1.913 l 5.739,0 c 1.056,0 1.913,0.856 1.913,1.913 l 0,11.479 z m 11.478,0 c 0,1.057 -0.856,1.913 -1.913,1.913 l -5.739,0 c -1.056,0 -1.913,-0.856 -1.913,-1.913 l 0,-20.087 c 0,-1.057 0.857,-1.913 1.913,-1.913 l 5.739,0 c 1.057,0 1.913,0.856 1.913,1.913 l 0,20.087 z m 11.479,0 c 0,1.057 -0.856,1.913 -1.913,1.913 l -5.739,0 c -1.056,0 -1.913,-0.856 -1.913,-1.913 l 0,-28.696 c 0,-1.057 0.857,-1.913 1.913,-1.913 l 5.739,0 c 1.057,0 1.913,0.856 1.913,1.913 l 0,28.696 z m 11.478,0 c 0,1.057 -0.856,1.913 -1.913,1.913 l -5.739,0 c -1.057,0 -1.913,-0.856 -1.913,-1.913 l 0,-37.305 c 0,-1.056 0.856,-1.913 1.913,-1.913 l 5.739,0 c 1.057,0 1.913,0.857 1.913,1.913 l 0,37.305 z"
             id="path242" />
        </g>
      </g>
    </g>
    <g
       transform="translate(0,0.707)"
       id="g2825">
      <path
         d="m 21.129,20.674 -5.739,0 c -1.056,0 -1.913,0.856 -1.913,1.913 l 0,20.087 c 0,1.057 0.857,1.913 1.913,1.913 l 5.739,0 c 1.057,0 1.913,-0.856 1.913,-1.913 l 0,-20.087 c 0,-1.057 -0.856,-1.913 -1.913,-1.913 z"
         id="path2813"
         style="fill:url(#linearGradient15662)" />
      <path
         d="m 21.129,20.674 -5.739,0 c -1.056,0 -1.913,0.856 -1.913,1.913 l 0,20.087 c 0,0.432 0.148,0.825 0.389,1.145 -0.087,-0.219 -0.139,-0.457 -0.139,-0.707 l 0,-20.088 c 0,-1.057 0.857,-1.913 1.913,-1.913 l 5.739,0 c 0.625,0 1.175,0.304 1.524,0.769 -0.281,-0.706 -0.967,-1.206 -1.774,-1.206 z"
         id="path2807"
         style="opacity:0.4;fill:#ffffff" />
    </g>
    <g
       transform="translate(0,0.707)"
       id="g2817">
      <path
         d="m 44.086,3.456 -5.739,0 c -1.057,0 -1.913,0.857 -1.913,1.913 l 0,37.305 c 0,1.057 0.856,1.913 1.913,1.913 l 5.739,0 c 1.057,0 1.913,-0.856 1.913,-1.913 l 0,-37.305 c 0,-1.056 -0.856,-1.913 -1.913,-1.913 z"
         id="path283"
         style="fill:url(#linearGradient15664)" />
      <path
         d="m 44.086,3.456 -5.739,0 c -1.057,0 -1.913,0.857 -1.913,1.913 l 0,37.305 c 0,0.432 0.147,0.825 0.389,1.145 -0.087,-0.219 -0.139,-0.457 -0.139,-0.707 l 0,-37.305 c 0,-1.056 0.856,-1.913 1.913,-1.913 l 5.739,0 c 0.625,0 1.175,0.305 1.524,0.769 C 45.579,3.957 44.893,3.456 44.086,3.456 z"
         id="path2805"
         style="opacity:0.4;fill:#ffffff" />
    </g>
    <g
       transform="translate(0,0.707)"
       id="g2829">
      <path
         d="m 9.651,29.282 -5.739,0 c -1.057,0 -1.913,0.856 -1.913,1.913 l 0,11.479 c 0,1.057 0.856,1.913 1.913,1.913 l 5.739,0 c 1.056,0 1.913,-0.856 1.913,-1.913 l 0,-11.479 c 0,-1.056 -0.856,-1.913 -1.913,-1.913 z"
         id="path2815"
         style="fill:url(#linearGradient15666)" />
      <path
         d="m 9.651,29.282 -5.739,0 c -1.057,0 -1.913,0.856 -1.913,1.913 l 0,11.479 c 0,0.432 0.148,0.825 0.389,1.145 C 2.3,43.6 2.249,43.361 2.249,43.111 l 0,-11.478 c 0,-1.057 0.856,-1.913 1.913,-1.913 l 5.739,0 c 0.625,0 1.175,0.305 1.524,0.769 -0.281,-0.707 -0.968,-1.207 -1.774,-1.207 z"
         id="path2803"
         style="opacity:0.4;fill:#ffffff" />
    </g>
    <g
       transform="translate(0,0.707)"
       id="g2821">
      <path
         d="m 32.607,12.065 -5.739,0 c -1.056,0 -1.913,0.856 -1.913,1.913 l 0,28.696 c 0,1.057 0.857,1.913 1.913,1.913 l 5.739,0 c 1.057,0 1.913,-0.856 1.913,-1.913 l 0,-28.696 c 10e-4,-1.057 -0.856,-1.913 -1.913,-1.913 z"
         id="path2811"
         style="fill:url(#linearGradient2774)" />
      <path
         d="m 32.607,12.065 -5.739,0 c -1.056,0 -1.913,0.856 -1.913,1.913 l 0,28.696 c 0,0.431 0.148,0.824 0.389,1.145 -0.087,-0.219 -0.139,-0.457 -0.139,-0.707 l 0,-28.696 c 0,-1.057 0.857,-1.913 1.913,-1.913 l 5.739,0 c 0.625,0 1.175,0.304 1.524,0.768 -0.28,-0.706 -0.967,-1.206 -1.774,-1.206 z"
         id="path290"
         style="opacity:0.4;fill:#ffffff" />
    </g>
    <g
       transform="translate(0,0.707)"
       id="Layer_6_copy">
      <g
         id="g293"
         style="opacity:0.3">
        <g
           id="g295">
          <path
             d="M 11.432,0 8.799,0 C 7.858,0 7.071,0.647 6.857,1.521 6.644,0.647 5.857,0 4.916,0 L 2.283,0 C 1.178,0 0.284,0.894 0.284,2 l 0,10.207 c 0,1.105 0.894,1.999 1.999,1.999 l 2.632,0 c 0.941,0 1.729,-0.647 1.942,-1.521 0.214,0.874 1.001,1.521 1.942,1.521 l 2.632,0 c 1.105,0 2,-0.894 2,-1.999 L 13.431,2 c 0,-1.106 -0.894,-2 -1.999,-2 z m -0.001,12.206 -2.632,0 0,-4.327 -3.883,0 0,4.327 -2.632,0 0,-10.206 2.632,0 0,3.89 3.883,0 0,-3.89 2.632,0 0,10.206 z"
             id="path297" />
        </g>
      </g>
    </g>
    <g
       transform="translate(0,0.707)"
       id="Layer_11">
      <g
         id="g300">
        <linearGradient
           x1="6.8573999"
           y1="12.2061"
           x2="6.8573999"
           y2="2"
           id="linearGradient15655"
           gradientUnits="userSpaceOnUse">
          <stop
             id="stop15657"
             style="stop-color:#9b9b9b;stop-opacity:1"
             offset="0" />
          <stop
             id="stop15659"
             style="stop-color:#ececec;stop-opacity:1"
             offset="1" />
        </linearGradient>
        <path
           d="m 2.284,2 2.632,0 0,3.89 3.883,0 0,-3.89 2.632,0 0,10.206 -2.632,0 0,-4.327 -3.883,0 0,4.327 -2.632,0 0,-10.206 z"
           id="path307"
           style="fill:url(#SVGID_5_)" />
      </g>
    </g>
  </g>
</svg>
