<?xml version="1.0" encoding="UTF-8" standalone="no"?>
<!-- Created with Inkscape (http://www.inkscape.org/) -->

<svg
   xmlns:svg="http://www.w3.org/2000/svg"
   xmlns="http://www.w3.org/2000/svg"
   version="1.1"
   width="48"
   height="48"
   id="svg4255">
  <defs
     id="defs4257">
    <linearGradient
       x1="38.815399"
       y1="35.006302"
       x2="15.8338"
       y2="3.3749001"
       id="SVGID_1_"
       gradientUnits="userSpaceOnUse">
      <stop
         id="stop2296"
         style="stop-color:#9b9b9b;stop-opacity:1"
         offset="0" />
      <stop
         id="stop2298"
         style="stop-color:#ececec;stop-opacity:1"
         offset="1" />
    </linearGradient>
    <linearGradient
       x1="29.6143"
       y1="25.2192"
       x2="29.6143"
       y2="41.2192"
       id="SVGID_2_"
       gradientUnits="userSpaceOnUse">
      <stop
         id="stop2329"
         style="stop-color:#ff6363;stop-opacity:1"
         offset="0" />
      <stop
         id="stop2331"
         style="stop-color:#cc0000;stop-opacity:1"
         offset="1" />
    </linearGradient>
  </defs>
  <g
     id="layer1">
    <g
       transform="translate(0,2.819)"
       id="Layer_2">
      <g
         id="g2286"
         style="opacity:0.3">
        <g
           id="g2288">
          <path
             d="m 44.842,12.742 c 1.741,0 3.156,-1.416 3.156,-3.157 l 0,-1.545 c 0,-1.741 -1.415,-3.157 -3.156,-3.157 l -9.71,0 0,-1.988 C 35.132,1.297 33.834,0 32.239,0 L 22.233,0 C 22.045,0 21.856,0.019 21.668,0.058 14.168,0.64 7.857,5.604 5.486,12.641 l -1.958,0 C 1.583,12.641 0,14.224 0,16.171 l 0,4.896 c 0,1.945 1.583,3.528 3.528,3.528 l 1.96,0 c 2.368,7.037 8.68,12.002 16.179,12.583 0.188,0.039 0.378,0.058 0.565,0.058 l 10.006,0 c 1.595,0 2.893,-1.297 2.893,-2.893 l 0,-1.988 9.71,0 c 1.741,0 3.156,-1.418 3.156,-3.159 l 0,-1.543 c 0,-1.741 -1.415,-3.157 -3.156,-3.157 l -9.71,0 0,-11.754 9.711,0 z m -10e-4,13.753 c 0.64,0 1.158,0.519 1.158,1.158 l 0,1.544 c 0,0.64 -0.519,1.158 -1.158,1.158 l -11.708,0 0,3.989 c 0,0.492 -0.399,0.893 -0.894,0.893 l -10.007,0 c -0.087,0 -0.17,-0.016 -0.25,-0.04 C 14.685,34.701 8.681,29.497 6.986,22.596 l -3.457,0 c -0.845,0 -1.53,-0.685 -1.53,-1.529 l 0,-4.897 c 0,-0.845 0.685,-1.53 1.53,-1.53 l 3.458,0 C 8.682,7.741 14.686,2.536 21.982,2.04 22.062,2.016 22.145,2 22.232,2 l 10.007,0 c 0.494,0 0.894,0.4 0.894,0.894 l 0,3.988 11.708,0 c 0.64,0 1.158,0.519 1.158,1.158 l 0,1.544 c 0,0.639 -0.519,1.158 -1.158,1.158 l -11.708,0 0,15.751 11.708,0 0,0.002 z"
             id="path2290" />
        </g>
      </g>
    </g>
    <g
       transform="translate(0,2.819)"
       id="Layer_1">
      <g
         id="g2293">
        <linearGradient
           x1="38.815399"
           y1="35.006302"
           x2="15.8338"
           y2="3.3749001"
           id="linearGradient4222"
           gradientUnits="userSpaceOnUse">
          <stop
             id="stop4224"
             style="stop-color:#9b9b9b;stop-opacity:1"
             offset="0" />
          <stop
             id="stop4226"
             style="stop-color:#ececec;stop-opacity:1"
             offset="1" />
        </linearGradient>
        <path
           d="m 44.841,10.743 c 0.64,0 1.158,-0.519 1.158,-1.158 l 0,-1.544 c 0,-0.64 -0.519,-1.158 -1.158,-1.158 l -11.708,0 0,-3.989 C 33.133,2.4 32.733,2 32.239,2 L 22.232,2 c -0.087,0 -0.17,0.016 -0.25,0.04 -7.296,0.496 -13.3,5.701 -14.995,12.601 l -3.458,0 c -0.845,0 -1.53,0.685 -1.53,1.53 l 0,4.896 c 0,0.845 0.685,1.529 1.53,1.529 l 3.458,0 c 1.695,6.9 7.699,12.104 14.996,12.601 0.08,0.024 0.163,0.04 0.25,0.04 l 10.007,0 c 0.494,0 0.894,-0.4 0.894,-0.893 l 0,-3.989 11.708,0 c 0.64,0 1.158,-0.519 1.158,-1.158 l 0,-1.544 c 0,-0.64 -0.519,-1.158 -1.158,-1.158 l -11.709,0 0,-15.752 11.708,0 z"
           id="path2300"
           style="fill:url(#SVGID_1_)" />
      </g>
    </g>
    <g
       transform="translate(0,2.819)"
       id="Layer_3" />
    <g
       transform="translate(0,2.819)"
       id="Layer_4">
      <g
         id="g2304"
         style="opacity:0.4">
        <path
           d="M 45.959,7.842 C 45.861,7.301 45.41,6.883 44.841,6.883 l -11.093,0 0,0.833 11.708,0 c 0.183,0 0.35,0.051 0.503,0.126 z m -1.118,18.653 -11.093,0 0,0.834 11.708,0 c 0.183,0 0.35,0.051 0.503,0.126 -0.097,-0.541 -0.549,-0.96 -1.118,-0.96 z M 7.228,23.43 c 0.606,2.004 1.578,3.846 2.842,5.451 C 8.943,27.249 8.09,25.413 7.603,23.43 l -0.375,0 z M 32.239,2 22.232,2 c -0.087,0 -0.17,0.016 -0.25,0.04 -7.296,0.496 -13.3,5.701 -14.995,12.601 l -3.458,0 c -0.845,0 -1.53,0.685 -1.53,1.53 l 0,4.896 c 0,0.533 0.274,1.002 0.688,1.275 C 2.645,22.201 2.615,22.055 2.615,21.901 l 0,-4.897 c 0,-0.845 0.685,-1.53 1.53,-1.53 l 3.458,0 C 9.297,8.575 15.301,3.37 22.598,2.874 c 0.08,-0.024 0.163,-0.04 0.25,-0.04 l 10.007,0 c 0.099,0 0.188,0.026 0.277,0.056 C 33.129,2.397 32.731,2 32.239,2 z"
           id="path2306"
           style="fill:#ffffff" />
      </g>
    </g>
    <g
       transform="translate(0,2.819)"
       id="Layer_5" />
    <g
       transform="translate(0,2.819)"
       id="Layer_6">
      <g
         id="g2310"
         style="opacity:0.2">
        <g
           id="g2312">
          <path
             d="m 44.841,10.743 c 0.64,0 1.158,-0.519 1.158,-1.158 l 0,-1.544 c 0,-0.64 -0.519,-1.158 -1.158,-1.158 l -11.708,0 0,-3.989 C 33.133,2.4 32.733,2 32.239,2 L 22.232,2 c -0.087,0 -0.17,0.016 -0.25,0.04 -7.296,0.496 -13.3,5.701 -14.995,12.601 l -3.458,0 c -0.845,0 -1.53,0.685 -1.53,1.53 l 0,4.896 c 0,0.845 0.685,1.529 1.53,1.529 l 3.458,0 c 1.695,6.9 7.699,12.104 14.996,12.601 0.08,0.024 0.163,0.04 0.25,0.04 l 10.007,0 c 0.494,0 0.894,-0.4 0.894,-0.893 l 0,-3.989 11.708,0 c 0.64,0 1.158,-0.519 1.158,-1.158 l 0,-1.544 c 0,-0.64 -0.519,-1.158 -1.158,-1.158 l -11.709,0 0,-15.752 11.708,0 z m -11.708,16.751 11.707,0 c 0.089,0 0.159,0.07 0.159,0.159 l 0,1.545 c 0,0.088 -0.07,0.156 -0.159,0.156 l -11.707,0 c -0.553,0 -1,0.447 -1,1 l 0,3.884 -9.9,0 C 22.165,34.217 22.124,34.205 22.051,34.199 15.248,33.736 9.585,28.979 7.958,22.357 7.849,21.912 7.446,21.596 6.986,21.596 l -3.458,0 c -0.293,0 -0.53,-0.237 -0.53,-0.53 l 0,-4.896 c 0,-0.292 0.237,-0.53 0.53,-0.53 l 3.458,0 c 0.46,0 0.862,-0.315 0.972,-0.761 C 9.585,8.258 15.248,3.5 22.051,3.039 22.123,3.033 22.216,3.014 22.284,2.994 L 32.133,3 l 0,3.883 c 0,0.553 0.447,1 1,1 l 11.707,0 c 0.089,0 0.159,0.07 0.159,0.159 l 0,1.542 c 0,0.089 -0.07,0.159 -0.159,0.159 l -11.707,0 c -0.553,0 -1,0.448 -1,1 l 0,15.751 c 0,0.552 0.447,1 1,1 z"
             id="path2314"
             style="fill:#ffffff" />
        </g>
      </g>
    </g>
    <g
       transform="translate(0,2.819)"
       id="Layer_7">
      <line
         x1="28.281"
         y1="5.862"
         x2="28.281"
         y2="30.695999"
         id="line2317"
         style="fill:none;stroke:#919191" />
      <line
         x1="29.052"
         y1="5.862"
         x2="29.052"
         y2="30.695999"
         id="line2319"
         style="opacity:0.3;fill:none;stroke:#ffffff" />
      <line
         x1="25.281"
         y1="5.862"
         x2="25.281"
         y2="30.695999"
         id="line2321"
         style="fill:none;stroke:#919191" />
      <line
         x1="26.052"
         y1="5.862"
         x2="26.052"
         y2="30.695999"
         id="line2323"
         style="opacity:0.3;fill:none;stroke:#ffffff" />
    </g>
    <g
       transform="translate(0,2.819)"
       id="Layer_8">
      <path
         d="m 34.546,42.362 c -0.373,0 -0.723,-0.145 -0.979,-0.405 l -3.244,-3.241 c -0.195,-0.195 -0.451,-0.293 -0.707,-0.293 -0.256,0 -0.512,0.098 -0.707,0.293 l -3.242,3.239 c -0.253,0.255 -0.621,0.407 -0.985,0.407 -0.364,0 -0.711,-0.143 -0.979,-0.398 l -2.681,-2.686 c -0.259,-0.252 -0.409,-0.616 -0.409,-0.986 0,-0.359 0.154,-0.726 0.409,-0.98 l 3.24,-3.242 c 0.391,-0.391 0.391,-1.023 0,-1.414 l -3.238,-3.24 c -0.536,-0.54 -0.541,-1.424 -0.006,-1.967 l 2.678,-2.674 c 0.266,-0.268 0.615,-0.414 0.985,-0.414 0.376,0 0.725,0.148 0.989,0.416 l 3.238,3.234 c 0.195,0.195 0.451,0.295 0.707,0.295 0.256,0 0.512,-0.1 0.707,-0.295 l 3.24,-3.236 c 0.252,-0.262 0.613,-0.412 0.982,-0.412 0.365,0 0.725,0.15 0.986,0.412 l 2.672,2.672 c 0.262,0.252 0.412,0.617 0.412,0.984 0,0.361 -0.154,0.729 -0.41,0.982 l -3.239,3.242 c -0.391,0.391 -0.391,1.023 0,1.414 l 3.237,3.24 c 0.266,0.263 0.412,0.612 0.412,0.982 0,0.379 -0.143,0.719 -0.41,0.984 l -2.672,2.677 c -0.265,0.267 -0.606,0.41 -0.986,0.41 l 0,0 z"
         id="path2326" />
      <linearGradient
         x1="29.6143"
         y1="25.2192"
         x2="29.6143"
         y2="41.2192"
         id="linearGradient4245"
         gradientUnits="userSpaceOnUse">
        <stop
           id="stop4247"
           style="stop-color:#ff6363;stop-opacity:1"
           offset="0" />
        <stop
           id="stop4249"
           style="stop-color:#cc0000;stop-opacity:1"
           offset="1" />
      </linearGradient>
      <path
         d="m 32.847,33.22 4.652,-4.653 c 0.074,-0.073 0.115,-0.175 0.115,-0.278 0,-0.103 -0.041,-0.205 -0.115,-0.279 l -2.674,-2.674 c -0.074,-0.074 -0.176,-0.115 -0.279,-0.115 -0.103,0 -0.205,0.041 -0.277,0.115 l -4.654,4.652 -4.653,-4.652 c -0.153,-0.154 -0.402,-0.154 -0.557,0 l -2.674,2.674 c -0.154,0.154 -0.154,0.404 0,0.558 l 4.653,4.653 -4.654,4.652 c -0.073,0.073 -0.115,0.175 -0.115,0.278 0,0.103 0.042,0.205 0.115,0.278 l 2.675,2.675 c 0.073,0.073 0.175,0.115 0.278,0.115 0.104,0 0.206,-0.042 0.278,-0.115 l 4.653,-4.652 4.654,4.652 c 0.074,0.074 0.172,0.115 0.277,0.115 0.105,0 0.205,-0.041 0.279,-0.115 l 2.674,-2.675 c 0.074,-0.074 0.115,-0.173 0.115,-0.278 0,-0.105 -0.041,-0.204 -0.115,-0.278 L 32.847,33.22 z"
         id="path2333"
         style="fill:url(#SVGID_2_)" />
      <g
         id="g2335"
         style="opacity:0.4">
        <g
           id="g2337">
          <path
             d="m 27.071,33.595 -4.653,-4.653 c -0.154,-0.153 -0.154,-0.403 0,-0.558 l 2.674,-2.674 c 0.044,-0.044 0.098,-0.072 0.153,-0.091 l -0.284,-0.284 c -0.153,-0.153 -0.402,-0.153 -0.557,0 L 21.73,28.01 c -0.154,0.154 -0.154,0.403 0,0.557 l 4.653,4.652 -4.654,4.653 c -0.073,0.073 -0.115,0.175 -0.115,0.278 0,0.103 0.042,0.205 0.115,0.278 l 2.675,2.675 c 0.073,0.073 0.175,0.115 0.278,0.115 0.043,0 0.084,-0.012 0.125,-0.025 l -2.39,-2.39 c -0.073,-0.073 -0.115,-0.175 -0.115,-0.278 0,-0.103 0.042,-0.205 0.115,-0.278 l 4.654,-4.652 z m 7.754,-8.26 c -0.074,-0.073 -0.176,-0.115 -0.279,-0.115 -0.103,0 -0.205,0.042 -0.277,0.115 l -4.498,4.497 0.531,0.53 4.654,-4.652 c 0.042,-0.044 0.096,-0.071 0.152,-0.091 l -0.283,-0.284 z m -4.679,11.648 4.123,4.121 c 0.074,0.074 0.172,0.115 0.277,0.115 0.044,0 0.086,-0.012 0.125,-0.024 l -4.369,-4.368 -0.156,0.156 z"
             id="path2339"
             style="fill:#ffffff" />
        </g>
      </g>
    </g>
  </g>
</svg>
