<?xml version="1.0" encoding="UTF-8" standalone="no"?>
<!-- Created with Inkscape (http://www.inkscape.org/) -->

<svg
   xmlns:svg="http://www.w3.org/2000/svg"
   xmlns="http://www.w3.org/2000/svg"
   version="1.1"
   width="48"
   height="48"
   id="svg8855">
  <defs
     id="defs8857">
    <linearGradient
       x1="36.694302"
       y1="52.752899"
       x2="7.0581999"
       y2="11.9624"
       id="SVGID_1_"
       gradientUnits="userSpaceOnUse">
      <stop
         id="stop541"
         style="stop-color:#9b9b9b;stop-opacity:1"
         offset="0" />
      <stop
         id="stop543"
         style="stop-color:#ececec;stop-opacity:1"
         offset="1" />
    </linearGradient>
  </defs>
  <g
     id="layer1">
    <g
       transform="translate(-4.4395155e-4,0.005)"
       id="Layer_2"
       style="opacity:0.3">
      <g
         id="g531">
        <g
           id="g533">
          <path
             d="M 33.414,26.906 C 31.932,26.603 30.1,26.363 28.346,26.203 33.561,24.212 37.684,19.097 37.684,13.752 37.684,6.812 30.924,0 24.035,0 17.073,0 10.242,6.879 10.242,13.891 c 0,5.396 3.935,10.414 9.029,12.348 -1.607,0.156 -3.256,0.379 -4.614,0.654 C 1.476,29.564 0.18,38.115 0,45.92 c -0.025,1.066 0.796,1.963 1.857,2.041 0.215,0.018 0.427,0.029 0.644,0.029 l 43.5,0 c 0.537,0 1.055,-0.217 1.43,-0.6 0.375,-0.387 0.582,-0.906 0.568,-1.443 C 47.83,38.145 46.547,29.594 33.414,26.906 z M 12.241,13.892 c 0,-5.821 5.881,-11.893 11.793,-11.893 5.915,0 11.649,5.933 11.649,11.754 0,5.824 -6.023,11.324 -11.938,11.324 C 17.833,25.076 12.241,19.716 12.241,13.892 z m -9.74,32.1 C 2.332,45.992 2.166,45.978 2,45.967 2.189,37.725 3.704,31.155 15.055,28.852 c 2.842,-0.574 6.845,-0.883 8.943,-0.883 2.117,0 6.154,0.312 9.017,0.898 C 44.342,31.184 45.82,37.756 46,45.992 l -43.499,0 z"
             id="path535" />
        </g>
      </g>
    </g>
    <g
       transform="translate(-4.4395155e-4,0.005)"
       id="Layer_1">
      <g
         id="g538">
        <linearGradient
           x1="36.694302"
           y1="52.752899"
           x2="7.0581999"
           y2="11.9624"
           id="linearGradient8843"
           gradientUnits="userSpaceOnUse">
          <stop
             id="stop8845"
             style="stop-color:#9b9b9b;stop-opacity:1"
             offset="0" />
          <stop
             id="stop8847"
             style="stop-color:#ececec;stop-opacity:1"
             offset="1" />
        </linearGradient>
        <path
           d="m 23.746,25.076 c 5.915,0 11.938,-5.5 11.938,-11.324 0,-5.821 -5.734,-11.754 -11.649,-11.754 -5.913,0 -11.793,6.072 -11.793,11.893 -0.001,5.825 5.591,11.185 11.504,11.185 z m 9.27,3.791 c -2.863,-0.586 -6.9,-0.898 -9.017,-0.898 -2.098,0 -6.101,0.309 -8.943,0.883 C 3.704,31.154 2.189,37.725 2,45.967 c 0.166,0.012 0.332,0.025 0.501,0.025 l 43.499,0 C 45.82,37.756 44.342,31.184 33.016,28.867 z"
           id="path545"
           style="fill:url(#SVGID_1_)" />
      </g>
    </g>
    <g
       transform="translate(-4.4395155e-4,0.005)"
       id="Layer_3" />
    <g
       transform="translate(-4.4395155e-4,0.005)"
       id="Layer_4">
      <g
         id="g549"
         style="opacity:0.4">
        <g
           id="g551">
          <path
             d="m 33.016,28.867 c -2.863,-0.586 -6.9,-0.898 -9.017,-0.898 -2.098,0 -6.101,0.309 -8.943,0.883 C 3.704,31.154 2.189,37.725 2,45.967 2.116,45.975 2.234,45.98 2.352,45.985 2.61,38.047 4.336,31.759 15.389,29.517 c 2.842,-0.574 6.845,-0.883 8.943,-0.883 2.118,0 6.155,0.312 9.018,0.898 5.992,1.226 9.228,3.644 10.973,6.868 -1.655,-3.557 -4.91,-6.224 -11.307,-7.533 z M 12.574,14.557 c 0,-5.821 5.881,-11.893 11.793,-11.893 4.223,0 8.341,3.027 10.36,6.874 -1.872,-4.159 -6.229,-7.539 -10.692,-7.539 -5.913,0 -11.793,6.072 -11.793,11.893 0,1.651 0.461,3.259 1.24,4.724 -0.577,-1.282 -0.908,-2.656 -0.908,-4.059 z"
             id="path553"
             style="fill:#ffffff" />
        </g>
      </g>
    </g>
  </g>
</svg>
