<?xml version="1.0" encoding="UTF-8" standalone="no"?>
<!-- Created with Inkscape (http://www.inkscape.org/) -->

<svg
   xmlns:svg="http://www.w3.org/2000/svg"
   xmlns="http://www.w3.org/2000/svg"
   version="1.1"
   width="48"
   height="48"
   id="svg9184">
  <defs
     id="defs9186">
    <linearGradient
       x1="38.024899"
       y1="35.3027"
       x2="9.9754"
       y2="-3.3041"
       id="SVGID_1_"
       gradientUnits="userSpaceOnUse">
      <stop
         id="stop248"
         style="stop-color:#878787;stop-opacity:1"
         offset="0" />
      <stop
         id="stop250"
         style="stop-color:#8f8f8f;stop-opacity:1"
         offset="0.2527" />
      <stop
         id="stop252"
         style="stop-color:#a1a1a1;stop-opacity:1"
         offset="0.34889999" />
      <stop
         id="stop254"
         style="stop-color:#cdcdcd;stop-opacity:1"
         offset="0.6085" />
      <stop
         id="stop256"
         style="stop-color:#e8e8e8;stop-opacity:1"
         offset="0.81040001" />
      <stop
         id="stop258"
         style="stop-color:#f2f2f2;stop-opacity:1"
         offset="0.92860001" />
    </linearGradient>
  </defs>
  <g
     id="layer1">
    <g
       transform="translate(0,8.001)"
       id="Layer_2"
       style="opacity:0.3">
      <g
         id="g238">
        <g
           id="g240">
          <path
             d="M 44.999,0 3,0 C 1.345,0 0,1.345 0,3 l 0,25.998 c 0,1.654 1.345,3 3,3 l 41.999,0 c 1.655,0 3,-1.346 3,-3 L 47.999,3 c 0,-1.655 -1.345,-3 -3,-3 z M 46,28.999 c 0,0.553 -0.447,1 -1,1 l -42,0 c -0.552,0 -1,-0.447 -1,-1 l 0,-26 c 0,-0.552 0.448,-1 1,-1 l 42,0 c 0.553,0 1,0.448 1,1 l 0,26 z"
             id="path242" />
        </g>
      </g>
    </g>
    <g
       transform="translate(0,8.001)"
       id="Layer_3">
      <g
         id="g245">
        <linearGradient
           x1="38.024899"
           y1="35.3027"
           x2="9.9754"
           y2="-3.3041"
           id="linearGradient9150"
           gradientUnits="userSpaceOnUse">
          <stop
             id="stop9152"
             style="stop-color:#878787;stop-opacity:1"
             offset="0" />
          <stop
             id="stop9154"
             style="stop-color:#8f8f8f;stop-opacity:1"
             offset="0.2527" />
          <stop
             id="stop9156"
             style="stop-color:#a1a1a1;stop-opacity:1"
             offset="0.34889999" />
          <stop
             id="stop9158"
             style="stop-color:#cdcdcd;stop-opacity:1"
             offset="0.6085" />
          <stop
             id="stop9160"
             style="stop-color:#e8e8e8;stop-opacity:1"
             offset="0.81040001" />
          <stop
             id="stop9162"
             style="stop-color:#f2f2f2;stop-opacity:1"
             offset="0.92860001" />
        </linearGradient>
        <path
           d="m 46,28.999 c 0,0.553 -0.447,1 -1,1 l -42,0 c -0.552,0 -1,-0.447 -1,-1 l 0,-26 c 0,-0.552 0.448,-1 1,-1 l 42,0 c 0.553,0 1,0.448 1,1 l 0,26 z"
           id="path260"
           style="fill:url(#SVGID_1_)" />
      </g>
    </g>
    <g
       transform="translate(0,8.001)"
       id="Layer_5" />
    <g
       transform="translate(0,8.001)"
       id="Layer_4">
      <g
         id="g264"
         style="opacity:0.4">
        <g
           id="g266">
          <path
             d="m 2.625,29.749 0,-26 c 0,-0.552 0.448,-1 1,-1 l 42,0 c 0.12,0 0.231,0.03 0.338,0.068 C 45.875,2.355 45.488,1.999 45,1.999 l -42,0 c -0.552,0 -1,0.448 -1,1 l 0,26 c 0,0.433 0.278,0.792 0.662,0.932 C 2.649,29.87 2.625,29.813 2.625,29.749 z"
             id="path268"
             style="fill:#ffffff" />
        </g>
      </g>
    </g>
    <g
       transform="translate(0,8.001)"
       id="Layer_4_copy">
      <g
         id="g271"
         style="opacity:0.2">
        <g
           id="g273">
          <path
             d="m 45,1.999 -42,0 c -0.552,0 -1,0.448 -1,1 l 0,26 c 0,0.553 0.448,1 1,1 l 42,0 c 0.553,0 1,-0.447 1,-1 l 0,-26 c 0,-0.552 -0.448,-1 -1,-1 z m 0.18,26.306 c 0,0.521 -0.423,0.944 -0.944,0.944 l -40.667,0 c -0.521,0 -0.944,-0.423 -0.944,-0.944 l 0,-24.612 c 0,-0.521 0.423,-0.944 0.944,-0.944 l 40.667,0 c 0.521,0 0.944,0.423 0.944,0.944 l 0,24.612 0,0 z"
             id="path275"
             style="fill:#ffffff" />
        </g>
      </g>
    </g>
    <g
       transform="translate(0,8.001)"
       id="Layer_1">
      <rect
         width="20"
         height="1"
         x="5.5"
         y="15.874"
         id="rect5272"
         style="opacity:0.61780001;fill:#2a2a2a" />
      <rect
         width="25"
         height="1"
         x="5.5"
         y="19.874001"
         id="rect5274"
         style="opacity:0.61780001;fill:#2a2a2a" />
      <rect
         width="17"
         height="1"
         x="5.5"
         y="23.874001"
         id="rect5276"
         style="opacity:0.61780001;fill:#2a2a2a" />
      <g
         id="g281">
        <rect
           width="7"
           height="8"
           x="35"
           y="5.8740001"
           id="rect5270"
           style="opacity:0.61780001;fill:#2a2a2a" />
        <path
           d="m 42,5.874 0,8.017 -7,0 0,0.983 8,0 0,-9 -1,0 0,0 z"
           id="rect3197"
           style="opacity:0.33000004;fill:#ffffff" />
      </g>
      <rect
         width="20"
         height="1"
         x="5.5"
         y="16.874001"
         id="rect3186"
         style="opacity:0.18999999;fill:#ffffff" />
      <rect
         width="25"
         height="1"
         x="5.5"
         y="20.874001"
         id="rect3188"
         style="opacity:0.18999999;fill:#ffffff" />
      <rect
         width="17"
         height="1"
         x="5.5"
         y="24.874001"
         id="rect3190"
         style="opacity:0.18999999;fill:#ffffff" />
    </g>
  </g>
</svg>
