<?xml version="1.0" encoding="UTF-8" standalone="no"?>
<!-- Created with Inkscape (http://www.inkscape.org/) -->

<svg
   xmlns:svg="http://www.w3.org/2000/svg"
   xmlns="http://www.w3.org/2000/svg"
   version="1.1"
   width="48"
   height="48"
   id="svg4187">
  <defs
     id="defs4189">
    <linearGradient
       x1="37.1763"
       y1="55.944801"
       x2="8.1525002"
       y2="5.6740999"
       id="SVGID_1_"
       gradientUnits="userSpaceOnUse">
      <stop
         id="stop246"
         style="stop-color:#666666;stop-opacity:1"
         offset="0" />
      <stop
         id="stop248"
         style="stop-color:#b6b6b6;stop-opacity:1"
         offset="0.56150001" />
      <stop
         id="stop250"
         style="stop-color:#ffffff;stop-opacity:1"
         offset="1" />
    </linearGradient>
  </defs>
  <g
     id="layer1">
    <g
       transform="matrix(1.0000417,0,0,1.0000417,0,2.4912062)"
       id="Layer_2">
      <g
         id="g238"
         style="opacity:0.3">
        <g
           id="g240">
          <path
             d="m 3.685,28.018 40.646,0 c 1.195,-0.013 2.268,-0.73 2.73,-1.822 0.47,-1.098 0.243,-2.368 -0.56,-3.221 L 26.236,0.997 C 25.667,0.363 24.855,0 24.005,0 23.811,0 23.619,0.019 23.454,0.049 22.81,0.167 22.212,0.497 21.776,0.975 L 1.512,22.958 c -0.815,0.865 -1.044,2.132 -0.578,3.239 0.471,1.095 1.542,1.808 2.751,1.821 z m -0.718,-3.687 20.281,-22 c 0.148,-0.163 0.346,-0.273 0.562,-0.312 0.346,-0.068 0.701,0.05 0.938,0.312 l 20.281,22 c 0.273,0.289 0.35,0.713 0.193,1.079 -0.157,0.366 -0.514,0.605 -0.912,0.608 l -40.624,0 C 3.288,26.015 2.93,25.776 2.773,25.41 2.618,25.043 2.694,24.62 2.967,24.331 z M 45,30.019 l -42.002,0 C 1.345,30.019 0,31.365 0,33.017 l 0,7.001 c 0,1.653 1.345,2.998 2.998,2.998 l 42.002,0 c 1.652,0 2.998,-1.345 2.998,-2.998 l 0,-7.001 c 0,-1.652 -1.346,-2.998 -2.998,-2.998 z m 0.999,9.999 c 0,0.553 -0.447,1 -1,1 l -42,0 c -0.552,0 -1,-0.447 -1,-1 l 0,-7 c 0,-0.553 0.448,-1 1,-1 l 42,0 c 0.553,0 1,0.447 1,1 l 0,7 z"
             id="path242" />
        </g>
      </g>
    </g>
    <g
       transform="matrix(1.0000417,0,0,1.0000417,0,2.4912062)"
       id="Layer_1">
      <linearGradient
         x1="37.1763"
         y1="55.944801"
         x2="8.1525002"
         y2="5.6740999"
         id="linearGradient4173"
         gradientUnits="userSpaceOnUse">
        <stop
           id="stop4175"
           style="stop-color:#666666;stop-opacity:1"
           offset="0" />
        <stop
           id="stop4177"
           style="stop-color:#b6b6b6;stop-opacity:1"
           offset="0.56150001" />
        <stop
           id="stop4179"
           style="stop-color:#ffffff;stop-opacity:1"
           offset="1" />
      </linearGradient>
      <path
         d="m 44.999,32.018 -42,0 c -0.552,0 -1,0.447 -1,1 l 0,7 c 0,0.553 0.448,1 1,1 l 42,0 c 0.553,0 1,-0.447 1,-1 l 0,-7 c 0,-0.553 -0.448,-1 -1,-1 z m -41.313,-6 40.625,0 c 0.398,-0.003 0.756,-0.242 0.912,-0.608 0.156,-0.366 0.08,-0.79 -0.193,-1.079 l -20.281,-22 C 24.513,2.069 24.157,1.95 23.811,2.019 23.594,2.059 23.396,2.168 23.249,2.331 l -20.281,22 c -0.273,0.289 -0.35,0.713 -0.194,1.079 0.156,0.366 0.514,0.605 0.912,0.608 z"
         id="path252"
         style="fill:url(#SVGID_1_)" />
      <path
         d="m 2.842,24.518 c -0.159,0.27 -0.188,0.609 -0.062,0.906 0.156,0.366 0.508,0.591 0.906,0.594 l 40.625,0 c 0.398,-0.003 0.75,-0.228 0.906,-0.594 0.126,-0.297 0.097,-0.637 -0.062,-0.906 -0.175,0.309 -0.484,0.497 -0.844,0.5 l -40.625,0 c -0.36,-0.003 -0.669,-0.191 -0.844,-0.5 z"
         id="path3302_2_"
         style="fill-opacity:0.14849997" />
      <rect
         width="42"
         height="1"
         x="2.9990001"
         y="40.018002"
         id="rect3406_2_"
         style="opacity:0.4;fill-opacity:0.19800002" />
    </g>
    <g
       transform="matrix(1.0000417,0,0,1.0000417,0,2.4912062)"
       id="Layer_3" />
    <g
       transform="matrix(1.0000417,0,0,1.0000417,0,2.4912062)"
       id="Layer_4">
      <path
         d="m 3.686,26.018 0.017,0 c 0,-0.251 0.085,-0.498 0.264,-0.688 l 20.281,-22 c 0.148,-0.163 0.346,-0.273 0.562,-0.312 0.234,-0.046 0.471,0 0.674,0.112 L 24.748,2.331 C 24.512,2.069 24.156,1.95 23.81,2.019 23.593,2.059 23.395,2.168 23.248,2.331 l -20.281,22 c -0.273,0.289 -0.35,0.713 -0.194,1.079 0.157,0.366 0.515,0.605 0.913,0.608 z m 41.313,6 -42,0 c -0.552,0 -1,0.447 -1,1 l 0,7 c 0,0.553 0.448,1 1,1 l 0,-7 c 0,-0.553 0.448,-1 1,-1 l 42,0 c 0,-0.553 -0.448,-1 -1,-1 z"
         id="path258"
         style="opacity:0.4;fill:#ffffff" />
    </g>
  </g>
</svg>
