<?xml version="1.0" encoding="UTF-8" standalone="no"?>
<!-- Created with Inkscape (http://www.inkscape.org/) -->

<svg
   xmlns:svg="http://www.w3.org/2000/svg"
   xmlns="http://www.w3.org/2000/svg"
   version="1.1"
   width="48"
   height="48"
   id="svg7258">
  <defs
     id="defs7260">
    <linearGradient
       x1="17.7188"
       y1="36.537601"
       x2="17.7187"
       y2="13.6802"
       id="firewire_3_"
       gradientUnits="userSpaceOnUse">
      <stop
         id="stop271"
         style="stop-color:#262626;stop-opacity:1"
         offset="0" />
      <stop
         id="stop273"
         style="stop-color:#5c5c5c;stop-opacity:1"
         offset="0.98900002" />
    </linearGradient>
    <linearGradient
       x1="302.34229"
       y1="1498.5566"
       x2="271.07709"
       y2="1455.5239"
       id="SVGID_35_"
       gradientUnits="userSpaceOnUse">
      <stop
         id="stop2188"
         style="stop-color:#9b9b9b;stop-opacity:1"
         offset="0" />
      <stop
         id="stop2190"
         style="stop-color:#ececec;stop-opacity:1"
         offset="1" />
    </linearGradient>
  </defs>
  <g
     id="layer1">
    <g
       transform="translate(6.354003,0.001957)"
       id="Layer_2">
      <g
         id="g238"
         style="opacity:0.3">
        <g
           id="g240" />
      </g>
    </g>
    <g
       transform="translate(6.354003,0.001957)"
       id="Layer_5">
      <g
         id="g262"
         style="opacity:0.2">
        <g
           id="g264" />
      </g>
    </g>
    <g
       transform="translate(6.354003,0.001957)"
       id="Layer_3" />
    <g
       transform="translate(-262.064,-1453.039)"
       id="Layer_20">
      <g
         id="g2177">
        <g
           id="g2179"
           style="opacity:0.3">
          <g
             id="g2181">
            <path
               d="m 301.349,1453.041 -29.281,0 c -1.657,0 -3.004,1.348 -3.004,3.004 l 0,41.99 c 0,1.656 1.347,3.004 3.004,3.004 l 29.281,0 c 1.658,0 3.006,-1.348 3.006,-3.004 l 0,-41.99 c 0,-1.656 -1.348,-3.004 -3.006,-3.004 z m 1.006,44.993 c 0,0.556 -0.449,1.006 -1.006,1.006 l -29.28,0 c -0.555,0 -1.005,-0.45 -1.005,-1.006 l 0,-41.988 c 0,-0.556 0.45,-1.006 1.005,-1.006 l 29.28,0 c 0.557,0 1.006,0.45 1.006,1.006 l 0,41.988 z"
               id="path2183" />
          </g>
        </g>
        <g
           id="g2185">
          <linearGradient
             x1="302.34229"
             y1="1498.5566"
             x2="271.07709"
             y2="1455.5239"
             id="linearGradient5520"
             gradientUnits="userSpaceOnUse">
            <stop
               id="stop5522"
               style="stop-color:#9b9b9b;stop-opacity:1"
               offset="0" />
            <stop
               id="stop5524"
               style="stop-color:#ececec;stop-opacity:1"
               offset="1" />
          </linearGradient>
          <path
             d="m 302.355,1498.034 c 0,0.556 -0.449,1.006 -1.006,1.006 l -29.28,0 c -0.555,0 -1.005,-0.45 -1.005,-1.006 l 0,-41.988 c 0,-0.556 0.45,-1.006 1.005,-1.006 l 29.28,0 c 0.557,0 1.006,0.45 1.006,1.006 l 0,41.988 z"
             id="path2192"
             style="fill:url(#SVGID_35_)" />
        </g>
        <g
           id="g2194"
           style="opacity:0.2">
          <g
             id="g2196">
            <path
               d="m 301.349,1455.04 -29.28,0 c -0.555,0 -1.005,0.45 -1.005,1.006 l 0,41.988 c 0,0.556 0.45,1.006 1.005,1.006 l 29.28,0 c 0.557,0 1.006,-0.45 1.006,-1.006 l 0,-41.988 c 0,-0.556 -0.449,-1.006 -1.006,-1.006 z m 0,43 -29.28,0 -0.004,-41.993 29.284,-0.01 0.006,41.994 -0.006,0.01 0,-10e-4 z"
               id="path2198"
               style="fill:#ffffff" />
          </g>
        </g>
        <g
           id="g2200"
           style="opacity:0.2">
          <g
             id="g2202">
            <path
               d="m 272.065,1456.047 30.289,-0.01 c -0.003,-0.553 -0.45,-1 -1.005,-1 l -29.28,0 c -0.555,0 -1.005,0.45 -1.005,1.006 l 0,41.988 c 0,0.556 0.45,1.006 1.005,1.006 l -0.004,-42.993 0,0 z"
               id="path2204"
               style="fill:#ffffff" />
          </g>
        </g>
        <linearGradient
           x1="286.647"
           y1="1489.7725"
           x2="286.647"
           y2="1464.7988"
           id="linearGradient5533"
           gradientUnits="userSpaceOnUse">
          <stop
             id="stop5535"
             style="stop-color:#262626;stop-opacity:1"
             offset="0" />
          <stop
             id="stop5537"
             style="stop-color:#5c5c5c;stop-opacity:1"
             offset="0.98900002" />
        </linearGradient>
      </g>
    </g>
    <g
       transform="translate(7.354003,0.001957)"
       id="Layer_6">
      <linearGradient
         x1="17.7188"
         y1="36.537601"
         x2="17.7187"
         y2="13.6802"
         id="linearGradient7082"
         gradientUnits="userSpaceOnUse">
        <stop
           id="stop7084"
           style="stop-color:#262626;stop-opacity:1"
           offset="0" />
        <stop
           id="stop7086"
           style="stop-color:#5c5c5c;stop-opacity:1"
           offset="0.98900002" />
      </linearGradient>
      <path
         d="m 17.719,20.376 c -2.511,0 -4.546,2.035 -4.546,4.546 0,2.511 2.036,4.546 4.546,4.546 2.509,0 4.545,-2.035 4.545,-4.546 0,-2.511 -2.036,-4.546 -4.545,-4.546 z m 0,7.577 c -1.674,0 -3.03,-1.357 -3.03,-3.03 0,-1.674 1.356,-3.031 3.03,-3.031 1.673,0 3.03,1.357 3.03,3.031 0,1.671 -1.357,3.03 -3.03,3.03 z m -3.031,5.049 6.06,0 0,-2.02 -6.06,0 0,2.02 0,0 z m 0,3.536 6.06,0 0,-2.021 -6.06,0 0,2.021 0,0 z m -0.83,-19.977 -4.105,4.092 1.368,1.364 4.106,-4.092 -1.369,-1.364 0,0 z m -2.737,-2.707 -4.105,4.093 1.368,1.365 4.106,-4.116 -1.369,-1.342 0,0 z m 13.714,-0.174 -4.507,4.493 3.585,3.551 4.508,-4.448 -3.586,-3.596 0,0 z"
         id="firewire"
         style="fill:url(#firewire_3_)" />
    </g>
    <g
       transform="translate(7.354003,0.001957)"
       id="Layer_8">
      <g
         id="g277"
         style="opacity:0.6">
        <g
           id="g279">
          <path
             d="m 14.533,16.99 -0.122,0.122 0.816,0.813 -3.984,3.97 0.553,0.551 4.106,-4.092 -1.369,-1.364 0,0 z m -2.737,-2.706 -0.118,0.117 0.812,0.796 -3.984,3.993 0.553,0.551 4.106,-4.116 -1.369,-1.341 0,0 z m 4.679,13.395 c -0.673,-0.556 -1.111,-1.387 -1.111,-2.328 0,-1.674 1.356,-3.03 3.03,-3.03 0.444,0 0.863,0.101 1.243,0.272 -0.523,-0.432 -1.186,-0.702 -1.917,-0.702 -1.675,0 -3.031,1.357 -3.031,3.031 -10e-4,1.229 0.734,2.282 1.786,2.757 l 0,0 z m 9.035,-13.57 -0.124,0.124 3.035,3.043 -4.387,4.328 0.554,0.549 4.508,-4.448 -3.586,-3.596 z m -5.027,7.228 c 1.076,0.831 1.781,2.12 1.781,3.585 0,2.511 -2.036,4.546 -4.545,4.546 -0.759,0 -1.464,-0.204 -2.093,-0.532 0.769,0.594 1.721,0.962 2.768,0.962 2.509,0 4.545,-2.035 4.545,-4.547 0,-1.752 -1.003,-3.255 -2.456,-4.014 l 0,0 z m 0.266,11.665 -5.385,0 0,0.429 6.06,0 0,-2.02 -0.675,0 0,1.591 z m 0,3.536 -5.385,0 0,0.43 6.06,0 0,-2.021 -0.675,0 0,1.591 z"
             id="path281"
             style="fill:#ffffff" />
        </g>
      </g>
    </g>
  </g>
</svg>
