<?xml version="1.0" encoding="UTF-8" standalone="no"?>
<!-- Created with Inkscape (http://www.inkscape.org/) -->

<svg
   xmlns:svg="http://www.w3.org/2000/svg"
   xmlns="http://www.w3.org/2000/svg"
   version="1.1"
   width="48"
   height="48"
   id="svg6748">
  <defs
     id="defs6750">
    <linearGradient
       x1="302.34229"
       y1="1498.5566"
       x2="271.07709"
       y2="1455.5239"
       id="SVGID_35_"
       gradientUnits="userSpaceOnUse">
      <stop
         id="stop2188"
         style="stop-color:#9b9b9b;stop-opacity:1"
         offset="0" />
      <stop
         id="stop2190"
         style="stop-color:#ececec;stop-opacity:1"
         offset="1" />
    </linearGradient>
    <linearGradient
       x1="286.647"
       y1="1489.7725"
       x2="286.647"
       y2="1464.7988"
       id="usb_1_"
       gradientUnits="userSpaceOnUse">
      <stop
         id="stop2207"
         style="stop-color:#262626;stop-opacity:1"
         offset="0" />
      <stop
         id="stop2209"
         style="stop-color:#5c5c5c;stop-opacity:1"
         offset="0.98900002" />
    </linearGradient>
  </defs>
  <g
     id="layer1">
    <g
       transform="translate(-262.064,-1453.039)"
       id="Layer_20">
      <g
         id="g2177">
        <g
           id="g2179"
           style="opacity:0.3">
          <g
             id="g2181">
            <path
               d="m 301.349,1453.041 -29.281,0 c -1.657,0 -3.004,1.348 -3.004,3.004 l 0,41.99 c 0,1.656 1.347,3.004 3.004,3.004 l 29.281,0 c 1.658,0 3.006,-1.348 3.006,-3.004 l 0,-41.99 c 0,-1.656 -1.348,-3.004 -3.006,-3.004 z m 1.006,44.993 c 0,0.556 -0.449,1.006 -1.006,1.006 l -29.28,0 c -0.555,0 -1.005,-0.45 -1.005,-1.006 l 0,-41.988 c 0,-0.556 0.45,-1.006 1.005,-1.006 l 29.28,0 c 0.557,0 1.006,0.45 1.006,1.006 l 0,41.988 z"
               id="path2183" />
          </g>
        </g>
        <g
           id="g2185">
          <linearGradient
             x1="302.34229"
             y1="1498.5566"
             x2="271.07709"
             y2="1455.5239"
             id="linearGradient5520"
             gradientUnits="userSpaceOnUse">
            <stop
               id="stop5522"
               style="stop-color:#9b9b9b;stop-opacity:1"
               offset="0" />
            <stop
               id="stop5524"
               style="stop-color:#ececec;stop-opacity:1"
               offset="1" />
          </linearGradient>
          <path
             d="m 302.355,1498.034 c 0,0.556 -0.449,1.006 -1.006,1.006 l -29.28,0 c -0.555,0 -1.005,-0.45 -1.005,-1.006 l 0,-41.988 c 0,-0.556 0.45,-1.006 1.005,-1.006 l 29.28,0 c 0.557,0 1.006,0.45 1.006,1.006 l 0,41.988 z"
             id="path2192"
             style="fill:url(#SVGID_35_)" />
        </g>
        <g
           id="g2194"
           style="opacity:0.2">
          <g
             id="g2196">
            <path
               d="m 301.349,1455.04 -29.28,0 c -0.555,0 -1.005,0.45 -1.005,1.006 l 0,41.988 c 0,0.556 0.45,1.006 1.005,1.006 l 29.28,0 c 0.557,0 1.006,-0.45 1.006,-1.006 l 0,-41.988 c 0,-0.556 -0.449,-1.006 -1.006,-1.006 z m 0,43 -29.28,0 -0.004,-41.993 29.284,-0.01 0.006,41.994 -0.006,0.01 z"
               id="path2198"
               style="fill:#ffffff" />
          </g>
        </g>
        <g
           id="g2200"
           style="opacity:0.2">
          <g
             id="g2202">
            <path
               d="m 272.065,1456.047 30.289,-0.01 c -0.003,-0.553 -0.45,-1 -1.005,-1 l -29.28,0 c -0.555,0 -1.005,0.45 -1.005,1.006 l 0,41.988 c 0,0.556 0.45,1.006 1.005,1.006 l -0.004,-42.993 z"
               id="path2204"
               style="fill:#ffffff" />
          </g>
        </g>
        <linearGradient
           x1="286.647"
           y1="1489.7725"
           x2="286.647"
           y2="1464.7988"
           id="linearGradient5533"
           gradientUnits="userSpaceOnUse">
          <stop
             id="stop5535"
             style="stop-color:#262626;stop-opacity:1"
             offset="0" />
          <stop
             id="stop5537"
             style="stop-color:#5c5c5c;stop-opacity:1"
             offset="0.98900002" />
        </linearGradient>
        <path
           d="m 294.664,1470.908 -4.716,0 0,4.717 1.636,0 c -0.146,2.734 -1.799,2.913 -3.267,3.065 -0.092,0.01 -0.169,0.021 -0.256,0.03 l 0,-9.32 2.358,0 -3.288,-4.602 -3.314,4.602 2.358,0 0,12.09 c -0.106,-0.013 -0.208,-0.026 -0.323,-0.037 -1.414,-0.146 -2.997,-0.318 -3.245,-2.771 0.99,-0.441 1.681,-1.432 1.681,-2.585 0,-1.562 -1.266,-2.829 -2.829,-2.829 -1.563,0 -2.83,1.267 -2.83,2.829 0,1.48 1.135,2.692 2.584,2.818 0.357,3.074 2.483,3.681 3.925,3.878 -1.075,0.665 -1.793,1.851 -1.793,3.207 0,2.085 1.689,3.772 3.773,3.772 2.084,0 3.772,-1.688 3.772,-3.772 0,-1.758 -1.204,-3.229 -2.83,-3.649 l 0,-2.207 c 0.124,-0.018 0.265,-0.031 0.401,-0.045 1.429,-0.149 4.345,-0.465 4.533,-4.474 l 1.668,0 0,-4.717 0.002,0 z"
           id="usb_2_"
           style="fill:url(#usb_1_)" />
        <path
           d="m 280.332,1478.681 c 0.271,0.207 0.582,0.365 0.918,0.463 -0.012,-0.077 -0.027,-0.148 -0.037,-0.229 -0.312,-0.027 -0.606,-0.113 -0.881,-0.234 z m 4.561,4.286 c 0.081,-0.06 0.161,-0.121 0.246,-0.174 -0.513,-0.07 -1.112,-0.195 -1.687,-0.461 0.459,0.317 0.96,0.513 1.441,0.635 z m 5.639,-7.008 1.021,0 c 0.012,-0.109 0.024,-0.216 0.03,-0.334 l -1.052,0 0,0.334 10e-4,0 z m -2.471,-6.559 0,9.32 c 0.087,-0.01 0.164,-0.021 0.256,-0.03 0.108,-0.012 0.218,-0.023 0.328,-0.036 l 0,-8.921 2.357,0 -3.287,-4.603 -0.174,0.241 2.878,4.028 -2.358,0 0,0 z m -4.87,9.615 c 0.99,-0.441 1.681,-1.432 1.681,-2.585 0,-1.182 -0.725,-2.191 -1.752,-2.615 0.706,0.515 1.169,1.342 1.169,2.282 0,1.153 -0.69,2.144 -1.681,2.585 0.151,1.487 0.795,2.131 1.592,2.443 -0.511,-0.386 -0.897,-1.013 -1.009,-2.11 z m 11.473,-7.773 0,4.383 -1.668,0 c -0.188,4.009 -3.104,4.324 -4.533,4.474 -0.137,0.014 -0.277,0.027 -0.401,0.045 l 0,2.207 c 0.202,0.052 0.396,0.121 0.584,0.204 l 0,-2.078 c 0.123,-0.018 0.264,-0.031 0.4,-0.045 1.43,-0.149 4.346,-0.465 4.533,-4.473 l 1.668,0 0,-4.717 -0.583,0 z m -8.488,-1.842 -1.535,0 -0.24,0.333 1.775,0 0,-0.333 0,0 z m 3.074,13.497 c 0.989,0.68 1.642,1.812 1.642,3.103 0,2.085 -1.688,3.772 -3.772,3.772 -0.568,0 -1.102,-0.135 -1.585,-0.359 0.614,0.434 1.359,0.692 2.168,0.692 2.084,0 3.773,-1.688 3.773,-3.772 -10e-4,-1.531 -0.916,-2.845 -2.226,-3.436 z"
           id="path2212"
           style="opacity:0.6;fill:#ffffff" />
      </g>
    </g>
  </g>
</svg>
