<?xml version="1.0" encoding="UTF-8" standalone="no"?>
<!-- Created with Inkscape (http://www.inkscape.org/) -->

<svg
   xmlns:svg="http://www.w3.org/2000/svg"
   xmlns="http://www.w3.org/2000/svg"
   version="1.1"
   width="48"
   height="48"
   id="svg11097">
  <defs
     id="defs11099">
    <linearGradient
       x1="24.0005"
       y1="45.130901"
       x2="24.0005"
       y2="4.0005002"
       id="SVGID_1_"
       gradientUnits="userSpaceOnUse">
      <stop
         id="stop756"
         style="stop-color:#9b9b9b;stop-opacity:1"
         offset="0" />
      <stop
         id="stop758"
         style="stop-color:#ececec;stop-opacity:1"
         offset="1" />
    </linearGradient>
    <linearGradient
       x1="24.0005"
       y1="45.130901"
       x2="24.0005"
       y2="4.0005002"
       id="SVGID_2_"
       gradientUnits="userSpaceOnUse">
      <stop
         id="stop763"
         style="stop-color:#9b9b9b;stop-opacity:1"
         offset="0" />
      <stop
         id="stop765"
         style="stop-color:#ececec;stop-opacity:1"
         offset="1" />
    </linearGradient>
    <linearGradient
       x1="24.0005"
       y1="45.130901"
       x2="24.0005"
       y2="4.0005002"
       id="SVGID_3_"
       gradientUnits="userSpaceOnUse">
      <stop
         id="stop776"
         style="stop-color:#9b9b9b;stop-opacity:1"
         offset="0" />
      <stop
         id="stop778"
         style="stop-color:#ececec;stop-opacity:1"
         offset="1" />
    </linearGradient>
    <linearGradient
       x1="24.0005"
       y1="45.130901"
       x2="24.0005"
       y2="4.0005002"
       id="SVGID_4_"
       gradientUnits="userSpaceOnUse">
      <stop
         id="stop783"
         style="stop-color:#9b9b9b;stop-opacity:1"
         offset="0" />
      <stop
         id="stop785"
         style="stop-color:#ececec;stop-opacity:1"
         offset="1" />
    </linearGradient>
    <linearGradient
       x1="9.9989996"
       y1="1.8573999"
       x2="9.9989996"
       y2="17.857401"
       id="SVGID_5_"
       gradientUnits="userSpaceOnUse">
      <stop
         id="stop802"
         style="stop-color:#ff6363;stop-opacity:1"
         offset="0" />
      <stop
         id="stop804"
         style="stop-color:#cc0000;stop-opacity:1"
         offset="1" />
    </linearGradient>
  </defs>
  <g
     id="layer1">
    <g
       transform="translate(0,0.435)"
       id="Layer_2"
       style="opacity:0.3">
      <g
         id="g742">
        <g
           id="g744">
          <path
             d="m 44.088,2.002 -5.74,0 c -2.158,0 -3.912,1.753 -3.912,3.912 l 0,5.169 c -0.548,-0.292 -1.164,-0.474 -1.827,-0.474 l -5.739,0 c -2.157,0 -3.913,1.756 -3.913,3.914 l 0,5.169 C 22.41,19.4 21.794,19.218 21.131,19.218 l -5.739,0 c -2.158,0 -3.912,1.756 -3.912,3.914 l 0,5.169 C 10.932,28.009 10.316,27.827 9.652,27.827 l -5.739,0 c -2.158,0 -3.912,1.753 -3.912,3.911 l 0,11.479 c 0,2.158 1.753,3.914 3.912,3.914 l 5.739,0 c 1.138,0 2.154,-0.496 2.87,-1.273 0.715,0.777 1.731,1.273 2.869,1.273 l 5.739,0 c 1.138,0 2.154,-0.496 2.869,-1.273 0.716,0.777 1.732,1.273 2.87,1.273 l 5.739,0 c 1.138,0 2.154,-0.496 2.869,-1.273 0.716,0.777 1.731,1.273 2.87,1.273 l 5.74,0 c 2.157,0 3.911,-1.754 3.911,-3.912 l 0,-37.305 C 47.999,3.755 46.245,2.002 44.088,2.002 z M 11.565,43.218 c 0,1.057 -0.857,1.913 -1.913,1.913 l -5.739,0 C 2.856,45.131 2,44.274 2,43.218 L 2,31.739 c 0,-1.057 0.856,-1.913 1.913,-1.913 l 5.739,0 c 1.056,0 1.913,0.856 1.913,1.913 l 0,11.479 0,0 z m 11.478,0 c 0,1.057 -0.856,1.913 -1.913,1.913 l -5.739,0 c -1.056,0 -1.913,-0.856 -1.913,-1.913 l 0,-20.087 c 0,-1.057 0.857,-1.913 1.913,-1.913 l 5.739,0 c 1.057,0 1.913,0.856 1.913,1.913 l 0,20.087 z m 11.478,0 c 0,1.057 -0.856,1.913 -1.913,1.913 l -5.739,0 c -1.056,0 -1.913,-0.856 -1.913,-1.913 l 0,-28.696 c 0,-1.057 0.857,-1.913 1.913,-1.913 l 5.739,0 c 1.057,0 1.913,0.856 1.913,1.913 l 0,28.696 z m 11.479,0 c 0,1.057 -0.856,1.913 -1.913,1.913 l -5.739,0 c -1.057,0 -1.913,-0.856 -1.913,-1.913 l 0,-37.305 C 36.435,4.857 37.291,4 38.348,4 l 5.739,0 C 45.144,4 46,4.857 46,5.913 l 0,37.305 z"
             id="path746" />
        </g>
      </g>
    </g>
    <g
       transform="translate(0,0.435)"
       id="Layer_1"
       style="opacity:0.3">
      <g
         id="g749">
        <g
           id="g751">
          <g
             id="g753">
            <linearGradient
               x1="24.0005"
               y1="45.130901"
               x2="24.0005"
               y2="4.0005002"
               id="linearGradient11049"
               gradientUnits="userSpaceOnUse">
              <stop
                 id="stop11051"
                 style="stop-color:#9b9b9b;stop-opacity:1"
                 offset="0" />
              <stop
                 id="stop11053"
                 style="stop-color:#ececec;stop-opacity:1"
                 offset="1" />
            </linearGradient>
            <path
               d="m 9.652,29.826 -5.739,0 C 2.856,29.826 2,30.683 2,31.739 l 0,11.479 c 0,1.057 0.856,1.913 1.913,1.913 l 5.739,0 c 1.056,0 1.913,-0.856 1.913,-1.913 l 0,-11.479 c 0,-1.056 -0.857,-1.913 -1.913,-1.913 z m 11.478,-8.608 -5.739,0 c -1.056,0 -1.913,0.856 -1.913,1.913 l 0,20.087 c 0,1.057 0.857,1.913 1.913,1.913 l 5.739,0 c 1.057,0 1.913,-0.856 1.913,-1.913 l 0,-20.087 c 0,-1.057 -0.856,-1.913 -1.913,-1.913 z m 11.478,-8.609 -5.739,0 c -1.056,0 -1.913,0.856 -1.913,1.913 l 0,28.696 c 0,1.057 0.857,1.913 1.913,1.913 l 5.739,0 c 1.057,0 1.913,-0.856 1.913,-1.913 l 0,-28.696 c 0,-1.057 -0.856,-1.913 -1.913,-1.913 z M 44.087,4 38.348,4 c -1.057,0 -1.913,0.857 -1.913,1.913 l 0,37.305 c 0,1.057 0.856,1.913 1.913,1.913 l 5.739,0 C 45.144,45.131 46,44.275 46,43.218 L 46,5.913 C 46,4.857 45.144,4 44.087,4 z"
               id="path760"
               style="fill:url(#SVGID_1_)" />
            <linearGradient
               x1="24.0005"
               y1="45.130901"
               x2="24.0005"
               y2="4.0005002"
               id="linearGradient11056"
               gradientUnits="userSpaceOnUse">
              <stop
                 id="stop11058"
                 style="stop-color:#9b9b9b;stop-opacity:1"
                 offset="0" />
              <stop
                 id="stop11060"
                 style="stop-color:#ececec;stop-opacity:1"
                 offset="1" />
            </linearGradient>
            <path
               d="m 9.652,29.826 -5.739,0 C 2.856,29.826 2,30.683 2,31.739 l 0,11.479 c 0,1.057 0.856,1.913 1.913,1.913 l 5.739,0 c 1.056,0 1.913,-0.856 1.913,-1.913 l 0,-11.479 c 0,-1.056 -0.857,-1.913 -1.913,-1.913 z m 11.478,-8.608 -5.739,0 c -1.056,0 -1.913,0.856 -1.913,1.913 l 0,20.087 c 0,1.057 0.857,1.913 1.913,1.913 l 5.739,0 c 1.057,0 1.913,-0.856 1.913,-1.913 l 0,-20.087 c 0,-1.057 -0.856,-1.913 -1.913,-1.913 z m 11.478,-8.609 -5.739,0 c -1.056,0 -1.913,0.856 -1.913,1.913 l 0,28.696 c 0,1.057 0.857,1.913 1.913,1.913 l 5.739,0 c 1.057,0 1.913,-0.856 1.913,-1.913 l 0,-28.696 c 0,-1.057 -0.856,-1.913 -1.913,-1.913 z M 44.087,4 38.348,4 c -1.057,0 -1.913,0.857 -1.913,1.913 l 0,37.305 c 0,1.057 0.856,1.913 1.913,1.913 l 5.739,0 C 45.144,45.131 46,44.275 46,43.218 L 46,5.913 C 46,4.857 45.144,4 44.087,4 z"
               id="path767"
               style="fill:url(#SVGID_2_)" />
          </g>
        </g>
      </g>
      <g
         id="g769">
        <g
           id="g771">
          <g
             id="g773">
            <linearGradient
               x1="24.0005"
               y1="45.130901"
               x2="24.0005"
               y2="4.0005002"
               id="linearGradient11066"
               gradientUnits="userSpaceOnUse">
              <stop
                 id="stop11068"
                 style="stop-color:#9b9b9b;stop-opacity:1"
                 offset="0" />
              <stop
                 id="stop11070"
                 style="stop-color:#ececec;stop-opacity:1"
                 offset="1" />
            </linearGradient>
            <path
               d="m 9.652,29.826 -5.739,0 C 2.856,29.826 2,30.683 2,31.739 l 0,11.479 c 0,1.057 0.856,1.913 1.913,1.913 l 5.739,0 c 1.056,0 1.913,-0.856 1.913,-1.913 l 0,-11.479 c 0,-1.056 -0.857,-1.913 -1.913,-1.913 z m 11.478,-8.608 -5.739,0 c -1.056,0 -1.913,0.856 -1.913,1.913 l 0,20.087 c 0,1.057 0.857,1.913 1.913,1.913 l 5.739,0 c 1.057,0 1.913,-0.856 1.913,-1.913 l 0,-20.087 c 0,-1.057 -0.856,-1.913 -1.913,-1.913 z m 11.478,-8.609 -5.739,0 c -1.056,0 -1.913,0.856 -1.913,1.913 l 0,28.696 c 0,1.057 0.857,1.913 1.913,1.913 l 5.739,0 c 1.057,0 1.913,-0.856 1.913,-1.913 l 0,-28.696 c 0,-1.057 -0.856,-1.913 -1.913,-1.913 z M 44.087,4 38.348,4 c -1.057,0 -1.913,0.857 -1.913,1.913 l 0,37.305 c 0,1.057 0.856,1.913 1.913,1.913 l 5.739,0 C 45.144,45.131 46,44.275 46,43.218 L 46,5.913 C 46,4.857 45.144,4 44.087,4 z"
               id="path780"
               style="fill:url(#SVGID_3_)" />
            <linearGradient
               x1="24.0005"
               y1="45.130901"
               x2="24.0005"
               y2="4.0005002"
               id="linearGradient11073"
               gradientUnits="userSpaceOnUse">
              <stop
                 id="stop11075"
                 style="stop-color:#9b9b9b;stop-opacity:1"
                 offset="0" />
              <stop
                 id="stop11077"
                 style="stop-color:#ececec;stop-opacity:1"
                 offset="1" />
            </linearGradient>
            <path
               d="m 9.652,29.826 -5.739,0 C 2.856,29.826 2,30.683 2,31.739 l 0,11.479 c 0,1.057 0.856,1.913 1.913,1.913 l 5.739,0 c 1.056,0 1.913,-0.856 1.913,-1.913 l 0,-11.479 c 0,-1.056 -0.857,-1.913 -1.913,-1.913 z m 11.478,-8.608 -5.739,0 c -1.056,0 -1.913,0.856 -1.913,1.913 l 0,20.087 c 0,1.057 0.857,1.913 1.913,1.913 l 5.739,0 c 1.057,0 1.913,-0.856 1.913,-1.913 l 0,-20.087 c 0,-1.057 -0.856,-1.913 -1.913,-1.913 z m 11.478,-8.609 -5.739,0 c -1.056,0 -1.913,0.856 -1.913,1.913 l 0,28.696 c 0,1.057 0.857,1.913 1.913,1.913 l 5.739,0 c 1.057,0 1.913,-0.856 1.913,-1.913 l 0,-28.696 c 0,-1.057 -0.856,-1.913 -1.913,-1.913 z M 44.087,4 38.348,4 c -1.057,0 -1.913,0.857 -1.913,1.913 l 0,37.305 c 0,1.057 0.856,1.913 1.913,1.913 l 5.739,0 C 45.144,45.131 46,44.275 46,43.218 L 46,5.913 C 46,4.857 45.144,4 44.087,4 z"
               id="path787"
               style="fill:url(#SVGID_4_)" />
          </g>
        </g>
      </g>
    </g>
    <g
       transform="translate(0,0.435)"
       id="Layer_4"
       style="opacity:0.4">
      <g
         id="g790">
        <g
           id="g792">
          <path
             d="m 21.13,21.218 -5.739,0 c -1.056,0 -1.913,0.856 -1.913,1.913 l 0,20.087 c 0,0.432 0.148,0.825 0.389,1.145 -0.087,-0.219 -0.139,-0.457 -0.139,-0.707 l 0,-20.088 c 0,-1.057 0.857,-1.913 1.913,-1.913 l 5.739,0 c 0.625,0 1.175,0.304 1.524,0.769 -0.281,-0.706 -0.967,-1.206 -1.774,-1.206 z M 44.087,4 38.348,4 c -1.057,0 -1.913,0.857 -1.913,1.913 l 0,37.305 c 0,0.432 0.147,0.825 0.389,1.145 -0.087,-0.219 -0.139,-0.457 -0.139,-0.707 l 0,-37.305 c 0,-1.056 0.856,-1.913 1.913,-1.913 l 5.739,0 c 0.625,0 1.175,0.305 1.524,0.769 C 45.58,4.5 44.894,4 44.087,4 z m -34.435,25.826 -5.739,0 C 2.856,29.826 2,30.683 2,31.739 L 2,43.218 C 2,43.65 2.148,44.043 2.389,44.363 2.302,44.144 2.25,43.906 2.25,43.656 l 0,-11.479 c 0,-1.057 0.856,-1.913 1.913,-1.913 l 5.739,0 c 0.625,0 1.175,0.305 1.524,0.769 -0.281,-0.707 -0.968,-1.207 -1.774,-1.207 z m 22.956,-17.217 -5.739,0 c -1.056,0 -1.913,0.856 -1.913,1.913 l 0,28.696 c 0,0.431 0.148,0.824 0.389,1.145 -0.087,-0.219 -0.139,-0.457 -0.139,-0.707 l 0,-28.697 c 0,-1.057 0.857,-1.913 1.913,-1.913 l 5.739,0 c 0.625,0 1.175,0.304 1.524,0.768 -0.28,-0.705 -0.967,-1.205 -1.774,-1.205 z"
             id="path794"
             style="fill:#ffffff" />
        </g>
      </g>
    </g>
    <g
       transform="translate(0,0.435)"
       id="Layer_5">
      <g
         id="g797">
        <path
           d="m 14.931,19.998 c -0.642,0 -1.242,-0.247 -1.691,-0.699 L 10,16.06 6.759,19.301 c -0.443,0.443 -1.061,0.697 -1.691,0.697 -0.628,0 -1.222,-0.241 -1.674,-0.679 L 0.7,16.623 C 0.262,16.198 0,15.573 0,14.931 0,14.302 0.256,13.685 0.701,13.24 L 3.94,10 0.701,6.761 C -0.226,5.824 -0.226,4.314 0.69,3.386 L 3.375,0.704 C 3.827,0.25 4.428,0 5.067,0 5.713,0 6.317,0.253 6.768,0.712 L 10,3.942 13.239,0.703 c 0.425,-0.439 1.05,-0.702 1.691,-0.702 0.63,0 1.246,0.256 1.692,0.702 l 2.674,2.674 c 0.439,0.425 0.701,1.05 0.701,1.692 0,0.629 -0.256,1.246 -0.701,1.691 l -3.238,3.24 3.239,3.239 c 0.454,0.452 0.701,1.053 0.701,1.691 0,0.64 -0.247,1.24 -0.701,1.692 l -2.672,2.676 c -0.452,0.453 -1.053,0.7 -1.694,0.7 l 0,0 z"
           id="path799"
           style="opacity:0.3" />
        <linearGradient
           x1="9.9989996"
           y1="1.8573999"
           x2="9.9989996"
           y2="17.857401"
           id="linearGradient11087"
           gradientUnits="userSpaceOnUse">
          <stop
             id="stop11089"
             style="stop-color:#ff6363;stop-opacity:1"
             offset="0" />
          <stop
             id="stop11091"
             style="stop-color:#cc0000;stop-opacity:1"
             offset="1" />
        </linearGradient>
        <path
           d="m 13.231,9.858 4.652,-4.653 c 0.073,-0.073 0.115,-0.175 0.115,-0.278 0,-0.103 -0.042,-0.205 -0.115,-0.279 L 15.208,1.974 C 15.135,1.9 15.033,1.859 14.93,1.859 14.826,1.859 14.724,1.9 14.652,1.974 L 9.999,6.626 5.346,1.974 C 5.193,1.82 4.944,1.82 4.789,1.974 L 2.115,4.647 c -0.154,0.154 -0.154,0.404 0,0.558 L 6.767,9.858 2.114,14.51 c -0.073,0.073 -0.115,0.175 -0.115,0.278 0,0.103 0.042,0.205 0.115,0.278 l 2.675,2.675 c 0.073,0.073 0.175,0.115 0.278,0.115 0.104,0 0.206,-0.042 0.278,-0.115 l 4.653,-4.652 4.653,4.652 c 0.074,0.074 0.173,0.115 0.278,0.115 0.105,0 0.204,-0.041 0.278,-0.115 l 2.675,-2.675 c 0.074,-0.074 0.115,-0.173 0.115,-0.278 0,-0.105 -0.041,-0.204 -0.115,-0.278 L 13.231,9.858 z"
           id="path806"
           style="fill:url(#SVGID_5_)" />
        <g
           id="g808"
           style="opacity:0.4">
          <g
             id="g810">
            <path
               d="M 15.209,1.974 C 15.136,1.9 15.034,1.859 14.931,1.859 c -0.104,0 -0.206,0.042 -0.278,0.115 L 10.155,6.47 10.686,7.001 15.339,2.349 C 15.382,2.306 15.435,2.278 15.492,2.258 L 15.209,1.974 z M 7.455,10.233 2.803,5.58 C 2.649,5.427 2.649,5.177 2.803,5.022 L 5.477,2.348 C 5.521,2.304 5.574,2.276 5.63,2.257 L 5.346,1.974 C 5.193,1.82 4.944,1.82 4.789,1.974 L 2.115,4.648 c -0.154,0.154 -0.154,0.404 0,0.557 l 4.652,4.653 -4.653,4.653 c -0.073,0.073 -0.115,0.175 -0.115,0.278 0,0.103 0.042,0.205 0.115,0.278 l 2.675,2.675 c 0.073,0.073 0.175,0.115 0.278,0.115 0.043,0 0.084,-0.012 0.125,-0.024 L 2.801,15.442 C 2.728,15.369 2.686,15.267 2.686,15.164 c 0,-0.103 0.042,-0.205 0.115,-0.278 l 4.654,-4.653 z m 3.075,3.388 4.122,4.121 c 0.074,0.074 0.173,0.115 0.278,0.115 0.044,0 0.085,-0.011 0.125,-0.024 l -4.369,-4.368 -0.156,0.156 z"
               id="path812"
               style="fill:#ffffff" />
          </g>
        </g>
      </g>
    </g>
  </g>
</svg>
