<?xml version="1.0" encoding="UTF-8" standalone="no"?>
<!-- Created with Inkscape (http://www.inkscape.org/) -->

<svg
   xmlns:svg="http://www.w3.org/2000/svg"
   xmlns="http://www.w3.org/2000/svg"
   version="1.1"
   width="48"
   height="48"
   id="svg3800">
  <defs
     id="defs3802">
    <linearGradient
       x1="-82.600601"
       y1="-68.4785"
       x2="-125.901"
       y2="-93.477997"
       id="path3235_4_"
       gradientUnits="userSpaceOnUse"
       gradientTransform="matrix(0,1,1,0,88.9194,127.542)">
      <stop
         id="stop246"
         style="stop-color:#8a8a8a;stop-opacity:1"
         offset="0" />
      <stop
         id="stop248"
         style="stop-color:#ffffff;stop-opacity:1"
         offset="1" />
    </linearGradient>
  </defs>
  <g
     id="layer1">
    <g
       transform="translate(9.598,0.001)"
       id="Layer_4">
      <g
         id="g238"
         style="opacity:0.3">
        <g
           id="g240">
          <path
             d="M 28.75,23.439 C 28.631,22.787 28.292,22.185 27.815,21.753 L 5.117,0.827 C 4.552,0.293 3.811,0 3.033,0 2.623,0 2.222,0.081 1.849,0.241 0.73,0.714 0.006,1.801 0,3.022 l 0,41.961 c 0.006,1.205 0.729,2.292 1.845,2.773 0.377,0.16 0.778,0.241 1.188,0.241 0.778,0 1.517,-0.293 2.065,-0.811 l 22.7,-20.929 c 0.789,-0.71 1.152,-1.797 0.952,-2.818 z M 26.46,24.773 3.742,45.716 C 3.444,45.998 3.006,46.077 2.628,45.915 2.25,45.754 2.002,45.385 2,44.974 L 2,3.023 C 2.003,2.612 2.25,2.242 2.628,2.081 3.006,1.92 3.444,1.999 3.742,2.281 L 26.46,23.225 c 0.169,0.153 0.282,0.357 0.323,0.58 0.071,0.357 -0.052,0.724 -0.323,0.968 z"
             id="path242" />
        </g>
      </g>
    </g>
    <g
       transform="translate(9.598,0.001)"
       id="Layer_2">
      <linearGradient
         x1="-82.600601"
         y1="-68.4785"
         x2="-125.901"
         y2="-93.477997"
         id="linearGradient3862"
         gradientUnits="userSpaceOnUse"
         gradientTransform="matrix(0,1,1,0,88.9194,127.542)">
        <stop
           id="stop3864"
           style="stop-color:#8a8a8a;stop-opacity:1"
           offset="0" />
        <stop
           id="stop3866"
           style="stop-color:#ffffff;stop-opacity:1"
           offset="1" />
      </linearGradient>
      <path
         d="M 26.783,23.805 C 26.742,23.582 26.629,23.378 26.46,23.225 L 3.742,2.281 C 3.444,1.999 3.006,1.92 2.628,2.081 2.25,2.242 2.002,2.612 2,3.023 l 0,41.951 c 0.003,0.411 0.25,0.78 0.628,0.941 0.378,0.162 0.816,0.083 1.114,-0.199 L 26.46,24.773 c 0.271,-0.244 0.394,-0.611 0.323,-0.968 l 0,0 z"
         id="path3235_1_"
         style="fill:url(#path3235_4_)" />
    </g>
    <g
       transform="translate(9.598,0.001)"
       id="Layer_3">
      <g
         id="g252"
         style="opacity:0.2">
        <g
           id="g254">
          <path
             d="M 26.783,23.805 C 26.742,23.582 26.629,23.378 26.46,23.225 L 3.742,2.281 C 3.444,1.999 3.006,1.92 2.628,2.081 2.25,2.242 2.002,2.612 2,3.023 l 0,41.951 c 0.003,0.411 0.25,0.78 0.628,0.941 0.378,0.162 0.816,0.083 1.114,-0.199 L 26.46,24.773 c 0.271,-0.244 0.394,-0.611 0.323,-0.968 z M 3.063,44.981 3.034,45 C 3.03,45 3.026,44.998 3.024,44.998 L 2.999,3.023 25.781,23.961 3.063,44.981 z"
             id="path256"
             style="fill:#ffffff" />
        </g>
      </g>
      <path
         d="M 3.548,2.152 C 3.27,1.988 2.919,1.958 2.613,2.087 2.234,2.249 2.002,2.612 2,3.023 l 0,41.951 c 0.003,0.411 0.235,0.774 0.613,0.936 0.307,0.13 0.657,0.1 0.936,-0.064 -0.318,-0.181 -0.513,-0.5 -0.516,-0.871 l 0,-41.952 C 3.035,2.652 3.23,2.333 3.548,2.152 z"
         id="path3302_2_"
         style="fill:#ffffff;fill-opacity:0.14849997" />
    </g>
  </g>
</svg>
