<?xml version="1.0" encoding="UTF-8" standalone="no"?>
<!-- Created with Inkscape (http://www.inkscape.org/) -->

<svg
   xmlns:svg="http://www.w3.org/2000/svg"
   xmlns="http://www.w3.org/2000/svg"
   version="1.1"
   width="48"
   height="48"
   id="svg4820">
  <defs
     id="defs4822">
    <linearGradient
       x1="23.9468"
       y1="26.248501"
       x2="23.9468"
       y2="13.2114"
       id="SVGID_1_"
       gradientUnits="userSpaceOnUse">
      <stop
         id="stop242"
         style="stop-color:#0d0d0d;stop-opacity:1"
         offset="0" />
      <stop
         id="stop244"
         style="stop-color:#8c8c8c;stop-opacity:1"
         offset="1" />
    </linearGradient>
    <linearGradient
       x1="305.94629"
       y1="-364.4346"
       x2="305.94629"
       y2="-349.47949"
       id="SVGID_2_"
       gradientUnits="userSpaceOnUse"
       gradientTransform="matrix(1,0,0,-1,-282,-323.999)">
      <stop
         id="stop253"
         style="stop-color:#9b9b9b;stop-opacity:1"
         offset="0" />
      <stop
         id="stop255"
         style="stop-color:#ececec;stop-opacity:1"
         offset="1" />
    </linearGradient>
    <linearGradient
       x1="23.9468"
       y1="37.751499"
       x2="23.9468"
       y2="25.812"
       id="SVGID_3_"
       gradientUnits="userSpaceOnUse">
      <stop
         id="stop270"
         style="stop-color:#0d0d0d;stop-opacity:1"
         offset="0" />
      <stop
         id="stop272"
         style="stop-color:#8c8c8c;stop-opacity:1"
         offset="1" />
    </linearGradient>
    <linearGradient
       x1="321.47559"
       y1="-366.07321"
       x2="321.47559"
       y2="-367.60721"
       id="SVGID_4_"
       gradientUnits="userSpaceOnUse"
       gradientTransform="matrix(1,0,0,-1,-282,-323.999)">
      <stop
         id="stop277"
         style="stop-color:#ecebf7;stop-opacity:1"
         offset="0.1917" />
      <stop
         id="stop279"
         style="stop-color:#9e9e9e;stop-opacity:1"
         offset="0.52999997" />
    </linearGradient>
    <linearGradient
       x1="290.41699"
       y1="-366.07321"
       x2="290.41699"
       y2="-367.60721"
       id="SVGID_5_"
       gradientUnits="userSpaceOnUse"
       gradientTransform="matrix(1,0,0,-1,-282,-323.999)">
      <stop
         id="stop284"
         style="stop-color:#ecebf7;stop-opacity:1"
         offset="0.1917" />
      <stop
         id="stop286"
         style="stop-color:#9e9e9e;stop-opacity:1"
         offset="0.52999997" />
    </linearGradient>
    <linearGradient
       x1="305.94629"
       y1="-368.75781"
       x2="305.94629"
       y2="-369.21799"
       id="SVGID_6_"
       gradientUnits="userSpaceOnUse"
       gradientTransform="matrix(1,0,0,-1,-282,-323.999)">
      <stop
         id="stop291"
         style="stop-color:#ecebf7;stop-opacity:1"
         offset="0.1917" />
      <stop
         id="stop293"
         style="stop-color:#9e9e9e;stop-opacity:1"
         offset="0.52999997" />
    </linearGradient>
    <linearGradient
       x1="305.9473"
       y1="-368.3252"
       x2="305.9473"
       y2="-365.30539"
       id="SVGID_7_"
       gradientUnits="userSpaceOnUse"
       gradientTransform="matrix(1,0,0,-1,-282,-323.999)">
      <stop
         id="stop298"
         style="stop-color:#727275;stop-opacity:1"
         offset="0" />
      <stop
         id="stop300"
         style="stop-color:#151517;stop-opacity:1"
         offset="0.52999997" />
    </linearGradient>
    <linearGradient
       x1="305.94531"
       y1="-326.08981"
       x2="305.94531"
       y2="-349.48099"
       id="SVGID_8_"
       gradientUnits="userSpaceOnUse"
       gradientTransform="matrix(1,0,0,-1,-282,-323.999)">
      <stop
         id="stop307"
         style="stop-color:#fcfcfc;stop-opacity:1"
         offset="0" />
      <stop
         id="stop309"
         style="stop-color:#ffffff;stop-opacity:1"
         offset="0.1742" />
      <stop
         id="stop311"
         style="stop-color:#ffffff;stop-opacity:1"
         offset="0.8258" />
      <stop
         id="stop313"
         style="stop-color:#a2a2a3;stop-opacity:1"
         offset="1" />
    </linearGradient>
    <linearGradient
       x1="305.94629"
       y1="-326.08981"
       x2="305.94629"
       y2="-349.48099"
       id="SVGID_9_"
       gradientUnits="userSpaceOnUse"
       gradientTransform="matrix(1,0,0,-1,-282,-323.999)">
      <stop
         id="stop318"
         style="stop-color:#fcfcfc;stop-opacity:1"
         offset="0" />
      <stop
         id="stop320"
         style="stop-color:#eeeeee;stop-opacity:1"
         offset="0.1742" />
      <stop
         id="stop322"
         style="stop-color:#eeeeee;stop-opacity:1"
         offset="0.8258" />
      <stop
         id="stop324"
         style="stop-color:#a2a2a3;stop-opacity:1"
         offset="1" />
    </linearGradient>
    <radialGradient
       cx="314.3721"
       cy="-335.82281"
       r="5.9809999"
       id="SVGID_10_"
       gradientUnits="userSpaceOnUse"
       gradientTransform="matrix(0.8757,-0.131,-0.1048,-0.7,-279.3049,-182.217)">
      <stop
         id="stop329"
         style="stop-color:#c4c4c4;stop-opacity:1"
         offset="0.21349999" />
      <stop
         id="stop331"
         style="stop-color:#eeeeee;stop-opacity:1"
         offset="0.92699999" />
    </radialGradient>
    <linearGradient
       x1="310.38281"
       y1="-325.38821"
       x2="312.82751"
       y2="-335.6459"
       id="SVGID_11_"
       gradientUnits="userSpaceOnUse"
       gradientTransform="matrix(1,0,0,-1,-282,-323.999)">
      <stop
         id="stop336"
         style="stop-color:#fcfdfd;stop-opacity:1"
         offset="0" />
      <stop
         id="stop338"
         style="stop-color:#eeeeee;stop-opacity:1"
         offset="1" />
    </linearGradient>
  </defs>
  <g
     id="layer1">
    <g
       transform="translate(0.053,0)"
       id="Layer_1" />
    <g
       transform="translate(0.053,0)"
       id="Layer_2">
      <g
         id="g239">
        <linearGradient
           x1="23.9468"
           y1="26.248501"
           x2="23.9468"
           y2="13.2114"
           id="linearGradient4725"
           gradientUnits="userSpaceOnUse">
          <stop
             id="stop4727"
             style="stop-color:#0d0d0d;stop-opacity:1"
             offset="0" />
          <stop
             id="stop4729"
             style="stop-color:#8c8c8c;stop-opacity:1"
             offset="1" />
        </linearGradient>
        <rect
           width="29.142"
           height="13.038"
           x="9.375"
           y="13.211"
           id="rect246"
           style="fill:url(#SVGID_1_)" />
        <path
           d="m 45.803,40.436 0,-13.068 c 0,-1.459 -1.527,-2.653 -3.004,-2.653 l -37.705,0 c -1.477,0 -3.004,1.194 -3.004,2.653 l 0,13.068 43.713,0 z"
           id="path248"
           style="fill:#ecebf7" />
        <g
           id="g250">
          <linearGradient
             x1="305.94629"
             y1="-364.4346"
             x2="305.94629"
             y2="-349.47949"
             id="linearGradient4734"
             gradientUnits="userSpaceOnUse"
             gradientTransform="matrix(1,0,0,-1,-282,-323.999)">
            <stop
               id="stop4736"
               style="stop-color:#9b9b9b;stop-opacity:1"
               offset="0" />
            <stop
               id="stop4738"
               style="stop-color:#ececec;stop-opacity:1"
               offset="1" />
          </linearGradient>
          <path
             d="m 45.419,40.436 0,-12.304 c 0,-1.458 -1.187,-2.651 -2.637,-2.651 l -37.672,0 c -1.45,0 -2.637,1.193 -2.637,2.651 l 0,12.304 42.946,0 z"
             id="path257"
             style="fill:url(#SVGID_2_)" />
        </g>
        <path
           d="m 45.803,40.157 0,4.218 c 0,0.422 -0.345,0.767 -0.767,0.767 l -42.179,0 c -0.422,0 -0.767,-0.345 -0.767,-0.767 l 0,-4.218 43.713,0 z"
           id="path259"
           style="fill:#333333" />
        <g
           id="g261">
          <path
             d="m 2.473,40.923 0,3.835 c 0,0.211 0.172,0.383 0.384,0.383 l 42.179,0 c 0.211,0 0.383,-0.172 0.383,-0.383 l 0,-3.835 -42.946,0 z"
             id="path263"
             style="fill:#333333" />
        </g>
        <path
           d="m 38.9,37.368 c 0,0.422 -0.345,0.767 -0.767,0.767 l -28.375,0 c -0.421,0 -0.766,-0.345 -0.766,-0.767 l 0,-8.436 c 0,-0.422 0.345,-0.767 0.766,-0.767 l 28.375,0 c 0.422,0 0.767,0.345 0.767,0.767 l 0,8.436 z"
           id="path265"
           style="fill:#cbc8e6" />
        <g
           id="g267">
          <linearGradient
             x1="23.9468"
             y1="37.751499"
             x2="23.9468"
             y2="25.812"
             id="linearGradient4746"
             gradientUnits="userSpaceOnUse">
            <stop
               id="stop4748"
               style="stop-color:#0d0d0d;stop-opacity:1"
               offset="0" />
            <stop
               id="stop4750"
               style="stop-color:#8c8c8c;stop-opacity:1"
               offset="1" />
          </linearGradient>
          <rect
             width="29.142"
             height="11.939"
             x="9.375"
             y="25.812"
             id="rect274"
             style="fill:url(#SVGID_3_)" />
        </g>
        <linearGradient
           x1="321.47559"
           y1="-366.07321"
           x2="321.47559"
           y2="-367.60721"
           id="linearGradient4753"
           gradientUnits="userSpaceOnUse"
           gradientTransform="matrix(1,0,0,-1,-282,-323.999)">
          <stop
             id="stop4755"
             style="stop-color:#ecebf7;stop-opacity:1"
             offset="0.1917" />
          <stop
             id="stop4757"
             style="stop-color:#9e9e9e;stop-opacity:1"
             offset="0.52999997" />
        </linearGradient>
        <rect
           width="1.9170001"
           height="3.835"
           x="38.518002"
           y="42.074001"
           id="rect281"
           style="fill:url(#SVGID_4_)" />
        <linearGradient
           x1="290.41699"
           y1="-366.07321"
           x2="290.41699"
           y2="-367.60721"
           id="linearGradient4760"
           gradientUnits="userSpaceOnUse"
           gradientTransform="matrix(1,0,0,-1,-282,-323.999)">
          <stop
             id="stop4762"
             style="stop-color:#ecebf7;stop-opacity:1"
             offset="0.1917" />
          <stop
             id="stop4764"
             style="stop-color:#9e9e9e;stop-opacity:1"
             offset="0.52999997" />
        </linearGradient>
        <rect
           width="1.9170001"
           height="3.835"
           x="7.4580002"
           y="42.074001"
           id="rect288"
           style="fill:url(#SVGID_5_)" />
        <linearGradient
           x1="305.94629"
           y1="-368.75781"
           x2="305.94629"
           y2="-369.21799"
           id="linearGradient4767"
           gradientUnits="userSpaceOnUse"
           gradientTransform="matrix(1,0,0,-1,-282,-323.999)">
          <stop
             id="stop4769"
             style="stop-color:#ecebf7;stop-opacity:1"
             offset="0.1917" />
          <stop
             id="stop4771"
             style="stop-color:#9e9e9e;stop-opacity:1"
             offset="0.52999997" />
        </linearGradient>
        <rect
           width="29.142"
           height="1.15"
           x="9.375"
           y="44.757999"
           id="rect295"
           style="fill:url(#SVGID_6_)" />
        <linearGradient
           x1="305.9473"
           y1="-368.3252"
           x2="305.9473"
           y2="-365.30539"
           id="linearGradient4774"
           gradientUnits="userSpaceOnUse"
           gradientTransform="matrix(1,0,0,-1,-282,-323.999)">
          <stop
             id="stop4776"
             style="stop-color:#727275;stop-opacity:1"
             offset="0" />
          <stop
             id="stop4778"
             style="stop-color:#151517;stop-opacity:1"
             offset="0.52999997" />
        </linearGradient>
        <polygon
           points="38.518,44.758 9.375,44.758 9.375,42.074 9.758,41.307 38.134,41.307 38.518,42.074 38.518,42.074 "
           id="polygon302"
           style="fill:url(#SVGID_7_)" />
        <rect
           width="29.142"
           height="1.15"
           x="9.375"
           y="24.714001"
           id="rect304"
           style="fill:#333336" />
        <linearGradient
           x1="305.94531"
           y1="-326.08981"
           x2="305.94531"
           y2="-349.48099"
           id="linearGradient4782"
           gradientUnits="userSpaceOnUse"
           gradientTransform="matrix(1,0,0,-1,-282,-323.999)">
          <stop
             id="stop4784"
             style="stop-color:#fcfcfc;stop-opacity:1"
             offset="0" />
          <stop
             id="stop4786"
             style="stop-color:#ffffff;stop-opacity:1"
             offset="0.1742" />
          <stop
             id="stop4788"
             style="stop-color:#ffffff;stop-opacity:1"
             offset="0.8258" />
          <stop
             id="stop4790"
             style="stop-color:#a2a2a3;stop-opacity:1"
             offset="1" />
        </linearGradient>
        <path
           d="m 36.6,25.865 -25.308,0 c 0,0 0,-22.234 0,-22.741 0,-0.507 0.521,-1.033 1.022,-1.033 0.382,0 8.232,0 11.3,0 2.697,0 12.985,11.629 12.985,13.23 0.001,2.067 0.001,10.544 0.001,10.544 z"
           id="path315"
           style="fill:url(#SVGID_8_)" />
        <linearGradient
           x1="305.94629"
           y1="-326.08981"
           x2="305.94629"
           y2="-349.48099"
           id="linearGradient4793"
           gradientUnits="userSpaceOnUse"
           gradientTransform="matrix(1,0,0,-1,-282,-323.999)">
          <stop
             id="stop4795"
             style="stop-color:#fcfcfc;stop-opacity:1"
             offset="0" />
          <stop
             id="stop4797"
             style="stop-color:#eeeeee;stop-opacity:1"
             offset="0.1742" />
          <stop
             id="stop4799"
             style="stop-color:#eeeeee;stop-opacity:1"
             offset="0.8258" />
          <stop
             id="stop4801"
             style="stop-color:#a2a2a3;stop-opacity:1"
             offset="1" />
        </linearGradient>
        <path
           d="m 36.217,25.865 -24.541,0 c 0,0 0,-22.234 0,-22.741 0,-0.507 0.505,-1.033 0.991,-1.033 0.37,0 7.998,0 10.97,0 2.612,0 12.58,11.629 12.58,13.23 0,2.067 0,10.544 0,10.544 z"
           id="path326"
           style="fill:url(#SVGID_9_)" />
        <radialGradient
           cx="314.3721"
           cy="-335.82281"
           r="5.9809999"
           id="radialGradient4804"
           gradientUnits="userSpaceOnUse"
           gradientTransform="matrix(0.8757,-0.131,-0.1048,-0.7,-279.3049,-182.217)">
          <stop
             id="stop4806"
             style="stop-color:#c4c4c4;stop-opacity:1"
             offset="0.21349999" />
          <stop
             id="stop4808"
             style="stop-color:#eeeeee;stop-opacity:1"
             offset="0.92699999" />
        </radialGradient>
        <path
           d="m 34.77,12.804 c 0.288,1.927 -0.425,3.631 -2.837,3.992 -2.409,0.361 -5.605,-0.758 -5.894,-2.685 -0.289,-1.928 0.586,-2.558 2.996,-2.919 2.41,-0.36 3.856,0.521 5.735,1.612 z"
           id="path333"
           style="fill:url(#SVGID_10_)" />
        <linearGradient
           x1="310.38281"
           y1="-325.38821"
           x2="312.82751"
           y2="-335.6459"
           id="linearGradient4811"
           gradientUnits="userSpaceOnUse"
           gradientTransform="matrix(1,0,0,-1,-282,-323.999)">
          <stop
             id="stop4813"
             style="stop-color:#fcfdfd;stop-opacity:1"
             offset="0" />
          <stop
             id="stop4815"
             style="stop-color:#eeeeee;stop-opacity:1"
             offset="1" />
        </linearGradient>
        <path
           d="M 36.6,15.321 C 36.6,12.233 26.343,12.228 26.343,12.228 26.333,13.25 26.447,2.09 23.614,2.09 26.312,2.091 36.6,14.29 36.6,15.321 z"
           id="path340"
           style="fill:url(#SVGID_11_)" />
        <rect
           width="29.077999"
           height="0.384"
           x="9.375"
           y="25.865"
           id="rect342"
           style="fill:#333336" />
        <path
           d="m 42.798,22.624 -2.189,0 0,-9.414 c 0,-1.154 -0.937,-2.09 -2.091,-2.09 l -2.054,0 C 33.745,7.616 28.252,1.685 25.174,0.362 24.615,0.119 24.112,0 23.637,0 L 12.314,0 C 10.655,0 9.201,1.458 9.201,3.124 l 0,8.002 C 8.129,11.217 7.285,12.114 7.285,13.21 l 0,9.413 -2.191,0 C 2.38,22.624 0,24.839 0,27.368 l 0,17.008 c 0,1.294 0.893,2.432 2.146,2.752 0.229,0.067 0.47,0.104 0.71,0.104 l 2.984,0 C 6.222,47.7 6.807,48 7.458,48 l 32.975,0 c 0.651,0 1.236,-0.301 1.618,-0.769 l 2.983,0 c 1.578,0 2.858,-1.281 2.858,-2.856 l 0,-17.007 c 0.002,-2.529 -2.38,-4.744 -5.094,-4.744 z m 3.005,21.751 c 0,0.422 -0.345,0.767 -0.767,0.767 l -4.602,0 0,0.768 -32.976,0 0,-0.768 -4.601,0 c -0.053,0 -0.103,-0.011 -0.149,-0.03 C 2.359,45.04 2.09,44.744 2.09,44.375 l 0,-17.007 c 0,-1.459 1.527,-2.653 3.004,-2.653 l 4.282,0 0,-11.504 1.917,0 0,-10.087 c 0,-0.506 0.521,-1.033 1.022,-1.033 l 11.322,0 c 0.192,0 0.429,0.07 0.694,0.188 2.672,1.147 8.57,7.459 11.089,10.933 l 3.098,0 0,11.503 4.281,0 c 1.477,0 3.004,1.194 3.004,2.653 l 0,17.007 z"
           id="path344"
           style="opacity:0.3" />
      </g>
    </g>
  </g>
</svg>
