<?xml version="1.0" encoding="UTF-8" standalone="no"?>
<!-- Created with Inkscape (http://www.inkscape.org/) -->
<svg
   xmlns:dc="http://purl.org/dc/elements/1.1/"
   xmlns:cc="http://creativecommons.org/ns#"
   xmlns:rdf="http://www.w3.org/1999/02/22-rdf-syntax-ns#"
   xmlns:svg="http://www.w3.org/2000/svg"
   xmlns="http://www.w3.org/2000/svg"
   xmlns:xlink="http://www.w3.org/1999/xlink"
   xmlns:sodipodi="http://sodipodi.sourceforge.net/DTD/sodipodi-0.dtd"
   xmlns:inkscape="http://www.inkscape.org/namespaces/inkscape"
   width="48px"
   height="48px"
   id="svg7361"
   sodipodi:version="0.32"
   inkscape:version="0.46"
   sodipodi:docname="drawing.svg"
   inkscape:output_extension="org.inkscape.output.svg.inkscape">
  <defs
     id="defs7363">
    <linearGradient
       inkscape:collect="always"
       id="linearGradient5166">
      <stop
         style="stop-color:white;stop-opacity:1;"
         offset="0"
         id="stop5168" />
      <stop
         style="stop-color:white;stop-opacity:0;"
         offset="1"
         id="stop5170" />
    </linearGradient>
    <linearGradient
       inkscape:collect="always"
       xlink:href="#linearGradient5166"
       id="linearGradient5172"
       x1="19.450956"
       y1="14.463861"
       x2="23.71875"
       y2="48.404987"
       gradientUnits="userSpaceOnUse" />
    <linearGradient
       inkscape:collect="always"
       id="linearGradient5176">
      <stop
         style="stop-color:black;stop-opacity:1;"
         offset="0"
         id="stop5178" />
      <stop
         style="stop-color:black;stop-opacity:0;"
         offset="1"
         id="stop5180" />
    </linearGradient>
    <linearGradient
       inkscape:collect="always"
       xlink:href="#linearGradient5176"
       id="linearGradient5182"
       x1="25.632622"
       y1="10.611729"
       x2="38.714096"
       y2="18.389904"
       gradientUnits="userSpaceOnUse"
       gradientTransform="translate(4.4541495e-4,8.8499931e-5)" />
    <linearGradient
       inkscape:collect="always"
       xlink:href="#linearGradient5162"
       id="linearGradient5168"
       x1="24.365993"
       y1="20.246058"
       x2="32.600704"
       y2="28.554564"
       gradientUnits="userSpaceOnUse"
       gradientTransform="translate(4.4541495e-4,8.8499931e-5)" />
    <linearGradient
       id="linearGradient5162">
      <stop
         style="stop-color:#babdb6;stop-opacity:1;"
         offset="0"
         id="stop5164" />
      <stop
         style="stop-color:white;stop-opacity:1;"
         offset="1"
         id="stop5166" />
    </linearGradient>
    <linearGradient
       inkscape:collect="always"
       xlink:href="#linearGradient5162"
       id="linearGradient5170"
       gradientUnits="userSpaceOnUse"
       x1="22.008699"
       y1="36.509514"
       x2="23.585091"
       y2="14.412428"
       gradientTransform="translate(4.4541495e-4,8.8499931e-5)" />
    <linearGradient
       id="linearGradient5196">
      <stop
         style="stop-color:#dfe2dc;stop-opacity:1;"
         offset="0"
         id="stop5198" />
      <stop
         style="stop-color:#86917a;stop-opacity:1;"
         offset="1"
         id="stop5200" />
    </linearGradient>
    <radialGradient
       inkscape:collect="always"
       xlink:href="#linearGradient5196"
       id="radialGradient5363"
       gradientUnits="userSpaceOnUse"
       gradientTransform="matrix(1.790269,0,0,1.769263,-15.813494,-11.949881)"
       cx="20.089987"
       cy="10.853651"
       fx="20.089987"
       fy="10.853651"
       r="22.597087" />
    <linearGradient
       id="linearGradient5188">
      <stop
         style="stop-color:white;stop-opacity:1;"
         offset="0"
         id="stop5190" />
      <stop
         style="stop-color:#aeaea3;stop-opacity:1;"
         offset="1"
         id="stop5192" />
    </linearGradient>
    <radialGradient
       inkscape:collect="always"
       xlink:href="#linearGradient5188"
       id="radialGradient5361"
       gradientUnits="userSpaceOnUse"
       gradientTransform="matrix(2.135667,0,0,2.110607,-26.901314,-15.669051)"
       cx="23.688078"
       cy="14.210698"
       fx="23.688078"
       fy="14.210698"
       r="22.597087" />
    <linearGradient
       inkscape:collect="always"
       id="linearGradient5150">
      <stop
         style="stop-color:black;stop-opacity:1;"
         offset="0"
         id="stop5152" />
      <stop
         style="stop-color:black;stop-opacity:0;"
         offset="1"
         id="stop5154" />
    </linearGradient>
    <radialGradient
       inkscape:collect="always"
       xlink:href="#linearGradient5150"
       id="radialGradient5156"
       cx="24.837126"
       cy="40.663769"
       fx="24.837126"
       fy="40.663769"
       r="21.478369"
       gradientTransform="matrix(1,0,0,0.325103,0,27.44386)"
       gradientUnits="userSpaceOnUse" />
  </defs>
  <sodipodi:namedview
     id="base"
     pagecolor="#ffffff"
     bordercolor="#666666"
     borderopacity="1.0"
     inkscape:pageopacity="0.0"
     inkscape:pageshadow="2"
     inkscape:zoom="7"
     inkscape:cx="24"
     inkscape:cy="24"
     inkscape:current-layer="layer1"
     showgrid="true"
     inkscape:grid-bbox="true"
     inkscape:document-units="px"
     inkscape:window-width="641"
     inkscape:window-height="690"
     inkscape:window-x="179"
     inkscape:window-y="250" />
  <metadata
     id="metadata7366">
    <rdf:RDF>
      <cc:Work
         rdf:about="">
        <dc:format>image/svg+xml</dc:format>
        <dc:type
           rdf:resource="http://purl.org/dc/dcmitype/StillImage" />
      </cc:Work>
    </rdf:RDF>
  </metadata>
  <g
     id="layer1"
     inkscape:label="Layer 1"
     inkscape:groupmode="layer">
    <path
       sodipodi:type="arc"
       style="opacity:0.3258427;fill:url(#radialGradient5156);fill-opacity:1;fill-rule:evenodd;stroke:none;stroke-width:1;stroke-linecap:butt;stroke-linejoin:miter;marker:none;marker-start:none;marker-mid:none;marker-end:none;stroke-miterlimit:4;stroke-dasharray:none;stroke-dashoffset:0;stroke-opacity:1;visibility:visible;display:inline;overflow:visible"
       id="path4275"
       sodipodi:cx="24.837126"
       sodipodi:cy="40.663769"
       sodipodi:rx="21.478369"
       sodipodi:ry="6.9826794"
       d="M 46.315495,40.663769 A 21.478369,6.9826794 0 1 1 3.358757,40.663769 A 21.478369,6.9826794 0 1 1 46.315495,40.663769 z"
       transform="matrix(1.106996,0,0,1.106996,-3.3641306,-5.4114275)" />
    <path
       style="opacity:1;fill:url(#radialGradient5361);fill-opacity:1;fill-rule:evenodd;stroke:url(#radialGradient5363);stroke-width:1;stroke-linecap:butt;stroke-linejoin:miter;marker:none;marker-start:none;marker-mid:none;marker-end:none;stroke-miterlimit:4;stroke-dasharray:none;stroke-dashoffset:0;stroke-opacity:1;visibility:visible;display:inline;overflow:visible"
       d="M 9.0160569,37.570264 L 7.2482899,40.398691 L 10.960601,41.989681 L 13.612252,39.868361 L 25.45629,40.752244 L 29.168601,45.701992 L 32.527358,40.221914 L 36.769999,42.520011 L 42.426853,41.812905 L 41.012639,38.807701 L 44.901727,34.918613 L 39.421649,28.731429 L 44.72495,29.438536 L 47.023047,27.317216 L 44.017843,27.847546 L 40.835863,22.367468 L 36.239669,21.306808 L 39.951979,20.069371 L 40.128756,16.887391 L 32.880911,10.52343 L 30.229261,2.0381477 L 18.208446,5.5736816 L 15.203242,12.64475 L 14.142582,10.346652 L 11.137378,10.52343 L 11.137378,13.351857 L 7.6018433,9.2859922 L 2.8288725,14.412517 L 2.8288725,21.660361 L 11.137378,28.908206 L 5.8340764,31.91341 L 6.010853,34.918613 L 9.0160569,37.570264 z"
       id="path4273" />
    <path
       style="opacity:0.76966289;fill:url(#linearGradient5170);fill-opacity:1;fill-rule:evenodd;stroke:none;stroke-width:1;stroke-linecap:butt;stroke-linejoin:miter;marker:none;marker-start:none;marker-mid:none;marker-end:none;stroke-miterlimit:4;stroke-dasharray:none;stroke-dashoffset:0;stroke-opacity:1;visibility:visible;display:inline;overflow:visible"
       d="M 19.445883,22.721022 L 18.561999,29.261759 L 20.683319,32.620516 L 16.087125,34.03473 L 13.435475,39.338031 L 25.45629,40.221914 L 28.284717,44.287778 L 30.582814,38.100594 L 26.163397,35.272167 L 19.445883,37.216711 L 22.097533,33.681177 L 20.683319,27.493992 L 19.445883,22.721022 z"
       id="path5158" />
    <path
       style="opacity:0.61797755;fill:url(#linearGradient5168);fill-opacity:1;fill-rule:evenodd;stroke:none;stroke-width:1;stroke-linecap:butt;stroke-linejoin:miter;marker:none;marker-start:none;marker-mid:none;marker-end:none;stroke-miterlimit:4;stroke-dasharray:none;stroke-dashoffset:0;stroke-opacity:1;visibility:visible;display:inline;overflow:visible"
       d="M 20.506543,23.781682 L 24.92596,30.675973 L 32.173805,25.726225 L 36.593222,28.201099 L 40.128756,25.195895 L 43.310736,28.024322 L 40.305533,23.074575 L 33.411241,21.483585 L 24.749183,17.240944 C 24.749183,17.240944 12.374815,20.953255 13.081921,20.953255 C 13.789028,20.953255 23.33497,21.130031 23.33497,21.130031 L 24.92596,18.831934 L 29.168601,20.776478 L 20.506543,23.781682 z"
       id="path5160" />
    <path
       style="opacity:1;fill:#ffffff;fill-opacity:1;fill-rule:evenodd;stroke:none;stroke-width:1;stroke-linecap:butt;stroke-linejoin:miter;marker:none;marker-start:none;marker-mid:none;marker-end:none;stroke-miterlimit:4;stroke-dasharray:none;stroke-dashoffset:0;stroke-opacity:1;visibility:visible;display:inline;overflow:visible"
       d="M 29.522154,3.4523612 L 19.092329,6.9878951 L 17.678116,10.876983 L 23.688523,15.119624 L 29.345377,9.6395456 L 29.522154,3.4523612 z"
       id="path5172" />
    <path
       style="opacity:0.13483145;fill:url(#linearGradient5182);fill-opacity:1;fill-rule:evenodd;stroke:none;stroke-width:1;stroke-linecap:butt;stroke-linejoin:miter;marker:none;marker-start:none;marker-mid:none;marker-end:none;stroke-miterlimit:4;stroke-dasharray:none;stroke-dashoffset:0;stroke-opacity:1;visibility:visible;display:inline;overflow:visible"
       d="M 29.698931,3.8059146 L 31.997028,11.230536 L 36.239669,14.942847 L 27.577611,12.998303 C 27.577611,12.998303 25.102737,15.82673 26.163397,15.82673 C 27.224057,15.82673 38.714542,17.240944 38.714542,17.240944 L 38.537766,19.539041 L 22.27431,16.533837 L 29.345377,9.993099 L 29.698931,3.8059146 z"
       id="path5174" />
    <path
       style="opacity:1;fill:#ffffff;fill-opacity:1;fill-rule:evenodd;stroke:none;stroke-width:1;stroke-linecap:butt;stroke-linejoin:miter;marker:none;marker-start:none;marker-mid:none;marker-end:none;stroke-miterlimit:4;stroke-dasharray:none;stroke-dashoffset:0;stroke-opacity:1;visibility:visible;display:inline;overflow:visible"
       d="M 7.4250666,14.23574 L 6.5411831,23.074575 L 8.4857268,17.064167 L 13.612252,18.655158 L 14.849688,16.003507 L 21.036873,16.887391 L 22.451086,15.649954 L 13.435475,15.2964 L 12.551591,17.771274 L 8.6625035,15.82673 L 7.4250666,14.23574 z"
       id="path5184" />
    <path
       style="opacity:1;fill:#ffffff;fill-opacity:1;fill-rule:evenodd;stroke:none;stroke-width:1;stroke-linecap:butt;stroke-linejoin:miter;marker:none;marker-start:none;marker-mid:none;marker-end:none;stroke-miterlimit:4;stroke-dasharray:none;stroke-dashoffset:0;stroke-opacity:1;visibility:visible;display:inline;overflow:visible"
       d="M 22.451086,27.317216 L 25.45629,30.85275 L 32.350581,26.256555 L 36.593222,28.554652 L 43.487513,35.09539 L 35.886115,29.261759 L 32.173805,28.201099 L 24.92596,33.150847 L 22.451086,27.317216 z"
       id="path5186" />
    <path
       sodipodi:type="inkscape:offset"
       inkscape:radius="-0.83777463"
       inkscape:original="M 30.21875 2.03125 L 18.21875 5.5625 L 15.21875 12.65625 L 14.15625 10.34375 L 11.125 10.53125 L 11.125 13.34375 L 7.59375 9.28125 L 2.84375 14.40625 L 2.84375 21.65625 L 11.125 28.90625 L 5.84375 31.90625 L 6 34.90625 L 9.03125 37.5625 L 7.25 40.40625 L 10.96875 42 L 13.625 39.875 L 25.46875 40.75 L 29.15625 45.6875 L 32.53125 40.21875 L 36.78125 42.53125 L 42.4375 41.8125 L 41 38.8125 L 44.90625 34.90625 L 39.40625 28.71875 L 44.71875 29.4375 L 47.03125 27.3125 L 44.03125 27.84375 L 40.84375 22.375 L 36.25 21.3125 L 39.9375 20.0625 L 40.125 16.875 L 32.875 10.53125 L 30.21875 2.03125 z "
       xlink:href="#path4273"
       style="opacity:1;fill:none;fill-opacity:1;fill-rule:evenodd;stroke:url(#linearGradient5172);stroke-width:1;stroke-linecap:butt;stroke-linejoin:miter;marker:none;marker-start:none;marker-mid:none;marker-end:none;stroke-miterlimit:4;stroke-dasharray:none;stroke-dashoffset:0;stroke-opacity:1;visibility:visible;display:inline;overflow:visible"
       id="path5359"
       inkscape:href="#path4273"
       d="M 29.65625,3.09375 L 18.84375,6.28125 L 16,12.96875 C 15.871801,13.274173 15.575702,13.475399 15.244534,13.482158 C 14.913366,13.488916 14.609303,13.299938 14.46875,13 L 13.65625,11.21875 L 11.96875,11.3125 L 11.96875,13.34375 C 11.973462,13.69495 11.758625,14.011813 11.430625,14.13743 C 11.102625,14.263047 10.731089,14.170753 10.5,13.90625 L 7.5625,10.53125 L 3.6875,14.71875 L 3.6875,21.28125 L 11.6875,28.28125 C 11.883657,28.462891 11.981357,28.727236 11.950479,28.992788 C 11.919601,29.25834 11.763852,29.493214 11.53125,29.625 L 6.71875,32.375 L 6.8125,34.5 L 9.59375,36.9375 C 9.8958001,37.207345 9.9615761,37.654622 9.75,38 L 8.5,40 L 10.84375,41.03125 L 13.09375,39.21875 C 13.260233,39.0823 13.472846,39.015159 13.6875,39.03125 L 25.53125,39.90625 C 25.769158,39.930835 25.985219,40.055923 26.125,40.25 L 29.09375,44.21875 L 31.8125,39.78125 C 32.041236,39.389926 32.539705,39.251463 32.9375,39.46875 L 36.96875,41.65625 L 41.1875,41.125 L 40.25,39.1875 C 40.087762,38.864671 40.150741,38.474201 40.40625,38.21875 L 43.75,34.875 L 38.78125,29.28125 C 38.529387,29.019826 38.474521,28.625949 38.645349,28.305645 C 38.816178,27.985341 39.17384,27.811478 39.53125,27.875 L 43.40625,28.40625 C 43.369413,28.35773 43.337977,28.305337 43.3125,28.25 L 40.3125,23.09375 L 36.0625,22.125 C 35.709163,22.034799 35.454745,21.726417 35.433331,21.362378 C 35.411917,20.998338 35.628425,20.662254 35.96875,20.53125 L 39.125,19.46875 L 39.25,17.21875 L 32.3125,11.15625 C 32.19648,11.05643 32.110019,10.926737 32.0625,10.78125 L 29.65625,3.09375 z"
       transform="translate(5e-4,0)" />
    <g
       id="g3147"
       transform="translate(-0.9995546,8.8499931e-5)">
      <rect
         ry="2.2097087"
         rx="2.2097087"
         inkscape:r_cy="true"
         inkscape:r_cx="true"
         y="27.5"
         x="28.5"
         height="19"
         width="20"
         id="rect1686"
         style="opacity:1;fill:#cc0000;fill-opacity:1;fill-rule:evenodd;stroke:#a40000;stroke-width:1;stroke-linecap:square;stroke-linejoin:round;marker:none;marker-start:none;marker-mid:none;marker-end:none;stroke-miterlimit:4;stroke-dasharray:none;stroke-dashoffset:0;stroke-opacity:1;visibility:visible;display:inline;overflow:visible" />
      <g
         inkscape:r_cy="true"
         inkscape:r_cx="true"
         transform="matrix(0.779029,0,0,0.779029,28.87262,8.175921)"
         id="g2254">
        <path
           style="opacity:1;fill:none;fill-opacity:1;fill-rule:evenodd;stroke:#ffffff;stroke-width:2.56729817;stroke-linecap:round;stroke-linejoin:round;marker:none;marker-start:none;marker-mid:none;marker-end:none;stroke-miterlimit:4;stroke-dasharray:none;stroke-dashoffset:0;stroke-opacity:1;visibility:visible;display:inline;overflow:visible"
           d="M 8,32 L 18,42"
           id="path1377"
           inkscape:r_cx="true"
           inkscape:r_cy="true" />
        <path
           inkscape:r_cy="true"
           inkscape:r_cx="true"
           id="path2252"
           d="M 18,32 L 8,42"
           style="opacity:1;fill:none;fill-opacity:1;fill-rule:evenodd;stroke:#ffffff;stroke-width:2.56729817;stroke-linecap:round;stroke-linejoin:round;marker:none;marker-start:none;marker-mid:none;marker-end:none;stroke-miterlimit:4;stroke-dasharray:none;stroke-dashoffset:0;stroke-opacity:1;visibility:visible;display:inline;overflow:visible" />
      </g>
      <rect
         style="opacity:0.4;fill:none;fill-opacity:1;fill-rule:evenodd;stroke:#ffffff;stroke-width:1.00000012;stroke-linecap:square;stroke-linejoin:round;marker:none;marker-start:none;marker-mid:none;marker-end:none;stroke-miterlimit:4;stroke-dasharray:none;stroke-dashoffset:0;stroke-opacity:1;visibility:visible;display:inline;overflow:visible"
         id="rect2258"
         width="18.09524"
         height="17.190477"
         x="29.452381"
         y="28.404764"
         inkscape:r_cx="true"
         inkscape:r_cy="true"
         rx="1.5847089"
         ry="1.5847089" />
    </g>
  </g>
</svg>
