<?xml version="1.0" encoding="UTF-8" standalone="no"?>
<!-- Created with Inkscape (http://www.inkscape.org/) -->
<svg
   xmlns:dc="http://purl.org/dc/elements/1.1/"
   xmlns:cc="http://creativecommons.org/ns#"
   xmlns:rdf="http://www.w3.org/1999/02/22-rdf-syntax-ns#"
   xmlns:svg="http://www.w3.org/2000/svg"
   xmlns="http://www.w3.org/2000/svg"
   xmlns:xlink="http://www.w3.org/1999/xlink"
   xmlns:sodipodi="http://sodipodi.sourceforge.net/DTD/sodipodi-0.dtd"
   xmlns:inkscape="http://www.inkscape.org/namespaces/inkscape"
   width="48px"
   height="48px"
   id="svg7198"
   sodipodi:version="0.32"
   inkscape:version="0.46"
   sodipodi:docname="drawing-1.svg"
   inkscape:output_extension="org.inkscape.output.svg.inkscape">
  <defs
     id="defs7200">
    <linearGradient
       inkscape:collect="always"
       id="linearGradient5166">
      <stop
         style="stop-color:white;stop-opacity:1;"
         offset="0"
         id="stop5168" />
      <stop
         style="stop-color:white;stop-opacity:0;"
         offset="1"
         id="stop5170" />
    </linearGradient>
    <linearGradient
       inkscape:collect="always"
       id="linearGradient5176">
      <stop
         style="stop-color:black;stop-opacity:1;"
         offset="0"
         id="stop5178" />
      <stop
         style="stop-color:black;stop-opacity:0;"
         offset="1"
         id="stop5180" />
    </linearGradient>
    <linearGradient
       id="linearGradient5162">
      <stop
         style="stop-color:#babdb6;stop-opacity:1;"
         offset="0"
         id="stop5164" />
      <stop
         style="stop-color:white;stop-opacity:1;"
         offset="1"
         id="stop5166" />
    </linearGradient>
    <linearGradient
       id="linearGradient5196">
      <stop
         style="stop-color:#dfe2dc;stop-opacity:1;"
         offset="0"
         id="stop5198" />
      <stop
         style="stop-color:#86917a;stop-opacity:1;"
         offset="1"
         id="stop5200" />
    </linearGradient>
    <linearGradient
       id="linearGradient5188">
      <stop
         style="stop-color:white;stop-opacity:1;"
         offset="0"
         id="stop5190" />
      <stop
         style="stop-color:#aeaea3;stop-opacity:1;"
         offset="1"
         id="stop5192" />
    </linearGradient>
    <linearGradient
       inkscape:collect="always"
       id="linearGradient5150">
      <stop
         style="stop-color:black;stop-opacity:1;"
         offset="0"
         id="stop5152" />
      <stop
         style="stop-color:black;stop-opacity:0;"
         offset="1"
         id="stop5154" />
    </linearGradient>
    <radialGradient
       inkscape:collect="always"
       xlink:href="#linearGradient5150"
       id="radialGradient7251"
       gradientUnits="userSpaceOnUse"
       gradientTransform="matrix(1,0,0,0.325103,0,27.44386)"
       cx="24.837126"
       cy="40.663769"
       fx="24.837126"
       fy="40.663769"
       r="21.478369" />
    <radialGradient
       inkscape:collect="always"
       xlink:href="#linearGradient5188"
       id="radialGradient7253"
       gradientUnits="userSpaceOnUse"
       gradientTransform="matrix(2.135667,0,0,2.110607,-26.901314,-15.669052)"
       cx="23.688078"
       cy="14.210698"
       fx="23.688078"
       fy="14.210698"
       r="22.597087" />
    <radialGradient
       inkscape:collect="always"
       xlink:href="#linearGradient5196"
       id="radialGradient7255"
       gradientUnits="userSpaceOnUse"
       gradientTransform="matrix(1.790269,0,0,1.769263,-15.813494,-11.949882)"
       cx="20.089987"
       cy="10.853651"
       fx="20.089987"
       fy="10.853651"
       r="22.597087" />
    <linearGradient
       inkscape:collect="always"
       xlink:href="#linearGradient5166"
       id="linearGradient7257"
       gradientUnits="userSpaceOnUse"
       x1="19.450956"
       y1="14.463861"
       x2="23.71875"
       y2="48.404987" />
    <linearGradient
       inkscape:collect="always"
       xlink:href="#linearGradient5162"
       id="linearGradient7259"
       gradientUnits="userSpaceOnUse"
       gradientTransform="translate(4.4541495e-4,8.8499931e-5)"
       x1="22.008699"
       y1="36.509514"
       x2="23.585091"
       y2="14.412428" />
    <linearGradient
       inkscape:collect="always"
       xlink:href="#linearGradient5162"
       id="linearGradient7261"
       gradientUnits="userSpaceOnUse"
       gradientTransform="translate(4.4541495e-4,8.8499931e-5)"
       x1="24.365993"
       y1="20.246058"
       x2="32.600704"
       y2="28.554564" />
    <linearGradient
       inkscape:collect="always"
       xlink:href="#linearGradient5176"
       id="linearGradient7263"
       gradientUnits="userSpaceOnUse"
       gradientTransform="translate(4.4541495e-4,8.8499931e-5)"
       x1="25.632622"
       y1="10.611729"
       x2="38.714096"
       y2="18.389904" />
  </defs>
  <sodipodi:namedview
     id="base"
     pagecolor="#ffffff"
     bordercolor="#666666"
     borderopacity="1.0"
     inkscape:pageopacity="0.0"
     inkscape:pageshadow="2"
     inkscape:zoom="7"
     inkscape:cx="24"
     inkscape:cy="35.428571"
     inkscape:current-layer="layer1"
     showgrid="true"
     inkscape:grid-bbox="true"
     inkscape:document-units="px"
     inkscape:window-width="641"
     inkscape:window-height="690"
     inkscape:window-x="183"
     inkscape:window-y="158" />
  <metadata
     id="metadata7203">
    <rdf:RDF>
      <cc:Work
         rdf:about="">
        <dc:format>image/svg+xml</dc:format>
        <dc:type
           rdf:resource="http://purl.org/dc/dcmitype/StillImage" />
      </cc:Work>
    </rdf:RDF>
  </metadata>
  <g
     id="layer1"
     inkscape:label="Layer 1"
     inkscape:groupmode="layer">
    <path
       sodipodi:type="arc"
       style="opacity:0.3258427;fill:url(#radialGradient7251);fill-opacity:1;fill-rule:evenodd;stroke:none;stroke-width:1;stroke-linecap:butt;stroke-linejoin:miter;marker:none;marker-start:none;marker-mid:none;marker-end:none;stroke-miterlimit:4;stroke-dasharray:none;stroke-dashoffset:0;stroke-opacity:1;visibility:visible;display:inline;overflow:visible"
       id="path4275"
       sodipodi:cx="24.837126"
       sodipodi:cy="40.663769"
       sodipodi:rx="21.478369"
       sodipodi:ry="6.9826794"
       d="M 46.315495,40.663769 A 21.478369,6.9826794 0 1 1 3.358757,40.663769 A 21.478369,6.9826794 0 1 1 46.315495,40.663769 z"
       transform="matrix(1.106996,0,0,1.106996,-3.3641306,-5.4114275)" />
    <path
       style="opacity:1;fill:url(#radialGradient7253);fill-opacity:1;fill-rule:evenodd;stroke:url(#radialGradient7255);stroke-width:1;stroke-linecap:butt;stroke-linejoin:miter;marker:none;marker-start:none;marker-mid:none;marker-end:none;stroke-miterlimit:4;stroke-dasharray:none;stroke-dashoffset:0;stroke-opacity:1;visibility:visible;display:inline;overflow:visible"
       d="M 9.0160574,37.570263 L 7.2482904,40.39869 L 10.9606,41.98968 L 13.612251,39.86836 L 25.456289,40.752243 L 29.1686,45.701991 L 32.527357,40.221913 L 36.769998,42.52001 L 42.426852,41.812904 L 41.012638,38.8077 L 44.901726,34.918612 L 39.421648,28.731429 L 44.724949,29.438536 L 47.023046,27.317216 L 44.017842,27.847546 L 40.835862,22.367468 L 36.239668,21.306808 L 39.951978,20.069371 L 40.128755,16.887391 L 32.88091,10.523429 L 30.22926,2.0381485 L 18.208445,5.5736815 L 15.203241,12.644749 L 14.142581,10.346652 L 11.137377,10.523429 L 11.137377,13.351856 L 7.6018434,9.2859925 L 2.8288734,14.412516 L 2.8288734,21.660361 L 11.137377,28.908206 L 5.8340764,31.91341 L 6.0108534,34.918612 L 9.0160574,37.570263 z"
       id="path4273" />
    <path
       style="opacity:0.76966289;fill:url(#linearGradient7259);fill-opacity:1;fill-rule:evenodd;stroke:none;stroke-width:1;stroke-linecap:butt;stroke-linejoin:miter;marker:none;marker-start:none;marker-mid:none;marker-end:none;stroke-miterlimit:4;stroke-dasharray:none;stroke-dashoffset:0;stroke-opacity:1;visibility:visible;display:inline;overflow:visible"
       d="M 19.445882,22.721022 L 18.561998,29.261759 L 20.683318,32.620516 L 16.087124,34.03473 L 13.435474,39.33803 L 25.456289,40.221913 L 28.284716,44.287777 L 30.582813,38.100593 L 26.163396,35.272166 L 19.445882,37.21671 L 22.097532,33.681177 L 20.683318,27.493992 L 19.445882,22.721022 z"
       id="path5158" />
    <path
       style="opacity:0.61797755;fill:url(#linearGradient7261);fill-opacity:1;fill-rule:evenodd;stroke:none;stroke-width:1;stroke-linecap:butt;stroke-linejoin:miter;marker:none;marker-start:none;marker-mid:none;marker-end:none;stroke-miterlimit:4;stroke-dasharray:none;stroke-dashoffset:0;stroke-opacity:1;visibility:visible;display:inline;overflow:visible"
       d="M 20.506542,23.781682 L 24.925959,30.675973 L 32.173804,25.726225 L 36.593221,28.201099 L 40.128755,25.195895 L 43.310735,28.024322 L 40.305532,23.074575 L 33.41124,21.483585 L 24.749182,17.240944 C 24.749182,17.240944 12.374814,20.953255 13.08192,20.953255 C 13.789027,20.953255 23.334969,21.130031 23.334969,21.130031 L 24.925959,18.831934 L 29.1686,20.776478 L 20.506542,23.781682 z"
       id="path5160" />
    <path
       style="opacity:1;fill:#ffffff;fill-opacity:1;fill-rule:evenodd;stroke:none;stroke-width:1;stroke-linecap:butt;stroke-linejoin:miter;marker:none;marker-start:none;marker-mid:none;marker-end:none;stroke-miterlimit:4;stroke-dasharray:none;stroke-dashoffset:0;stroke-opacity:1;visibility:visible;display:inline;overflow:visible"
       d="M 29.522153,3.4523615 L 19.092328,6.9878955 L 17.678115,10.876982 L 23.688522,15.119624 L 29.345376,9.6395455 L 29.522153,3.4523615 z"
       id="path5172" />
    <path
       style="opacity:0.13483145;fill:url(#linearGradient7263);fill-opacity:1;fill-rule:evenodd;stroke:none;stroke-width:1;stroke-linecap:butt;stroke-linejoin:miter;marker:none;marker-start:none;marker-mid:none;marker-end:none;stroke-miterlimit:4;stroke-dasharray:none;stroke-dashoffset:0;stroke-opacity:1;visibility:visible;display:inline;overflow:visible"
       d="M 29.69893,3.8059145 L 31.997027,11.230535 L 36.239668,14.942847 L 27.57761,12.998302 C 27.57761,12.998302 25.102736,15.82673 26.163396,15.82673 C 27.224056,15.82673 38.714541,17.240944 38.714541,17.240944 L 38.537765,19.539041 L 22.274309,16.533837 L 29.345376,9.9930995 L 29.69893,3.8059145 z"
       id="path5174" />
    <path
       style="opacity:1;fill:#ffffff;fill-opacity:1;fill-rule:evenodd;stroke:none;stroke-width:1;stroke-linecap:butt;stroke-linejoin:miter;marker:none;marker-start:none;marker-mid:none;marker-end:none;stroke-miterlimit:4;stroke-dasharray:none;stroke-dashoffset:0;stroke-opacity:1;visibility:visible;display:inline;overflow:visible"
       d="M 7.4250674,14.235739 L 6.5411834,23.074575 L 8.4857274,17.064167 L 13.612251,18.655158 L 14.849687,16.003507 L 21.036872,16.887391 L 22.451085,15.649954 L 13.435474,15.2964 L 12.55159,17.771274 L 8.6625044,15.82673 L 7.4250674,14.235739 z"
       id="path5184" />
    <path
       style="opacity:1;fill:#ffffff;fill-opacity:1;fill-rule:evenodd;stroke:none;stroke-width:1;stroke-linecap:butt;stroke-linejoin:miter;marker:none;marker-start:none;marker-mid:none;marker-end:none;stroke-miterlimit:4;stroke-dasharray:none;stroke-dashoffset:0;stroke-opacity:1;visibility:visible;display:inline;overflow:visible"
       d="M 22.451085,27.317216 L 25.456289,30.85275 L 32.35058,26.256555 L 36.593221,28.554652 L 43.487512,35.095389 L 35.886114,29.261759 L 32.173804,28.201099 L 24.925959,33.150847 L 22.451085,27.317216 z"
       id="path5186" />
    <path
       sodipodi:type="inkscape:offset"
       inkscape:radius="-0.83777463"
       inkscape:original="M 30.21875 2.03125 L 18.21875 5.5625 L 15.21875 12.65625 L 14.15625 10.34375 L 11.125 10.53125 L 11.125 13.34375 L 7.59375 9.28125 L 2.84375 14.40625 L 2.84375 21.65625 L 11.125 28.90625 L 5.84375 31.90625 L 6 34.90625 L 9.03125 37.5625 L 7.25 40.40625 L 10.96875 42 L 13.625 39.875 L 25.46875 40.75 L 29.15625 45.6875 L 32.53125 40.21875 L 36.78125 42.53125 L 42.4375 41.8125 L 41 38.8125 L 44.90625 34.90625 L 39.40625 28.71875 L 44.71875 29.4375 L 47.03125 27.3125 L 44.03125 27.84375 L 40.84375 22.375 L 36.25 21.3125 L 39.9375 20.0625 L 40.125 16.875 L 32.875 10.53125 L 30.21875 2.03125 z "
       xlink:href="#path4273"
       style="opacity:1;fill:none;fill-opacity:1;fill-rule:evenodd;stroke:url(#linearGradient7257);stroke-width:1;stroke-linecap:butt;stroke-linejoin:miter;marker:none;marker-start:none;marker-mid:none;marker-end:none;stroke-miterlimit:4;stroke-dasharray:none;stroke-dashoffset:0;stroke-opacity:1;visibility:visible;display:inline;overflow:visible"
       id="path5359"
       inkscape:href="#path4273"
       d="M 29.65625,3.09375 L 18.84375,6.28125 L 16,12.96875 C 15.871801,13.274173 15.575702,13.475399 15.244534,13.482158 C 14.913366,13.488916 14.609303,13.299938 14.46875,13 L 13.65625,11.21875 L 11.96875,11.3125 L 11.96875,13.34375 C 11.973462,13.69495 11.758625,14.011813 11.430625,14.13743 C 11.102625,14.263047 10.731089,14.170753 10.5,13.90625 L 7.5625,10.53125 L 3.6875,14.71875 L 3.6875,21.28125 L 11.6875,28.28125 C 11.883657,28.462891 11.981357,28.727236 11.950479,28.992788 C 11.919601,29.25834 11.763852,29.493214 11.53125,29.625 L 6.71875,32.375 L 6.8125,34.5 L 9.59375,36.9375 C 9.8958001,37.207345 9.9615761,37.654622 9.75,38 L 8.5,40 L 10.84375,41.03125 L 13.09375,39.21875 C 13.260233,39.0823 13.472846,39.015159 13.6875,39.03125 L 25.53125,39.90625 C 25.769158,39.930835 25.985219,40.055923 26.125,40.25 L 29.09375,44.21875 L 31.8125,39.78125 C 32.041236,39.389926 32.539705,39.251463 32.9375,39.46875 L 36.96875,41.65625 L 41.1875,41.125 L 40.25,39.1875 C 40.087762,38.864671 40.150741,38.474201 40.40625,38.21875 L 43.75,34.875 L 38.78125,29.28125 C 38.529387,29.019826 38.474521,28.625949 38.645349,28.305645 C 38.816178,27.985341 39.17384,27.811478 39.53125,27.875 L 43.40625,28.40625 C 43.369413,28.35773 43.337977,28.305337 43.3125,28.25 L 40.3125,23.09375 L 36.0625,22.125 C 35.709163,22.034799 35.454745,21.726417 35.433331,21.362378 C 35.411917,20.998338 35.628425,20.662254 35.96875,20.53125 L 39.125,19.46875 L 39.25,17.21875 L 32.3125,11.15625 C 32.19648,11.05643 32.110019,10.926737 32.0625,10.78125 L 29.65625,3.09375 z"
       transform="translate(5e-4,0)" />
  </g>
</svg>
