<?xml version="1.0" encoding="UTF-8" standalone="no"?>
<!-- Created with Inkscape (http://www.inkscape.org/) -->
<svg
   xmlns:dc="http://purl.org/dc/elements/1.1/"
   xmlns:cc="http://creativecommons.org/ns#"
   xmlns:rdf="http://www.w3.org/1999/02/22-rdf-syntax-ns#"
   xmlns:svg="http://www.w3.org/2000/svg"
   xmlns="http://www.w3.org/2000/svg"
   xmlns:xlink="http://www.w3.org/1999/xlink"
   xmlns:sodipodi="http://sodipodi.sourceforge.net/DTD/sodipodi-0.dtd"
   xmlns:inkscape="http://www.inkscape.org/namespaces/inkscape"
   version="1.0"
   width="48"
   height="48"
   id="svg7836"
   sodipodi:version="0.32"
   inkscape:version="0.46"
   sodipodi:docname="drawing.svg"
   inkscape:output_extension="org.inkscape.output.svg.inkscape">
  <metadata
     id="metadata137">
    <rdf:RDF>
      <cc:Work
         rdf:about="">
        <dc:format>image/svg+xml</dc:format>
        <dc:type
           rdf:resource="http://purl.org/dc/dcmitype/StillImage" />
      </cc:Work>
    </rdf:RDF>
  </metadata>
  <sodipodi:namedview
     inkscape:window-height="1000"
     inkscape:window-width="1680"
     inkscape:pageshadow="2"
     inkscape:pageopacity="0.0"
     guidetolerance="10.0"
     gridtolerance="10.0"
     objecttolerance="10.0"
     borderopacity="1.0"
     bordercolor="#666666"
     pagecolor="#ffffff"
     id="base"
     showgrid="true"
     inkscape:zoom="10.291667"
     inkscape:cx="31.057342"
     inkscape:cy="12.654071"
     inkscape:window-x="0"
     inkscape:window-y="25"
     inkscape:current-layer="svg7836">
    <inkscape:grid
       type="xygrid"
       id="grid9762" />
  </sodipodi:namedview>
  <defs
     id="defs7838">
    <radialGradient
       inkscape:collect="always"
       xlink:href="#linearGradient5060"
       id="radialGradient8272"
       gradientUnits="userSpaceOnUse"
       gradientTransform="matrix(-2.774389,0,0,1.969706,112.7623,-872.8854)"
       cx="605.71429"
       cy="486.64789"
       fx="605.71429"
       fy="486.64789"
       r="117.14286" />
    <linearGradient
       inkscape:collect="always"
       id="linearGradient5060">
      <stop
         style="stop-color:black;stop-opacity:1;"
         offset="0"
         id="stop5062" />
      <stop
         style="stop-color:black;stop-opacity:0;"
         offset="1"
         id="stop5064" />
    </linearGradient>
    <radialGradient
       inkscape:collect="always"
       xlink:href="#linearGradient5060"
       id="radialGradient8270"
       gradientUnits="userSpaceOnUse"
       gradientTransform="matrix(2.774389,0,0,1.969706,-1891.633,-872.8854)"
       cx="605.71429"
       cy="486.64789"
       fx="605.71429"
       fy="486.64789"
       r="117.14286" />
    <linearGradient
       id="linearGradient5048">
      <stop
         style="stop-color:black;stop-opacity:0;"
         offset="0"
         id="stop5050" />
      <stop
         id="stop5056"
         offset="0.5"
         style="stop-color:black;stop-opacity:1;" />
      <stop
         style="stop-color:black;stop-opacity:0;"
         offset="1"
         id="stop5052" />
    </linearGradient>
    <linearGradient
       inkscape:collect="always"
       xlink:href="#linearGradient5048"
       id="linearGradient8268"
       gradientUnits="userSpaceOnUse"
       gradientTransform="matrix(2.774389,0,0,1.969706,-1892.179,-872.8854)"
       x1="302.85715"
       y1="366.64789"
       x2="302.85715"
       y2="609.50507" />
    <linearGradient
       id="linearGradient9111">
      <stop
         id="stop9113"
         style="stop-color:#ffffff;stop-opacity:1"
         offset="0" />
      <stop
         id="stop9115"
         style="stop-color:#ffffff;stop-opacity:0"
         offset="1" />
    </linearGradient>
    <linearGradient
       x1="320.01709"
       y1="79.980797"
       x2="320.01709"
       y2="74.42086"
       id="linearGradient4045"
       xlink:href="#linearGradient9111"
       gradientUnits="userSpaceOnUse"
       gradientTransform="translate(-0.3124939,13.883653)" />
    <linearGradient
       id="linearGradient9101">
      <stop
         id="stop9103"
         style="stop-color:#ffffff;stop-opacity:1"
         offset="0" />
      <stop
         id="stop9105"
         style="stop-color:#ffffff;stop-opacity:0"
         offset="1" />
    </linearGradient>
    <linearGradient
       x1="115.948"
       y1="186.81287"
       x2="210.23586"
       y2="85.606262"
       id="linearGradient4048"
       xlink:href="#linearGradient9101"
       gradientUnits="userSpaceOnUse"
       gradientTransform="matrix(0.1964069,0,0,0.1964069,291.11029,53.069992)" />
    <radialGradient
       cx="113.0654"
       cy="97.587898"
       r="2.5631001"
       fx="113.667"
       fy="98"
       id="radialGradient4128"
       xlink:href="#XMLID_64_"
       gradientUnits="userSpaceOnUse"
       gradientTransform="matrix(2.4956521,0,0,2.4956521,-223.97574,-53.226089)" />
    <linearGradient
       x1="113.0654"
       y1="100.6621"
       x2="113.0654"
       y2="94.512703"
       id="linearGradient4126"
       xlink:href="#XMLID_63_"
       gradientUnits="userSpaceOnUse"
       gradientTransform="matrix(2.4956521,0,0,2.4956521,-223.97574,-53.226089)" />
    <radialGradient
       cx="127.31733"
       cy="143.82751"
       r="78.728165"
       fx="127.31733"
       fy="143.82751"
       id="radialGradient4057"
       xlink:href="#linearGradient7609"
       gradientUnits="userSpaceOnUse"
       gradientTransform="matrix(0.1691796,-2.118677e-2,7.64681e-3,6.311337e-2,291.54812,67.154866)" />
    <radialGradient
       cx="230"
       cy="133"
       r="16.5"
       fx="230"
       fy="133"
       id="radialGradient4060"
       xlink:href="#linearGradient7665"
       gradientUnits="userSpaceOnUse"
       gradientTransform="matrix(-0.1964069,0,0,0.4901248,348.1398,14.167053)" />
    <linearGradient
       id="linearGradient7665">
      <stop
         id="stop7667"
         style="stop-color:#ffffff;stop-opacity:1"
         offset="0" />
      <stop
         id="stop7669"
         style="stop-color:#ffffff;stop-opacity:0"
         offset="1" />
    </linearGradient>
    <radialGradient
       cx="230"
       cy="133"
       r="16.5"
       fx="230"
       fy="133"
       id="radialGradient4063"
       xlink:href="#linearGradient7665"
       gradientUnits="userSpaceOnUse"
       gradientTransform="matrix(0.1964069,0,0,0.4901248,290.75046,14.167053)" />
    <filter
       height="1.4934545"
       y="-0.24672721"
       width="1.2185298"
       x="-0.10926491"
       id="filter7557">
      <feGaussianBlur
         id="feGaussianBlur7559"
         stdDeviation="3.1868932"
         inkscape:collect="always" />
    </filter>
    <linearGradient
       id="linearGradient7537">
      <stop
         id="stop7539"
         style="stop-color:#ffffff;stop-opacity:0.24752475"
         offset="0" />
      <stop
         id="stop7561"
         style="stop-color:#ffffff;stop-opacity:0.61176473"
         offset="0.38571429" />
      <stop
         id="stop7541"
         style="stop-color:#ffffff;stop-opacity:0"
         offset="1" />
    </linearGradient>
    <linearGradient
       x1="152"
       y1="202.5"
       x2="222"
       y2="202.5"
       id="linearGradient4100"
       xlink:href="#linearGradient7537"
       gradientUnits="userSpaceOnUse" />
    <linearGradient
       id="linearGradient4144">
      <stop
         id="stop4146"
         style="stop-color:#ffffff;stop-opacity:1"
         offset="0" />
      <stop
         id="stop4148"
         style="stop-color:#ffffff;stop-opacity:0"
         offset="1" />
    </linearGradient>
    <linearGradient
       x1="305.02817"
       y1="76.907806"
       x2="302.04178"
       y2="76.907806"
       id="linearGradient7755"
       xlink:href="#linearGradient4144"
       gradientUnits="userSpaceOnUse"
       gradientTransform="matrix(0.7481482,0,0,1,76.821909,0)" />
    <linearGradient
       id="linearGradient7691">
      <stop
         id="stop7693"
         style="stop-color:#ffffff;stop-opacity:1"
         offset="0" />
      <stop
         id="stop7695"
         style="stop-color:#ffffff;stop-opacity:0"
         offset="1" />
    </linearGradient>
    <radialGradient
       cx="85.750008"
       cy="214.08336"
       r="14"
       fx="85.750008"
       fy="214.08336"
       id="radialGradient7753"
       xlink:href="#linearGradient7691"
       gradientUnits="userSpaceOnUse"
       gradientTransform="matrix(0.2665522,9.092593e-2,-2.342877e-2,7.099072e-2,291.11104,54.883977)" />
    <linearGradient
       id="linearGradient4236">
      <stop
         id="stop4238"
         style="stop-color:#eeeeee;stop-opacity:1"
         offset="0" />
      <stop
         id="stop4240"
         style="stop-color:#eeeeee;stop-opacity:0"
         offset="1" />
    </linearGradient>
    <linearGradient
       x1="12.277412"
       y1="37.205811"
       x2="12.221823"
       y2="33.758667"
       id="linearGradient7751"
       xlink:href="#linearGradient4236"
       gradientUnits="userSpaceOnUse"
       gradientTransform="matrix(5.0962816,0,0,5.0962816,21.323205,37.043678)" />
    <linearGradient
       id="linearGradient4110">
      <stop
         id="stop4112"
         style="stop-color:#000000;stop-opacity:1"
         offset="0" />
      <stop
         id="stop4114"
         style="stop-color:#bbbbbb;stop-opacity:0"
         offset="1" />
    </linearGradient>
    <linearGradient
       x1="7.0625"
       y1="35.28125"
       x2="24.6875"
       y2="35.28125"
       id="linearGradient7749"
       xlink:href="#linearGradient4110"
       gradientUnits="userSpaceOnUse"
       gradientTransform="matrix(5.0962816,0,0,5.0962816,25.377261,30.286921)" />
    <filter
       height="1.0836165"
       y="-0.041808251"
       width="1.8027184"
       x="-0.40135923"
       id="filter7527">
      <feGaussianBlur
         id="feGaussianBlur7529"
         stdDeviation="0.52260316"
         inkscape:collect="always" />
    </filter>
    <radialGradient
       cx="43.5625"
       cy="202.25"
       r="1.5625"
       fx="43.5625"
       fy="202.25"
       id="radialGradient4102"
       xlink:href="#linearGradient7507"
       gradientUnits="userSpaceOnUse"
       gradientTransform="matrix(3.16,0,0,11.28,-94.095,-2079.13)" />
    <filter
       height="1.0837955"
       y="-0.041897796"
       width="1.8044378"
       x="-0.40221885"
       id="filter4116">
      <feGaussianBlur
         id="feGaussianBlur4118"
         stdDeviation="0.52372246"
         inkscape:collect="always" />
    </filter>
    <linearGradient
       id="linearGradient7507">
      <stop
         id="stop7509"
         style="stop-color:#ffffff;stop-opacity:1"
         offset="0" />
      <stop
         id="stop7511"
         style="stop-color:#ffffff;stop-opacity:0"
         offset="1" />
    </linearGradient>
    <radialGradient
       cx="43.5625"
       cy="202.25"
       r="1.5625"
       fx="43.5625"
       fy="202.25"
       id="radialGradient4104"
       xlink:href="#linearGradient7507"
       gradientUnits="userSpaceOnUse"
       gradientTransform="matrix(3.16,0,0,11.28,-94.095,-2079.13)" />
    <radialGradient
       cx="113.0654"
       cy="97.587898"
       r="2.5631001"
       fx="113.667"
       fy="98"
       id="radialGradient4132"
       xlink:href="#XMLID_64_"
       gradientUnits="userSpaceOnUse"
       gradientTransform="matrix(2.4956521,0,0,2.4956521,-223.97574,-53.226089)" />
    <linearGradient
       x1="113.0654"
       y1="100.6621"
       x2="113.0654"
       y2="94.512703"
       id="linearGradient4130"
       xlink:href="#XMLID_63_"
       gradientUnits="userSpaceOnUse"
       gradientTransform="matrix(2.4956521,0,0,2.4956521,-223.97574,-53.226089)" />
    <radialGradient
       cx="113.0654"
       cy="97.587898"
       r="2.5631001"
       fx="113.667"
       fy="98"
       id="radialGradient4136"
       xlink:href="#XMLID_64_"
       gradientUnits="userSpaceOnUse"
       gradientTransform="matrix(2.4956521,0,0,2.4956521,-223.97574,-53.226089)" />
    <linearGradient
       x1="113.0654"
       y1="100.6621"
       x2="113.0654"
       y2="94.512703"
       id="linearGradient4134"
       xlink:href="#XMLID_63_"
       gradientUnits="userSpaceOnUse"
       gradientTransform="matrix(2.4956521,0,0,2.4956521,-223.97574,-53.226089)" />
    <radialGradient
       cx="113.0654"
       cy="97.587898"
       r="2.5631001"
       fx="113.667"
       fy="98"
       id="XMLID_64_"
       gradientUnits="userSpaceOnUse">
      <stop
         id="stop505"
         style="stop-color:#eeeeee;stop-opacity:1"
         offset="0" />
      <stop
         id="stop507"
         style="stop-color:#cecece;stop-opacity:1"
         offset="0.16" />
      <stop
         id="stop509"
         style="stop-color:#888888;stop-opacity:1"
         offset="0.4675" />
      <stop
         id="stop511"
         style="stop-color:#555555;stop-opacity:1"
         offset="1" />
    </radialGradient>
    <radialGradient
       cx="113.0654"
       cy="97.587898"
       r="2.5631001"
       fx="113.667"
       fy="98"
       id="radialGradient4140"
       xlink:href="#XMLID_64_"
       gradientUnits="userSpaceOnUse"
       gradientTransform="matrix(2.4956521,0,0,2.4956521,-223.97574,-53.226089)" />
    <linearGradient
       x1="113.0654"
       y1="100.6621"
       x2="113.0654"
       y2="94.512703"
       id="XMLID_63_"
       gradientUnits="userSpaceOnUse">
      <stop
         id="stop496"
         style="stop-color:#eeeeee;stop-opacity:1"
         offset="0" />
      <stop
         id="stop498"
         style="stop-color:#dddddd;stop-opacity:1"
         offset="0.66860002" />
      <stop
         id="stop500"
         style="stop-color:#555555;stop-opacity:1"
         offset="1" />
    </linearGradient>
    <linearGradient
       x1="113.0654"
       y1="100.6621"
       x2="113.0654"
       y2="94.512703"
       id="linearGradient4138"
       xlink:href="#XMLID_63_"
       gradientUnits="userSpaceOnUse"
       gradientTransform="matrix(2.4956521,0,0,2.4956521,-223.97574,-53.226089)" />
    <radialGradient
       cx="142.62215"
       cy="191.85428"
       r="78.728165"
       fx="142.62215"
       fy="191.85428"
       id="radialGradient4078"
       xlink:href="#linearGradient7609"
       gradientUnits="userSpaceOnUse"
       gradientTransform="matrix(0.155354,0,0,-9.045696e-2,296.87519,93.678924)" />
    <linearGradient
       id="linearGradient7609">
      <stop
         id="stop7611"
         style="stop-color:#ffffff;stop-opacity:1"
         offset="0" />
      <stop
         id="stop7677"
         style="stop-color:#e7e7e7;stop-opacity:1"
         offset="0.47025558" />
      <stop
         id="stop7613"
         style="stop-color:#8c8c8c;stop-opacity:1"
         offset="0.67183787" />
      <stop
         id="stop7617"
         style="stop-color:#dddddd;stop-opacity:1"
         offset="0.83542866" />
      <stop
         id="stop7615"
         style="stop-color:#a8a8a8;stop-opacity:1"
         offset="1" />
    </linearGradient>
    <radialGradient
       cx="141.74666"
       cy="206.42612"
       r="78.728165"
       fx="141.74666"
       fy="206.42612"
       id="radialGradient4081"
       xlink:href="#linearGradient7609"
       gradientUnits="userSpaceOnUse"
       gradientTransform="matrix(0.3079313,-3.68762e-3,2.27901e-3,0.2121779,275.0745,43.487346)" />
    <linearGradient
       id="linearGradient10652">
      <stop
         id="stop10654"
         style="stop-color:#535353;stop-opacity:1"
         offset="0" />
      <stop
         id="stop10656"
         style="stop-color:#babdb6;stop-opacity:1"
         offset="1" />
    </linearGradient>
    <linearGradient
       x1="317.625"
       y1="72.5"
       x2="312.125"
       y2="55.25"
       id="linearGradient10658"
       xlink:href="#linearGradient10652"
       gradientUnits="userSpaceOnUse"
       gradientTransform="translate(0,16)" />
    <linearGradient
       id="linearGradient7497">
      <stop
         id="stop7499"
         style="stop-color:#ffffff;stop-opacity:1"
         offset="0" />
      <stop
         id="stop7501"
         style="stop-color:#ffffff;stop-opacity:0"
         offset="1" />
    </linearGradient>
    <radialGradient
       cx="150.17931"
       cy="301.80243"
       r="106.18474"
       fx="150.17931"
       fy="301.80243"
       id="radialGradient4089"
       xlink:href="#linearGradient7497"
       gradientUnits="userSpaceOnUse"
       gradientTransform="matrix(0.1949405,2.435491e-2,-1.29477e-2,0.1071189,295.23816,53.829929)" />
    <linearGradient
       id="linearGradient4244">
      <stop
         id="stop4246"
         style="stop-color:#efefef;stop-opacity:1"
         offset="0" />
      <stop
         id="stop7563"
         style="stop-color:#bcbcbc;stop-opacity:1"
         offset="0.69516969" />
      <stop
         id="stop4248"
         style="stop-color:#e4e4e4;stop-opacity:1"
         offset="1" />
    </linearGradient>
    <radialGradient
       cx="15.571491"
       cy="2.958519"
       r="20.935818"
       fx="15.571491"
       fy="2.958519"
       id="radialGradient4092"
       xlink:href="#linearGradient4244"
       gradientUnits="userSpaceOnUse"
       gradientTransform="matrix(1.2874573,0.7785045,-0.7114536,1.164774,292.94174,56.71277)" />
    <linearGradient
       id="linearGradient4120">
      <stop
         id="stop4122"
         style="stop-color:#555753;stop-opacity:1"
         offset="0" />
      <stop
         id="stop4124"
         style="stop-color:#2e3436;stop-opacity:1"
         offset="1" />
    </linearGradient>
    <linearGradient
       x1="8.4787941"
       y1="30.712189"
       x2="36.183067"
       y2="40.943935"
       id="linearGradient4095"
       xlink:href="#linearGradient4120"
       gradientUnits="userSpaceOnUse"
       gradientTransform="matrix(1.0009449,0,0,0.560284,295.29831,72.625339)" />
  </defs>
  <g
     style="opacity:1;display:inline"
     id="g5022"
     transform="matrix(2.3640267e-2,0,0,1.5678661e-2,45.026494,35.862725)">
    <rect
       y="-150.69685"
       x="-1559.2523"
       height="478.35718"
       width="1339.6335"
       id="rect4173"
       style="opacity:0.40206185;fill:url(#linearGradient8268);fill-opacity:1;fill-rule:nonzero;stroke:none;stroke-width:1;stroke-linecap:round;stroke-linejoin:miter;marker:none;marker-start:none;marker-mid:none;marker-end:none;stroke-miterlimit:4;stroke-dasharray:none;stroke-dashoffset:0;stroke-opacity:1;visibility:visible;display:inline;overflow:visible" />
    <path
       sodipodi:nodetypes="cccc"
       id="path5058"
       d="M -219.61876,-150.68038 C -219.61876,-150.68038 -219.61876,327.65041 -219.61876,327.65041 C -76.744594,328.55086 125.78146,220.48075 125.78138,88.454235 C 125.78138,-43.572302 -33.655436,-150.68036 -219.61876,-150.68038 z"
       style="opacity:0.40206185;fill:url(#radialGradient8270);fill-opacity:1;fill-rule:nonzero;stroke:none;stroke-width:1;stroke-linecap:round;stroke-linejoin:miter;marker:none;marker-start:none;marker-mid:none;marker-end:none;stroke-miterlimit:4;stroke-dasharray:none;stroke-dashoffset:0;stroke-opacity:1;visibility:visible;display:inline;overflow:visible" />
    <path
       style="opacity:0.40206185;fill:url(#radialGradient8272);fill-opacity:1;fill-rule:nonzero;stroke:none;stroke-width:1;stroke-linecap:round;stroke-linejoin:miter;marker:none;marker-start:none;marker-mid:none;marker-end:none;stroke-miterlimit:4;stroke-dasharray:none;stroke-dashoffset:0;stroke-opacity:1;visibility:visible;display:inline;overflow:visible"
       d="M -1559.2523,-150.68038 C -1559.2523,-150.68038 -1559.2523,327.65041 -1559.2523,327.65041 C -1702.1265,328.55086 -1904.6525,220.48075 -1904.6525,88.454235 C -1904.6525,-43.572302 -1745.2157,-150.68036 -1559.2523,-150.68038 z"
       id="path5018"
       sodipodi:nodetypes="cccc" />
  </g>
  <g
     id="layer1">
    <g
       transform="translate(-296.00011,-55.999737)"
       id="g2923"
       style="display:inline;enable-background:new">
      <g
         transform="matrix(0.1964069,0,0,0.1996805,302.8947,50.396787)"
         id="g8979"
         style="opacity:0.8960396" />
      <path
         d="M 298.575,87.751222 L 299.34032,87.363385 L 336.98555,87.398405 L 340.45123,87.576183 L 340.45123,93.424725 C 340.45123,94.055362 339.84364,94.457513 338.85785,94.457513 L 300.23841,94.457513 C 299.239,94.457513 298.575,94.153811 298.575,93.547239 L 298.575,87.751225 L 298.575,87.751222 z"
         id="path8985"
         style="fill:url(#linearGradient4095);fill-opacity:1;fill-rule:evenodd;stroke:none" />
      <path
         d="M 298.85075,87.378245 C 298.13579,88.836549 298.85014,89.761327 299.88745,89.761327 C 299.88745,89.761327 338.92429,89.761327 338.92429,89.761327 C 340.0444,89.737617 340.77128,88.753555 340.35421,87.62722 L 333.63358,70.486835 C 333.44889,69.97702 332.9782,69.502773 332.48965,69.490917 L 306.60807,69.490917 C 305.98248,69.490917 305.57138,69.793249 305.32115,70.34456 C 305.32115,70.34456 298.85075,87.378245 298.85075,87.378245 L 298.85075,87.378245 z"
         id="path8987"
         style="fill:url(#radialGradient4092);fill-opacity:1;fill-rule:evenodd;stroke:none" />
      <path
         d="M 340.1368,86.636171 C 340.2004,87.90818 339.72241,88.992836 338.81344,89.021238 C 338.81344,89.021238 300.6587,89.021236 300.6587,89.021238 C 299.36825,89.021238 298.7892,88.690561 298.57268,88.137878 C 298.66458,89.098856 299.39928,89.81626 300.6587,89.81626 C 300.6587,89.816258 338.81344,89.81626 338.81344,89.81626 C 339.89046,89.78261 340.5679,88.367132 340.16688,86.768675 L 340.13678,86.636171 L 340.1368,86.636171 z"
         id="path8989"
         style="fill:url(#radialGradient4089);fill-opacity:1;fill-rule:evenodd;stroke:none" />
      <path
         d="M 306.59467,69.5 C 305.96908,69.5 305.56244,69.795295 305.31221,70.358626 C 305.31221,70.358626 298.83735,87.763684 298.83735,87.763684 C 298.83735,87.763684 298.58711,88.44708 298.58711,89.576333 C 298.58711,89.576333 298.58711,92.80376 298.58711,92.80376 C 298.58711,93.905455 299.24552,94.457408 300.24493,94.457406 L 338.84386,94.457406 C 339.82964,94.457406 340.43912,93.726564 340.43912,92.581152 L 340.43912,89.353727 C 340.43912,89.353727 340.54518,88.569724 340.34532,88.018092 L 333.62022,70.517631 C 333.43552,69.996701 332.98271,69.512114 332.49416,69.5 L 306.59471,69.5 L 306.59467,69.5 z"
         id="path8999"
         style="fill:none;stroke:url(#linearGradient10658);stroke-width:1;stroke-linecap:round;stroke-linejoin:round;stroke-miterlimit:4;stroke-dasharray:none;stroke-opacity:1" />
      <path
         d="M 334.62368,80.618568 C 334.43304,79.152166 333.15543,77.753895 331.03264,76.65052 C 330.98994,76.226401 330.44582,70.800848 330.44582,70.800848 C 330.40412,70.383771 329.76994,70.068992 328.97012,70.068992 L 323.9508,70.068992 C 323.14523,70.068992 322.52251,70.387911 322.5022,70.81079 C 322.4101,72.7214 319.6016,73.718954 315.41223,74.626423 C 313.94432,74.839517 310.11727,75.841212 309.2389,76.280864 C 306.65322,77.435804 305.11116,78.975518 304.89749,80.618568 C 304.70312,82.11293 305.63737,83.608327 307.52821,84.829329 C 310.29572,86.616516 314.86841,87.68365 319.76041,87.68365 C 324.65242,87.68365 329.2251,86.616516 331.99296,84.829329 C 333.71991,83.714359 334.64873,82.370136 334.64873,81.007072 C 334.64873,80.877638 334.63973,80.748 334.62363,80.618568 L 334.62368,80.618568 z M 319.76041,86.942475 C 311.61261,86.942475 305.37358,83.947747 305.82496,80.476297 C 306.01967,78.97966 307.44897,77.381961 309.8159,76.329116 C 310.25915,76.049132 314.26229,74.960044 315.69836,74.768692 C 319.67847,73.908442 323.31827,72.79202 323.43238,70.439271 C 323.43738,70.326613 323.6667,70.237358 323.9508,70.237358 L 328.96945,70.237358 C 329.25998,70.237358 329.50514,70.330958 329.51665,70.446519 L 330.12616,76.525024 C 332.23575,77.549496 333.51403,79.078647 333.69553,80.476297 C 334.14724,83.947747 327.90822,86.942475 319.76041,86.942475 L 319.76041,86.942475 z"
         id="path9001"
         style="fill:url(#radialGradient4081);fill-opacity:1" />
      <path
         d="M 319.6475,81.883652 C 316.82104,81.883652 314.65427,81.006976 314.6086,79.844145 C 314.60824,79.831575 314.60789,79.819215 314.60789,79.806855 C 314.60789,79.386077 314.89188,78.985894 315.43153,78.647059 C 316.34441,78.074315 317.92053,77.732445 319.64785,77.732445 C 321.37482,77.732445 322.95093,78.074315 323.86381,78.647059 C 324.4194,78.99543 324.70411,79.409491 324.68675,79.843927 C 324.64035,81.006758 322.4736,81.88365 319.6475,81.88365 L 319.6475,81.883652 z M 319.6475,78.383019 C 316.99171,78.383019 315.63868,79.25189 315.67055,80.045103 C 315.70135,80.825962 317.4818,81.449868 319.6475,81.449868 C 321.8132,81.449868 323.59363,80.825744 323.62444,80.045103 C 323.65594,79.251672 322.30328,78.383019 319.6475,78.383019 L 319.6475,78.383019 z"
         id="path9003"
         style="fill:url(#radialGradient4078);fill-opacity:1;fill-rule:nonzero;stroke-width:1;stroke-linecap:butt;stroke-linejoin:miter;marker:none;stroke-miterlimit:4;stroke-dasharray:none;stroke-dashoffset:0;stroke-opacity:1;visibility:visible;display:inline;overflow:visible;enable-background:accumulate" />
      <g
         transform="matrix(-0.1320251,0,0,0.1401423,309.19335,61.406788)"
         id="g9005">
        <path
           d="M 48.2999,190.27968 C 48.61436,194.52728 53.32365,197.99124 58.81409,197.99124 C 64.30203,197.99124 68.45729,194.52728 68.09043,190.27968 C 67.72606,186.05454 63.01926,182.64298 57.58373,182.64298 C 52.1457,182.64498 47.99044,186.05454 48.2999,190.27968 z"
           id="path9007"
           style="fill:url(#linearGradient4138)" />
        <path
           d="M 51.85122,187.29238 C 51.34959,187.83144 50.77559,188.69494 50.77559,189.84294 C 50.77559,189.92534 50.78059,190.00765 50.78559,190.095 C 51.00272,193.0224 54.67881,195.49559 58.81161,195.49559 C 61.16501,195.49559 63.31626,194.6845 64.56409,193.32188 C 65.10065,192.74039 65.71209,191.77707 65.60228,190.4943 C 65.35022,187.59186 61.67912,185.13863 57.58125,185.13863 C 55.24532,185.14063 53.10156,185.94473 51.85124,187.29238 L 51.85122,187.29238 z"
           id="path9009"
           style="fill:url(#radialGradient4140)" />
      </g>
      <g
         transform="matrix(9.05434e-2,0,0,6.056511e-2,301.91757,58.935593)"
         id="g9017">
        <path
           d="M 48.2999,190.27968 C 48.61436,194.52728 53.32365,197.99124 58.81409,197.99124 C 64.30203,197.99124 68.45729,194.52728 68.09043,190.27968 C 67.72606,186.05454 63.01926,182.64298 57.58373,182.64298 C 52.1457,182.64498 47.99044,186.05454 48.2999,190.27968 z"
           id="path9019"
           style="fill:url(#linearGradient4134)" />
        <path
           d="M 51.85122,187.29238 C 51.34959,187.83144 50.77559,188.69494 50.77559,189.84294 C 50.77559,189.92534 50.78059,190.00765 50.78559,190.095 C 51.00272,193.0224 54.67881,195.49559 58.81161,195.49559 C 61.16501,195.49559 63.31626,194.6845 64.56409,193.32188 C 65.10065,192.74039 65.71209,191.77707 65.60228,190.4943 C 65.35022,187.59186 61.67912,185.13863 57.58125,185.13863 C 55.24532,185.14063 53.10156,185.94473 51.85124,187.29238 L 51.85122,187.29238 z"
           id="path9021"
           style="fill:url(#radialGradient4136)" />
      </g>
      <g
         transform="matrix(9.05434e-2,0,0,6.056511e-2,326.70176,58.935593)"
         id="g9023">
        <path
           d="M 48.2999,190.27968 C 48.61436,194.52728 53.32365,197.99124 58.81409,197.99124 C 64.30203,197.99124 68.45729,194.52728 68.09043,190.27968 C 67.72606,186.05454 63.01926,182.64298 57.58373,182.64298 C 52.1457,182.64498 47.99044,186.05454 48.2999,190.27968 z"
           id="path9025"
           style="fill:url(#linearGradient4130)" />
        <path
           d="M 51.85122,187.29238 C 51.34959,187.83144 50.77559,188.69494 50.77559,189.84294 C 50.77559,189.92534 50.78059,190.00765 50.78559,190.095 C 51.00272,193.0224 54.67881,195.49559 58.81161,195.49559 C 61.16501,195.49559 63.31626,194.6845 64.56409,193.32188 C 65.10065,192.74039 65.71209,191.77707 65.60228,190.4943 C 65.35022,187.59186 61.67912,185.13863 57.58125,185.13863 C 55.24532,185.14063 53.10156,185.94473 51.85124,187.29238 L 51.85122,187.29238 z"
           id="path9027"
           style="fill:url(#radialGradient4132)" />
      </g>
      <path
         d="M 42.5,187.25 L 42,215.5 L 45.125,217.25 L 45.125,187.25 L 42.5,187.25 z"
         transform="matrix(0.6764069,0,0,0.1996805,270.95029,50.796148)"
         id="path9029"
         style="opacity:0.5;fill:url(#radialGradient4104);fill-opacity:1;fill-rule:nonzero;stroke:none;stroke-width:1.54031181;marker:none;visibility:visible;display:inline;overflow:visible;filter:url(#filter4116);enable-background:accumulate" />
      <path
         d="M 42.5,187.25 L 42,215.5 L 45.125,217.25 L 45.125,187.25 L 42.5,187.25 z"
         transform="matrix(-0.1335567,0,0,0.1996805,345.55134,52.796148)"
         id="path9031"
         style="fill:url(#radialGradient4102);fill-opacity:1;fill-rule:nonzero;stroke:none;stroke-width:1.54031181;marker:none;visibility:visible;display:inline;overflow:visible;filter:url(#filter7527);enable-background:accumulate" />
      <g
         transform="matrix(1,0,0,0.8675042,0,25.228511)"
         id="g7741">
        <g
           transform="matrix(0.1964069,0,0,0.1996805,293.09232,34.304422)"
           id="g8991">
          <rect
             width="89.82196"
             height="28.348066"
             x="61.369766"
             y="195.91609"
             id="rect8993"
             style="fill:url(#linearGradient7749);fill-opacity:1;fill-rule:evenodd;stroke:none;stroke-width:2.40899992;marker:none;visibility:visible;display:inline;overflow:visible" />
          <path
             d="M 61.369759,224.26414 C 61.369759,224.26414 61.369759,203.82049 61.369759,203.82049 C 70.724123,220.02272 103.65101,224.26414 127.30289,224.26414 C 127.30289,224.26414 61.369759,224.26414 61.369759,224.26414 z"
             id="path8995"
             style="opacity:0.81142853;fill:url(#linearGradient7751);fill-opacity:1;fill-rule:evenodd;stroke:none" />
          <path
             d="M 61.456423,195.98396 L 61.456423,224.17277 L 125.47846,224.17277 L 63.208269,222.42092 L 61.456423,195.98396 L 61.456423,195.98396 z"
             id="path8997"
             style="opacity:0.43999999;fill:#ffffff;fill-opacity:1;fill-rule:evenodd;stroke:none" />
        </g>
        <path
           d="M 306.4971,76.431125 C 307.65679,77.6956 309.3344,78.525089 311.99649,78.52777 C 309.48297,78.059464 307.63579,77.365342 306.4971,76.431125 z"
           id="path9041"
           style="opacity:0.55445545;fill:url(#radialGradient7753);fill-opacity:1;fill-rule:nonzero;stroke:none;stroke-width:1;marker:none;visibility:visible;display:inline;overflow:visible;enable-background:accumulate" />
        <rect
           width="2.2318058"
           height="5.0602326"
           x="302.79639"
           y="73.836319"
           id="rect4142"
           style="opacity:0.48936169;fill:url(#linearGradient7755);fill-opacity:1;stroke:none" />
      </g>
      <path
         d="M 161.5,187 L 152,218 L 208,218 L 222,187 L 161.5,187 z"
         transform="matrix(-0.1964069,0,0,0.1996805,356.31738,50.796148)"
         id="path9033"
         style="opacity:0.67821781;fill:url(#linearGradient4100);fill-opacity:1;fill-rule:nonzero;stroke:none;stroke-width:1.54031181;marker:none;visibility:visible;display:inline;overflow:visible;filter:url(#filter7557);enable-background:accumulate" />
      <path
         d="M 332.78153,71.366432 L 339.06655,87.340869"
         id="path9035"
         style="opacity:0.8960396;fill:none;stroke:url(#radialGradient4063);stroke-width:0.99999988;stroke-linecap:butt;stroke-linejoin:miter;marker:none;stroke-miterlimit:4;stroke-dasharray:none;stroke-dashoffset:0;stroke-opacity:1;visibility:visible;display:inline;overflow:visible;enable-background:accumulate" />
      <path
         d="M 306.10872,71.366432 L 299.8237,87.340869"
         id="path9037"
         style="opacity:0.8960396;fill:none;stroke:url(#radialGradient4060);stroke-width:0.99999988;stroke-linecap:butt;stroke-linejoin:miter;marker:none;stroke-miterlimit:4;stroke-dasharray:none;stroke-dashoffset:0;stroke-opacity:1;visibility:visible;display:inline;overflow:visible;enable-background:accumulate" />
      <path
         d="M 308.1179,70.205932 L 308.0258,70.474252 L 306.65096,74.467862 L 306.41772,75.135543 L 307.09901,74.992023 L 318.68702,72.496017 L 318.72382,72.483537 L 318.75452,72.471057 C 319.36816,72.22151 319.69605,71.717214 319.77338,71.254253 C 319.81208,71.022772 319.80048,70.796101 319.69978,70.586572 C 319.60468,70.388771 319.3571,70.212784 319.09828,70.218411 L 319.09828,70.205931 L 319.05528,70.205931 L 308.39407,70.205931 L 308.11787,70.205931 L 308.1179,70.205932 z M 308.51012,70.452678 L 319.19013,70.452678 C 319.19513,70.486398 319.20713,70.505108 319.19613,70.568876 C 319.16263,70.769596 319.0185,71.487685 318.65641,71.644333 L 307.42399,74.065114 L 308.50977,70.452678 L 308.51012,70.452678 z"
         id="path9039"
         style="fill:url(#radialGradient4057);fill-opacity:1;fill-rule:nonzero;stroke:none;stroke-width:1;marker:none;visibility:visible;display:inline;overflow:visible;enable-background:accumulate" />
      <g
         transform="matrix(0.1320251,0,0,0.1401423,329.80012,61.406788)"
         id="g9089">
        <path
           d="M 48.2999,190.27968 C 48.61436,194.52728 53.32365,197.99124 58.81409,197.99124 C 64.30203,197.99124 68.45729,194.52728 68.09043,190.27968 C 67.72606,186.05454 63.01926,182.64298 57.58373,182.64298 C 52.1457,182.64498 47.99044,186.05454 48.2999,190.27968 z"
           id="path9091"
           style="fill:url(#linearGradient4126)" />
        <path
           d="M 51.85122,187.29238 C 51.34959,187.83144 50.77559,188.69494 50.77559,189.84294 C 50.77559,189.92534 50.78059,190.00765 50.78559,190.095 C 51.00272,193.0224 54.67881,195.49559 58.81161,195.49559 C 61.16501,195.49559 63.31626,194.6845 64.56409,193.32188 C 65.10065,192.74039 65.71209,191.77707 65.60228,190.4943 C 65.35022,187.59186 61.67912,185.13863 57.58125,185.13863 C 55.24532,185.14063 53.10156,185.94473 51.85124,187.29238 L 51.85122,187.29238 z"
           id="path9093"
           style="fill:url(#radialGradient4128)" />
      </g>
      <path
         d="M 300.15376,87.041983 C 299.48387,88.400089 300.15318,89.261328 301.12509,89.261328 C 301.12509,89.261328 337.70075,89.261328 337.70075,89.261328 C 338.75023,89.239248 339.43128,88.322797 339.04051,87.273851 L 332.8686,71.311143 C 332.69555,70.836356 332.25454,70.394694 331.79679,70.383652 L 307.297,70.383652 C 306.71085,70.383652 306.32567,70.665212 306.09121,71.178644 C 306.09121,71.178644 300.15376,87.041983 300.15376,87.041983 L 300.15376,87.041983 z"
         id="path9099"
         style="fill:none;stroke:url(#linearGradient4048);stroke-width:1;stroke-linecap:butt;stroke-linejoin:miter;stroke-miterlimit:4;stroke-dasharray:none;stroke-opacity:1" />
      <path
         d="M 299.68751,87.133654 L 299.68751,92.382453 C 299.68751,93.133753 300.07256,93.354724 300.64984,93.354724 L 338.92199,93.354724 C 339.45232,93.443114 339.76168,92.912783 339.71748,92.426647 L 339.45232,87.521094"
         id="path9109"
         style="opacity:0.25;fill:none;stroke:url(#linearGradient4045);stroke-width:1;stroke-linecap:butt;stroke-linejoin:miter;marker:none;stroke-miterlimit:4;stroke-dasharray:none;stroke-dashoffset:0;stroke-opacity:1;visibility:visible;display:inline;overflow:visible;enable-background:accumulate" />
      <path
         d="M 322.61433,70.871152 L 329.90637,70.871152 L 329.90637,71.931812 L 324.64727,71.931812 C 322.14293,73.507421 319.6386,74.153569 317.13427,74.318297 C 319.19125,73.295909 322.66451,73.052478 322.61433,70.871152 L 322.61433,70.871152 z"
         id="rect9123"
         style="opacity:0.42079204;fill:#ffffff;fill-opacity:1;fill-rule:nonzero;stroke:none;stroke-width:1;marker:none;visibility:visible;display:inline;overflow:visible;enable-background:accumulate" />
      <rect
         width="12.020816"
         height="1.0606601"
         x="307.58829"
         y="70.871155"
         id="rect9125"
         style="opacity:0.31188121;fill:#ffffff;fill-opacity:1;fill-rule:nonzero;stroke:none;stroke-width:1;marker:none;visibility:visible;display:inline;overflow:visible;enable-background:accumulate" />
    </g>
  </g>
</svg>
