<?xml version="1.0" encoding="UTF-8" standalone="no"?>
<!-- Created with Inkscape (http://www.inkscape.org/) -->
<svg
   xmlns:dc="http://purl.org/dc/elements/1.1/"
   xmlns:cc="http://creativecommons.org/ns#"
   xmlns:rdf="http://www.w3.org/1999/02/22-rdf-syntax-ns#"
   xmlns:svg="http://www.w3.org/2000/svg"
   xmlns="http://www.w3.org/2000/svg"
   xmlns:xlink="http://www.w3.org/1999/xlink"
   xmlns:sodipodi="http://sodipodi.sourceforge.net/DTD/sodipodi-0.dtd"
   xmlns:inkscape="http://www.inkscape.org/namespaces/inkscape"
   width="48px"
   height="48px"
   id="svg7773"
   sodipodi:version="0.32"
   inkscape:version="0.46"
   sodipodi:docname="drawing.svg"
   inkscape:output_extension="org.inkscape.output.svg.inkscape">
  <defs
     id="defs7775">
    <radialGradient
       inkscape:collect="always"
       xlink:href="#linearGradient7010"
       id="radialGradient7035"
       gradientUnits="userSpaceOnUse"
       gradientTransform="matrix(1.6443661,0,0,2.1729477,-195.14919,-102.18432)"
       cx="302.85449"
       cy="86.96299"
       fx="302.85449"
       fy="86.96299"
       r="0.78358209" />
    <linearGradient
       inkscape:collect="always"
       id="linearGradient7010">
      <stop
         style="stop-color:#ffffff;stop-opacity:1;"
         offset="0"
         id="stop7012" />
      <stop
         style="stop-color:#ffffff;stop-opacity:0;"
         offset="1"
         id="stop7014" />
    </linearGradient>
    <radialGradient
       inkscape:collect="always"
       xlink:href="#linearGradient7010"
       id="radialGradient7033"
       gradientUnits="userSpaceOnUse"
       gradientTransform="matrix(1.6443661,0,0,2.1729477,-195.14919,-102.18432)"
       cx="302.85449"
       cy="86.96299"
       fx="302.85449"
       fy="86.96299"
       r="0.78358209" />
    <linearGradient
       inkscape:collect="always"
       xlink:href="#linearGradient6002"
       id="linearGradient7031"
       gradientUnits="userSpaceOnUse"
       x1="181.84053"
       y1="149.63168"
       x2="191.14145"
       y2="181.2997" />
    <linearGradient
       inkscape:collect="always"
       id="linearGradient6002">
      <stop
         style="stop-color:#ffffff;stop-opacity:1;"
         offset="0"
         id="stop6004" />
      <stop
         style="stop-color:#ffffff;stop-opacity:0;"
         offset="1"
         id="stop6006" />
    </linearGradient>
    <linearGradient
       inkscape:collect="always"
       xlink:href="#linearGradient6002"
       id="linearGradient7029"
       gradientUnits="userSpaceOnUse"
       x1="181.84053"
       y1="149.63168"
       x2="191.14145"
       y2="181.2997" />
    <linearGradient
       inkscape:collect="always"
       id="linearGradient6992">
      <stop
         style="stop-color:#ffffff;stop-opacity:1;"
         offset="0"
         id="stop6994" />
      <stop
         style="stop-color:#ffffff;stop-opacity:0;"
         offset="1"
         id="stop6996" />
    </linearGradient>
    <radialGradient
       inkscape:collect="always"
       xlink:href="#linearGradient6992"
       id="radialGradient7027"
       gradientUnits="userSpaceOnUse"
       gradientTransform="matrix(1.4476199,-5.1119044e-6,2.2611777e-6,0.6403339,-145.93333,19.733632)"
       cx="326.02042"
       cy="58.370884"
       fx="326.02042"
       fy="58.370884"
       r="11.09274" />
    <radialGradient
       inkscape:collect="always"
       xlink:href="#linearGradient2315"
       id="radialGradient7025"
       gradientUnits="userSpaceOnUse"
       gradientTransform="matrix(1,0,0,0.509804,0,16.05392)"
       cx="4.3920336"
       cy="32.307854"
       fx="4.3920336"
       fy="32.307854"
       r="6.375" />
    <linearGradient
       id="linearGradient2315"
       inkscape:collect="always">
      <stop
         id="stop2317"
         offset="0"
         style="stop-color:#ffffff;stop-opacity:1;" />
      <stop
         id="stop2319"
         offset="1"
         style="stop-color:#ffffff;stop-opacity:0;" />
    </linearGradient>
    <radialGradient
       inkscape:collect="always"
       xlink:href="#linearGradient2315"
       id="radialGradient7023"
       gradientUnits="userSpaceOnUse"
       gradientTransform="matrix(1,0,0,0.509804,0,16.05392)"
       cx="4.3920336"
       cy="32.307854"
       fx="4.3920336"
       fy="32.307854"
       r="6.375" />
    <linearGradient
       inkscape:collect="always"
       id="linearGradient6982">
      <stop
         style="stop-color:#ffffff;stop-opacity:1;"
         offset="0"
         id="stop6984" />
      <stop
         style="stop-color:#ffffff;stop-opacity:0;"
         offset="1"
         id="stop6986" />
    </linearGradient>
    <radialGradient
       inkscape:collect="always"
       xlink:href="#linearGradient6982"
       id="radialGradient7021"
       gradientUnits="userSpaceOnUse"
       gradientTransform="matrix(0.9571167,0,1.3684827e-8,1.4032972,297.21212,42.648718)"
       cx="29.6742"
       cy="13.771779"
       fx="29.6742"
       fy="13.771779"
       r="17.742022" />
    <filter
       inkscape:collect="always"
       x="-0.19197433"
       width="1.3839486"
       y="-0.65714288"
       height="2.3142858"
       id="filter6073">
      <feGaussianBlur
         inkscape:collect="always"
         stdDeviation="8.5428571"
         id="feGaussianBlur6075" />
    </filter>
    <linearGradient
       inkscape:collect="always"
       id="linearGradient5948">
      <stop
         style="stop-color:#000000;stop-opacity:1;"
         offset="0"
         id="stop5950" />
      <stop
         style="stop-color:#000000;stop-opacity:0;"
         offset="1"
         id="stop5952" />
    </linearGradient>
    <radialGradient
       inkscape:collect="always"
       xlink:href="#linearGradient5948"
       id="radialGradient7019"
       gradientUnits="userSpaceOnUse"
       gradientTransform="matrix(1,0,0,0.2921348,0,150.06742)"
       cx="72.5"
       cy="212"
       fx="72.5"
       fy="212"
       r="44.5" />
    <filter
       inkscape:collect="always"
       x="-0.15874799"
       width="1.3174959"
       y="-0.54340661"
       height="2.0868132"
       id="filter5944">
      <feGaussianBlur
         inkscape:collect="always"
         stdDeviation="7.0642857"
         id="feGaussianBlur5946" />
    </filter>
    <linearGradient
       inkscape:collect="always"
       id="linearGradient5957">
      <stop
         style="stop-color:#000000;stop-opacity:1;"
         offset="0"
         id="stop5959" />
      <stop
         style="stop-color:#000000;stop-opacity:0;"
         offset="1"
         id="stop5961" />
    </linearGradient>
    <radialGradient
       inkscape:collect="always"
       xlink:href="#linearGradient5957"
       id="radialGradient7017"
       gradientUnits="userSpaceOnUse"
       gradientTransform="matrix(1,0,0,0.2921348,0,150.06742)"
       cx="72.5"
       cy="212"
       fx="72.5"
       fy="212"
       r="44.5" />
    <linearGradient
       inkscape:collect="always"
       id="linearGradient6028">
      <stop
         style="stop-color:#ffffff;stop-opacity:1;"
         offset="0"
         id="stop6030" />
      <stop
         style="stop-color:#ffffff;stop-opacity:0;"
         offset="1"
         id="stop6032" />
    </linearGradient>
    <linearGradient
       y2="18.366575"
       x2="17.742729"
       y1="31.494707"
       x1="28.702885"
       gradientUnits="userSpaceOnUse"
       id="linearGradient3515"
       xlink:href="#linearGradient6028"
       inkscape:collect="always" />
    <linearGradient
       inkscape:collect="always"
       id="linearGradient6036">
      <stop
         style="stop-color:#ffffff;stop-opacity:1;"
         offset="0"
         id="stop6038" />
      <stop
         style="stop-color:#ffffff;stop-opacity:0;"
         offset="1"
         id="stop6040" />
    </linearGradient>
    <linearGradient
       gradientTransform="translate(-8.452e-2,-1.333323)"
       y2="54.698483"
       x2="48.798885"
       y1="3.6100161"
       x1="10.501720"
       gradientUnits="userSpaceOnUse"
       id="linearGradient3519"
       xlink:href="#linearGradient6036"
       inkscape:collect="always" />
    <linearGradient
       inkscape:collect="always"
       id="linearGradient4409">
      <stop
         style="stop-color:#ffffff;stop-opacity:1;"
         offset="0"
         id="stop4411" />
      <stop
         style="stop-color:#ffffff;stop-opacity:0;"
         offset="1"
         id="stop4413" />
    </linearGradient>
    <linearGradient
       gradientTransform="translate(0.5,-0.353553)"
       gradientUnits="userSpaceOnUse"
       y2="11.669628"
       x2="15.889072"
       y1="24.919628"
       x1="25.985928"
       id="linearGradient4415"
       xlink:href="#linearGradient4409"
       inkscape:collect="always" />
    <linearGradient
       id="aigrd2"
       gradientUnits="userSpaceOnUse"
       x1="12.2744"
       y1="32.4165"
       x2="35.3912"
       y2="14.2033">
      <stop
         offset="0"
         style="stop-color:#FBFBFB"
         id="stop3043" />
      <stop
         offset="0.5"
         style="stop-color:#B6B6B6"
         id="stop3045" />
      <stop
         offset="1"
         style="stop-color:#E4E4E4"
         id="stop3047" />
    </linearGradient>
    <linearGradient
       y2="14.2033"
       x2="35.3912"
       y1="32.4165"
       x1="12.2744"
       gradientTransform="matrix(1.190476,0,0,1.190476,-4.308944,-3.833324)"
       gradientUnits="userSpaceOnUse"
       id="linearGradient3523"
       xlink:href="#aigrd2"
       inkscape:collect="always" />
    <linearGradient
       id="aigrd1"
       gradientUnits="userSpaceOnUse"
       x1="14.9966"
       y1="11.1885"
       x2="32.511"
       y2="34.3075">
      <stop
         offset="0"
         style="stop-color:#EBEBEB"
         id="stop3034" />
      <stop
         offset="0.5"
         style="stop-color:#FFFFFF"
         id="stop3036" />
      <stop
         offset="1"
         style="stop-color:#EBEBEB"
         id="stop3038" />
    </linearGradient>
    <linearGradient
       y2="34.3075"
       x2="32.511"
       y1="11.1885"
       x1="14.9966"
       gradientTransform="matrix(1.190476,0,0,1.190476,-4.308944,-3.833323)"
       gradientUnits="userSpaceOnUse"
       id="linearGradient3526"
       xlink:href="#aigrd1"
       inkscape:collect="always" />
    <linearGradient
       id="linearGradient23419"
       inkscape:collect="always">
      <stop
         id="stop23421"
         offset="0"
         style="stop-color:#000000;stop-opacity:1;" />
      <stop
         id="stop23423"
         offset="1"
         style="stop-color:#000000;stop-opacity:0;" />
    </linearGradient>
    <radialGradient
       r="22.627417"
       fy="41.63604"
       fx="23.334524"
       cy="41.63604"
       cx="23.334524"
       gradientTransform="matrix(1,0,0,0.25,0,31.22703)"
       gradientUnits="userSpaceOnUse"
       id="radialGradient3507"
       xlink:href="#linearGradient23419"
       inkscape:collect="always" />
  </defs>
  <sodipodi:namedview
     id="base"
     pagecolor="#ffffff"
     bordercolor="#666666"
     borderopacity="1.0"
     inkscape:pageopacity="0.0"
     inkscape:pageshadow="2"
     inkscape:zoom="7"
     inkscape:cx="24"
     inkscape:cy="24"
     inkscape:current-layer="layer1"
     showgrid="true"
     inkscape:grid-bbox="true"
     inkscape:document-units="px"
     inkscape:window-width="641"
     inkscape:window-height="688"
     inkscape:window-x="276"
     inkscape:window-y="333" />
  <metadata
     id="metadata7778">
    <rdf:RDF>
      <cc:Work
         rdf:about="">
        <dc:format>image/svg+xml</dc:format>
        <dc:type
           rdf:resource="http://purl.org/dc/dcmitype/StillImage" />
      </cc:Work>
    </rdf:RDF>
  </metadata>
  <g
     id="layer1"
     inkscape:label="Layer 1"
     inkscape:groupmode="layer">
    <g
       transform="translate(-247.35945,26.596438)"
       inkscape:label="Shadow"
       id="g2878" />
    <g
       transform="translate(-247.35945,26.596438)"
       id="g2880"
       inkscape:label="Base"
       style="display:inline" />
    <g
       transform="translate(-300.41751,1.3816189)"
       inkscape:label="shadiw"
       id="g2882" />
    <g
       transform="translate(-251.77789,25.176282)"
       inkscape:label="Shadow"
       id="g2516" />
    <g
       transform="translate(-251.77789,25.176282)"
       id="g2518"
       inkscape:label="Base"
       style="display:inline" />
    <g
       transform="translate(-304.83595,-3.8537115e-2)"
       inkscape:label="shadiw"
       id="g2520" />
    <g
       transform="translate(-267.76424,25.456806)"
       inkscape:label="Shadow"
       id="g2887" />
    <g
       transform="translate(-267.76424,25.456806)"
       id="g2889"
       inkscape:label="Base"
       style="display:inline" />
    <g
       transform="translate(-320.8223,0.2419869)"
       inkscape:label="shadiw"
       id="g2892" />
    <g
       transform="translate(-250.41573,28.975764)"
       inkscape:label="Shadow"
       id="g2894" />
    <g
       transform="translate(-250.41573,28.975764)"
       id="g2896"
       inkscape:label="Base"
       style="display:inline" />
    <g
       transform="translate(-303.47379,3.7609449)"
       inkscape:label="shadiw"
       id="g2898" />
    <g
       transform="translate(-375.35889,35.600604)"
       inkscape:label="Shadow"
       id="g2900" />
    <g
       transform="translate(-375.35889,35.600604)"
       id="g2902"
       inkscape:label="Base"
       style="display:inline" />
    <g
       transform="translate(-428.41695,10.385786)"
       inkscape:label="shadiw"
       id="g2904" />
    <g
       transform="translate(-385.13609,-0.2801871)"
       inkscape:label="Shadow"
       id="g2906" />
    <g
       transform="translate(-385.13609,-0.2801871)"
       id="g2908"
       inkscape:label="Base"
       style="display:inline" />
    <g
       transform="translate(-513.66628,28.246812)"
       id="g2910"
       inkscape:label="Layer 1" />
    <g
       transform="translate(-513.66628,28.246812)"
       inkscape:label="shadiw"
       id="g2824" />
    <g
       transform="translate(-513.66628,28.246812)"
       inkscape:label="white"
       id="g2913" />
    <g
       inkscape:label="Layer 1"
       id="g2915"
       style="display:inline"
       transform="translate(-592.66389,19.891967)" />
    <g
       id="g2917"
       inkscape:label="bottom"
       transform="translate(-592.66389,19.891967)" />
    <g
       id="g2919"
       inkscape:label="back"
       style="display:inline"
       transform="translate(-592.66389,19.891967)" />
    <g
       transform="translate(-436.13959,28.799573)"
       inkscape:label="shadiw"
       id="g2921" />
    <g
       transform="translate(-267.81088,34.059842)"
       inkscape:label="shadiw"
       id="g2923" />
    <g
       id="g2925"
       inkscape:label="Shadow"
       transform="translate(-622.00048,-6.1531562)" />
    <g
       style="display:inline"
       inkscape:label="Base"
       id="g2927"
       transform="translate(-622.00048,-6.1531562)" />
    <g
       id="g2929"
       inkscape:label="new"
       transform="translate(-622.00048,-6.1531562)" />
    <g
       inkscape:label="Layer 1"
       id="g2931"
       style="display:inline"
       transform="translate(-590.56337,8.0879409)" />
    <g
       id="g2933"
       inkscape:label="bottom"
       transform="translate(-590.56337,8.0879409)" />
    <g
       id="g2935"
       inkscape:label="back"
       style="display:inline"
       transform="translate(-590.56337,8.0879409)" />
    <g
       transform="translate(-434.03907,16.995547)"
       inkscape:label="shadiw"
       id="g2937" />
    <g
       transform="translate(-265.71036,22.255816)"
       inkscape:label="shadiw"
       id="g2939" />
    <g
       id="g2941"
       inkscape:label="Shadow"
       transform="translate(-619.89996,-17.957182)" />
    <g
       style="display:inline"
       inkscape:label="Base"
       id="g2943"
       transform="translate(-619.89996,-17.957182)" />
    <g
       id="g2945"
       inkscape:label="new"
       transform="translate(-619.89996,-17.957182)" />
    <g
       transform="translate(-663.28828,35.282219)"
       inkscape:label="Shadow"
       id="g2947" />
    <g
       transform="translate(-663.28828,35.282219)"
       id="g2949"
       inkscape:label="Base"
       style="display:inline" />
    <g
       transform="translate(-716.34634,10.0674)"
       inkscape:label="shadiw"
       id="g2951" />
    <g
       transform="translate(-377.22208,26.770778)"
       inkscape:label="Shadow"
       id="g2953" />
    <g
       transform="translate(-377.22208,26.770778)"
       id="g2955"
       inkscape:label="Base"
       style="display:inline" />
    <g
       transform="translate(-505.75227,55.297781)"
       id="g2957"
       inkscape:label="Layer 1" />
    <g
       transform="translate(-505.75227,55.297781)"
       inkscape:label="shadiw"
       id="g2959" />
    <g
       transform="translate(-505.75227,55.297781)"
       inkscape:label="white"
       id="g2961" />
    <g
       inkscape:label="Layer 1"
       id="g2800"
       style="display:inline"
       transform="translate(-584.74988,46.942932)" />
    <g
       id="g2964"
       inkscape:label="bottom"
       transform="translate(-584.74988,46.942932)" />
    <g
       id="g2966"
       inkscape:label="back"
       style="display:inline"
       transform="translate(-584.74988,46.942932)" />
    <g
       transform="translate(-428.22558,55.850541)"
       inkscape:label="shadiw"
       id="g2968" />
    <g
       transform="translate(-259.89687,61.110811)"
       inkscape:label="shadiw"
       id="g2970" />
    <g
       id="g2972"
       inkscape:label="Shadow"
       transform="translate(-614.08647,20.897809)" />
    <g
       style="display:inline"
       inkscape:label="Base"
       id="g2974"
       transform="translate(-614.08647,20.897809)" />
    <g
       id="g2976"
       inkscape:label="new"
       transform="translate(-614.08647,20.897809)" />
    <g
       inkscape:label="Layer 1"
       id="g2978"
       style="display:inline"
       transform="translate(-582.64936,35.138906)" />
    <g
       id="g2980"
       inkscape:label="bottom"
       transform="translate(-582.64936,35.138906)" />
    <g
       id="g2982"
       inkscape:label="back"
       style="display:inline"
       transform="translate(-582.64936,35.138906)" />
    <g
       transform="translate(-426.12506,44.046512)"
       inkscape:label="shadiw"
       id="g2984" />
    <g
       transform="translate(-257.79635,49.306781)"
       inkscape:label="shadiw"
       id="g2986" />
    <g
       id="g2988"
       inkscape:label="Shadow"
       transform="translate(-611.98595,9.093783)" />
    <g
       style="display:inline"
       inkscape:label="Base"
       id="g2990"
       transform="translate(-611.98595,9.093783)" />
    <g
       id="g2992"
       inkscape:label="new"
       transform="translate(-611.98595,9.093783)" />
    <g
       transform="matrix(0.9248169,0,0,0.9248169,-238.56623,20.052424)"
       inkscape:label="Shadow"
       id="layer6" />
    <g
       transform="matrix(0.9248169,0,0,0.9248169,-238.56623,20.052424)"
       id="g2161"
       inkscape:label="Base"
       style="display:inline" />
    <g
       transform="matrix(0.9248169,0,0,0.9248169,-287.63522,-3.2666671)"
       inkscape:label="shadiw"
       id="layer5" />
    <g
       transform="matrix(0.9248169,0,0,0.9248169,-253.35067,20.311857)"
       inkscape:label="Shadow"
       id="g2482" />
    <g
       transform="matrix(0.9248169,0,0,0.9248169,-253.35067,20.311857)"
       id="g2484"
       inkscape:label="Base"
       style="display:inline" />
    <g
       transform="matrix(0.9248169,0,0,0.9248169,-302.41966,-3.0072341)"
       inkscape:label="shadiw"
       id="g2486" />
    <g
       transform="matrix(0.9248169,0,0,0.9248169,-237.30648,23.566249)"
       inkscape:label="Shadow"
       id="g2309" />
    <g
       transform="matrix(0.9248169,0,0,0.9248169,-237.30648,23.566249)"
       id="g2311"
       inkscape:label="Base"
       style="display:inline" />
    <g
       transform="matrix(0.9248169,0,0,0.9248169,-286.37547,0.2471579)"
       inkscape:label="shadiw"
       id="g2313" />
    <g
       transform="matrix(0.9248169,0,0,0.9248169,-352.85602,29.693013)"
       inkscape:label="Shadow"
       id="g2511" />
    <g
       transform="matrix(0.9248169,0,0,0.9248169,-352.85602,29.693013)"
       id="g2513"
       inkscape:label="Base"
       style="display:inline" />
    <g
       transform="matrix(0.9248169,0,0,0.9248169,-401.92501,6.3739219)"
       inkscape:label="shadiw"
       id="g2515" />
    <g
       transform="matrix(0.9248169,0,0,0.9248169,-295.46735,-22.845663)"
       inkscape:label="Shadow"
       id="g2802" />
    <g
       transform="matrix(0.9248169,0,0,0.9248169,-295.46735,-22.845663)"
       id="g2170"
       inkscape:label="Base"
       style="display:inline" />
    <g
       transform="matrix(0.9248169,0,0,0.9248169,-414.33424,3.5365879)"
       id="g5398"
       inkscape:label="Layer 1" />
    <g
       transform="matrix(0.9248169,0,0,0.9248169,-414.33424,3.5365879)"
       inkscape:label="shadiw"
       id="g2806" />
    <g
       transform="matrix(0.9248169,0,0,0.9248169,-414.33424,3.5365879)"
       inkscape:label="white"
       id="layer4" />
    <g
       inkscape:label="Layer 1"
       id="g3678"
       style="display:inline"
       transform="matrix(0.9248169,0,0,0.9248169,-487.39257,-4.1901141)" />
    <g
       id="g3680"
       inkscape:label="bottom"
       transform="matrix(0.9248169,0,0,0.9248169,-487.39257,-4.1901141)" />
    <g
       id="g4299"
       inkscape:label="back"
       style="display:inline"
       transform="matrix(0.9248169,0,0,0.9248169,-487.39257,-4.1901141)" />
    <g
       transform="matrix(0.9248169,0,0,0.9248169,-342.63625,4.0477899)"
       inkscape:label="shadiw"
       id="g3698" />
    <g
       transform="matrix(0.9248169,0,0,0.9248169,-186.96302,8.912576)"
       inkscape:label="shadiw"
       id="g3760" />
    <g
       id="g5431"
       inkscape:label="Shadow"
       transform="matrix(0.9248169,0,0,0.9248169,-514.52354,-28.277084)" />
    <g
       style="display:inline"
       inkscape:label="Base"
       id="g4258"
       transform="matrix(0.9248169,0,0,0.9248169,-514.52354,-28.277084)" />
    <g
       id="g5440"
       inkscape:label="new"
       transform="matrix(0.9248169,0,0,0.9248169,-514.52354,-28.277084)" />
    <g
       inkscape:label="Layer 1"
       id="g3928"
       style="display:inline"
       transform="matrix(0.9248169,0,0,0.9248169,-485.44997,-15.106677)" />
    <g
       id="g3930"
       inkscape:label="bottom"
       transform="matrix(0.9248169,0,0,0.9248169,-485.44997,-15.106677)" />
    <g
       id="g3932"
       inkscape:label="back"
       style="display:inline"
       transform="matrix(0.9248169,0,0,0.9248169,-485.44997,-15.106677)" />
    <g
       transform="matrix(0.9248169,0,0,0.9248169,-340.69365,-6.8687722)"
       inkscape:label="shadiw"
       id="g3934" />
    <g
       transform="matrix(0.9248169,0,0,0.9248169,-185.02042,-2.0039871)"
       inkscape:label="shadiw"
       id="g3936" />
    <g
       id="g3961"
       inkscape:label="Shadow"
       transform="matrix(0.9248169,0,0,0.9248169,-512.58095,-39.193647)" />
    <g
       style="display:inline"
       inkscape:label="Base"
       id="g3963"
       transform="matrix(0.9248169,0,0,0.9248169,-512.58095,-39.193647)" />
    <g
       id="layer7"
       inkscape:label="new"
       transform="matrix(0.9248169,0,0,0.9248169,-512.58095,-39.193647)" />
    <g
       transform="matrix(0.9248169,0,0,0.9248169,-552.7072,10.043051)"
       inkscape:label="Shadow"
       id="g2561" />
    <g
       transform="matrix(0.9248169,0,0,0.9248169,-552.7072,10.043051)"
       id="g2860"
       inkscape:label="Base"
       style="display:inline" />
    <g
       transform="matrix(0.9248169,0,0,0.9248169,-601.77619,-13.27604)"
       inkscape:label="shadiw"
       id="g2564" />
    <g
       transform="matrix(0.9248169,0,0,0.9248169,-288.14834,2.1715259)"
       inkscape:label="Shadow"
       id="g2790" />
    <g
       transform="matrix(0.9248169,0,0,0.9248169,-288.14834,2.1715259)"
       id="g2792"
       inkscape:label="Base"
       style="display:inline" />
    <g
       transform="matrix(0.9248169,0,0,0.9248169,-407.01523,28.553781)"
       id="g2794"
       inkscape:label="Layer 1" />
    <g
       transform="matrix(0.9248169,0,0,0.9248169,-407.01523,28.553781)"
       inkscape:label="shadiw"
       id="g2796" />
    <g
       transform="matrix(0.9248169,0,0,0.9248169,-407.01523,28.553781)"
       inkscape:label="white"
       id="g2798" />
    <g
       inkscape:label="Layer 1"
       id="g2886"
       style="display:inline"
       transform="matrix(0.9248169,0,0,0.9248169,-480.07356,20.827075)" />
    <g
       id="g2888"
       inkscape:label="bottom"
       transform="matrix(0.9248169,0,0,0.9248169,-480.07356,20.827075)" />
    <g
       id="g2804"
       inkscape:label="back"
       style="display:inline"
       transform="matrix(0.9248169,0,0,0.9248169,-480.07356,20.827075)" />
    <g
       transform="matrix(0.9248169,0,0,0.9248169,-335.31724,29.064983)"
       inkscape:label="shadiw"
       id="g2891" />
    <g
       transform="matrix(0.9248169,0,0,0.9248169,-179.64401,33.929769)"
       inkscape:label="shadiw"
       id="g2808" />
    <g
       id="g2810"
       inkscape:label="Shadow"
       transform="matrix(0.9248169,0,0,0.9248169,-507.20453,-3.2598941)" />
    <g
       style="display:inline"
       inkscape:label="Base"
       id="g2812"
       transform="matrix(0.9248169,0,0,0.9248169,-507.20453,-3.2598941)" />
    <g
       id="g2814"
       inkscape:label="new"
       transform="matrix(0.9248169,0,0,0.9248169,-507.20453,-3.2598941)" />
    <g
       inkscape:label="Layer 1"
       id="g2816"
       style="display:inline"
       transform="matrix(0.9248169,0,0,0.9248169,-478.13096,9.910513)" />
    <g
       id="g2818"
       inkscape:label="bottom"
       transform="matrix(0.9248169,0,0,0.9248169,-478.13096,9.910513)" />
    <g
       id="g2820"
       inkscape:label="back"
       style="display:inline"
       transform="matrix(0.9248169,0,0,0.9248169,-478.13096,9.910513)" />
    <g
       transform="matrix(0.9248169,0,0,0.9248169,-333.37464,18.148417)"
       inkscape:label="shadiw"
       id="g2823" />
    <g
       transform="matrix(0.9248169,0,0,0.9248169,-177.70141,23.013203)"
       inkscape:label="shadiw"
       id="g2825" />
    <g
       id="g2827"
       inkscape:label="Shadow"
       transform="matrix(0.9248169,0,0,0.9248169,-505.26194,-14.176457)" />
    <g
       style="display:inline"
       inkscape:label="Base"
       id="g2829"
       transform="matrix(0.9248169,0,0,0.9248169,-505.26194,-14.176457)" />
    <g
       id="g2831"
       inkscape:label="new"
       transform="matrix(0.9248169,0,0,0.9248169,-505.26194,-14.176457)" />
    <g
       transform="matrix(0.5095419,0,0,0.5095419,156.13297,-36.313029)"
       inkscape:label="backdrop"
       id="g12923" />
    <g
       transform="matrix(0.5095419,0,0,0.5095419,240.08606,-2.4746301)"
       style="display:inline"
       id="g12925"
       inkscape:label="Layer 1" />
    <g
       transform="matrix(0.5095419,0,0,0.5095419,240.05901,-2.3264601)"
       inkscape:label="stuff"
       id="g12935" />
    <g
       transform="matrix(1.4701406,0,0,1.4701406,62.798705,24.224894)"
       inkscape:label="shadiw"
       id="g3172"
       style="display:inline" />
    <g
       transform="matrix(0.5095419,0,0,0.5095419,84.344079,28.324452)"
       inkscape:label="shadiw"
       id="g2529"
       style="display:inline" />
    <g
       transform="translate(76.847215,4.1078609)"
       inkscape:label="bottom"
       id="g3444" />
    <g
       transform="translate(76.847215,4.1078609)"
       style="display:inline"
       inkscape:label="front"
       id="g3446" />
    <g
       transform="translate(76.794121,4.3986509)"
       inkscape:label="shadow"
       id="g3448" />
    <g
       id="g3454"
       inkscape:label="backdrop"
       transform="matrix(0.5095419,0,0,0.5095419,81.880645,-39.20321)" />
    <g
       inkscape:label="Layer 1"
       id="g3456"
       style="display:inline"
       transform="matrix(0.5095419,0,0,0.5095419,165.83373,-5.3648112)" />
    <g
       id="g3458"
       inkscape:label="stuff"
       transform="matrix(0.5095419,0,0,0.5095419,165.80668,-5.2166412)" />
    <g
       style="display:inline"
       id="g3462"
       inkscape:label="shadiw"
       transform="matrix(1.4701406,0,0,1.4701406,-11.453619,21.334713)" />
    <g
       style="display:inline"
       id="g3465"
       inkscape:label="shadiw"
       transform="matrix(0.5095419,0,0,0.5095419,10.091751,25.434271)" />
    <g
       transform="matrix(2.8852202,0,0,2.8852202,-56.188638,15.0559)"
       inkscape:label="shadiw"
       id="g3209" />
    <g
       transform="translate(-13.904819,23.101474)"
       inkscape:label="shadiw"
       id="g3213" />
    <g
       id="g3113"
       inkscape:label="shadiw"
       transform="matrix(2.8852202,0,0,2.8852202,-333.8186,54.845104)" />
    <g
       id="g3117"
       inkscape:label="shadiw"
       transform="translate(-291.53478,62.890678)" />
    <g
       id="g2591"
       inkscape:label="backdrop"
       transform="matrix(0.5095419,0,0,0.5095419,97.852749,-36.342029)" />
    <g
       inkscape:label="Layer 1"
       id="g2593"
       style="display:inline"
       transform="matrix(0.5095419,0,0,0.5095419,181.80583,-2.5036301)" />
    <g
       id="g2595"
       inkscape:label="stuff"
       transform="matrix(0.5095419,0,0,0.5095419,181.77878,-2.3554601)" />
    <g
       style="display:inline"
       id="g2599"
       inkscape:label="shadiw"
       transform="matrix(1.4701406,0,0,1.4701406,4.5184815,24.195894)" />
    <g
       style="display:inline"
       id="g2601"
       inkscape:label="shadiw"
       transform="matrix(0.5095419,0,0,0.5095419,26.063851,28.295452)" />
    <g
       id="g2552"
       inkscape:label="bottom"
       transform="translate(-18.798799,23.35456)" />
    <g
       id="g2554"
       inkscape:label="front"
       style="display:inline"
       transform="translate(-18.798799,23.35456)" />
    <g
       id="g2556"
       inkscape:label="shadow"
       transform="translate(-18.851889,23.645351)" />
    <g
       transform="matrix(0.5095419,0,0,0.5095419,193.98295,-56.1293)"
       inkscape:label="backdrop"
       id="g2995" />
    <g
       transform="matrix(0.5095419,0,0,0.5095419,277.93604,-22.2909)"
       style="display:inline"
       id="g2997"
       inkscape:label="Layer 1" />
    <g
       transform="matrix(0.5095419,0,0,0.5095419,277.90899,-22.142731)"
       inkscape:label="stuff"
       id="g2999" />
    <g
       transform="matrix(1.4701406,0,0,1.4701406,100.64869,4.4086229)"
       inkscape:label="shadiw"
       id="g3003"
       style="display:inline" />
    <g
       transform="matrix(0.5095419,0,0,0.5095419,122.19406,8.508181)"
       inkscape:label="shadiw"
       id="g3006"
       style="display:inline" />
    <g
       transform="translate(73.693048,26.594124)"
       id="g3200"
       inkscape:label="Shadow" />
    <g
       transform="translate(73.693048,26.594124)"
       style="display:inline"
       inkscape:label="Base"
       id="g3385" />
    <g
       id="g3398"
       inkscape:label="shadow23"
       transform="translate(23.261721,28.534003)" />
    <g
       transform="translate(23.670201,-4.1814801)"
       style="opacity:0.30632181"
       id="g3358" />
    <g
       transform="translate(15.670201,91.506019)"
       id="g3360" />
    <g
       id="g2570"
       inkscape:label="backdrop"
       transform="matrix(0.3996466,0,0,0.3996466,161.03768,-23.495135)" />
    <g
       inkscape:label="Layer 1"
       id="g2572"
       style="display:inline"
       transform="matrix(0.3996466,0,0,0.3996466,226.88421,3.0451769)" />
    <g
       id="g2574"
       inkscape:label="stuff"
       transform="matrix(0.3996466,0,0,0.3996466,226.86299,3.1613909)" />
    <g
       style="display:inline"
       id="g2576"
       inkscape:label="shadiw"
       transform="matrix(1.1530685,0,0,1.1530685,87.833249,23.986289)" />
    <g
       style="display:inline"
       id="g2578"
       inkscape:label="shadiw"
       transform="matrix(0.3996466,0,0,0.3996466,104.73183,27.201676)" />
    <g
       id="g2580"
       inkscape:label="bottom"
       transform="matrix(0.7843253,0,0,0.7843253,98.851849,8.2079909)" />
    <g
       id="g2582"
       inkscape:label="front"
       style="display:inline"
       transform="matrix(0.7843253,0,0,0.7843253,98.851849,8.2079909)" />
    <g
       id="g2584"
       inkscape:label="shadow"
       transform="matrix(0.7843253,0,0,0.7843253,98.810209,8.436066)" />
    <g
       transform="matrix(0.3996466,0,0,0.3996466,102.7997,-25.761977)"
       inkscape:label="backdrop"
       id="g2586" />
    <g
       transform="matrix(0.3996466,0,0,0.3996466,168.64623,0.7783349)"
       style="display:inline"
       id="g2588"
       inkscape:label="Layer 1" />
    <g
       transform="matrix(0.3996466,0,0,0.3996466,168.62501,0.8945479)"
       inkscape:label="stuff"
       id="g2590" />
    <g
       transform="matrix(1.1530685,0,0,1.1530685,29.595271,21.719447)"
       inkscape:label="shadiw"
       id="g2592"
       style="display:inline" />
    <g
       transform="matrix(0.3996466,0,0,0.3996466,46.493851,24.934834)"
       inkscape:label="shadiw"
       id="g2594"
       style="display:inline" />
    <g
       id="g2596"
       inkscape:label="shadiw"
       transform="matrix(2.2629512,0,0,2.2629512,-5.4915385,16.794815)" />
    <g
       id="g2598"
       inkscape:label="shadiw"
       transform="matrix(0.7843253,0,0,0.7843253,27.672731,23.105163)" />
    <g
       transform="matrix(2.2629512,0,0,2.2629512,-223.24374,48.002495)"
       inkscape:label="shadiw"
       id="g2600" />
    <g
       transform="matrix(0.7843253,0,0,0.7843253,-190.07947,54.312842)"
       inkscape:label="shadiw"
       id="g2602" />
    <g
       transform="matrix(0.3996466,0,0,0.3996466,115.32702,-23.517881)"
       inkscape:label="backdrop"
       id="g2604" />
    <g
       transform="matrix(0.3996466,0,0,0.3996466,181.17355,3.0224319)"
       style="display:inline"
       id="g2606"
       inkscape:label="Layer 1" />
    <g
       transform="matrix(0.3996466,0,0,0.3996466,181.15233,3.1386449)"
       inkscape:label="stuff"
       id="g2608" />
    <g
       transform="matrix(1.1530685,0,0,1.1530685,42.122591,23.963544)"
       inkscape:label="shadiw"
       id="g2610"
       style="display:inline" />
    <g
       transform="matrix(0.3996466,0,0,0.3996466,59.021175,27.178931)"
       inkscape:label="shadiw"
       id="g2612"
       style="display:inline" />
    <g
       transform="matrix(0.7843253,0,0,0.7843253,23.834261,23.303664)"
       inkscape:label="bottom"
       id="g2614" />
    <g
       transform="matrix(0.7843253,0,0,0.7843253,23.834261,23.303664)"
       style="display:inline"
       inkscape:label="front"
       id="g2616" />
    <g
       transform="matrix(0.7843253,0,0,0.7843253,23.792621,23.531739)"
       inkscape:label="shadow"
       id="g2618" />
    <g
       id="g2620"
       inkscape:label="backdrop"
       transform="matrix(0.3996466,0,0,0.3996466,190.72437,-39.037538)" />
    <g
       inkscape:label="Layer 1"
       id="g2622"
       style="display:inline"
       transform="matrix(0.3996466,0,0,0.3996466,256.5709,-12.497225)" />
    <g
       id="g2624"
       inkscape:label="stuff"
       transform="matrix(0.3996466,0,0,0.3996466,256.54969,-12.381012)" />
    <g
       style="display:inline"
       id="g2626"
       inkscape:label="shadiw"
       transform="matrix(1.1530685,0,0,1.1530685,117.51995,8.443886)" />
    <g
       style="display:inline"
       id="g2628"
       inkscape:label="shadiw"
       transform="matrix(0.3996466,0,0,0.3996466,134.41853,11.659273)" />
    <g
       inkscape:label="Layer 1"
       id="g2776"
       transform="translate(4.1245605e-4,4.418848e-4)">
      <path
         transform="matrix(1,0,0,1.066291,0.91548,-4.218429)"
         inkscape:r_cy="true"
         inkscape:r_cx="true"
         d="M 45.961941,41.63604 A 22.627417,5.6568542 0 1 1 0.70710754,41.63604 A 22.627417,5.6568542 0 1 1 45.961941,41.63604 z"
         sodipodi:ry="5.6568542"
         sodipodi:rx="22.627417"
         sodipodi:cy="41.63604"
         sodipodi:cx="23.334524"
         id="path23417"
         style="opacity:0.55;fill:url(#radialGradient3507);fill-opacity:1;fill-rule:evenodd;stroke:none;stroke-width:2;stroke-linecap:butt;stroke-linejoin:miter;marker:none;marker-start:none;marker-mid:none;marker-end:none;stroke-miterlimit:4;stroke-dasharray:none;stroke-dashoffset:0;stroke-opacity:1;visibility:visible;display:inline;overflow:visible"
         sodipodi:type="arc" />
      <path
         style="fill:url(#linearGradient3526);fill-rule:nonzero;stroke:none;stroke-miterlimit:4"
         d="M 24.262486,2.8333435 C 12.714866,2.8333435 3.4291519,12.119058 3.4291519,23.666677 C 3.4291519,35.214297 12.714866,44.500012 24.262486,44.500012 C 35.810106,44.500012 45.095821,35.214297 45.095821,23.666677 C 45.095821,12.119058 35.810106,2.8333435 24.262486,2.8333435 L 24.262486,2.8333435 z M 24.262486,28.666678 C 21.524391,28.666678 19.262486,26.404773 19.262486,23.666677 C 19.262486,20.928582 21.524391,18.666677 24.262486,18.666677 C 27.000581,18.666677 29.262486,20.928582 29.262486,23.666677 C 29.262486,26.404773 27.000581,28.666678 24.262486,28.666678 z"
         id="path2779"
         inkscape:r_cx="true"
         inkscape:r_cy="true" />
      <path
         style="fill:url(#linearGradient3523);fill-rule:nonzero;stroke:#808080;stroke-miterlimit:4;stroke-opacity:1"
         d="M 24.262486,2.8333431 C 12.714866,2.8333431 3.429152,12.119058 3.429152,23.666677 C 3.429152,35.214297 12.714866,44.500012 24.262486,44.500012 C 35.810106,44.500012 45.095821,35.214297 45.095821,23.666677 C 45.095821,12.119058 35.810106,2.8333431 24.262486,2.8333431 L 24.262486,2.8333431 z M 24.262486,28.666678 C 21.524391,28.666678 19.262486,26.404773 19.262486,23.666677 C 19.262486,20.928582 21.524391,18.666677 24.262486,18.666677 C 27.000581,18.666677 29.262486,20.928582 29.262486,23.666677 C 29.262486,26.404773 27.000581,28.666678 24.262486,28.666678 z"
         id="path2781"
         inkscape:r_cx="true"
         inkscape:r_cy="true" />
      <path
         sodipodi:nodetypes="csccssccsc"
         id="path2783"
         d="M 23.410538,3.4587825 C 12.648847,3.864693 4.1109275,12.676135 4.1109275,23.541217 C 4.1109275,28.466722 5.858051,32.943607 8.7777601,36.427697 L 19.895113,27.017403 C 19.173772,26.174062 18.845878,24.974235 18.845878,23.791217 C 18.845878,20.400827 21.150167,18.223842 24.413253,18.223842 C 25.897178,18.223842 27.38434,18.897269 28.271719,19.97014 L 39.639072,10.684846 C 35.963901,6.2606919 30.394797,3.4587825 24.163253,3.4587825 C 23.902492,3.4587825 23.668819,3.4490406 23.410538,3.4587825 z"
         style="fill:url(#linearGradient4415);fill-opacity:1;fill-rule:nonzero;stroke:none;stroke-miterlimit:4;stroke-opacity:1" />
      <path
         style="opacity:0.51098902;fill:#eeeeec;fill-rule:nonzero;stroke:none;stroke-miterlimit:4"
         d="M 24.262486,13.562512 C 18.6199,13.562512 14.15832,18.155315 14.15832,23.666677 C 14.15832,29.309265 18.751124,33.770843 24.262486,33.770843 C 29.905072,33.770843 34.366652,29.178041 34.366652,23.666677 C 34.366652,18.024091 29.773848,13.562512 24.262486,13.562512 L 24.262486,13.562512 z M 24.262486,29.178041 C 21.244359,29.178041 18.751124,26.684806 18.751124,23.666677 C 18.751124,20.64855 21.244359,18.155315 24.262486,18.155315 C 27.280613,18.155315 29.773848,20.64855 29.773848,23.666677 C 29.773848,26.684806 27.280613,29.178041 24.262486,29.178041 z"
         id="path2785"
         inkscape:r_cx="true"
         inkscape:r_cy="true" />
      <path
         sodipodi:nodetypes="cccccc"
         id="path2787"
         d="M 24.262482,3.8690421 C 13.288938,3.8690421 4.4648511,12.693131 4.4648511,23.666674 C 4.4648511,34.640218 13.288938,43.464305 24.262482,43.464305 C 35.236026,43.464305 44.060113,34.640218 44.060113,23.666674 C 44.060113,12.693131 35.236026,3.8690421 24.262482,3.8690421 L 24.262482,3.8690421 z"
         style="opacity:0.54644811;fill:none;fill-rule:nonzero;stroke:url(#linearGradient3519);stroke-miterlimit:4;stroke-opacity:1"
         inkscape:r_cx="true"
         inkscape:r_cy="true" />
      <path
         transform="translate(3.868e-3,-1.244934)"
         d="M 30.405591,24.930641 A 6.0987959,6.0987959 0 1 1 18.207999,24.930641 A 6.0987959,6.0987959 0 1 1 30.405591,24.930641 z"
         sodipodi:ry="6.0987959"
         sodipodi:rx="6.0987959"
         sodipodi:cy="24.930641"
         sodipodi:cx="24.306795"
         id="path2789"
         style="opacity:0.67213111;fill:none;fill-opacity:0.31638417;fill-rule:nonzero;stroke:url(#linearGradient3515);stroke-width:0.93053865;stroke-linecap:butt;stroke-linejoin:miter;marker:none;marker-start:none;marker-mid:none;marker-end:none;stroke-miterlimit:4;stroke-dashoffset:0;stroke-opacity:1;visibility:visible;display:inline;overflow:visible"
         sodipodi:type="arc"
         inkscape:r_cx="true"
         inkscape:r_cy="true" />
    </g>
    <g
       transform="translate(-294.06274,-51.996023)"
       style="display:inline;enable-background:new"
       id="g7116">
      <path
         transform="matrix(0.1986123,0,0,0.1986123,291.9306,47.055039)"
         d="M 117,212 A 44.5,13 0 1 1 28,212 A 44.5,13 0 1 1 117,212 z"
         sodipodi:ry="13"
         sodipodi:rx="44.5"
         sodipodi:cy="212"
         sodipodi:cx="72.5"
         id="path6353"
         style="opacity:0.5;fill:url(#radialGradient7017);fill-opacity:1;fill-rule:evenodd;stroke:none;stroke-width:2;stroke-linecap:round;stroke-linejoin:round;marker:none;marker-start:none;marker-mid:none;marker-end:none;stroke-miterlimit:4;stroke-dasharray:none;stroke-dashoffset:0;stroke-opacity:1;visibility:visible;display:inline;overflow:visible;filter:url(#filter5944);enable-background:accumulate"
         sodipodi:type="arc" />
      <path
         sodipodi:type="arc"
         style="opacity:0.2;fill:url(#radialGradient7019);fill-opacity:1;fill-rule:evenodd;stroke:none;stroke-width:2;stroke-linecap:round;stroke-linejoin:round;marker:none;marker-start:none;marker-mid:none;marker-end:none;stroke-miterlimit:4;stroke-dasharray:none;stroke-dashoffset:0;stroke-opacity:1;visibility:visible;display:inline;overflow:visible;filter:url(#filter6073);enable-background:accumulate"
         id="path6357"
         sodipodi:cx="72.5"
         sodipodi:cy="212"
         sodipodi:rx="44.5"
         sodipodi:ry="13"
         d="M 117,212 A 44.5,13 0 1 1 28,212 A 44.5,13 0 1 1 117,212 z"
         transform="matrix(0.229168,0,0,0.229168,315.13768,40.577223)" />
      <path
         style="fill:#a7cc5c;fill-opacity:1;fill-rule:nonzero;stroke:#42770c;stroke-width:1;stroke-linecap:round;stroke-linejoin:round;marker:none;marker-start:none;marker-mid:none;marker-end:none;stroke-miterlimit:4;stroke-dashoffset:0;stroke-opacity:1;visibility:visible;display:block"
         d="M 337.56459,54.596927 C 337.56459,54.596927 314.50209,58.492233 314.50209,58.492233 L 314.50209,82.129638 C 312.85613,81.571987 310.57031,81.426209 308.06459,81.942138 C 303.70828,82.839107 300.58673,85.241625 301.06459,87.285888 C 301.54245,89.330151 305.45828,90.276608 309.81459,89.379638 C 313.93123,88.532018 317.49871,86.341836 317.41722,84.379638 L 317.57347,65.348388 C 317.57347,65.348388 334.50393,62.453082 334.50393,62.453082 L 334.50393,79.737696 C 324.25393,78.237696 321.21173,82.630932 321.68959,84.675196 C 322.16745,86.719459 326.08328,87.665915 330.43959,86.768946 C 334.30497,85.973061 337.072,84.005735 337.34584,82.143946 L 337.56459,54.596927 z"
         id="path7042"
         sodipodi:nodetypes="cccccccccccccc" />
      <path
         sodipodi:nodetypes="ccccccccccc"
         id="path2311"
         d="M 336.66863,55.785801 C 336.66863,55.785801 315.48686,59.415942 315.48686,59.415942 L 315.48686,83.287211 C 307.9216,81.381901 301.75375,85.12162 302.20818,87.065655 C 302.91262,90.38469 316.58656,88.167889 316.50906,83.926895 L 316.65765,64.453729 C 316.65765,64.453729 335.50803,61.561397 335.50803,61.561397 L 335.50803,80.998563 C 327.94174,79.071916 322.24253,82.374947 322.69696,84.318983 C 323.27639,87.513018 335.07519,86.432345 336.4606,81.661837 L 336.66863,55.785801 z"
         style="opacity:0.51176471;fill:none;fill-opacity:1;fill-rule:nonzero;stroke:url(#radialGradient7021);stroke-width:1;stroke-linecap:butt;stroke-linejoin:miter;marker:none;marker-start:none;marker-mid:none;marker-end:none;stroke-miterlimit:4;stroke-dasharray:none;stroke-dashoffset:0;stroke-opacity:1;visibility:visible;display:block" />
      <path
         transform="matrix(0.734516,-0.111645,0.111645,0.734516,299.84295,61.9441)"
         d="M 12.25,32.75 A 6.375,3.25 0 1 1 -0.5,32.75 A 6.375,3.25 0 1 1 12.25,32.75 z"
         sodipodi:ry="3.25"
         sodipodi:rx="6.375"
         sodipodi:cy="32.75"
         sodipodi:cx="5.875"
         id="path2313"
         style="opacity:0.51176471;fill:url(#radialGradient7023);fill-opacity:1;fill-rule:nonzero;stroke:none;stroke-width:1;stroke-linecap:butt;stroke-linejoin:miter;marker:none;marker-start:none;marker-mid:none;marker-end:none;stroke-miterlimit:4;stroke-dasharray:none;stroke-dashoffset:0;stroke-opacity:1;visibility:visible;display:block;overflow:visible"
         sodipodi:type="arc" />
      <path
         sodipodi:type="arc"
         style="opacity:0.51176471;fill:url(#radialGradient7025);fill-opacity:1;fill-rule:nonzero;stroke:none;stroke-width:1;stroke-linecap:butt;stroke-linejoin:miter;marker:none;marker-start:none;marker-mid:none;marker-end:none;stroke-miterlimit:4;stroke-dasharray:none;stroke-dashoffset:0;stroke-opacity:1;visibility:visible;display:block;overflow:visible"
         id="path2323"
         sodipodi:cx="5.875"
         sodipodi:cy="32.75"
         sodipodi:rx="6.375"
         sodipodi:ry="3.25"
         d="M 12.25,32.75 A 6.375,3.25 0 1 1 -0.5,32.75 A 6.375,3.25 0 1 1 12.25,32.75 z"
         transform="matrix(0.734516,-0.111645,0.111645,0.734516,319.68546,59.109454)" />
      <path
         style="fill:url(#radialGradient7027);fill-opacity:1;fill-rule:evenodd;stroke:none;stroke-width:1px;stroke-linecap:butt;stroke-linejoin:miter;stroke-opacity:1"
         d="M 314.92768,59.141752 L 315.01607,62.235345 L 337.11316,58.523034 L 337.02477,55.164277 L 314.92768,59.141752 z"
         id="path6990"
         sodipodi:nodetypes="ccccc" />
      <path
         sodipodi:type="arc"
         style="opacity:0.68000034;fill:url(#linearGradient7029);fill-opacity:1;fill-rule:evenodd;stroke:none;stroke-width:2;stroke-linecap:round;stroke-linejoin:round;marker:none;marker-start:none;marker-mid:none;marker-end:none;stroke-miterlimit:4;stroke-dasharray:none;stroke-dashoffset:0;stroke-opacity:1;visibility:visible;display:inline;overflow:visible;enable-background:accumulate"
         id="path7000"
         sodipodi:cx="185"
         sodipodi:cy="159.5"
         sodipodi:rx="32.5"
         sodipodi:ry="14"
         d="M 217.5,159.5 A 32.5,14 0 1 1 152.5,159.5 A 32.5,14 0 1 1 217.5,159.5 z"
         transform="matrix(0.1666704,-2.8476107e-2,3.7049941e-2,0.1281007,272.75652,69.086018)" />
      <path
         transform="matrix(0.1666704,-2.8476107e-2,3.7049941e-2,0.1281007,293.00652,66.836018)"
         d="M 217.5,159.5 A 32.5,14 0 1 1 152.5,159.5 A 32.5,14 0 1 1 217.5,159.5 z"
         sodipodi:ry="14"
         sodipodi:rx="32.5"
         sodipodi:cy="159.5"
         sodipodi:cx="185"
         id="path7004"
         style="opacity:0.68000034;fill:url(#linearGradient7031);fill-opacity:1;fill-rule:evenodd;stroke:none;stroke-width:2;stroke-linecap:round;stroke-linejoin:round;marker:none;marker-start:none;marker-mid:none;marker-end:none;stroke-miterlimit:4;stroke-dasharray:none;stroke-dashoffset:0;stroke-opacity:1;visibility:visible;display:inline;overflow:visible;enable-background:accumulate"
         sodipodi:type="arc" />
      <path
         transform="translate(-0.2238806,-0.3358209)"
         d="M 303.63807,87.117538 A 0.78358209,1.0354477 0 1 1 302.07091,87.117538 A 0.78358209,1.0354477 0 1 1 303.63807,87.117538 z"
         sodipodi:ry="1.0354477"
         sodipodi:rx="0.78358209"
         sodipodi:cy="87.117538"
         sodipodi:cx="302.85449"
         id="path7008"
         style="fill:url(#radialGradient7033);fill-opacity:1;fill-rule:evenodd;stroke:none;stroke-width:0;stroke-linecap:round;stroke-linejoin:round;marker:none;marker-start:none;marker-mid:none;marker-end:none;stroke-miterlimit:4;stroke-dasharray:none;stroke-dashoffset:0;stroke-opacity:1;visibility:visible;display:inline;overflow:visible;enable-background:new"
         sodipodi:type="arc" />
      <path
         sodipodi:type="arc"
         style="fill:url(#radialGradient7035);fill-opacity:1;fill-rule:evenodd;stroke:none;stroke-width:0;stroke-linecap:round;stroke-linejoin:round;marker:none;marker-start:none;marker-mid:none;marker-end:none;stroke-miterlimit:4;stroke-dasharray:none;stroke-dashoffset:0;stroke-opacity:1;visibility:visible;display:inline;overflow:visible;enable-background:new"
         id="path7018"
         sodipodi:cx="302.85449"
         sodipodi:cy="87.117538"
         sodipodi:rx="0.78358209"
         sodipodi:ry="1.0354477"
         d="M 303.63807,87.117538 A 0.78358209,1.0354477 0 1 1 302.07091,87.117538 A 0.78358209,1.0354477 0 1 1 303.63807,87.117538 z"
         transform="translate(20.541045,-2.9664179)" />
    </g>
  </g>
</svg>
