<?xml version="1.0" encoding="UTF-8" standalone="no"?>
<!-- Created with Inkscape (http://www.inkscape.org/) -->

<svg
   xmlns:dc="http://purl.org/dc/elements/1.1/"
   xmlns:cc="http://creativecommons.org/ns#"
   xmlns:rdf="http://www.w3.org/1999/02/22-rdf-syntax-ns#"
   xmlns:svg="http://www.w3.org/2000/svg"
   xmlns="http://www.w3.org/2000/svg"
   xmlns:xlink="http://www.w3.org/1999/xlink"
   xmlns:sodipodi="http://sodipodi.sourceforge.net/DTD/sodipodi-0.dtd"
   xmlns:inkscape="http://www.inkscape.org/namespaces/inkscape"
   width="16"
   height="16"
   id="svg2"
   version="1.1"
   inkscape:version="0.48.4 r9939"
   sodipodi:docname="checkbox-checked-insensitive.svg">
  <defs
     id="defs4">
    <radialGradient
       inkscape:collect="always"
       xlink:href="#linearGradient3802"
       id="radialGradient3810"
       cx="8"
       cy="8"
       fx="7.9579105"
       fy="8.8488083"
       r="7"
       gradientUnits="userSpaceOnUse"
       gradientTransform="matrix(1.2857143,-3.0612245e-8,3.0612246e-8,1.2857143,-2.2857145,-2.2857141)" />
    <linearGradient
       id="linearGradient3802">
      <stop
         style="stop-color:#eeeeec;stop-opacity:1;"
         offset="0"
         id="stop3804" />
      <stop
         id="stop3812"
         offset="0.5"
         style="stop-color:#e4e4e1;stop-opacity:1;" />
      <stop
         style="stop-color:#949493;stop-opacity:1;"
         offset="1"
         id="stop3806" />
    </linearGradient>
    <radialGradient
       r="7"
       fy="8.8488083"
       fx="7.9579105"
       cy="8"
       cx="8"
       gradientTransform="matrix(1.2857143,-3.0612245e-8,3.0612246e-8,1.2857143,-2.2857145,-2.2857141)"
       gradientUnits="userSpaceOnUse"
       id="radialGradient3006"
       xlink:href="#linearGradient3802"
       inkscape:collect="always" />
  </defs>
  <sodipodi:namedview
     id="base"
     pagecolor="#ffffff"
     bordercolor="#666666"
     borderopacity="1.0"
     inkscape:pageopacity="0.0"
     inkscape:pageshadow="2"
     inkscape:zoom="15.839192"
     inkscape:cx="6.9291675"
     inkscape:cy="5.4156491"
     inkscape:document-units="px"
     inkscape:current-layer="layer1"
     showgrid="true"
     inkscape:window-width="1366"
     inkscape:window-height="711"
     inkscape:window-x="0"
     inkscape:window-y="25"
     inkscape:window-maximized="1">
    <inkscape:grid
       type="xygrid"
       id="grid3006"
       empspacing="5"
       visible="true"
       enabled="true"
       snapvisiblegridlinesonly="true" />
  </sodipodi:namedview>
  <metadata
     id="metadata7">
    <rdf:RDF>
      <cc:Work
         rdf:about="">
        <dc:format>image/svg+xml</dc:format>
        <dc:type
           rdf:resource="http://purl.org/dc/dcmitype/StillImage" />
        <dc:title />
      </cc:Work>
    </rdf:RDF>
  </metadata>
  <g
     inkscape:label="Ebene 1"
     inkscape:groupmode="layer"
     id="layer1"
     transform="translate(0,-1036.3622)">
    <rect
       style="fill:#f9f9f9;fill-opacity:1;stroke:none"
       id="rect3757"
       width="14"
       height="14"
       x="1"
       y="1"
       transform="translate(0,1036.3622)"
       rx="1"
       ry="1" />
    <path
       style="fill:#ada9a8;fill-opacity:1;stroke:none"
       d="M 2 0 C 0.892 0 3.2526065e-18 0.892 0 2 L 0 14 C 0 15.108 0.892 16 2 16 L 14 16 C 15.108 16 16 15.108 16 14 L 16 2 C 16 0.892 15.108 3.2526065e-18 14 0 L 2 0 z M 2 1 L 14 1 C 14.554 1 15 1.446 15 2 L 15 14 C 15 14.554 14.554 15 14 15 L 2 15 C 1.446 15 1 14.554 1 14 L 1 2 C 1 1.446 1.446 1 2 1 z "
       transform="translate(0,1036.3622)"
       id="rect3752" />
    <path
       style="font-size:medium;font-style:normal;font-variant:normal;font-weight:normal;font-stretch:normal;text-indent:0;text-align:start;text-decoration:none;line-height:normal;letter-spacing:normal;word-spacing:normal;text-transform:none;direction:ltr;block-progression:tb;writing-mode:lr-tb;text-anchor:start;baseline-shift:baseline;color:#000000;fill:#ada9a8;fill-opacity:1;stroke:none;stroke-width:4;marker:none;visibility:visible;display:inline;overflow:visible;enable-background:accumulate;font-family:Sans;-inkscape-font-specification:Sans"
       d="m 11.399409,1038.3644 c -0.530841,0.03 -1.03373,0.3612 -1.265568,0.8345 l -3.0673073,6.6305 -1.696511,-2.7833 c -0.2968622,-0.4552 -0.8612027,-0.725 -1.4061865,-0.6724 -1.0293419,0.107 -1.6657313,1.4754 -1.0780768,2.3183 l 2.8214605,4.4527 c 0.1361756,0.7377 0.9119208,1.2997 1.6639873,1.2056 0.023432,5e-4 0.046878,5e-4 0.07031,0 0.103652,-0.013 0.2059491,-0.036 0.3046739,-0.07 0.5781995,-0.1653 1.0265013,-0.7052 1.0780766,-1.2984 l 3.9813293,-8.462 c 0.474115,-0.9204 -0.363018,-2.2039 -1.406188,-2.156 z"
       id="path3078"
       inkscape:connector-curvature="0"
       sodipodi:nodetypes="cccccccccccccc" />
  </g>
</svg>
