<?xml version="1.0" encoding="UTF-8" standalone="no"?>
<!-- Created with Inkscape (http://www.inkscape.org/) -->

<svg
   xmlns:dc="http://purl.org/dc/elements/1.1/"
   xmlns:cc="http://creativecommons.org/ns#"
   xmlns:rdf="http://www.w3.org/1999/02/22-rdf-syntax-ns#"
   xmlns:svg="http://www.w3.org/2000/svg"
   xmlns="http://www.w3.org/2000/svg"
   xmlns:xlink="http://www.w3.org/1999/xlink"
   xmlns:sodipodi="http://sodipodi.sourceforge.net/DTD/sodipodi-0.dtd"
   xmlns:inkscape="http://www.inkscape.org/namespaces/inkscape"
   width="16"
   height="16"
   id="svg2"
   version="1.1"
   inkscape:version="0.48.4 r9939"
   sodipodi:docname="radio-selected.svg">
  <defs
     id="defs4">
    <linearGradient
       id="linearGradient3802">
      <stop
         style="stop-color:#eeeeec;stop-opacity:1;"
         offset="0"
         id="stop3804" />
      <stop
         id="stop3812"
         offset="0.5"
         style="stop-color:#e4e4e1;stop-opacity:1;" />
      <stop
         style="stop-color:#949493;stop-opacity:1;"
         offset="1"
         id="stop3806" />
    </linearGradient>
    <radialGradient
       inkscape:collect="always"
       xlink:href="#linearGradient3802"
       id="radialGradient3810"
       cx="8"
       cy="8"
       fx="7.9579105"
       fy="8.8488083"
       r="7"
       gradientUnits="userSpaceOnUse"
       gradientTransform="matrix(1.5714285,1.411262e-8,-1.411262e-8,1.5714286,-4.5714281,-4.5714287)" />
    <filter
       inkscape:collect="always"
       id="filter3881">
      <feGaussianBlur
         inkscape:collect="always"
         stdDeviation="0.24"
         id="feGaussianBlur3883" />
    </filter>
  </defs>
  <sodipodi:namedview
     id="base"
     pagecolor="#ffffff"
     bordercolor="#666666"
     borderopacity="1.0"
     inkscape:pageopacity="0.0"
     inkscape:pageshadow="2"
     inkscape:zoom="15.839192"
     inkscape:cx="6.616959"
     inkscape:cy="11.076724"
     inkscape:document-units="px"
     inkscape:current-layer="layer1"
     showgrid="true"
     inkscape:window-width="1280"
     inkscape:window-height="711"
     inkscape:window-x="0"
     inkscape:window-y="25"
     inkscape:window-maximized="1">
    <inkscape:grid
       type="xygrid"
       id="grid3006"
       empspacing="5"
       visible="true"
       enabled="true"
       snapvisiblegridlinesonly="true" />
  </sodipodi:namedview>
  <metadata
     id="metadata7">
    <rdf:RDF>
      <cc:Work
         rdf:about="">
        <dc:format>image/svg+xml</dc:format>
        <dc:type
           rdf:resource="http://purl.org/dc/dcmitype/StillImage" />
        <dc:title></dc:title>
      </cc:Work>
    </rdf:RDF>
  </metadata>
  <g
     inkscape:label="Ebene 1"
     inkscape:groupmode="layer"
     id="layer1"
     transform="translate(0,-1036.3622)">
    <path
       sodipodi:type="arc"
       style="fill:url(#radialGradient3810);fill-opacity:1;stroke:none"
       id="path3800"
       sodipodi:cx="8"
       sodipodi:cy="8"
       sodipodi:rx="7"
       sodipodi:ry="7"
       d="M 15,8 A 7,7 0 1 1 1,8 7,7 0 1 1 15,8 z"
       transform="translate(0,1036.3622)" />
    <path
       style="opacity:1;fill:#ada9a8;fill-opacity:1;stroke:none"
       d="M 8 0 C 3.581722 8.8817842e-16 -2.9901493e-17 3.581722 0 8 C 0 12.418278 3.581722 16 8 16 C 12.418278 16 16 12.418278 16 8 C 16 3.581722 12.418278 -1.8062583e-15 8 0 z M 8 2 C 11.313708 2 14 4.6862915 14 8 C 14 11.313708 11.313708 14 8 14 C 4.6862915 14 2 11.313708 2 8 C 2 4.6862915 4.6862915 2 8 2 z "
       transform="translate(0,1036.3622)"
       id="path3008" />
    <path
       transform="translate(0,1036.6146)"
       sodipodi:type="arc"
       style="fill:#555753;fill-opacity:1;stroke:none;filter:url(#filter3881)"
       id="path3833-0"
       sodipodi:cx="8"
       sodipodi:cy="8"
       sodipodi:rx="3"
       sodipodi:ry="3"
       d="M 11,8 A 3,3 0 1 1 5,8 3,3 0 1 1 11,8 z" />
    <path
       sodipodi:type="arc"
       style="fill:#d64937;fill-opacity:1;stroke:none"
       id="path3833"
       sodipodi:cx="8"
       sodipodi:cy="8"
       sodipodi:rx="3"
       sodipodi:ry="3"
       d="M 11,8 A 3,3 0 1 1 5,8 3,3 0 1 1 11,8 z"
       transform="translate(0,1036.3622)" />
  </g>
</svg>
