<svg xmlns="http://www.w3.org/2000/svg" viewBox="0 0 40 40" xmlns:xlink="http://www.w3.org/1999/xlink">
<g transform="translate(0 -1012.3622)">
<rect width="37.5" x="1.429" y="1013.791" rx="1" height="37.5" style="fill:#f9f9f9"/>
<path style="fill:#aaa" d="m 5,1012.3622 c -2.77,0 -5,2.23 -5,5 l 0,30 c 0,2.77 2.23,5 5,5 l 30,0 c 2.77,0 5,-2.23 5,-5 l 0,-30 c 0,-2.77 -2.23,-5 -5,-5 z m 0,2.0536 30,0 c 1.385,0 3.035714,1.5614 3.035714,2.9464 l 0,30 c 0,1.385 -1.650714,3.0357 -3.035714,3.0357 l -30,0 c -1.385,0 -2.9464286,-1.6507 -2.9464286,-3.0357 l 0,-30 c 0,-1.385 1.5614286,-2.9464 2.9464286,-2.9464 z"/>
</g>
</svg>
