<svg xmlns="http://www.w3.org/2000/svg" viewBox="0 0 16 16">
<g transform="translate(0 -1036.3622)">
<path style="fill:#2a2a2a" d="m 8.0319969,1037.1354 c 4.0385821,0 7.3125001,3.254 7.3125001,7.2678 0,4.0139 -3.273918,7.2679 -7.3125001,7.2679 -4.0385817,0 -7.31249964,-3.254 -7.31249964,-7.2679 0,-4.0138 3.27391794,-7.2678 7.31249964,-7.2678 z"/>
</g>
<g style="fill:#1f1f1f" transform="translate(0 -1036.3622)">
<path d="M 8 0 C 3.581722 8.8817842e-16 -3.006854e-17 3.581722 0 8 C 0 12.418278 3.581722 16 8 16 C 12.418278 16 16 12.418278 16 8 C 16 3.581722 12.418278 -1.8064254e-15 8 0 z M 8 1 C 11.865993 1 15 4.1340068 15 8 C 15 11.865993 11.865993 15 8 15 C 4.1340068 15 1 11.865993 1 8 C 1 4.1340068 4.1340068 1 8 1 z " transform="translate(0 1036.3622)"/>
<path style="opacity:.8" d="M 11,8 C 11,9.6568542 9.6568542,11 8,11 6.3431458,11 5,9.6568542 5,8 5,6.3431458 6.3431458,5 8,5 c 1.6568542,0 3,1.3431458 3,3 z" transform="translate(0 1036.3622)"/>
</g>
</svg>
