<svg xmlns="http://www.w3.org/2000/svg" viewBox="0 0 16 16">
<g transform="translate(0 -1036.3622)">
<path style="fill:#d3d3d3" d="m 7.9368654,1036.9834 c 4.1798076,0 7.5682106,3.3036 7.5682106,7.3788 0,4.0752 -3.388403,7.3788 -7.5682106,7.3788 -4.1798073,0 -7.56821074,-3.3036 -7.56821074,-7.3788 0,-4.0752 3.38840344,-7.3788 7.56821074,-7.3788 z"/>
<path style="fill:#aaa" d="M 8 0 C 3.581722 8.8817842e-16 -3.006854e-17 3.581722 0 8 C 0 12.418278 3.581722 16 8 16 C 12.418278 16 16 12.418278 16 8 C 16 3.581722 12.418278 -1.8064254e-15 8 0 z M 8 1 C 11.865993 1 15 4.1340068 15 8 C 15 11.865993 11.865993 15 8 15 C 4.1340068 15 1 11.865993 1 8 C 1 4.1340068 4.1340068 1 8 1 z " transform="translate(0 1036.3622)"/>
</g>
</svg>
