<?xml version="1.0" encoding="UTF-8" standalone="no"?>
<!-- Created with Inkscape (http://www.inkscape.org/) -->
<svg
   xmlns:dc="http://purl.org/dc/elements/1.1/"
   xmlns:cc="http://creativecommons.org/ns#"
   xmlns:rdf="http://www.w3.org/1999/02/22-rdf-syntax-ns#"
   xmlns:svg="http://www.w3.org/2000/svg"
   xmlns="http://www.w3.org/2000/svg"
   xmlns:xlink="http://www.w3.org/1999/xlink"
   xmlns:sodipodi="http://sodipodi.sourceforge.net/DTD/sodipodi-0.dtd"
   xmlns:inkscape="http://www.inkscape.org/namespaces/inkscape"
   width="48px"
   height="48px"
   id="svg7412"
   sodipodi:version="0.32"
   inkscape:version="0.46"
   sodipodi:docname="drawing-1.svg"
   inkscape:output_extension="org.inkscape.output.svg.inkscape">
  <defs
     id="defs7414">
    <linearGradient
       id="linearGradient3383"
       inkscape:collect="always">
      <stop
         id="stop3385"
         offset="0"
         style="stop-color:#ffffff;stop-opacity:1;" />
      <stop
         id="stop3387"
         offset="1"
         style="stop-color:#ffffff;stop-opacity:0;" />
    </linearGradient>
    <linearGradient
       inkscape:collect="always"
       xlink:href="#linearGradient3383"
       id="linearGradient2531"
       gradientUnits="userSpaceOnUse"
       x1="21.093946"
       y1="3.179117"
       x2="19.564156"
       y2="4.7897139" />
    <linearGradient
       inkscape:collect="always"
       xlink:href="#linearGradient2397"
       id="linearGradient2529"
       gradientUnits="userSpaceOnUse"
       gradientTransform="translate(-4,0.96875)"
       x1="39.5"
       y1="29.53125"
       x2="39.5"
       y2="42.894642" />
    <linearGradient
       id="linearGradient2397"
       inkscape:collect="always">
      <stop
         id="stop2399"
         offset="0"
         style="stop-color:#ffffff;stop-opacity:1;" />
      <stop
         id="stop2401"
         offset="1"
         style="stop-color:#ffffff;stop-opacity:0;" />
    </linearGradient>
    <linearGradient
       inkscape:collect="always"
       xlink:href="#linearGradient2397"
       id="linearGradient2527"
       gradientUnits="userSpaceOnUse"
       x1="33.786095"
       y1="40.792191"
       x2="35.606419"
       y2="43.406342" />
    <linearGradient
       id="linearGradient2508">
      <stop
         id="stop2510"
         offset="0"
         style="stop-color:#ffffff;stop-opacity:0.41825095" />
      <stop
         id="stop2512"
         offset="1"
         style="stop-color:#ffffff;stop-opacity:0;" />
    </linearGradient>
    <radialGradient
       inkscape:collect="always"
       xlink:href="#linearGradient2508"
       id="radialGradient2525"
       gradientUnits="userSpaceOnUse"
       gradientTransform="matrix(1.002655,6.71686e-6,-2.649469e-6,0.319736,-0.121405,28.59478)"
       cx="31.699472"
       cy="38.445015"
       fx="31.699472"
       fy="38.445015"
       r="6.1868596" />
    <linearGradient
       id="linearGradient3396">
      <stop
         id="stop3398"
         offset="0"
         style="stop-color:#3465a4;stop-opacity:1" />
      <stop
         id="stop3400"
         offset="1"
         style="stop-color:#729fcf;stop-opacity:1" />
    </linearGradient>
    <linearGradient
       inkscape:collect="always"
       xlink:href="#linearGradient3396"
       id="linearGradient2523"
       gradientUnits="userSpaceOnUse"
       gradientTransform="translate(-1,0)"
       x1="20.9375"
       y1="8.5007811"
       x2="21.9375"
       y2="-0.6875" />
    <linearGradient
       inkscape:collect="always"
       id="linearGradient3232">
      <stop
         style="stop-color:#000000;stop-opacity:1;"
         offset="0"
         id="stop3234" />
      <stop
         style="stop-color:#000000;stop-opacity:0;"
         offset="1"
         id="stop3236" />
    </linearGradient>
    <radialGradient
       inkscape:collect="always"
       xlink:href="#linearGradient3232"
       id="radialGradient2521"
       gradientUnits="userSpaceOnUse"
       gradientTransform="matrix(1,0,0,0.4166667,0,11.375)"
       cx="10"
       cy="19.5"
       fx="10"
       fy="19.5"
       r="6" />
    <linearGradient
       id="linearGradient7766">
      <stop
         style="stop-color:#ffffff;stop-opacity:1;"
         offset="0"
         id="stop7768" />
      <stop
         id="stop7774"
         offset="0.5"
         style="stop-color:#ffffff;stop-opacity:0.68345326;" />
      <stop
         style="stop-color:#ffffff;stop-opacity:0;"
         offset="1"
         id="stop7770" />
    </linearGradient>
    <linearGradient
       inkscape:collect="always"
       xlink:href="#linearGradient7766"
       id="linearGradient7772"
       x1="36.42997"
       y1="34.741749"
       x2="38.781631"
       y2="34.741749"
       gradientUnits="userSpaceOnUse"
       spreadMethod="reflect"
       gradientTransform="translate(0,-4.071165e-4)" />
    <linearGradient
       inkscape:collect="always"
       id="linearGradient3180">
      <stop
         style="stop-color:#ffffff;stop-opacity:1;"
         offset="0"
         id="stop3182" />
      <stop
         style="stop-color:#ffffff;stop-opacity:0;"
         offset="1"
         id="stop3184" />
    </linearGradient>
    <linearGradient
       inkscape:collect="always"
       xlink:href="#linearGradient3180"
       id="linearGradient3188"
       x1="8.2765388"
       y1="0.51660156"
       x2="29.40625"
       y2="21.766602"
       gradientUnits="userSpaceOnUse"
       gradientTransform="translate(0,-4.071165e-4)" />
    <linearGradient
       inkscape:collect="always"
       id="linearGradient3167">
      <stop
         style="stop-color:#ffffff;stop-opacity:1;"
         offset="0"
         id="stop3169" />
      <stop
         style="stop-color:#ffffff;stop-opacity:0;"
         offset="1"
         id="stop3171" />
    </linearGradient>
    <linearGradient
       inkscape:collect="always"
       xlink:href="#linearGradient3167"
       id="linearGradient3173"
       x1="16.203413"
       y1="5.157197"
       x2="34.000732"
       y2="43.164188"
       gradientUnits="userSpaceOnUse"
       gradientTransform="translate(0,-4.071165e-4)" />
    <linearGradient
       id="linearGradient3153">
      <stop
         style="stop-color:#f45f5f;stop-opacity:1;"
         offset="0"
         id="stop3155" />
      <stop
         style="stop-color:#f12828;stop-opacity:1;"
         offset="1"
         id="stop3157" />
    </linearGradient>
    <linearGradient
       inkscape:collect="always"
       xlink:href="#linearGradient3153"
       id="linearGradient3207"
       gradientUnits="userSpaceOnUse"
       gradientTransform="matrix(1,0,0,-1,20,47.999593)"
       x1="-2.5257576"
       y1="14.941495"
       x2="11.211678"
       y2="40.043785" />
    <filter
       inkscape:collect="always"
       x="-0.17338399"
       width="1.346768"
       y="-0.85115777"
       height="2.7023155"
       id="filter7701">
      <feGaussianBlur
         inkscape:collect="always"
         stdDeviation="3.5110258"
         id="feGaussianBlur7703" />
    </filter>
  </defs>
  <sodipodi:namedview
     id="base"
     pagecolor="#ffffff"
     bordercolor="#666666"
     borderopacity="1.0"
     inkscape:pageopacity="0.0"
     inkscape:pageshadow="2"
     inkscape:zoom="7"
     inkscape:cx="24"
     inkscape:cy="24"
     inkscape:current-layer="layer1"
     showgrid="true"
     inkscape:grid-bbox="true"
     inkscape:document-units="px"
     inkscape:window-width="641"
     inkscape:window-height="690"
     inkscape:window-x="300"
     inkscape:window-y="271" />
  <metadata
     id="metadata7417">
    <rdf:RDF>
      <cc:Work
         rdf:about="">
        <dc:format>image/svg+xml</dc:format>
        <dc:type
           rdf:resource="http://purl.org/dc/dcmitype/StillImage" />
      </cc:Work>
    </rdf:RDF>
  </metadata>
  <g
     id="layer1"
     inkscape:label="Layer 1"
     inkscape:groupmode="layer">
    <path
       sodipodi:type="arc"
       style="opacity:0.35907335;fill:#000000;fill-opacity:1;stroke:none;stroke-width:1;stroke-linecap:butt;stroke-linejoin:round;stroke-miterlimit:4;stroke-dasharray:none;stroke-dashoffset:0;stroke-opacity:1;filter:url(#filter7701)"
       id="path7479"
       sodipodi:cx="25.625"
       sodipodi:cy="48.875"
       sodipodi:rx="20.25"
       sodipodi:ry="4.125"
       d="M 45.875,48.875 A 20.25,4.125 0 1 1 5.375,48.875 A 20.25,4.125 0 1 1 45.875,48.875 z"
       transform="matrix(1,0,0,0.6515152,-2.75,7.2192899)" />
    <path
       style="fill:url(#linearGradient3207);fill-opacity:1;fill-rule:evenodd;stroke:#ce0505;stroke-width:0.99999994px;stroke-linecap:butt;stroke-linejoin:miter;stroke-opacity:0.93725496"
       d="M 23.125,5.9995929 L 3.125,40.499593 C 8.0302846,35.353441 10.228203,27.543999 17.9375,25.187093 C 24.204771,25.190858 31.622266,36.756983 42.446383,40.499593 L 43.1875,40.499593 L 23.125,5.9995929 z"
       id="path2170"
       sodipodi:nodetypes="cccccc" />
    <path
       id="path2172"
       d="M 12.306589,26.631011 L 23.125,7.9370929 L 41.455685,39.499593"
       style="fill:none;fill-rule:evenodd;stroke:url(#linearGradient3173);stroke-width:1;stroke-linecap:butt;stroke-linejoin:miter;stroke-miterlimit:4;stroke-dasharray:none;stroke-opacity:1"
       sodipodi:nodetypes="ccc" />
    <path
       style="opacity:1;fill:#d00909;fill-opacity:0.99903624;stroke:none;stroke-width:1;stroke-linecap:butt;stroke-linejoin:round;stroke-miterlimit:4;stroke-dasharray:none;stroke-dashoffset:0;stroke-opacity:1"
       d="M 17.9375,25.187093 C 17.612364,25.187093 17.310595,25.23259 17,25.280843 L 17,36.999593 C 17.664478,36.982266 18.329578,36.956937 19,36.968343 L 19,25.312093 C 18.641317,25.244183 18.287515,25.187303 17.9375,25.187093 z M 16,25.499593 C 15.302982,25.728038 14.630054,26.091579 14,26.530843 L 14,37.187093 C 14.662965,37.121709 15.331039,37.063723 16,37.030843 L 16,25.499593 z M 20,25.562093 L 20,37.030843 C 20.664621,37.055399 21.32951,37.074981 22,37.124593 L 22,26.499593 C 21.317158,26.111557 20.653516,25.783348 20,25.562093 z M 23,27.124593 L 23,37.218343 C 23.666725,37.279041 24.327447,37.354678 25,37.437093 L 25,28.530843 C 24.321469,28.007639 23.65119,27.549113 23,27.124593 z M 13,27.343343 C 12.305618,27.965074 11.630013,28.700988 11,29.499593 L 11,37.593343 C 11.662756,37.473079 12.331173,37.364479 13,37.280843 L 13,27.343343 z M 26,29.343343 L 26,37.562093 C 26.66544,37.653161 27.328831,37.76517 28,37.874593 L 28,30.999593 C 27.326969,30.427447 26.647648,29.867678 26,29.343343 z M 9.9999996,30.843343 C 9.3067056,31.834469 8.6474426,32.874647 7.9999996,33.937093 L 7.9999996,38.280843 C 8.6574096,38.099959 9.3365376,37.92135 9.9999996,37.780843 L 9.9999996,30.843343 z M 29,31.843343 L 29,38.030843 C 29.663122,38.146703 30.331263,38.274806 31,38.405843 L 31,33.530843 C 30.31442,32.955124 29.660739,32.408444 29,31.843343 z M 32,34.374593 L 32,38.593343 C 32.625861,38.721909 33.244204,38.860032 33.875,38.999593 L 34,38.999593 L 34,35.968343 C 33.322516,35.450012 32.654565,34.911886 32,34.374593 z M 6.9999996,35.593343 C 6.3250996,36.713794 5.6723158,37.815079 5,38.812093 L 5,39.280843 C 5.6702729,39.024941 6.3233516,38.771208 6.9999996,38.562093 L 6.9999996,35.593343 z M 35,36.687093 L 35,39.249593 C 35.662962,39.4017 36.331572,39.556661 37,39.718343 L 37,38.062093 C 36.318439,37.622588 35.659616,37.168449 35,36.687093 z"
       id="rect3210" />
    <path
       style="opacity:1;fill:#f24a4a;fill-opacity:1;stroke:none;stroke-width:1;stroke-linecap:butt;stroke-linejoin:round;stroke-miterlimit:4;stroke-dasharray:none;stroke-dashoffset:0;stroke-opacity:1"
       d="M 17,24.687093 L 17,36.999593 C 17.332158,36.990932 17.666944,37.006665 18,36.999593 L 18,24.593343 L 17,24.687093 z M 20,24.890218 L 20,37.030843 C 20.332068,37.043112 20.667133,37.047941 21,37.062093 L 21,25.296468 L 20,24.890218 z M 14,25.827718 L 14,37.187093 C 14.33108,37.154441 14.666897,37.15135 15,37.124593 L 15,25.233968 L 14,25.827718 z M 23,26.265218 L 23,37.218343 C 23.3328,37.248641 23.667974,37.275366 24,37.312093 L 24,26.921468 L 23,26.265218 z M 12,26.312093 L 11,28.077718 L 11,37.593343 C 11.331378,37.533211 11.666448,37.489731 12,37.437093 L 12,26.312093 z M 26,28.499593 L 26,37.562093 C 26.33272,37.607627 26.667076,37.665279 27,37.718343 L 27,29.343343 L 26,28.499593 z M 29,31.077718 L 29,38.030843 C 29.331561,38.088773 29.666482,38.155455 30,38.218343 L 30,31.921468 L 29,31.077718 z M 8.9999996,31.468343 C 8.6595046,31.996795 8.3313276,32.440264 7.9999996,32.983968 L 7.9999996,38.280843 C 8.3287046,38.190401 8.6651086,38.115669 8.9999996,38.030843 L 8.9999996,31.468343 z M 32,33.562093 L 32,38.593343 C 32.333936,38.661941 32.667311,38.739287 33,38.812093 L 33,34.374593 L 32,33.562093 z M 35,35.890218 L 35,39.249593 C 35.332632,39.325911 35.665261,39.42135 36,39.499593 L 36,36.577718 L 35,35.890218 z M 5.9999996,37.249593 C 5.668402,37.789597 5.3361579,38.313586 5,38.812093 L 5,39.280843 C 5.3334698,39.153528 5.6700221,39.058107 5.9999996,38.937093 L 5.9999996,37.249593 z"
       id="rect3243"
       sodipodi:nodetypes="ccccccccccccccccccccccccccccccccccccccccccccccccccccccc" />
    <path
       style="fill:url(#linearGradient3188);fill-opacity:1;fill-rule:evenodd;stroke:none;stroke-width:1px;stroke-linecap:butt;stroke-linejoin:miter;stroke-opacity:1"
       d="M 23.125,6.9497679 L 8.2765386,32.58262 C 16.348836,28.749401 24.239396,22.941262 29.40625,17.731018 L 23.125,6.9497679 z"
       id="path2174"
       sodipodi:nodetypes="cccc" />
    <path
       style="fill:#fccfcf;fill-opacity:1;fill-rule:evenodd;stroke:none;stroke-width:1px;stroke-linecap:butt;stroke-linejoin:miter;stroke-opacity:1"
       d="M 12.742187,26.86678 C 11.005367,28.221921 10.01237,30.05211 8.7812496,31.765218 C 9.7999006,29.947299 10.828825,28.124243 11.929688,26.265218 L 12.742187,26.86678 z"
       id="path3302"
       sodipodi:nodetypes="cccc" />
    <path
       style="fill:url(#linearGradient7772);fill-opacity:1;fill-rule:nonzero;stroke:none;stroke-width:2.29999995;stroke-linecap:round;stroke-linejoin:round;marker:none;marker-start:none;marker-mid:none;marker-end:none;stroke-miterlimit:4;stroke-dashoffset:0;stroke-opacity:1;visibility:visible;display:inline;overflow:visible"
       d="M 34.129981,26.021579 L 34.085786,35.350546 L 38.737437,38.386616 L 38.781631,33.857048 L 34.129981,26.021579 z"
       id="path2539"
       sodipodi:nodetypes="ccccc" />
    <g
       inkscape:label="Layer 1"
       id="g2465"
       transform="matrix(1,2.5586102e-2,0,1,19,13.236149)">
      <path
         sodipodi:type="arc"
         style="opacity:0.4;fill:url(#radialGradient2521);fill-opacity:1;stroke:none;stroke-width:1;stroke-linecap:round;stroke-linejoin:round;stroke-miterlimit:4;stroke-dasharray:none;stroke-dashoffset:0;stroke-opacity:0.61596961"
         id="path3410"
         sodipodi:cx="10"
         sodipodi:cy="19.5"
         sodipodi:rx="6"
         sodipodi:ry="2.5"
         d="M 16,19.5 A 6,2.5 0 1 1 4,19.5 A 6,2.5 0 1 1 16,19.5 z"
         transform="matrix(1.9393937,0,0,1.6,-6.3939373,-3.2)" />
      <path
         transform="translate(-1,0)"
         d="M 19.5,26.5 A 6.5,3 0 1 1 6.5,26.5 A 6.5,3 0 1 1 19.5,26.5 z"
         sodipodi:ry="3"
         sodipodi:rx="6.5"
         sodipodi:cy="26.5"
         sodipodi:cx="13"
         id="path3404"
         style="opacity:1;fill:none;fill-opacity:0.61596961;stroke:#204a87;stroke-width:1;stroke-linecap:round;stroke-linejoin:miter;stroke-miterlimit:4;stroke-dasharray:none;stroke-dashoffset:0;stroke-opacity:1"
         sodipodi:type="arc" />
      <path
         sodipodi:nodetypes="ccsssccccc"
         id="rect2415"
         d="M 16.5,0.5000004 L 16.5,24.3125 C 15.333004,23.789102 13.748491,23.500001 12,23.5 C 8.41909,23.5 5.500001,24.835511 5.5,26.5 C 5.5,28.16449 8.41909,29.500001 12,29.5 C 15.58091,29.5 18.499999,28.164492 18.5,26.5 L 18.5,7.5 C 21,3.5 20,14 28.5,9.5 C 22.5,10.5 24.5,0.5 18.5,0.5000004 L 16.5,0.5000004 z"
         style="opacity:1;fill:url(#linearGradient2523);fill-opacity:1;fill-rule:nonzero;stroke:#204a87;stroke-width:1;stroke-linecap:round;stroke-linejoin:round;marker:none;marker-start:none;marker-mid:none;marker-end:none;stroke-miterlimit:4;stroke-dashoffset:0;stroke-opacity:1;visibility:visible;display:inline;overflow:visible" />
      <path
         transform="matrix(0.966787,0,0,1.068809,-20.672022,-18.261024)"
         d="M 39.449857,41.87933 A 5.6637621,1.8473293 0 1 1 28.122333,41.87933 A 5.6637621,1.8473293 0 1 1 39.449857,41.87933 z"
         sodipodi:ry="1.8473293"
         sodipodi:rx="5.6637621"
         sodipodi:cy="41.87933"
         sodipodi:cx="33.786095"
         id="path2385"
         style="opacity:0.39999982;fill:url(#radialGradient2525);fill-opacity:1;fill-rule:nonzero;stroke:url(#linearGradient2527);stroke-width:0.98374951;stroke-linecap:square;stroke-linejoin:miter;marker:none;marker-start:none;marker-mid:none;marker-end:none;stroke-miterlimit:4;stroke-dasharray:none;stroke-dashoffset:0;stroke-opacity:1;visibility:visible;display:inline;overflow:visible"
         sodipodi:type="arc" />
      <g
         transform="translate(-1,0)"
         style="opacity:0.30632181"
         id="g3392">
        <path
           transform="translate(-17,-17)"
           sodipodi:nodetypes="cc"
           id="path2387"
           d="M 35.5,42.5 L 35.5,18.5"
           style="opacity:1;fill:none;fill-opacity:1;fill-rule:evenodd;stroke:url(#linearGradient2529);stroke-width:1;stroke-linecap:round;stroke-linejoin:round;stroke-miterlimit:4;stroke-dasharray:none;stroke-opacity:1;display:inline" />
        <path
           style="opacity:1;fill:url(#linearGradient2531);fill-opacity:1;fill-rule:nonzero;stroke:none;stroke-width:1;stroke-linecap:round;stroke-linejoin:miter;marker:none;stroke-miterlimit:4;stroke-dashoffset:0;stroke-opacity:1;visibility:visible;display:inline;overflow:visible"
           d="M 18.03125,1.03125 L 18.03125,1.53125 L 18.03125,7.1875 L 19,7.34375 C 19.011616,7.3046298 19.042183,7.2541413 19.0625,7.21875 C 19.412339,6.6590078 19.645391,6.3612691 20.09375,6.15625 C 20.264087,6.0783608 20.554594,6.046175 20.75,6.09375 C 20.965806,6.1462918 21.107247,6.2167317 21.25,6.375 C 21.802147,6.9871595 22.09273,7.6528021 22.6875,8.375 C 23.66044,9.8014001 25.032684,10.598593 27.375,9.8671875 C 25.510973,9.1543611 24.81217,7.401037 24.03125,5.59375 C 23.529112,4.4011735 23.031857,3.2207992 22.34375,2.375 C 21.679509,1.5585371 20.826025,1.0312499 19.5,1.03125 L 18.53125,1.03125 L 18.03125,1.03125 z M 19.03125,2.03125 L 19.5,2.03125 C 20.604037,2.0312499 21.034943,2.3131319 21.59375,3 C 22.128691,3.6575318 22.590892,4.7744615 23.09375,5.96875 C 23.442202,6.7963228 23.87803,7.6704639 24.40625,8.5 C 24.108352,8.2810671 23.763573,8.1785737 23.5,7.8125 C 23.053146,7.1918702 22.753638,6.3595243 21.9375,5.625 C 21.735465,5.443168 21.429752,5.1983806 21,5.09375 C 20.549848,4.9841526 20.064593,5.0320294 19.65625,5.21875 C 19.357757,5.3552404 19.238923,5.6390709 19.03125,5.84375 L 19.03125,2.03125 z"
           id="path2406"
           sodipodi:nodetypes="ccccsssscccscccccsscsssscc" />
      </g>
    </g>
  </g>
</svg>
