<?xml version="1.0" encoding="UTF-8" standalone="no"?>
<!-- Created with Inkscape (http://www.inkscape.org/) -->
<svg
   xmlns:dc="http://purl.org/dc/elements/1.1/"
   xmlns:cc="http://creativecommons.org/ns#"
   xmlns:rdf="http://www.w3.org/1999/02/22-rdf-syntax-ns#"
   xmlns:svg="http://www.w3.org/2000/svg"
   xmlns="http://www.w3.org/2000/svg"
   xmlns:xlink="http://www.w3.org/1999/xlink"
   xmlns:sodipodi="http://sodipodi.sourceforge.net/DTD/sodipodi-0.dtd"
   xmlns:inkscape="http://www.inkscape.org/namespaces/inkscape"
   width="48px"
   height="48px"
   id="svg7450"
   sodipodi:version="0.32"
   inkscape:version="0.46"
   sodipodi:docname="drawing-2.svg"
   inkscape:output_extension="org.inkscape.output.svg.inkscape">
  <defs
     id="defs7452">
    <linearGradient
       inkscape:collect="always"
       id="linearGradient5974">
      <stop
         style="stop-color:#ad7fa8;stop-opacity:1;"
         offset="0"
         id="stop5976" />
      <stop
         style="stop-color:#dac6d8;stop-opacity:1"
         offset="1"
         id="stop5978" />
    </linearGradient>
    <linearGradient
       inkscape:collect="always"
       xlink:href="#linearGradient5974"
       id="linearGradient5980"
       x1="27.651777"
       y1="23.145937"
       x2="21.59099"
       y2="20.618719"
       gradientUnits="userSpaceOnUse"
       gradientTransform="matrix(0.9768193,0,0,1,-1.3746639,-1.4e-6)" />
    <linearGradient
       inkscape:collect="always"
       id="linearGradient5999">
      <stop
         style="stop-color:#c4a000;stop-opacity:1;"
         offset="0"
         id="stop6001" />
      <stop
         style="stop-color:#c4a000;stop-opacity:0;"
         offset="1"
         id="stop6003" />
    </linearGradient>
    <linearGradient
       inkscape:collect="always"
       xlink:href="#linearGradient5999"
       id="linearGradient6005"
       x1="27.354809"
       y1="36.218422"
       x2="23.489431"
       y2="34.728424"
       gradientUnits="userSpaceOnUse"
       gradientTransform="translate(-2.0000009,-1.4e-6)" />
    <linearGradient
       id="linearGradient5981"
       inkscape:collect="always">
      <stop
         id="stop5983"
         offset="0"
         style="stop-color:#ffffff;stop-opacity:1;" />
      <stop
         id="stop5985"
         offset="1"
         style="stop-color:#ffffff;stop-opacity:0.69411765" />
    </linearGradient>
    <linearGradient
       inkscape:collect="always"
       xlink:href="#linearGradient5981"
       id="linearGradient5973"
       gradientUnits="userSpaceOnUse"
       x1="22.319767"
       y1="41.955986"
       x2="18.985712"
       y2="37.029255"
       gradientTransform="translate(-2.0000009,-1.4e-6)" />
    <linearGradient
       inkscape:collect="always"
       id="linearGradient5987">
      <stop
         style="stop-color:#d7c20f;stop-opacity:1"
         offset="0"
         id="stop5989" />
      <stop
         style="stop-color:#b6970d;stop-opacity:1"
         offset="1"
         id="stop5991" />
    </linearGradient>
    <linearGradient
       inkscape:collect="always"
       xlink:href="#linearGradient5987"
       id="linearGradient5993"
       x1="17.032078"
       y1="27.446827"
       x2="29.494455"
       y2="37.845814"
       gradientUnits="userSpaceOnUse"
       gradientTransform="translate(-2.0000009,-1.4e-6)" />
    <linearGradient
       inkscape:collect="always"
       id="linearGradient5966">
      <stop
         style="stop-color:#fdef72;stop-opacity:1"
         offset="0"
         id="stop5968" />
      <stop
         style="stop-color:#e2cb0b;stop-opacity:1"
         offset="1"
         id="stop5970" />
    </linearGradient>
    <linearGradient
       inkscape:collect="always"
       xlink:href="#linearGradient5966"
       id="linearGradient5972"
       x1="20.933708"
       y1="25.060659"
       x2="30.208115"
       y2="30.742676"
       gradientUnits="userSpaceOnUse"
       gradientTransform="translate(-2.0000009,-1.4e-6)" />
    <linearGradient
       inkscape:collect="always"
       id="linearGradient5984">
      <stop
         style="stop-color:#ffffff;stop-opacity:1;"
         offset="0"
         id="stop5986" />
      <stop
         style="stop-color:#ffffff;stop-opacity:0.13438736"
         offset="1"
         id="stop5988" />
    </linearGradient>
    <linearGradient
       inkscape:collect="always"
       xlink:href="#linearGradient5984"
       id="linearGradient5994"
       gradientUnits="userSpaceOnUse"
       x1="28"
       y1="8"
       x2="33.447109"
       y2="16.685888" />
    <linearGradient
       inkscape:collect="always"
       id="linearGradient5996">
      <stop
         style="stop-color:#8f5902;stop-opacity:1;"
         offset="0"
         id="stop5998" />
      <stop
         style="stop-color:#73521e;stop-opacity:1"
         offset="1"
         id="stop6000" />
    </linearGradient>
    <linearGradient
       inkscape:collect="always"
       xlink:href="#linearGradient5996"
       id="linearGradient6002"
       x1="30.324829"
       y1="9.2407961"
       x2="34"
       y2="18"
       gradientUnits="userSpaceOnUse"
       gradientTransform="translate(-2.0000009,-1.4e-6)" />
    <linearGradient
       inkscape:collect="always"
       id="linearGradient5958">
      <stop
         style="stop-color:#c17d11;stop-opacity:1;"
         offset="0"
         id="stop5960" />
      <stop
         style="stop-color:#e9b96e;stop-opacity:1"
         offset="1"
         id="stop5962" />
    </linearGradient>
    <linearGradient
       inkscape:collect="always"
       xlink:href="#linearGradient5958"
       id="linearGradient5964"
       x1="28"
       y1="16"
       x2="26"
       y2="8"
       gradientUnits="userSpaceOnUse"
       gradientTransform="translate(-2.0000009,-1.4e-6)" />
    <linearGradient
       inkscape:collect="always"
       id="linearGradient6019">
      <stop
         style="stop-color:#000000;stop-opacity:1;"
         offset="0"
         id="stop6021" />
      <stop
         style="stop-color:#000000;stop-opacity:0;"
         offset="1"
         id="stop6023" />
    </linearGradient>
    <radialGradient
       inkscape:collect="always"
       xlink:href="#linearGradient6019"
       id="radialGradient6025"
       cx="38"
       cy="69"
       fx="28.603323"
       fy="69"
       r="20"
       gradientTransform="matrix(1,0,0,0.45,0,37.95)"
       gradientUnits="userSpaceOnUse" />
  </defs>
  <sodipodi:namedview
     id="base"
     pagecolor="#ffffff"
     bordercolor="#666666"
     borderopacity="1.0"
     inkscape:pageopacity="0.0"
     inkscape:pageshadow="2"
     inkscape:zoom="7"
     inkscape:cx="24"
     inkscape:cy="24"
     inkscape:current-layer="layer1"
     showgrid="true"
     inkscape:grid-bbox="true"
     inkscape:document-units="px"
     inkscape:window-width="641"
     inkscape:window-height="690"
     inkscape:window-x="0"
     inkscape:window-y="331" />
  <metadata
     id="metadata7455">
    <rdf:RDF>
      <cc:Work
         rdf:about="">
        <dc:format>image/svg+xml</dc:format>
        <dc:type
           rdf:resource="http://purl.org/dc/dcmitype/StillImage" />
      </cc:Work>
    </rdf:RDF>
  </metadata>
  <g
     id="layer1"
     inkscape:label="Layer 1"
     inkscape:groupmode="layer">
    <path
       sodipodi:type="arc"
       style="opacity:0.25;fill:url(#radialGradient6025);fill-opacity:1;stroke:none;stroke-width:0.99999994;stroke-linecap:round;stroke-linejoin:round;stroke-miterlimit:20;stroke-dasharray:none;stroke-opacity:1"
       id="path6017"
       sodipodi:cx="38"
       sodipodi:cy="69"
       sodipodi:rx="20"
       sodipodi:ry="9"
       d="M 58,69 A 20,9 0 1 1 18,69 A 20,9 0 1 1 58,69 z"
       transform="matrix(1,0,0,0.6666668,-14,-5.0000104)" />
    <path
       style="fill:url(#linearGradient5964);fill-opacity:1;fill-rule:evenodd;stroke:url(#linearGradient6002);stroke-width:1px;stroke-linecap:butt;stroke-linejoin:miter;stroke-opacity:1"
       d="M 34.593749,2.4687486 C 26.390532,2.5743986 25.196949,18.716275 22.843749,21.624999 L 26.843749,23.062499 C 29.475622,18.689952 42.599745,4.1545016 35.406249,2.4999986 C 35.126759,2.4690296 34.858369,2.4653406 34.593749,2.4687486 z M 33.562499,4.5312486 C 33.756062,4.5125096 33.930485,4.5369676 34.093749,4.6249986 C 34.746805,4.9771216 34.817404,6.1198756 34.249999,7.1562486 C 33.682594,8.1926216 32.684303,8.7583716 32.031249,8.4062486 C 31.378196,8.0541256 31.307594,6.9113716 31.874999,5.8749986 C 32.300553,5.0977186 32.981811,4.5874646 33.562499,4.5312486 z"
       id="path5371" />
    <path
       sodipodi:type="inkscape:offset"
       inkscape:radius="-1.0049498"
       inkscape:original="M 36.59375 2.46875 C 28.390533 2.5744003 27.19695 18.716276 24.84375 21.625 L 28.84375 23.0625 C 31.475623 18.689953 44.599746 4.1545034 37.40625 2.5 C 37.12676 2.4690309 36.85837 2.4653419 36.59375 2.46875 z "
       style="opacity:0.26666667;fill:none;fill-opacity:1;fill-rule:evenodd;stroke:url(#linearGradient5994);stroke-width:1px;stroke-linecap:butt;stroke-linejoin:miter;stroke-opacity:1"
       id="path5992"
       d="M 36.59375,3.46875 C 34.872132,3.4909229 33.585825,4.3246243 32.40625,5.75 C 31.226675,7.1753757 30.257916,9.1916354 29.46875,11.34375 C 28.679584,13.495865 28.04471,15.77802 27.46875,17.71875 C 27.068859,19.066206 26.698893,20.125198 26.25,21.0625 L 28.4375,21.84375 C 30.056094,19.348126 33.476298,15.252572 35.96875,11.21875 C 37.294589,9.0729934 38.25245,7.0407089 38.46875,5.65625 C 38.5769,4.9640206 38.513818,4.4833206 38.34375,4.1875 C 38.179059,3.9010309 37.880274,3.6629145 37.21875,3.5 C 37.019255,3.4812162 36.817917,3.4658629 36.59375,3.46875 z"
       transform="translate(-2.0000009,-1.4e-6)" />
    <path
       style="fill:url(#linearGradient5972);fill-opacity:1;fill-rule:evenodd;stroke:url(#linearGradient5993);stroke-width:0.99999994;stroke-linecap:butt;stroke-linejoin:miter;stroke-miterlimit:20;stroke-dasharray:none;stroke-opacity:1"
       d="M 20.499999,16.499999 C 21.209505,18.503006 19.958611,20.23783 19.499999,21.499999 C 14.308432,23.045673 10.713198,31.203725 5.3674161,35.453584 C 6.0352041,36.150982 6.8196431,36.897762 7.4999991,37.499999 L 11.562499,33.968749 L 8.4949431,38.493398 C 10.70418,40.284381 12.999999,41.499999 14.499999,41.999999 L 17.249999,38.343749 L 15.499999,42.499999 C 16.951993,43.088881 20.485285,43.982024 22.499999,43.999999 L 24.503889,40.597502 L 23.99072,44.062499 C 24.820283,44.220858 26.428885,44.436715 27.499999,44.468749 C 30.862185,38.968749 31.499999,29.999999 29.499999,25.999999 C 28.999999,23.999999 30.999999,21.499999 32.499999,20.499999 C 29.999999,18.499999 24.29441,16.196273 20.499999,16.499999 z"
       id="path5367"
       sodipodi:nodetypes="cccccccccccccccc" />
    <path
       style="opacity:0.26666667;fill:#c4a000;fill-rule:evenodd;stroke:none;stroke-width:1px;stroke-linecap:butt;stroke-linejoin:miter;stroke-opacity:1"
       d="M 8.9999991,38.499999 C 13.816494,33.489104 13.465022,31.296073 19.116116,26.972271 C 16.133674,31.800702 15.650277,34.312329 11.999999,40.499999 L 8.9999991,38.499999 z"
       id="path5975"
       sodipodi:nodetypes="cccc" />
    <path
       style="opacity:0.41568627;fill:#c4a000;fill-rule:evenodd;stroke:none;stroke-width:1px;stroke-linecap:butt;stroke-linejoin:miter;stroke-opacity:1"
       d="M 16.149807,42.202451 L 20.495834,32.362304 C 22.160347,29.378577 23.355506,26.392252 25.024807,24.014951 C 23.422853,29.432988 20.134117,36.136744 17.493557,42.639951 L 16.149807,42.202451 z"
       id="path5979"
       sodipodi:nodetypes="ccccc" />
    <path
       style="opacity:0.47843137;fill:none;fill-opacity:1;fill-rule:evenodd;stroke:url(#linearGradient5973);stroke-width:0.99999994px;stroke-linecap:butt;stroke-linejoin:miter;stroke-opacity:1"
       d="M 21.624999,17.499999 C 21.721737,19.415145 20.702056,21.029644 20.406249,21.843749 C 20.302146,22.128458 20.070919,22.348123 19.781249,22.437499 C 14.327851,24.672143 12.151446,31.011537 6.7866101,35.523666 C 6.9882531,35.72352 7.2786411,35.94097 7.4811401,36.131897 L 16.499999,28.499999 L 9.9233841,38.310312 C 11.193417,39.337925 12.645585,40.194856 14.15004,40.799477 L 21.144393,31.499999 L 16.8695,41.911611 C 18.465069,42.437268 19.967803,42.738907 21.814509,42.999999 L 26.433239,35.312499 L 25.062499,43.219316 L 26.937499,43.445311 C 28.370712,40.909817 29.069881,37.778781 29.468749,34.656249 C 29.892694,31.337403 29.463785,28.115071 28.624999,26.437499 C 28.597836,26.37729 28.576894,26.314464 28.562499,26.249999 C 28.215641,24.862568 28.731641,23.504372 29.437499,22.374999 C 29.864392,21.69197 30.367871,21.08422 30.902458,20.573222 C 29.730976,19.790531 28.315761,19.113156 26.531249,18.468749 C 24.769172,17.832443 23.033251,17.518724 21.624999,17.499999 z"
       id="path6014"
       sodipodi:nodetypes="csccccccccccccsssscsc" />
    <path
       style="opacity:0.24705882;fill:url(#linearGradient6005);fill-opacity:1;fill-rule:evenodd;stroke:none;stroke-width:1px;stroke-linecap:butt;stroke-linejoin:miter;stroke-opacity:1"
       d="M 18.968749,42.999999 C 21.146315,37.248128 25.364665,32.931056 26.985662,27.064587 C 27.037205,30.72666 27.235382,37.268313 25.093749,43.781249 C 24.773983,43.783024 24.919822,43.67044 24.623869,43.662696 L 25.424661,37.938179 L 22.143175,43.492563 C 19.952367,43.336239 20.848564,43.525162 18.968749,42.999999 z"
       id="path5977"
       sodipodi:nodetypes="ccccccc" />
    <path
       style="opacity:0.48235294;fill:#c4a000;fill-rule:evenodd;stroke:none;stroke-width:1px;stroke-linecap:butt;stroke-linejoin:miter;stroke-opacity:1"
       d="M 21.003066,22.610446 C 19.751071,23.226825 18.940857,24.137724 18.01996,24.974834 C 19.246447,24.266191 20.398946,23.52584 22.019533,22.986096 L 21.003066,22.610446 z"
       id="path5995"
       sodipodi:nodetypes="cccc" />
    <path
       style="opacity:0.48235294;fill:#c4a000;fill-rule:evenodd;stroke:none;stroke-width:1px;stroke-linecap:butt;stroke-linejoin:miter;stroke-opacity:1"
       d="M 23.008697,23.061048 L 21.992232,25.049786 L 24.972945,23.461536 L 23.008697,23.061048 z"
       id="path5997"
       sodipodi:nodetypes="cccc" />
    <path
       style="opacity:0.48235294;fill:#c4a000;fill-rule:evenodd;stroke:none;stroke-width:1px;stroke-linecap:butt;stroke-linejoin:miter;stroke-opacity:1"
       d="M 22.939804,17.961398 L 22.044611,19.66842 L 23.610338,20.170504 L 22.939804,17.961398 z"
       id="path6007"
       sodipodi:nodetypes="cccc" />
    <path
       style="opacity:0.48235294;fill:#c4a000;fill-rule:evenodd;stroke:none;stroke-width:1px;stroke-linecap:butt;stroke-linejoin:miter;stroke-opacity:1"
       d="M 29.923253,19.885369 L 27.463005,21.720816 L 29.028732,22.2229 L 29.923253,19.885369 z"
       id="path6009"
       sodipodi:nodetypes="cccc" />
    <path
       style="opacity:0.48235294;fill:#c4a000;fill-rule:evenodd;stroke:none;stroke-width:1px;stroke-linecap:butt;stroke-linejoin:miter;stroke-opacity:1"
       d="M 26.012924,17.938565 L 24.499013,20.463179 L 26.06474,20.965263 L 26.012924,17.938565 z"
       id="path6011"
       sodipodi:nodetypes="cccc" />
    <path
       style="opacity:0.2;fill:#000000;fill-opacity:1;fill-rule:evenodd;stroke:none;stroke-width:1px;stroke-linecap:butt;stroke-linejoin:round;stroke-opacity:1"
       d="M 18.967725,22.024698 C 18.400945,19.059214 28.30056,24.177601 30.004547,25.019067 C 29.998065,26.098135 30.004547,27.019067 29.027728,27.019067 C 26.46019,25.626087 22.492473,23.413924 18.967725,22.024698 z"
       id="path6013"
       sodipodi:nodetypes="cccc" />
    <path
       style="fill:url(#linearGradient5980);fill-opacity:1;fill-rule:evenodd;stroke:#5c3566;stroke-width:1px;stroke-linecap:butt;stroke-linejoin:round;stroke-opacity:1"
       d="M 18.650132,21.499999 C 18.161722,20.499999 18.650132,19.499999 19.626952,19.499999 C 23.618392,20.475416 26.951827,21.706231 30.371964,23.499999 C 30.860374,24.499999 30.371964,25.499999 29.395145,25.499999 C 25.861202,23.635579 22.528434,22.425186 18.650132,21.499999 z"
       id="path5373"
       sodipodi:nodetypes="ccccc" />
  </g>
</svg>
