<?xml version="1.0" encoding="UTF-8" standalone="no"?>
<!-- Created with Inkscape (http://www.inkscape.org/) -->
<svg
   xmlns:dc="http://purl.org/dc/elements/1.1/"
   xmlns:cc="http://creativecommons.org/ns#"
   xmlns:rdf="http://www.w3.org/1999/02/22-rdf-syntax-ns#"
   xmlns:svg="http://www.w3.org/2000/svg"
   xmlns="http://www.w3.org/2000/svg"
   xmlns:xlink="http://www.w3.org/1999/xlink"
   xmlns:sodipodi="http://sodipodi.sourceforge.net/DTD/sodipodi-0.dtd"
   xmlns:inkscape="http://www.inkscape.org/namespaces/inkscape"
   width="48px"
   height="48px"
   id="svg7572"
   sodipodi:version="0.32"
   inkscape:version="0.46"
   sodipodi:docname="drawing-2.svg"
   inkscape:output_extension="org.inkscape.output.svg.inkscape">
  <defs
     id="defs7574">
    <linearGradient
       inkscape:collect="always"
       xlink:href="#linearGradient3711"
       id="linearGradient4110"
       gradientUnits="userSpaceOnUse"
       gradientTransform="matrix(1,0,0,1.0454545,-1.0367424e-6,-0.659091)"
       x1="5.5"
       y1="12.625"
       x2="13.5"
       y2="37" />
    <linearGradient
       inkscape:collect="always"
       xlink:href="#linearGradient3711"
       id="linearGradient3717"
       x1="10.000001"
       y1="12.75"
       x2="19.999999"
       y2="12.75"
       gradientUnits="userSpaceOnUse"
       gradientTransform="matrix(0.7777777,0,0,0.8110756,-1.6666666,-1.2789127)" />
    <linearGradient
       id="linearGradient3689">
      <stop
         style="stop-color:#4e9a06;stop-opacity:1;"
         offset="0"
         id="stop3691" />
      <stop
         style="stop-color:#2e5b03;stop-opacity:1;"
         offset="1"
         id="stop3693" />
    </linearGradient>
    <linearGradient
       inkscape:collect="always"
       xlink:href="#linearGradient3689"
       id="linearGradient3695"
       x1="6.1932435"
       y1="3.3344855"
       x2="7.500001"
       y2="7.267767"
       gradientUnits="userSpaceOnUse"
       gradientTransform="matrix(2.2499993,0,0,2.2811505,-6.8749968,-3.4840278)" />
    <linearGradient
       id="linearGradient3697">
      <stop
         style="stop-color:#73d216;stop-opacity:1;"
         offset="0"
         id="stop3699" />
      <stop
         style="stop-color:#adf06b;stop-opacity:1;"
         offset="1"
         id="stop3701" />
    </linearGradient>
    <linearGradient
       inkscape:collect="always"
       xlink:href="#linearGradient3697"
       id="linearGradient3703"
       x1="7.500001"
       y1="7.267767"
       x2="6.1932435"
       y2="3.3344855"
       gradientUnits="userSpaceOnUse"
       gradientTransform="matrix(2.2499993,0,0,2.2811505,-6.8749968,-3.4840278)" />
    <linearGradient
       inkscape:collect="always"
       xlink:href="#linearGradient3936"
       id="linearGradient4108"
       gradientUnits="userSpaceOnUse"
       x1="13.069444"
       y1="41.908779"
       x2="5.9831495"
       y2="17.715658" />
    <linearGradient
       inkscape:collect="always"
       xlink:href="#linearGradient3928"
       id="linearGradient4106"
       gradientUnits="userSpaceOnUse"
       x1="13.069444"
       y1="41.908779"
       x2="5.9831495"
       y2="17.715658" />
    <linearGradient
       inkscape:collect="always"
       xlink:href="#linearGradient3711"
       id="linearGradient3956"
       x1="2"
       y1="24"
       x2="46.0625"
       y2="24"
       gradientUnits="userSpaceOnUse"
       gradientTransform="matrix(1.0263312,0,0,1.1439261,1.553139,-2.3672991)" />
    <linearGradient
       id="linearGradient3936">
      <stop
         style="stop-color:#1f2325;stop-opacity:1;"
         offset="0"
         id="stop3938" />
      <stop
         style="stop-color:#3a4244;stop-opacity:1;"
         offset="1"
         id="stop3940" />
    </linearGradient>
    <linearGradient
       inkscape:collect="always"
       xlink:href="#linearGradient3936"
       id="linearGradient3924"
       x1="20.9375"
       y1="45.5"
       x2="6.5"
       y2="8"
       gradientUnits="userSpaceOnUse"
       gradientTransform="matrix(1.0263312,0,0,1.137931,1.553139,-2.1724132)" />
    <linearGradient
       id="linearGradient3928">
      <stop
         style="stop-color:#61635f;stop-opacity:1;"
         offset="0"
         id="stop3930" />
      <stop
         style="stop-color:#999b96;stop-opacity:1;"
         offset="1"
         id="stop3932" />
    </linearGradient>
    <linearGradient
       inkscape:collect="always"
       xlink:href="#linearGradient3928"
       id="linearGradient3916"
       x1="20.9375"
       y1="45.5"
       x2="6.5"
       y2="8"
       gradientUnits="userSpaceOnUse"
       gradientTransform="matrix(1.0263312,0,0,1.137931,1.553139,-2.1724132)" />
    <radialGradient
       inkscape:collect="always"
       xlink:href="#linearGradient3704"
       id="radialGradient3710"
       cx="1.75"
       cy="32.5"
       fx="1.75"
       fy="32.5"
       r="16.75"
       gradientTransform="matrix(1,0,0,0.2835821,0,23.283582)"
       gradientUnits="userSpaceOnUse" />
    <radialGradient
       inkscape:collect="always"
       xlink:href="#linearGradient3704"
       id="radialGradient3714"
       gradientUnits="userSpaceOnUse"
       gradientTransform="matrix(1,0,0,0.2835821,0,23.283582)"
       cx="1.75"
       cy="32.5"
       fx="1.75"
       fy="32.5"
       r="16.75" />
    <linearGradient
       id="linearGradient3711">
      <stop
         style="stop-color:#ffffff;stop-opacity:0.93814433;"
         offset="0"
         id="stop3713" />
      <stop
         style="stop-color:#ffffff;stop-opacity:0.62886596;"
         offset="1"
         id="stop3715" />
    </linearGradient>
    <linearGradient
       inkscape:collect="always"
       xlink:href="#linearGradient3711"
       id="linearGradient4101"
       gradientUnits="userSpaceOnUse"
       gradientTransform="matrix(0.8364915,0,0,0.9520619,-0.707727,1.8482466)"
       x1="21.5"
       y1="26.5"
       x2="38.5"
       y2="26.5" />
    <linearGradient
       id="linearGradient4001">
      <stop
         style="stop-color:#ce5c00;stop-opacity:1;"
         offset="0"
         id="stop4003" />
      <stop
         style="stop-color:#ed6a00;stop-opacity:1;"
         offset="1"
         id="stop4005" />
    </linearGradient>
    <linearGradient
       inkscape:collect="always"
       xlink:href="#linearGradient4001"
       id="linearGradient4099"
       gradientUnits="userSpaceOnUse"
       gradientTransform="matrix(0.7583496,0,0,0.8232527,4.309122,5.532482)"
       x1="28.549463"
       y1="31.5"
       x2="22.856943"
       y2="11.664844" />
    <linearGradient
       id="linearGradient4009">
      <stop
         style="stop-color:#f57900;stop-opacity:1;"
         offset="0"
         id="stop4011" />
      <stop
         style="stop-color:#ffc286;stop-opacity:1;"
         offset="1"
         id="stop4013" />
    </linearGradient>
    <linearGradient
       inkscape:collect="always"
       xlink:href="#linearGradient4009"
       id="linearGradient4097"
       gradientUnits="userSpaceOnUse"
       gradientTransform="matrix(0.7583496,0,0,0.8232527,4.309122,5.532482)"
       x1="28.549463"
       y1="31.5"
       x2="22.856943"
       y2="11.664844" />
    <linearGradient
       inkscape:collect="always"
       id="linearGradient3704">
      <stop
         style="stop-color:#000000;stop-opacity:1;"
         offset="0"
         id="stop3706" />
      <stop
         style="stop-color:#000000;stop-opacity:0;"
         offset="1"
         id="stop3708" />
    </linearGradient>
    <radialGradient
       inkscape:collect="always"
       xlink:href="#linearGradient3704"
       id="radialGradient3718"
       gradientUnits="userSpaceOnUse"
       gradientTransform="matrix(1,0,0,0.2835821,0,23.283582)"
       cx="1.75"
       cy="32.5"
       fx="1.75"
       fy="32.5"
       r="16.75" />
  </defs>
  <sodipodi:namedview
     id="base"
     pagecolor="#ffffff"
     bordercolor="#666666"
     borderopacity="1.0"
     inkscape:pageopacity="0.0"
     inkscape:pageshadow="2"
     inkscape:zoom="7"
     inkscape:cx="24"
     inkscape:cy="24"
     inkscape:current-layer="layer1"
     showgrid="true"
     inkscape:grid-bbox="true"
     inkscape:document-units="px"
     inkscape:window-width="641"
     inkscape:window-height="690"
     inkscape:window-x="0"
     inkscape:window-y="25" />
  <metadata
     id="metadata7577">
    <rdf:RDF>
      <cc:Work
         rdf:about="">
        <dc:format>image/svg+xml</dc:format>
        <dc:type
           rdf:resource="http://purl.org/dc/dcmitype/StillImage" />
      </cc:Work>
    </rdf:RDF>
  </metadata>
  <g
     id="layer1"
     inkscape:label="Layer 1"
     inkscape:groupmode="layer">
    <path
       sodipodi:type="arc"
       style="opacity:0.32386361;fill:url(#radialGradient3718);fill-opacity:1;stroke:none;stroke-width:1;stroke-linecap:butt;stroke-linejoin:miter;stroke-miterlimit:4;stroke-dasharray:none;stroke-opacity:1"
       id="path3716"
       sodipodi:cx="1.75"
       sodipodi:cy="32.5"
       sodipodi:rx="16.75"
       sodipodi:ry="4.75"
       d="M 18.5,32.5 A 16.75,4.75 0 1 1 -15,32.5 A 16.75,4.75 0 1 1 18.5,32.5 z"
       transform="matrix(0.5970149,0,0,0.4210524,23.866835,18.343524)" />
    <path
       style="fill:url(#linearGradient4097);fill-opacity:1;stroke:url(#linearGradient4099);stroke-width:1;stroke-linecap:butt;stroke-linejoin:miter;stroke-miterlimit:4;stroke-dasharray:none;stroke-opacity:1"
       d="M 25.279651,14.527729 L 16.741878,31.495337 L 34.224111,31.52773 L 25.279651,14.527729 z M 25.11175,20.963688 L 29.227978,28.779873 L 21.265519,28.747482 L 25.11175,20.963688 z"
       id="path3977"
       sodipodi:nodetypes="cccccccc"
       inkscape:export-xdpi="90"
       inkscape:export-ydpi="90" />
    <path
       style="opacity:0.54255317;fill:none;fill-opacity:1;stroke:url(#linearGradient4101);stroke-width:0.99999988;stroke-linecap:butt;stroke-linejoin:miter;stroke-miterlimit:4;stroke-dasharray:none;stroke-opacity:1"
       d="M 25.319529,16.902726 L 18.411611,30.556643 L 32.491878,30.469609 L 25.319529,16.902726 z M 25.086737,18.733137 L 30.955402,29.729914 L 19.681081,29.629449 L 25.086737,18.733137 z"
       id="path4017"
       sodipodi:nodetypes="cccccccc"
       inkscape:export-filename="/home/mark/Projects/Tango Icons/dia/path3977.png"
       inkscape:export-xdpi="90"
       inkscape:export-ydpi="90" />
    <path
       sodipodi:type="arc"
       style="opacity:0.17613639;fill:url(#radialGradient3714);fill-opacity:1;stroke:none;stroke-width:1;stroke-linecap:butt;stroke-linejoin:miter;stroke-miterlimit:4;stroke-dasharray:none;stroke-opacity:1"
       id="path3712"
       sodipodi:cx="1.75"
       sodipodi:cy="32.5"
       sodipodi:rx="16.75"
       sodipodi:ry="4.75"
       d="M 18.5,32.5 A 16.75,4.75 0 1 1 -15,32.5 A 16.75,4.75 0 1 1 18.5,32.5 z"
       transform="matrix(0.5970149,0,0,1,10.955223,10.75)" />
    <path
       sodipodi:type="arc"
       style="opacity:0.3125;fill:url(#radialGradient3710);fill-opacity:1;stroke:none;stroke-width:1;stroke-linecap:butt;stroke-linejoin:miter;stroke-miterlimit:4;stroke-dasharray:none;stroke-opacity:1"
       id="path2733"
       sodipodi:cx="1.75"
       sodipodi:cy="32.5"
       sodipodi:rx="16.75"
       sodipodi:ry="4.75"
       d="M 18.5,32.5 A 16.75,4.75 0 1 1 -15,32.5 A 16.75,4.75 0 1 1 18.5,32.5 z"
       transform="matrix(1.1940298,0,0,0.736842,17.910447,15.552634)" />
    <path
       style="fill:url(#linearGradient3916);fill-opacity:1;stroke:url(#linearGradient3924);stroke-width:0.99999988;stroke-linecap:butt;stroke-linejoin:miter;stroke-miterlimit:4;stroke-dasharray:none;stroke-opacity:1"
       d="M 3.09118,7.5 C 3.09118,7.5 3.09118,9.499999 3.09118,9.499999 L 3.09118,11.5 C 3.09118,11.5 3.086728,11.5 26.223756,11.5 C 31.043968,11.513215 35.371816,13.026877 38.416943,15.343749 C 41.475467,17.670818 43.212721,20.706979 43.212721,23.999999 C 43.212721,27.29302 41.475467,30.329182 38.416943,32.65625 C 35.358418,34.983317 31.006831,36.5 26.161065,36.5 C 14.592551,36.5 8.804354,36.5 5.912226,36.5 C 4.466161,36.5 3.7348,36.5 3.373284,36.5 C 3.192526,36.5 3.105025,36.5 3.059835,36.5 C 3.03724,36.5 3.034139,36.5 3.02849,36.5 C 3.02849,36.5 3.02849,38.5 3.02849,38.5 L 3.02849,40.499999 C 3.02849,40.499999 3.024037,40.499999 26.161065,40.499999 C 31.835173,40.499999 37.021476,38.765684 40.861848,35.84375 C 44.702223,32.921816 47.224875,28.710978 47.224875,23.999999 C 47.224875,19.289022 44.702223,15.078182 40.861848,12.15625 C 37.035776,9.245197 31.8731,7.512861 26.223756,7.5 C 14.655241,7.5 8.867044,7.5 5.974916,7.5 C 4.528851,7.5 3.828835,7.5 3.467319,7.5 C 3.286561,7.5 3.167715,7.5 3.122525,7.5 C 3.09993,7.5 3.096829,7.5 3.09118,7.5 z"
       id="path3812" />
    <path
       style="opacity:0.375;fill:none;fill-opacity:1;stroke:url(#linearGradient3956);stroke-width:0.99999976;stroke-linecap:butt;stroke-linejoin:miter;stroke-miterlimit:4;stroke-dasharray:none;stroke-opacity:1"
       d="M 4.133547,8.499999 L 4.081335,10.498384 C 4.081335,10.498384 4.177205,10.550217 27.314233,10.550217 C 32.134444,10.563503 37.229259,12.962896 40.148877,15.509136 C 43.303619,18.26371 44.342822,21.474054 44.171016,25.033605 C 44.027162,27.987842 41.254211,32.018269 39.314983,33.302829 C 36.71126,35.027556 32.036262,37.369995 27.307906,37.36173 C 18.97332,37.347161 9.958976,37.496533 7.066848,37.496533 C 5.620783,37.496533 4.985641,37.496533 4.624126,37.496533 C 4.443367,37.496533 4.139373,37.500439 4.094184,37.500439 C 4.071589,37.500439 4.068488,37.500439 4.062839,37.500439 L 4.054821,39.499996 C 4.054821,39.499996 4.307274,39.576653 27.443979,39.457499 C 31.711993,39.435402 36.342443,38.000027 40.182815,35.062701 C 44.02319,32.125371 46.198544,28.392818 46.26269,24.943936 C 46.350752,20.209155 44.419496,16.433451 41.150504,13.658992 C 37.842209,10.851174 32.899432,8.544178 27.250088,8.531249 C 15.681573,8.531249 9.95752,8.499999 7.065392,8.499999 C 5.619327,8.499999 4.919312,8.499999 4.557796,8.499999 C 4.377037,8.499999 4.258191,8.499999 4.213001,8.499999 C 4.190407,8.499999 4.139196,8.499999 4.133547,8.499999 z"
       id="path3944"
       sodipodi:nodetypes="cccsssssssccsssscsssc" />
    <g
       id="g3896"
       transform="matrix(1,0,0,1.0959383,1.999999,-1.4317217)">
      <path
         sodipodi:nodetypes="cccccccc"
         id="rect3719"
         d="M 7.4999995,13.500004 L 12.5,13.500004 L 12.5,37.499998 L 14.034233,37.499998 L 10.0625,42.562498 L 5.9684802,37.492741 L 7.4999995,37.499998 L 7.4999995,13.500004 z"
         style="fill:url(#linearGradient4106);fill-opacity:1;stroke:url(#linearGradient4108);stroke-width:0.95522773;stroke-linecap:butt;stroke-linejoin:miter;stroke-miterlimit:4;stroke-opacity:1" />
      <rect
         y="4.4999995"
         x="5.5000019"
         height="9.1246014"
         width="8.9999981"
         id="rect2694"
         style="opacity:1;fill:url(#linearGradient3703);fill-opacity:1;stroke:url(#linearGradient3695);stroke-width:0.95522803;stroke-linecap:butt;stroke-linejoin:miter;stroke-miterlimit:4;stroke-dasharray:none;stroke-opacity:1" />
      <path
         id="rect3705"
         d="M 6.5000005,5.4124604 L 13.499999,5.4124604 L 13.499999,12.712142 L 6.5000005,12.712142 L 6.5000005,5.4124604 z"
         style="opacity:0.53409095;fill:none;fill-opacity:1;stroke:url(#linearGradient3717);stroke-width:0.95522803;stroke-linecap:butt;stroke-linejoin:miter;stroke-miterlimit:4;stroke-opacity:1" />
      <path
         sodipodi:nodetypes="cccccccc"
         id="rect3721"
         d="M 8.5,14.499999 L 11.5,14.499999 L 11.5,38.499997 L 11.984375,38.499997 L 10.0625,40.953122 L 8.046875,38.499997 L 8.5,38.499997 L 8.5,14.499999 z"
         style="opacity:0.375;fill:none;fill-opacity:1;stroke:url(#linearGradient4110);stroke-width:0.95522761;stroke-linecap:butt;stroke-linejoin:miter;stroke-miterlimit:4;stroke-opacity:1" />
    </g>
  </g>
</svg>
