<?xml version="1.0" encoding="UTF-8" standalone="no"?>
<!-- Created with Inkscape (http://www.inkscape.org/) -->
<svg
   xmlns:dc="http://purl.org/dc/elements/1.1/"
   xmlns:cc="http://creativecommons.org/ns#"
   xmlns:rdf="http://www.w3.org/1999/02/22-rdf-syntax-ns#"
   xmlns:svg="http://www.w3.org/2000/svg"
   xmlns="http://www.w3.org/2000/svg"
   xmlns:xlink="http://www.w3.org/1999/xlink"
   xmlns:sodipodi="http://sodipodi.sourceforge.net/DTD/sodipodi-0.dtd"
   xmlns:inkscape="http://www.inkscape.org/namespaces/inkscape"
   version="1.0"
   width="48"
   height="48"
   id="svg2"
   sodipodi:version="0.32"
   inkscape:version="0.46+devel"
   sodipodi:docname="gnome-session-reboot.svg"
   inkscape:output_extension="org.inkscape.output.svg.inkscape"
   inkscape:export-filename="/home/kynan/Desktop/refresh16.png"
   inkscape:export-xdpi="29.274244"
   inkscape:export-ydpi="29.274244">
  <metadata
     id="metadata50">
    <rdf:RDF>
      <cc:Work
         rdf:about="">
        <dc:format>image/svg+xml</dc:format>
        <dc:type
           rdf:resource="http://purl.org/dc/dcmitype/StillImage" />
      </cc:Work>
    </rdf:RDF>
  </metadata>
  <sodipodi:namedview
     inkscape:window-height="792"
     inkscape:window-width="1440"
     inkscape:pageshadow="2"
     inkscape:pageopacity="0.0"
     guidetolerance="10.0"
     gridtolerance="10.0"
     objecttolerance="10.0"
     borderopacity="1.0"
     bordercolor="#666666"
     pagecolor="#ffffff"
     id="base"
     showgrid="true"
     inkscape:zoom="8.2937732"
     inkscape:cx="7.6013527"
     inkscape:cy="28.381486"
     inkscape:window-x="2"
     inkscape:window-y="232"
     inkscape:current-layer="svg2"
     showguides="true"
     inkscape:guide-bbox="true"
     inkscape:snap-global="false">
    <inkscape:grid
       type="xygrid"
       id="grid3339"
       empspacing="5"
       visible="true"
       enabled="true" />
    <sodipodi:guide
       orientation="0,1"
       position="32.835817,12.260126"
       id="guide3386" />
    <sodipodi:guide
       orientation="0,1"
       position="-4.1003065,44.078295"
       id="guide3535" />
    <sodipodi:guide
       orientation="0,1"
       position="-1.2813458,3.0752299"
       id="guide3537" />
    <sodipodi:guide
       orientation="0,1"
       position="34.381659,18.07036"
       id="guide3314" />
  </sodipodi:namedview>
  <defs
     id="defs4">
    <linearGradient
       inkscape:collect="always"
       id="linearGradient3276">
      <stop
         style="stop-color:#3465a4;stop-opacity:1"
         offset="0"
         id="stop3278" />
      <stop
         style="stop-color:#3465a4;stop-opacity:0"
         offset="1"
         id="stop3280" />
    </linearGradient>
    <linearGradient
       id="linearGradient3266">
      <stop
         style="stop-color:#204a87;stop-opacity:1"
         offset="0"
         id="stop3268" />
      <stop
         style="stop-color:#204a87;stop-opacity:0"
         offset="1"
         id="stop3270" />
    </linearGradient>
    <linearGradient
       id="linearGradient3319">
      <stop
         style="stop-color:#ffffff;stop-opacity:0;"
         offset="0"
         id="stop3321" />
      <stop
         id="stop3323"
         offset="0.57424062"
         style="stop-color:#ffffff;stop-opacity:0.14383562;" />
      <stop
         style="stop-color:#ffffff;stop-opacity:0;"
         offset="1"
         id="stop3325" />
    </linearGradient>
    <linearGradient
       id="linearGradient3533">
      <stop
         id="stop3535"
         style="stop-color:#729fcf;stop-opacity:1"
         offset="0" />
      <stop
         id="stop3545"
         style="stop-color:#3465a4;stop-opacity:1"
         offset="1" />
    </linearGradient>
    <linearGradient
       inkscape:collect="always"
       id="linearGradient8838">
      <stop
         style="stop-color:#000000;stop-opacity:1;"
         offset="0"
         id="stop8840" />
      <stop
         style="stop-color:#000000;stop-opacity:0;"
         offset="1"
         id="stop8842" />
    </linearGradient>
    <linearGradient
       id="linearGradient4873"
       inkscape:collect="always">
      <stop
         id="stop4875"
         offset="0"
         style="stop-color:#ffffff;stop-opacity:1;" />
      <stop
         id="stop4877"
         offset="1"
         style="stop-color:#ffffff;stop-opacity:0;" />
    </linearGradient>
    <radialGradient
       inkscape:collect="always"
       xlink:href="#linearGradient8838"
       id="radialGradient3533"
       gradientUnits="userSpaceOnUse"
       gradientTransform="matrix(1,0,0,0.341176,0,3.047059)"
       cx="62.625"
       cy="4.625"
       fx="62.625"
       fy="4.625"
       r="10.625" />
    <linearGradient
       inkscape:collect="always"
       xlink:href="#linearGradient4873"
       id="linearGradient3567"
       gradientUnits="userSpaceOnUse"
       gradientTransform="matrix(0.9543659,0,0,0.9543659,0.4933039,1.8951137)"
       x1="21.628975"
       y1="2.1102102"
       x2="22.245434"
       y2="43.366352" />
    <linearGradient
       inkscape:collect="always"
       xlink:href="#linearGradient3533"
       id="linearGradient3573"
       gradientUnits="userSpaceOnUse"
       gradientTransform="matrix(0.9543659,0,0,0.9543659,0.4933039,1.8951137)"
       x1="24.663708"
       y1="1.1526506"
       x2="36.277157"
       y2="31.443766" />
    <linearGradient
       inkscape:collect="always"
       xlink:href="#linearGradient3319"
       id="linearGradient3317"
       gradientUnits="userSpaceOnUse"
       gradientTransform="matrix(0.9543659,0,0,0.9543659,0.4933039,1.8951137)"
       x1="24.668951"
       y1="42.95816"
       x2="39.686337"
       y2="28.50532" />
    <linearGradient
       inkscape:collect="always"
       xlink:href="#linearGradient3266"
       id="linearGradient3272"
       x1="33.686768"
       y1="35.773647"
       x2="37.039948"
       y2="29.856804"
       gradientUnits="userSpaceOnUse"
       gradientTransform="translate(0,-0.999521)" />
    <linearGradient
       inkscape:collect="always"
       xlink:href="#linearGradient3276"
       id="linearGradient3282"
       x1="31.226292"
       y1="34.600941"
       x2="34.96563"
       y2="26.842505"
       gradientUnits="userSpaceOnUse"
       gradientTransform="translate(0,-0.999521)" />
  </defs>
  <g
     transform="translate(-1.5907386,-1.0136892)"
     id="layer2"
     style="display:inline" />
  <g
     id="g2630"
     inkscape:label="sdf"
     style="display:inline"
     transform="translate(-70.604705,-2.1799939)" />
  <g
     inkscape:groupmode="layer"
     id="layer4"
     inkscape:label="jjj" />
  <path
     transform="matrix(2.149872,0,0,2.5636643,-110.63573,26.84977)"
     d="M 73.25,4.625 A 10.625,3.625 0 1 1 52,4.625 A 10.625,3.625 0 1 1 73.25,4.625 z"
     sodipodi:ry="3.625"
     sodipodi:rx="10.625"
     sodipodi:cy="4.625"
     sodipodi:cx="62.625"
     id="path8836"
     style="opacity:0.56043958;fill:url(#radialGradient3533);fill-opacity:1;fill-rule:evenodd;stroke:none;stroke-width:0.99999988;stroke-linecap:butt;stroke-linejoin:round;marker:none;marker-start:none;marker-mid:none;marker-end:none;stroke-miterlimit:4;stroke-dasharray:none;stroke-dashoffset:0;stroke-opacity:1;visibility:visible;display:inline;overflow:visible"
     sodipodi:type="arc" />
  <g
     transform="matrix(0.9248169,0,0,0.9248169,-221.70753,13.0581)"
     inkscape:label="Shadow"
     id="layer6" />
  <g
     transform="matrix(0.9248169,0,0,0.9248169,-221.70753,13.0581)"
     id="g2161"
     inkscape:label="Base"
     style="display:inline" />
  <g
     transform="matrix(0.9248169,0,0,0.9248169,-270.77652,-10.260991)"
     inkscape:label="shadiw"
     id="layer5" />
  <g
     transform="matrix(0.9248169,0,0,0.9248169,-236.49197,13.317533)"
     inkscape:label="Shadow"
     id="g2482" />
  <g
     transform="matrix(0.9248169,0,0,0.9248169,-236.49197,13.317533)"
     id="g2484"
     inkscape:label="Base"
     style="display:inline" />
  <g
     transform="matrix(0.9248169,0,0,0.9248169,-285.56096,-10.001558)"
     inkscape:label="shadiw"
     id="g2486" />
  <g
     transform="matrix(0.9248169,0,0,0.9248169,-220.44778,16.571925)"
     inkscape:label="Shadow"
     id="g2309" />
  <g
     transform="matrix(0.9248169,0,0,0.9248169,-220.44778,16.571925)"
     id="g2311"
     inkscape:label="Base"
     style="display:inline" />
  <g
     transform="matrix(0.9248169,0,0,0.9248169,-269.51677,-6.7471662)"
     inkscape:label="shadiw"
     id="g2313" />
  <g
     transform="matrix(0.9248169,0,0,0.9248169,-335.99732,22.698689)"
     inkscape:label="Shadow"
     id="g2511" />
  <g
     transform="matrix(0.9248169,0,0,0.9248169,-335.99732,22.698689)"
     id="g2513"
     inkscape:label="Base"
     style="display:inline" />
  <g
     transform="matrix(0.9248169,0,0,0.9248169,-385.06631,-0.6204021)"
     inkscape:label="shadiw"
     id="g2515" />
  <g
     transform="matrix(0.9248169,0,0,0.9248169,-278.60865,-29.839987)"
     inkscape:label="Shadow"
     id="g2802" />
  <g
     transform="matrix(0.9248169,0,0,0.9248169,-278.60865,-29.839987)"
     id="g2170"
     inkscape:label="Base"
     style="display:inline" />
  <g
     transform="matrix(0.9248169,0,0,0.9248169,-397.47554,-3.4577368)"
     id="g5398"
     inkscape:label="Layer 1" />
  <g
     transform="matrix(0.9248169,0,0,0.9248169,-397.47554,-3.4577368)"
     inkscape:label="shadiw"
     id="g2806" />
  <g
     transform="matrix(0.9248169,0,0,0.9248169,-397.47554,-3.4577368)"
     inkscape:label="white"
     id="g2558" />
  <g
     inkscape:label="Layer 1"
     id="g3678"
     style="display:inline"
     transform="matrix(0.9248169,0,0,0.9248169,-470.53387,-11.184438)" />
  <g
     id="g3680"
     inkscape:label="bottom"
     transform="matrix(0.9248169,0,0,0.9248169,-470.53387,-11.184438)" />
  <g
     id="g4299"
     inkscape:label="back"
     style="display:inline"
     transform="matrix(0.9248169,0,0,0.9248169,-470.53387,-11.184438)" />
  <g
     transform="matrix(0.9248169,0,0,0.9248169,-325.77755,-2.9465341)"
     inkscape:label="shadiw"
     id="g3698" />
  <g
     transform="matrix(0.9248169,0,0,0.9248169,-170.10432,1.9182516)"
     inkscape:label="shadiw"
     id="g3760" />
  <g
     id="g5431"
     inkscape:label="Shadow"
     transform="matrix(0.9248169,0,0,0.9248169,-497.66484,-35.271408)" />
  <g
     style="display:inline"
     inkscape:label="Base"
     id="g4258"
     transform="matrix(0.9248169,0,0,0.9248169,-497.66484,-35.271408)" />
  <g
     id="g5440"
     inkscape:label="new"
     transform="matrix(0.9248169,0,0,0.9248169,-497.66484,-35.271408)" />
  <g
     inkscape:label="Layer 1"
     id="g3928"
     style="display:inline"
     transform="matrix(0.9248169,0,0,0.9248169,-468.59127,-22.101001)" />
  <g
     id="g3930"
     inkscape:label="bottom"
     transform="matrix(0.9248169,0,0,0.9248169,-468.59127,-22.101001)" />
  <g
     id="g3932"
     inkscape:label="back"
     style="display:inline"
     transform="matrix(0.9248169,0,0,0.9248169,-468.59127,-22.101001)" />
  <g
     transform="matrix(0.9248169,0,0,0.9248169,-323.83495,-13.863096)"
     inkscape:label="shadiw"
     id="g3934" />
  <g
     transform="matrix(0.9248169,0,0,0.9248169,-168.16172,-8.9983112)"
     inkscape:label="shadiw"
     id="g3936" />
  <g
     id="g3961"
     inkscape:label="Shadow"
     transform="matrix(0.9248169,0,0,0.9248169,-495.72225,-46.187971)" />
  <g
     style="display:inline"
     inkscape:label="Base"
     id="g3963"
     transform="matrix(0.9248169,0,0,0.9248169,-495.72225,-46.187971)" />
  <g
     id="layer7"
     inkscape:label="new"
     transform="matrix(0.9248169,0,0,0.9248169,-495.72225,-46.187971)" />
  <g
     transform="matrix(0.9248169,0,0,0.9248169,-535.8485,3.0487265)"
     inkscape:label="Shadow"
     id="g2561" />
  <g
     transform="matrix(0.9248169,0,0,0.9248169,-535.8485,3.0487265)"
     id="g2860"
     inkscape:label="Base"
     style="display:inline" />
  <g
     transform="matrix(0.9248169,0,0,0.9248169,-584.91749,-20.270364)"
     inkscape:label="shadiw"
     id="g2564" />
  <g
     transform="matrix(0.9248169,0,0,0.9248169,-271.28964,-4.822798)"
     inkscape:label="Shadow"
     id="g2790" />
  <g
     transform="matrix(0.9248169,0,0,0.9248169,-271.28964,-4.822798)"
     id="g2792"
     inkscape:label="Base"
     style="display:inline" />
  <g
     transform="matrix(0.9248169,0,0,0.9248169,-390.15653,21.559457)"
     id="g2794"
     inkscape:label="Layer 1" />
  <g
     transform="matrix(0.9248169,0,0,0.9248169,-390.15653,21.559457)"
     inkscape:label="shadiw"
     id="g2796" />
  <g
     transform="matrix(0.9248169,0,0,0.9248169,-390.15653,21.559457)"
     inkscape:label="white"
     id="g2798" />
  <g
     inkscape:label="Layer 1"
     id="g2886"
     style="display:inline"
     transform="matrix(0.9248169,0,0,0.9248169,-463.21486,13.832751)" />
  <g
     id="g2888"
     inkscape:label="bottom"
     transform="matrix(0.9248169,0,0,0.9248169,-463.21486,13.832751)" />
  <g
     id="g2804"
     inkscape:label="back"
     style="display:inline"
     transform="matrix(0.9248169,0,0,0.9248169,-463.21486,13.832751)" />
  <g
     transform="matrix(0.9248169,0,0,0.9248169,-318.45854,22.070659)"
     inkscape:label="shadiw"
     id="g2891" />
  <g
     transform="matrix(0.9248169,0,0,0.9248169,-162.78531,26.935445)"
     inkscape:label="shadiw"
     id="g2808" />
  <g
     id="g2810"
     inkscape:label="Shadow"
     transform="matrix(0.9248169,0,0,0.9248169,-490.34583,-10.254218)" />
  <g
     style="display:inline"
     inkscape:label="Base"
     id="g2812"
     transform="matrix(0.9248169,0,0,0.9248169,-490.34583,-10.254218)" />
  <g
     id="g2814"
     inkscape:label="new"
     transform="matrix(0.9248169,0,0,0.9248169,-490.34583,-10.254218)" />
  <g
     inkscape:label="Layer 1"
     id="g2816"
     style="display:inline"
     transform="matrix(0.9248169,0,0,0.9248169,-461.27226,2.9161882)" />
  <g
     id="g2818"
     inkscape:label="bottom"
     transform="matrix(0.9248169,0,0,0.9248169,-461.27226,2.9161882)" />
  <g
     id="g2820"
     inkscape:label="back"
     style="display:inline"
     transform="matrix(0.9248169,0,0,0.9248169,-461.27226,2.9161882)" />
  <g
     transform="matrix(0.9248169,0,0,0.9248169,-316.51594,11.154093)"
     inkscape:label="shadiw"
     id="g2823" />
  <g
     transform="matrix(0.9248169,0,0,0.9248169,-160.84271,16.018879)"
     inkscape:label="shadiw"
     id="g2825" />
  <g
     id="g2827"
     inkscape:label="Shadow"
     transform="matrix(0.9248169,0,0,0.9248169,-488.40324,-21.170781)" />
  <g
     style="display:inline"
     inkscape:label="Base"
     id="g2829"
     transform="matrix(0.9248169,0,0,0.9248169,-488.40324,-21.170781)" />
  <g
     id="g2831"
     inkscape:label="new"
     transform="matrix(0.9248169,0,0,0.9248169,-488.40324,-21.170781)" />
  <path
     id="path3372"
     style="fill:url(#linearGradient3573);fill-opacity:1;stroke:#204a87;stroke-width:1;stroke-linecap:butt;stroke-linejoin:round;stroke-miterlimit:4;stroke-dasharray:none;stroke-opacity:1"
     d="M 24,32.500479 C 19.105048,32.446603 15.446796,28.373743 15.500913,23.500479 C 15.555032,18.627217 19.605045,14.4466 24.5,14.500479 C 26.86391,14.526497 28.93898,15.01027 30.636756,16.648064 L 26.5,21.500479 L 42.5,21.500479 C 42.5,21.500479 42.5,5.500479 42.5,5.500479 L 38.028897,9.110009 C 34.320671,5.4660151 30.034152,3.5566304 24.561278,3.4963916 C 13.427719,3.3738464 4.5481647,12.443375 4.4250734,23.527601 C 4.3019822,34.611826 13.160807,43.281456 24.294366,43.404"
     sodipodi:nodetypes="csscccccssc" />
  <path
     id="path3453"
     style="fill:url(#linearGradient3282);fill-opacity:1;stroke:url(#linearGradient3272);stroke-width:1;stroke-linecap:butt;stroke-linejoin:miter;stroke-miterlimit:4;stroke-dasharray:none;stroke-opacity:1"
     d="M 23.864113,43.402143 C 33.174232,43.504616 43.592929,36.31105 43.576174,23.876363 L 33.717043,23.799619 C 33.535535,28.872085 28.170421,32.689367 23.75,32.500479"
     sodipodi:nodetypes="cccc" />
  <path
     id="path3370"
     style="opacity:0.4;fill:none;fill-opacity:1;stroke:url(#linearGradient3567);stroke-width:1.19299996;stroke-linecap:butt;stroke-linejoin:miter;stroke-miterlimit:4;stroke-dasharray:none;stroke-opacity:1"
     d="M 24.25,33.650479 C 18.826845,33.571193 14.505704,29.782019 14.5,23.500479 C 14.495132,18.104098 19.172169,13.281345 24.595325,13.360631 C 27.2684,13.399711 30.308203,14.250668 32.321989,16.527482 L 28.995956,20.360613 L 41.379428,20.380905 C 41.379428,20.380905 41.379428,7.9168399 41.379428,7.9168399 L 38.0018,10.791566 C 34.459778,6.840666 30.020785,4.6907677 24.480382,4.6353261 C 13.882595,4.5292766 5.6738667,13.036629 5.5919732,23.634383 C 5.8510448,35.490122 14.984754,42.25314 24.294516,42.455875"
     sodipodi:nodetypes="csscccccscc" />
  <path
     id="path2557"
     style="fill:none;fill-opacity:1;stroke:url(#linearGradient3317);stroke-width:1.1929574;stroke-linecap:butt;stroke-linejoin:round;stroke-miterlimit:4;stroke-dasharray:none;stroke-opacity:1"
     d="M 23.719077,42.296437 C 31.671631,42.296437 42.517994,36.762098 42.618184,23.907665 L 34.561298,23.701374 C 34.568534,28.917281 29.814825,33.426437 24.251575,33.591384"
     sodipodi:nodetypes="cccc" />
</svg>
