<?xml version="1.0" encoding="UTF-8" standalone="no"?>
<!-- Created with Inkscape (http://www.inkscape.org/) -->
<svg
   xmlns:dc="http://purl.org/dc/elements/1.1/"
   xmlns:cc="http://creativecommons.org/ns#"
   xmlns:rdf="http://www.w3.org/1999/02/22-rdf-syntax-ns#"
   xmlns:svg="http://www.w3.org/2000/svg"
   xmlns="http://www.w3.org/2000/svg"
   xmlns:xlink="http://www.w3.org/1999/xlink"
   xmlns:sodipodi="http://sodipodi.sourceforge.net/DTD/sodipodi-0.dtd"
   xmlns:inkscape="http://www.inkscape.org/namespaces/inkscape"
   width="48px"
   height="48px"
   id="svg7190"
   sodipodi:version="0.32"
   inkscape:version="0.46"
   sodipodi:docname="jokosher.svg"
   inkscape:output_extension="org.inkscape.output.svg.inkscape">
  <defs
     id="defs7192">
    <linearGradient
       inkscape:collect="always"
       id="linearGradient4634">
      <stop
         style="stop-color:white;stop-opacity:1;"
         offset="0"
         id="stop4636" />
      <stop
         style="stop-color:#ffffff;stop-opacity:0"
         offset="1"
         id="stop4638" />
    </linearGradient>
    <linearGradient
       inkscape:collect="always"
       xlink:href="#linearGradient4634"
       id="linearGradient4632"
       x1="-31.498053"
       y1="20.319887"
       x2="-21.652958"
       y2="51.949764"
       gradientUnits="userSpaceOnUse"
       gradientTransform="translate(55.000017,-4)" />
    <linearGradient
       id="linearGradient5187">
      <stop
         style="stop-color:white;stop-opacity:1;"
         offset="0"
         id="stop5189" />
      <stop
         style="stop-color:white;stop-opacity:0;"
         offset="1"
         id="stop5191" />
    </linearGradient>
    <radialGradient
       inkscape:collect="always"
       xlink:href="#linearGradient5187"
       id="radialGradient4730"
       cx="24.47097"
       cy="23.209499"
       fx="24.47097"
       fy="23.209499"
       r="14.529029"
       gradientTransform="matrix(1.755038,-4.819274e-7,4.958731e-7,1.744065,-19.476494,-17.10629)"
       gradientUnits="userSpaceOnUse" />
    <linearGradient
       inkscape:collect="always"
       id="linearGradient4722">
      <stop
         style="stop-color:#ce5c00"
         offset="0"
         id="stop4724" />
      <stop
         style="stop-color:#f57900"
         offset="1"
         id="stop4726" />
    </linearGradient>
    <radialGradient
       inkscape:collect="always"
       xlink:href="#linearGradient4722"
       id="radialGradient4728"
       cx="21.561487"
       cy="27.062336"
       fx="21.561487"
       fy="27.062336"
       r="13.4375"
       gradientTransform="matrix(1.082854,0,0,1.337337,-3.0299051,-8.053339)"
       gradientUnits="userSpaceOnUse" />
    <linearGradient
       inkscape:collect="always"
       id="linearGradient4618">
      <stop
         style="stop-color:#fcaf3e"
         offset="0"
         id="stop4620" />
      <stop
         style="stop-color:#f57900"
         offset="1"
         id="stop4622" />
    </linearGradient>
    <radialGradient
       inkscape:collect="always"
       xlink:href="#linearGradient4618"
       id="radialGradient4624"
       cx="-33.659405"
       cy="24.68786"
       fx="-33.659405"
       fy="24.68786"
       r="16.499999"
       gradientTransform="matrix(1.031962,-3.295622e-2,3.183737e-2,0.996928,56.476987,-5.771993)"
       gradientUnits="userSpaceOnUse" />
    <linearGradient
       inkscape:collect="always"
       id="linearGradient5283">
      <stop
         style="stop-color:black;stop-opacity:1;"
         offset="0"
         id="stop5285" />
      <stop
         style="stop-color:black;stop-opacity:0;"
         offset="1"
         id="stop5287" />
    </linearGradient>
    <radialGradient
       inkscape:collect="always"
       xlink:href="#linearGradient5283"
       id="radialGradient5289"
       cx="-33.3125"
       cy="7.875"
       fx="-33.3125"
       fy="7.875"
       r="21.0625"
       gradientTransform="matrix(1,0,0,0.195846,0,6.332715)"
       gradientUnits="userSpaceOnUse" />
  </defs>
  <sodipodi:namedview
     id="base"
     pagecolor="#ffffff"
     bordercolor="#666666"
     borderopacity="1.0"
     inkscape:pageopacity="0.0"
     inkscape:pageshadow="2"
     inkscape:zoom="7"
     inkscape:cx="24"
     inkscape:cy="1.1428571"
     inkscape:current-layer="layer1"
     showgrid="true"
     inkscape:grid-bbox="true"
     inkscape:document-units="px"
     inkscape:window-width="641"
     inkscape:window-height="688"
     inkscape:window-x="0"
     inkscape:window-y="25" />
  <metadata
     id="metadata7195">
    <rdf:RDF>
      <cc:Work
         rdf:about="">
        <dc:format>image/svg+xml</dc:format>
        <dc:type
           rdf:resource="http://purl.org/dc/dcmitype/StillImage" />
      </cc:Work>
    </rdf:RDF>
  </metadata>
  <g
     id="layer1"
     inkscape:label="Layer 1"
     inkscape:groupmode="layer">
    <path
       sodipodi:type="arc"
       style="opacity:0.70481926;fill:url(#radialGradient5289);fill-opacity:1;stroke:none;stroke-opacity:1"
       id="path5271"
       sodipodi:cx="-33.3125"
       sodipodi:cy="7.875"
       sodipodi:rx="21.0625"
       sodipodi:ry="4.125"
       d="M -12.25,7.875 A 21.0625,4.125 0 1 1 -54.375,7.875 A 21.0625,4.125 0 1 1 -12.25,7.875 z"
       transform="matrix(0.869437,0,0,1,52.275637,33.375)" />
    <path
       style="fill:url(#radialGradient4624);fill-opacity:1;stroke:#ce5c00;stroke-width:1;stroke-miterlimit:4;stroke-dasharray:none"
       d="M 9.4687679,4.441942 C 8.3728029,4.441942 7.5000179,4.883252 7.5000179,5.975 L 7.5000179,27.7 C 7.5000179,36.4216 14.668018,43.499999 23.500018,43.5 C 32.332018,43.5 39.500017,36.4216 39.500017,27.7 L 39.500017,5.975 C 39.500017,4.883252 38.627233,4.353554 37.531268,4.353554 C 37.531268,4.353554 30.455589,6.523643 23.439964,6.523643 C 16.424339,6.523643 9.4687679,4.441942 9.4687679,4.441942 z"
       id="path1985"
       sodipodi:nodetypes="ccssscczc" />
    <path
       style="opacity:0.71098268;fill:url(#radialGradient4728);fill-opacity:1;fill-rule:evenodd;stroke:none;stroke-width:1px;stroke-linecap:butt;stroke-linejoin:miter;stroke-opacity:1"
       d="M 9.0935389,5.807097 L 8.9491659,8.681348 C 12.212053,14.038648 16.386981,20.931066 20.792882,28.274236 L 13.957366,6.955549 C 12.471922,6.651191 10.551514,6.171591 9.0935389,5.807097 z M 20.792882,28.274236 L 29.692588,7.530815 C 28.027976,7.768882 26.184998,7.99389 24.312157,8.038403 C 23.318066,13.835343 22.112049,20.858351 20.792882,28.274236 z M 20.792882,28.274236 L 38.050867,22.72461 L 38.050867,17.817928 C 33.085694,20.837141 27.118536,24.478844 20.792882,28.274236 z M 20.792882,28.274236 L 36.054355,34.805199 C 36.714464,33.690463 37.239727,32.497882 37.577119,31.218245 C 32.532794,30.348217 26.783576,29.339886 20.792882,28.274236 z M 20.792882,28.274236 L 25.158137,41.84375 C 26.31428,41.713212 27.450569,41.447781 28.508217,41.065449 C 26.127611,37.138107 23.504388,32.793412 20.792882,28.274236 z M 20.792882,28.274236 L 15.852361,39.77956 C 16.703817,40.301351 17.602924,40.758107 18.559496,41.099288 C 19.256229,37.086682 19.996771,32.749684 20.792882,28.274236 z M 20.792882,28.274236 L 9.6259509,31.86119 C 9.9019829,32.736223 10.242607,33.570852 10.674965,34.36529 C 13.866437,32.434512 17.277848,30.383257 20.792882,28.274236 z M 20.792882,28.274236 L 8.9491659,23.198358 L 8.9491659,26.176207 C 12.688177,26.826523 16.675111,27.541751 20.792882,28.274236 z"
       id="path4642"
       sodipodi:nodetypes="ccccccccccccccccccccccccccccccccc" />
    <path
       style="opacity:0.41618497;fill:url(#radialGradient4730);fill-opacity:1;fill-rule:evenodd;stroke:none;stroke-width:1px;stroke-linecap:butt;stroke-linejoin:miter;stroke-opacity:1"
       d="M 38.000017,13.9375 C 35.642297,19.930137 30.850191,22.871439 24.863353,22.288704 C 18.361705,21.333477 13.211279,22.927184 8.9419589,27.4468 C 8.9419589,35.473392 15.450964,41.999999 23.470988,42 C 31.491012,42 38.000017,35.473391 38.000017,27.4468 L 38.000017,13.9375 z"
       id="path5258"
       sodipodi:nodetypes="cssssc" />
    <path
       style="opacity:0.79190776;fill:none;stroke:url(#linearGradient4632);stroke-width:1.00000012;stroke-opacity:1"
       d="M 10.345717,5.664089 C 8.5130269,4.953597 8.5000169,5.380027 8.5000169,7.350001 L 8.5000169,27.700011 C 8.5000169,35.869615 15.220017,42.500018 23.500017,42.500019 C 31.780017,42.500019 38.500017,35.869615 38.500017,27.700011 L 38.500017,7.350001 C 38.500017,5.929522 38.676467,4.755445 36.654317,5.664089 C 36.654317,5.664089 30.053427,7.529359 23.476277,7.529359 C 16.899127,7.529359 10.345717,5.664089 10.345717,5.664089 z"
       id="path5240"
       sodipodi:nodetypes="ccssscczc" />
    <path
       sodipodi:nodetypes="cccsccccscc"
       id="path4640"
       d="M 28.203359,11.13582 L 33.894879,9.937177 L 33.894879,28.746951 C 33.89487,31.176973 33.145858,32.992955 31.647837,34.194904 C 30.15966,35.396846 27.902764,35.997819 24.877145,35.997824 L 23.724057,35.997824 L 23.724057,32.196015 L 24.611047,32.196015 C 25.793701,32.196013 26.685618,31.904236 27.286802,31.320684 C 27.897837,30.73713 28.203355,29.87922 28.203359,28.746951 L 28.203359,11.13582"
       style="font-size:25.18540382px;font-style:normal;font-variant:normal;font-weight:bold;font-stretch:normal;text-align:start;line-height:125%;writing-mode:lr-tb;text-anchor:start;fill:#ffffff;fill-opacity:1;stroke:none;stroke-width:1px;stroke-linecap:butt;stroke-linejoin:miter;stroke-opacity:1;font-family:Bitstream Vera Sans" />
  </g>
</svg>
