<?xml version="1.0" encoding="UTF-8" standalone="no"?>
<!-- Created with Inkscape (http://www.inkscape.org/) -->
<svg
   xmlns:dc="http://purl.org/dc/elements/1.1/"
   xmlns:cc="http://creativecommons.org/ns#"
   xmlns:rdf="http://www.w3.org/1999/02/22-rdf-syntax-ns#"
   xmlns:svg="http://www.w3.org/2000/svg"
   xmlns="http://www.w3.org/2000/svg"
   xmlns:xlink="http://www.w3.org/1999/xlink"
   xmlns:sodipodi="http://sodipodi.sourceforge.net/DTD/sodipodi-0.dtd"
   xmlns:inkscape="http://www.inkscape.org/namespaces/inkscape"
   width="48px"
   height="48px"
   id="svg7192"
   sodipodi:version="0.32"
   inkscape:version="0.46"
   sodipodi:docname="drawing.svg"
   inkscape:output_extension="org.inkscape.output.svg.inkscape">
  <defs
     id="defs7194">
    <linearGradient
       id="linearGradient3230">
      <stop
         id="stop3232"
         style="stop-color:#ffffff;stop-opacity:1"
         offset="0" />
      <stop
         id="stop3234"
         style="stop-color:#ffffff;stop-opacity:0"
         offset="1" />
    </linearGradient>
    <linearGradient
       inkscape:collect="always"
       xlink:href="#linearGradient3230"
       id="linearGradient2408"
       gradientUnits="userSpaceOnUse"
       gradientTransform="translate(-6.5960464e-7,1.0000008)"
       x1="26.153599"
       y1="4.9999995"
       x2="26.153599"
       y2="44.233311" />
    <linearGradient
       id="linearGradient3202">
      <stop
         id="stop3204"
         style="stop-color:#ffffff;stop-opacity:1"
         offset="0" />
      <stop
         id="stop3206"
         style="stop-color:#d3eefc;stop-opacity:1"
         offset="1" />
    </linearGradient>
    <linearGradient
       inkscape:collect="always"
       xlink:href="#linearGradient3202"
       id="linearGradient2411"
       gradientUnits="userSpaceOnUse"
       gradientTransform="matrix(1.0395395,0,0,0.9504295,2.4213247,1.5862561)"
       x1="22.885227"
       y1="17.628952"
       x2="22.885227"
       y2="30.889549" />
    <linearGradient
       id="linearGradient2490">
      <stop
         id="stop2492"
         style="stop-color:#791235;stop-opacity:1"
         offset="0" />
      <stop
         id="stop2494"
         style="stop-color:#dd3b27;stop-opacity:1"
         offset="1" />
    </linearGradient>
    <linearGradient
       inkscape:collect="always"
       xlink:href="#linearGradient2490"
       id="linearGradient2417"
       gradientUnits="userSpaceOnUse"
       gradientTransform="translate(51.417218,1.3502827)"
       x1="-23.916132"
       y1="43.707703"
       x2="-23.916132"
       y2="4.6497173" />
    <linearGradient
       id="linearGradient3242">
      <stop
         id="stop3244"
         style="stop-color:#f8b17e;stop-opacity:1"
         offset="0" />
      <stop
         id="stop3246"
         style="stop-color:#e35d4f;stop-opacity:1"
         offset="0.26238" />
      <stop
         id="stop3248"
         style="stop-color:#c6262e;stop-opacity:1"
         offset="0.66093999" />
      <stop
         id="stop3250"
         style="stop-color:#690b54;stop-opacity:1"
         offset="1" />
    </linearGradient>
    <radialGradient
       inkscape:collect="always"
       xlink:href="#linearGradient3242"
       id="radialGradient2415"
       gradientUnits="userSpaceOnUse"
       gradientTransform="matrix(0,1.6958206,-1.7757718,0,30.273357,-47.575098)"
       cx="32.806725"
       cy="3.5327499"
       fx="32.806725"
       fy="3.5327499"
       r="23" />
    <linearGradient
       id="linearGradient8838">
      <stop
         id="stop8840"
         style="stop-color:#000000;stop-opacity:1"
         offset="0" />
      <stop
         id="stop8842"
         style="stop-color:#000000;stop-opacity:0"
         offset="1" />
    </linearGradient>
    <radialGradient
       inkscape:collect="always"
       xlink:href="#linearGradient8838"
       id="radialGradient2420"
       gradientUnits="userSpaceOnUse"
       gradientTransform="matrix(2.1647059,0,0,0.8470576,-111.5647,35.082354)"
       cx="62.625"
       cy="4.625"
       fx="62.625"
       fy="4.625"
       r="10.625" />
  </defs>
  <sodipodi:namedview
     id="base"
     pagecolor="#ffffff"
     bordercolor="#666666"
     borderopacity="1.0"
     inkscape:pageopacity="0.0"
     inkscape:pageshadow="2"
     inkscape:zoom="7"
     inkscape:cx="24"
     inkscape:cy="24"
     inkscape:current-layer="layer1"
     showgrid="true"
     inkscape:grid-bbox="true"
     inkscape:document-units="px"
     inkscape:window-width="641"
     inkscape:window-height="690"
     inkscape:window-x="476"
     inkscape:window-y="179" />
  <metadata
     id="metadata7197">
    <rdf:RDF>
      <cc:Work
         rdf:about="">
        <dc:format>image/svg+xml</dc:format>
        <dc:type
           rdf:resource="http://purl.org/dc/dcmitype/StillImage" />
      </cc:Work>
    </rdf:RDF>
  </metadata>
  <g
     id="layer1"
     inkscape:label="Layer 1"
     inkscape:groupmode="layer">
    <path
       style="opacity:0.3;fill:url(#radialGradient2420);fill-opacity:1;fill-rule:evenodd;stroke:none;stroke-width:0.99999988;stroke-linecap:butt;stroke-linejoin:round;marker:none;marker-start:none;marker-mid:none;marker-end:none;stroke-miterlimit:4;stroke-dasharray:none;stroke-dashoffset:0;stroke-opacity:1;visibility:visible;display:inline;overflow:visible"
       id="path8836"
       d="M 47.000006,39.000001 C 47.000006,43.970563 36.702554,48 24.000006,48 C 11.297458,48 1.0000061,43.970563 1.0000061,39.000001 C 1.0000061,34.029438 11.297458,30.000001 24.000006,30.000001 C 36.702554,30.000001 47.000006,34.029438 47.000006,39.000001 L 47.000006,39.000001 z" />
    <path
       style="fill:url(#radialGradient2415);fill-opacity:1;fill-rule:evenodd;stroke:url(#linearGradient2417);stroke-width:0.99999988px;stroke-linecap:butt;stroke-linejoin:miter;stroke-opacity:1"
       id="path2421"
       d="M 1.4999999,31.761227 C 1.4999999,31.761227 10.115607,15.64773 22.458893,9.2294419 C 29.653278,5.4884908 41.244892,4.5285562 46.430129,13.320439 C 46.430129,13.320439 48.176873,36.419952 34.202923,42.922756 C 34.202923,42.922756 19.743768,50.687299 1.4999999,31.761227 z" />
    <path
       style="font-size:26.70637703px;font-style:normal;font-variant:normal;font-weight:bold;font-stretch:normal;text-align:start;line-height:125%;writing-mode:lr-tb;text-anchor:start;fill:#a1ceef;fill-opacity:1;stroke:none;stroke-width:1px;stroke-linecap:butt;stroke-linejoin:miter;stroke-opacity:1;font-family:URW Gothic L;-inkscape-font-specification:URW Gothic L Book"
       id="path2438"
       d="M 15.999999,31 C 17.225377,31 19.774621,31 20.999999,31 C 21.020027,28.30956 20.91651,25.617421 20.999999,22.92824 C 20.999999,21.493794 21.209447,20.2112 22.896798,20.2112 C 24.832643,20.2112 24.986482,21.181017 24.986482,23.028271 C 24.986482,24.716507 24.986482,29.311764 24.986482,31 C 26.211859,31 28.774622,31.000001 29.999999,31.000001 C 30.014373,28.354295 29.941185,25.707606 29.999999,23.062616 C 30.008936,21.790436 29.886673,20.2112 31.992421,20.2112 C 33.886859,20.2112 33.999063,21.457714 33.999063,23.083966 C 33.999063,24.753636 33.999062,29.330329 33.999063,31.000001 C 35.224439,31.000001 37.774621,31.000001 38.999999,31.000001 C 38.985775,28.048127 39.02968,25.095219 38.975705,22.144049 C 38.898842,20.359714 38.212818,18.388222 36.387724,17.484422 C 35.343605,17.141611 35.045062,17.0118 33.742744,17.0118 C 31.060736,17.0118 20.652643,17.000001 15.999999,17.000001 C 15.999999,21.666667 15.999999,26.333335 15.999999,31 z" />
    <path
       style="font-size:26.70637703px;font-style:normal;font-variant:normal;font-weight:bold;font-stretch:normal;text-align:start;line-height:125%;writing-mode:lr-tb;text-anchor:start;fill:url(#linearGradient2411);fill-opacity:1;stroke:none;stroke-width:1px;stroke-linecap:butt;stroke-linejoin:miter;stroke-opacity:1;font-family:URW Gothic L;-inkscape-font-specification:URW Gothic L Book"
       id="text3190"
       d="M 15.999999,32 C 17.225377,32 19.774621,32 20.999999,32 C 21.020027,29.30956 20.91651,26.617421 20.999999,23.92824 C 20.999999,22.493794 21.209447,21.2112 22.896798,21.2112 C 24.832643,21.2112 24.986482,22.181017 24.986482,24.028271 C 24.986482,25.716507 24.986482,30.311764 24.986482,32 C 26.211859,32 28.774622,32.000001 29.999999,32.000001 C 30.014373,29.354295 29.941185,26.707606 29.999999,24.062616 C 30.008936,22.790436 29.886673,21.2112 31.992421,21.2112 C 33.886859,21.2112 33.999063,22.457714 33.999063,24.083966 C 33.999063,25.753636 33.999062,30.330329 33.999063,32.000001 C 35.224439,32.000001 37.774621,32.000001 38.999999,32.000001 C 38.985775,29.048127 39.02968,26.095219 38.975705,23.144049 C 38.898842,21.359714 38.212818,19.388222 36.387724,18.484422 C 35.343605,18.141611 35.045062,18.0118 33.742744,18.0118 C 31.060736,18.0118 20.652643,18.000001 15.999999,18.000001 C 15.999999,22.666667 15.999999,27.333335 15.999999,32 z" />
    <path
       style="opacity:0.4;fill:none;fill-opacity:1;fill-rule:evenodd;stroke:url(#linearGradient2408);stroke-width:0.99999988px;stroke-linecap:butt;stroke-linejoin:miter;stroke-opacity:1"
       id="path3238"
       d="M 31.906249,7.5000008 C 28.681327,7.7425676 25.485959,8.7210977 22.906249,10.062501 C 11.707043,15.885888 3.6907328,29.825629 2.7187493,31.562501 C 11.484065,40.437303 19.207331,43.094405 24.749999,43.500001 C 30.407273,43.913984 33.749999,42.093751 33.749999,42.093751 C 33.760172,42.083093 33.770591,42.072674 33.781249,42.062501 C 40.364811,38.998828 43.337843,31.950081 44.624999,25.500001 C 45.868153,19.270421 45.525211,13.993748 45.499999,13.625001 C 42.448466,8.6273593 37.213851,7.1007824 31.906249,7.5000008 z" />
  </g>
</svg>
