<?xml version="1.0" encoding="UTF-8" standalone="no"?>
<!-- Created with Inkscape (http://www.inkscape.org/) -->
<svg
   xmlns:dc="http://purl.org/dc/elements/1.1/"
   xmlns:cc="http://creativecommons.org/ns#"
   xmlns:rdf="http://www.w3.org/1999/02/22-rdf-syntax-ns#"
   xmlns:svg="http://www.w3.org/2000/svg"
   xmlns="http://www.w3.org/2000/svg"
   xmlns:xlink="http://www.w3.org/1999/xlink"
   xmlns:sodipodi="http://sodipodi.sourceforge.net/DTD/sodipodi-0.dtd"
   xmlns:inkscape="http://www.inkscape.org/namespaces/inkscape"
   width="48px"
   height="48px"
   id="svg7777"
   sodipodi:version="0.32"
   inkscape:version="0.46"
   sodipodi:docname="drawing-2.svg"
   inkscape:output_extension="org.inkscape.output.svg.inkscape">
  <defs
     id="defs7779">
    <linearGradient
       id="linearGradient43182">
      <stop
         style="stop-color:#becc58;stop-opacity:1;"
         offset="0"
         id="stop43184" />
      <stop
         style="stop-color:#dbe3a2;stop-opacity:1;"
         offset="1"
         id="stop43186" />
    </linearGradient>
    <linearGradient
       inkscape:collect="always"
       xlink:href="#linearGradient43182"
       id="linearGradient43188"
       x1="25.416981"
       y1="45.364574"
       x2="25.416981"
       y2="31.223213"
       gradientUnits="userSpaceOnUse"
       gradientTransform="translate(-1.0754395e-4,1.188848e-4)" />
    <linearGradient
       inkscape:collect="always"
       xlink:href="#linearGradient14695"
       id="linearGradient41430"
       x1="13"
       y1="35.25"
       x2="13"
       y2="16.524809"
       gradientUnits="userSpaceOnUse"
       gradientTransform="translate(-1.0754395e-4,1.188848e-4)" />
    <linearGradient
       inkscape:collect="always"
       xlink:href="#linearGradient14695"
       id="linearGradient40547"
       x1="20.467209"
       y1="38.596672"
       x2="20.467209"
       y2="19.836967"
       gradientUnits="userSpaceOnUse"
       gradientTransform="translate(-1.0754395e-4,1.188848e-4)" />
    <linearGradient
       id="linearGradient14695">
      <stop
         style="stop-color:#fcaf3e;stop-opacity:1;"
         offset="0"
         id="stop14697" />
      <stop
         style="stop-color:#fecd87;stop-opacity:1;"
         offset="1"
         id="stop14699" />
    </linearGradient>
    <linearGradient
       inkscape:collect="always"
       xlink:href="#linearGradient14695"
       id="linearGradient36146"
       x1="12.486917"
       y1="45.419552"
       x2="11.194695"
       y2="26.71599"
       gradientUnits="userSpaceOnUse"
       gradientTransform="translate(-1.0754395e-4,1.188848e-4)" />
    <linearGradient
       inkscape:collect="always"
       xlink:href="#linearGradient4236"
       id="linearGradient21745"
       gradientUnits="userSpaceOnUse"
       gradientTransform="matrix(1.247409,8.044641e-2,-8.044641e-2,1.247409,-3.8131895,-4.4221273)"
       x1="21.125"
       y1="14.625"
       x2="29"
       y2="28" />
    <linearGradient
       id="linearGradient4236">
      <stop
         style="stop-color:#ffffff;stop-opacity:0.32673267;"
         offset="0.0000000"
         id="stop4238" />
      <stop
         style="stop-color:#ffffff;stop-opacity:0.60396039;"
         offset="1.0000000"
         id="stop4240" />
    </linearGradient>
    <linearGradient
       inkscape:collect="always"
       xlink:href="#linearGradient4236"
       id="linearGradient21748"
       gradientUnits="userSpaceOnUse"
       gradientTransform="matrix(1.247409,8.044641e-2,-8.044641e-2,1.247409,-3.8131895,-4.4221273)"
       x1="21.125"
       y1="14.625"
       x2="29"
       y2="28" />
    <linearGradient
       inkscape:collect="always"
       id="linearGradient6028">
      <stop
         style="stop-color:#ffffff;stop-opacity:1;"
         offset="0"
         id="stop6030" />
      <stop
         style="stop-color:#ffffff;stop-opacity:0;"
         offset="1"
         id="stop6032" />
    </linearGradient>
    <linearGradient
       inkscape:collect="always"
       xlink:href="#linearGradient6028"
       id="linearGradient23353"
       gradientUnits="userSpaceOnUse"
       x1="28.702885"
       y1="31.494707"
       x2="17.742729"
       y2="18.366575" />
    <linearGradient
       inkscape:collect="always"
       id="linearGradient6036">
      <stop
         style="stop-color:#ffffff;stop-opacity:1;"
         offset="0"
         id="stop6038" />
      <stop
         style="stop-color:#ffffff;stop-opacity:0;"
         offset="1"
         id="stop6040" />
    </linearGradient>
    <linearGradient
       inkscape:collect="always"
       xlink:href="#linearGradient6036"
       id="linearGradient23387"
       gradientUnits="userSpaceOnUse"
       x1="10.50172"
       y1="3.6100161"
       x2="48.798885"
       y2="54.698483"
       gradientTransform="translate(-1.0754395e-4,1.188848e-4)" />
    <linearGradient
       id="linearGradient14703">
      <stop
         style="stop-color:#9db029;stop-opacity:1;"
         offset="0"
         id="stop14705" />
      <stop
         style="stop-color:#bed340;stop-opacity:1;"
         offset="1"
         id="stop14707" />
    </linearGradient>
    <linearGradient
       inkscape:collect="always"
       xlink:href="#linearGradient14703"
       id="linearGradient23772"
       gradientUnits="userSpaceOnUse"
       gradientTransform="translate(59.999892,1.188848e-4)"
       x1="5.7857804"
       y1="44.365314"
       x2="5.7857804"
       y2="5.4600945" />
    <linearGradient
       id="linearGradient14687">
      <stop
         style="stop-color:#f57900;stop-opacity:1;"
         offset="0"
         id="stop14689" />
      <stop
         style="stop-color:#ffa54c;stop-opacity:1;"
         offset="1"
         id="stop14691" />
    </linearGradient>
    <linearGradient
       inkscape:collect="always"
       xlink:href="#linearGradient14687"
       id="linearGradient23778"
       gradientUnits="userSpaceOnUse"
       gradientTransform="translate(59.999892,1.188848e-4)"
       x1="-13.997608"
       y1="42.450817"
       x2="-13.997608"
       y2="12.897986" />
    <linearGradient
       id="aigrd2"
       gradientUnits="userSpaceOnUse"
       x1="12.2744"
       y1="32.4165"
       x2="35.391201"
       y2="14.2033">
      <stop
         offset="0"
         style="stop-color:#FBFBFB"
         id="stop3043" />
      <stop
         offset="0.5"
         style="stop-color:#B6B6B6"
         id="stop3045" />
      <stop
         offset="1"
         style="stop-color:#E4E4E4"
         id="stop3047" />
    </linearGradient>
    <linearGradient
       inkscape:collect="always"
       xlink:href="#aigrd2"
       id="linearGradient23397"
       gradientUnits="userSpaceOnUse"
       gradientTransform="matrix(1.190476,0,0,1.190476,-4.2245315,-2.4998821)"
       x1="12.2744"
       y1="32.4165"
       x2="35.391201"
       y2="14.2033" />
    <linearGradient
       id="aigrd1"
       gradientUnits="userSpaceOnUse"
       x1="14.9966"
       y1="11.1885"
       x2="32.511002"
       y2="34.307499">
      <stop
         offset="0"
         style="stop-color:#EBEBEB"
         id="stop3034" />
      <stop
         offset="0.5"
         style="stop-color:#FFFFFF"
         id="stop3036" />
      <stop
         offset="1"
         style="stop-color:#EBEBEB"
         id="stop3038" />
    </linearGradient>
    <linearGradient
       inkscape:collect="always"
       xlink:href="#aigrd1"
       id="linearGradient23400"
       gradientUnits="userSpaceOnUse"
       gradientTransform="matrix(1.190476,0,0,1.190476,-4.2245315,-2.4998811)"
       x1="14.9966"
       y1="11.1885"
       x2="32.511002"
       y2="34.307499" />
    <linearGradient
       inkscape:collect="always"
       id="linearGradient23419">
      <stop
         style="stop-color:#000000;stop-opacity:1;"
         offset="0"
         id="stop23421" />
      <stop
         style="stop-color:#000000;stop-opacity:0;"
         offset="1"
         id="stop23423" />
    </linearGradient>
    <radialGradient
       inkscape:collect="always"
       xlink:href="#linearGradient23419"
       id="radialGradient23425"
       cx="23.334524"
       cy="41.63604"
       fx="23.334524"
       fy="41.63604"
       r="22.627417"
       gradientTransform="matrix(1,0,0,0.25,0,31.22703)"
       gradientUnits="userSpaceOnUse" />
  </defs>
  <sodipodi:namedview
     id="base"
     pagecolor="#ffffff"
     bordercolor="#666666"
     borderopacity="1.0"
     inkscape:pageopacity="0.0"
     inkscape:pageshadow="2"
     inkscape:zoom="7"
     inkscape:cx="24"
     inkscape:cy="24"
     inkscape:current-layer="layer1"
     showgrid="true"
     inkscape:grid-bbox="true"
     inkscape:document-units="px"
     inkscape:window-width="641"
     inkscape:window-height="690"
     inkscape:window-x="304"
     inkscape:window-y="331" />
  <metadata
     id="metadata7782">
    <rdf:RDF>
      <cc:Work
         rdf:about="">
        <dc:format>image/svg+xml</dc:format>
        <dc:type
           rdf:resource="http://purl.org/dc/dcmitype/StillImage" />
      </cc:Work>
    </rdf:RDF>
  </metadata>
  <g
     id="layer1"
     inkscape:label="Layer 1"
     inkscape:groupmode="layer">
    <path
       sodipodi:type="arc"
       style="opacity:0.55;fill:url(#radialGradient23425);fill-opacity:1;fill-rule:evenodd;stroke:none;stroke-width:2;stroke-linecap:butt;stroke-linejoin:miter;marker:none;marker-start:none;marker-mid:none;marker-end:none;stroke-miterlimit:4;stroke-dasharray:none;stroke-dashoffset:0;stroke-opacity:1;visibility:visible;display:inline;overflow:visible"
       id="path23417"
       sodipodi:cx="23.334524"
       sodipodi:cy="41.63604"
       sodipodi:rx="22.627417"
       sodipodi:ry="5.6568542"
       d="M 45.961941,41.63604 A 22.627417,5.6568542 0 1 1 0.70710754,41.63604 A 22.627417,5.6568542 0 1 1 45.961941,41.63604 z"
       inkscape:r_cx="true"
       inkscape:r_cy="true"
       transform="matrix(1,0,0,1.066291,0.9998925,-2.8849871)" />
    <path
       inkscape:r_cy="true"
       inkscape:r_cx="true"
       id="path3040"
       d="M 24.346898,4.1667858 C 12.799278,4.1667858 3.5135644,13.4525 3.5135644,25.000119 C 3.5135644,36.547739 12.799278,45.833454 24.346898,45.833454 C 35.894518,45.833454 45.180233,36.547739 45.180233,25.000119 C 45.180233,13.4525 35.894518,4.1667858 24.346898,4.1667858 L 24.346898,4.1667858 z M 24.346898,30.00012 C 21.608803,30.00012 19.346898,27.738215 19.346898,25.000119 C 19.346898,22.262024 21.608803,20.000119 24.346898,20.000119 C 27.084993,20.000119 29.346898,22.262024 29.346898,25.000119 C 29.346898,27.738215 27.084993,30.00012 24.346898,30.00012 z"
       style="fill:url(#linearGradient23400);fill-rule:nonzero;stroke:none;stroke-miterlimit:4;display:inline" />
    <path
       inkscape:r_cy="true"
       inkscape:r_cx="true"
       id="path3049"
       d="M 24.346898,4.1667854 C 12.799278,4.1667854 3.5135645,13.4525 3.5135645,25.000119 C 3.5135645,36.547739 12.799278,45.833454 24.346898,45.833454 C 35.894518,45.833454 45.180233,36.547739 45.180233,25.000119 C 45.180233,13.4525 35.894518,4.1667854 24.346898,4.1667854 L 24.346898,4.1667854 z M 24.346898,30.00012 C 21.608803,30.00012 19.346898,27.738215 19.346898,25.000119 C 19.346898,22.262024 21.608803,20.000119 24.346898,20.000119 C 27.084993,20.000119 29.346898,22.262024 29.346898,25.000119 C 29.346898,27.738215 27.084993,30.00012 24.346898,30.00012 z"
       style="fill:url(#linearGradient23397);fill-rule:nonzero;stroke:#808080;stroke-miterlimit:4;stroke-opacity:1;display:inline" />
    <path
       sodipodi:nodetypes="csccscc"
       style="fill:url(#linearGradient23778);fill-opacity:1;fill-rule:nonzero;stroke:#ce5c00;stroke-width:1;stroke-linecap:round;stroke-linejoin:round;stroke-miterlimit:4;stroke-dasharray:none;stroke-dashoffset:0;stroke-opacity:1;display:inline"
       d="M 10.968642,9.1251189 C 6.2476755,13.129621 3.7384415,18.373333 3.6248925,24.562619 C 3.4147955,36.014593 13.015791,45.477538 24.468642,45.687619 L 24.437392,30.062619 C 21.434172,30.011441 19.374892,27.640315 19.374892,24.937619 C 19.374891,23.420691 20.112389,22.065382 21.187392,21.156369 L 10.968642,9.1251189 z"
       id="path12050" />
    <path
       style="fill:#3465a4;fill-opacity:1;fill-rule:nonzero;stroke:#204a87;stroke-width:1;stroke-linecap:round;stroke-linejoin:round;stroke-miterlimit:4;stroke-dasharray:none;stroke-dashoffset:0;stroke-opacity:1;display:inline"
       d="M 45.093642,24.093869 L 29.343642,24.750119 C 29.346068,24.813878 29.343642,24.87327 29.343642,24.937619 C 29.343641,25.838509 29.106798,26.677313 28.687392,27.406369 L 28.687392,27.437619 L 42.343642,35.312619 C 44.399036,31.747782 45.263666,28.205201 45.093642,24.093869 z"
       id="path6739" />
    <path
       style="fill:url(#linearGradient23772);fill-opacity:1;fill-rule:nonzero;stroke:#727e0a;stroke-width:1;stroke-linecap:round;stroke-linejoin:round;stroke-miterlimit:4;stroke-dasharray:none;stroke-dashoffset:0;stroke-opacity:1;display:inline"
       d="M 28.656142,27.468869 C 27.885979,29.307139 26.002252,29.96142 24.543781,30.031369 L 24.448115,45.625119 C 31.881231,45.479863 38.917382,41.851716 42.406142,35.312619 L 28.656142,27.468869 z"
       id="path8534"
       sodipodi:nodetypes="ccccc" />
    <path
       inkscape:r_cy="true"
       inkscape:r_cx="true"
       id="path3051"
       d="M 24.346898,14.895954 C 18.704312,14.895954 14.242732,19.488757 14.242732,25.000119 C 14.242732,30.642707 18.835536,35.104285 24.346898,35.104285 C 29.989484,35.104285 34.451064,30.511483 34.451064,25.000119 C 34.451064,19.357533 29.85826,14.895954 24.346898,14.895954 L 24.346898,14.895954 z M 24.346898,30.511483 C 21.328771,30.511483 18.835536,28.018248 18.835536,25.000119 C 18.835536,21.981992 21.328771,19.488757 24.346898,19.488757 C 27.365025,19.488757 29.85826,21.981992 29.85826,25.000119 C 29.85826,28.018248 27.365025,30.511483 24.346898,30.511483 z"
       style="opacity:0.10999995;fill-rule:nonzero;stroke:none;stroke-miterlimit:4;display:inline" />
    <path
       inkscape:r_cy="true"
       inkscape:r_cx="true"
       style="opacity:0.54644811;fill:none;fill-rule:nonzero;stroke:url(#linearGradient23387);stroke-miterlimit:4;stroke-opacity:1;display:inline"
       d="M 24.346894,5.2024844 C 13.37335,5.2024844 4.5492636,14.026573 4.5492636,25.000116 C 4.5492636,35.97366 13.37335,44.797747 24.346894,44.797747 C 35.320438,44.797747 44.144525,35.97366 44.144525,25.000116 C 44.144525,14.026573 35.320438,5.2024844 24.346894,5.2024844 L 24.346894,5.2024844 z"
       id="path5264"
       sodipodi:nodetypes="cccccc" />
    <path
       inkscape:r_cy="true"
       inkscape:r_cx="true"
       sodipodi:type="arc"
       style="opacity:0.67213111;fill:none;fill-opacity:0.31638417;fill-rule:nonzero;stroke:url(#linearGradient23353);stroke-width:0.93053865;stroke-linecap:butt;stroke-linejoin:miter;marker:none;marker-start:none;marker-mid:none;marker-end:none;stroke-miterlimit:4;stroke-dashoffset:0;stroke-opacity:1;visibility:visible;display:inline;overflow:visible"
       id="path6026"
       sodipodi:cx="24.306795"
       sodipodi:cy="24.930641"
       sodipodi:rx="6.0987959"
       sodipodi:ry="6.0987959"
       d="M 30.405591,24.930641 A 6.0987959,6.0987959 0 1 1 18.207999,24.930641 A 6.0987959,6.0987959 0 1 1 30.405591,24.930641 z"
       transform="translate(8.8280756e-2,8.8507885e-2)" />
    <path
       style="opacity:1;fill:#729ed0;fill-opacity:1;fill-rule:nonzero;stroke:#729ed0;stroke-width:0.93053865;stroke-linecap:butt;stroke-linejoin:miter;marker:none;marker-start:none;marker-mid:none;marker-end:none;stroke-miterlimit:4;stroke-dashoffset:0;stroke-opacity:1;visibility:visible;display:inline;overflow:visible"
       d="M 30.499804,25.506781 C 30.433217,26.216515 30.244843,26.89102 29.955813,27.509164"
       id="path26462"
       sodipodi:nodetypes="cs" />
    <path
       inkscape:r_cy="true"
       inkscape:r_cx="true"
       style="opacity:1;fill:url(#linearGradient21748);fill-opacity:1;fill-rule:nonzero;stroke:none;stroke-miterlimit:4;stroke-opacity:1;display:inline"
       d="M 31.155714,6.1236231 L 26.665921,19.857805 C 27.769017,20.229087 28.621802,20.981479 29.16954,21.981874 L 42.02192,15.245772 C 39.757705,10.961452 35.892718,7.6675337 31.155714,6.1236231 z"
       id="path3916" />
    <path
       inkscape:r_cy="true"
       inkscape:r_cx="true"
       id="path4214"
       d="M 16.115776,43.329647 L 21.719785,30.011194 C 20.650957,29.550463 19.862934,28.730488 19.399318,27.688441 L 6.0365282,33.344816 C 7.9407572,37.800824 11.521778,41.401423 16.115776,43.329647 z"
       style="opacity:0.4388186;fill:url(#linearGradient21745);fill-opacity:1;fill-rule:nonzero;stroke:none;stroke-miterlimit:4;stroke-opacity:1;display:inline" />
    <path
       style="opacity:1;fill:#729fcf;fill-opacity:1;fill-rule:nonzero;stroke:none;stroke-miterlimit:4;stroke-opacity:1;display:inline"
       d="M 43.656142,25.000119 C 43.656142,28.320027 42.777415,31.397687 41.310719,34.115632 L 42.161779,34.604055 C 43.7142,31.740335 44.656142,28.494565 44.656142,25.000119 C 44.656142,24.699538 43.656142,24.710859 43.656142,25.000119 z"
       id="path24670"
       sodipodi:nodetypes="cccss" />
    <path
       style="opacity:0.54644811;fill:none;fill-opacity:1;fill-rule:nonzero;stroke:#d7e66b;stroke-miterlimit:4;stroke-opacity:1;display:inline"
       d="M 25.001312,44.61287 C 32.069887,44.293331 38.04097,40.799056 41.436255,35.409481"
       id="path29083"
       sodipodi:nodetypes="cc" />
    <path
       style="opacity:1;fill:none;fill-opacity:1;fill-rule:nonzero;stroke:url(#linearGradient36146);stroke-miterlimit:4;stroke-opacity:1;display:inline"
       d="M 23.906451,44.904028 C 13.194328,44.485839 4.7368096,35.73502 4.7368098,24.914625 C 4.7368098,19.244253 7.0594387,14.142234 10.812005,10.509914"
       id="path33509"
       sodipodi:nodetypes="css" />
    <path
       style="opacity:1;fill:none;fill-opacity:0.30980392;fill-rule:nonzero;stroke:url(#linearGradient40547);stroke-width:0.93053883;stroke-linecap:butt;stroke-linejoin:miter;marker:none;marker-start:none;marker-mid:none;marker-end:none;stroke-miterlimit:4;stroke-dashoffset:0;stroke-opacity:1;visibility:visible;display:inline;overflow:visible"
       d="M 20.142895,20.771673 C 19.084114,21.873389 18.432369,23.369024 18.43237,25.01387 C 18.43237,28.391732 21.180969,31.14033 24.558831,31.140331 C 24.568816,31.140331 24.578797,31.140306 24.588771,31.140259"
       id="path37032"
       sodipodi:nodetypes="cssc" />
    <path
       style="fill:none;fill-opacity:0.75;fill-rule:evenodd;stroke:url(#linearGradient41430);stroke-width:1px;stroke-linecap:butt;stroke-linejoin:miter;stroke-opacity:1;display:inline"
       d="M 11.062392,10.875119 L 19.624892,20.937619"
       id="path40549"
       sodipodi:nodetypes="cc" />
    <path
       sodipodi:nodetypes="cc"
       id="path41432"
       d="M 25.318348,30.831967 L 25.390399,44.927195"
       style="opacity:1;fill:none;fill-opacity:1;fill-rule:evenodd;stroke:url(#linearGradient43188);stroke-width:1.00000036px;stroke-linecap:butt;stroke-linejoin:miter;stroke-opacity:1;display:inline" />
    <path
       style="opacity:1;fill:none;fill-opacity:1;fill-rule:evenodd;stroke:#729fcf;stroke-width:1.0000006px;stroke-linecap:butt;stroke-linejoin:miter;stroke-opacity:1;display:inline"
       d="M 30.343054,25.742178 L 44.42821,25.204495"
       id="path44063"
       sodipodi:nodetypes="cc" />
  </g>
</svg>
