<?xml version="1.0" encoding="UTF-8" standalone="no"?>
<!-- Created with Inkscape (http://www.inkscape.org/) -->
<svg
   xmlns:dc="http://purl.org/dc/elements/1.1/"
   xmlns:cc="http://creativecommons.org/ns#"
   xmlns:rdf="http://www.w3.org/1999/02/22-rdf-syntax-ns#"
   xmlns:svg="http://www.w3.org/2000/svg"
   xmlns="http://www.w3.org/2000/svg"
   xmlns:xlink="http://www.w3.org/1999/xlink"
   xmlns:sodipodi="http://sodipodi.sourceforge.net/DTD/sodipodi-0.dtd"
   xmlns:inkscape="http://www.inkscape.org/namespaces/inkscape"
   width="48"
   height="48"
   id="svg2160"
   sodipodi:version="0.32"
   inkscape:version="0.46+devel"
   version="1.0"
   sodipodi:docname="skype.svg"
   inkscape:output_extension="org.inkscape.output.svg.inkscape"
   inkscape:export-filename="/home/bertrand/thèmes/icons/skype.png"
   inkscape:export-xdpi="960"
   inkscape:export-ydpi="960"
   sodipodi:modified="true">
  <defs
     id="defs2162">
    <linearGradient
       id="linearGradient3816">
      <stop
         id="stop3818"
         offset="0"
         style="stop-color:#000000;stop-opacity:1;" />
      <stop
         id="stop3820"
         offset="1"
         style="stop-color:#000000;stop-opacity:0;" />
    </linearGradient>
    <radialGradient
       inkscape:collect="always"
       xlink:href="#linearGradient3816"
       id="radialGradient6781"
       gradientUnits="userSpaceOnUse"
       cx="31.112698"
       cy="19.008621"
       fx="31.112698"
       fy="19.008621"
       r="8.6620579" />
    <linearGradient
       id="linearGradient3276">
      <stop
         style="stop-color:#ffffff;stop-opacity:0;"
         offset="0"
         id="stop3278" />
      <stop
         id="stop3292"
         offset="0.09740455"
         style="stop-color:#ffffff;stop-opacity:0;" />
      <stop
         id="stop3323"
         offset="0.8592869"
         style="stop-color:#ffffff;stop-opacity:0.55555558;" />
      <stop
         style="stop-color:#ffffff;stop-opacity:0.62962961;"
         offset="1"
         id="stop3280" />
    </linearGradient>
    <linearGradient
       id="linearGradient3168">
      <stop
         style="stop-color:#00aff0;stop-opacity:1;"
         offset="0"
         id="stop3170" />
      <stop
         id="stop3176"
         offset="0.72000003"
         style="stop-color:#00aff0;stop-opacity:1;" />
      <stop
         style="stop-color:#b0eaff;stop-opacity:1;"
         offset="1"
         id="stop3172" />
    </linearGradient>
    <radialGradient
       inkscape:collect="always"
       xlink:href="#linearGradient3276"
       id="radialGradient3418"
       gradientUnits="userSpaceOnUse"
       gradientTransform="matrix(-0.147663,-0.67136,1.7163729,-0.3775094,25.94669,74.629391)"
       cx="86.017921"
       cy="14.77215"
       fx="86.017921"
       fy="14.77215"
       r="21.296875" />
    <linearGradient
       inkscape:collect="always"
       xlink:href="#linearGradient3168"
       id="linearGradient3421"
       gradientUnits="userSpaceOnUse"
       gradientTransform="translate(1,-1)"
       x1="46"
       y1="3"
       x2="46"
       y2="47" />
  </defs>
  <sodipodi:namedview
     id="base"
     pagecolor="#ffffff"
     bordercolor="#666666"
     borderopacity="1.0"
     inkscape:pageopacity="0.0"
     inkscape:pageshadow="2"
     inkscape:zoom="11.313708"
     inkscape:cx="21.747612"
     inkscape:cy="21.071429"
     inkscape:current-layer="layer1"
     showgrid="false"
     inkscape:grid-bbox="true"
     inkscape:document-units="px"
     inkscape:window-width="1280"
     inkscape:window-height="971"
     inkscape:window-x="398"
     inkscape:window-y="50" />
  <metadata
     id="metadata2165">
    <rdf:RDF>
      <cc:Work
         rdf:about="">
        <dc:format>image/svg+xml</dc:format>
        <dc:type
           rdf:resource="http://purl.org/dc/dcmitype/StillImage" />
      </cc:Work>
    </rdf:RDF>
  </metadata>
  <g
     id="layer1"
     inkscape:label="Layer 1"
     inkscape:groupmode="layer"
     style="display:inline">
    <path
       d="M 39.774755,19.008621 A 8.6620579,8.6620579 0 1 1 22.45064,19.008621 A 8.6620579,8.6620579 0 1 1 39.774755,19.008621 z"
       sodipodi:ry="8.6620579"
       sodipodi:rx="8.6620579"
       sodipodi:cy="19.008621"
       sodipodi:cx="31.112698"
       id="path4306"
       style="opacity:0.6;fill:url(#radialGradient6781);fill-opacity:1;fill-rule:evenodd;stroke:none;stroke-width:1px;stroke-linecap:round;stroke-linejoin:round;marker:none;marker-start:none;marker-mid:none;marker-end:none;stroke-miterlimit:4;stroke-dasharray:none;stroke-dashoffset:0;stroke-opacity:1;visibility:visible;display:inline;overflow:visible"
       sodipodi:type="arc"
       transform="matrix(2.7707042,0,0,0.8081221,-62.204082,25.638712)" />
    <path
       style="fill:url(#linearGradient3421);fill-opacity:1;fill-rule:nonzero;stroke:none;stroke-opacity:1;display:inline"
       d="M 13.5,1 C 6.6,1 1,6.5999996 1,13.499999 C 1,15.631207 1.526964,17.649791 2.46875,19.406249 C 2.15433,20.88635 2,22.42663 2,23.999999 C 2,36.144001 11.856,46.000001 24,46 C 25.57337,46 27.11365,45.84567 28.59375,45.53125 C 30.356218,46.481485 32.358562,47 34.5,47 C 41.4,47 46.999999,41.400001 47,34.5 C 47,32.358562 46.481485,30.356218 45.53125,28.59375 C 45.84567,27.11365 46,25.57337 46,23.999999 C 46,11.855999 36.144,1.9999996 24,1.9999996 C 22.426256,1.9999996 20.886676,2.1854336 19.40625,2.4999996 C 17.649637,1.557999 15.631468,1 13.5,1 z "
       id="path3225" />
    <path
       style="fill:url(#radialGradient3418);fill-opacity:1;fill-rule:nonzero;stroke:none;stroke-opacity:1;display:inline"
       d="M 13.5,2 C 7.152,2 2,7.1520017 2,13.5 C 2,15.601695 2.576606,17.554069 3.5625,19.25 C 2.700617,22.526178 2.985883,25.829175 3.625273,29.107926 C 7.513339,27.63971 15.691641,24.276806 21.250597,22.875799 C 28.107135,21.324553 35.624065,20.455766 42.651046,20.033852 C 41.276046,15.843111 40.535144,9.9603418 37.145812,7.1556406 C 33.756479,4.3509394 29.093718,3 24,3 C 23.181755,3 22.376532,3.051955 21.584733,3.1482449 C 20.792933,3.2445349 20.014556,3.3851599 19.25,3.5625 C 18.402035,3.069553 17.489958,2.678928 16.527162,2.4115398 C 15.564365,2.1441515 14.550848,2 13.5,2 z "
       id="path3263"
       sodipodi:nodetypes="csccccssscsc" />
    <path
       style="fill:#00aff0;fill-opacity:0.51372549;fill-rule:nonzero;stroke:none;stroke-opacity:1;display:inline"
       d="M 13.5,3 C 7.704,3 3,7.7040005 3,13.5 C 3,15.567611 3.59174,17.499289 4.625,19.125 C 4.231934,20.688785 4,22.314818 4,24 C 4,35.040001 12.96,44 24,44 C 25.685182,44 27.311215,43.768066 28.875,43.375 C 30.500711,44.40826 32.432388,45 34.5,45 C 40.296,45 45,40.296 45,34.5 C 45,32.432389 44.40826,30.500711 43.375,28.875 C 43.768066,27.311215 44,25.685183 44,24 C 44,12.959999 35.040001,4 24,4 C 22.314818,4 20.688785,4.2319335 19.125,4.625 C 17.499289,3.5917396 15.567611,3 13.5,3 z M 13.5,4 C 15.507769,4 17.371556,4.6231473 18.90625,5.6875 C 20.528498,5.2363253 22.234607,5 24,5 C 34.487999,5 43,13.512001 43,24 C 43,25.765393 42.763675,27.471502 42.3125,29.09375 C 43.376853,30.628444 44,32.492231 44,34.5 C 44,39.743999 39.744,44 34.5,44 C 32.492231,44 30.628444,43.376853 29.09375,42.3125 C 27.471502,42.763675 25.765393,43 24,43 C 13.512001,43 5,34.487999 5,24 C 5,22.234607 5.236325,20.528498 5.6875,18.90625 C 4.623147,17.371556 4,15.507769 4,13.5 C 4,8.2560007 8.256,4 13.5,4 z "
       id="path3254" />
    <path
       style="fill:#00aff0;fill-opacity:1;fill-rule:nonzero;stroke:none;stroke-opacity:1;display:inline"
       d="M 13.5,1 C 6.6,1 1,6.6000003 1,13.5 C 1,15.631208 1.526964,17.649792 2.46875,19.40625 C 2.15433,20.886351 2,22.426631 2,24 C 2,36.144001 11.856,46.000001 24,46 C 25.57337,46 27.11365,45.84567 28.59375,45.53125 C 30.356218,46.481485 32.358562,47 34.5,47 C 41.4,47 46.999999,41.400001 47,34.5 C 47,32.358562 46.481485,30.356218 45.53125,28.59375 C 45.84567,27.11365 46,25.57337 46,24 C 46,11.856 36.144,2 24,2 C 22.426256,2 20.886676,2.185434 19.40625,2.5 C 17.649637,1.557999 15.631468,1 13.5,1 z M 13.5,2 C 15.601694,2.0000001 17.554069,2.576606 19.25,3.5625 C 20.779111,3.2078198 22.363509,3 24,3 C 35.592002,3.0000002 45,12.408 45,24 C 45,25.623759 44.818088,27.200552 44.46875,28.71875 C 45.45195,30.412986 46,32.40141 46,34.5 C 46,40.848 40.848,46 34.5,46 C 32.411892,46.000001 30.469741,45.411606 28.78125,44.4375 C 27.24315,44.796616 25.646996,45 24,45 C 12.408003,44.999998 3,35.592 3,24 C 3,22.35789 3.20545,20.75267 3.5625,19.21875 C 2.588395,17.530259 2,15.588109 2,13.5 C 2.000001,7.1520001 7.152,2 13.5,2 z "
       id="path3206" />
    <path
       style="fill:#ffffff;fill-opacity:1;fill-rule:evenodd;stroke:none;stroke-width:1px;stroke-linecap:butt;stroke-linejoin:miter;stroke-opacity:1;display:inline"
       d="M 23.59375,10.109375 C 16.71875,10.109375 12.65625,13.203125 12.65625,18.515625 C 12.65625,24.294635 20.189098,25.78715 24.84375,26.421875 C 29.200579,27.589284 29.343751,28.268733 29.34375,30.171875 C 29.34375,32.543812 26.348463,33.453123 24.3125,33.453125 C 18.1654,33.453125 18.619276,28.984375 15.34375,28.984375 C 13.65625,28.984375 12.84375,29.546875 12.84375,31.671875 C 12.84375,33.796875 17.21875,37.890625 24.09375,37.890625 C 30.96875,37.890625 35.34375,35.234375 35.34375,29.921875 C 35.34375,24.452768 30.818648,22.835344 24.84375,21.234375 C 20.869471,20.269511 18.656249,19.575017 18.65625,17.671875 C 18.65625,15.299938 21.182787,14.390625 23.21875,14.390625 C 29.36585,14.390625 28.005724,18.328125 31.28125,18.328125 C 32.96875,18.328125 34,17.984375 34,15.859375 C 34,13.734375 30.46875,10.109375 23.59375,10.109375 z "
       id="path3337" />
    <path
       style="fill:#00aff0;fill-opacity:0.42414862;fill-rule:evenodd;stroke:none;stroke-width:2;stroke-linecap:butt;stroke-linejoin:miter;stroke-miterlimit:4;stroke-dasharray:none;stroke-opacity:1;display:inline"
       d="M 23.59375,9.125 C 20.00625,9.125 17.047601,9.9135055 14.9375,11.53125 C 12.827399,13.148994 11.65625,15.588848 11.65625,18.5 C 11.65625,21.824 13.914358,24.050389 16.5625,25.3125 C 19.168401,26.554478 22.247892,27.051737 24.59375,27.375 C 24.631776,27.38024 24.681109,27.401117 24.71875,27.40625 C 26.704606,27.952496 27.727772,28.460491 28.03125,28.75 C 28.188408,28.899924 28.23431,28.986158 28.28125,29.1875 C 28.32819,29.388842 28.34375,29.693003 28.34375,30.15625 C 28.34375,30.921284 27.929585,31.392435 27.125,31.8125 C 26.320415,32.232565 25.181607,32.468749 24.3125,32.46875 C 21.481273,32.46875 20.455659,31.567143 19.46875,30.53125 C 18.975295,30.013303 18.540012,29.422691 17.90625,28.90625 C 17.272488,28.389809 16.390012,28 15.34375,28 C 14.388889,28 13.440799,28.134735 12.75,28.8125 C 12.059201,29.490265 11.84375,30.497549 11.84375,31.6875 C 11.84375,32.561887 12.242745,33.363604 12.84375,34.15625 C 13.444755,34.948896 14.284556,35.707182 15.34375,36.40625 C 17.462138,37.804386 20.457765,38.875 24.09375,38.875 C 27.660038,38.875 30.649664,38.210728 32.84375,36.71875 C 35.037836,35.226772 36.34375,32.86826 36.34375,29.9375 C 36.34375,26.927149 34.982625,24.736576 32.90625,23.3125 C 30.829875,21.888424 28.101558,21.08719 25.09375,20.28125 L 25.09375,20.25 C 23.118708,19.770505 21.602558,19.354112 20.71875,18.90625 C 20.276846,18.682319 19.987242,18.46638 19.84375,18.28125 C 19.700258,18.09612 19.65625,17.969464 19.65625,17.6875 C 19.65625,16.856591 20.015869,16.397023 20.6875,16 C 21.359131,15.602977 22.349644,15.375 23.21875,15.375 C 26.078785,15.375 26.816075,16.122983 27.5625,17 C 27.935712,17.438508 28.273082,17.977889 28.84375,18.46875 C 29.414418,18.959611 30.262019,19.3125 31.28125,19.3125 C 32.192901,19.3125 33.097628,19.270529 33.875,18.6875 C 34.652372,18.104471 35,17.068015 35,15.84375 C 35,14.227328 33.864121,12.639683 31.9375,11.34375 C 30.010879,10.047817 27.207008,9.125 23.59375,9.125 z M 23.59375,10.125 C 30.46875,10.125 34,13.75 34,15.875 C 34,18 32.96875,18.3125 31.28125,18.3125 C 28.005724,18.3125 29.36585,14.375 23.21875,14.375 C 21.182787,14.375 18.65625,15.315563 18.65625,17.6875 C 18.656249,19.590642 20.869471,20.285136 24.84375,21.25 C 30.818648,22.850969 35.34375,24.468393 35.34375,29.9375 C 35.34375,35.25 30.96875,37.875 24.09375,37.875 C 17.21875,37.875 12.84375,33.8125 12.84375,31.6875 C 12.84375,29.5625 13.65625,29 15.34375,29 C 18.619276,29 18.1654,33.4375 24.3125,33.4375 C 26.348463,33.437498 29.34375,32.559437 29.34375,30.1875 C 29.343751,28.284358 29.200579,27.604909 24.84375,26.4375 C 20.189098,25.802775 12.65625,24.27901 12.65625,18.5 C 12.65625,13.1875 16.71875,10.125 23.59375,10.125 z "
       id="path3356" />
  </g>
</svg>
