<?xml version="1.0" encoding="UTF-8" standalone="no"?>
<!-- Created with Inkscape (http://www.inkscape.org/) -->
<svg
   xmlns:dc="http://purl.org/dc/elements/1.1/"
   xmlns:cc="http://creativecommons.org/ns#"
   xmlns:rdf="http://www.w3.org/1999/02/22-rdf-syntax-ns#"
   xmlns:svg="http://www.w3.org/2000/svg"
   xmlns="http://www.w3.org/2000/svg"
   xmlns:xlink="http://www.w3.org/1999/xlink"
   xmlns:sodipodi="http://sodipodi.sourceforge.net/DTD/sodipodi-0.dtd"
   xmlns:inkscape="http://www.inkscape.org/namespaces/inkscape"
   width="48px"
   height="48px"
   id="svg7544"
   sodipodi:version="0.32"
   inkscape:version="0.46"
   sodipodi:docname="drawing.svg"
   inkscape:output_extension="org.inkscape.output.svg.inkscape">
  <defs
     id="defs7546">
    <radialGradient
       inkscape:collect="always"
       xlink:href="#linearGradient8740"
       id="radialGradient2151"
       gradientUnits="userSpaceOnUse"
       gradientTransform="matrix(0.918134,0,0,0.854079,2.429764,1.490099)"
       cx="62.225391"
       cy="-3.4420195"
       fx="62.225391"
       fy="-3.4420195"
       r="10.081216" />
    <radialGradient
       inkscape:collect="always"
       xlink:href="#linearGradient8918"
       id="radialGradient2149"
       gradientUnits="userSpaceOnUse"
       gradientTransform="matrix(6.168149e-2,2.223638,-1.495968,4.148028e-2,50.51125,-44.50839)"
       cx="25.969097"
       cy="17.257854"
       fx="25.968998"
       fy="17.257843"
       r="9.8222504" />
    <radialGradient
       inkscape:collect="always"
       xlink:href="#linearGradient8740"
       id="radialGradient2925"
       gradientUnits="userSpaceOnUse"
       gradientTransform="matrix(1,0,0,0.930233,0,-0.240141)"
       cx="62.225393"
       cy="-3.4420195"
       fx="62.225393"
       fy="-3.4420195"
       r="10.081216" />
    <linearGradient
       id="linearGradient8918">
      <stop
         style="stop-color:#cee14b"
         offset="0"
         id="stop8920" />
      <stop
         style="stop-color:#9db029"
         offset="1"
         id="stop8922" />
    </linearGradient>
    <radialGradient
       inkscape:collect="always"
       xlink:href="#linearGradient8918"
       id="radialGradient2923"
       gradientUnits="userSpaceOnUse"
       gradientTransform="matrix(6.718136e-2,2.42191,-1.629357,4.51789e-2,52.36869,-50.34012)"
       cx="25.969097"
       cy="17.257854"
       fx="25.968998"
       fy="17.257843"
       r="9.82225" />
    <radialGradient
       inkscape:collect="always"
       xlink:href="#linearGradient8740"
       id="radialGradient2155"
       gradientUnits="userSpaceOnUse"
       gradientTransform="matrix(1,0,0,0.930233,0.311259,0.486131)"
       cx="62.225391"
       cy="-3.4420195"
       fx="62.225391"
       fy="-3.4420195"
       r="10.081216" />
    <radialGradient
       inkscape:collect="always"
       xlink:href="#linearGradient8912"
       id="radialGradient2153"
       gradientUnits="userSpaceOnUse"
       gradientTransform="matrix(0.222034,8.004376,-0.597156,1.656095e-2,29.85665,-181.6002)"
       cx="24.478569"
       cy="17.573915"
       fx="24.478539"
       fy="17.573889"
       r="2.9719501" />
    <radialGradient
       inkscape:collect="always"
       xlink:href="#linearGradient8740"
       id="radialGradient2921"
       gradientUnits="userSpaceOnUse"
       gradientTransform="matrix(1,0,0,0.930233,0,-0.240141)"
       cx="62.225393"
       cy="-3.4420195"
       fx="62.225393"
       fy="-3.4420195"
       r="10.081216" />
    <linearGradient
       id="linearGradient8912">
      <stop
         id="stop8914"
         offset="0"
         style="stop-color:#cee14b" />
      <stop
         id="stop8916"
         offset="1"
         style="stop-color:#9db029" />
    </linearGradient>
    <radialGradient
       inkscape:collect="always"
       xlink:href="#linearGradient8912"
       id="radialGradient2919"
       gradientUnits="userSpaceOnUse"
       gradientTransform="matrix(0.222034,8.004376,-0.597156,1.656095e-2,29.5454,-182.3268)"
       cx="24.478569"
       cy="17.573915"
       fx="24.478539"
       fy="17.573889"
       r="2.97195" />
    <radialGradient
       inkscape:collect="always"
       xlink:href="#linearGradient8740"
       id="radialGradient2092"
       gradientUnits="userSpaceOnUse"
       gradientTransform="matrix(1,0,0,0.930233,0,0.589884)"
       cx="62.225391"
       cy="-3.4420195"
       fx="62.225391"
       fy="-3.4420195"
       r="10.081216" />
    <radialGradient
       inkscape:collect="always"
       xlink:href="#linearGradient8930"
       id="radialGradient2090"
       gradientUnits="userSpaceOnUse"
       gradientTransform="matrix(0.159592,5.753335,-0.8072,2.23703e-2,32.87305,-130.867)"
       cx="25.135374"
       cy="14.542349"
       fx="25.135332"
       fy="14.542329"
       r="4.1347499" />
    <radialGradient
       inkscape:collect="always"
       xlink:href="#linearGradient8740"
       id="radialGradient2917"
       gradientUnits="userSpaceOnUse"
       gradientTransform="matrix(1,0,0,0.930233,0,-0.240141)"
       cx="62.225393"
       cy="-3.4420195"
       fx="62.225393"
       fy="-3.4420195"
       r="10.081216" />
    <linearGradient
       id="linearGradient8930">
      <stop
         style="stop-color:#cee14b"
         offset="0"
         id="stop8932" />
      <stop
         style="stop-color:#9db029"
         offset="1"
         id="stop8934" />
    </linearGradient>
    <radialGradient
       inkscape:collect="always"
       xlink:href="#linearGradient8930"
       id="radialGradient2915"
       gradientUnits="userSpaceOnUse"
       gradientTransform="matrix(0.159592,5.753335,-0.8072,2.23703e-2,32.87305,-131.6974)"
       cx="25.135374"
       cy="14.542349"
       fx="25.135332"
       fy="14.542329"
       r="4.13475" />
    <radialGradient
       inkscape:collect="always"
       xlink:href="#linearGradient8740"
       id="radialGradient2159"
       gradientUnits="userSpaceOnUse"
       gradientTransform="matrix(0.891018,0,0,0.828854,1.579517,2.39052)"
       cx="62.225391"
       cy="-3.4420195"
       fx="62.225391"
       fy="-3.4420195"
       r="10.081216" />
    <radialGradient
       inkscape:collect="always"
       xlink:href="#linearGradient8924"
       id="radialGradient2157"
       gradientUnits="userSpaceOnUse"
       gradientTransform="matrix(6.822876e-2,2.459669,-1.754905,4.868429e-2,55.12882,-46.82188)"
       cx="24.652573"
       cy="18.94449"
       fx="24.652485"
       fy="18.944481"
       r="8.6174498" />
    <radialGradient
       inkscape:collect="always"
       xlink:href="#linearGradient8740"
       id="radialGradient2913"
       gradientUnits="userSpaceOnUse"
       gradientTransform="matrix(1,0,0,0.930233,0,-0.240141)"
       cx="62.225393"
       cy="-3.4420195"
       fx="62.225393"
       fy="-3.4420195"
       r="10.081216" />
    <linearGradient
       id="linearGradient8924">
      <stop
         style="stop-color:#cee14b"
         offset="0"
         id="stop8926" />
      <stop
         style="stop-color:#9db029"
         offset="1"
         id="stop8928" />
    </linearGradient>
    <radialGradient
       inkscape:collect="always"
       xlink:href="#linearGradient8924"
       id="radialGradient2911"
       gradientUnits="userSpaceOnUse"
       gradientTransform="matrix(7.657394e-2,2.760516,-1.969551,5.463895e-2,60.09901,-55.47179)"
       cx="24.652573"
       cy="18.94449"
       fx="24.652485"
       fy="18.944481"
       r="8.61745" />
    <radialGradient
       r="10.081216"
       fy="-3.4420195"
       fx="62.225391"
       cy="-3.4420195"
       cx="62.225391"
       gradientTransform="matrix(1,0,0,0.930233,0,-0.240141)"
       gradientUnits="userSpaceOnUse"
       id="radialGradient8810"
       xlink:href="#linearGradient8740"
       inkscape:collect="always" />
    <radialGradient
       r="10.081216"
       fy="-3.4420195"
       fx="62.225391"
       cy="-3.4420195"
       cx="62.225391"
       gradientTransform="matrix(1,0,0,0.930233,0,-0.240141)"
       gradientUnits="userSpaceOnUse"
       id="radialGradient8808"
       xlink:href="#linearGradient8740"
       inkscape:collect="always" />
    <radialGradient
       r="10.081216"
       fy="-3.4420195"
       fx="62.225391"
       cy="-3.4420195"
       cx="62.225391"
       gradientTransform="matrix(1,0,0,0.930233,0,-0.240141)"
       gradientUnits="userSpaceOnUse"
       id="radialGradient8806"
       xlink:href="#linearGradient8740"
       inkscape:collect="always" />
    <radialGradient
       r="10.081216"
       fy="-3.4420195"
       fx="62.225391"
       cy="-3.4420195"
       cx="62.225391"
       gradientTransform="matrix(1,0,0,0.930233,0,-0.240141)"
       gradientUnits="userSpaceOnUse"
       id="radialGradient8804"
       xlink:href="#linearGradient8740"
       inkscape:collect="always" />
    <radialGradient
       r="10.081216"
       fy="-3.4420195"
       fx="62.225391"
       cy="-3.4420195"
       cx="62.225391"
       gradientTransform="matrix(1,0,0,0.930233,0,-0.240141)"
       gradientUnits="userSpaceOnUse"
       id="radialGradient8802"
       xlink:href="#linearGradient8740"
       inkscape:collect="always" />
    <radialGradient
       r="10.081216"
       fy="-3.4420195"
       fx="62.225391"
       cy="-3.4420195"
       cx="62.225391"
       gradientTransform="matrix(1,0,0,0.930233,0,-0.240141)"
       gradientUnits="userSpaceOnUse"
       id="radialGradient8800"
       xlink:href="#linearGradient8740"
       inkscape:collect="always" />
    <radialGradient
       r="10.081216"
       fy="-3.4420195"
       fx="62.225391"
       cy="-3.4420195"
       cx="62.225391"
       gradientTransform="matrix(1,0,0,0.930233,0,-0.240141)"
       gradientUnits="userSpaceOnUse"
       id="radialGradient8798"
       xlink:href="#linearGradient8740"
       inkscape:collect="always" />
    <radialGradient
       r="10.081216"
       fy="-3.4420195"
       fx="62.225391"
       cy="-3.4420195"
       cx="62.225391"
       gradientTransform="matrix(1,0,0,0.930233,0,-0.240141)"
       gradientUnits="userSpaceOnUse"
       id="radialGradient8796"
       xlink:href="#linearGradient8740"
       inkscape:collect="always" />
    <radialGradient
       r="10.081216"
       fy="-3.4420195"
       fx="62.225391"
       cy="-3.4420195"
       cx="62.225391"
       gradientTransform="matrix(1,0,0,0.930233,0,-0.240141)"
       gradientUnits="userSpaceOnUse"
       id="radialGradient8794"
       xlink:href="#linearGradient8740"
       inkscape:collect="always" />
    <radialGradient
       r="10.081216"
       fy="-3.4420195"
       fx="62.225391"
       cy="-3.4420195"
       cx="62.225391"
       gradientTransform="matrix(1,0,0,0.930233,0,-0.240141)"
       gradientUnits="userSpaceOnUse"
       id="radialGradient8792"
       xlink:href="#linearGradient8740"
       inkscape:collect="always" />
    <radialGradient
       inkscape:collect="always"
       xlink:href="#linearGradient8740"
       id="radialGradient2161"
       gradientUnits="userSpaceOnUse"
       gradientTransform="matrix(1,0,0,0.930233,0,-0.240141)"
       cx="62.225391"
       cy="-3.4420195"
       fx="62.225391"
       fy="-3.4420195"
       r="10.081216" />
    <radialGradient
       inkscape:collect="always"
       xlink:href="#linearGradient8740"
       id="radialGradient2909"
       gradientUnits="userSpaceOnUse"
       gradientTransform="matrix(1,0,0,0.930233,0,-0.240141)"
       cx="62.225393"
       cy="-3.4420195"
       fx="62.225393"
       fy="-3.4420195"
       r="10.081216" />
    <radialGradient
       r="10.081216"
       fy="-3.4420195"
       fx="62.225391"
       cy="-3.4420195"
       cx="62.225391"
       gradientTransform="matrix(1,0,0,0.930233,0,-0.240141)"
       gradientUnits="userSpaceOnUse"
       id="radialGradient8786"
       xlink:href="#linearGradient8740"
       inkscape:collect="always" />
    <radialGradient
       inkscape:collect="always"
       xlink:href="#linearGradient8740"
       id="radialGradient2082"
       gradientUnits="userSpaceOnUse"
       gradientTransform="matrix(1,0,0,0.930233,0,0.79739)"
       cx="62.225391"
       cy="-3.4420195"
       fx="62.225391"
       fy="-3.4420195"
       r="10.081216" />
    <radialGradient
       inkscape:collect="always"
       xlink:href="#linearGradient8740"
       id="radialGradient2907"
       gradientUnits="userSpaceOnUse"
       gradientTransform="matrix(1,0,0,0.930233,0,-0.240141)"
       cx="62.225393"
       cy="-3.4420195"
       fx="62.225393"
       fy="-3.4420195"
       r="10.081216" />
    <radialGradient
       r="10.081216"
       fy="-3.4420195"
       fx="62.225391"
       cy="-3.4420195"
       cx="62.225391"
       gradientTransform="matrix(1,0,0,0.930233,0,-0.240141)"
       gradientUnits="userSpaceOnUse"
       id="radialGradient8780"
       xlink:href="#linearGradient8740"
       inkscape:collect="always" />
    <radialGradient
       r="10.081216"
       fy="-3.4420195"
       fx="62.225391"
       cy="-3.4420195"
       cx="62.225391"
       gradientTransform="matrix(1,0,0,0.930233,0,-0.240141)"
       gradientUnits="userSpaceOnUse"
       id="radialGradient8778"
       xlink:href="#linearGradient8740"
       inkscape:collect="always" />
    <radialGradient
       inkscape:collect="always"
       xlink:href="#linearGradient8740"
       id="radialGradient2163"
       gradientUnits="userSpaceOnUse"
       gradientTransform="matrix(1,0,0,0.930233,0,-0.240141)"
       cx="62.225391"
       cy="-3.4420195"
       fx="62.225391"
       fy="-3.4420195"
       r="10.081216" />
    <radialGradient
       inkscape:collect="always"
       xlink:href="#linearGradient8740"
       id="radialGradient2905"
       gradientUnits="userSpaceOnUse"
       gradientTransform="matrix(1,0,0,0.930233,0,-0.240141)"
       cx="62.225393"
       cy="-3.4420195"
       fx="62.225393"
       fy="-3.4420195"
       r="10.081216" />
    <radialGradient
       r="10.081216"
       fy="-3.4420195"
       fx="62.225391"
       cy="-3.4420195"
       cx="62.225391"
       gradientTransform="matrix(1,0,0,0.930233,0,-0.240141)"
       gradientUnits="userSpaceOnUse"
       id="radialGradient8772"
       xlink:href="#linearGradient8740"
       inkscape:collect="always" />
    <radialGradient
       r="10.081216"
       fy="-3.4420195"
       fx="62.225391"
       cy="-3.4420195"
       cx="62.225391"
       gradientTransform="matrix(1,0,0,0.930233,0,-0.240141)"
       gradientUnits="userSpaceOnUse"
       id="radialGradient8770"
       xlink:href="#linearGradient8740"
       inkscape:collect="always" />
    <radialGradient
       inkscape:collect="always"
       xlink:href="#linearGradient8740"
       id="radialGradient2165"
       gradientUnits="userSpaceOnUse"
       gradientTransform="matrix(1,0,0,0.930233,0,-0.240141)"
       cx="62.225391"
       cy="-3.4420195"
       fx="62.225391"
       fy="-3.4420195"
       r="10.081216" />
    <radialGradient
       inkscape:collect="always"
       xlink:href="#linearGradient8740"
       id="radialGradient2903"
       gradientUnits="userSpaceOnUse"
       gradientTransform="matrix(1,0,0,0.930233,0,-0.240141)"
       cx="62.225393"
       cy="-3.4420195"
       fx="62.225393"
       fy="-3.4420195"
       r="10.081216" />
    <radialGradient
       r="10.081216"
       fy="-3.4420195"
       fx="62.225391"
       cy="-3.4420195"
       cx="62.225391"
       gradientTransform="matrix(1,0,0,0.930233,0,-0.240141)"
       gradientUnits="userSpaceOnUse"
       id="radialGradient8764"
       xlink:href="#linearGradient8740"
       inkscape:collect="always" />
    <radialGradient
       inkscape:collect="always"
       xlink:href="#linearGradient8740"
       id="radialGradient2167"
       gradientUnits="userSpaceOnUse"
       gradientTransform="matrix(1,0,0,0.930233,0,-0.240141)"
       cx="62.225391"
       cy="-3.4420195"
       fx="62.225391"
       fy="-3.4420195"
       r="10.081216" />
    <radialGradient
       inkscape:collect="always"
       xlink:href="#linearGradient8740"
       id="radialGradient2901"
       gradientUnits="userSpaceOnUse"
       gradientTransform="matrix(1,0,0,0.930233,0,-0.240141)"
       cx="62.225393"
       cy="-3.4420195"
       fx="62.225393"
       fy="-3.4420195"
       r="10.081216" />
    <radialGradient
       r="10.081216"
       fy="-3.4420195"
       fx="62.225391"
       cy="-3.4420195"
       cx="62.225391"
       gradientTransform="matrix(1,0,0,0.930233,0,-0.240141)"
       gradientUnits="userSpaceOnUse"
       id="radialGradient8758"
       xlink:href="#linearGradient8740"
       inkscape:collect="always" />
    <radialGradient
       r="10.081216"
       fy="-3.4420195"
       fx="62.225391"
       cy="-3.4420195"
       cx="62.225391"
       gradientTransform="matrix(1,0,0,0.930233,0,-0.240141)"
       gradientUnits="userSpaceOnUse"
       id="radialGradient8756"
       xlink:href="#linearGradient8740"
       inkscape:collect="always" />
    <radialGradient
       inkscape:collect="always"
       xlink:href="#linearGradient8740"
       id="radialGradient2169"
       gradientUnits="userSpaceOnUse"
       gradientTransform="matrix(1,0,0,0.930233,0,-0.240141)"
       cx="62.225391"
       cy="-3.4420195"
       fx="62.225391"
       fy="-3.4420195"
       r="10.081216" />
    <radialGradient
       inkscape:collect="always"
       xlink:href="#linearGradient8740"
       id="radialGradient2899"
       gradientUnits="userSpaceOnUse"
       gradientTransform="matrix(1,0,0,0.930233,0,-0.240141)"
       cx="62.225393"
       cy="-3.4420195"
       fx="62.225393"
       fy="-3.4420195"
       r="10.081216" />
    <radialGradient
       r="10.081216"
       fy="-3.4420195"
       fx="62.225391"
       cy="-3.4420195"
       cx="62.225391"
       gradientTransform="matrix(1,0,0,0.930233,0,-0.240141)"
       gradientUnits="userSpaceOnUse"
       id="radialGradient8750"
       xlink:href="#linearGradient8740"
       inkscape:collect="always" />
    <linearGradient
       id="linearGradient8740"
       inkscape:collect="always">
      <stop
         id="stop8742"
         offset="0"
         style="stop-color:#ffffff;stop-opacity:1;" />
      <stop
         id="stop8744"
         offset="1"
         style="stop-color:#ffffff;stop-opacity:0;" />
    </linearGradient>
    <radialGradient
       r="10.081216"
       fy="-3.4420195"
       fx="62.225391"
       cy="-3.4420195"
       cx="62.225391"
       gradientTransform="matrix(1,0,0,0.930233,0,-0.240141)"
       gradientUnits="userSpaceOnUse"
       id="radialGradient8748"
       xlink:href="#linearGradient8740"
       inkscape:collect="always" />
    <linearGradient
       inkscape:collect="always"
       id="linearGradient4873">
      <stop
         style="stop-color:#ffffff;stop-opacity:1;"
         offset="0"
         id="stop4875" />
      <stop
         style="stop-color:#ffffff;stop-opacity:0;"
         offset="1"
         id="stop4877" />
    </linearGradient>
    <linearGradient
       inkscape:collect="always"
       xlink:href="#linearGradient4873"
       id="linearGradient2143"
       gradientUnits="userSpaceOnUse"
       x1="63.397362"
       y1="-9.3832779"
       x2="68.910904"
       y2="16.839214"
       gradientTransform="matrix(1.486266,0,0,1.478007,-73.880208,35.739905)" />
    <linearGradient
       id="linearGradient8647">
      <stop
         id="stop8649"
         offset="0"
         style="stop-color:#8fb1dc;stop-opacity:1;" />
      <stop
         id="stop8651"
         offset="1"
         style="stop-color:#3465a4;stop-opacity:1;" />
    </linearGradient>
    <radialGradient
       inkscape:collect="always"
       xlink:href="#linearGradient8647"
       id="radialGradient2146"
       gradientUnits="userSpaceOnUse"
       gradientTransform="matrix(1.697728,0,0,1.694669,-87.031348,37.415395)"
       cx="62.200352"
       cy="-8.7256308"
       fx="62.200352"
       fy="-8.7256308"
       r="9.7552834" />
    <linearGradient
       id="linearGradient8838"
       inkscape:collect="always">
      <stop
         id="stop8840"
         offset="0"
         style="stop-color:#000000;stop-opacity:1;" />
      <stop
         id="stop8842"
         offset="1"
         style="stop-color:#000000;stop-opacity:0;" />
    </linearGradient>
    <radialGradient
       inkscape:collect="always"
       xlink:href="#linearGradient8838"
       id="radialGradient2068"
       gradientUnits="userSpaceOnUse"
       gradientTransform="matrix(1,0,0,0.341176,0,3.047059)"
       cx="62.625"
       cy="4.625"
       fx="62.625"
       fy="4.625"
       r="10.625" />
    <linearGradient
       inkscape:collect="always"
       id="linearGradient6028">
      <stop
         style="stop-color:#ffffff;stop-opacity:1;"
         offset="0"
         id="stop6030" />
      <stop
         style="stop-color:#ffffff;stop-opacity:0;"
         offset="1"
         id="stop6032" />
    </linearGradient>
    <linearGradient
       inkscape:collect="always"
       xlink:href="#linearGradient6028"
       id="linearGradient3143"
       gradientUnits="userSpaceOnUse"
       x1="28.702885"
       y1="31.494707"
       x2="17.742729"
       y2="18.366575" />
    <linearGradient
       inkscape:collect="always"
       id="linearGradient6036">
      <stop
         style="stop-color:#ffffff;stop-opacity:1;"
         offset="0"
         id="stop6038" />
      <stop
         style="stop-color:#ffffff;stop-opacity:0;"
         offset="1"
         id="stop6040" />
    </linearGradient>
    <linearGradient
       inkscape:collect="always"
       xlink:href="#linearGradient6036"
       id="linearGradient3141"
       gradientUnits="userSpaceOnUse"
       gradientTransform="matrix(0.639377,0,0,0.657102,15.23477,2.1247379)"
       x1="10.50172"
       y1="3.6100161"
       x2="48.798885"
       y2="54.698483" />
    <linearGradient
       inkscape:collect="always"
       id="linearGradient4409">
      <stop
         style="stop-color:#ffffff;stop-opacity:1;"
         offset="0"
         id="stop4411" />
      <stop
         style="stop-color:#ffffff;stop-opacity:0;"
         offset="1"
         id="stop4413" />
    </linearGradient>
    <linearGradient
       inkscape:collect="always"
       xlink:href="#linearGradient4409"
       id="linearGradient3139"
       gradientUnits="userSpaceOnUse"
       gradientTransform="matrix(0.655734,0,0,0.673717,15.219845,2.3694409)"
       x1="25.985928"
       y1="24.919628"
       x2="15.889072"
       y2="11.669628" />
    <linearGradient
       id="aigrd2"
       gradientUnits="userSpaceOnUse"
       x1="12.2744"
       y1="32.4165"
       x2="35.3912"
       y2="14.2033">
      <stop
         offset="0"
         style="stop-color:#FBFBFB"
         id="stop3043" />
      <stop
         offset="0.5"
         style="stop-color:#B6B6B6"
         id="stop3045" />
      <stop
         offset="1"
         style="stop-color:#E4E4E4"
         id="stop3047" />
    </linearGradient>
    <linearGradient
       inkscape:collect="always"
       xlink:href="#aigrd2"
       id="linearGradient3137"
       gradientUnits="userSpaceOnUse"
       gradientTransform="matrix(0.780635,0,0,0.802044,12.066461,2.50599e-2)"
       x1="12.2744"
       y1="32.4165"
       x2="35.391201"
       y2="14.2033" />
    <linearGradient
       id="aigrd1"
       gradientUnits="userSpaceOnUse"
       x1="14.9966"
       y1="11.1885"
       x2="32.511"
       y2="34.3075">
      <stop
         offset="0"
         style="stop-color:#EBEBEB"
         id="stop3034" />
      <stop
         offset="0.5"
         style="stop-color:#FFFFFF"
         id="stop3036" />
      <stop
         offset="1"
         style="stop-color:#EBEBEB"
         id="stop3038" />
    </linearGradient>
    <linearGradient
       inkscape:collect="always"
       xlink:href="#aigrd1"
       id="linearGradient3135"
       gradientUnits="userSpaceOnUse"
       gradientTransform="matrix(0.780636,0,0,0.802043,12.066456,2.50629e-2)"
       x1="14.9966"
       y1="11.1885"
       x2="32.511002"
       y2="34.307499" />
    <linearGradient
       inkscape:collect="always"
       id="linearGradient23419">
      <stop
         style="stop-color:#000000;stop-opacity:1;"
         offset="0"
         id="stop23421" />
      <stop
         style="stop-color:#000000;stop-opacity:0;"
         offset="1"
         id="stop23423" />
    </linearGradient>
    <radialGradient
       inkscape:collect="always"
       xlink:href="#linearGradient23419"
       id="radialGradient3133"
       gradientUnits="userSpaceOnUse"
       gradientTransform="matrix(1,0,0,0.25,0,31.22703)"
       cx="23.334524"
       cy="41.63604"
       fx="23.334524"
       fy="41.63604"
       r="22.627417" />
  </defs>
  <sodipodi:namedview
     id="base"
     pagecolor="#ffffff"
     bordercolor="#666666"
     borderopacity="1.0"
     inkscape:pageopacity="0.0"
     inkscape:pageshadow="2"
     inkscape:zoom="7"
     inkscape:cx="24"
     inkscape:cy="24"
     inkscape:current-layer="layer1"
     showgrid="true"
     inkscape:grid-bbox="true"
     inkscape:document-units="px"
     inkscape:window-width="641"
     inkscape:window-height="690"
     inkscape:window-x="11"
     inkscape:window-y="300" />
  <metadata
     id="metadata7549">
    <rdf:RDF>
      <cc:Work
         rdf:about="">
        <dc:format>image/svg+xml</dc:format>
        <dc:type
           rdf:resource="http://purl.org/dc/dcmitype/StillImage" />
      </cc:Work>
    </rdf:RDF>
  </metadata>
  <g
     id="layer1"
     inkscape:label="Layer 1"
     inkscape:groupmode="layer">
    <path
       sodipodi:type="arc"
       style="opacity:0.55;fill:url(#radialGradient3133);fill-opacity:1;fill-rule:evenodd;stroke:none;stroke-width:2;stroke-linecap:butt;stroke-linejoin:miter;marker:none;marker-start:none;marker-mid:none;marker-end:none;stroke-miterlimit:4;stroke-dasharray:none;stroke-dashoffset:0;stroke-opacity:1;visibility:visible;display:inline;overflow:visible"
       id="path23417"
       sodipodi:cx="23.334524"
       sodipodi:cy="41.63604"
       sodipodi:rx="22.627417"
       sodipodi:ry="5.6568542"
       d="M 45.961941,41.63604 A 22.627417,5.6568542 0 1 1 0.70710754,41.63604 A 22.627417,5.6568542 0 1 1 45.961941,41.63604 z"
       inkscape:r_cx="true"
       inkscape:r_cy="true"
       transform="matrix(0.655734,0,0,0.718377,15.492289,-0.2343891)" />
    <path
       inkscape:r_cy="true"
       inkscape:r_cx="true"
       id="path3040"
       d="M 30.801718,4.5165049 C 23.229549,4.5165049 17.14059,10.772443 17.14059,18.552263 C 17.14059,26.332083 23.229549,32.588021 30.801718,32.588021 C 38.373887,32.588021 44.462847,26.332083 44.462847,18.552263 C 44.462847,10.772443 38.373887,4.5165049 30.801718,4.5165049 L 30.801718,4.5165049 z M 30.801718,21.920845 C 29.006256,21.920845 27.523047,20.396962 27.523047,18.552263 C 27.523047,16.707563 29.006256,15.183681 30.801718,15.183681 C 32.597181,15.183681 34.080389,16.707563 34.080389,18.552263 C 34.080389,20.396962 32.597181,21.920845 30.801718,21.920845 z"
       style="fill:url(#linearGradient3135);fill-rule:nonzero;stroke:none;stroke-miterlimit:4" />
    <path
       inkscape:r_cy="true"
       inkscape:r_cx="true"
       id="path3049"
       d="M 30.801703,4.5165059 C 23.229542,4.5165059 17.140589,10.772448 17.140589,18.552274 C 17.140589,26.332101 23.229542,32.588044 30.801703,32.588044 C 38.373864,32.588044 44.462818,26.332101 44.462818,18.552274 C 44.462818,10.772448 38.373864,4.5165059 30.801703,4.5165059 L 30.801703,4.5165059 z M 30.801703,21.92086 C 29.006243,21.92086 27.523036,20.396976 27.523036,18.552274 C 27.523036,16.707574 29.006243,15.18369 30.801703,15.18369 C 32.597163,15.18369 34.080371,16.707574 34.080371,18.552274 C 34.080371,20.396976 32.597163,21.92086 30.801703,21.92086 z"
       style="fill:url(#linearGradient3137);fill-rule:nonzero;stroke:#808080;stroke-width:0.99999988;stroke-miterlimit:4;stroke-opacity:1" />
    <path
       style="fill:url(#linearGradient3139);fill-opacity:1;fill-rule:nonzero;stroke:none;stroke-miterlimit:4;stroke-opacity:1"
       d="M 30.243067,4.9378739 C 23.186258,5.211342 17.587654,11.147755 17.587654,18.467738 C 17.587654,21.786132 18.733302,24.802282 20.647855,27.14957 L 27.937882,20.809702 C 27.464875,20.241529 27.249863,19.433186 27.249863,18.636168 C 27.249863,16.352006 28.760864,14.885336 30.900581,14.885336 C 31.873641,14.885336 32.848824,15.339035 33.430709,16.061846 L 40.884671,9.8061913 C 38.474735,6.825566 34.822884,4.9378739 30.736648,4.9378739 C 30.565658,4.9378739 30.412431,4.9313099 30.243067,4.9378739 z"
       id="path3531"
       sodipodi:nodetypes="csccssccsc" />
    <path
       inkscape:r_cy="true"
       inkscape:r_cx="true"
       id="path3051"
       d="M 30.801718,11.744921 C 27.101682,11.744921 24.176071,14.839168 24.176071,18.552263 C 24.176071,22.353766 27.18773,25.359605 30.801718,25.359605 C 34.501754,25.359605 37.427365,22.265359 37.427365,18.552263 C 37.427365,14.75076 34.415707,11.744921 30.801718,11.744921 L 30.801718,11.744921 z M 30.801718,22.265359 C 28.822629,22.265359 27.18773,20.585626 27.18773,18.552263 C 27.18773,16.518901 28.822629,14.839168 30.801718,14.839168 C 32.780807,14.839168 34.415707,16.518901 34.415707,18.552263 C 34.415707,20.585626 32.780807,22.265359 30.801718,22.265359 z"
       style="opacity:0.51098902;fill:#eeeeec;fill-rule:nonzero;stroke:none;stroke-miterlimit:4" />
    <path
       inkscape:r_cy="true"
       inkscape:r_cx="true"
       style="opacity:0.54644811;fill:none;fill-rule:nonzero;stroke:url(#linearGradient3141);stroke-width:1;stroke-miterlimit:4;stroke-opacity:1"
       d="M 30.801695,5.543221 C 23.785458,5.543221 18.143535,11.341544 18.143535,18.552278 C 18.143535,25.763012 23.785458,31.561335 30.801695,31.561335 C 37.817932,31.561335 43.459855,25.763012 43.459855,18.552278 C 43.459855,11.341544 37.817932,5.543221 30.801695,5.543221 L 30.801695,5.543221 z"
       id="path5264"
       sodipodi:nodetypes="cccccc" />
    <path
       inkscape:r_cy="true"
       inkscape:r_cx="true"
       sodipodi:type="arc"
       style="opacity:0.67213111;fill:none;fill-opacity:0.31638417;fill-rule:nonzero;stroke:url(#linearGradient3143);stroke-width:1.40001273;stroke-linecap:butt;stroke-linejoin:miter;marker:none;marker-start:none;marker-mid:none;marker-end:none;stroke-miterlimit:4;stroke-dashoffset:0;stroke-opacity:1;visibility:visible;display:inline;overflow:visible"
       id="path6026"
       sodipodi:cx="24.306795"
       sodipodi:cy="24.930641"
       sodipodi:rx="6.0987959"
       sodipodi:ry="6.0987959"
       d="M 30.405591,24.930641 A 6.0987959,6.0987959 0 1 1 18.207999,24.930641 A 6.0987959,6.0987959 0 1 1 30.405591,24.930641 z"
       transform="matrix(0.655734,0,0,0.673717,14.894514,1.7689029)" />
    <path
       sodipodi:type="arc"
       style="opacity:0.56043958;fill:url(#radialGradient2068);fill-opacity:1;fill-rule:evenodd;stroke:none;stroke-width:0.99999988;stroke-linecap:butt;stroke-linejoin:round;marker:none;marker-start:none;marker-mid:none;marker-end:none;stroke-miterlimit:4;stroke-dasharray:none;stroke-dashoffset:0;stroke-opacity:1;visibility:visible;display:inline;overflow:visible"
       id="path8836"
       sodipodi:cx="62.625"
       sodipodi:cy="4.625"
       sodipodi:rx="10.625"
       sodipodi:ry="3.625"
       d="M 73.25,4.625 A 10.625,3.625 0 1 1 52,4.625 A 10.625,3.625 0 1 1 73.25,4.625 z"
       transform="matrix(1.458599,0,0,1.73934,-72.779148,32.032445)" />
    <path
       style="fill:url(#radialGradient2146);fill-opacity:1;fill-rule:nonzero;stroke:#204a87;stroke-width:1.00000036;stroke-miterlimit:4;stroke-dasharray:none"
       d="M 32.567983,30.5018 C 32.567983,38.220103 26.299506,44.477069 18.568157,44.477069 C 10.836103,44.477069 4.567982,38.220032 4.567982,30.5018 C 4.567982,22.783851 10.836103,16.527521 18.568157,16.527521 C 26.299506,16.527521 32.567983,22.783851 32.567983,30.5018 L 32.567983,30.5018 z"
       id="path6495" />
    <path
       id="path8655"
       d="M 31.564257,30.550403 C 31.564257,37.689579 25.744365,43.477066 18.566284,43.477066 C 11.387548,43.477066 5.5679831,37.689513 5.5679831,30.550403 C 5.5679831,23.411554 11.387548,17.624654 18.566284,17.624654 C 25.744365,17.624654 31.564257,23.411554 31.564257,30.550403 L 31.564257,30.550403 z"
       style="opacity:0.52747258;fill:none;fill-opacity:1;fill-rule:nonzero;stroke:url(#linearGradient2143);stroke-width:1.00000072;stroke-miterlimit:4;stroke-dasharray:none;stroke-opacity:1" />
    <image
       style="opacity:0.75;fill:#ffffff;fill-rule:nonzero;stroke:url(#radialGradient8748);stroke-width:1.47392976;stroke-miterlimit:4"
       width="15.730343"
       height="23.937479"
       href="62169F0D.png"
       id="image6522"
       x="17.818626"
       y="18.854721" />
    <image
       style="opacity:0.75;fill:#ffffff;fill-rule:nonzero;stroke:url(#radialGradient8750);stroke-width:1.40602338;stroke-miterlimit:4"
       width="3.5844698"
       height="3.5851264"
       href="62169F0E.png"
       id="image6530"
       x="17.259127"
       y="21.10482" />
    <g
       transform="matrix(0.716894,0,0,0.717025,-0.4769747,15.554905)"
       style="fill:#9db029;fill-rule:nonzero;stroke:url(#radialGradient2899);stroke-width:1.40602338;stroke-miterlimit:4"
       id="g6532">
      <path
         d="M 26.0703,9.2363 L 25.9971,9.7295 L 26.5069,10.0586 L 27.378,9.4829 L 26.9425,8.9892 L 26.3605,9.3188 L 26.0705,9.2363"
         id="path6534"
         style="fill:#9db029;stroke:url(#radialGradient2169);stroke-width:1.40602338" />
    </g>
    <image
       style="opacity:0.75;fill:#ffffff;fill-rule:nonzero;stroke:url(#radialGradient8756);stroke-width:1.47392976;stroke-miterlimit:4"
       width="8.2071362"
       height="6.8392797"
       href="62169F0F.png"
       id="image6538"
       x="13.715061"
       y="16.802937" />
    <image
       style="opacity:0.75;fill:#ffffff;fill-rule:nonzero;stroke:url(#radialGradient8758);stroke-width:1.40602338;stroke-miterlimit:4"
       width="3.5844698"
       height="3.5851264"
       href="62169F10.png"
       id="image6546"
       x="18.692911"
       y="23.255896" />
    <g
       transform="matrix(0.716894,0,0,0.717025,-1.4229387,15.554905)"
       style="fill:#9db029;fill-rule:nonzero;stroke:url(#radialGradient2901);stroke-width:1.40602338;stroke-miterlimit:4"
       id="g6548">
      <path
         d="M 28.833,12.7749 L 28.542,12.0337 L 28.0322,12.1987 L 28.1787,13.103 L 28.833,12.7749"
         id="path6550"
         style="fill:#9db029;stroke:url(#radialGradient2167);stroke-width:1.40602338" />
    </g>
    <image
       style="opacity:0.75;fill:#ffffff;fill-rule:nonzero;stroke:url(#radialGradient8764);stroke-width:1.40602338;stroke-miterlimit:4"
       width="3.5844698"
       height="5.019177"
       href="62169F11.png"
       id="image6554"
       x="19.409809"
       y="22.538872" />
    <g
       transform="matrix(0.716894,0,0,0.717025,-1.1526587,15.554905)"
       style="fill:#9db029;fill-rule:nonzero;stroke:url(#radialGradient2903);stroke-width:1.40602338;stroke-miterlimit:4"
       id="g6556">
      <path
         d="M 29.123,12.6089 L 28.9775,13.5972 L 29.7773,13.4322 L 30.3584,12.857 L 29.8496,12.3629 C 29.6787,11.9078 29.4824,11.483 29.2685,11.0465 L 28.833,11.0465 L 28.833,11.5397 L 29.123,11.8688 L 29.123,12.609"
         id="path6558"
         style="fill:#9db029;stroke:url(#radialGradient2165);stroke-width:1.40602338" />
    </g>
    <image
       style="opacity:0.75;fill:#ffffff;fill-rule:nonzero;stroke:url(#radialGradient8770);stroke-width:1.47392976;stroke-miterlimit:4"
       width="14.362487"
       height="25.305336"
       href="62169F12.png"
       id="image6562"
       x="4.1400661"
       y="18.854721" />
    <image
       style="opacity:0.75;fill:#ffffff;fill-rule:nonzero;stroke:url(#radialGradient8772);stroke-width:1.40602338;stroke-miterlimit:4"
       width="3.5844698"
       height="3.5851264"
       href="62169F13.png"
       id="image6570"
       x="11.869578"
       y="19.04336" />
    <g
       transform="matrix(0.716894,0,0,0.717025,0.5855253,13.493445)"
       style="fill:#9db029;fill-rule:nonzero;stroke:url(#radialGradient2905);stroke-width:1.40602338;stroke-miterlimit:4"
       id="g6572">
      <path
         d="M 16.7656,9.5649 L 17.4922,10.0586 L 18.0742,10.0586 L 18.0742,9.4829 L 17.3476,9.1538 L 16.7656,9.5649"
         id="path6574"
         style="fill:#9db029;stroke:url(#radialGradient2163);stroke-width:1.40602338" />
    </g>
    <image
       style="opacity:0.75;fill:#ffffff;fill-rule:nonzero;stroke:url(#radialGradient8778);stroke-width:1.40602338;stroke-miterlimit:4"
       width="6.4520459"
       height="5.019177"
       href="62169F14.png"
       id="image6578"
       x="9.7188969"
       y="17.60931" />
    <image
       style="opacity:0.75;fill:#ffffff;fill-rule:nonzero;stroke:url(#radialGradient8780);stroke-width:1.47392976;stroke-miterlimit:4"
       width="5.4714236"
       height="4.1035681"
       href="2D44FCEC.png"
       id="image6606"
       x="11.663278"
       y="16.802937" />
    <g
       transform="matrix(0.683928,0,0,0.683928,2.4200333,14.309369)"
       style="fill:#9db029;fill-rule:nonzero;stroke:url(#radialGradient2907);stroke-width:1.47392976;stroke-miterlimit:4"
       id="g6608">
      <path
         d="M 17.4922,7.887132 L 17.856,7.558532 L 18.5831,7.393932 C 19.0811,7.151732 19.5811,6.988632 20.1095,6.817732 L 19.8195,6.324032 L 18.881,6.458832 L 18.4376,6.900732 L 17.7066,7.006732 L 17.0567,7.311932 L 16.7408,7.464732 L 16.5479,7.723032 L 17.4922,7.887132"
         id="path6610"
         style="fill:#9db029;stroke:url(#radialGradient2082);stroke-width:1.47392976" />
    </g>
    <image
       style="opacity:0.75;fill:#ffffff;fill-rule:nonzero;stroke:url(#radialGradient8786);stroke-width:1.40602338;stroke-miterlimit:4"
       width="3.5844698"
       height="3.5851264"
       href="2D44FCED.png"
       id="image6614"
       x="12.586473"
       y="22.628487" />
    <g
       transform="matrix(0.716894,0,0,0.717025,0.8557743,13.898893)"
       style="fill:#9db029;fill-rule:nonzero;stroke:url(#radialGradient2909);stroke-width:1.40602338;stroke-miterlimit:4"
       id="g6616">
      <path
         d="M 18.7285,14.6665 L 19.165,14.0083 L 18.5102,13.5151 L 18.7285,14.6665"
         id="path6618"
         style="fill:#9db029;stroke:url(#radialGradient2161);stroke-width:1.40602338" />
    </g>
    <image
       style="opacity:0.15750002;fill:#ffffff;fill-rule:nonzero;stroke:url(#radialGradient8792);stroke-width:1.47392976;stroke-miterlimit:4"
       width="15.730343"
       height="23.937479"
       href="2D44FCEE.png"
       id="image6624"
       x="17.818626"
       y="18.854721" />
    <image
       style="opacity:0.15750002;fill:#ffffff;fill-rule:nonzero;stroke:url(#radialGradient8794);stroke-width:1.40602338;stroke-miterlimit:4"
       width="3.5844698"
       height="3.5851264"
       href="2D44FCEF.png"
       id="image6632"
       x="17.259127"
       y="21.10482" />
    <image
       style="opacity:0.15750002;fill:#ffffff;fill-rule:nonzero;stroke:url(#radialGradient8796);stroke-width:1.47392976;stroke-miterlimit:4"
       width="8.2071362"
       height="6.8392797"
       href="2D44FCF0.png"
       id="image6640"
       x="13.715061"
       y="16.802937" />
    <image
       style="opacity:0.15750002;fill:#ffffff;fill-rule:nonzero;stroke:url(#radialGradient8798);stroke-width:1.40602338;stroke-miterlimit:4"
       width="3.5844698"
       height="3.5851264"
       href="2D44FCF1.png"
       id="image6648"
       x="18.692911"
       y="23.255896" />
    <image
       style="opacity:0.15750002;fill:#ffffff;fill-rule:nonzero;stroke:url(#radialGradient8800);stroke-width:1.40602338;stroke-miterlimit:4"
       width="3.5844698"
       height="5.019177"
       href="2D44FCF2.png"
       id="image6656"
       x="19.409809"
       y="22.538872" />
    <image
       style="opacity:0.15750002;fill:#ffffff;fill-rule:nonzero;stroke:url(#radialGradient8802);stroke-width:1.47392976;stroke-miterlimit:4"
       width="14.362487"
       height="25.305336"
       href="2D44FCF3.png"
       id="image6664"
       x="4.1400661"
       y="18.854721" />
    <image
       style="opacity:0.15750002;fill:#ffffff;fill-rule:nonzero;stroke:url(#radialGradient8804);stroke-width:1.40602338;stroke-miterlimit:4"
       width="3.5844698"
       height="3.5851264"
       href="2D44FCF4.png"
       id="image6672"
       x="11.869578"
       y="19.04336" />
    <image
       style="opacity:0.15750002;fill:#ffffff;fill-rule:nonzero;stroke:url(#radialGradient8806);stroke-width:1.40602338;stroke-miterlimit:4"
       width="6.4520459"
       height="5.019177"
       href="2D44FCF5.png"
       id="image6680"
       x="9.7188969"
       y="17.60931" />
    <image
       style="opacity:0.15750002;fill:#ffffff;fill-rule:nonzero;stroke:url(#radialGradient8808);stroke-width:1.47392976;stroke-miterlimit:4"
       width="5.4714236"
       height="4.1035681"
       href="2D44FD11.png"
       id="image6708"
       x="11.663278"
       y="16.802937" />
    <image
       style="opacity:0.15750002;fill:#ffffff;fill-rule:nonzero;stroke:url(#radialGradient8810);stroke-width:1.40602338;stroke-miterlimit:4"
       width="3.5844698"
       height="3.5851264"
       href="2D44FD12.png"
       id="image6716"
       x="12.586473"
       y="22.628487" />
    <g
       transform="matrix(0.716894,0,0,0.717025,1.1260693,13.42587)"
       style="fill:url(#radialGradient2911);fill-opacity:1;fill-rule:nonzero;stroke:url(#radialGradient2913);stroke-width:1.40602338;stroke-miterlimit:4"
       id="g6564">
      <path
         d="M 17.943241,27.768799 L 17.424668,26.742079 L 16.453191,26.522353 L 15.935064,25.130138 L 14.639881,25.276354 L 13.539117,24.470606 L 12.372685,25.496524 L 12.372685,25.658333 C 12.019842,25.55649 11.586095,25.54259 11.271922,25.349417 L 11.012635,24.616733 L 11.012635,23.810095 L 10.235579,23.883158 C 10.300445,23.369754 10.364776,22.85724 10.430088,22.343925 L 9.9762924,22.343925 L 9.523388,22.930393 L 9.0695925,23.149672 L 8.4217333,22.784177 L 8.3568672,21.977538 L 8.4865103,21.097836 L 9.4584328,20.365152 L 10.23549,20.365152 L 10.364687,19.9249 L 11.336164,20.144179 L 12.0488,21.024772 L 12.178443,19.557711 L 13.409207,18.531793 L 13.862557,17.431921 L 14.769256,17.065623 L 15.287383,16.332939 L 16.452924,16.111966 L 17.036363,15.233155 C 16.45337,15.233155 15.870376,15.233155 15.287383,15.233155 L 16.388503,14.719751 L 17.165115,14.719751 L 18.26668,14.352562 L 18.396323,13.914003 L 18.007394,13.546815 L 17.554044,13.399797 L 17.683687,12.960347 L 17.35998,12.300815 L 16.582478,12.593158 L 16.712121,12.007136 L 15.805421,11.493731 L 15.093231,12.739285 L 15.157651,13.179537 L 14.445461,13.473662 L 13.991665,14.426428 L 13.797601,13.546726 L 12.566838,13.033321 L 12.372329,12.37379 L 13.991665,11.420133 L 14.704301,10.760601 L 14.769167,9.9544084 L 14.380684,9.7342382 L 13.862557,9.6607292 L 13.53885,10.467367 C 13.53885,10.467367 12.9972,10.573488 12.857934,10.607881 C 11.079373,12.246819 7.4857189,15.784785 6.650835,22.463945 C 6.6838918,22.618804 7.2560145,23.516772 7.2560145,23.516772 L 8.6160643,24.322519 L 9.9761142,24.689708 L 10.559553,25.423194 L 11.465807,26.082725 L 11.983934,26.009662 L 12.372418,26.184569 L 12.372418,26.302896 L 11.854647,27.695557 L 11.465718,28.282025 L 11.595361,28.57615 L 11.271654,29.674241 L 12.437641,31.800833 L 13.603181,32.827553 L 14.121754,33.560237 L 14.056531,35.100362 L 14.445461,35.979173 L 14.056531,37.665514 C 14.056531,37.665514 14.026058,37.655089 14.075688,37.823848 C 14.125763,37.992695 16.150958,39.116893 16.27971,39.021198 C 16.408017,38.92372 16.517701,38.83845 16.517701,38.83845 L 16.388503,38.472954 L 16.906274,37.95955 L 17.100783,37.446145 L 17.943063,37.15202 L 18.590476,35.538832 L 18.396413,35.100273 L 18.848871,34.440741 L 19.820794,34.219769 L 20.339366,33.046833 L 20.209723,31.581554 L 20.98678,30.481681 L 21.116423,29.381808 C 20.053082,28.854504 18.998473,28.311518 17.943063,27.76862"
         id="path6566"
         style="fill:url(#radialGradient2157);fill-opacity:1;stroke:url(#radialGradient2159);stroke-width:1.40602338" />
    </g>
    <g
       transform="matrix(0.683928,0,0,0.683928,1.7754193,14.438295)"
       style="fill:url(#radialGradient2915);fill-opacity:1;fill-rule:nonzero;stroke:url(#radialGradient2917);stroke-width:1.47392976;stroke-miterlimit:4"
       id="g6540">
      <path
         d="M 26.8701,6.6933256 L 24.9795,5.9526256 L 22.7998,6.1992256 L 20.1094,6.9394256 L 19.6006,7.4335256 L 21.2725,8.5849256 L 21.2725,9.2431256 L 20.6182,9.9013256 L 21.4912,11.630324 L 22.0713,11.300224 L 22.7998,10.148825 C 23.9228,9.8016256 24.9297,9.4081256 25.9971,8.9144256 L 26.8701,6.6932256"
         id="path6542"
         style="fill:url(#radialGradient2090);fill-opacity:1;stroke:url(#radialGradient2092);stroke-width:1.47392976" />
    </g>
    <g
       transform="matrix(0.716894,0,0,0.717025,1.2612083,13.223116)"
       style="fill:url(#radialGradient2919);fill-opacity:1;fill-rule:nonzero;stroke:url(#radialGradient2921);stroke-width:1.40602338;stroke-miterlimit:4"
       id="g6580">
      <path
         d="M 15.187259,9.6334723 L 14.823459,10.538271 L 15.550559,10.538271 L 15.914359,9.7154723 C 16.227859,9.4937723 16.539859,9.2706723 16.859159,9.0572723 L 17.586259,9.3043723 C 18.070659,9.6334723 18.555059,9.9625723 19.039859,10.291172 L 19.767359,9.6334723 L 18.967059,9.3043723 L 18.603259,8.5636723 L 17.222359,8.3990723 L 17.149559,7.9874723 L 16.495259,8.1524723 L 16.204859,8.7282723 L 15.841059,7.9875723 L 15.696059,8.3166723 L 15.768859,9.1394723 L 15.187259,9.6334723"
         id="path6582"
         style="fill:url(#radialGradient2153);fill-opacity:1;stroke:url(#radialGradient2155);stroke-width:1.40602338" />
    </g>
    <g
       transform="matrix(0.716894,0,0,0.717025,0.1801203,13.628609)"
       style="fill:url(#radialGradient2923);fill-opacity:1;fill-rule:nonzero;stroke:url(#radialGradient2925);stroke-width:1.40602338;stroke-miterlimit:4"
       id="g6626">
      <path
         d="M 42.893123,20.729176 C 42.893123,20.97037 42.893123,20.729176 42.893123,20.729176 L 42.392832,21.295848 C 42.086175,20.934471 41.741875,20.630568 41.392249,20.313169 L 40.624781,20.4261 L 39.923602,19.633475 L 39.923602,20.614409 L 40.524337,21.068977 L 40.924185,21.521801 L 41.458539,20.917485 C 41.593045,21.169421 41.725716,21.421357 41.859304,21.673293 L 41.859304,22.428275 L 41.257651,23.107877 L 40.156625,23.863685 L 39.322775,24.69579 L 38.788421,24.089638 L 39.055598,23.410035 L 38.522071,22.80572 L 37.621014,20.87975 L 36.853546,20.011838 L 36.652658,20.237791 L 36.953898,21.333492 L 37.52057,21.975451 C 37.844212,22.909744 38.164366,23.802721 38.58937,24.69579 C 39.248406,24.69579 39.869708,24.625828 40.524245,24.54338 L 40.524245,25.072409 L 39.723541,27.036481 L 38.989217,27.86675 L 38.388482,29.152504 C 38.388482,29.857264 38.388482,30.562024 38.388482,31.266692 L 38.58937,32.098797 L 38.255812,32.475415 L 37.52057,32.929065 L 36.753102,33.571024 L 37.3879,34.288362 L 36.519988,35.045089 L 36.686721,35.534638 L 35.384807,37.008702 L 34.517813,37.008702 L 33.783489,37.462352 L 33.315425,37.462352 L 33.315425,36.858036 L 33.116373,35.647568 C 32.858102,34.889006 32.589181,34.13586 32.315668,33.382715 C 32.315668,32.826785 32.348813,32.276272 32.382049,31.720433 L 32.716526,30.965452 L 32.248461,30.05806 L 32.282524,28.811785 L 31.647726,28.094447 L 31.965125,27.056129 L 31.448674,26.470176 L 30.5467,26.470176 L 30.246378,26.130375 L 29.345321,26.697506 L 28.978619,26.28104 L 28.143851,26.998746 C 27.577179,26.356327 27.009588,25.714368 26.44209,25.072409 L 25.774974,23.485414 L 26.375709,22.579859 L 26.042151,22.202414 L 26.775556,20.463835 C 27.378127,19.714271 28.007508,18.995188 28.644142,18.273443 L 29.779231,17.971285 L 31.047083,17.820619 L 31.914995,18.04749 L 33.14961,19.292847 L 33.583611,18.80238 L 34.183428,18.727093 L 35.318517,19.104538 L 36.18643,19.104538 L 36.787165,18.575509 L 37.054342,18.198064 L 36.452688,17.820619 L 35.451188,17.745332 C 35.173269,17.359808 34.914998,16.954543 34.58502,16.611988 L 34.250544,16.762653 L 34.116955,17.745332 L 33.51622,17.065729 L 33.38355,16.309003 L 32.716434,15.781811 L 32.448339,15.781811 L 33.116281,16.536792 L 32.849104,17.216395 L 32.315577,17.367061 L 32.649135,16.687458 L 32.047481,16.386218 L 31.514872,15.781903 L 30.512453,16.007855 L 30.379783,16.309095 L 29.779048,16.687458 L 29.44549,17.518645 L 28.61164,17.933733 L 28.24402,17.518645 L 27.844172,17.518645 L 27.844172,16.158521 L 28.712084,15.704871 L 29.3792,15.704871 L 29.244694,15.176761 L 28.712084,14.647732 L 29.612315,14.458504 L 30.112606,13.89275 L 30.512453,13.212229 L 31.247695,13.212229 L 31.046807,12.684119 L 31.514872,12.381961 L 31.514872,12.986276 L 32.515454,13.212229 L 33.516037,12.381961 L 33.583244,12.003598 L 34.450238,11.399741 C 34.13642,11.438762 33.822602,11.467407 33.515945,11.550866 L 33.515945,10.870437 L 33.849503,10.114996 L 33.515945,10.114996 L 32.782907,10.794599 L 32.582019,11.172503 L 32.782907,11.701991 L 32.448431,12.607546 L 31.914903,12.305388 L 31.448674,11.777278 L 30.713433,12.305388 L 30.446256,11.097216 L 31.714107,10.266488 L 31.714107,9.8128376 L 32.515638,9.284268 L 33.783489,8.981651 L 34.651401,9.284268 L 36.252719,9.5864259 L 35.852871,10.03925 L 34.984959,10.03925 L 35.852871,10.945724 L 36.519988,10.190742 L 36.72262,9.8585606 C 36.72262,9.8585606 39.281551,12.15206 40.743955,14.660861 C 42.206359,17.170489 42.893123,20.128441 42.893123,20.729176 z"
         id="path6628"
         style="fill:url(#radialGradient2149);fill-opacity:1;stroke:url(#radialGradient2151);stroke-width:1.40602338" />
    </g>
  </g>
</svg>
