<?xml version="1.0" encoding="UTF-8" standalone="no"?>
<!-- Created with Inkscape (http://www.inkscape.org/) -->
<svg
   xmlns:dc="http://purl.org/dc/elements/1.1/"
   xmlns:cc="http://creativecommons.org/ns#"
   xmlns:rdf="http://www.w3.org/1999/02/22-rdf-syntax-ns#"
   xmlns:svg="http://www.w3.org/2000/svg"
   xmlns="http://www.w3.org/2000/svg"
   xmlns:xlink="http://www.w3.org/1999/xlink"
   xmlns:sodipodi="http://sodipodi.sourceforge.net/DTD/sodipodi-0.dtd"
   xmlns:inkscape="http://www.inkscape.org/namespaces/inkscape"
   width="48px"
   height="48px"
   id="svg7370"
   sodipodi:version="0.32"
   inkscape:version="0.46"
   sodipodi:docname="drawing-1.svg"
   inkscape:output_extension="org.inkscape.output.svg.inkscape">
  <defs
     id="defs7372">
    <linearGradient
       inkscape:collect="always"
       xlink:href="#linearGradient3276"
       id="linearGradient7461"
       gradientUnits="userSpaceOnUse"
       gradientTransform="translate(-19.999977,19.998922)"
       x1="25.780254"
       y1="4.9405351"
       x2="38.929008"
       y2="19.713167" />
    <linearGradient
       id="linearGradient3276">
      <stop
         style="stop-color:#fcaf3e;stop-opacity:1;"
         offset="0"
         id="stop3278" />
      <stop
         style="stop-color:#f99603;stop-opacity:1;"
         offset="1"
         id="stop3280" />
    </linearGradient>
    <linearGradient
       inkscape:collect="always"
       xlink:href="#linearGradient3276"
       id="linearGradient7467"
       gradientUnits="userSpaceOnUse"
       gradientTransform="translate(1.0000236,-1.0010782)"
       x1="25.780254"
       y1="4.9405351"
       x2="38.929008"
       y2="19.713167" />
    <linearGradient
       id="linearGradient3259">
      <stop
         style="stop-color:#729fcf;stop-opacity:1;"
         offset="0"
         id="stop3261" />
      <stop
         style="stop-color:#3f7ab9;stop-opacity:1;"
         offset="1"
         id="stop3263" />
    </linearGradient>
    <linearGradient
       inkscape:collect="always"
       xlink:href="#linearGradient3259"
       id="linearGradient3265"
       x1="25.19068"
       y1="8.6671848"
       x2="25.19068"
       y2="43.347984"
       gradientUnits="userSpaceOnUse"
       gradientTransform="matrix(1.0232558,0,0,1.0232558,-5.8139358e-2,-3.4884284e-2)" />
    <radialGradient
       inkscape:collect="always"
       xlink:href="#linearGradient5060"
       id="radialGradient9190"
       gradientUnits="userSpaceOnUse"
       gradientTransform="matrix(-2.774389,0,0,1.969706,112.7623,-872.8854)"
       cx="605.71429"
       cy="486.64789"
       fx="605.71429"
       fy="486.64789"
       r="117.14286" />
    <linearGradient
       inkscape:collect="always"
       id="linearGradient5060">
      <stop
         style="stop-color:black;stop-opacity:1;"
         offset="0"
         id="stop5062" />
      <stop
         style="stop-color:black;stop-opacity:0;"
         offset="1"
         id="stop5064" />
    </linearGradient>
    <radialGradient
       inkscape:collect="always"
       xlink:href="#linearGradient5060"
       id="radialGradient9188"
       gradientUnits="userSpaceOnUse"
       gradientTransform="matrix(2.774389,0,0,1.969706,-1891.633,-872.8854)"
       cx="605.71429"
       cy="486.64789"
       fx="605.71429"
       fy="486.64789"
       r="117.14286" />
    <linearGradient
       id="linearGradient5048">
      <stop
         style="stop-color:black;stop-opacity:0;"
         offset="0"
         id="stop5050" />
      <stop
         id="stop5056"
         offset="0.5"
         style="stop-color:black;stop-opacity:1;" />
      <stop
         style="stop-color:black;stop-opacity:0;"
         offset="1"
         id="stop5052" />
    </linearGradient>
    <linearGradient
       inkscape:collect="always"
       xlink:href="#linearGradient5048"
       id="linearGradient9186"
       gradientUnits="userSpaceOnUse"
       gradientTransform="matrix(2.774389,0,0,1.969706,-1892.179,-872.8854)"
       x1="302.85715"
       y1="366.64789"
       x2="302.85715"
       y2="609.50507" />
  </defs>
  <sodipodi:namedview
     id="base"
     pagecolor="#ffffff"
     bordercolor="#666666"
     borderopacity="1.0"
     inkscape:pageopacity="0.0"
     inkscape:pageshadow="2"
     inkscape:zoom="7"
     inkscape:cx="24"
     inkscape:cy="24"
     inkscape:current-layer="layer1"
     showgrid="true"
     inkscape:grid-bbox="true"
     inkscape:document-units="px"
     inkscape:window-width="641"
     inkscape:window-height="690"
     inkscape:window-x="10"
     inkscape:window-y="331" />
  <metadata
     id="metadata7375">
    <rdf:RDF>
      <cc:Work
         rdf:about="">
        <dc:format>image/svg+xml</dc:format>
        <dc:type
           rdf:resource="http://purl.org/dc/dcmitype/StillImage" />
      </cc:Work>
    </rdf:RDF>
  </metadata>
  <g
     id="layer1"
     inkscape:label="Layer 1"
     inkscape:groupmode="layer">
    <g
       id="g13071"
       transform="matrix(2.3640267e-2,0,0,2.0904881e-2,45.026494,41.1503)"
       style="display:inline">
      <rect
         y="-150.69685"
         x="-1559.2523"
         height="478.35718"
         width="1339.6335"
         id="rect13073"
         style="opacity:0.6;fill:url(#linearGradient9186);fill-opacity:1;fill-rule:nonzero;stroke:none;stroke-width:1;stroke-linecap:round;stroke-linejoin:miter;marker:none;marker-start:none;marker-mid:none;marker-end:none;stroke-miterlimit:4;stroke-dasharray:none;stroke-dashoffset:0;stroke-opacity:1;visibility:visible;display:inline;overflow:visible" />
      <path
         sodipodi:nodetypes="cccc"
         id="path13075"
         d="M -219.61876,-150.68038 C -219.61876,-150.68038 -219.61876,327.65041 -219.61876,327.65041 C -76.744594,328.55086 125.78146,220.48075 125.78138,88.454235 C 125.78138,-43.572302 -33.655436,-150.68036 -219.61876,-150.68038 z"
         style="opacity:0.6;fill:url(#radialGradient9188);fill-opacity:1;fill-rule:nonzero;stroke:none;stroke-width:1;stroke-linecap:round;stroke-linejoin:miter;marker:none;marker-start:none;marker-mid:none;marker-end:none;stroke-miterlimit:4;stroke-dasharray:none;stroke-dashoffset:0;stroke-opacity:1;visibility:visible;display:inline;overflow:visible" />
      <path
         style="opacity:0.6;fill:url(#radialGradient9190);fill-opacity:1;fill-rule:nonzero;stroke:none;stroke-width:1;stroke-linecap:round;stroke-linejoin:miter;marker:none;marker-start:none;marker-mid:none;marker-end:none;stroke-miterlimit:4;stroke-dasharray:none;stroke-dashoffset:0;stroke-opacity:1;visibility:visible;display:inline;overflow:visible"
         d="M -1559.2523,-150.68038 C -1559.2523,-150.68038 -1559.2523,327.65041 -1559.2523,327.65041 C -1702.1265,328.55086 -1904.6525,220.48075 -1904.6525,88.454235 C -1904.6525,-43.572302 -1745.2157,-150.68036 -1559.2523,-150.68038 z"
         id="path13077"
         sodipodi:nodetypes="cccc" />
    </g>
    <rect
       style="opacity:1;fill:url(#linearGradient3265);fill-opacity:1;fill-rule:nonzero;stroke:#204a87;stroke-width:1;stroke-linecap:square;stroke-linejoin:miter;stroke-miterlimit:4;stroke-dasharray:none;stroke-dashoffset:0;stroke-opacity:1"
       id="rect2286"
       width="44"
       height="44"
       x="2.5000002"
       y="1.4999994"
       rx="5"
       ry="5" />
    <path
       style="fill:url(#linearGradient7467);fill-opacity:1;fill-rule:evenodd;stroke:#555753;stroke-width:1;stroke-linecap:round;stroke-linejoin:round;stroke-miterlimit:4;stroke-dasharray:none;stroke-dashoffset:0;stroke-opacity:1"
       d="M 27.216067,4.4989214 C 26.522664,4.4989214 26.500023,4.4948744 26.500023,5.3103374 L 26.500023,20.590885 C 26.500023,21.528911 26.483024,21.498922 27.368739,21.498922 L 42.622317,21.498922 C 43.499458,21.498922 43.500023,21.553445 43.500023,20.887126 L 43.500023,5.1959264 C 43.500023,4.5371934 43.396686,4.4989214 42.703283,4.4989214 L 27.216067,4.4989214 z M 39.500023,8.4999994 L 39.500023,17.5 L 30.500023,17.5 L 30.500023,8.4999994 L 39.500023,8.4999994 z"
       id="path7463"
       sodipodi:nodetypes="cccccccccccccc" />
    <rect
       ry="4"
       rx="4"
       y="2.4999998"
       x="3.4999955"
       height="42"
       width="42.000004"
       id="rect3257"
       style="opacity:0.36263739;fill:none;fill-opacity:1;fill-rule:nonzero;stroke:#eeeeec;stroke-width:1;stroke-linecap:square;stroke-linejoin:miter;stroke-miterlimit:4;stroke-dasharray:none;stroke-dashoffset:0;stroke-opacity:1" />
    <path
       style="opacity:0.5;fill:none;fill-rule:evenodd;stroke:#eeeeec;stroke-width:1px;stroke-linecap:butt;stroke-linejoin:miter;stroke-opacity:1"
       d="M 27.500023,20.498922 L 42.500023,20.498922 L 42.500023,5.4989214 L 27.500023,5.4989214 L 27.500023,20.498922 z"
       id="path7465"
       sodipodi:nodetypes="ccccc" />
    <g
       id="g3297"
       style="opacity:0.19230772">
      <path
         sodipodi:nodetypes="ccsscccccccccccccsscc"
         id="path3261"
         d="M 9,5.472272 C 7.62,5.472272 6.5,6.592272 6.5,7.972272 C 6.554785,11.816182 6.500205,16.010888 6.5,19.972272 C 6.5,21.352272 7.620001,22.472272 9,22.472272 C 10.38,22.472272 11.500001,21.352272 11.5,19.972272 L 11.5,13.909772 L 16.5,18.909772 L 16.5,20.472272 L 16.5,23.5 L 21.5,23.5 L 21.5,22.472272 C 21.5,20.47039 21.500142,20.472272 23.5,20.472272 L 24.483534,20.472272 L 24.483534,15.472272 L 21.5,15.472272 L 20.125,15.472272 L 15.125,10.472272 C 17.117064,10.472581 19.139023,10.472272 21,10.472272 C 22.38,10.472272 23.5,9.352272 23.5,7.972272 C 23.5,6.592272 22.38,5.472272 21,5.472272 C 17.156131,5.529199 12.96161,5.472934 9,5.472272 z"
         style="opacity:1;fill:#000000;fill-opacity:1;fill-rule:nonzero;stroke:#000000;stroke-width:1;stroke-linecap:square;stroke-linejoin:miter;stroke-miterlimit:4;stroke-dasharray:none;stroke-dashoffset:0;stroke-opacity:1" />
      <path
         sodipodi:nodetypes="ccsscccccccccccccsscc"
         id="path3257"
         d="M 41.983534,43.5 C 43.244744,43.5 44.483534,42.074794 44.483534,41 C 44.428749,37.15609 44.483329,32.961384 44.483534,29 C 44.483534,27.62 43.363533,26.5 41.983534,26.5 C 40.603534,26.5 39.483533,27.62 39.483534,29 L 39.483534,35.0625 L 34.483534,30.0625 L 34.483534,28.5 L 34.483534,25.472272 L 29.483534,25.472272 L 29.483534,26.5 C 29.483534,28.501882 29.483392,28.5 27.483534,28.5 L 26.5,28.5 L 26.5,33.5 L 29.483534,33.5 L 30.858534,33.5 L 35.858534,38.5 C 33.86647,38.499691 31.844511,38.5 29.983534,38.5 C 28.603534,38.5 27.483534,39.62 27.483534,41 C 27.483534,42.38 28.603534,43.5 29.983534,43.5 C 33.827403,43.443073 38.021924,43.499338 41.983534,43.5 z"
         style="opacity:1;fill:#000000;fill-opacity:1;fill-rule:nonzero;stroke:#000000;stroke-width:1;stroke-linecap:square;stroke-linejoin:miter;stroke-miterlimit:4;stroke-dasharray:none;stroke-dashoffset:0;stroke-opacity:1" />
    </g>
    <g
       id="g3269"
       style="stroke:#836700;stroke-opacity:1">
      <path
         style="opacity:1;fill:#ffd201;fill-opacity:1;fill-rule:nonzero;stroke:#836700;stroke-width:1;stroke-linecap:square;stroke-linejoin:miter;stroke-miterlimit:4;stroke-dasharray:none;stroke-dashoffset:0;stroke-opacity:1"
         d="M 8,4.5 C 6.62,4.5 5.5,5.62 5.5,7 C 5.554785,10.84391 5.500205,15.038616 5.5,19 C 5.5,20.38 6.620001,21.5 8,21.5 C 9.38,21.5 10.500001,20.38 10.5,19 L 10.5,12.9375 L 15.5,17.9375 L 15.5,19.5 L 15.5,22.527728 L 20.5,22.527728 L 20.5,21.5 C 20.5,19.498118 20.500142,19.5 22.5,19.5 L 23.483534,19.5 L 23.483534,14.5 L 20.5,14.5 L 19.125,14.5 L 14.125,9.5 C 16.117064,9.5003089 18.139023,9.5 20,9.5 C 21.38,9.5 22.5,8.3799999 22.5,7 C 22.5,5.62 21.38,4.5 20,4.5 C 16.156131,4.5569268 11.96161,4.5006617 8,4.5 z"
         id="path3326"
         sodipodi:nodetypes="ccsscccccccccccccsscc" />
      <path
         style="opacity:1;fill:#ffd201;fill-opacity:1;fill-rule:nonzero;stroke:#836700;stroke-width:1;stroke-linecap:square;stroke-linejoin:miter;stroke-miterlimit:4;stroke-dasharray:none;stroke-dashoffset:0;stroke-opacity:1"
         d="M 40.983534,42.5 C 42.363534,42.5 43.483534,41.38 43.483534,40 C 43.428749,36.15609 43.483329,31.961384 43.483534,28 C 43.483534,26.62 42.363533,25.5 40.983534,25.5 C 39.603534,25.5 38.483533,26.62 38.483534,28 L 38.483534,34.0625 L 33.483534,29.0625 L 33.483534,27.5 L 33.483534,24.472272 L 28.483534,24.472272 L 28.483534,25.5 C 28.483534,27.501882 28.483392,27.5 26.483534,27.5 L 25.5,27.5 L 25.5,32.5 L 28.483534,32.5 L 29.858534,32.5 L 34.858534,37.5 C 32.86647,37.499691 30.844511,37.5 28.983534,37.5 C 27.603534,37.5 26.483534,38.62 26.483534,40 C 26.483534,41.38 27.603534,42.5 28.983534,42.5 C 32.827403,42.443073 37.021924,42.499338 40.983534,42.5 z"
         id="path3334"
         sodipodi:nodetypes="ccsscccccccccccccsscc" />
    </g>
    <g
       id="g3343"
       style="opacity:0.5">
      <path
         sodipodi:nodetypes="ccsscccccccccccccsscc"
         id="path3363"
         d="M 8.724257,5.5 C 6.9339673,5.5 6.5000002,5.8679688 6.5000002,7.7188043 C 6.5487426,11.130358 6.5001826,14.853251 6.5000002,18.369065 C 6.5000002,19.593845 6.7464682,20.499482 7.9742572,20.499482 C 9.202047,20.499482 9.511015,19.593845 9.511014,18.369065 L 9.511014,10.613465 L 16.522028,17.551073 L 16.522028,18.812826 L 16.522028,21.5 L 19.470542,21.5 L 19.470542,20.58787 C 19.470542,19.061156 20.344143,18.500326 21.624948,18.500326 L 22.500001,18.500326 L 22.500001,15.500217 L 19.845542,15.500217 L 18.747201,15.500217 L 11.673687,8.5001086 C 13.446032,8.500383 17.568197,8.5001086 19.223914,8.5001086 C 20.451704,8.5001086 21.448171,8.1935843 21.448171,6.9688043 C 21.448171,5.7440244 20.628481,5.5 19.400691,5.5 C 15.98079,5.5505239 12.248913,5.5005873 8.724257,5.5 z"
         style="opacity:1;fill:none;fill-opacity:1;fill-rule:nonzero;stroke:#ffffff;stroke-width:1;stroke-linecap:square;stroke-linejoin:miter;stroke-miterlimit:4;stroke-dasharray:none;stroke-dashoffset:0;stroke-opacity:1" />
      <path
         sodipodi:nodetypes="ccsscccccccccccccsscc"
         id="path3367"
         d="M 40.275744,41.5 C 42.066034,41.5 42.500001,41.132031 42.500001,39.281196 C 42.451258,35.869642 42.499818,32.146749 42.500001,28.630935 C 42.500001,27.406155 42.253533,26.500518 41.025744,26.500518 C 39.797954,26.500518 39.488986,27.406155 39.488987,28.630935 L 39.488987,36.386535 L 32.477973,29.448927 L 32.477973,28.187174 L 32.477973,25.5 L 29.529459,25.5 L 29.529459,26.41213 C 29.529459,27.938844 28.655858,28.499674 27.375053,28.499674 L 26.5,28.499674 L 26.5,31.499783 L 29.154459,31.499783 L 30.2528,31.499783 L 37.326314,38.499891 C 35.553969,38.499617 31.431804,38.499891 29.776087,38.499891 C 28.548297,38.499891 27.55183,38.806416 27.55183,40.031196 C 27.55183,41.255976 28.37152,41.5 29.59931,41.5 C 33.019211,41.449476 36.751088,41.499413 40.275744,41.5 z"
         style="opacity:1;fill:none;fill-opacity:1;fill-rule:nonzero;stroke:#ffffff;stroke-width:1;stroke-linecap:square;stroke-linejoin:miter;stroke-miterlimit:4;stroke-dasharray:none;stroke-dashoffset:0;stroke-opacity:1" />
    </g>
    <path
       style="opacity:0.10989009;fill:#ffffff;fill-opacity:1;fill-rule:nonzero;stroke:none;stroke-width:0.99999994;stroke-linecap:square;stroke-linejoin:miter;stroke-miterlimit:4;stroke-dashoffset:0;stroke-opacity:1"
       d="M 7.1159206,1.9999994 L 41.77513,1.9999994 C 43.743725,1.9999994 45.641051,3.5609994 45.641051,5.4999994 L 46,21.38128 L 2.9999996,25.270367 L 2.9999996,5.9374994 C 2.9999996,3.9984994 5.1473256,1.9999994 7.1159206,1.9999994 z"
       id="rect3267"
       sodipodi:nodetypes="ccccccc" />
    <path
       style="fill:url(#linearGradient7461);fill-opacity:1;fill-rule:evenodd;stroke:#555753;stroke-width:1;stroke-linecap:round;stroke-linejoin:round;stroke-miterlimit:4;stroke-dasharray:none;stroke-dashoffset:0;stroke-opacity:1"
       d="M 6.2160666,25.498922 C 5.5226636,25.498922 5.5000226,25.494875 5.5000226,26.310338 L 5.5000226,41.590885 C 5.5000226,42.528911 5.4830236,42.498922 6.3687386,42.498922 L 21.622317,42.498922 C 22.499458,42.498922 22.500023,42.553445 22.500023,41.887126 L 22.500023,26.195927 C 22.500023,25.537194 22.396686,25.498922 21.703283,25.498922 L 6.2160666,25.498922 z M 18.500023,29.5 L 18.500023,38.5 L 9.5000236,38.5 L 9.5000236,29.5 L 18.500023,29.5 z"
       id="path3262"
       sodipodi:nodetypes="cccccccccccccc" />
    <path
       style="opacity:0.5;fill:none;fill-rule:evenodd;stroke:#eeeeec;stroke-width:1px;stroke-linecap:butt;stroke-linejoin:miter;stroke-opacity:1"
       d="M 6.5000226,41.498922 L 21.500023,41.498922 L 21.500023,26.498922 L 6.5000226,26.498922 L 6.5000226,41.498922 z"
       id="path6312"
       sodipodi:nodetypes="ccccc" />
  </g>
</svg>
