<?xml version="1.0" encoding="UTF-8" standalone="no"?>
<!-- Created with Inkscape (http://www.inkscape.org/) -->
<svg
   xmlns:dc="http://purl.org/dc/elements/1.1/"
   xmlns:cc="http://creativecommons.org/ns#"
   xmlns:rdf="http://www.w3.org/1999/02/22-rdf-syntax-ns#"
   xmlns:svg="http://www.w3.org/2000/svg"
   xmlns="http://www.w3.org/2000/svg"
   xmlns:xlink="http://www.w3.org/1999/xlink"
   xmlns:sodipodi="http://sodipodi.sourceforge.net/DTD/sodipodi-0.dtd"
   xmlns:inkscape="http://www.inkscape.org/namespaces/inkscape"
   width="48px"
   height="48px"
   id="svg8108"
   sodipodi:version="0.32"
   inkscape:version="0.46"
   sodipodi:docname="drawing-1.svg"
   inkscape:output_extension="org.inkscape.output.svg.inkscape">
  <defs
     id="defs8110">
    <linearGradient
       id="linearGradient3282"
       inkscape:collect="always">
      <stop
         id="stop3284"
         offset="0"
         style="stop-color:#ffffff;stop-opacity:1;" />
      <stop
         id="stop3286"
         offset="1"
         style="stop-color:#ffffff;stop-opacity:0;" />
    </linearGradient>
    <linearGradient
       y2="21.616962"
       x2="31.466251"
       y1="-6.1369796"
       x1="13.258252"
       gradientTransform="matrix(0.6453055,0,0,0.6037497,-4.5171397,1.1311306)"
       gradientUnits="userSpaceOnUse"
       id="linearGradient2255"
       xlink:href="#linearGradient3282"
       inkscape:collect="always" />
    <linearGradient
       id="linearGradient3264"
       inkscape:collect="always">
      <stop
         id="stop3266"
         offset="0"
         style="stop-color:#ffffff;stop-opacity:1;" />
      <stop
         id="stop3268"
         offset="1"
         style="stop-color:#ffffff;stop-opacity:0;" />
    </linearGradient>
    <linearGradient
       y2="29.486904"
       x2="26.040276"
       y1="5.0463562"
       x1="15.172538"
       gradientTransform="matrix(0.6453055,0,0,0.6037497,-4.5171397,1.1311296)"
       gradientUnits="userSpaceOnUse"
       id="linearGradient2253"
       xlink:href="#linearGradient3264"
       inkscape:collect="always" />
    <linearGradient
       id="linearGradient3218"
       inkscape:collect="always">
      <stop
         id="stop3220"
         offset="0"
         style="stop-color:#ff0f0f;stop-opacity:1;" />
      <stop
         id="stop3222"
         offset="1"
         style="stop-color:#ff0f0f;stop-opacity:0;" />
    </linearGradient>
    <radialGradient
       r="1.6875"
       fy="19.25"
       fx="69.1875"
       cy="19.25"
       cx="69.1875"
       gradientTransform="matrix(1,0,0,0.962963,0,0.712963)"
       gradientUnits="userSpaceOnUse"
       id="radialGradient2251"
       xlink:href="#linearGradient3218"
       inkscape:collect="always" />
    <linearGradient
       id="linearGradient3195"
       inkscape:collect="always">
      <stop
         id="stop3197"
         offset="0"
         style="stop-color:#eeeeec;stop-opacity:1;" />
      <stop
         id="stop3199"
         offset="1"
         style="stop-color:#eeeeec;stop-opacity:0;" />
    </linearGradient>
    <linearGradient
       y2="28.083874"
       x2="23.341644"
       y1="17.396374"
       x1="20.627222"
       gradientTransform="matrix(0.6453055,0,0,0.6480447,-4.5171397,-0.9441344)"
       gradientUnits="userSpaceOnUse"
       id="linearGradient2249"
       xlink:href="#linearGradient3195"
       inkscape:collect="always" />
    <linearGradient
       id="linearGradient3185">
      <stop
         id="stop3187"
         offset="0"
         style="stop-color:#a40000;stop-opacity:1;" />
      <stop
         id="stop3189"
         offset="1"
         style="stop-color:#680000;stop-opacity:1;" />
    </linearGradient>
    <linearGradient
       y2="25.993908"
       x2="24.021757"
       y1="15.616999"
       x1="20.5238"
       gradientTransform="matrix(0.7228652,0,0,0.6037497,-6.0581665,0.8784436)"
       gradientUnits="userSpaceOnUse"
       id="linearGradient2247"
       xlink:href="#linearGradient3185"
       inkscape:collect="always" />
    <linearGradient
       id="linearGradient3169">
      <stop
         id="stop3171"
         offset="0"
         style="stop-color:#e40000;stop-opacity:0.592233;" />
      <stop
         id="stop3173"
         offset="1"
         style="stop-color:#770000;stop-opacity:1;" />
    </linearGradient>
    <linearGradient
       y2="25.993908"
       x2="24.021757"
       y1="15.616999"
       x1="20.5238"
       gradientTransform="matrix(0.7228652,0,0,0.6037497,-6.0581665,0.8784436)"
       gradientUnits="userSpaceOnUse"
       id="linearGradient2245"
       xlink:href="#linearGradient3169"
       inkscape:collect="always" />
    <linearGradient
       id="linearGradient3240">
      <stop
         id="stop3242"
         offset="0"
         style="stop-color:#ffffff;stop-opacity:1;" />
      <stop
         id="stop3244"
         offset="1"
         style="stop-color:#ffffff;stop-opacity:0.47572815;" />
    </linearGradient>
    <linearGradient
       y2="44.67823"
       x2="30.045033"
       y1="-1.5877705"
       x1="14.247565"
       gradientTransform="matrix(0.6453055,0,0,0.6037497,-4.5171397,1.1311296)"
       gradientUnits="userSpaceOnUse"
       id="linearGradient2243"
       xlink:href="#linearGradient3240"
       inkscape:collect="always" />
    <linearGradient
       id="linearGradient3186"
       inkscape:collect="always">
      <stop
         id="stop3188"
         offset="0"
         style="stop-color:#888a85;stop-opacity:1;" />
      <stop
         id="stop3190"
         offset="1"
         style="stop-color:#888a85;stop-opacity:0;" />
    </linearGradient>
    <linearGradient
       y2="49.629227"
       x2="28.922832"
       y1="25.502113"
       x1="24.5028"
       gradientTransform="matrix(0.6453055,0,0,0.6480447,-4.5171397,-0.9441344)"
       gradientUnits="userSpaceOnUse"
       id="linearGradient2241"
       xlink:href="#linearGradient3186"
       inkscape:collect="always" />
    <linearGradient
       id="linearGradient3161">
      <stop
         id="stop3163"
         offset="0"
         style="stop-color:#ffffff;stop-opacity:0.53398061;" />
      <stop
         id="stop3165"
         offset="1"
         style="stop-color:#000000;stop-opacity:0.0776699;" />
    </linearGradient>
    <radialGradient
       r="9.4180422"
       fy="15.472628"
       fx="21.426542"
       cy="15.472628"
       cx="21.426542"
       gradientTransform="matrix(1.0564455,2.2729667e-3,-3.721177e-3,1.5139708,-13.503269,-19.183025)"
       gradientUnits="userSpaceOnUse"
       id="radialGradient2239"
       xlink:href="#linearGradient3161"
       inkscape:collect="always" />
    <linearGradient
       id="linearGradient3250"
       inkscape:collect="always">
      <stop
         id="stop3252"
         offset="0"
         style="stop-color:#ffffff;stop-opacity:1;" />
      <stop
         id="stop3254"
         offset="1"
         style="stop-color:#ffffff;stop-opacity:0;" />
    </linearGradient>
    <linearGradient
       y2="54.282909"
       x2="30.572933"
       y1="37.487747"
       x1="21.212929"
       gradientUnits="userSpaceOnUse"
       id="linearGradient2237"
       xlink:href="#linearGradient3250"
       inkscape:collect="always" />
    <linearGradient
       id="linearGradient3303"
       inkscape:collect="always">
      <stop
         id="stop3305"
         offset="0"
         style="stop-color:#888a85;stop-opacity:1;" />
      <stop
         id="stop3307"
         offset="1"
         style="stop-color:#888a85;stop-opacity:0;" />
    </linearGradient>
    <radialGradient
       r="10.875"
       fy="44.0625"
       fx="24.875"
       cy="44.0625"
       cx="24.875"
       gradientTransform="matrix(1,0,0,0.3390805,0,29.121767)"
       gradientUnits="userSpaceOnUse"
       id="radialGradient2235"
       xlink:href="#linearGradient3303"
       inkscape:collect="always" />
    <linearGradient
       inkscape:collect="always"
       id="linearGradient6696">
      <stop
         style="stop-color:#ffffff;stop-opacity:1;"
         offset="0"
         id="stop6698" />
      <stop
         style="stop-color:#ffffff;stop-opacity:0;"
         offset="1"
         id="stop6700" />
    </linearGradient>
    <linearGradient
       inkscape:collect="always"
       xlink:href="#linearGradient6696"
       id="linearGradient6835"
       gradientUnits="userSpaceOnUse"
       x1="19.5"
       y1="17.750786"
       x2="19.5"
       y2="7.8089299"
       gradientTransform="translate(-1,-1)" />
    <linearGradient
       inkscape:collect="always"
       id="linearGradient6576">
      <stop
         style="stop-color:#ffffff;stop-opacity:1;"
         offset="0"
         id="stop6578" />
      <stop
         style="stop-color:#ffffff;stop-opacity:0;"
         offset="1"
         id="stop6580" />
    </linearGradient>
    <linearGradient
       inkscape:collect="always"
       xlink:href="#linearGradient6576"
       id="linearGradient6833"
       gradientUnits="userSpaceOnUse"
       gradientTransform="matrix(0.7071068,-0.7071068,0.7071068,0.7071068,-58.460697,73.506628)"
       x1="93.686363"
       y1="11.614545"
       x2="96.311363"
       y2="3.2395456" />
    <linearGradient
       inkscape:collect="always"
       id="linearGradient5437">
      <stop
         style="stop-color:#2e3436;stop-opacity:1"
         offset="0"
         id="stop5439" />
      <stop
         style="stop-color:#729fcf;stop-opacity:1"
         offset="1"
         id="stop5441" />
    </linearGradient>
    <linearGradient
       inkscape:collect="always"
       xlink:href="#linearGradient5437"
       id="linearGradient6831"
       gradientUnits="userSpaceOnUse"
       gradientTransform="matrix(0.9982232,0,0,1.1271997,101.97505,-16.992011)"
       x1="-5.7610831"
       y1="40.212852"
       x2="-12.691682"
       y2="44.514675" />
    <linearGradient
       id="linearGradient6525">
      <stop
         style="stop-color:#ffffff;stop-opacity:1;"
         offset="0"
         id="stop6527" />
      <stop
         style="stop-color:#babdb6;stop-opacity:1"
         offset="1"
         id="stop6529" />
    </linearGradient>
    <linearGradient
       inkscape:collect="always"
       xlink:href="#linearGradient6525"
       id="linearGradient6829"
       gradientUnits="userSpaceOnUse"
       x1="94"
       y1="43.240894"
       x2="94"
       y2="40.766018" />
    <linearGradient
       id="linearGradient6791">
      <stop
         id="stop6793"
         offset="0"
         style="stop-color:#ffffff;stop-opacity:1;" />
      <stop
         id="stop6795"
         offset="1"
         style="stop-color:#ffffff;stop-opacity:0" />
    </linearGradient>
    <linearGradient
       inkscape:collect="always"
       xlink:href="#linearGradient6791"
       id="linearGradient6827"
       gradientUnits="userSpaceOnUse"
       x1="99.686363"
       y1="7.6145449"
       x2="75.039978"
       y2="16.260931" />
    <linearGradient
       id="linearGradient6707">
      <stop
         id="stop6709"
         offset="0"
         style="stop-color:#888a85;stop-opacity:1" />
      <stop
         id="stop6711"
         offset="1"
         style="stop-color:#555753;stop-opacity:1" />
    </linearGradient>
    <linearGradient
       inkscape:collect="always"
       xlink:href="#linearGradient6707"
       id="linearGradient6825"
       gradientUnits="userSpaceOnUse"
       x1="101.76143"
       y1="23.366385"
       x2="84.3106"
       y2="40.943737" />
    <linearGradient
       id="linearGradient6545">
      <stop
         style="stop-color:#d3d7cf;stop-opacity:1"
         offset="0"
         id="stop6547" />
      <stop
         style="stop-color:#eeeeec;stop-opacity:1"
         offset="1"
         id="stop6549" />
    </linearGradient>
    <linearGradient
       inkscape:collect="always"
       xlink:href="#linearGradient6545"
       id="linearGradient6823"
       gradientUnits="userSpaceOnUse"
       x1="101.75"
       y1="16.75"
       x2="84.875"
       y2="23.5" />
    <radialGradient
       inkscape:collect="always"
       xlink:href="#linearGradient6221"
       id="radialGradient6821"
       gradientUnits="userSpaceOnUse"
       gradientTransform="matrix(0.982963,0,0,0.508943,0.37414,16.84139)"
       cx="21.96048"
       cy="34.498356"
       fx="21.96048"
       fy="34.498356"
       r="12.727922" />
    <radialGradient
       inkscape:collect="always"
       xlink:href="#linearGradient6221"
       id="radialGradient6819"
       gradientUnits="userSpaceOnUse"
       gradientTransform="matrix(0.982963,0,0,0.508943,0.37414,16.84139)"
       cx="21.96048"
       cy="34.498356"
       fx="21.96048"
       fy="34.498356"
       r="12.727922" />
    <linearGradient
       inkscape:collect="always"
       id="linearGradient6998">
      <stop
         style="stop-color:#000000;stop-opacity:1;"
         offset="0"
         id="stop7000" />
      <stop
         style="stop-color:#000000;stop-opacity:0;"
         offset="1"
         id="stop7002" />
    </linearGradient>
    <radialGradient
       inkscape:collect="always"
       xlink:href="#linearGradient6998"
       id="radialGradient7004"
       cx="24.32572"
       cy="24.577896"
       fx="24.32572"
       fy="24.577896"
       r="5.140625"
       gradientUnits="userSpaceOnUse"
       gradientTransform="matrix(0.7495432,-0.7495432,1.8567518,1.8567518,-40.477649,-2.573287)" />
    <linearGradient
       inkscape:collect="always"
       id="linearGradient6424">
      <stop
         style="stop-color:#eeeeec;stop-opacity:1"
         offset="0"
         id="stop6426" />
      <stop
         style="stop-color:#eeeeec;stop-opacity:0;"
         offset="1"
         id="stop6428" />
    </linearGradient>
    <linearGradient
       inkscape:collect="always"
       xlink:href="#linearGradient6424"
       id="linearGradient7059"
       gradientUnits="userSpaceOnUse"
       x1="54.5"
       y1="1.7340142"
       x2="54.5"
       y2="7.1931787" />
    <linearGradient
       inkscape:collect="always"
       id="linearGradient5402">
      <stop
         style="stop-color:#000000;stop-opacity:1;"
         offset="0"
         id="stop5404" />
      <stop
         style="stop-color:#000000;stop-opacity:0;"
         offset="1"
         id="stop5406" />
    </linearGradient>
    <linearGradient
       inkscape:collect="always"
       xlink:href="#linearGradient5402"
       id="linearGradient7057"
       gradientUnits="userSpaceOnUse"
       x1="57.349243"
       y1="37.496914"
       x2="59.350101"
       y2="37.505516" />
    <linearGradient
       inkscape:collect="always"
       id="linearGradient5220">
      <stop
         style="stop-color:#0c1d35;stop-opacity:1"
         offset="0"
         id="stop5222" />
      <stop
         style="stop-color:white;stop-opacity:0.2937853"
         offset="1"
         id="stop5224" />
    </linearGradient>
    <linearGradient
       inkscape:collect="always"
       xlink:href="#linearGradient5220"
       id="linearGradient7055"
       gradientUnits="userSpaceOnUse"
       gradientTransform="matrix(0.4887947,0,0,0.6787448,59.055567,10.472634)"
       x1="-8.9375"
       y1="40.375"
       x2="-7"
       y2="40.375" />
    <linearGradient
       id="linearGradient2808">
      <stop
         id="stop2810"
         offset="0"
         style="stop-color:white;stop-opacity:1;" />
      <stop
         id="stop2812"
         offset="1"
         style="stop-color:white;stop-opacity:0.2937853" />
    </linearGradient>
    <linearGradient
       inkscape:collect="always"
       xlink:href="#linearGradient2808"
       id="linearGradient7053"
       gradientUnits="userSpaceOnUse"
       gradientTransform="matrix(0.581783,0,0,0.6787466,57.543659,10.506054)"
       x1="-6.9787297"
       y1="37.126617"
       x2="-9.9043236"
       y2="36.848248" />
    <linearGradient
       id="linearGradient5440">
      <stop
         id="stop5442"
         offset="0"
         style="stop-color:#eeeeec;stop-opacity:1" />
      <stop
         id="stop5444"
         offset="1"
         style="stop-color:#a2a298;stop-opacity:1;" />
    </linearGradient>
    <linearGradient
       inkscape:collect="always"
       xlink:href="#linearGradient5440"
       id="linearGradient7051"
       gradientUnits="userSpaceOnUse"
       gradientTransform="matrix(0.7118239,-0.7118239,0.7071068,0.7071068,20.979979,22.298119)"
       x1="24.518135"
       y1="22.429499"
       x2="25.910631"
       y2="23.831284" />
    <linearGradient
       inkscape:collect="always"
       id="linearGradient5443">
      <stop
         style="stop-color:#ffffff;stop-opacity:1;"
         offset="0"
         id="stop5445" />
      <stop
         style="stop-color:#ffffff;stop-opacity:0;"
         offset="1"
         id="stop5447" />
    </linearGradient>
    <linearGradient
       inkscape:collect="always"
       xlink:href="#linearGradient5443"
       id="linearGradient7049"
       gradientUnits="userSpaceOnUse"
       x1="53.58926"
       y1="32.856834"
       x2="69.976395"
       y2="44.960426" />
    <linearGradient
       inkscape:collect="always"
       id="linearGradient8080">
      <stop
         style="stop-color:#c4a000;stop-opacity:1;"
         offset="0"
         id="stop8082" />
      <stop
         style="stop-color:#886f00;stop-opacity:1"
         offset="1"
         id="stop8084" />
    </linearGradient>
    <linearGradient
       inkscape:collect="always"
       xlink:href="#linearGradient8080"
       id="linearGradient8086"
       x1="50.088033"
       y1="36.725205"
       x2="60.085389"
       y2="36.725205"
       gradientUnits="userSpaceOnUse" />
    <linearGradient
       inkscape:collect="always"
       id="linearGradient5210">
      <stop
         style="stop-color:#fce94f;stop-opacity:1"
         offset="0"
         id="stop5212" />
      <stop
         style="stop-color:#c4a000;stop-opacity:1"
         offset="1"
         id="stop5214" />
    </linearGradient>
    <linearGradient
       inkscape:collect="always"
       xlink:href="#linearGradient5210"
       id="linearGradient7047"
       gradientUnits="userSpaceOnUse"
       gradientTransform="matrix(0.8213511,0,0,1.0094537,61.676283,-5.2539543)"
       x1="-10.69499"
       y1="41.105709"
       x2="-1.0492263"
       y2="41.137775" />
    <radialGradient
       inkscape:collect="always"
       xlink:href="#linearGradient6221"
       id="radialGradient6837"
       gradientUnits="userSpaceOnUse"
       gradientTransform="matrix(0.982963,0,0,0.508943,0.37414,16.84139)"
       cx="21.96048"
       cy="34.498356"
       fx="21.96048"
       fy="34.498356"
       r="12.727922" />
    <linearGradient
       inkscape:collect="always"
       id="linearGradient6221">
      <stop
         style="stop-color:black;stop-opacity:1;"
         offset="0"
         id="stop6223" />
      <stop
         style="stop-color:black;stop-opacity:0;"
         offset="1"
         id="stop6225" />
    </linearGradient>
    <radialGradient
       inkscape:collect="always"
       xlink:href="#linearGradient6221"
       id="radialGradient6839"
       gradientUnits="userSpaceOnUse"
       gradientTransform="matrix(0.982963,0,0,0.508943,0.37414,16.84139)"
       cx="21.96048"
       cy="34.498356"
       fx="21.96048"
       fy="34.498356"
       r="12.727922" />
    <inkscape:perspective
       sodipodi:type="inkscape:persp3d"
       inkscape:vp_x="0 : 24 : 1"
       inkscape:vp_y="0 : 1000 : 0"
       inkscape:vp_z="48 : 24 : 1"
       inkscape:persp3d-origin="24 : 16 : 1"
       id="perspective8116" />
  </defs>
  <sodipodi:namedview
     id="base"
     pagecolor="#ffffff"
     bordercolor="#666666"
     borderopacity="1.0"
     inkscape:pageopacity="0.0"
     inkscape:pageshadow="2"
     inkscape:zoom="7"
     inkscape:cx="24"
     inkscape:cy="24"
     inkscape:current-layer="layer1"
     showgrid="true"
     inkscape:grid-bbox="true"
     inkscape:document-units="px"
     inkscape:window-width="641"
     inkscape:window-height="690"
     inkscape:window-x="0"
     inkscape:window-y="25" />
  <metadata
     id="metadata8113">
    <rdf:RDF>
      <cc:Work
         rdf:about="">
        <dc:format>image/svg+xml</dc:format>
        <dc:type
           rdf:resource="http://purl.org/dc/dcmitype/StillImage" />
      </cc:Work>
    </rdf:RDF>
  </metadata>
  <g
     id="layer1"
     inkscape:label="Layer 1"
     inkscape:groupmode="layer">
    <path
       sodipodi:type="arc"
       style="opacity:0.15;fill:url(#radialGradient6839);fill-opacity:1;stroke:none;stroke-width:1;stroke-linecap:round;stroke-linejoin:round;stroke-miterlimit:4;stroke-dasharray:none;stroke-opacity:1"
       id="path5331"
       sodipodi:cx="21.743534"
       sodipodi:cy="34.299805"
       sodipodi:rx="12.727922"
       sodipodi:ry="6.3639612"
       d="M 34.471457,34.299805 A 12.727922,6.3639612 0 1 1 9.0156116,34.299805 A 12.727922,6.3639612 0 1 1 34.471457,34.299805 z"
       transform="matrix(0.9035244,0,0,0.6241817,-8.1458251,20.563421)" />
    <path
       sodipodi:type="arc"
       style="opacity:0.2;fill:url(#radialGradient6837);fill-opacity:1;stroke:none;stroke-width:1;stroke-linecap:round;stroke-linejoin:round;stroke-miterlimit:4;stroke-dasharray:none;stroke-opacity:1"
       id="path6769"
       sodipodi:cx="21.743534"
       sodipodi:cy="34.299805"
       sodipodi:rx="12.727922"
       sodipodi:ry="6.3639612"
       d="M 34.471457,34.299805 A 12.727922,6.3639612 0 1 1 9.0156116,34.299805 A 12.727922,6.3639612 0 1 1 34.471457,34.299805 z"
       transform="matrix(0.3535525,0,0,0.2357023,2.812484,34.415922)" />
    <g
       id="g6432"
       transform="matrix(0.7071068,0.7071068,-0.7071068,0.7071068,0.4038731,-30.116932)">
      <rect
         transform="matrix(0.9999917,-4.085772e-3,-2.7048962e-3,0.9999963,0,0)"
         ry="3.6587055"
         rx="4.0743828"
         y="27.726946"
         x="50.588039"
         height="17.996519"
         width="8.9973431"
         id="rect5288"
         style="fill:url(#linearGradient7047);fill-opacity:1;stroke:url(#linearGradient8086);stroke-width:1.0000124;stroke-linecap:round;stroke-linejoin:round;stroke-miterlimit:4;stroke-dasharray:none;stroke-opacity:1" />
      <rect
         transform="matrix(0.9999873,-5.0480452e-3,-2.8992949e-3,0.9999958,0,0)"
         ry="2.5968282"
         rx="3.0795631"
         y="28.815769"
         x="51.574001"
         height="15.960262"
         width="7.0178103"
         id="rect5292"
         style="opacity:0.5;fill:none;fill-opacity:1;stroke:url(#linearGradient7049);stroke-width:1.00001645;stroke-linecap:round;stroke-linejoin:round;stroke-miterlimit:4;stroke-dasharray:none;stroke-opacity:1" />
      <path
         sodipodi:nodetypes="ccccccccc"
         id="path5286"
         d="M 52.246834,0.49999993 L 52.604531,5.4548034 L 53.59322,7.162543 L 53.585977,28.755101 C 53.674365,30.257703 56.419206,30.336084 56.595983,28.745094 L 56.621068,7.1748733 L 57.628707,5.8770552 L 57.95997,0.51454306 C 57.95997,0.51454306 52.246834,0.49999993 52.246834,0.49999993 z"
         style="fill:url(#linearGradient7051);fill-opacity:1;stroke:#888a85;stroke-width:1.00000024;stroke-linecap:round;stroke-linejoin:round;stroke-miterlimit:4;stroke-dasharray:none;stroke-opacity:1" />
      <rect
         style="opacity:0.3;fill:url(#linearGradient7053);fill-opacity:1;stroke:none;stroke-width:1;stroke-linecap:round;stroke-linejoin:round;stroke-miterlimit:4;stroke-dasharray:none;stroke-opacity:1"
         id="rect2804"
         width="1.4200811"
         height="10.612979"
         x="51.725819"
         y="32.225933"
         rx="0.6661315"
         ry="1.6036282"
         transform="matrix(0.9999908,-4.299452e-3,-4.299452e-3,0.9999908,0,0)" />
      <rect
         transform="matrix(0.9999869,-5.11738e-3,-3.6122511e-3,0.9999935,0,0)"
         ry="1.6036212"
         rx="1.3473127"
         y="32.192463"
         x="54.167618"
         height="10.859921"
         width="1.9551785"
         id="rect5290"
         style="opacity:0.3;fill:url(#linearGradient7055);fill-opacity:1;stroke:none;stroke-width:1;stroke-linecap:round;stroke-linejoin:round;stroke-miterlimit:4;stroke-dasharray:none;stroke-opacity:1" />
      <rect
         style="opacity:0.25;fill:url(#linearGradient7057);fill-opacity:1;stroke:none;stroke-width:1;stroke-linecap:round;stroke-linejoin:round;stroke-miterlimit:4;stroke-dasharray:none;stroke-opacity:1"
         id="rect5398"
         width="1.420082"
         height="10.612979"
         x="57.132236"
         y="32.24918"
         rx="0.6661315"
         ry="1.603629"
         transform="matrix(0.9999908,-4.2994573e-3,-4.2994573e-3,0.9999908,0,0)" />
      <path
         sodipodi:nodetypes="ccccccccc"
         id="path5450"
         d="M 52.78125,1 L 53.09375,5.3125 L 54.03125,6.90625 C 54.073567,6.982692 54.095116,7.0688875 54.09375,7.15625 L 56.125,7.1875 C 56.120433,7.0757816 56.153441,6.9657558 56.21875,6.875 L 57.125,5.65625 L 57.4375,1 C 56.652768,1 53.565982,1 52.78125,1 z"
         style="fill:url(#linearGradient7059);fill-opacity:1;stroke:none;stroke-width:1.00000024;stroke-linecap:round;stroke-linejoin:round;stroke-miterlimit:4;stroke-opacity:1" />
    </g>
    <path
       style="opacity:0.5;fill:url(#radialGradient7004);fill-opacity:1;stroke:none;stroke-width:1.00000024;stroke-linecap:round;stroke-linejoin:round;stroke-miterlimit:4;stroke-dasharray:none;stroke-opacity:1"
       d="M 25.968704,19.469213 L 18.468704,26.969213 L 21.249954,29.750463 L 28.749954,22.250463 L 25.968704,19.469213 z"
       id="path6010" />
    <g
       id="g6807"
       transform="translate(-1.0000466,4.6326759e-4)">
      <path
         transform="matrix(0.8642397,0,0,0.6241817,18.208399,20.562958)"
         d="M 34.471457,34.299805 A 12.727922,6.3639612 0 1 1 9.0156116,34.299805 A 12.727922,6.3639612 0 1 1 34.471457,34.299805 z"
         sodipodi:ry="6.3639612"
         sodipodi:rx="12.727922"
         sodipodi:cy="34.299805"
         sodipodi:cx="21.743534"
         id="path6765"
         style="opacity:0.15;fill:url(#radialGradient6819);fill-opacity:1;stroke:none;stroke-width:1;stroke-linecap:round;stroke-linejoin:round;stroke-miterlimit:4;stroke-dasharray:none;stroke-opacity:1"
         sodipodi:type="arc" />
      <path
         transform="matrix(0.3535525,0,0,0.2357023,29.812531,34.415459)"
         d="M 34.471457,34.299805 A 12.727922,6.3639612 0 1 1 9.0156116,34.299805 A 12.727922,6.3639612 0 1 1 34.471457,34.299805 z"
         sodipodi:ry="6.3639612"
         sodipodi:rx="12.727922"
         sodipodi:cy="34.299805"
         sodipodi:cx="21.743534"
         id="path6773"
         style="opacity:0.2;fill:url(#radialGradient6821);fill-opacity:1;stroke:none;stroke-width:1;stroke-linecap:round;stroke-linejoin:round;stroke-miterlimit:4;stroke-dasharray:none;stroke-opacity:1"
         sodipodi:type="arc" />
      <g
         transform="translate(-1.697983,0.2707704)"
         id="g6739">
        <g
           id="g6553"
           transform="matrix(0.7071068,-0.7071068,0.7071068,0.7071068,-57.460697,74.506628)">
          <path
             sodipodi:nodetypes="csccsccscccccc"
             id="path6491"
             d="M 91,1.1482865 C 88.356663,2.3083638 86.5,4.9532014 86.5,8.0232865 C 86.5,10.894407 88.12854,13.387995 90.5,14.648286 L 90.5,43.414214 C 90.5,45.353214 92.061,46.914213 94,46.914214 C 95.939,46.914214 97.5,45.353213 97.5,43.414214 L 97.5,14.648286 C 99.87146,13.387995 101.5,10.894407 101.5,8.0232865 C 101.5,4.9532011 99.643337,2.3083637 97,1.1482865 L 97,7.0857865 L 95.28125,9.0857865 L 92.71875,9.0857865 L 91,7.0857865 L 91,1.1482865 z"
             style="opacity:1;fill:url(#linearGradient6823);fill-opacity:1;stroke:url(#linearGradient6825);stroke-width:0.99999994;stroke-linecap:round;stroke-linejoin:round;stroke-miterlimit:4;stroke-dasharray:none;stroke-dashoffset:0.7;stroke-opacity:1" />
          <path
             sodipodi:nodetypes="cscccscccscccccccccc"
             id="path6505"
             d="M 89.96875,2.9920365 C 88.491165,4.1803215 87.53125,5.9777353 87.53125,8.0232865 C 87.53125,10.510038 88.917637,12.651991 90.96875,13.742036 C 91.312399,13.913596 91.530012,14.264195 91.53125,14.648286 L 91.53125,43.414214 C 91.53125,44.807674 92.606539,45.882963 94,45.882964 C 95.39346,45.882964 96.46875,44.807673 96.46875,43.414214 L 96.46875,14.648286 C 96.469988,14.264195 96.687601,13.913596 97.03125,13.742036 C 99.082363,12.651991 100.46875,10.510038 100.46875,8.0232865 C 100.46875,5.977735 99.508835,4.1803214 98.03125,2.9920365 L 98.03125,7.0857865 C 98.028519,7.3272888 97.939894,7.5599296 97.78125,7.7420365 L 96.0625,9.7420365 C 95.871073,9.9773335 95.584572,10.114853 95.28125,10.117036 L 92.71875,10.117036 C 92.415428,10.114853 92.128927,9.9773335 91.9375,9.7420365 L 90.21875,7.7420365 C 90.060106,7.5599296 89.971481,7.3272888 89.96875,7.0857865 L 89.96875,2.9920365 z"
             style="opacity:1;fill:none;fill-opacity:1;stroke:url(#linearGradient6827);stroke-width:0.99999994;stroke-linecap:round;stroke-linejoin:miter;stroke-miterlimit:4;stroke-dashoffset:0.7;stroke-opacity:1" />
          <path
             transform="translate(-3.7626907e-8,0.9142136)"
             d="M 95.5,42.5 A 1.5,1.5 0 1 1 92.5,42.5 A 1.5,1.5 0 1 1 95.5,42.5 z"
             sodipodi:ry="1.5"
             sodipodi:rx="1.5"
             sodipodi:cy="42.5"
             sodipodi:cx="94"
             id="path6507"
             style="opacity:1;fill:#888a85;fill-opacity:1;stroke:url(#linearGradient6829);stroke-width:1;stroke-linecap:round;stroke-linejoin:miter;stroke-miterlimit:4;stroke-dasharray:none;stroke-dashoffset:0.7;stroke-opacity:1"
             sodipodi:type="arc" />
          <rect
             style="opacity:0.23106061;fill:url(#linearGradient6831);fill-opacity:1;stroke:none;stroke-width:1;stroke-linecap:round;stroke-linejoin:round;stroke-miterlimit:4;stroke-dasharray:none;stroke-opacity:1;display:inline"
             id="rect6533"
             width="3.9928944"
             height="21.999802"
             x="91.992836"
             y="16.963778"
             rx="1.7379364"
             ry="1.7444341"
             transform="matrix(0.9999999,3.8645919e-4,3.8358553e-4,0.9999999,0,0)" />
        </g>
        <path
           style="fill:none;fill-opacity:1;stroke:url(#linearGradient6833);stroke-width:0.99999994;stroke-linecap:round;stroke-linejoin:miter;stroke-miterlimit:4;stroke-dashoffset:0.7;stroke-opacity:1"
           d="M 13.973556,7.3037539 L 16.868274,10.198472 C 17.037111,10.371171 17.138946,10.598341 17.155536,10.839288 L 17.35441,13.468841 C 17.385431,13.770581 17.280086,14.070409 17.067148,14.286434 L 15.255187,16.098395 C 15.039162,16.311332 14.739334,16.416678 14.437595,16.385657 L 11.808041,16.186783 C 11.567094,16.170192 11.339925,16.068358 11.167226,15.899521 L 8.2725073,13.004802"
           id="path6573"
           sodipodi:nodetypes="cccccccccc" />
        <path
           style="opacity:0.59051723;fill:url(#linearGradient6835);fill-opacity:1;stroke:none;stroke-width:0.99999994;stroke-linecap:round;stroke-linejoin:round;stroke-miterlimit:4;stroke-dasharray:none;stroke-dashoffset:0.7;stroke-opacity:1"
           d="M 14.71875,6.8125 C 14.129935,6.8140249 13.543329,6.8880281 12.96875,7.03125 L 16.5,10.5625 C 16.589624,10.650873 16.646088,10.749545 16.65625,10.875 L 16.875,13.5 C 16.888638,13.656013 16.830347,13.827626 16.71875,13.9375 L 15.125,15.5625 C 17.279079,16.073694 19.038866,17.020591 21.34375,15.78125 C 22.074648,13.392376 21.483569,10.671069 19.59375,8.78125 C 18.245921,7.4334204 16.485196,6.8079254 14.71875,6.8125 z M 8,12 C 7.6061401,13.580092 7.7314214,15.26324 8.4375,16.75 C 9.564272,16.068398 10.560695,15.675078 11.46875,15.46875 L 8,12 z"
           id="path6651"
           sodipodi:nodetypes="ccccccccsccccc" />
      </g>
    </g>
    <g
       id="g2390"
       inkscape:label="Layer 1"
       transform="translate(21.157148,14.220463)">
      <g
         transform="translate(5.0298057,0)"
         id="g2222">
        <path
           sodipodi:type="arc"
           style="opacity:0.32642487;fill:url(#radialGradient2235);fill-opacity:1;stroke:none;stroke-width:1;stroke-miterlimit:4;stroke-dasharray:none;stroke-opacity:1"
           id="path3292"
           sodipodi:cx="24.875"
           sodipodi:cy="44.0625"
           sodipodi:rx="10.875"
           sodipodi:ry="3.6875"
           d="M 35.75,44.0625 A 10.875,3.6875 0 1 1 14,44.0625 A 10.875,3.6875 0 1 1 35.75,44.0625 z"
           transform="matrix(1.0087535,0,0,0.6480447,-14.122549,-0.9441344)" />
        <path
           sodipodi:type="arc"
           style="opacity:1;fill:#d3d7cf;fill-opacity:1;stroke:#888a85;stroke-width:1.55837941;stroke-miterlimit:4;stroke-dasharray:none;stroke-opacity:1"
           id="path3151"
           sodipodi:cx="24.04163"
           sodipodi:cy="44.155106"
           sodipodi:rx="7.6897864"
           sodipodi:ry="2.6958447"
           d="M 31.731416,44.155106 A 7.6897864,2.6958447 0 1 1 16.351843,44.155106 A 7.6897864,2.6958447 0 1 1 31.731416,44.155106 z"
           transform="matrix(0.6820193,0,0,0.6037497,-5.1174777,1.1311306)" />
        <path
           sodipodi:type="arc"
           style="opacity:1;fill:none;fill-opacity:1;stroke:url(#linearGradient2237);stroke-width:2.08996725;stroke-miterlimit:4;stroke-dasharray:none;stroke-opacity:1"
           id="path3248"
           sodipodi:cx="24.04163"
           sodipodi:cy="44.155106"
           sodipodi:rx="7.0494113"
           sodipodi:ry="1.5903722"
           d="M 31.091041,44.155106 A 7.0494113,1.5903722 0 1 1 16.992218,44.155106 A 7.0494113,1.5903722 0 1 1 31.091041,44.155106 z"
           transform="matrix(0.5855943,0,0,0.3909527,-2.796397,10.540547)" />
        <path
           style="fill:url(#radialGradient2239);fill-opacity:1;fill-rule:evenodd;stroke:url(#linearGradient2241);stroke-width:1.00000012px;stroke-linecap:butt;stroke-linejoin:miter;stroke-opacity:1"
           d="M 8.7346695,27.577522 C 11.161046,28.378477 12.301887,27.989866 13.830855,27.755413 C 13.830855,27.755413 11.095928,28.758646 11.13728,21.432213 C 11.160725,17.278343 12.751082,16.291201 16.508852,12.380844 C 19.109267,9.6748376 15.014874,1.9720666 15.014874,1.9720666 C 12.402925,2.4392546 9.9062065,2.4751916 6.8333235,2.0798796 C 6.8333235,2.0798796 3.8131675,9.7621726 6.0266915,12.429875 C 9.4260685,16.526747 11.225015,15.428925 11.378111,21.527227 C 11.539074,27.938829 10.242774,27.441434 8.7346695,27.577522 z"
           id="path2170"
           sodipodi:nodetypes="ccssccssc" />
        <path
           sodipodi:type="arc"
           style="opacity:1;fill:none;fill-opacity:1;stroke:#888a85;stroke-width:1.56821442;stroke-miterlimit:4;stroke-dasharray:none;stroke-opacity:1"
           id="path3290"
           sodipodi:cx="24.881319"
           sodipodi:cy="4.7780981"
           sodipodi:rx="6.6733203"
           sodipodi:ry="1.5026019"
           d="M 31.554639,4.7780981 A 6.6733203,1.5026019 0 1 1 18.207999,4.7780981 A 6.6733203,1.5026019 0 1 1 31.554639,4.7780981 z"
           transform="matrix(0.6285456,0,0,0.6469226,-4.66885,-1.4430154)" />
        <path
           style="opacity:0.67357513;fill:none;fill-opacity:1;fill-rule:evenodd;stroke:url(#linearGradient2243);stroke-width:1.00000012px;stroke-linecap:butt;stroke-linejoin:miter;stroke-opacity:1"
           d="M 15.809406,12.052016 C 17.36326,9.9087646 14.602587,3.2653536 14.602587,3.2653536 C 12.319902,3.7109156 10.196487,3.5302826 7.5109745,3.1532686 C 7.5109745,3.1532686 5.1829035,9.9790876 6.6486385,12.023307 C 9.5087932,16.012284 12.902044,16.153222 11.248233,17.421732 C 11.058885,17.566965 12.89264,16.07515 15.809406,12.052016 z"
           id="path3236"
           sodipodi:nodetypes="cccsss" />
        <path
           style="opacity:1;fill:url(#linearGradient2245);fill-opacity:1;fill-rule:evenodd;stroke:url(#linearGradient2247);stroke-width:0.99999994px;stroke-linecap:butt;stroke-linejoin:miter;stroke-opacity:1"
           d="M 5.3056345,10.875936 C 5.3866185,11.741837 6.6511525,13.180397 7.8642945,14.488041 C 9.6635235,16.427425 10.15944,16.991246 11.301298,16.970917 C 12.771199,16.983623 14.041846,14.760953 15.751154,13.189665 C 16.884775,12.147581 17.262725,10.761583 17.262725,10.761583 C 17.262725,10.761583 15.525415,9.6275396 11.235224,9.6303336 C 7.3479855,9.6328646 6.1271135,10.723466 5.3056345,10.875936 z"
           id="path2172"
           sodipodi:nodetypes="cscscsc" />
        <path
           style="opacity:0.36787564;fill:url(#linearGradient2249);fill-opacity:1;fill-rule:evenodd;stroke:none;stroke-width:1px;stroke-linecap:butt;stroke-linejoin:miter;stroke-opacity:1"
           d="M 5.7771685,11.070415 C 5.7771685,11.070415 8.2576285,9.9657146 11.688059,9.9657136 C 14.882701,9.9657136 16.877412,10.870144 16.877412,10.870144 C 16.877412,10.870144 16.570585,12.269731 11.24014,12.231615 C 4.8706435,12.18645 5.8684445,10.99418 5.7771685,11.070415 z"
           id="path2174"
           sodipodi:nodetypes="cscsc" />
        <path
           sodipodi:type="arc"
           style="opacity:0.54922282;fill:url(#radialGradient2251);fill-opacity:1;stroke:none;stroke-width:1;stroke-miterlimit:4;stroke-dasharray:none;stroke-opacity:1"
           id="path3216"
           sodipodi:cx="69.1875"
           sodipodi:cy="19.25"
           sodipodi:rx="1.6875"
           sodipodi:ry="1.625"
           d="M 70.875,19.25 A 1.6875,1.625 0 1 1 67.5,19.25 A 1.6875,1.625 0 1 1 70.875,19.25 z"
           transform="matrix(0.6453055,0,0,0.6037497,-35.330477,2.0367546)" />
        <path
           style="fill:none;fill-opacity:1;fill-rule:evenodd;stroke:url(#linearGradient2253);stroke-width:0.99999982px;stroke-linecap:butt;stroke-linejoin:miter;stroke-opacity:1"
           d="M 6.5767175,11.40842 C 6.6468845,12.144055 7.5726155,12.763456 8.6237245,13.874376 C 10.182639,15.521998 10.279494,16.06734 11.268839,16.050069 C 12.542412,16.060864 13.143344,14.209117 14.624349,12.874215 C 15.606558,11.988903 16.082082,11.225352 16.082082,11.225352 C 16.082082,11.225352 15.049376,10.585444 11.332204,10.587817 C 7.9641655,10.589967 7.2884755,11.278888 6.5767175,11.40842 z"
           id="path3258"
           sodipodi:nodetypes="cscscsc" />
        <path
           style="opacity:1;fill:url(#linearGradient2255);fill-opacity:1;fill-rule:evenodd;stroke:none;stroke-width:1px;stroke-linecap:butt;stroke-linejoin:miter;stroke-opacity:1"
           d="M 6.9733955,13.311774 C 6.9733955,13.311774 4.3187685,9.4984816 7.0629955,3.5500536 C 7.4995375,2.6037976 7.2122575,2.6832436 7.2122575,2.6832436 C 7.2122575,2.6832436 9.96492,3.0918876 11.644794,3.0659296 C 13.36899,3.0402424 14.750606,2.7236286 14.750606,2.7236286 C 14.750606,2.7236286 15.821036,4.8406146 15.978119,6.0163476 C 16.092194,6.8701776 16.91917,10.210623 16.91917,10.210623 C 16.91917,10.210623 14.261305,10.68802 11.153346,10.031568 C 7.8160295,9.3266706 7.1445075,13.258411 6.9733955,13.311774 z"
           id="path3272"
           sodipodi:nodetypes="cscscscsc" />
      </g>
    </g>
  </g>
</svg>
