<svg xmlns="http://www.w3.org/2000/svg" viewBox="0 0 16 16" xmlns:xlink="http://www.w3.org/1999/xlink">
<g transform="translate(0 -1036.3622)">
<path style="fill:#d3d3d3" d="m 8.0669643,1037.1836 c 4.0755647,0 7.3794647,3.224 7.3794647,7.2009 0,3.9769 -3.3039,7.2009 -7.3794647,7.2009 -4.0755656,0 -7.3794643,-3.224 -7.3794643,-7.2009 0,-3.9769 3.3038987,-7.2009 7.3794643,-7.2009 z"/>
</g>
<g style="fill:#aaa" transform="translate(0 -1036.3622)">
<path d="M 8 0 C 3.581722 8.8817842e-16 -3.006854e-17 3.581722 0 8 C 0 12.418278 3.581722 16 8 16 C 12.418278 16 16 12.418278 16 8 C 16 3.581722 12.418278 -1.8064254e-15 8 0 z M 8 1 C 11.865993 1 15 4.1340068 15 8 C 15 11.865993 11.865993 15 8 15 C 4.1340068 15 1 11.865993 1 8 C 1 4.1340068 4.1340068 1 8 1 z " transform="translate(0 1036.3622)"/>
<rect width="8" x="4" y="7" height="2" transform="translate(0 1036.3622)"/>
</g>
</svg>
