<svg xmlns="http://www.w3.org/2000/svg" viewBox="0 0 16 16">
<g transform="translate(0 -1036.3622)">
<path style="fill:#d3d3d3" d="m 8.0315672,1036.8571 c 4.1275048,0 7.4735088,3.3602 7.4735088,7.5051 0,4.1449 -3.346004,7.5051 -7.4735088,7.5051 -4.1275049,0 -7.47350894,-3.3602 -7.47350894,-7.5051 0,-4.1449 3.34600404,-7.5051 7.47350894,-7.5051 z"/>
</g>
<g style="fill:#aaa" transform="translate(0 -1036.3622)">
<path d="M 8 0 C 3.581722 8.8817842e-16 -3.006854e-17 3.581722 0 8 C 0 12.418278 3.581722 16 8 16 C 12.418278 16 16 12.418278 16 8 C 16 3.581722 12.418278 -1.8064254e-15 8 0 z M 8 1 C 11.865993 1 15 4.1340068 15 8 C 15 11.865993 11.865993 15 8 15 C 4.1340068 15 1 11.865993 1 8 C 1 4.1340068 4.1340068 1 8 1 z " transform="translate(0 1036.3622)"/>
<path d="M 11,8 C 11,9.6568542 9.6568542,11 8,11 6.3431458,11 5,9.6568542 5,8 5,6.3431458 6.3431458,5 8,5 c 1.6568542,0 3,1.3431458 3,3 z" transform="translate(0 1036.3622)"/>
</g>
</svg>
