<?xml version="1.0" encoding="UTF-8" standalone="no"?>
<!-- Created with Inkscape (http://www.inkscape.org/) -->
<svg
   xmlns:dc="http://purl.org/dc/elements/1.1/"
   xmlns:cc="http://creativecommons.org/ns#"
   xmlns:rdf="http://www.w3.org/1999/02/22-rdf-syntax-ns#"
   xmlns:svg="http://www.w3.org/2000/svg"
   xmlns="http://www.w3.org/2000/svg"
   xmlns:xlink="http://www.w3.org/1999/xlink"
   xmlns:sodipodi="http://sodipodi.sourceforge.net/DTD/sodipodi-0.dtd"
   xmlns:inkscape="http://www.inkscape.org/namespaces/inkscape"
   width="16px"
   height="16px"
   id="svg7779"
   sodipodi:version="0.32"
   inkscape:version="0.46"
   sodipodi:docname="drawing.svg"
   inkscape:output_extension="org.inkscape.output.svg.inkscape">
  <defs
     id="defs7781">
    <linearGradient
       id="linearGradient16-paper-sheet-orig-9"
       inkscape:collect="always">
      <stop
         id="stop24-paper-sheet-orig-7"
         offset="0"
         style="stop-color: rgb(255, 255, 255); stop-opacity: 1;" />
      <stop
         id="stop25-paper-sheet-orig-5"
         offset="1"
         style="stop-color: rgb(255, 255, 255); stop-opacity: 0;" />
    </linearGradient>
    <linearGradient
       inkscape:collect="always"
       xlink:href="#linearGradient16-paper-sheet-orig-9"
       id="linearGradient12951"
       gradientUnits="userSpaceOnUse"
       gradientTransform="matrix(0.766205,0,0,0.750993,699.584,220.125)"
       x1="14.958019"
       y1="5.0490041"
       x2="17.11025"
       y2="3.8396702" />
    <linearGradient
       id="linearGradient4-paper-sheet-orig-7"
       inkscape:collect="always">
      <stop
         id="stop8-paper-sheet-orig-2"
         offset="0"
         style="stop-color: rgb(255, 255, 255); stop-opacity: 1;" />
      <stop
         id="stop9-paper-sheet-orig-2"
         offset="1"
         style="stop-color: rgb(255, 255, 255); stop-opacity: 0;" />
    </linearGradient>
    <radialGradient
       inkscape:collect="always"
       xlink:href="#linearGradient4-paper-sheet-orig-7"
       id="radialGradient12949"
       gradientUnits="userSpaceOnUse"
       gradientTransform="matrix(1.79816,-2.10592e-2,1.67913e-2,1.62912,-3.28162,-6.55011)"
       cx="4"
       cy="5.2999997"
       fx="4"
       fy="5.2999997"
       r="17" />
    <linearGradient
       inkscape:collect="always"
       id="linearGradient10-paper-sheet-orig-3">
      <stop
         style="stop-color: rgb(85, 87, 83); stop-opacity: 1;"
         offset="0"
         id="stop15-paper-sheet-orig-7" />
      <stop
         style="stop-color: rgb(186, 189, 182); stop-opacity: 1;"
         offset="1"
         id="stop16-paper-sheet-orig-8" />
    </linearGradient>
    <linearGradient
       inkscape:collect="always"
       xlink:href="#linearGradient10-paper-sheet-orig-3"
       id="linearGradient12947"
       gradientUnits="userSpaceOnUse"
       gradientTransform="matrix(0.372187,0,0,0.367216,721.412,219.218)"
       x1="-46.226273"
       y1="55.166615"
       x2="-53.849915"
       y2="-0.54635042" />
    <linearGradient
       id="linearGradient3-paper-sheet-orig-08">
      <stop
         style="stop-color: rgb(255, 255, 255); stop-opacity: 1;"
         offset="0"
         id="stop6-paper-sheet-orig-1" />
      <stop
         style="stop-color: rgb(211, 215, 207); stop-opacity: 1;"
         offset="1"
         id="stop7-paper-sheet-orig-2" />
    </linearGradient>
    <radialGradient
       inkscape:collect="always"
       xlink:href="#linearGradient3-paper-sheet-orig-08"
       id="radialGradient12945"
       gradientUnits="userSpaceOnUse"
       gradientTransform="matrix(1.48717,0,0,0.548905,755.14,213.489)"
       cx="-30.314398"
       cy="39.271858"
       fx="-30.314398"
       fy="39.271858"
       r="18.000002" />
    <linearGradient
       id="linearGradient17-paper-sheet-orig-0-8"
       inkscape:collect="always">
      <stop
         id="stop26-paper-sheet-orig-2-4"
         offset="0"
         style="stop-color: rgb(0, 0, 0); stop-opacity: 1;" />
      <stop
         id="stop27-paper-sheet-orig-3-8"
         offset="1"
         style="stop-color: rgb(0, 0, 0); stop-opacity: 0;" />
    </linearGradient>
    <linearGradient
       inkscape:collect="always"
       xlink:href="#linearGradient17-paper-sheet-orig-0-8"
       id="linearGradient12532"
       gradientUnits="userSpaceOnUse"
       gradientTransform="translate(302,218.99)"
       x1="12.59375"
       y1="4.59375"
       x2="9.40625"
       y2="4.8125" />
  </defs>
  <sodipodi:namedview
     id="base"
     pagecolor="#ffffff"
     bordercolor="#666666"
     borderopacity="1.0"
     inkscape:pageopacity="0.0"
     inkscape:pageshadow="2"
     inkscape:zoom="22.197802"
     inkscape:cx="8"
     inkscape:cy="8"
     inkscape:current-layer="layer1"
     showgrid="true"
     inkscape:grid-bbox="true"
     inkscape:document-units="px"
     inkscape:window-width="641"
     inkscape:window-height="690"
     inkscape:window-x="591"
     inkscape:window-y="337" />
  <metadata
     id="metadata7784">
    <rdf:RDF>
      <cc:Work
         rdf:about="">
        <dc:format>image/svg+xml</dc:format>
        <dc:type
           rdf:resource="http://purl.org/dc/dcmitype/StillImage" />
      </cc:Work>
    </rdf:RDF>
  </metadata>
  <g
     id="layer1"
     inkscape:label="Layer 1"
     inkscape:groupmode="layer">
    <g
       id="use7222"
       style="display:inline"
       transform="translate(-700,-219.99986)">
      <path
         sodipodi:nodetypes="cccccccccccssccc"
         id="path12939"
         d="M 703.00846,220.5 C 702.17716,220.5 701.5,221.16373 701.5,221.97852 L 701.5,230.23944 L 701.5,231.78836 L 701.5,234.04134 C 701.5,234.85614 702.17716,235.51986 703.00846,235.51986 L 712.01701,235.51986 C 712.84831,235.51986 713.52548,234.85614 713.52548,234.04134 L 713.52548,233.31382 L 713.52548,230.23944 C 713.52548,228.13728 713.52548,225.96977 713.52548,225.63961 C 713.37946,224.26351 712.58832,223.24859 711.65785,222.33055 C 710.72739,221.41251 709.7487,220.52679 708.30571,220.5 C 708.10028,220.5 708.20351,220.5 707.27048,220.5 L 703.77467,220.5 L 703.00846,220.5 L 703.00846,220.5 L 703.00846,220.5 L 703.00846,220.5 z"
         style="fill:url(#radialGradient12945);fill-opacity:1;stroke:url(#linearGradient12947);stroke-width:1;stroke-miterlimit:4;display:inline" />
      <path
         transform="matrix(0.372187,0,0,0.349156,699.081,220.001)"
         d="M 8.53125,5.09375 C 8.2778235,5.09375 8.09375,5.2778234 8.09375,5.53125 L 8.09375,42.46875 C 8.09375,42.722176 8.2778234,42.90625 8.53125,42.90625 L 39.46875,42.90625 C 39.722175,42.90625 39.90625,42.722175 39.90625,42.46875 C 39.90625,42.46875 39.90625,19 39.90625,17.5 C 39.90625,16.356391 39.402488,13.652488 37.875,12.125 C 35.875,10.125 34.875,9.125 32.875,7.125 C 31.347512,5.5975116 28.643609,5.09375 27.5,5.09375 C 26,5.09375 8.53125,5.09375 8.53125,5.09375 z"
         id="path12941"
         style="fill:url(#radialGradient12949);fill-opacity:1;stroke:none;display:inline"
         inkscape:original="M 8.53125 3.5 C 7.410033 3.5 6.5 4.4100329 6.5 5.53125 L 6.5 42.46875 C 6.5 43.589967 7.4100329 44.5 8.53125 44.5 L 39.46875 44.5 C 40.589967 44.5 41.5 43.589966 41.5 42.46875 C 41.5 42.46875 41.5 19 41.5 17.5 C 41.5 16 41 13 39 11 C 37 9 36 8 34 6 C 32 4 29 3.5 27.5 3.5 C 26 3.5 8.5312499 3.5 8.53125 3.5 z "
         inkscape:radius="-1.6037576"
         sodipodi:type="inkscape:offset" />
      <path
         sodipodi:nodetypes="cccccccccccsccc"
         id="path12943"
         d="M 703.00847,221.53262 C 702.74909,221.53262 702.55353,221.72429 702.55353,221.97852 L 702.55353,230.23944 L 702.55353,231.78836 L 702.55353,234.04134 C 702.55353,234.29557 702.74909,234.48724 703.00847,234.48724 L 712.01702,234.48724 C 712.27639,234.48724 712.47195,234.29557 712.47195,234.04134 L 712.47195,233.31382 L 712.47195,230.23944 C 712.47195,228.1909 712.47195,226.16883 712.47195,225.75695 C 712.36091,224.71049 711.78291,223.9138 710.9156,223.05807 C 710.00666,222.16128 709.29432,221.55141 708.28177,221.53262 L 703.77467,221.53262 L 703.00847,221.53262 z"
         style="fill:none;stroke:url(#linearGradient12951);stroke-width:1;stroke-miterlimit:4;display:inline" />
    </g>
    <rect
       style="opacity:1;fill:#204a87;fill-opacity:1;stroke:none;display:inline"
       id="rect7228"
       width="5"
       height="1"
       x="4.000052"
       y="10.000142" />
    <rect
       style="opacity:1;fill:#204a87;fill-opacity:1;stroke:none;display:inline"
       id="rect7230"
       width="4"
       height="1"
       x="4.000052"
       y="12.000142" />
    <rect
       style="opacity:1;fill:#204a87;fill-opacity:1;stroke:none;display:inline"
       id="rect7232"
       width="7"
       height="1"
       x="4.000052"
       y="8.0001421" />
    <rect
       style="opacity:1;fill:#204a87;fill-opacity:1;stroke:none;display:inline"
       id="rect7234"
       width="2"
       height="1"
       x="9.0000525"
       y="4.0001421" />
    <rect
       style="opacity:1;fill:#204a87;fill-opacity:1;stroke:none;display:inline"
       id="rect7236"
       width="2"
       height="1"
       x="9.0000525"
       y="6.0001421" />
    <rect
       ry="0"
       rx="0"
       y="4.5001421"
       x="4.500052"
       height="2"
       width="3"
       id="rect7238"
       style="fill:#729fcf;fill-opacity:1;stroke:#204a87;stroke-width:1;stroke-linecap:round;stroke-linejoin:round;stroke-miterlimit:4;stroke-dasharray:none;stroke-dashoffset:0;stroke-opacity:1;display:inline"
       inkscape:r_cx="true"
       inkscape:r_cy="true" />
    <path
       style="opacity:0.5;fill:#729fcf;fill-opacity:1;fill-rule:evenodd;stroke:none;stroke-width:1;stroke-linecap:round;stroke-linejoin:miter;stroke-miterlimit:4;stroke-dasharray:none;stroke-dashoffset:0.3612;stroke-opacity:1;display:inline"
       d="M 2.999952,3.0001422 L 2.999952,14.000142 L 8.999952,14.000142 L 8.999952,12.000142 L 9.999952,12.000142 L 9.999952,10.000142 L 11.999952,10.000142 L 11.999952,4.0001422 L 10.999952,4.0001422 L 10.999952,3.0001422 L 2.999952,3.0001422 z"
       id="rect7659" />
    <g
       transform="translate(-302.97295,-219.0237)"
       id="use7242"
       style="display:inline">
      <path
         style="fill:#ffffff;fill-opacity:1;stroke:none;display:inline"
         d="M 311.16243,220.04545 C 310.77627,220.04545 311.15073,220.22449 311.53604,220.45065 C 313,220.49005 312.93317,220.73709 312.93317,222.99007 C 314.83742,222.99007 315.54866,224.05141 315.63787,224.46881 C 315.72707,224.8862 315.91591,225.408 315.91591,224.90776 C 315.92391,223.5371 315.01429,222.70174 314.45869,221.90052 C 313.90308,221.0993 312.17831,220.21717 311.16243,220.04545 L 311.16243,220.04545 L 311.16243,220.04545 L 311.16243,220.04545 z"
         id="path12526"
         sodipodi:nodetypes="ccccczc" />
      <path
         style="opacity:0.35627501;fill:url(#linearGradient12532);fill-opacity:1;stroke:none;display:inline"
         d="M 312,223.99007 C 315.5,223.99007 314.95305,224.34385 315.54067,224.91675 C 315.41001,224.35068 315.9915,222.99007 313,222.99007 C 313,219.93459 311.5,220.49007 311,220.44235 C 311.95642,221.57502 312.41574,220.71385 312,223.99007 z"
         id="path12529"
         sodipodi:nodetypes="ccccc" />
    </g>
    <g
       style="display:inline"
       id="g7668"
       transform="translate(-703,-1084.9999)">
      <rect
         y="1095.5"
         x="711.5"
         height="2.03125"
         width="4"
         id="rect7670"
         style="opacity:1;fill:#000000;fill-opacity:1;fill-rule:evenodd;stroke:#ffffff;stroke-width:0.99999988;stroke-linecap:round;stroke-linejoin:miter;stroke-miterlimit:4;stroke-dasharray:none;stroke-dashoffset:0.3612;stroke-opacity:1" />
      <rect
         y="1097.5"
         x="711.5"
         height="2.03125"
         width="4"
         id="rect7672"
         style="opacity:1;fill:#000000;fill-opacity:1;fill-rule:evenodd;stroke:#ffffff;stroke-width:0.99999988;stroke-linecap:round;stroke-linejoin:miter;stroke-miterlimit:4;stroke-dasharray:none;stroke-dashoffset:0.3612;stroke-opacity:1;display:inline" />
      <rect
         y="1096"
         x="713"
         height="3"
         width="1"
         id="rect7674"
         style="opacity:1;fill:#000000;fill-opacity:1;fill-rule:evenodd;stroke:none;stroke-width:1;stroke-linecap:round;stroke-linejoin:miter;stroke-miterlimit:4;stroke-dasharray:none;stroke-dashoffset:0.3612;stroke-opacity:1" />
    </g>
  </g>
</svg>
