<?xml version="1.0" encoding="UTF-8" standalone="no"?>
<!-- Created with Inkscape (http://www.inkscape.org/) -->
<svg
   xmlns:i="&amp;ns_ai;"
   xmlns:dc="http://purl.org/dc/elements/1.1/"
   xmlns:cc="http://creativecommons.org/ns#"
   xmlns:rdf="http://www.w3.org/1999/02/22-rdf-syntax-ns#"
   xmlns:svg="http://www.w3.org/2000/svg"
   xmlns="http://www.w3.org/2000/svg"
   xmlns:xlink="http://www.w3.org/1999/xlink"
   xmlns:sodipodi="http://sodipodi.sourceforge.net/DTD/sodipodi-0.dtd"
   xmlns:inkscape="http://www.inkscape.org/namespaces/inkscape"
   width="48px"
   height="48px"
   id="svg11488"
   sodipodi:version="0.32"
   inkscape:version="0.46"
   sodipodi:docname="application-x-perl.svg"
   inkscape:output_extension="org.inkscape.output.svg.inkscape">
  <defs
     id="defs11490">
    <radialGradient
       r="18.165728"
       fy="350.39514"
       fx="468.8118"
       cy="350.39514"
       cx="468.8118"
       gradientTransform="matrix(0.3779097,-0.3315835,0.4586381,0.8703295,-320.20991,-134.83344)"
       gradientUnits="userSpaceOnUse"
       id="radialGradient5311"
       xlink:href="#linearGradient5104-0"
       inkscape:collect="always" />
    <radialGradient
       r="18.165728"
       fy="350.39514"
       fx="468.8118"
       cy="350.39514"
       cx="468.8118"
       gradientTransform="matrix(-0.7577481,0.3622356,0.3338737,0.6761208,255.38474,-390.68954)"
       gradientUnits="userSpaceOnUse"
       id="radialGradient5314"
       xlink:href="#linearGradient5104-0"
       inkscape:collect="always" />
    <linearGradient
       id="linearGradient4680-04">
      <stop
         id="stop4682-1"
         offset="0"
         style="stop-color:#faeee1;stop-opacity:1;" />
      <stop
         id="stop4684-0"
         offset="1"
         style="stop-color:#eeeeec;stop-opacity:0;" />
    </linearGradient>
    <radialGradient
       r="18.165619"
       fy="351.18246"
       fx="501.5672"
       cy="351.18246"
       cx="501.5672"
       gradientTransform="matrix(0.2376525,-4.95957e-2,8.424673e-2,0.4527535,-137.68767,-114.1047)"
       gradientUnits="userSpaceOnUse"
       id="radialGradient5321"
       xlink:href="#linearGradient4680-04"
       inkscape:collect="always" />
    <linearGradient
       id="linearGradient4705-4"
       inkscape:collect="always">
      <stop
         id="stop4707-8"
         offset="0"
         style="stop-color:#ffffff;stop-opacity:1;" />
      <stop
         id="stop4709-7"
         offset="1"
         style="stop-color:#ffffff;stop-opacity:0;" />
    </linearGradient>
    <radialGradient
       r="17.272978"
       fy="339.23566"
       fx="520.37604"
       cy="339.23566"
       cx="520.37604"
       gradientTransform="matrix(0.1161161,1.4982097,-1.3674755,0.1256162,412.82497,-806.64895)"
       gradientUnits="userSpaceOnUse"
       id="radialGradient5324"
       xlink:href="#linearGradient4705-4"
       inkscape:collect="always" />
    <linearGradient
       id="linearGradient4373-0">
      <stop
         style="stop-color:#3e1f0a;stop-opacity:1;"
         offset="0"
         id="stop4375-0" />
      <stop
         style="stop-color:#48230e;stop-opacity:0;"
         offset="1"
         id="stop4377-4" />
    </linearGradient>
    <radialGradient
       r="18.165619"
       fy="354.92532"
       fx="525.50281"
       cy="354.92532"
       cx="525.50281"
       gradientTransform="matrix(-0.1990899,-0.4344416,0.8346546,-0.3023587,-171.95823,358.25889)"
       gradientUnits="userSpaceOnUse"
       id="radialGradient5328"
       xlink:href="#linearGradient4373-0"
       inkscape:collect="always" />
    <radialGradient
       r="18.165728"
       fy="350.39514"
       fx="468.8118"
       cy="350.39514"
       cx="468.8118"
       gradientTransform="matrix(0.4600411,-0.23627,0.3774649,0.7167643,-331.2717,-123.70401)"
       gradientUnits="userSpaceOnUse"
       id="radialGradient5331"
       xlink:href="#linearGradient5104-0"
       inkscape:collect="always" />
    <linearGradient
       id="linearGradient5104-0">
      <stop
         id="stop5106-8"
         offset="0"
         style="stop-color:#f8821f;stop-opacity:1;" />
      <stop
         id="stop5108-6"
         offset="1"
         style="stop-color:#cc6107;stop-opacity:0;" />
    </linearGradient>
    <radialGradient
       r="18.165728"
       fy="350.39514"
       fx="468.8118"
       cy="350.39514"
       cx="468.8118"
       gradientTransform="matrix(0.6259488,-0.3338841,0.3694718,0.7214671,-405.97367,-79.752059)"
       gradientUnits="userSpaceOnUse"
       id="radialGradient5334"
       xlink:href="#linearGradient5104-0"
       inkscape:collect="always" />
    <linearGradient
       id="linearGradient4114-5"
       inkscape:collect="always">
      <stop
         id="stop4116-9"
         offset="0"
         style="stop-color:#000000;stop-opacity:1;" />
      <stop
         id="stop4118-9"
         offset="1"
         style="stop-color:#000000;stop-opacity:0;" />
    </linearGradient>
    <radialGradient
       r="12.289036"
       fy="63.965389"
       fx="15.115514"
       cy="63.965389"
       cx="15.115514"
       gradientTransform="scale(1.64399,0.608276)"
       gradientUnits="userSpaceOnUse"
       id="radialGradient5265"
       xlink:href="#linearGradient4114-5"
       inkscape:collect="always" />
    <linearGradient
       id="linearGradient177">
      <stop
         id="stop178"
         offset="0.0000000"
         style="stop-color: rgb(255, 255, 255); stop-opacity: 1;" />
      <stop
         id="stop179"
         offset="1.0000000"
         style="stop-color: rgb(176, 176, 176); stop-opacity: 1;" />
    </linearGradient>
    <linearGradient
       y2="137.97153"
       x2="136.9856"
       y1="67.364906"
       x1="81.307533"
       gradientTransform="scale(1.24436,0.803624)"
       gradientUnits="userSpaceOnUse"
       id="linearGradient632"
       xlink:href="#linearGradient177"
       inkscape:collect="always" />
    <linearGradient
       inkscape:collect="always"
       id="linearGradient3656">
      <stop
         style="stop-color:#ffffff;stop-opacity:1;"
         offset="0"
         id="stop3658" />
      <stop
         style="stop-color:#ffffff;stop-opacity:0;"
         offset="1"
         id="stop3660" />
    </linearGradient>
    <linearGradient
       inkscape:collect="always"
       xlink:href="#linearGradient3656"
       id="linearGradient5816"
       gradientUnits="userSpaceOnUse"
       x1="-26.753757"
       y1="11.566258"
       x2="-24.75"
       y2="9.687501" />
    <linearGradient
       inkscape:collect="always"
       id="linearGradient3520">
      <stop
         style="stop-color:#000000;stop-opacity:0.41295547"
         offset="0"
         id="stop3522" />
      <stop
         style="stop-color:#000000;stop-opacity:0;"
         offset="1"
         id="stop3524" />
    </linearGradient>
    <linearGradient
       inkscape:collect="always"
       xlink:href="#linearGradient3520"
       id="linearGradient5836"
       gradientUnits="userSpaceOnUse"
       gradientTransform="matrix(0.9223058,0,0,0.9185751,-92.447368,61.3257)"
       x1="-18.588562"
       y1="11.052948"
       x2="-28.789402"
       y2="14.069944" />
    <linearGradient
       id="linearGradient3671">
      <stop
         style="stop-color:#ffffff;stop-opacity:1;"
         offset="0"
         id="stop3673" />
      <stop
         id="stop3691"
         offset="0.47533694"
         style="stop-color:#ffffff;stop-opacity:1;" />
      <stop
         style="stop-color:#ffffff;stop-opacity:0;"
         offset="1"
         id="stop3675" />
    </linearGradient>
    <radialGradient
       inkscape:collect="always"
       xlink:href="#linearGradient3671"
       id="radialGradient5839"
       gradientUnits="userSpaceOnUse"
       gradientTransform="matrix(0.4073362,-0.2798276,0.7510293,1.0932492,-115.18484,51.56213)"
       cx="-26.305403"
       cy="10.108011"
       fx="-26.305403"
       fy="10.108011"
       r="7.0421038" />
    <linearGradient
       inkscape:collect="always"
       id="linearGradient6469">
      <stop
         style="stop-color:#000000;stop-opacity:1;"
         offset="0"
         id="stop6471" />
      <stop
         style="stop-color:#000000;stop-opacity:0;"
         offset="1"
         id="stop6473" />
    </linearGradient>
    <linearGradient
       inkscape:collect="always"
       xlink:href="#linearGradient6469"
       id="linearGradient6475"
       x1="58.282169"
       y1="70.751839"
       x2="61.181217"
       y2="67.799171"
       gradientUnits="userSpaceOnUse"
       gradientTransform="translate(-180,0)" />
    <linearGradient
       inkscape:collect="always"
       id="linearGradient3741">
      <stop
         style="stop-color:#ffffff;stop-opacity:1;"
         offset="0"
         id="stop3743" />
      <stop
         style="stop-color:#ffffff;stop-opacity:0;"
         offset="1"
         id="stop3745" />
    </linearGradient>
    <radialGradient
       inkscape:collect="always"
       xlink:href="#linearGradient3741"
       id="radialGradient5810"
       gradientUnits="userSpaceOnUse"
       gradientTransform="matrix(1.8860258,0,0,1.1764706,-3.5441033,-4.2352941)"
       cx="4"
       cy="5.2999997"
       fx="4"
       fy="5.2999997"
       r="17" />
    <linearGradient
       inkscape:collect="always"
       id="linearGradient3613">
      <stop
         style="stop-color:#888a85;stop-opacity:1"
         offset="0"
         id="stop3615" />
      <stop
         style="stop-color:#babdb6;stop-opacity:1"
         offset="1"
         id="stop3617" />
    </linearGradient>
    <linearGradient
       inkscape:collect="always"
       xlink:href="#linearGradient3613"
       id="linearGradient5845"
       gradientUnits="userSpaceOnUse"
       gradientTransform="translate(-90,60)"
       x1="-47.5"
       y1="49.020683"
       x2="-62.75"
       y2="-22.502075" />
    <linearGradient
       id="linearGradient3683">
      <stop
         id="stop3685"
         offset="0"
         style="stop-color:#f6f6f5;stop-opacity:1;" />
      <stop
         id="stop3689"
         offset="1"
         style="stop-color:#d3d7cf;stop-opacity:1" />
    </linearGradient>
    <radialGradient
       inkscape:collect="always"
       xlink:href="#linearGradient3683"
       id="radialGradient5843"
       gradientUnits="userSpaceOnUse"
       gradientTransform="matrix(3.9957492,0,0,1.9350367,0.62141,28.832578)"
       cx="-30.249996"
       cy="35.357208"
       fx="-30.249996"
       fy="35.357208"
       r="18.000002" />
    <linearGradient
       inkscape:collect="always"
       xlink:href="#linearGradient3702"
       id="linearGradient5804"
       gradientUnits="userSpaceOnUse"
       x1="25.058096"
       y1="47.027729"
       x2="25.058096"
       y2="39.999443" />
    <radialGradient
       inkscape:collect="always"
       xlink:href="#linearGradient3688"
       id="radialGradient5802"
       gradientUnits="userSpaceOnUse"
       gradientTransform="matrix(2.003784,0,0,1.4,-20.01187,-104.4)"
       cx="4.9929786"
       cy="43.5"
       fx="4.9929786"
       fy="43.5"
       r="2.5" />
    <radialGradient
       inkscape:collect="always"
       xlink:href="#linearGradient3688"
       id="radialGradient5800"
       gradientUnits="userSpaceOnUse"
       gradientTransform="matrix(2.003784,0,0,1.4,27.98813,-17.4)"
       cx="4.9929786"
       cy="43.5"
       fx="4.9929786"
       fy="43.5"
       r="2.5" />
    <linearGradient
       id="linearGradient3702">
      <stop
         id="stop3704"
         offset="0"
         style="stop-color:black;stop-opacity:0;" />
      <stop
         style="stop-color:black;stop-opacity:1;"
         offset="0.5"
         id="stop3710" />
      <stop
         id="stop3706"
         offset="1"
         style="stop-color:black;stop-opacity:0;" />
    </linearGradient>
    <linearGradient
       inkscape:collect="always"
       xlink:href="#linearGradient3702"
       id="linearGradient5798"
       gradientUnits="userSpaceOnUse"
       x1="25.058096"
       y1="47.027729"
       x2="25.058096"
       y2="39.999443" />
    <radialGradient
       inkscape:collect="always"
       xlink:href="#linearGradient3688"
       id="radialGradient5796"
       gradientUnits="userSpaceOnUse"
       gradientTransform="matrix(2.003784,0,0,1.4,-20.01187,-104.4)"
       cx="4.9929786"
       cy="43.5"
       fx="4.9929786"
       fy="43.5"
       r="2.5" />
    <linearGradient
       id="linearGradient3688"
       inkscape:collect="always">
      <stop
         id="stop3690"
         offset="0"
         style="stop-color:black;stop-opacity:1;" />
      <stop
         id="stop3692"
         offset="1"
         style="stop-color:black;stop-opacity:0;" />
    </linearGradient>
    <radialGradient
       inkscape:collect="always"
       xlink:href="#linearGradient3688"
       id="radialGradient5794"
       gradientUnits="userSpaceOnUse"
       gradientTransform="matrix(2.003784,0,0,1.4,27.98813,-17.4)"
       cx="4.9929786"
       cy="43.5"
       fx="4.9929786"
       fy="43.5"
       r="2.5" />
  </defs>
  <sodipodi:namedview
     id="base"
     pagecolor="#ffffff"
     bordercolor="#666666"
     borderopacity="1.0"
     inkscape:pageopacity="0.0"
     inkscape:pageshadow="2"
     inkscape:zoom="7"
     inkscape:cx="24"
     inkscape:cy="24"
     inkscape:current-layer="layer1"
     showgrid="true"
     inkscape:grid-bbox="true"
     inkscape:document-units="px"
     inkscape:window-width="641"
     inkscape:window-height="688"
     inkscape:window-x="340"
     inkscape:window-y="333" />
  <metadata
     id="metadata11493">
    <rdf:RDF>
      <cc:Work
         rdf:about="">
        <dc:format>image/svg+xml</dc:format>
        <dc:type
           rdf:resource="http://purl.org/dc/dcmitype/StillImage" />
      </cc:Work>
    </rdf:RDF>
  </metadata>
  <g
     id="layer1"
     inkscape:label="Layer 1"
     inkscape:groupmode="layer">
    <g
       style="display:inline"
       id="g6015"
       transform="translate(150,-60)">
      <rect
         y="60"
         x="-150"
         height="48"
         width="48"
         id="rect5504"
         style="opacity:0;fill:#000000;fill-opacity:1;stroke:none;stroke-width:1;stroke-miterlimit:4;stroke-dasharray:none;display:inline" />
      <g
         transform="matrix(1.0464281,0,0,0.8888889,-151.18572,65.72224)"
         inkscape:label="Shadow"
         id="g5508"
         style="opacity:0.65587045;display:inline">
        <g
           transform="matrix(1.052632,0,0,1.285713,-1.263158,-13.42854)"
           style="opacity:0.4"
           id="g5511">
          <rect
             style="opacity:1;fill:url(#radialGradient5794);fill-opacity:1;stroke:none;stroke-width:1;stroke-linecap:round;stroke-linejoin:miter;stroke-miterlimit:4;stroke-dasharray:none;stroke-opacity:1"
             id="rect5513"
             width="5"
             height="7"
             x="38"
             y="40" />
          <rect
             style="opacity:1;fill:url(#radialGradient5796);fill-opacity:1;stroke:none;stroke-width:1;stroke-linecap:round;stroke-linejoin:miter;stroke-miterlimit:4;stroke-dasharray:none;stroke-opacity:1"
             id="rect5515"
             width="5"
             height="7"
             x="-10"
             y="-47"
             transform="scale(-1,-1)" />
          <rect
             style="opacity:1;fill:url(#linearGradient5798);fill-opacity:1;stroke:none;stroke-width:1;stroke-linecap:round;stroke-linejoin:miter;stroke-miterlimit:4;stroke-dasharray:none;stroke-opacity:1"
             id="rect5517"
             width="28"
             height="7.0000005"
             x="10"
             y="40" />
        </g>
      </g>
      <g
         transform="matrix(0.9548466,0,0,0.5555562,-148.98776,79.888875)"
         inkscape:label="Shadow"
         id="g5519"
         style="display:inline">
        <g
           transform="matrix(1.052632,0,0,1.285713,-1.263158,-13.42854)"
           style="opacity:0.4"
           id="g5521">
          <rect
             style="opacity:1;fill:url(#radialGradient5800);fill-opacity:1;stroke:none;stroke-width:1;stroke-linecap:round;stroke-linejoin:miter;stroke-miterlimit:4;stroke-dasharray:none;stroke-opacity:1"
             id="rect5523"
             width="5"
             height="7"
             x="38"
             y="40" />
          <rect
             style="opacity:1;fill:url(#radialGradient5802);fill-opacity:1;stroke:none;stroke-width:1;stroke-linecap:round;stroke-linejoin:miter;stroke-miterlimit:4;stroke-dasharray:none;stroke-opacity:1"
             id="rect5525"
             width="5"
             height="7"
             x="-10"
             y="-47"
             transform="scale(-1,-1)" />
          <rect
             style="opacity:1;fill:url(#linearGradient5804);fill-opacity:1;stroke:none;stroke-width:1;stroke-linecap:round;stroke-linejoin:miter;stroke-miterlimit:4;stroke-dasharray:none;stroke-opacity:1"
             id="rect5527"
             width="28"
             height="7.0000005"
             x="10"
             y="40" />
        </g>
      </g>
      <path
         sodipodi:nodetypes="ccsccccccc"
         id="path5529"
         d="M -141.47614,63.5 C -141.47614,63.5 -124,63.5 -122.5,63.5 C -118.62295,63.572942 -116,66 -113.5,68.5 C -111,71 -108.89232,73.752625 -108.5,77.5 C -108.5,79 -108.5,102.47614 -108.5,102.47614 C -108.5,103.59736 -109.40264,104.5 -110.52385,104.5 L -141.47614,104.5 C -142.59736,104.5 -143.5,103.59736 -143.5,102.47614 L -143.5,65.523858 C -143.5,64.402641 -142.59736,63.5 -141.47614,63.5 z"
         style="fill:url(#radialGradient5843);fill-opacity:1;stroke:url(#linearGradient5845);stroke-width:1;stroke-miterlimit:4;display:inline" />
      <path
         transform="translate(-150,60)"
         d="M 8.53125,4 C 7.6730803,4 7,4.6730802 7,5.53125 L 7,42.46875 C 7,43.32692 7.6730802,44 8.53125,44 L 39.46875,44 C 40.326919,44 41,43.326918 41,42.46875 C 41,42.46875 41,19 41,17.5 C 41,16.10803 40.513021,13.200521 38.65625,11.34375 C 36.65625,9.34375 35.65625,8.34375 33.65625,6.34375 C 31.799479,4.4869792 28.89197,4 27.5,4 C 26,4 8.53125,4 8.53125,4 z"
         id="path5531"
         style="opacity:0.68016196;fill:url(#radialGradient5810);fill-opacity:1;stroke:none;stroke-width:1;stroke-miterlimit:4;display:inline"
         inkscape:original="M 8.53125 3.5 C 7.410033 3.5 6.5 4.4100329 6.5 5.53125 L 6.5 42.46875 C 6.5 43.589967 7.4100329 44.5 8.53125 44.5 L 39.46875 44.5 C 40.589967 44.5 41.5 43.589966 41.5 42.46875 C 41.5 42.46875 41.5 19 41.5 17.5 C 41.5 16 41 13 39 11 C 37 9 36 8 34 6 C 32 4 29 3.5 27.5 3.5 C 26 3.5 8.5312499 3.5 8.53125 3.5 z "
         inkscape:radius="-0.4861359"
         sodipodi:type="inkscape:offset" />
      <path
         id="rect5857"
         d="M -138.59375,69.125 C -138.81243,69.125 -139,69.312565 -139,69.53125 C -139,69.749934 -138.81243,69.937499 -138.59375,69.9375 L -117.40625,69.9375 C -117.18757,69.9375 -117,69.749934 -117,69.53125 C -117,69.312566 -117.18757,69.125 -117.40625,69.125 L -138.59375,69.125 z M -138.53125,71.0625 C -138.79094,71.0625 -139,71.271563 -139,71.53125 C -139,71.790937 -138.79094,72 -138.53125,72 L -116.46875,72 C -116.20906,72 -116,71.790937 -116,71.53125 C -116,71.271563 -116.20906,71.0625 -116.46875,71.0625 L -138.53125,71.0625 z M -138.53125,73.0625 C -138.79094,73.0625 -139,73.271563 -139,73.53125 C -139,73.790937 -138.79094,74 -138.53125,74 L -113.34375,74 C -113.08406,74 -112.875,73.790937 -112.875,73.53125 C -112.875,73.271563 -113.08406,73.0625 -113.34375,73.0625 L -138.53125,73.0625 z M -138.53125,75.0625 C -138.79094,75.0625 -139,75.271563 -139,75.53125 C -139,75.790937 -138.79094,76 -138.53125,76 L -113.34375,76 C -113.08406,76 -112.875,75.790937 -112.875,75.53125 C -112.875,75.271563 -113.08406,75.0625 -113.34375,75.0625 L -138.53125,75.0625 z M -138.53125,77.0625 C -138.79094,77.0625 -139,77.271563 -139,77.53125 C -139,77.790937 -138.79094,78 -138.53125,78 L -113.34375,78 C -113.08406,78 -112.875,77.790937 -112.875,77.53125 C -112.875,77.271563 -113.08406,77.0625 -113.34375,77.0625 L -138.53125,77.0625 z"
         style="opacity:0.15;fill:url(#linearGradient6475);fill-opacity:1;fill-rule:evenodd;stroke:none;stroke-width:0.99999982px;stroke-linecap:round;stroke-linejoin:round;marker:none;marker-start:none;marker-mid:none;marker-end:none;stroke-miterlimit:4;stroke-dasharray:none;stroke-dashoffset:0;stroke-opacity:1;visibility:visible;display:inline;overflow:visible" />
      <path
         sodipodi:nodetypes="ccccczc"
         id="path5533"
         d="M -122.5,64 C -123.88889,64 -122.54207,64.497088 -121.15625,65.125 C -119.77043,65.752912 -116.18337,68.340052 -117,72 C -112.67669,71.569417 -110.32087,75.122378 -110,76.28125 C -109.67913,77.440122 -109,78.888889 -109,77.5 C -108.97167,73.694419 -111.84543,71.068299 -113.84375,68.84375 C -115.84207,66.619201 -118.84621,64.476761 -122.5,64 z"
         style="fill:url(#radialGradient5839);fill-opacity:1;stroke:none;stroke-width:1;stroke-miterlimit:4;display:inline" />
      <path
         sodipodi:nodetypes="ccccc"
         id="path5535"
         d="M -121.39912,65.014353 C -120.47682,65.014353 -118.39068,71.210015 -119.31298,75.343603 C -115.01802,74.915844 -110.4596,75.43178 -110,76.28125 C -110.32087,75.122378 -112.67669,71.569417 -117,72 C -116.13534,68.124761 -120.18657,65.382702 -121.39912,65.014353 z"
         style="opacity:0.87854249;fill:url(#linearGradient5836);fill-opacity:1;stroke:none;stroke-width:1;stroke-miterlimit:4;display:inline" />
      <path
         transform="translate(-90,60)"
         d="M -51.46875,4.5 C -52.051916,4.5 -52.5,4.9480842 -52.5,5.53125 L -52.5,42.46875 C -52.5,43.051915 -52.051914,43.5 -51.46875,43.5 L -20.53125,43.5 C -19.948085,43.5 -19.5,43.051914 -19.5,42.46875 C -19.5,42.46875 -19.5,19 -19.5,17.5 C -19.5,16.220971 -19.980469,13.394531 -21.6875,11.6875 C -23.6875,9.6875 -24.6875,8.6875 -26.6875,6.6875 C -28.394531,4.9804687 -31.220971,4.5 -32.5,4.5 C -34,4.5 -51.46875,4.5 -51.46875,4.5 z"
         id="path5537"
         style="fill:none;fill-opacity:1;stroke:url(#linearGradient5816);stroke-width:1;stroke-miterlimit:4;display:inline"
         inkscape:original="M -51.46875 3.5 C -52.589967 3.5 -53.5 4.4100329 -53.5 5.53125 L -53.5 42.46875 C -53.5 43.589967 -52.589966 44.5 -51.46875 44.5 L -20.53125 44.5 C -19.410033 44.5 -18.5 43.589966 -18.5 42.46875 C -18.5 42.46875 -18.5 19 -18.5 17.5 C -18.5 16 -19 13 -21 11 C -23 9 -24 8 -26 6 C -28 4 -31 3.5 -32.5 3.5 C -34 3.5 -51.468749 3.5 -51.46875 3.5 z "
         inkscape:radius="-0.99436891"
         sodipodi:type="inkscape:offset" />
      <g
         inkscape:r_cy="true"
         inkscape:r_cx="true"
         transform="matrix(0.928889,0,0,1,-148.28889,60)"
         style="opacity:0.15;fill:#000000;display:inline"
         id="g5539">
        <rect
           ry="0.46875"
           rx="0.50463516"
           inkscape:r_cy="true"
           inkscape:r_cx="true"
           y="19.0625"
           x="10"
           height="0.9375"
           width="28.125"
           id="rect5549"
           style="opacity:1;fill:#000000;fill-opacity:1;fill-rule:evenodd;stroke:none;stroke-width:0.99999982px;stroke-linecap:round;stroke-linejoin:round;marker:none;marker-start:none;marker-mid:none;marker-end:none;stroke-miterlimit:4;stroke-dasharray:none;stroke-dashoffset:0;stroke-opacity:1;visibility:visible;display:inline;overflow:visible" />
        <rect
           style="opacity:1;fill:#000000;fill-opacity:1;fill-rule:evenodd;stroke:none;stroke-width:0.99999982px;stroke-linecap:round;stroke-linejoin:round;marker:none;marker-start:none;marker-mid:none;marker-end:none;stroke-miterlimit:4;stroke-dasharray:none;stroke-dashoffset:0;stroke-opacity:1;visibility:visible;display:inline;overflow:visible"
           id="rect5553"
           width="28.125"
           height="0.9375"
           x="10"
           y="21.0625"
           inkscape:r_cx="true"
           inkscape:r_cy="true"
           rx="0.50463516"
           ry="0.46875" />
        <rect
           style="opacity:1;fill:#000000;fill-opacity:1;fill-rule:evenodd;stroke:none;stroke-width:0.99999982px;stroke-linecap:round;stroke-linejoin:round;marker:none;marker-start:none;marker-mid:none;marker-end:none;stroke-miterlimit:4;stroke-dasharray:none;stroke-dashoffset:0;stroke-opacity:1;visibility:visible;display:inline;overflow:visible"
           id="rect5555"
           width="28.125"
           height="0.9375"
           x="10"
           y="23.0625"
           inkscape:r_cx="true"
           inkscape:r_cy="true"
           rx="0.50463516"
           ry="0.46875" />
        <rect
           ry="0.46875"
           rx="0.50463516"
           inkscape:r_cy="true"
           inkscape:r_cx="true"
           y="25.0625"
           x="10"
           height="0.9375"
           width="28.125"
           id="rect5557"
           style="opacity:1;fill:#000000;fill-opacity:1;fill-rule:evenodd;stroke:none;stroke-width:0.99999982px;stroke-linecap:round;stroke-linejoin:round;marker:none;marker-start:none;marker-mid:none;marker-end:none;stroke-miterlimit:4;stroke-dasharray:none;stroke-dashoffset:0;stroke-opacity:1;visibility:visible;display:inline;overflow:visible" />
        <rect
           ry="0.46875"
           rx="0.50463516"
           inkscape:r_cy="true"
           inkscape:r_cx="true"
           y="27.0625"
           x="10"
           height="0.9375"
           width="28.125"
           id="rect5559"
           style="opacity:1;fill:#000000;fill-opacity:1;fill-rule:evenodd;stroke:none;stroke-width:0.99999982px;stroke-linecap:round;stroke-linejoin:round;marker:none;marker-start:none;marker-mid:none;marker-end:none;stroke-miterlimit:4;stroke-dasharray:none;stroke-dashoffset:0;stroke-opacity:1;visibility:visible;display:inline;overflow:visible" />
        <rect
           style="opacity:1;fill:#000000;fill-opacity:1;fill-rule:evenodd;stroke:none;stroke-width:0.99999982px;stroke-linecap:round;stroke-linejoin:round;marker:none;marker-start:none;marker-mid:none;marker-end:none;stroke-miterlimit:4;stroke-dasharray:none;stroke-dashoffset:0;stroke-opacity:1;visibility:visible;display:inline;overflow:visible"
           id="rect5561"
           width="28.125"
           height="0.9375"
           x="10"
           y="29.0625"
           inkscape:r_cx="true"
           inkscape:r_cy="true"
           rx="0.50463516"
           ry="0.46875" />
        <rect
           style="opacity:1;fill:#000000;fill-opacity:1;fill-rule:evenodd;stroke:none;stroke-width:0.99999982px;stroke-linecap:round;stroke-linejoin:round;marker:none;marker-start:none;marker-mid:none;marker-end:none;stroke-miterlimit:4;stroke-dasharray:none;stroke-dashoffset:0;stroke-opacity:1;visibility:visible;display:inline;overflow:visible"
           id="rect5563"
           width="28.125"
           height="0.9375"
           x="10"
           y="31.0625"
           inkscape:r_cx="true"
           inkscape:r_cy="true"
           rx="0.50463516"
           ry="0.46875" />
        <rect
           ry="0.46875"
           rx="0.50463516"
           inkscape:r_cy="true"
           inkscape:r_cx="true"
           y="33.0625"
           x="10"
           height="0.9375"
           width="28.125"
           id="rect5565"
           style="opacity:1;fill:#000000;fill-opacity:1;fill-rule:evenodd;stroke:none;stroke-width:0.99999982px;stroke-linecap:round;stroke-linejoin:round;marker:none;marker-start:none;marker-mid:none;marker-end:none;stroke-miterlimit:4;stroke-dasharray:none;stroke-dashoffset:0;stroke-opacity:1;visibility:visible;display:inline;overflow:visible" />
        <rect
           ry="0.46875"
           rx="0.50463516"
           inkscape:r_cy="true"
           inkscape:r_cx="true"
           y="35.0625"
           x="10"
           height="0.9375"
           width="28.125"
           id="rect5567"
           style="opacity:1;fill:#000000;fill-opacity:1;fill-rule:evenodd;stroke:none;stroke-width:0.99999982px;stroke-linecap:round;stroke-linejoin:round;marker:none;marker-start:none;marker-mid:none;marker-end:none;stroke-miterlimit:4;stroke-dasharray:none;stroke-dashoffset:0;stroke-opacity:1;visibility:visible;display:inline;overflow:visible" />
        <rect
           ry="0.46875"
           rx="0.50463516"
           inkscape:r_cy="true"
           inkscape:r_cx="true"
           y="37.0625"
           x="10"
           height="0.9375"
           width="13.8125"
           id="rect5569"
           style="opacity:1;fill:#000000;fill-opacity:1;fill-rule:evenodd;stroke:none;stroke-width:0.99999982px;stroke-linecap:round;stroke-linejoin:round;marker:none;marker-start:none;marker-mid:none;marker-end:none;stroke-miterlimit:4;stroke-dasharray:none;stroke-dashoffset:0;stroke-opacity:1;visibility:visible;display:inline;overflow:visible" />
      </g>
    </g>
    <g
       id="g4309"
       transform="translate(17.112759,16.945856)">
      <g
         inkscape:label="Shadow"
         id="layer6-3" />
      <g
         id="layer1-0"
         inkscape:label="Base"
         style="display:inline" />
      <g
         style="display:inline"
         inkscape:label="Text"
         id="layer5-1" />
      <g
         inkscape:label="emblem"
         id="layer2-7">
        <g
           transform="translate(-54.12868,24.476865)"
           inkscape:label="Shadow"
           id="layer6-2" />
        <g
           transform="translate(-54.12868,24.476865)"
           id="layer1-6"
           inkscape:label="Base"
           style="display:inline" />
        <g
           transform="translate(-54.12868,24.476865)"
           style="display:inline"
           inkscape:label="Text"
           id="layer5-5" />
        <g
           transform="translate(-64.999947,-7.056766)"
           id="layer2-2"
           inkscape:label="trash">
          <g
             i:knockout="Off"
             style="fill:url(#linearGradient632);fill-opacity:1;fill-rule:evenodd;stroke:none;stroke-width:2.13333011;marker:none;visibility:visible;display:inline;overflow:visible"
             id="g620"
             transform="matrix(0.273209,0,0,0.273209,6.15312,9.65744)" />
        </g>
        <g
           transform="translate(-72.50237,-6.3154108)"
           inkscape:label="Shadow"
           id="layer6-1" />
        <g
           transform="translate(-72.50237,-6.3154108)"
           id="layer1-7"
           inkscape:label="Base"
           style="display:inline" />
        <g
           transform="translate(-72.50237,-6.3154108)"
           style="display:inline"
           inkscape:label="Text"
           id="layer5-8" />
        <path
           sodipodi:type="arc"
           style="opacity:0.51999996;fill:url(#radialGradient5265);fill-opacity:1;stroke:none;display:inline"
           id="path4325-1"
           sodipodi:cx="24.849752"
           sodipodi:cy="38.908627"
           sodipodi:rx="20.203051"
           sodipodi:ry="7.4751287"
           d="M 45.052803,38.908627 A 20.203051,7.4751287 0 1 1 4.6467018,38.908627 A 20.203051,7.4751287 0 1 1 45.052803,38.908627 z"
           transform="matrix(0.599551,0,0,0.87593,1.101306,-9.574779)" />
        <path
           style="fill:#a24407;fill-opacity:1;fill-rule:nonzero;stroke:none"
           d="M 7.079029,2.761597 C 7.071229,2.766197 7.064249,2.783227 7.055409,2.797557 C 6.62139,3.039559 6.410846,3.164497 6.442465,3.268662 C 6.410565,3.338752 6.383795,3.428433 6.413765,3.528597 C 6.425845,3.568927 8.101201,6.507074 8.12244,6.544565 C 8.648178,7.472539 9.025234,8.386037 9.07669,8.81128 C 9.191932,9.763975 8.783372,11.144048 7.57299,13.805673 C 6.285194,16.637532 5.745097,18.661973 5.847566,20.388792 C 6.04955,23.792948 8.639088,26.717815 12.102384,27.468949 C 13.339737,27.73731 15.344715,27.719844 16.733208,27.528309 C 16.795278,27.519709 16.85034,27.499909 16.90983,27.490639 C 18.138873,27.25028 19.760246,26.636283 21.159902,25.82966 C 21.227702,25.808 21.301179,25.77454 21.357867,25.713184 C 22.014024,25.320774 22.611772,24.880943 23.092882,24.427224 C 24.386304,23.207465 25.225496,22.162407 25.704675,21.233413 C 27.962732,17.271144 27.25891,12.428602 24.007768,10.123751 C 22.649625,9.160924 20.331784,8.57317 17.075032,8.36964 C 12.456473,8.080996 11.820947,7.831364 10.772007,5.979892 C 10.699547,5.851994 10.653027,5.764881 10.593629,5.665037 C 10.411457,5.338488 10.221943,5.011378 10.039718,4.687333 C 10.033618,4.676443 9.178396,3.167007 9.522026,3.77356 C 8.974998,4.12242 7.862908,3.72047 7.121399,2.758726 C 7.109949,2.759826 7.087689,2.756526 7.079029,2.761626 L 7.079029,2.761597 z"
           id="rect4675-5"
           sodipodi:nodetypes="cccssssssssccscsssssccc" />
        <path
           id="path4199-4"
           d="M 7.075966,2.760601 C 6.975035,2.819981 7.33315,3.502769 7.988802,4.496838 C 8.266369,4.91765 8.515162,5.364572 8.766651,5.807315 C 8.898954,5.760785 8.920851,5.642031 8.845221,5.508497 C 8.766111,5.36886 8.800841,5.20985 8.893131,5.155552 C 8.903151,5.149652 8.909321,5.140602 8.919681,5.139922 C 8.390408,4.227524 7.896288,3.4317 7.648183,3.145612 C 7.420699,2.883301 7.166371,2.707406 7.075966,2.760596 L 7.075966,2.760601 z M 7.407561,4.658397 C 7.248802,4.752267 7.514954,5.472954 8.123275,6.546698 C 8.649012,7.474672 9.028747,8.373017 9.080202,8.79826 C 9.195445,9.750955 8.772017,11.143725 7.561634,13.80535 C 6.27384,16.637208 5.745974,18.679592 5.848443,20.406411 C 5.870923,20.785227 5.944683,21.165414 6.024512,21.529688 C 5.974312,21.275999 5.959182,21.013542 5.937432,20.750982 C 5.798279,19.070945 6.448454,16.760414 7.903865,13.784417 C 9.069922,11.400078 9.58985,10.15983 9.65242,9.183276 C 9.64612,9.157546 9.65542,9.140626 9.64832,9.113526 C 9.314061,7.843126 8.11856,5.094438 7.716128,4.76553 C 7.567942,4.644429 7.460485,4.62711 7.407571,4.658399 L 7.407561,4.658397 z M 6.024512,21.529688 C 6.135205,22.034803 6.283688,22.518342 6.494906,22.984976 C 6.289652,22.520063 6.12492,22.037061 6.024512,21.529688 z M 9.227138,4.995115 C 9.229838,5.091695 9.346683,5.275004 9.545012,5.493693 C 9.439728,5.308565 9.352106,5.157196 9.253694,4.97949 C 9.250094,4.98962 9.226774,4.98219 9.227144,4.99512 L 9.227138,4.995115 z M 9.919813,5.092755 C 9.903563,5.113055 9.898153,5.136805 9.882033,5.151065 C 10.95344,7.047195 12.238935,8.742867 13.213809,9.469453 C 13.220909,9.474653 13.222109,9.491393 13.229149,9.496513 C 13.296159,9.528233 13.341173,9.535203 13.412038,9.569333 C 14.12741,9.913755 15.200986,10.347234 15.804932,10.54301 C 17.398977,11.059725 18.664338,11.732931 19.781695,12.74986 C 20.189692,13.121187 20.471418,13.41592 20.748449,13.76877 C 20.798519,13.82489 20.860085,13.86862 20.90889,13.926963 C 21.20776,14.284236 21.445956,14.704394 21.667299,15.140625 C 21.690779,15.179265 21.705769,15.210725 21.728629,15.248878 C 22.825342,17.081757 23.190861,18.38402 23.14612,20.18838 C 23.10771,21.737167 22.801572,23.205221 22.587113,22.826681 C 22.508823,22.688495 22.440736,22.151601 22.433493,21.618027 C 22.431293,21.46017 22.427293,21.311208 22.420073,21.156829 C 22.27594,21.959679 22.051818,22.732926 21.718964,23.481809 C 21.590474,23.770896 21.470668,23.980467 21.371821,24.119068 C 21.921962,24.021878 22.594321,23.987119 22.946077,24.022778 C 22.984627,24.026678 23.020057,24.027978 23.056412,24.030078 C 23.043412,23.906965 23.368952,23.153872 23.805719,22.290174 C 23.871479,22.160149 23.914395,22.030968 23.975183,21.901793 C 23.929963,21.68718 23.959843,21.190635 24.053463,20.664954 C 24.513787,18.079698 24.150153,16.048378 22.879602,14.03048 C 21.660253,12.093891 20.574634,11.436466 16.686524,10.349132 C 13.774229,9.534684 12.837293,9.179886 12.625178,8.805483 C 12.622478,8.800683 12.607098,8.780983 12.609838,8.778423 C 12.656858,8.731173 13.349247,8.888828 14.208744,9.100639 C 15.125519,9.326563 16.523853,9.568966 17.318669,9.652441 C 17.52675,9.674291 17.702721,9.715651 17.901009,9.742821 C 17.324527,9.55619 16.74804,9.349984 16.164111,9.177036 C 14.593301,8.711796 12.977358,8.146157 12.598319,7.883086 C 12.522859,7.830716 12.414489,7.725888 12.308102,7.620827 C 12.287872,7.610647 12.270612,7.592817 12.250882,7.582327 C 11.624438,7.2489 11.225761,6.77286 10.783353,5.99197 C 10.244079,5.040102 10.086668,4.884836 9.919818,5.092752 L 9.919813,5.092755 z M 9.256996,5.735323 C 9.388244,6.121424 10.005394,7.324123 10.668689,8.477089 C 10.705679,8.541399 10.725089,8.580045 10.760689,8.639468 C 10.338267,7.757375 9.820082,6.735633 9.257001,5.735323 L 9.256996,5.735323 z M 11.353148,8.435222 C 11.512353,8.740913 11.647704,9.0439 11.775343,9.305434 C 11.812333,9.381134 11.877873,9.475209 11.913336,9.549003 C 11.900386,9.570323 11.978156,9.629483 12.313888,9.818515 C 12.162324,9.638392 12.032066,9.432934 11.850905,9.188807 C 11.712298,9.002013 11.521232,8.686726 11.353148,8.435222 L 11.353148,8.435222 z M 10.925528,9.805434 C 10.886688,9.838914 10.823583,10.306691 10.770592,10.906956 C 10.771506,10.915756 10.785062,10.925296 10.785932,10.934016 C 10.851372,11.592763 10.758652,13.209812 10.584781,14.516467 C 10.231004,17.175099 10.265599,18.458799 10.656901,19.70627 C 10.818241,20.127189 11.031321,20.573017 11.363297,21.203125 C 11.384837,21.237345 11.402427,21.277395 11.424627,21.311378 C 12.446261,22.875856 14.145003,24.19527 16.114902,24.902643 C 14.371956,23.766889 13.138925,22.351064 12.097567,20.374178 C 11.030299,18.348111 10.84539,17.16074 11.029933,13.677205 C 11.168156,11.067942 11.137649,10.179834 10.925533,9.805431 L 10.925528,9.805434 z M 11.540735,10.453831 C 11.545735,10.509451 11.539757,10.545961 11.553065,10.663086 C 11.634555,11.380465 11.685426,12.415663 11.688641,12.964888 C 11.691941,13.535431 11.748801,14.082568 11.813798,14.623301 C 11.804498,14.122651 11.806198,13.583504 11.814309,12.999203 C 11.830829,11.795411 11.793909,11.234497 11.54074,10.453831 L 11.540735,10.453831 z M 12.486653,10.185962 C 12.522433,10.263512 12.604023,10.438751 12.644087,10.526347 C 13.057554,10.956961 13.528981,11.448267 13.813171,11.714888 C 14.766042,12.608847 15.584854,13.544786 16.435542,14.718613 C 17.05679,15.575848 17.341251,16.035052 18.055579,17.265628 C 19.168332,19.182578 19.733877,20.380956 20.224875,21.907133 C 20.637728,23.190415 20.889481,24.330224 20.675022,23.951684 C 20.687772,24.062067 20.657662,24.10854 20.595352,23.998554 C 20.577992,23.967904 20.526002,23.825472 20.499242,23.766422 C 20.579902,24.061902 20.610442,24.212702 20.515682,24.045429 C 20.437392,23.907243 20.240732,23.445997 20.069938,23.00865 C 19.856098,22.461063 19.638199,21.918155 19.397214,21.383731 C 19.506134,21.775524 19.599212,22.16275 19.672394,22.556947 C 19.632184,22.45612 19.603414,22.401598 19.560957,22.297753 C 18.962843,20.8346 18.363975,19.655827 17.258878,17.734373 C 16.549428,16.500927 16.274331,16.036214 15.691955,15.156108 C 14.992336,14.098837 14.324797,13.227177 13.618251,12.370833 C 13.776929,12.537652 13.87353,12.642362 14.057686,12.833973 C 14.407329,13.197773 14.712426,13.56378 15.028548,13.922635 C 14.637629,13.408846 14.202486,12.846869 13.632484,12.145953 C 13.339824,11.786081 13.226133,11.63003 13.009059,11.358052 C 13.149106,11.670928 13.235011,11.847538 13.42003,12.270953 C 13.829031,13.206941 14.103106,13.794551 14.399404,14.437138 C 15.142868,15.525981 15.765078,16.487614 16.505974,17.780426 C 17.49561,19.507426 18.254741,20.994961 18.968493,22.502 C 19.150981,22.775288 19.324712,23.065339 19.512248,23.336775 C 19.739872,23.666215 19.929693,23.964486 20.040668,24.144487 C 20.312425,24.258218 20.595007,24.259409 21.018352,24.182687 C 20.907817,23.929001 20.876754,23.287464 20.945212,22.241081 C 20.948112,22.196151 20.949512,22.172411 20.952412,22.128641 C 20.551514,20.176229 19.861269,18.427425 18.710267,16.48355 C 17.544812,14.515253 16.768054,13.676105 14.323045,11.739702 C 13.40053,11.009082 12.883731,10.55206 12.486741,10.185956 L 12.486653,10.185962 z M 8.621485,15.238586 C 7.94628,16.928221 7.639389,18.401672 7.724946,19.843613 C 7.795056,21.02512 7.956806,21.556521 8.601397,22.828128 C 9.605523,24.808989 10.672965,25.71207 12.682774,26.344633 C 14.372718,26.87652 16.24206,27.064599 16.0276,26.686059 C 16.0178,26.668779 15.97787,26.641519 15.95504,26.620499 C 10.421381,26.188639 7.392288,22.709557 8.167598,17.562449 C 8.231048,17.14126 8.407134,16.236779 8.62148,15.238591 L 8.621485,15.238586 z M 16.209073,12.506374 C 16.736648,12.941509 17.227777,13.41532 17.710264,13.968613 C 18.414981,14.776738 18.711636,15.228767 19.436528,16.453128 C 20.245411,17.81936 20.712185,18.843738 21.014971,19.926724 C 20.989671,19.00472 20.862166,18.373771 20.56673,17.448039 C 19.919503,15.420029 18.861107,14.188829 16.209073,12.506374 z M 26.667654,13.966729 C 26.775241,14.328108 26.839179,14.681679 26.896836,15.058756 C 26.839546,14.68176 26.773816,14.326001 26.667654,13.966729 z M 9.526046,26.397715 C 9.717967,26.517785 9.906669,26.635601 10.109487,26.740043 C 9.912938,26.636246 9.71216,26.514788 9.526046,26.397715 z M 15.756745,23.020471 C 16.06125,23.340729 16.382433,23.653004 16.745948,23.954005 C 17.82347,24.84622 18.924286,25.486471 18.709827,25.107931 C 18.631537,24.969746 18.259034,24.611959 17.892289,24.289902 C 17.802899,24.211402 17.730957,24.118655 17.643961,24.039081 C 16.802197,23.615292 16.223791,23.3133 15.756745,23.020471 L 15.756745,23.020471 z M 26.904837,17.760375 C 26.838047,18.158427 26.742292,18.547079 26.617116,18.940022 C 26.065226,20.672463 24.255104,23.402216 23.425183,23.993467 C 23.938373,23.880593 24.332959,23.371827 25.381867,21.759693 C 26.205366,20.49401 26.703173,19.127095 26.904837,17.760375 z M 19.371837,25.15144 C 19.324987,25.20835 19.299467,25.23507 19.243162,25.299317 C 19.209832,25.337357 19.174702,25.390537 19.141044,25.431568 C 19.404909,25.399988 19.480573,25.306488 19.371837,25.15144 L 19.371837,25.15144 z M 18.223079,26.873776 C 18.164759,26.991501 18.08407,27.094981 18.007617,27.180967 C 18.197986,27.087117 18.327574,26.995719 18.264968,26.885214 C 18.263468,26.882614 18.226618,26.876514 18.223078,26.873774 L 18.223079,26.873776 z"
           style="fill:url(#radialGradient5334);fill-opacity:1;fill-rule:nonzero;stroke:none"
           sodipodi:nodetypes="cscssssccssssssssssccscccscccsssssssssssscscssscssssssscsssssccssccsscsccssscsscssccsscscccsssscsssscsssscscscscscsccscssccsssscsccsscsccsccsccssscccscsccssccssc" />
        <path
           id="path4666-9"
           d="M 7.223493,2.677788 C 7.149953,2.721048 7.496191,3.391201 8.133019,4.396346 C 9.563979,6.654834 10.829172,9.326144 11.121774,10.746736 C 11.249858,11.368626 11.369526,12.865527 11.381722,14.062708 C 11.407972,16.639685 11.571549,17.818418 12.089959,19.103474 C 13.190389,21.831268 16.066563,24.399478 18.876458,25.141674 C 20.128589,25.472405 19.879129,25.005235 18.189598,23.844482 C 16.177659,22.462216 15.753118,22.087713 14.781697,20.856098 C 13.22757,18.885682 12.664067,17.127287 12.176236,12.77773 C 12.008703,11.284211 11.89599,10.850752 11.292032,9.519718 C 10.522046,7.82281 8.331164,3.889838 7.725608,3.111495 C 7.514178,2.839739 7.289344,2.639044 7.223474,2.677798 L 7.223494,2.677787 L 7.223493,2.677788 z M 7.697315,4.475938 C 7.581694,4.544428 7.882446,5.255331 8.490768,6.329074 C 9.016505,7.257048 9.422158,8.153721 9.512174,8.556276 C 9.713819,9.458135 9.547564,10.695647 8.890463,13.031739 C 8.191342,15.517243 7.994624,17.339653 8.275364,18.961583 C 8.828785,22.158968 11.228523,25.195503 14.073517,26.310426 C 15.824435,26.996589 19.272416,27.141845 18.915004,26.510981 C 18.872974,26.436791 18.183313,26.245804 17.390105,26.082477 C 12.735154,25.123971 9.782739,21.426195 9.807312,16.60197 C 9.810412,15.979403 9.903852,14.266853 10.02781,12.804466 C 10.151773,11.342083 10.201422,9.785771 10.12057,9.34726 C 9.969197,8.526331 8.37063,5.035612 7.960974,4.630142 C 7.828986,4.499511 7.735854,4.453108 7.697318,4.475938 L 7.697315,4.475938 z M 9.216949,4.951729 C 9.143969,4.994669 9.255879,5.232886 9.500113,5.536357 C 9.725183,5.815947 10.465652,7.029276 11.133326,8.221109 C 12.202704,10.129938 12.450929,10.719439 13.325567,13.250445 C 14.94808,17.94557 16.858461,21.245556 19.286798,23.574544 C 20.090152,24.345033 20.181798,24.382228 20.935239,24.305977 C 21.376155,24.261347 21.996608,24.299177 22.308432,24.381837 C 22.960855,24.554784 23.162431,24.333357 23.992442,22.573509 C 25.624225,19.113695 24.537994,14.218726 21.555554,11.567799 C 20.362821,10.507651 18.448979,9.6822 15.831639,9.102463 C 12.119858,8.280302 11.5849,7.9715 10.535963,6.120027 C 9.996688,5.168158 9.861095,5.015363 9.752177,5.189193 C 9.671947,5.317214 9.574576,5.300038 9.487388,5.146173 C 9.408278,5.006538 9.284214,4.912192 9.216975,4.951755 L 9.216955,4.951765 L 9.216949,4.951729 z M 12.320507,8.95879 C 12.352517,8.92037 12.918575,9.126721 13.627554,9.427091 C 14.383779,9.747477 15.525367,10.14563 16.168031,10.318626 C 17.864268,10.775215 19.187273,11.441538 20.347133,12.433459 C 21.194166,13.157851 21.522941,13.559712 22.265842,14.773476 C 23.423099,16.664241 23.783241,17.987091 23.652032,19.879352 C 23.541703,21.470455 23.121386,23.016262 22.906927,22.637722 C 22.828637,22.499536 22.781831,21.945555 22.797756,21.398349 C 22.866266,19.043621 22.343821,17.095326 21.099193,15.062181 C 19.904715,13.110959 18.975412,12.395343 15.753306,10.916156 C 13.339863,9.808201 12.542012,9.349765 12.329896,8.975361 C 12.327196,8.970561 12.318616,8.960851 12.320496,8.958811 L 12.320481,8.958785 L 12.320507,8.95879 z"
           style="fill:url(#radialGradient5331);fill-opacity:1;fill-rule:nonzero;stroke:none"
           sodipodi:nodetypes="csssssssssscccsssssssssssccsssssssssssscccsssssssssscc" />
        <path
           style="opacity:0.80058654;fill:url(#radialGradient5328);fill-opacity:1;fill-rule:nonzero;stroke:none"
           d="M 7.201622,1.750214 C 7.193822,1.754814 7.186842,1.771844 7.178002,1.786174 C 6.743981,2.028176 6.533438,2.153114 6.565057,2.257278 C 6.533157,2.327368 6.506387,2.417049 6.536357,2.517213 C 6.548437,2.557543 8.223792,5.49569 8.245033,5.533181 C 8.770769,6.461155 9.147825,7.374653 9.199281,7.799896 C 9.314524,8.75259 8.905963,10.132665 7.69558,12.79429 C 6.407785,15.626148 5.867689,17.650589 5.970157,19.377408 C 6.172142,22.781564 8.761679,25.706431 12.224976,26.457566 C 13.462328,26.725927 15.467307,26.708461 16.855799,26.516926 C 16.917869,26.508326 16.972931,26.488526 17.032421,26.479256 C 18.261465,26.238897 19.882837,25.6249 21.282493,24.818277 C 21.350293,24.796627 21.423769,24.763157 21.480458,24.701801 C 22.136614,24.309392 22.734358,23.869551 23.215475,23.415841 C 24.508894,22.196082 25.348087,21.151024 25.827268,20.222031 C 28.085324,16.259761 27.381502,11.417219 24.130359,9.112367 C 22.772215,8.149541 20.454375,7.561788 17.197624,7.358257 C 12.579065,7.069614 11.943537,6.819981 10.894599,4.968508 C 10.822139,4.840611 10.775619,4.753497 10.716221,4.653654 C 10.534049,4.327104 10.344536,3.999995 10.16231,3.675951 C 10.15213,3.657831 9.177737,1.938175 8.894886,1.438831 C 8.848096,1.356221 8.568007,0.861861 8.622624,0.958266 C 8.006494,1.329896 7.576416,1.562617 7.243994,1.747347 C 7.232554,1.748447 7.210284,1.745147 7.201614,1.750247 L 7.201622,1.750214 z"
           id="path4369-2" />
        <path
           style="fill:none;stroke:#642c03;stroke-width:0.99059623;stroke-miterlimit:4;stroke-dasharray:none;stroke-opacity:1"
           d="M 7.181361,2.98105 C 7.179361,2.98995 7.177161,2.99867 7.174261,3.00728 C 6.958315,3.127985 6.794442,3.219668 6.712342,3.279056 C 6.681592,3.301426 6.668442,3.302806 6.662872,3.308156 C 6.660172,3.326126 6.655272,3.343776 6.648652,3.360716 C 6.637112,3.386096 6.636362,3.398916 6.634432,3.413276 C 6.635532,3.415476 6.641632,3.425736 6.643832,3.429816 C 6.646032,3.434916 6.652032,3.443326 6.653232,3.446366 C 6.665462,3.468796 6.660432,3.497156 6.683712,3.538916 C 6.730342,3.622456 6.801426,3.746244 6.880866,3.886912 C 7.039747,4.168248 7.251491,4.542292 7.462942,4.914331 C 7.885847,5.658397 8.314605,6.378835 8.333748,6.412624 C 8.868472,7.356459 9.254949,8.24719 9.318443,8.771902 C 9.445283,9.820471 8.994219,11.225857 7.779199,13.897684 C 6.498977,16.712882 5.983412,18.710728 6.082211,20.375691 C 6.277383,23.66503 8.783057,26.506873 12.146712,27.236399 C 13.330685,27.493187 15.340105,27.462735 16.699878,27.275169 C 16.728598,27.271169 16.786868,27.260329 16.860007,27.247209 C 16.865107,27.246268 16.871257,27.238509 16.876477,27.237509 C 18.067663,27.002003 19.665062,26.397799 21.034675,25.608491 C 21.053605,25.601591 21.073485,25.597591 21.093515,25.595931 C 21.140895,25.580781 21.160805,25.563841 21.176005,25.547401 C 21.191745,25.525981 21.210935,25.507191 21.232625,25.492031 C 21.875917,25.107191 22.462589,24.690227 22.927537,24.251761 C 24.208646,23.043616 25.022773,22.00507 25.48273,21.113347 C 25.48813,21.109947 25.49359,21.106647 25.4992,21.103647 C 27.703591,17.235547 27.007654,12.532035 23.87002,10.307655 C 22.577907,9.391645 20.285734,8.79979 17.050219,8.597588 C 14.73739,8.453041 13.421404,8.332717 12.500412,7.982375 C 11.57942,7.632031 11.086716,7.040079 10.554327,6.100365 C 10.480567,5.97016 10.432292,5.879961 10.375949,5.785511 C 10.195066,5.461236 10.005299,5.133681 9.822038,4.807807 C 9.830238,4.822477 9.567128,4.357842 9.286904,3.863245 C 8.485343,3.909615 8.023706,3.255707 7.24023,2.968443 C 7.22638,2.970943 7.21207,2.971643 7.19789,2.971343 C 7.18174,2.980843 7.19289,2.975743 7.18142,2.981043 L 7.181395,2.981059 L 7.181361,2.98105 z"
           id="path4690-5"
           sodipodi:nodetypes="csssssssssssssssssscssssscssssssccscc" />
        <path
           style="opacity:0.71847504;fill:none;stroke:url(#radialGradient5324);stroke-width:0.99059623;stroke-linecap:round;stroke-linejoin:round;stroke-miterlimit:4;stroke-opacity:1"
           d="M 8.442759,4.625151 C 8.606089,4.904844 8.780276,5.189599 8.909867,5.410881 C 9.074265,5.691057 9.140351,5.817707 9.191516,5.90802 C 9.751566,6.896556 10.195427,7.790093 10.297988,8.637548 C 10.470321,10.062193 9.898559,11.597355 8.668341,14.302609 C 7.420826,17.045882 6.98987,18.892756 7.073424,20.300756 C 7.240279,23.112833 9.41669,25.627158 12.367273,26.267093 C 13.301556,26.469728 15.323097,26.464314 16.562603,26.295443 C 16.573283,26.288443 16.584323,26.281963 16.595593,26.276033 C 16.594193,26.276152 16.59492,26.293043 16.604993,26.292573 C 16.610393,26.289173 16.615893,26.285973 16.621453,26.282873 C 16.626053,26.282232 16.633023,26.273973 16.637923,26.273173 C 16.653803,26.262443 16.670323,26.252723 16.687393,26.244073 C 17.729927,26.037961 19.280722,25.476306 20.546364,24.746919 C 20.575614,24.732599 20.606434,24.721499 20.638224,24.714929 C 20.643624,24.711529 20.649124,24.708329 20.654704,24.705229 C 20.660104,24.701829 20.665604,24.698629 20.671174,24.695529 C 20.692644,24.670809 20.717314,24.648869 20.744294,24.630439 C 21.33918,24.274772 21.874103,23.884156 22.267127,23.51351 C 23.494461,22.35608 24.226906,21.394135 24.607587,20.656102 L 24.662027,20.557822 C 24.662059,20.557769 24.675617,20.552622 24.678497,20.548122 C 24.687497,20.535412 24.683697,20.508302 24.692717,20.495562 C 24.695217,20.491262 24.706507,20.490262 24.709197,20.485862 C 24.709268,20.485777 24.720547,20.481262 24.725667,20.476162 C 26.615667,17.024722 25.930826,12.992783 23.301139,11.128507 C 22.298067,10.417392 20.119073,9.788168 16.975436,9.591709 C 14.652656,9.446543 13.27252,9.331452 12.140891,8.900981 C 10.979157,8.459059 10.273013,7.622918 9.696414,6.605168 C 9.622104,6.474003 9.576386,6.390907 9.536812,6.323456 C 9.533612,6.318056 9.530412,6.312506 9.527412,6.306916 C 9.524212,6.301516 9.521012,6.295966 9.518012,6.290366 C 9.342552,5.975663 9.151593,5.646002 8.964101,5.312663 C 8.961601,5.308463 8.958101,5.302113 8.954701,5.296113 C 8.947501,5.283553 8.940461,5.270983 8.926551,5.246423 C 8.898641,5.197163 8.854411,5.119101 8.804504,5.030998 C 8.749634,4.934128 8.67228,4.797611 8.597962,4.666429 C 8.547702,4.655979 8.493863,4.636849 8.442648,4.625239 L 8.442705,4.625029 L 8.442759,4.625151 z"
           id="path4020-8"
           sodipodi:nodetypes="cssssssssssssssssssccsssssssssssssssscc" />
        <path
           id="path4678-7"
           d="M 7.639122,3.750214 C 7.631322,3.754814 7.624342,3.771844 7.615502,3.786174 C 7.181481,4.028176 6.970938,4.153114 7.002557,4.257278 C 6.970657,4.327368 6.943887,4.417049 6.973857,4.517213 C 6.985937,4.557543 8.661292,7.49569 8.682533,7.533181 C 9.208269,8.461155 9.585325,9.374653 9.636781,9.799896 C 9.752024,10.75259 9.343463,12.132665 8.13308,14.79429 C 6.845285,17.626148 6.305189,19.650589 6.407657,21.377408 C 6.609642,24.781564 9.199179,27.706431 12.662476,28.457566 C 13.899828,28.725927 15.904807,28.708461 17.293299,28.516926 C 17.355369,28.508326 17.410431,28.488526 17.469921,28.479256 C 18.698965,28.238897 20.320337,27.6249 21.719993,26.818277 C 21.787793,26.796627 21.861269,26.763157 21.917958,26.701801 C 22.574114,26.309392 23.171858,25.869551 23.652975,25.415841 C 24.946394,24.196082 25.785587,23.151024 26.264768,22.222031 C 28.522824,18.259761 27.819002,13.417219 24.567859,11.112367 C 23.209715,10.149541 20.891875,9.561788 17.635124,9.358257 C 13.016565,9.069614 12.381037,8.819981 11.332099,6.968508 C 11.259639,6.840611 11.213119,6.753497 11.153721,6.653654 C 10.971549,6.327104 10.782036,5.999995 10.59981,5.675951 C 10.58963,5.657831 9.615237,3.938175 9.332386,3.438831 C 9.285596,3.356221 9.005507,2.861861 9.060124,2.958266 C 8.443994,3.329896 8.013916,3.562617 7.681494,3.747347 C 7.670054,3.748447 7.647784,3.745147 7.639114,3.750247 L 7.639122,3.750214 z"
           style="opacity:0.74439458;fill:url(#radialGradient5321);fill-opacity:1;fill-rule:nonzero;stroke:none" />
        <path
           sodipodi:nodetypes="cccsccc"
           style="fill:#642c03;fill-opacity:1;fill-rule:nonzero;stroke:none"
           d="M 20.229758,25.886019 C 20.497193,25.811899 20.783709,26.006929 20.867204,26.33383 L 21.542506,28.939947 C 21.626166,29.266787 21.474386,29.583083 21.206974,29.65725 C 20.939538,29.73137 20.653021,29.536339 20.569528,29.209439 L 19.894224,26.603321 C 19.810564,26.276481 19.962344,25.960186 20.229758,25.886019 L 20.229758,25.886019 z"
           id="path5147-4" />
        <path
           id="path5155-9"
           d="M 21.28476,25.317022 C 21.088056,25.515986 21.110531,25.866362 21.34659,26.103503 L 23.223654,28.002548 C 23.459574,28.239808 23.804256,28.264001 24.000995,28.065078 C 24.197699,27.866113 24.175225,27.515737 23.939165,27.278597 L 22.062101,25.379556 C 21.826182,25.142296 21.481499,25.118103 21.28476,25.317026 L 21.28476,25.317022 z"
           style="fill:#642c03;fill-opacity:1;fill-rule:nonzero;stroke:none"
           sodipodi:nodetypes="cccsccc" />
        <path
           id="path5157-9"
           d="M 19.160593,26.340585 C 19.427156,26.411235 19.577118,26.726308 19.487336,27.053696 L 18.779934,29.668572 C 18.690334,29.995993 18.403516,30.195102 18.136933,30.124498 C 17.870374,30.053848 17.720411,29.738775 17.810191,29.411388 L 18.517591,26.796511 C 18.607191,26.469092 18.894011,26.269982 19.160591,26.340585 L 19.160593,26.340585 z"
           style="fill:#642c03;fill-opacity:1;fill-rule:nonzero;stroke:none"
           sodipodi:nodetypes="cccsccc" />
        <path
           sodipodi:nodetypes="cccsccc"
           style="fill:#642c03;fill-opacity:1;fill-rule:nonzero;stroke:none"
           d="M 22.145035,24.584649 C 22.071795,24.855223 22.264559,25.14511 22.587674,25.229568 L 25.163534,25.912693 C 25.486579,25.997333 25.799197,25.843753 25.872488,25.573177 C 25.945728,25.302603 25.752963,25.012717 25.429848,24.928257 L 22.853988,24.245132 C 22.530943,24.160492 22.218326,24.314072 22.145034,24.584648 L 22.145035,24.584649 z"
           id="path5159-4" />
        <path
           style="fill:url(#radialGradient5314);fill-opacity:1;fill-rule:nonzero;stroke:none"
           d="M 18.767244,9.521776 C 19.623447,9.79867 20.404487,10.267697 21.199019,10.689083 C 22.160555,11.340662 23.122234,12.108251 23.708853,13.18167 C 24.221714,14.112517 24.613942,15.110877 24.79064,16.153625 C 25.091621,17.255426 24.977323,18.364969 24.88873,19.451761 L 24.88153,19.564201 C 25.265052,18.62693 25.522774,17.631246 25.640665,16.591645 C 25.663835,15.898903 25.656565,15.179057 25.543975,14.483473 C 25.302589,13.381547 24.773063,12.305953 23.903396,11.5877 C 22.397902,10.283889 20.642453,9.857555 18.767162,9.521776 L 18.767244,9.521776 z M 24.950944,22.374076 L 24.996934,22.455266 C 25.084354,22.490656 25.12411,22.379396 25.198164,22.372956 L 25.072497,22.338646 L 24.950936,22.374086 L 24.950944,22.374076 z"
           id="path4229-5"
           sodipodi:nodetypes="ccscccccccccccc" />
        <path
           sodipodi:nodetypes="ccscccccccccccc"
           id="path4271-9"
           d="M 12.556268,10.420414 C 12.642548,11.389729 12.883165,12.461515 13.086238,13.503509 C 13.437931,14.887248 13.876384,16.371644 14.596543,17.801569 C 15.220517,19.045081 15.911904,20.244402 16.666977,21.298554 C 17.448681,22.509753 18.294785,23.373903 19.120245,24.240232 L 19.205365,24.331612 C 18.450123,23.846088 17.668945,23.202783 16.874654,22.402306 C 16.35319,21.821715 15.815749,21.191718 15.311319,20.493022 C 14.521113,19.332481 13.791266,17.949308 13.376736,16.586048 C 12.613923,14.173719 12.542769,12.308873 12.556268,10.420414 L 12.556268,10.420414 z M 21.297451,26.825669 L 21.351701,26.93521 C 21.365841,27.040342 21.276981,26.97778 21.261731,27.035303 L 21.253831,26.898517 L 21.297501,26.825667 L 21.297451,26.825669 z"
           style="fill:url(#radialGradient5311);fill-opacity:1;fill-rule:nonzero;stroke:none" />
      </g>
    </g>
  </g>
</svg>
