<?xml version="1.0" encoding="UTF-8" standalone="no"?>
<!-- Created with Inkscape (http://www.inkscape.org/) -->
<svg
   xmlns:dc="http://purl.org/dc/elements/1.1/"
   xmlns:cc="http://creativecommons.org/ns#"
   xmlns:rdf="http://www.w3.org/1999/02/22-rdf-syntax-ns#"
   xmlns:svg="http://www.w3.org/2000/svg"
   xmlns="http://www.w3.org/2000/svg"
   xmlns:xlink="http://www.w3.org/1999/xlink"
   xmlns:sodipodi="http://sodipodi.sourceforge.net/DTD/sodipodi-0.dtd"
   xmlns:inkscape="http://www.inkscape.org/namespaces/inkscape"
   width="48px"
   height="48px"
   id="svg7614"
   sodipodi:version="0.32"
   inkscape:version="0.46"
   sodipodi:docname="text-x-install.svg"
   inkscape:output_extension="org.inkscape.output.svg.inkscape">
  <defs
     id="defs7616">
    <linearGradient
       inkscape:collect="always"
       id="linearGradient6028">
      <stop
         style="stop-color:#ffffff;stop-opacity:1;"
         offset="0"
         id="stop6030" />
      <stop
         style="stop-color:#ffffff;stop-opacity:0;"
         offset="1"
         id="stop6032" />
    </linearGradient>
    <linearGradient
       inkscape:collect="always"
       xlink:href="#linearGradient6028"
       id="linearGradient3515"
       gradientUnits="userSpaceOnUse"
       x1="28.702885"
       y1="31.494707"
       x2="17.742729"
       y2="18.366575" />
    <linearGradient
       inkscape:collect="always"
       id="linearGradient6036">
      <stop
         style="stop-color:#ffffff;stop-opacity:1;"
         offset="0"
         id="stop6038" />
      <stop
         style="stop-color:#ffffff;stop-opacity:0;"
         offset="1"
         id="stop6040" />
    </linearGradient>
    <linearGradient
       inkscape:collect="always"
       xlink:href="#linearGradient6036"
       id="linearGradient3519"
       gradientUnits="userSpaceOnUse"
       x1="10.50172"
       y1="3.6100161"
       x2="48.798885"
       y2="54.698483"
       gradientTransform="matrix(0.639377,0,0,0.657102,17.56881,16.131)" />
    <linearGradient
       inkscape:collect="always"
       id="linearGradient4409">
      <stop
         style="stop-color:#ffffff;stop-opacity:1;"
         offset="0"
         id="stop4411" />
      <stop
         style="stop-color:#ffffff;stop-opacity:0;"
         offset="1"
         id="stop4413" />
    </linearGradient>
    <linearGradient
       inkscape:collect="always"
       xlink:href="#linearGradient4409"
       id="linearGradient4415"
       x1="25.985928"
       y1="24.919628"
       x2="15.889072"
       y2="11.669628"
       gradientUnits="userSpaceOnUse"
       gradientTransform="matrix(0.655734,0,0,0.673717,17.553885,16.375703)" />
    <linearGradient
       id="aigrd2"
       gradientUnits="userSpaceOnUse"
       x1="12.2744"
       y1="32.4165"
       x2="35.391201"
       y2="14.2033">
      <stop
         offset="0"
         style="stop-color:#FBFBFB"
         id="stop3043" />
      <stop
         offset="0.5"
         style="stop-color:#B6B6B6"
         id="stop3045" />
      <stop
         offset="1"
         style="stop-color:#E4E4E4"
         id="stop3047" />
    </linearGradient>
    <linearGradient
       inkscape:collect="always"
       xlink:href="#aigrd2"
       id="linearGradient3523"
       gradientUnits="userSpaceOnUse"
       gradientTransform="matrix(0.780635,0,0,0.802044,14.400501,14.031322)"
       x1="12.2744"
       y1="32.4165"
       x2="35.391201"
       y2="14.2033" />
    <linearGradient
       id="aigrd1"
       gradientUnits="userSpaceOnUse"
       x1="14.9966"
       y1="11.1885"
       x2="32.511002"
       y2="34.307499">
      <stop
         offset="0"
         style="stop-color:#EBEBEB"
         id="stop3034" />
      <stop
         offset="0.5"
         style="stop-color:#FFFFFF"
         id="stop3036" />
      <stop
         offset="1"
         style="stop-color:#EBEBEB"
         id="stop3038" />
    </linearGradient>
    <linearGradient
       inkscape:collect="always"
       xlink:href="#aigrd1"
       id="linearGradient3526"
       gradientUnits="userSpaceOnUse"
       gradientTransform="matrix(0.780636,0,0,0.802043,14.400496,14.031325)"
       x1="14.9966"
       y1="11.1885"
       x2="32.511002"
       y2="34.307499" />
    <linearGradient
       inkscape:collect="always"
       id="linearGradient23419">
      <stop
         style="stop-color:#000000;stop-opacity:1;"
         offset="0"
         id="stop23421" />
      <stop
         style="stop-color:#000000;stop-opacity:0;"
         offset="1"
         id="stop23423" />
    </linearGradient>
    <radialGradient
       inkscape:collect="always"
       xlink:href="#linearGradient23419"
       id="radialGradient3507"
       gradientUnits="userSpaceOnUse"
       gradientTransform="matrix(1,0,0,0.25,0,31.22703)"
       cx="23.334524"
       cy="41.63604"
       fx="23.334524"
       fy="41.63604"
       r="22.627417" />
    <linearGradient
       inkscape:collect="always"
       id="linearGradient3656">
      <stop
         style="stop-color:#ffffff;stop-opacity:1;"
         offset="0"
         id="stop3658" />
      <stop
         style="stop-color:#ffffff;stop-opacity:0;"
         offset="1"
         id="stop3660" />
    </linearGradient>
    <linearGradient
       inkscape:collect="always"
       xlink:href="#linearGradient3656"
       id="linearGradient5816"
       gradientUnits="userSpaceOnUse"
       x1="-26.753757"
       y1="11.566258"
       x2="-24.75"
       y2="9.687501" />
    <linearGradient
       inkscape:collect="always"
       id="linearGradient3520">
      <stop
         style="stop-color:#000000;stop-opacity:0.41295547"
         offset="0"
         id="stop3522" />
      <stop
         style="stop-color:#000000;stop-opacity:0;"
         offset="1"
         id="stop3524" />
    </linearGradient>
    <linearGradient
       inkscape:collect="always"
       xlink:href="#linearGradient3520"
       id="linearGradient5836"
       gradientUnits="userSpaceOnUse"
       gradientTransform="matrix(0.9223058,0,0,0.9185751,-92.447368,61.3257)"
       x1="-18.588562"
       y1="11.052948"
       x2="-28.789402"
       y2="14.069944" />
    <linearGradient
       id="linearGradient3671">
      <stop
         style="stop-color:#ffffff;stop-opacity:1;"
         offset="0"
         id="stop3673" />
      <stop
         id="stop3691"
         offset="0.47533694"
         style="stop-color:#ffffff;stop-opacity:1;" />
      <stop
         style="stop-color:#ffffff;stop-opacity:0;"
         offset="1"
         id="stop3675" />
    </linearGradient>
    <radialGradient
       inkscape:collect="always"
       xlink:href="#linearGradient3671"
       id="radialGradient5839"
       gradientUnits="userSpaceOnUse"
       gradientTransform="matrix(0.4073362,-0.2798276,0.7510293,1.0932492,-115.18484,51.56213)"
       cx="-26.305403"
       cy="10.108011"
       fx="-26.305403"
       fy="10.108011"
       r="7.0421038" />
    <linearGradient
       inkscape:collect="always"
       id="linearGradient6469">
      <stop
         style="stop-color:#000000;stop-opacity:1;"
         offset="0"
         id="stop6471" />
      <stop
         style="stop-color:#000000;stop-opacity:0;"
         offset="1"
         id="stop6473" />
    </linearGradient>
    <linearGradient
       inkscape:collect="always"
       xlink:href="#linearGradient6469"
       id="linearGradient6475"
       x1="58.282169"
       y1="70.751839"
       x2="61.181217"
       y2="67.799171"
       gradientUnits="userSpaceOnUse"
       gradientTransform="translate(-180,0)" />
    <linearGradient
       inkscape:collect="always"
       id="linearGradient3741">
      <stop
         style="stop-color:#ffffff;stop-opacity:1;"
         offset="0"
         id="stop3743" />
      <stop
         style="stop-color:#ffffff;stop-opacity:0;"
         offset="1"
         id="stop3745" />
    </linearGradient>
    <radialGradient
       inkscape:collect="always"
       xlink:href="#linearGradient3741"
       id="radialGradient5810"
       gradientUnits="userSpaceOnUse"
       gradientTransform="matrix(1.8860258,0,0,1.1764706,-3.5441033,-4.2352941)"
       cx="4"
       cy="5.2999997"
       fx="4"
       fy="5.2999997"
       r="17" />
    <linearGradient
       inkscape:collect="always"
       id="linearGradient3613">
      <stop
         style="stop-color:#888a85;stop-opacity:1"
         offset="0"
         id="stop3615" />
      <stop
         style="stop-color:#babdb6;stop-opacity:1"
         offset="1"
         id="stop3617" />
    </linearGradient>
    <linearGradient
       inkscape:collect="always"
       xlink:href="#linearGradient3613"
       id="linearGradient5845"
       gradientUnits="userSpaceOnUse"
       gradientTransform="translate(-90,60)"
       x1="-47.5"
       y1="49.020683"
       x2="-62.75"
       y2="-22.502075" />
    <linearGradient
       id="linearGradient3683">
      <stop
         id="stop3685"
         offset="0"
         style="stop-color:#f6f6f5;stop-opacity:1;" />
      <stop
         id="stop3689"
         offset="1"
         style="stop-color:#d3d7cf;stop-opacity:1" />
    </linearGradient>
    <radialGradient
       inkscape:collect="always"
       xlink:href="#linearGradient3683"
       id="radialGradient5843"
       gradientUnits="userSpaceOnUse"
       gradientTransform="matrix(3.9957492,0,0,1.9350367,0.62141,28.832578)"
       cx="-30.249996"
       cy="35.357208"
       fx="-30.249996"
       fy="35.357208"
       r="18.000002" />
    <linearGradient
       inkscape:collect="always"
       xlink:href="#linearGradient3702"
       id="linearGradient5804"
       gradientUnits="userSpaceOnUse"
       x1="25.058096"
       y1="47.027729"
       x2="25.058096"
       y2="39.999443" />
    <radialGradient
       inkscape:collect="always"
       xlink:href="#linearGradient3688"
       id="radialGradient5802"
       gradientUnits="userSpaceOnUse"
       gradientTransform="matrix(2.003784,0,0,1.4,-20.01187,-104.4)"
       cx="4.9929786"
       cy="43.5"
       fx="4.9929786"
       fy="43.5"
       r="2.5" />
    <radialGradient
       inkscape:collect="always"
       xlink:href="#linearGradient3688"
       id="radialGradient5800"
       gradientUnits="userSpaceOnUse"
       gradientTransform="matrix(2.003784,0,0,1.4,27.98813,-17.4)"
       cx="4.9929786"
       cy="43.5"
       fx="4.9929786"
       fy="43.5"
       r="2.5" />
    <linearGradient
       id="linearGradient3702">
      <stop
         id="stop3704"
         offset="0"
         style="stop-color:black;stop-opacity:0;" />
      <stop
         style="stop-color:black;stop-opacity:1;"
         offset="0.5"
         id="stop3710" />
      <stop
         id="stop3706"
         offset="1"
         style="stop-color:black;stop-opacity:0;" />
    </linearGradient>
    <linearGradient
       inkscape:collect="always"
       xlink:href="#linearGradient3702"
       id="linearGradient5798"
       gradientUnits="userSpaceOnUse"
       x1="25.058096"
       y1="47.027729"
       x2="25.058096"
       y2="39.999443" />
    <radialGradient
       inkscape:collect="always"
       xlink:href="#linearGradient3688"
       id="radialGradient5796"
       gradientUnits="userSpaceOnUse"
       gradientTransform="matrix(2.003784,0,0,1.4,-20.01187,-104.4)"
       cx="4.9929786"
       cy="43.5"
       fx="4.9929786"
       fy="43.5"
       r="2.5" />
    <linearGradient
       id="linearGradient3688"
       inkscape:collect="always">
      <stop
         id="stop3690"
         offset="0"
         style="stop-color:black;stop-opacity:1;" />
      <stop
         id="stop3692"
         offset="1"
         style="stop-color:black;stop-opacity:0;" />
    </linearGradient>
    <radialGradient
       inkscape:collect="always"
       xlink:href="#linearGradient3688"
       id="radialGradient5794"
       gradientUnits="userSpaceOnUse"
       gradientTransform="matrix(2.003784,0,0,1.4,27.98813,-17.4)"
       cx="4.9929786"
       cy="43.5"
       fx="4.9929786"
       fy="43.5"
       r="2.5" />
  </defs>
  <sodipodi:namedview
     id="base"
     pagecolor="#ffffff"
     bordercolor="#666666"
     borderopacity="1.0"
     inkscape:pageopacity="0.0"
     inkscape:pageshadow="2"
     inkscape:zoom="7"
     inkscape:cx="24"
     inkscape:cy="24"
     inkscape:current-layer="layer1"
     showgrid="true"
     inkscape:grid-bbox="true"
     inkscape:document-units="px"
     inkscape:window-width="641"
     inkscape:window-height="688"
     inkscape:window-x="0"
     inkscape:window-y="333" />
  <metadata
     id="metadata7619">
    <rdf:RDF>
      <cc:Work
         rdf:about="">
        <dc:format>image/svg+xml</dc:format>
        <dc:type
           rdf:resource="http://purl.org/dc/dcmitype/StillImage" />
      </cc:Work>
    </rdf:RDF>
  </metadata>
  <g
     id="layer1"
     inkscape:label="Layer 1"
     inkscape:groupmode="layer">
    <g
       style="display:inline"
       id="g6015"
       transform="translate(150,-60)">
      <rect
         y="60"
         x="-150"
         height="48"
         width="48"
         id="rect5504"
         style="opacity:0;fill:#000000;fill-opacity:1;stroke:none;stroke-width:1;stroke-miterlimit:4;stroke-dasharray:none;display:inline" />
      <g
         transform="matrix(1.0464281,0,0,0.8888889,-151.18572,65.72224)"
         inkscape:label="Shadow"
         id="g5508"
         style="opacity:0.65587045;display:inline">
        <g
           transform="matrix(1.052632,0,0,1.285713,-1.263158,-13.42854)"
           style="opacity:0.4"
           id="g5511">
          <rect
             style="opacity:1;fill:url(#radialGradient5794);fill-opacity:1;stroke:none;stroke-width:1;stroke-linecap:round;stroke-linejoin:miter;stroke-miterlimit:4;stroke-dasharray:none;stroke-opacity:1"
             id="rect5513"
             width="5"
             height="7"
             x="38"
             y="40" />
          <rect
             style="opacity:1;fill:url(#radialGradient5796);fill-opacity:1;stroke:none;stroke-width:1;stroke-linecap:round;stroke-linejoin:miter;stroke-miterlimit:4;stroke-dasharray:none;stroke-opacity:1"
             id="rect5515"
             width="5"
             height="7"
             x="-10"
             y="-47"
             transform="scale(-1,-1)" />
          <rect
             style="opacity:1;fill:url(#linearGradient5798);fill-opacity:1;stroke:none;stroke-width:1;stroke-linecap:round;stroke-linejoin:miter;stroke-miterlimit:4;stroke-dasharray:none;stroke-opacity:1"
             id="rect5517"
             width="28"
             height="7.0000005"
             x="10"
             y="40" />
        </g>
      </g>
      <g
         transform="matrix(0.9548466,0,0,0.5555562,-148.98776,79.888875)"
         inkscape:label="Shadow"
         id="g5519"
         style="display:inline">
        <g
           transform="matrix(1.052632,0,0,1.285713,-1.263158,-13.42854)"
           style="opacity:0.4"
           id="g5521">
          <rect
             style="opacity:1;fill:url(#radialGradient5800);fill-opacity:1;stroke:none;stroke-width:1;stroke-linecap:round;stroke-linejoin:miter;stroke-miterlimit:4;stroke-dasharray:none;stroke-opacity:1"
             id="rect5523"
             width="5"
             height="7"
             x="38"
             y="40" />
          <rect
             style="opacity:1;fill:url(#radialGradient5802);fill-opacity:1;stroke:none;stroke-width:1;stroke-linecap:round;stroke-linejoin:miter;stroke-miterlimit:4;stroke-dasharray:none;stroke-opacity:1"
             id="rect5525"
             width="5"
             height="7"
             x="-10"
             y="-47"
             transform="scale(-1,-1)" />
          <rect
             style="opacity:1;fill:url(#linearGradient5804);fill-opacity:1;stroke:none;stroke-width:1;stroke-linecap:round;stroke-linejoin:miter;stroke-miterlimit:4;stroke-dasharray:none;stroke-opacity:1"
             id="rect5527"
             width="28"
             height="7.0000005"
             x="10"
             y="40" />
        </g>
      </g>
      <path
         sodipodi:nodetypes="ccsccccccc"
         id="path5529"
         d="M -141.47614,63.5 C -141.47614,63.5 -124,63.5 -122.5,63.5 C -118.62295,63.572942 -116,66 -113.5,68.5 C -111,71 -108.89232,73.752625 -108.5,77.5 C -108.5,79 -108.5,102.47614 -108.5,102.47614 C -108.5,103.59736 -109.40264,104.5 -110.52385,104.5 L -141.47614,104.5 C -142.59736,104.5 -143.5,103.59736 -143.5,102.47614 L -143.5,65.523858 C -143.5,64.402641 -142.59736,63.5 -141.47614,63.5 z"
         style="fill:url(#radialGradient5843);fill-opacity:1;stroke:url(#linearGradient5845);stroke-width:1;stroke-miterlimit:4;display:inline" />
      <path
         transform="translate(-150,60)"
         d="M 8.53125,4 C 7.6730803,4 7,4.6730802 7,5.53125 L 7,42.46875 C 7,43.32692 7.6730802,44 8.53125,44 L 39.46875,44 C 40.326919,44 41,43.326918 41,42.46875 C 41,42.46875 41,19 41,17.5 C 41,16.10803 40.513021,13.200521 38.65625,11.34375 C 36.65625,9.34375 35.65625,8.34375 33.65625,6.34375 C 31.799479,4.4869792 28.89197,4 27.5,4 C 26,4 8.53125,4 8.53125,4 z"
         id="path5531"
         style="opacity:0.68016196;fill:url(#radialGradient5810);fill-opacity:1;stroke:none;stroke-width:1;stroke-miterlimit:4;display:inline"
         inkscape:original="M 8.53125 3.5 C 7.410033 3.5 6.5 4.4100329 6.5 5.53125 L 6.5 42.46875 C 6.5 43.589967 7.4100329 44.5 8.53125 44.5 L 39.46875 44.5 C 40.589967 44.5 41.5 43.589966 41.5 42.46875 C 41.5 42.46875 41.5 19 41.5 17.5 C 41.5 16 41 13 39 11 C 37 9 36 8 34 6 C 32 4 29 3.5 27.5 3.5 C 26 3.5 8.5312499 3.5 8.53125 3.5 z "
         inkscape:radius="-0.4861359"
         sodipodi:type="inkscape:offset" />
      <path
         id="rect5857"
         d="M -138.59375,69.125 C -138.81243,69.125 -139,69.312565 -139,69.53125 C -139,69.749934 -138.81243,69.937499 -138.59375,69.9375 L -117.40625,69.9375 C -117.18757,69.9375 -117,69.749934 -117,69.53125 C -117,69.312566 -117.18757,69.125 -117.40625,69.125 L -138.59375,69.125 z M -138.53125,71.0625 C -138.79094,71.0625 -139,71.271563 -139,71.53125 C -139,71.790937 -138.79094,72 -138.53125,72 L -116.46875,72 C -116.20906,72 -116,71.790937 -116,71.53125 C -116,71.271563 -116.20906,71.0625 -116.46875,71.0625 L -138.53125,71.0625 z M -138.53125,73.0625 C -138.79094,73.0625 -139,73.271563 -139,73.53125 C -139,73.790937 -138.79094,74 -138.53125,74 L -113.34375,74 C -113.08406,74 -112.875,73.790937 -112.875,73.53125 C -112.875,73.271563 -113.08406,73.0625 -113.34375,73.0625 L -138.53125,73.0625 z M -138.53125,75.0625 C -138.79094,75.0625 -139,75.271563 -139,75.53125 C -139,75.790937 -138.79094,76 -138.53125,76 L -113.34375,76 C -113.08406,76 -112.875,75.790937 -112.875,75.53125 C -112.875,75.271563 -113.08406,75.0625 -113.34375,75.0625 L -138.53125,75.0625 z M -138.53125,77.0625 C -138.79094,77.0625 -139,77.271563 -139,77.53125 C -139,77.790937 -138.79094,78 -138.53125,78 L -113.34375,78 C -113.08406,78 -112.875,77.790937 -112.875,77.53125 C -112.875,77.271563 -113.08406,77.0625 -113.34375,77.0625 L -138.53125,77.0625 z"
         style="opacity:0.15;fill:url(#linearGradient6475);fill-opacity:1;fill-rule:evenodd;stroke:none;stroke-width:0.99999982px;stroke-linecap:round;stroke-linejoin:round;marker:none;marker-start:none;marker-mid:none;marker-end:none;stroke-miterlimit:4;stroke-dasharray:none;stroke-dashoffset:0;stroke-opacity:1;visibility:visible;display:inline;overflow:visible" />
      <path
         sodipodi:nodetypes="ccccczc"
         id="path5533"
         d="M -122.5,64 C -123.88889,64 -122.54207,64.497088 -121.15625,65.125 C -119.77043,65.752912 -116.18337,68.340052 -117,72 C -112.67669,71.569417 -110.32087,75.122378 -110,76.28125 C -109.67913,77.440122 -109,78.888889 -109,77.5 C -108.97167,73.694419 -111.84543,71.068299 -113.84375,68.84375 C -115.84207,66.619201 -118.84621,64.476761 -122.5,64 z"
         style="fill:url(#radialGradient5839);fill-opacity:1;stroke:none;stroke-width:1;stroke-miterlimit:4;display:inline" />
      <path
         sodipodi:nodetypes="ccccc"
         id="path5535"
         d="M -121.39912,65.014353 C -120.47682,65.014353 -118.39068,71.210015 -119.31298,75.343603 C -115.01802,74.915844 -110.4596,75.43178 -110,76.28125 C -110.32087,75.122378 -112.67669,71.569417 -117,72 C -116.13534,68.124761 -120.18657,65.382702 -121.39912,65.014353 z"
         style="opacity:0.87854249;fill:url(#linearGradient5836);fill-opacity:1;stroke:none;stroke-width:1;stroke-miterlimit:4;display:inline" />
      <path
         transform="translate(-90,60)"
         d="M -51.46875,4.5 C -52.051916,4.5 -52.5,4.9480842 -52.5,5.53125 L -52.5,42.46875 C -52.5,43.051915 -52.051914,43.5 -51.46875,43.5 L -20.53125,43.5 C -19.948085,43.5 -19.5,43.051914 -19.5,42.46875 C -19.5,42.46875 -19.5,19 -19.5,17.5 C -19.5,16.220971 -19.980469,13.394531 -21.6875,11.6875 C -23.6875,9.6875 -24.6875,8.6875 -26.6875,6.6875 C -28.394531,4.9804687 -31.220971,4.5 -32.5,4.5 C -34,4.5 -51.46875,4.5 -51.46875,4.5 z"
         id="path5537"
         style="fill:none;fill-opacity:1;stroke:url(#linearGradient5816);stroke-width:1;stroke-miterlimit:4;display:inline"
         inkscape:original="M -51.46875 3.5 C -52.589967 3.5 -53.5 4.4100329 -53.5 5.53125 L -53.5 42.46875 C -53.5 43.589967 -52.589966 44.5 -51.46875 44.5 L -20.53125 44.5 C -19.410033 44.5 -18.5 43.589966 -18.5 42.46875 C -18.5 42.46875 -18.5 19 -18.5 17.5 C -18.5 16 -19 13 -21 11 C -23 9 -24 8 -26 6 C -28 4 -31 3.5 -32.5 3.5 C -34 3.5 -51.468749 3.5 -51.46875 3.5 z "
         inkscape:radius="-0.99436891"
         sodipodi:type="inkscape:offset" />
      <g
         inkscape:r_cy="true"
         inkscape:r_cx="true"
         transform="matrix(0.928889,0,0,1,-148.28889,60)"
         style="opacity:0.15;fill:#000000;display:inline"
         id="g5539">
        <rect
           ry="0.46875"
           rx="0.50463516"
           inkscape:r_cy="true"
           inkscape:r_cx="true"
           y="19.0625"
           x="10"
           height="0.9375"
           width="28.125"
           id="rect5549"
           style="opacity:1;fill:#000000;fill-opacity:1;fill-rule:evenodd;stroke:none;stroke-width:0.99999982px;stroke-linecap:round;stroke-linejoin:round;marker:none;marker-start:none;marker-mid:none;marker-end:none;stroke-miterlimit:4;stroke-dasharray:none;stroke-dashoffset:0;stroke-opacity:1;visibility:visible;display:inline;overflow:visible" />
        <rect
           style="opacity:1;fill:#000000;fill-opacity:1;fill-rule:evenodd;stroke:none;stroke-width:0.99999982px;stroke-linecap:round;stroke-linejoin:round;marker:none;marker-start:none;marker-mid:none;marker-end:none;stroke-miterlimit:4;stroke-dasharray:none;stroke-dashoffset:0;stroke-opacity:1;visibility:visible;display:inline;overflow:visible"
           id="rect5553"
           width="28.125"
           height="0.9375"
           x="10"
           y="21.0625"
           inkscape:r_cx="true"
           inkscape:r_cy="true"
           rx="0.50463516"
           ry="0.46875" />
        <rect
           style="opacity:1;fill:#000000;fill-opacity:1;fill-rule:evenodd;stroke:none;stroke-width:0.99999982px;stroke-linecap:round;stroke-linejoin:round;marker:none;marker-start:none;marker-mid:none;marker-end:none;stroke-miterlimit:4;stroke-dasharray:none;stroke-dashoffset:0;stroke-opacity:1;visibility:visible;display:inline;overflow:visible"
           id="rect5555"
           width="28.125"
           height="0.9375"
           x="10"
           y="23.0625"
           inkscape:r_cx="true"
           inkscape:r_cy="true"
           rx="0.50463516"
           ry="0.46875" />
        <rect
           ry="0.46875"
           rx="0.50463516"
           inkscape:r_cy="true"
           inkscape:r_cx="true"
           y="25.0625"
           x="10"
           height="0.9375"
           width="28.125"
           id="rect5557"
           style="opacity:1;fill:#000000;fill-opacity:1;fill-rule:evenodd;stroke:none;stroke-width:0.99999982px;stroke-linecap:round;stroke-linejoin:round;marker:none;marker-start:none;marker-mid:none;marker-end:none;stroke-miterlimit:4;stroke-dasharray:none;stroke-dashoffset:0;stroke-opacity:1;visibility:visible;display:inline;overflow:visible" />
        <rect
           ry="0.46875"
           rx="0.50463516"
           inkscape:r_cy="true"
           inkscape:r_cx="true"
           y="27.0625"
           x="10"
           height="0.9375"
           width="28.125"
           id="rect5559"
           style="opacity:1;fill:#000000;fill-opacity:1;fill-rule:evenodd;stroke:none;stroke-width:0.99999982px;stroke-linecap:round;stroke-linejoin:round;marker:none;marker-start:none;marker-mid:none;marker-end:none;stroke-miterlimit:4;stroke-dasharray:none;stroke-dashoffset:0;stroke-opacity:1;visibility:visible;display:inline;overflow:visible" />
        <rect
           style="opacity:1;fill:#000000;fill-opacity:1;fill-rule:evenodd;stroke:none;stroke-width:0.99999982px;stroke-linecap:round;stroke-linejoin:round;marker:none;marker-start:none;marker-mid:none;marker-end:none;stroke-miterlimit:4;stroke-dasharray:none;stroke-dashoffset:0;stroke-opacity:1;visibility:visible;display:inline;overflow:visible"
           id="rect5561"
           width="28.125"
           height="0.9375"
           x="10"
           y="29.0625"
           inkscape:r_cx="true"
           inkscape:r_cy="true"
           rx="0.50463516"
           ry="0.46875" />
        <rect
           style="opacity:1;fill:#000000;fill-opacity:1;fill-rule:evenodd;stroke:none;stroke-width:0.99999982px;stroke-linecap:round;stroke-linejoin:round;marker:none;marker-start:none;marker-mid:none;marker-end:none;stroke-miterlimit:4;stroke-dasharray:none;stroke-dashoffset:0;stroke-opacity:1;visibility:visible;display:inline;overflow:visible"
           id="rect5563"
           width="28.125"
           height="0.9375"
           x="10"
           y="31.0625"
           inkscape:r_cx="true"
           inkscape:r_cy="true"
           rx="0.50463516"
           ry="0.46875" />
        <rect
           ry="0.46875"
           rx="0.50463516"
           inkscape:r_cy="true"
           inkscape:r_cx="true"
           y="33.0625"
           x="10"
           height="0.9375"
           width="28.125"
           id="rect5565"
           style="opacity:1;fill:#000000;fill-opacity:1;fill-rule:evenodd;stroke:none;stroke-width:0.99999982px;stroke-linecap:round;stroke-linejoin:round;marker:none;marker-start:none;marker-mid:none;marker-end:none;stroke-miterlimit:4;stroke-dasharray:none;stroke-dashoffset:0;stroke-opacity:1;visibility:visible;display:inline;overflow:visible" />
        <rect
           ry="0.46875"
           rx="0.50463516"
           inkscape:r_cy="true"
           inkscape:r_cx="true"
           y="35.0625"
           x="10"
           height="0.9375"
           width="28.125"
           id="rect5567"
           style="opacity:1;fill:#000000;fill-opacity:1;fill-rule:evenodd;stroke:none;stroke-width:0.99999982px;stroke-linecap:round;stroke-linejoin:round;marker:none;marker-start:none;marker-mid:none;marker-end:none;stroke-miterlimit:4;stroke-dasharray:none;stroke-dashoffset:0;stroke-opacity:1;visibility:visible;display:inline;overflow:visible" />
        <rect
           ry="0.46875"
           rx="0.50463516"
           inkscape:r_cy="true"
           inkscape:r_cx="true"
           y="37.0625"
           x="10"
           height="0.9375"
           width="13.8125"
           id="rect5569"
           style="opacity:1;fill:#000000;fill-opacity:1;fill-rule:evenodd;stroke:none;stroke-width:0.99999982px;stroke-linecap:round;stroke-linejoin:round;marker:none;marker-start:none;marker-mid:none;marker-end:none;stroke-miterlimit:4;stroke-dasharray:none;stroke-dashoffset:0;stroke-opacity:1;visibility:visible;display:inline;overflow:visible" />
      </g>
    </g>
    <path
       sodipodi:type="arc"
       style="opacity:0.55;fill:url(#radialGradient3507);fill-opacity:1;fill-rule:evenodd;stroke:none;stroke-width:2;stroke-linecap:butt;stroke-linejoin:miter;marker:none;marker-start:none;marker-mid:none;marker-end:none;stroke-miterlimit:4;stroke-dasharray:none;stroke-dashoffset:0;stroke-opacity:1;visibility:visible;display:inline;overflow:visible"
       id="path23417"
       sodipodi:cx="23.334524"
       sodipodi:cy="41.63604"
       sodipodi:rx="22.627417"
       sodipodi:ry="5.6568542"
       d="M 45.961941,41.63604 A 22.627417,5.6568542 0 1 1 0.70710754,41.63604 A 22.627417,5.6568542 0 1 1 45.961941,41.63604 z"
       inkscape:r_cx="true"
       inkscape:r_cy="true"
       transform="matrix(0.655734,0,0,0.718377,17.826329,13.771873)" />
    <path
       inkscape:r_cy="true"
       inkscape:r_cx="true"
       id="path3040"
       d="M 33.135758,18.522767 C 25.563589,18.522767 19.47463,24.778705 19.47463,32.558525 C 19.47463,40.338345 25.563589,46.594283 33.135758,46.594283 C 40.707927,46.594283 46.796887,40.338345 46.796887,32.558525 C 46.796887,24.778705 40.707927,18.522767 33.135758,18.522767 L 33.135758,18.522767 z M 33.135758,35.927107 C 31.340296,35.927107 29.857087,34.403224 29.857087,32.558525 C 29.857087,30.713825 31.340296,29.189943 33.135758,29.189943 C 34.931221,29.189943 36.414429,30.713825 36.414429,32.558525 C 36.414429,34.403224 34.931221,35.927107 33.135758,35.927107 z"
       style="fill:url(#linearGradient3526);fill-rule:nonzero;stroke:none;stroke-miterlimit:4" />
    <path
       inkscape:r_cy="true"
       inkscape:r_cx="true"
       id="path3049"
       d="M 33.135743,18.522768 C 25.563582,18.522768 19.474629,24.778711 19.474629,32.558536 C 19.474629,40.338363 25.563582,46.594306 33.135743,46.594306 C 40.707904,46.594306 46.796858,40.338363 46.796858,32.558536 C 46.796858,24.778711 40.707904,18.522768 33.135743,18.522768 L 33.135743,18.522768 z M 33.135743,35.927122 C 31.340283,35.927122 29.857076,34.403238 29.857076,32.558536 C 29.857076,30.713836 31.340283,29.189952 33.135743,29.189952 C 34.931203,29.189952 36.414411,30.713836 36.414411,32.558536 C 36.414411,34.403238 34.931203,35.927122 33.135743,35.927122 z"
       style="fill:url(#linearGradient3523);fill-rule:nonzero;stroke:#808080;stroke-width:0.99999988;stroke-miterlimit:4;stroke-opacity:1" />
    <path
       style="fill:url(#linearGradient4415);fill-opacity:1;fill-rule:nonzero;stroke:none;stroke-miterlimit:4;stroke-opacity:1"
       d="M 32.577107,18.944136 C 25.520298,19.217604 19.921694,25.154017 19.921694,32.474 C 19.921694,35.792394 21.067342,38.808544 22.981895,41.155832 L 30.271922,34.815964 C 29.798915,34.247791 29.583903,33.439448 29.583903,32.64243 C 29.583903,30.358268 31.094904,28.891598 33.234621,28.891598 C 34.207681,28.891598 35.182864,29.345297 35.764749,30.068108 L 43.218711,23.812453 C 40.808775,20.831828 37.156924,18.944136 33.070688,18.944136 C 32.899698,18.944136 32.746471,18.937573 32.577107,18.944136 z"
       id="path3531"
       sodipodi:nodetypes="csccssccsc" />
    <path
       inkscape:r_cy="true"
       inkscape:r_cx="true"
       id="path3051"
       d="M 33.135758,25.751184 C 29.435722,25.751184 26.510111,28.84543 26.510111,32.558525 C 26.510111,36.360028 29.52177,39.365867 33.135758,39.365867 C 36.835794,39.365867 39.761405,36.271621 39.761405,32.558525 C 39.761405,28.757022 36.749747,25.751184 33.135758,25.751184 L 33.135758,25.751184 z M 33.135758,36.271621 C 31.156669,36.271621 29.52177,34.591888 29.52177,32.558525 C 29.52177,30.525163 31.156669,28.84543 33.135758,28.84543 C 35.114847,28.84543 36.749747,30.525163 36.749747,32.558525 C 36.749747,34.591888 35.114847,36.271621 33.135758,36.271621 z"
       style="opacity:0.51098902;fill:#eeeeec;fill-rule:nonzero;stroke:none;stroke-miterlimit:4" />
    <path
       inkscape:r_cy="true"
       inkscape:r_cx="true"
       style="opacity:0.54644811;fill:none;fill-rule:nonzero;stroke:url(#linearGradient3519);stroke-width:1;stroke-miterlimit:4;stroke-opacity:1"
       d="M 33.135735,19.549483 C 26.119498,19.549483 20.477575,25.347807 20.477575,32.55854 C 20.477575,39.769274 26.119498,45.567597 33.135735,45.567597 C 40.151972,45.567597 45.793895,39.769274 45.793895,32.55854 C 45.793895,25.347807 40.151972,19.549483 33.135735,19.549483 L 33.135735,19.549483 z"
       id="path5264"
       sodipodi:nodetypes="cccccc" />
    <path
       inkscape:r_cy="true"
       inkscape:r_cx="true"
       sodipodi:type="arc"
       style="opacity:0.67213111;fill:none;fill-opacity:0.31638417;fill-rule:nonzero;stroke:url(#linearGradient3515);stroke-width:1.40001273;stroke-linecap:butt;stroke-linejoin:miter;marker:none;marker-start:none;marker-mid:none;marker-end:none;stroke-miterlimit:4;stroke-dashoffset:0;stroke-opacity:1;visibility:visible;display:inline;overflow:visible"
       id="path6026"
       sodipodi:cx="24.306795"
       sodipodi:cy="24.930641"
       sodipodi:rx="6.0987959"
       sodipodi:ry="6.0987959"
       d="M 30.405591,24.930641 A 6.0987959,6.0987959 0 1 1 18.207999,24.930641 A 6.0987959,6.0987959 0 1 1 30.405591,24.930641 z"
       transform="matrix(0.655734,0,0,0.673717,17.228554,15.775165)" />
  </g>
</svg>
