<?xml version="1.0" encoding="UTF-8" standalone="no"?>
<!-- Created with Inkscape (http://www.inkscape.org/) -->
<svg
   xmlns:dc="http://purl.org/dc/elements/1.1/"
   xmlns:cc="http://creativecommons.org/ns#"
   xmlns:rdf="http://www.w3.org/1999/02/22-rdf-syntax-ns#"
   xmlns:svg="http://www.w3.org/2000/svg"
   xmlns="http://www.w3.org/2000/svg"
   xmlns:xlink="http://www.w3.org/1999/xlink"
   xmlns:sodipodi="http://sodipodi.sourceforge.net/DTD/sodipodi-0.dtd"
   xmlns:inkscape="http://www.inkscape.org/namespaces/inkscape"
   width="48px"
   height="48px"
   id="svg8447"
   sodipodi:version="0.32"
   inkscape:version="0.46"
   sodipodi:docname="text-x-patch.svg"
   inkscape:output_extension="org.inkscape.output.svg.inkscape">
  <defs
     id="defs8449">
    <linearGradient
       inkscape:collect="always"
       id="linearGradient4222">
      <stop
         style="stop-color:#ffffff;stop-opacity:1;"
         offset="0"
         id="stop4224" />
      <stop
         style="stop-color:#ffffff;stop-opacity:0"
         offset="1"
         id="stop4226" />
    </linearGradient>
    <linearGradient
       inkscape:collect="always"
       xlink:href="#linearGradient4222"
       id="linearGradient2785"
       gradientUnits="userSpaceOnUse"
       gradientTransform="matrix(0.6850875,0,0,0.704938,17.520989,18.331341)"
       x1="15.204648"
       y1="-0.48647454"
       x2="37.282078"
       y2="39.233292" />
    <linearGradient
       inkscape:collect="always"
       id="linearGradient7972">
      <stop
         style="stop-color:#c22f2f;stop-opacity:1"
         offset="0"
         id="stop7974" />
      <stop
         style="stop-color:#a40000;stop-opacity:1"
         offset="1"
         id="stop7976" />
    </linearGradient>
    <linearGradient
       inkscape:collect="always"
       xlink:href="#linearGradient7972"
       id="linearGradient7978"
       x1="14.048573"
       y1="3.0000288"
       x2="14.062341"
       y2="28.999971"
       gradientUnits="userSpaceOnUse"
       gradientTransform="translate(18.000005,17.988407)" />
    <linearGradient
       id="linearGradient2264">
      <stop
         style="stop-color:#e78181;stop-opacity:1"
         offset="0"
         id="stop2266" />
      <stop
         id="stop7980"
         offset="0.25"
         style="stop-color:#e15f5f;stop-opacity:1" />
      <stop
         style="stop-color:#c22f2f;stop-opacity:1"
         offset="0.68000001"
         id="stop7982" />
      <stop
         style="stop-color:#a40000;stop-opacity:1"
         offset="1"
         id="stop2268" />
    </linearGradient>
    <radialGradient
       inkscape:collect="always"
       xlink:href="#linearGradient2264"
       id="radialGradient7984"
       cx="16"
       cy="3.0000291"
       fx="16"
       fy="3.0000291"
       r="12.999971"
       gradientUnits="userSpaceOnUse"
       gradientTransform="matrix(5.743857e-8,2.3775384,-3.3813116,8.1688568e-8,44.144036,-17.052181)" />
    <linearGradient
       id="linearGradient7577">
      <stop
         style="stop-color:#000000;stop-opacity:0.3137255;"
         offset="0"
         id="stop7579" />
      <stop
         style="stop-color:#000000;stop-opacity:0.31"
         offset="1"
         id="stop7581" />
    </linearGradient>
    <linearGradient
       inkscape:collect="always"
       xlink:href="#linearGradient7577"
       id="linearGradient7386"
       gradientUnits="userSpaceOnUse"
       x1="23.41782"
       y1="31.488117"
       x2="23.67593"
       y2="36.456322"
       gradientTransform="matrix(0.547766,0,0,0.9922481,15.700366,-6.011594)" />
    <linearGradient
       inkscape:collect="always"
       id="linearGradient3656">
      <stop
         style="stop-color:#ffffff;stop-opacity:1;"
         offset="0"
         id="stop3658" />
      <stop
         style="stop-color:#ffffff;stop-opacity:0;"
         offset="1"
         id="stop3660" />
    </linearGradient>
    <linearGradient
       inkscape:collect="always"
       xlink:href="#linearGradient3656"
       id="linearGradient5816"
       gradientUnits="userSpaceOnUse"
       x1="-26.753757"
       y1="11.566258"
       x2="-24.75"
       y2="9.687501" />
    <linearGradient
       inkscape:collect="always"
       id="linearGradient3520">
      <stop
         style="stop-color:#000000;stop-opacity:0.41295547"
         offset="0"
         id="stop3522" />
      <stop
         style="stop-color:#000000;stop-opacity:0;"
         offset="1"
         id="stop3524" />
    </linearGradient>
    <linearGradient
       inkscape:collect="always"
       xlink:href="#linearGradient3520"
       id="linearGradient5836"
       gradientUnits="userSpaceOnUse"
       gradientTransform="matrix(0.9223058,0,0,0.9185751,-92.447368,61.3257)"
       x1="-18.588562"
       y1="11.052948"
       x2="-28.789402"
       y2="14.069944" />
    <linearGradient
       id="linearGradient3671">
      <stop
         style="stop-color:#ffffff;stop-opacity:1;"
         offset="0"
         id="stop3673" />
      <stop
         id="stop3691"
         offset="0.47533694"
         style="stop-color:#ffffff;stop-opacity:1;" />
      <stop
         style="stop-color:#ffffff;stop-opacity:0;"
         offset="1"
         id="stop3675" />
    </linearGradient>
    <radialGradient
       inkscape:collect="always"
       xlink:href="#linearGradient3671"
       id="radialGradient5839"
       gradientUnits="userSpaceOnUse"
       gradientTransform="matrix(0.4073362,-0.2798276,0.7510293,1.0932492,-115.18484,51.56213)"
       cx="-26.305403"
       cy="10.108011"
       fx="-26.305403"
       fy="10.108011"
       r="7.0421038" />
    <linearGradient
       inkscape:collect="always"
       id="linearGradient6469">
      <stop
         style="stop-color:#000000;stop-opacity:1;"
         offset="0"
         id="stop6471" />
      <stop
         style="stop-color:#000000;stop-opacity:0;"
         offset="1"
         id="stop6473" />
    </linearGradient>
    <linearGradient
       inkscape:collect="always"
       xlink:href="#linearGradient6469"
       id="linearGradient6475"
       x1="58.282169"
       y1="70.751839"
       x2="61.181217"
       y2="67.799171"
       gradientUnits="userSpaceOnUse"
       gradientTransform="translate(-180,0)" />
    <linearGradient
       inkscape:collect="always"
       id="linearGradient3741">
      <stop
         style="stop-color:#ffffff;stop-opacity:1;"
         offset="0"
         id="stop3743" />
      <stop
         style="stop-color:#ffffff;stop-opacity:0;"
         offset="1"
         id="stop3745" />
    </linearGradient>
    <radialGradient
       inkscape:collect="always"
       xlink:href="#linearGradient3741"
       id="radialGradient5810"
       gradientUnits="userSpaceOnUse"
       gradientTransform="matrix(1.8860258,0,0,1.1764706,-3.5441033,-4.2352941)"
       cx="4"
       cy="5.2999997"
       fx="4"
       fy="5.2999997"
       r="17" />
    <linearGradient
       inkscape:collect="always"
       id="linearGradient3613">
      <stop
         style="stop-color:#888a85;stop-opacity:1"
         offset="0"
         id="stop3615" />
      <stop
         style="stop-color:#babdb6;stop-opacity:1"
         offset="1"
         id="stop3617" />
    </linearGradient>
    <linearGradient
       inkscape:collect="always"
       xlink:href="#linearGradient3613"
       id="linearGradient5845"
       gradientUnits="userSpaceOnUse"
       gradientTransform="translate(-90,60)"
       x1="-47.5"
       y1="49.020683"
       x2="-62.75"
       y2="-22.502075" />
    <linearGradient
       id="linearGradient3683">
      <stop
         id="stop3685"
         offset="0"
         style="stop-color:#f6f6f5;stop-opacity:1;" />
      <stop
         id="stop3689"
         offset="1"
         style="stop-color:#d3d7cf;stop-opacity:1" />
    </linearGradient>
    <radialGradient
       inkscape:collect="always"
       xlink:href="#linearGradient3683"
       id="radialGradient5843"
       gradientUnits="userSpaceOnUse"
       gradientTransform="matrix(3.9957492,0,0,1.9350367,0.62141,28.832578)"
       cx="-30.249996"
       cy="35.357208"
       fx="-30.249996"
       fy="35.357208"
       r="18.000002" />
    <linearGradient
       inkscape:collect="always"
       xlink:href="#linearGradient3702"
       id="linearGradient5804"
       gradientUnits="userSpaceOnUse"
       x1="25.058096"
       y1="47.027729"
       x2="25.058096"
       y2="39.999443" />
    <radialGradient
       inkscape:collect="always"
       xlink:href="#linearGradient3688"
       id="radialGradient5802"
       gradientUnits="userSpaceOnUse"
       gradientTransform="matrix(2.003784,0,0,1.4,-20.01187,-104.4)"
       cx="4.9929786"
       cy="43.5"
       fx="4.9929786"
       fy="43.5"
       r="2.5" />
    <radialGradient
       inkscape:collect="always"
       xlink:href="#linearGradient3688"
       id="radialGradient5800"
       gradientUnits="userSpaceOnUse"
       gradientTransform="matrix(2.003784,0,0,1.4,27.98813,-17.4)"
       cx="4.9929786"
       cy="43.5"
       fx="4.9929786"
       fy="43.5"
       r="2.5" />
    <linearGradient
       id="linearGradient3702">
      <stop
         id="stop3704"
         offset="0"
         style="stop-color:black;stop-opacity:0;" />
      <stop
         style="stop-color:black;stop-opacity:1;"
         offset="0.5"
         id="stop3710" />
      <stop
         id="stop3706"
         offset="1"
         style="stop-color:black;stop-opacity:0;" />
    </linearGradient>
    <linearGradient
       inkscape:collect="always"
       xlink:href="#linearGradient3702"
       id="linearGradient5798"
       gradientUnits="userSpaceOnUse"
       x1="25.058096"
       y1="47.027729"
       x2="25.058096"
       y2="39.999443" />
    <radialGradient
       inkscape:collect="always"
       xlink:href="#linearGradient3688"
       id="radialGradient5796"
       gradientUnits="userSpaceOnUse"
       gradientTransform="matrix(2.003784,0,0,1.4,-20.01187,-104.4)"
       cx="4.9929786"
       cy="43.5"
       fx="4.9929786"
       fy="43.5"
       r="2.5" />
    <linearGradient
       id="linearGradient3688"
       inkscape:collect="always">
      <stop
         id="stop3690"
         offset="0"
         style="stop-color:black;stop-opacity:1;" />
      <stop
         id="stop3692"
         offset="1"
         style="stop-color:black;stop-opacity:0;" />
    </linearGradient>
    <radialGradient
       inkscape:collect="always"
       xlink:href="#linearGradient3688"
       id="radialGradient5794"
       gradientUnits="userSpaceOnUse"
       gradientTransform="matrix(2.003784,0,0,1.4,27.98813,-17.4)"
       cx="4.9929786"
       cy="43.5"
       fx="4.9929786"
       fy="43.5"
       r="2.5" />
  </defs>
  <sodipodi:namedview
     id="base"
     pagecolor="#ffffff"
     bordercolor="#666666"
     borderopacity="1.0"
     inkscape:pageopacity="0.0"
     inkscape:pageshadow="2"
     inkscape:zoom="7"
     inkscape:cx="24"
     inkscape:cy="24"
     inkscape:current-layer="layer1"
     showgrid="true"
     inkscape:grid-bbox="true"
     inkscape:document-units="px"
     inkscape:window-width="641"
     inkscape:window-height="690"
     inkscape:window-x="264"
     inkscape:window-y="241" />
  <metadata
     id="metadata8452">
    <rdf:RDF>
      <cc:Work
         rdf:about="">
        <dc:format>image/svg+xml</dc:format>
        <dc:type
           rdf:resource="http://purl.org/dc/dcmitype/StillImage" />
      </cc:Work>
    </rdf:RDF>
  </metadata>
  <g
     id="layer1"
     inkscape:label="Layer 1"
     inkscape:groupmode="layer">
    <g
       style="display:inline"
       id="g6015"
       transform="translate(150,-60)">
      <rect
         y="60"
         x="-150"
         height="48"
         width="48"
         id="rect5504"
         style="opacity:0;fill:#000000;fill-opacity:1;stroke:none;stroke-width:1;stroke-miterlimit:4;stroke-dasharray:none;display:inline" />
      <g
         transform="matrix(1.0464281,0,0,0.8888889,-151.18572,65.72224)"
         inkscape:label="Shadow"
         id="g5508"
         style="opacity:0.65587045;display:inline">
        <g
           transform="matrix(1.052632,0,0,1.285713,-1.263158,-13.42854)"
           style="opacity:0.4"
           id="g5511">
          <rect
             style="opacity:1;fill:url(#radialGradient5794);fill-opacity:1;stroke:none;stroke-width:1;stroke-linecap:round;stroke-linejoin:miter;stroke-miterlimit:4;stroke-dasharray:none;stroke-opacity:1"
             id="rect5513"
             width="5"
             height="7"
             x="38"
             y="40" />
          <rect
             style="opacity:1;fill:url(#radialGradient5796);fill-opacity:1;stroke:none;stroke-width:1;stroke-linecap:round;stroke-linejoin:miter;stroke-miterlimit:4;stroke-dasharray:none;stroke-opacity:1"
             id="rect5515"
             width="5"
             height="7"
             x="-10"
             y="-47"
             transform="scale(-1,-1)" />
          <rect
             style="opacity:1;fill:url(#linearGradient5798);fill-opacity:1;stroke:none;stroke-width:1;stroke-linecap:round;stroke-linejoin:miter;stroke-miterlimit:4;stroke-dasharray:none;stroke-opacity:1"
             id="rect5517"
             width="28"
             height="7.0000005"
             x="10"
             y="40" />
        </g>
      </g>
      <g
         transform="matrix(0.9548466,0,0,0.5555562,-148.98776,79.888875)"
         inkscape:label="Shadow"
         id="g5519"
         style="display:inline">
        <g
           transform="matrix(1.052632,0,0,1.285713,-1.263158,-13.42854)"
           style="opacity:0.4"
           id="g5521">
          <rect
             style="opacity:1;fill:url(#radialGradient5800);fill-opacity:1;stroke:none;stroke-width:1;stroke-linecap:round;stroke-linejoin:miter;stroke-miterlimit:4;stroke-dasharray:none;stroke-opacity:1"
             id="rect5523"
             width="5"
             height="7"
             x="38"
             y="40" />
          <rect
             style="opacity:1;fill:url(#radialGradient5802);fill-opacity:1;stroke:none;stroke-width:1;stroke-linecap:round;stroke-linejoin:miter;stroke-miterlimit:4;stroke-dasharray:none;stroke-opacity:1"
             id="rect5525"
             width="5"
             height="7"
             x="-10"
             y="-47"
             transform="scale(-1,-1)" />
          <rect
             style="opacity:1;fill:url(#linearGradient5804);fill-opacity:1;stroke:none;stroke-width:1;stroke-linecap:round;stroke-linejoin:miter;stroke-miterlimit:4;stroke-dasharray:none;stroke-opacity:1"
             id="rect5527"
             width="28"
             height="7.0000005"
             x="10"
             y="40" />
        </g>
      </g>
      <path
         sodipodi:nodetypes="ccsccccccc"
         id="path5529"
         d="M -141.47614,63.5 C -141.47614,63.5 -124,63.5 -122.5,63.5 C -118.62295,63.572942 -116,66 -113.5,68.5 C -111,71 -108.89232,73.752625 -108.5,77.5 C -108.5,79 -108.5,102.47614 -108.5,102.47614 C -108.5,103.59736 -109.40264,104.5 -110.52385,104.5 L -141.47614,104.5 C -142.59736,104.5 -143.5,103.59736 -143.5,102.47614 L -143.5,65.523858 C -143.5,64.402641 -142.59736,63.5 -141.47614,63.5 z"
         style="fill:url(#radialGradient5843);fill-opacity:1;stroke:url(#linearGradient5845);stroke-width:1;stroke-miterlimit:4;display:inline" />
      <path
         transform="translate(-150,60)"
         d="M 8.53125,4 C 7.6730803,4 7,4.6730802 7,5.53125 L 7,42.46875 C 7,43.32692 7.6730802,44 8.53125,44 L 39.46875,44 C 40.326919,44 41,43.326918 41,42.46875 C 41,42.46875 41,19 41,17.5 C 41,16.10803 40.513021,13.200521 38.65625,11.34375 C 36.65625,9.34375 35.65625,8.34375 33.65625,6.34375 C 31.799479,4.4869792 28.89197,4 27.5,4 C 26,4 8.53125,4 8.53125,4 z"
         id="path5531"
         style="opacity:0.68016196;fill:url(#radialGradient5810);fill-opacity:1;stroke:none;stroke-width:1;stroke-miterlimit:4;display:inline"
         inkscape:original="M 8.53125 3.5 C 7.410033 3.5 6.5 4.4100329 6.5 5.53125 L 6.5 42.46875 C 6.5 43.589967 7.4100329 44.5 8.53125 44.5 L 39.46875 44.5 C 40.589967 44.5 41.5 43.589966 41.5 42.46875 C 41.5 42.46875 41.5 19 41.5 17.5 C 41.5 16 41 13 39 11 C 37 9 36 8 34 6 C 32 4 29 3.5 27.5 3.5 C 26 3.5 8.5312499 3.5 8.53125 3.5 z "
         inkscape:radius="-0.4861359"
         sodipodi:type="inkscape:offset" />
      <path
         id="rect5857"
         d="M -138.59375,69.125 C -138.81243,69.125 -139,69.312565 -139,69.53125 C -139,69.749934 -138.81243,69.937499 -138.59375,69.9375 L -117.40625,69.9375 C -117.18757,69.9375 -117,69.749934 -117,69.53125 C -117,69.312566 -117.18757,69.125 -117.40625,69.125 L -138.59375,69.125 z M -138.53125,71.0625 C -138.79094,71.0625 -139,71.271563 -139,71.53125 C -139,71.790937 -138.79094,72 -138.53125,72 L -116.46875,72 C -116.20906,72 -116,71.790937 -116,71.53125 C -116,71.271563 -116.20906,71.0625 -116.46875,71.0625 L -138.53125,71.0625 z M -138.53125,73.0625 C -138.79094,73.0625 -139,73.271563 -139,73.53125 C -139,73.790937 -138.79094,74 -138.53125,74 L -113.34375,74 C -113.08406,74 -112.875,73.790937 -112.875,73.53125 C -112.875,73.271563 -113.08406,73.0625 -113.34375,73.0625 L -138.53125,73.0625 z M -138.53125,75.0625 C -138.79094,75.0625 -139,75.271563 -139,75.53125 C -139,75.790937 -138.79094,76 -138.53125,76 L -113.34375,76 C -113.08406,76 -112.875,75.790937 -112.875,75.53125 C -112.875,75.271563 -113.08406,75.0625 -113.34375,75.0625 L -138.53125,75.0625 z M -138.53125,77.0625 C -138.79094,77.0625 -139,77.271563 -139,77.53125 C -139,77.790937 -138.79094,78 -138.53125,78 L -113.34375,78 C -113.08406,78 -112.875,77.790937 -112.875,77.53125 C -112.875,77.271563 -113.08406,77.0625 -113.34375,77.0625 L -138.53125,77.0625 z"
         style="opacity:0.15;fill:url(#linearGradient6475);fill-opacity:1;fill-rule:evenodd;stroke:none;stroke-width:0.99999982px;stroke-linecap:round;stroke-linejoin:round;marker:none;marker-start:none;marker-mid:none;marker-end:none;stroke-miterlimit:4;stroke-dasharray:none;stroke-dashoffset:0;stroke-opacity:1;visibility:visible;display:inline;overflow:visible" />
      <path
         sodipodi:nodetypes="ccccczc"
         id="path5533"
         d="M -122.5,64 C -123.88889,64 -122.54207,64.497088 -121.15625,65.125 C -119.77043,65.752912 -116.18337,68.340052 -117,72 C -112.67669,71.569417 -110.32087,75.122378 -110,76.28125 C -109.67913,77.440122 -109,78.888889 -109,77.5 C -108.97167,73.694419 -111.84543,71.068299 -113.84375,68.84375 C -115.84207,66.619201 -118.84621,64.476761 -122.5,64 z"
         style="fill:url(#radialGradient5839);fill-opacity:1;stroke:none;stroke-width:1;stroke-miterlimit:4;display:inline" />
      <path
         sodipodi:nodetypes="ccccc"
         id="path5535"
         d="M -121.39912,65.014353 C -120.47682,65.014353 -118.39068,71.210015 -119.31298,75.343603 C -115.01802,74.915844 -110.4596,75.43178 -110,76.28125 C -110.32087,75.122378 -112.67669,71.569417 -117,72 C -116.13534,68.124761 -120.18657,65.382702 -121.39912,65.014353 z"
         style="opacity:0.87854249;fill:url(#linearGradient5836);fill-opacity:1;stroke:none;stroke-width:1;stroke-miterlimit:4;display:inline" />
      <path
         transform="translate(-90,60)"
         d="M -51.46875,4.5 C -52.051916,4.5 -52.5,4.9480842 -52.5,5.53125 L -52.5,42.46875 C -52.5,43.051915 -52.051914,43.5 -51.46875,43.5 L -20.53125,43.5 C -19.948085,43.5 -19.5,43.051914 -19.5,42.46875 C -19.5,42.46875 -19.5,19 -19.5,17.5 C -19.5,16.220971 -19.980469,13.394531 -21.6875,11.6875 C -23.6875,9.6875 -24.6875,8.6875 -26.6875,6.6875 C -28.394531,4.9804687 -31.220971,4.5 -32.5,4.5 C -34,4.5 -51.46875,4.5 -51.46875,4.5 z"
         id="path5537"
         style="fill:none;fill-opacity:1;stroke:url(#linearGradient5816);stroke-width:1;stroke-miterlimit:4;display:inline"
         inkscape:original="M -51.46875 3.5 C -52.589967 3.5 -53.5 4.4100329 -53.5 5.53125 L -53.5 42.46875 C -53.5 43.589967 -52.589966 44.5 -51.46875 44.5 L -20.53125 44.5 C -19.410033 44.5 -18.5 43.589966 -18.5 42.46875 C -18.5 42.46875 -18.5 19 -18.5 17.5 C -18.5 16 -19 13 -21 11 C -23 9 -24 8 -26 6 C -28 4 -31 3.5 -32.5 3.5 C -34 3.5 -51.468749 3.5 -51.46875 3.5 z "
         inkscape:radius="-0.99436891"
         sodipodi:type="inkscape:offset" />
      <g
         inkscape:r_cy="true"
         inkscape:r_cx="true"
         transform="matrix(0.928889,0,0,1,-148.28889,60)"
         style="opacity:0.15;fill:#000000;display:inline"
         id="g5539">
        <rect
           ry="0.46875"
           rx="0.50463516"
           inkscape:r_cy="true"
           inkscape:r_cx="true"
           y="19.0625"
           x="10"
           height="0.9375"
           width="28.125"
           id="rect5549"
           style="opacity:1;fill:#000000;fill-opacity:1;fill-rule:evenodd;stroke:none;stroke-width:0.99999982px;stroke-linecap:round;stroke-linejoin:round;marker:none;marker-start:none;marker-mid:none;marker-end:none;stroke-miterlimit:4;stroke-dasharray:none;stroke-dashoffset:0;stroke-opacity:1;visibility:visible;display:inline;overflow:visible" />
        <rect
           style="opacity:1;fill:#000000;fill-opacity:1;fill-rule:evenodd;stroke:none;stroke-width:0.99999982px;stroke-linecap:round;stroke-linejoin:round;marker:none;marker-start:none;marker-mid:none;marker-end:none;stroke-miterlimit:4;stroke-dasharray:none;stroke-dashoffset:0;stroke-opacity:1;visibility:visible;display:inline;overflow:visible"
           id="rect5553"
           width="28.125"
           height="0.9375"
           x="10"
           y="21.0625"
           inkscape:r_cx="true"
           inkscape:r_cy="true"
           rx="0.50463516"
           ry="0.46875" />
        <rect
           style="opacity:1;fill:#000000;fill-opacity:1;fill-rule:evenodd;stroke:none;stroke-width:0.99999982px;stroke-linecap:round;stroke-linejoin:round;marker:none;marker-start:none;marker-mid:none;marker-end:none;stroke-miterlimit:4;stroke-dasharray:none;stroke-dashoffset:0;stroke-opacity:1;visibility:visible;display:inline;overflow:visible"
           id="rect5555"
           width="28.125"
           height="0.9375"
           x="10"
           y="23.0625"
           inkscape:r_cx="true"
           inkscape:r_cy="true"
           rx="0.50463516"
           ry="0.46875" />
        <rect
           ry="0.46875"
           rx="0.50463516"
           inkscape:r_cy="true"
           inkscape:r_cx="true"
           y="25.0625"
           x="10"
           height="0.9375"
           width="28.125"
           id="rect5557"
           style="opacity:1;fill:#000000;fill-opacity:1;fill-rule:evenodd;stroke:none;stroke-width:0.99999982px;stroke-linecap:round;stroke-linejoin:round;marker:none;marker-start:none;marker-mid:none;marker-end:none;stroke-miterlimit:4;stroke-dasharray:none;stroke-dashoffset:0;stroke-opacity:1;visibility:visible;display:inline;overflow:visible" />
        <rect
           ry="0.46875"
           rx="0.50463516"
           inkscape:r_cy="true"
           inkscape:r_cx="true"
           y="27.0625"
           x="10"
           height="0.9375"
           width="28.125"
           id="rect5559"
           style="opacity:1;fill:#000000;fill-opacity:1;fill-rule:evenodd;stroke:none;stroke-width:0.99999982px;stroke-linecap:round;stroke-linejoin:round;marker:none;marker-start:none;marker-mid:none;marker-end:none;stroke-miterlimit:4;stroke-dasharray:none;stroke-dashoffset:0;stroke-opacity:1;visibility:visible;display:inline;overflow:visible" />
        <rect
           style="opacity:1;fill:#000000;fill-opacity:1;fill-rule:evenodd;stroke:none;stroke-width:0.99999982px;stroke-linecap:round;stroke-linejoin:round;marker:none;marker-start:none;marker-mid:none;marker-end:none;stroke-miterlimit:4;stroke-dasharray:none;stroke-dashoffset:0;stroke-opacity:1;visibility:visible;display:inline;overflow:visible"
           id="rect5561"
           width="28.125"
           height="0.9375"
           x="10"
           y="29.0625"
           inkscape:r_cx="true"
           inkscape:r_cy="true"
           rx="0.50463516"
           ry="0.46875" />
        <rect
           style="opacity:1;fill:#000000;fill-opacity:1;fill-rule:evenodd;stroke:none;stroke-width:0.99999982px;stroke-linecap:round;stroke-linejoin:round;marker:none;marker-start:none;marker-mid:none;marker-end:none;stroke-miterlimit:4;stroke-dasharray:none;stroke-dashoffset:0;stroke-opacity:1;visibility:visible;display:inline;overflow:visible"
           id="rect5563"
           width="28.125"
           height="0.9375"
           x="10"
           y="31.0625"
           inkscape:r_cx="true"
           inkscape:r_cy="true"
           rx="0.50463516"
           ry="0.46875" />
        <rect
           ry="0.46875"
           rx="0.50463516"
           inkscape:r_cy="true"
           inkscape:r_cx="true"
           y="33.0625"
           x="10"
           height="0.9375"
           width="28.125"
           id="rect5565"
           style="opacity:1;fill:#000000;fill-opacity:1;fill-rule:evenodd;stroke:none;stroke-width:0.99999982px;stroke-linecap:round;stroke-linejoin:round;marker:none;marker-start:none;marker-mid:none;marker-end:none;stroke-miterlimit:4;stroke-dasharray:none;stroke-dashoffset:0;stroke-opacity:1;visibility:visible;display:inline;overflow:visible" />
        <rect
           ry="0.46875"
           rx="0.50463516"
           inkscape:r_cy="true"
           inkscape:r_cx="true"
           y="35.0625"
           x="10"
           height="0.9375"
           width="28.125"
           id="rect5567"
           style="opacity:1;fill:#000000;fill-opacity:1;fill-rule:evenodd;stroke:none;stroke-width:0.99999982px;stroke-linecap:round;stroke-linejoin:round;marker:none;marker-start:none;marker-mid:none;marker-end:none;stroke-miterlimit:4;stroke-dasharray:none;stroke-dashoffset:0;stroke-opacity:1;visibility:visible;display:inline;overflow:visible" />
        <rect
           ry="0.46875"
           rx="0.50463516"
           inkscape:r_cy="true"
           inkscape:r_cx="true"
           y="37.0625"
           x="10"
           height="0.9375"
           width="13.8125"
           id="rect5569"
           style="opacity:1;fill:#000000;fill-opacity:1;fill-rule:evenodd;stroke:none;stroke-width:0.99999982px;stroke-linecap:round;stroke-linejoin:round;marker:none;marker-start:none;marker-mid:none;marker-end:none;stroke-miterlimit:4;stroke-dasharray:none;stroke-dashoffset:0;stroke-opacity:1;visibility:visible;display:inline;overflow:visible" />
      </g>
    </g>
    <g
       id="g31361"
       inkscape:label="Shadow"
       transform="matrix(0.6712167,0,0,0.6712167,-34.536807,-5.433272)" />
    <g
       style="display:inline"
       inkscape:label="Base"
       id="g2170"
       transform="matrix(0.6712167,0,0,0.6712167,-34.536807,-5.433272)" />
    <g
       inkscape:label="Layer 1"
       id="g5398"
       transform="matrix(0.6712167,0,0,0.6712167,-120.80841,13.714528)" />
    <g
       id="g31365"
       inkscape:label="shadiw"
       transform="matrix(0.6712167,0,0,0.6712167,-120.80841,13.714528)" />
    <g
       id="layer4"
       inkscape:label="white"
       transform="matrix(0.6712167,0,0,0.6712167,-120.80841,13.714528)" />
    <g
       transform="matrix(0.6712167,0,0,0.6712167,-173.83293,8.1066157)"
       style="display:inline"
       id="g3678"
       inkscape:label="Layer 1" />
    <g
       transform="matrix(0.6712167,0,0,0.6712167,-173.83293,8.1066157)"
       inkscape:label="bottom"
       id="g3680" />
    <g
       transform="matrix(0.6712167,0,0,0.6712167,-173.83293,8.1066157)"
       style="display:inline"
       inkscape:label="back"
       id="layer2" />
    <g
       id="g3698"
       inkscape:label="shadiw"
       transform="matrix(0.6712167,0,0,0.6712167,-68.771204,14.08555)" />
    <g
       id="g3760"
       inkscape:label="shadiw"
       transform="matrix(0.6712167,0,0,0.6712167,44.213838,17.616331)" />
    <g
       transform="matrix(0.6712167,0,0,0.6712167,-193.52414,-9.375307)"
       inkscape:label="Shadow"
       id="g5431" />
    <g
       transform="matrix(0.6712167,0,0,0.6712167,-193.52414,-9.375307)"
       id="g4258"
       inkscape:label="Base"
       style="display:inline" />
    <g
       transform="matrix(0.6712167,0,0,0.6712167,-193.52414,-9.375307)"
       inkscape:label="new"
       id="g5440" />
    <g
       transform="matrix(0.6712167,0,0,0.6712167,-172.42303,0.1835559)"
       style="display:inline"
       id="g3928"
       inkscape:label="Layer 1" />
    <g
       transform="matrix(0.6712167,0,0,0.6712167,-172.42303,0.1835559)"
       inkscape:label="bottom"
       id="g3930" />
    <g
       transform="matrix(0.6712167,0,0,0.6712167,-172.42303,0.1835559)"
       style="display:inline"
       inkscape:label="back"
       id="g3932" />
    <g
       id="g3934"
       inkscape:label="shadiw"
       transform="matrix(0.6712167,0,0,0.6712167,-67.3613,6.1624897)" />
    <g
       id="g3936"
       inkscape:label="shadiw"
       transform="matrix(0.6712167,0,0,0.6712167,45.623742,9.6932707)" />
    <g
       transform="matrix(0.6712167,0,0,0.6712167,-192.11424,-17.298366)"
       inkscape:label="Shadow"
       id="g3961" />
    <g
       transform="matrix(0.6712167,0,0,0.6712167,-192.11424,-17.298366)"
       id="g3963"
       inkscape:label="Base"
       style="display:inline" />
    <g
       transform="matrix(0.6712167,0,0,0.6712167,-192.11424,-17.298366)"
       inkscape:label="new"
       id="layer7" />
    <g
       id="layer6"
       inkscape:label="Shadow"
       transform="matrix(0.6712167,0,0,0.6712167,-34.536805,-5.444866)" />
    <g
       style="display:inline"
       inkscape:label="Base"
       id="g7635"
       transform="matrix(0.6712167,0,0,0.6712167,-34.536805,-5.444866)" />
    <g
       inkscape:label="Layer 1"
       id="g7637"
       transform="matrix(0.6712167,0,0,0.6712167,-120.8084,13.702934)" />
    <g
       id="layer5"
       inkscape:label="shadiw"
       transform="matrix(0.6712167,0,0,0.6712167,-120.8084,13.702934)" />
    <g
       id="g7640"
       inkscape:label="white"
       transform="matrix(0.6712167,0,0,0.6712167,-120.8084,13.702934)" />
    <g
       transform="matrix(0.6712167,0,0,0.6712167,-173.83292,8.0950219)"
       style="display:inline"
       id="g7642"
       inkscape:label="Layer 1" />
    <g
       transform="matrix(0.6712167,0,0,0.6712167,-173.83292,8.0950219)"
       inkscape:label="bottom"
       id="g7644" />
    <g
       transform="matrix(0.6712167,0,0,0.6712167,-173.83292,8.0950219)"
       style="display:inline"
       inkscape:label="back"
       id="g7646" />
    <g
       id="g7648"
       inkscape:label="shadiw"
       transform="matrix(0.6712167,0,0,0.6712167,-68.771201,14.073956)" />
    <g
       id="g7650"
       inkscape:label="shadiw"
       transform="matrix(0.6712167,0,0,0.6712167,44.213841,17.604737)" />
    <g
       transform="matrix(0.6712167,0,0,0.6712167,-193.52413,-9.3869)"
       inkscape:label="Shadow"
       id="g7652" />
    <g
       transform="matrix(0.6712167,0,0,0.6712167,-193.52413,-9.3869)"
       id="g7654"
       inkscape:label="Base"
       style="display:inline" />
    <g
       transform="matrix(0.6712167,0,0,0.6712167,-193.52413,-9.3869)"
       inkscape:label="new"
       id="g7656" />
    <g
       transform="matrix(0.6712167,0,0,0.6712167,-172.42302,0.1719619)"
       style="display:inline"
       id="g7658"
       inkscape:label="Layer 1" />
    <g
       transform="matrix(0.6712167,0,0,0.6712167,-172.42302,0.1719619)"
       inkscape:label="bottom"
       id="g7660" />
    <g
       transform="matrix(0.6712167,0,0,0.6712167,-172.42302,0.1719619)"
       style="display:inline"
       inkscape:label="back"
       id="g7662" />
    <g
       id="g7664"
       inkscape:label="shadiw"
       transform="matrix(0.6712167,0,0,0.6712167,-67.361297,6.1508959)" />
    <g
       id="g7666"
       inkscape:label="shadiw"
       transform="matrix(0.6712167,0,0,0.6712167,45.623745,9.6816779)" />
    <g
       transform="matrix(0.6712167,0,0,0.6712167,-192.11423,-17.30996)"
       inkscape:label="Shadow"
       id="g7668" />
    <g
       transform="matrix(0.6712167,0,0,0.6712167,-192.11423,-17.30996)"
       id="g7670"
       inkscape:label="Base"
       style="display:inline" />
    <g
       transform="matrix(0.6712167,0,0,0.6712167,-192.11423,-17.30996)"
       inkscape:label="new"
       id="g7672" />
    <path
       sodipodi:nodetypes="ccccccccccccccccccccc"
       id="path7342"
       d="M 22.000005,28.988407 C 20.024473,29.065639 20.014732,29.061323 20.000005,30.988407 L 20.000005,36.988407 C 20.044188,39.028075 20.053924,38.973675 22.000005,38.988407 L 29.000005,38.988407 L 29.000005,45.988407 C 29.000005,48.006022 29.013969,47.988407 31.000005,47.988406 L 37.000005,47.988406 C 38.982451,48.019656 39.026958,47.988407 39.000005,45.988407 L 39.000005,38.988407 L 46.000005,38.988407 C 48.000005,38.988407 48.031255,38.988408 48.000005,36.988407 L 48.000005,30.988407 C 48.029461,28.988407 48.050975,29.003139 46.000005,28.988407 L 39.000005,28.988407 L 39.000005,21.988407 C 38.968755,19.971046 38.958,19.988407 37.000005,19.988407 L 31.000005,19.988407 C 29.014208,20.082157 29.000005,20.092574 29.000005,21.988407 L 29.000005,28.988407 L 22.000005,28.988407 z"
       style="opacity:0.3;fill:url(#linearGradient7386);fill-opacity:1;fill-rule:nonzero;stroke:none;stroke-width:1;stroke-linecap:butt;stroke-linejoin:miter;marker:none;marker-start:none;marker-mid:none;marker-end:none;stroke-miterlimit:4;stroke-dashoffset:0;stroke-opacity:1;visibility:visible;display:block;overflow:visible;enable-background:accumulate" />
    <path
       style="fill:url(#radialGradient7984);fill-opacity:1;fill-rule:evenodd;stroke:url(#linearGradient7978);stroke-width:0.99994242;stroke-linecap:butt;stroke-linejoin:round;stroke-miterlimit:4;stroke-dasharray:none;stroke-opacity:1"
       d="M 30.500005,30.488407 L 30.500005,21.488407 L 37.500005,21.488407 L 37.500005,30.488407 L 46.500005,30.488407 L 46.500005,37.488407 L 37.500005,37.488407 L 37.500005,46.488407 L 30.500005,46.488407 L 30.500005,37.488407 L 21.500005,37.488407 L 21.500005,30.488407 L 30.500005,30.488407 z"
       id="path2262"
       sodipodi:nodetypes="ccccccccccccc" />
    <path
       style="opacity:0.4;fill:none;fill-opacity:1;fill-rule:evenodd;stroke:url(#linearGradient2785);stroke-width:0.99994242;stroke-linecap:butt;stroke-linejoin:round;stroke-miterlimit:4;stroke-dasharray:none;stroke-opacity:1"
       d="M 31.500005,31.488407 L 31.500005,22.488407 L 36.500005,22.488407 L 36.500005,31.488407 L 45.500005,31.488407 L 45.500005,36.488407 L 36.500005,36.488407 L 36.500005,45.488407 L 31.500005,45.488407 L 31.500005,36.488407 L 22.500005,36.488407 L 22.500005,31.488407 L 31.500005,31.488407 z"
       id="path2272"
       sodipodi:nodetypes="ccccccccccccc" />
  </g>
</svg>
