<?xml version="1.0" encoding="UTF-8" standalone="no"?>
<!-- Created with Inkscape (http://www.inkscape.org/) -->
<svg
   xmlns:dc="http://purl.org/dc/elements/1.1/"
   xmlns:cc="http://creativecommons.org/ns#"
   xmlns:rdf="http://www.w3.org/1999/02/22-rdf-syntax-ns#"
   xmlns:svg="http://www.w3.org/2000/svg"
   xmlns="http://www.w3.org/2000/svg"
   xmlns:xlink="http://www.w3.org/1999/xlink"
   xmlns:sodipodi="http://sodipodi.sourceforge.net/DTD/sodipodi-0.dtd"
   xmlns:inkscape="http://www.inkscape.org/namespaces/inkscape"
   width="48px"
   height="48px"
   id="svg7256"
   sodipodi:version="0.32"
   inkscape:version="0.46"
   sodipodi:docname="drawing-1.svg"
   inkscape:output_extension="org.inkscape.output.svg.inkscape">
  <defs
     id="defs7258">
    <linearGradient
       id="linearGradient7189"
       inkscape:collect="always">
      <stop
         id="stop7191"
         offset="0"
         style="stop-color:#ffffff;stop-opacity:1;" />
      <stop
         id="stop7193"
         offset="1"
         style="stop-color:#ffffff;stop-opacity:0" />
    </linearGradient>
    <linearGradient
       inkscape:collect="always"
       xlink:href="#linearGradient7189"
       id="linearGradient7187"
       gradientUnits="userSpaceOnUse"
       x1="33"
       y1="20.089285"
       x2="32.92857"
       y2="38" />
    <linearGradient
       inkscape:collect="always"
       id="linearGradient5769">
      <stop
         style="stop-color:#ffffff;stop-opacity:1;"
         offset="0"
         id="stop5771" />
      <stop
         style="stop-color:#ffffff;stop-opacity:0;"
         offset="1"
         id="stop5773" />
    </linearGradient>
    <linearGradient
       inkscape:collect="always"
       xlink:href="#linearGradient5769"
       id="linearGradient5775"
       x1="11.344039"
       y1="15.724428"
       x2="11.283378"
       y2="9.0953016"
       gradientUnits="userSpaceOnUse" />
    <linearGradient
       id="linearGradient8034">
      <stop
         id="stop8036"
         offset="0"
         style="stop-color:#eeeeec;stop-opacity:1" />
      <stop
         id="stop8038"
         offset="1"
         style="stop-color:#b0b0b0;stop-opacity:1" />
    </linearGradient>
    <linearGradient
       inkscape:collect="always"
       xlink:href="#linearGradient8034"
       id="linearGradient5779"
       gradientUnits="userSpaceOnUse"
       gradientTransform="matrix(9.1409747e-2,0,0,-0.1020666,29.637922,77.872994)"
       x1="16.008299"
       y1="521.35834"
       x2="117.8379"
       y2="333.0986" />
    <linearGradient
       inkscape:collect="always"
       id="linearGradient5791">
      <stop
         style="stop-color:#000000;stop-opacity:1;"
         offset="0"
         id="stop5793" />
      <stop
         style="stop-color:#000000;stop-opacity:0;"
         offset="1"
         id="stop5795" />
    </linearGradient>
    <radialGradient
       inkscape:collect="always"
       xlink:href="#linearGradient5791"
       id="radialGradient5797"
       cx="11.313708"
       cy="19.083185"
       fx="11.313708"
       fy="19.083185"
       r="9.8994951"
       gradientTransform="matrix(1,0,0,0.2767857,0,13.801232)"
       gradientUnits="userSpaceOnUse" />
    <linearGradient
       inkscape:collect="always"
       id="linearGradient3656">
      <stop
         style="stop-color:#ffffff;stop-opacity:1;"
         offset="0"
         id="stop3658" />
      <stop
         style="stop-color:#ffffff;stop-opacity:0;"
         offset="1"
         id="stop3660" />
    </linearGradient>
    <linearGradient
       inkscape:collect="always"
       xlink:href="#linearGradient3656"
       id="linearGradient5816"
       gradientUnits="userSpaceOnUse"
       x1="-26.753757"
       y1="11.566258"
       x2="-24.75"
       y2="9.687501" />
    <linearGradient
       inkscape:collect="always"
       id="linearGradient3520">
      <stop
         style="stop-color:#000000;stop-opacity:0.41295547"
         offset="0"
         id="stop3522" />
      <stop
         style="stop-color:#000000;stop-opacity:0;"
         offset="1"
         id="stop3524" />
    </linearGradient>
    <linearGradient
       inkscape:collect="always"
       xlink:href="#linearGradient3520"
       id="linearGradient5836"
       gradientUnits="userSpaceOnUse"
       gradientTransform="matrix(0.9223058,0,0,0.9185751,-92.447368,61.3257)"
       x1="-18.588562"
       y1="11.052948"
       x2="-28.789402"
       y2="14.069944" />
    <linearGradient
       id="linearGradient3671">
      <stop
         style="stop-color:#ffffff;stop-opacity:1;"
         offset="0"
         id="stop3673" />
      <stop
         id="stop3691"
         offset="0.47533694"
         style="stop-color:#ffffff;stop-opacity:1;" />
      <stop
         style="stop-color:#ffffff;stop-opacity:0;"
         offset="1"
         id="stop3675" />
    </linearGradient>
    <radialGradient
       inkscape:collect="always"
       xlink:href="#linearGradient3671"
       id="radialGradient5839"
       gradientUnits="userSpaceOnUse"
       gradientTransform="matrix(0.4073362,-0.2798276,0.7510293,1.0932492,-115.18484,51.56213)"
       cx="-26.305403"
       cy="10.108011"
       fx="-26.305403"
       fy="10.108011"
       r="7.0421038" />
    <linearGradient
       inkscape:collect="always"
       id="linearGradient6469">
      <stop
         style="stop-color:#000000;stop-opacity:1;"
         offset="0"
         id="stop6471" />
      <stop
         style="stop-color:#000000;stop-opacity:0;"
         offset="1"
         id="stop6473" />
    </linearGradient>
    <linearGradient
       inkscape:collect="always"
       xlink:href="#linearGradient6469"
       id="linearGradient6475"
       x1="58.282169"
       y1="70.751839"
       x2="61.181217"
       y2="67.799171"
       gradientUnits="userSpaceOnUse"
       gradientTransform="translate(-180,0)" />
    <linearGradient
       inkscape:collect="always"
       id="linearGradient3741">
      <stop
         style="stop-color:#ffffff;stop-opacity:1;"
         offset="0"
         id="stop3743" />
      <stop
         style="stop-color:#ffffff;stop-opacity:0;"
         offset="1"
         id="stop3745" />
    </linearGradient>
    <radialGradient
       inkscape:collect="always"
       xlink:href="#linearGradient3741"
       id="radialGradient5810"
       gradientUnits="userSpaceOnUse"
       gradientTransform="matrix(1.8860258,0,0,1.1764706,-3.5441033,-4.2352941)"
       cx="4"
       cy="5.2999997"
       fx="4"
       fy="5.2999997"
       r="17" />
    <linearGradient
       inkscape:collect="always"
       id="linearGradient3613">
      <stop
         style="stop-color:#888a85;stop-opacity:1"
         offset="0"
         id="stop3615" />
      <stop
         style="stop-color:#babdb6;stop-opacity:1"
         offset="1"
         id="stop3617" />
    </linearGradient>
    <linearGradient
       inkscape:collect="always"
       xlink:href="#linearGradient3613"
       id="linearGradient5845"
       gradientUnits="userSpaceOnUse"
       gradientTransform="translate(-90,60)"
       x1="-47.5"
       y1="49.020683"
       x2="-62.75"
       y2="-22.502075" />
    <linearGradient
       id="linearGradient3683">
      <stop
         id="stop3685"
         offset="0"
         style="stop-color:#f6f6f5;stop-opacity:1;" />
      <stop
         id="stop3689"
         offset="1"
         style="stop-color:#d3d7cf;stop-opacity:1" />
    </linearGradient>
    <radialGradient
       inkscape:collect="always"
       xlink:href="#linearGradient3683"
       id="radialGradient5843"
       gradientUnits="userSpaceOnUse"
       gradientTransform="matrix(3.9957492,0,0,1.9350367,0.62141,28.832578)"
       cx="-30.249996"
       cy="35.357208"
       fx="-30.249996"
       fy="35.357208"
       r="18.000002" />
    <linearGradient
       inkscape:collect="always"
       xlink:href="#linearGradient3702"
       id="linearGradient5804"
       gradientUnits="userSpaceOnUse"
       x1="25.058096"
       y1="47.027729"
       x2="25.058096"
       y2="39.999443" />
    <radialGradient
       inkscape:collect="always"
       xlink:href="#linearGradient3688"
       id="radialGradient5802"
       gradientUnits="userSpaceOnUse"
       gradientTransform="matrix(2.003784,0,0,1.4,-20.01187,-104.4)"
       cx="4.9929786"
       cy="43.5"
       fx="4.9929786"
       fy="43.5"
       r="2.5" />
    <radialGradient
       inkscape:collect="always"
       xlink:href="#linearGradient3688"
       id="radialGradient5800"
       gradientUnits="userSpaceOnUse"
       gradientTransform="matrix(2.003784,0,0,1.4,27.98813,-17.4)"
       cx="4.9929786"
       cy="43.5"
       fx="4.9929786"
       fy="43.5"
       r="2.5" />
    <linearGradient
       id="linearGradient3702">
      <stop
         id="stop3704"
         offset="0"
         style="stop-color:black;stop-opacity:0;" />
      <stop
         style="stop-color:black;stop-opacity:1;"
         offset="0.5"
         id="stop3710" />
      <stop
         id="stop3706"
         offset="1"
         style="stop-color:black;stop-opacity:0;" />
    </linearGradient>
    <linearGradient
       inkscape:collect="always"
       xlink:href="#linearGradient3702"
       id="linearGradient5798"
       gradientUnits="userSpaceOnUse"
       x1="25.058096"
       y1="47.027729"
       x2="25.058096"
       y2="39.999443" />
    <radialGradient
       inkscape:collect="always"
       xlink:href="#linearGradient3688"
       id="radialGradient5796"
       gradientUnits="userSpaceOnUse"
       gradientTransform="matrix(2.003784,0,0,1.4,-20.01187,-104.4)"
       cx="4.9929786"
       cy="43.5"
       fx="4.9929786"
       fy="43.5"
       r="2.5" />
    <linearGradient
       id="linearGradient3688"
       inkscape:collect="always">
      <stop
         id="stop3690"
         offset="0"
         style="stop-color:black;stop-opacity:1;" />
      <stop
         id="stop3692"
         offset="1"
         style="stop-color:black;stop-opacity:0;" />
    </linearGradient>
    <radialGradient
       inkscape:collect="always"
       xlink:href="#linearGradient3688"
       id="radialGradient5794"
       gradientUnits="userSpaceOnUse"
       gradientTransform="matrix(2.003784,0,0,1.4,27.98813,-17.4)"
       cx="4.9929786"
       cy="43.5"
       fx="4.9929786"
       fy="43.5"
       r="2.5" />
  </defs>
  <sodipodi:namedview
     id="base"
     pagecolor="#ffffff"
     bordercolor="#666666"
     borderopacity="1.0"
     inkscape:pageopacity="0.0"
     inkscape:pageshadow="2"
     inkscape:zoom="7"
     inkscape:cx="24"
     inkscape:cy="24"
     inkscape:current-layer="layer1"
     showgrid="true"
     inkscape:grid-bbox="true"
     inkscape:document-units="px"
     inkscape:window-width="641"
     inkscape:window-height="690"
     inkscape:window-x="92"
     inkscape:window-y="44" />
  <metadata
     id="metadata7261">
    <rdf:RDF>
      <cc:Work
         rdf:about="">
        <dc:format>image/svg+xml</dc:format>
        <dc:type
           rdf:resource="http://purl.org/dc/dcmitype/StillImage" />
      </cc:Work>
    </rdf:RDF>
  </metadata>
  <g
     id="layer1"
     inkscape:label="Layer 1"
     inkscape:groupmode="layer">
    <g
       style="display:inline"
       id="g6015"
       transform="translate(150,-60)">
      <rect
         y="60"
         x="-150"
         height="48"
         width="48"
         id="rect5504"
         style="opacity:0;fill:#000000;fill-opacity:1;stroke:none;stroke-width:1;stroke-miterlimit:4;stroke-dasharray:none;display:inline" />
      <g
         transform="matrix(1.0464281,0,0,0.8888889,-151.18572,65.72224)"
         inkscape:label="Shadow"
         id="g5508"
         style="opacity:0.65587045;display:inline">
        <g
           transform="matrix(1.052632,0,0,1.285713,-1.263158,-13.42854)"
           style="opacity:0.4"
           id="g5511">
          <rect
             style="opacity:1;fill:url(#radialGradient5794);fill-opacity:1;stroke:none;stroke-width:1;stroke-linecap:round;stroke-linejoin:miter;stroke-miterlimit:4;stroke-dasharray:none;stroke-opacity:1"
             id="rect5513"
             width="5"
             height="7"
             x="38"
             y="40" />
          <rect
             style="opacity:1;fill:url(#radialGradient5796);fill-opacity:1;stroke:none;stroke-width:1;stroke-linecap:round;stroke-linejoin:miter;stroke-miterlimit:4;stroke-dasharray:none;stroke-opacity:1"
             id="rect5515"
             width="5"
             height="7"
             x="-10"
             y="-47"
             transform="scale(-1,-1)" />
          <rect
             style="opacity:1;fill:url(#linearGradient5798);fill-opacity:1;stroke:none;stroke-width:1;stroke-linecap:round;stroke-linejoin:miter;stroke-miterlimit:4;stroke-dasharray:none;stroke-opacity:1"
             id="rect5517"
             width="28"
             height="7.0000005"
             x="10"
             y="40" />
        </g>
      </g>
      <g
         transform="matrix(0.9548466,0,0,0.5555562,-148.98776,79.888875)"
         inkscape:label="Shadow"
         id="g5519"
         style="display:inline">
        <g
           transform="matrix(1.052632,0,0,1.285713,-1.263158,-13.42854)"
           style="opacity:0.4"
           id="g5521">
          <rect
             style="opacity:1;fill:url(#radialGradient5800);fill-opacity:1;stroke:none;stroke-width:1;stroke-linecap:round;stroke-linejoin:miter;stroke-miterlimit:4;stroke-dasharray:none;stroke-opacity:1"
             id="rect5523"
             width="5"
             height="7"
             x="38"
             y="40" />
          <rect
             style="opacity:1;fill:url(#radialGradient5802);fill-opacity:1;stroke:none;stroke-width:1;stroke-linecap:round;stroke-linejoin:miter;stroke-miterlimit:4;stroke-dasharray:none;stroke-opacity:1"
             id="rect5525"
             width="5"
             height="7"
             x="-10"
             y="-47"
             transform="scale(-1,-1)" />
          <rect
             style="opacity:1;fill:url(#linearGradient5804);fill-opacity:1;stroke:none;stroke-width:1;stroke-linecap:round;stroke-linejoin:miter;stroke-miterlimit:4;stroke-dasharray:none;stroke-opacity:1"
             id="rect5527"
             width="28"
             height="7.0000005"
             x="10"
             y="40" />
        </g>
      </g>
      <path
         sodipodi:nodetypes="ccsccccccc"
         id="path5529"
         d="M -141.47614,63.5 C -141.47614,63.5 -124,63.5 -122.5,63.5 C -118.62295,63.572942 -116,66 -113.5,68.5 C -111,71 -108.89232,73.752625 -108.5,77.5 C -108.5,79 -108.5,102.47614 -108.5,102.47614 C -108.5,103.59736 -109.40264,104.5 -110.52385,104.5 L -141.47614,104.5 C -142.59736,104.5 -143.5,103.59736 -143.5,102.47614 L -143.5,65.523858 C -143.5,64.402641 -142.59736,63.5 -141.47614,63.5 z"
         style="fill:url(#radialGradient5843);fill-opacity:1;stroke:url(#linearGradient5845);stroke-width:1;stroke-miterlimit:4;display:inline" />
      <path
         transform="translate(-150,60)"
         d="M 8.53125,4 C 7.6730803,4 7,4.6730802 7,5.53125 L 7,42.46875 C 7,43.32692 7.6730802,44 8.53125,44 L 39.46875,44 C 40.326919,44 41,43.326918 41,42.46875 C 41,42.46875 41,19 41,17.5 C 41,16.10803 40.513021,13.200521 38.65625,11.34375 C 36.65625,9.34375 35.65625,8.34375 33.65625,6.34375 C 31.799479,4.4869792 28.89197,4 27.5,4 C 26,4 8.53125,4 8.53125,4 z"
         id="path5531"
         style="opacity:0.68016196;fill:url(#radialGradient5810);fill-opacity:1;stroke:none;stroke-width:1;stroke-miterlimit:4;display:inline"
         inkscape:original="M 8.53125 3.5 C 7.410033 3.5 6.5 4.4100329 6.5 5.53125 L 6.5 42.46875 C 6.5 43.589967 7.4100329 44.5 8.53125 44.5 L 39.46875 44.5 C 40.589967 44.5 41.5 43.589966 41.5 42.46875 C 41.5 42.46875 41.5 19 41.5 17.5 C 41.5 16 41 13 39 11 C 37 9 36 8 34 6 C 32 4 29 3.5 27.5 3.5 C 26 3.5 8.5312499 3.5 8.53125 3.5 z "
         inkscape:radius="-0.4861359"
         sodipodi:type="inkscape:offset" />
      <path
         id="rect5857"
         d="M -138.59375,69.125 C -138.81243,69.125 -139,69.312565 -139,69.53125 C -139,69.749934 -138.81243,69.937499 -138.59375,69.9375 L -117.40625,69.9375 C -117.18757,69.9375 -117,69.749934 -117,69.53125 C -117,69.312566 -117.18757,69.125 -117.40625,69.125 L -138.59375,69.125 z M -138.53125,71.0625 C -138.79094,71.0625 -139,71.271563 -139,71.53125 C -139,71.790937 -138.79094,72 -138.53125,72 L -116.46875,72 C -116.20906,72 -116,71.790937 -116,71.53125 C -116,71.271563 -116.20906,71.0625 -116.46875,71.0625 L -138.53125,71.0625 z M -138.53125,73.0625 C -138.79094,73.0625 -139,73.271563 -139,73.53125 C -139,73.790937 -138.79094,74 -138.53125,74 L -113.34375,74 C -113.08406,74 -112.875,73.790937 -112.875,73.53125 C -112.875,73.271563 -113.08406,73.0625 -113.34375,73.0625 L -138.53125,73.0625 z M -138.53125,75.0625 C -138.79094,75.0625 -139,75.271563 -139,75.53125 C -139,75.790937 -138.79094,76 -138.53125,76 L -113.34375,76 C -113.08406,76 -112.875,75.790937 -112.875,75.53125 C -112.875,75.271563 -113.08406,75.0625 -113.34375,75.0625 L -138.53125,75.0625 z M -138.53125,77.0625 C -138.79094,77.0625 -139,77.271563 -139,77.53125 C -139,77.790937 -138.79094,78 -138.53125,78 L -113.34375,78 C -113.08406,78 -112.875,77.790937 -112.875,77.53125 C -112.875,77.271563 -113.08406,77.0625 -113.34375,77.0625 L -138.53125,77.0625 z"
         style="opacity:0.15;fill:url(#linearGradient6475);fill-opacity:1;fill-rule:evenodd;stroke:none;stroke-width:0.99999982px;stroke-linecap:round;stroke-linejoin:round;marker:none;marker-start:none;marker-mid:none;marker-end:none;stroke-miterlimit:4;stroke-dasharray:none;stroke-dashoffset:0;stroke-opacity:1;visibility:visible;display:inline;overflow:visible" />
      <path
         sodipodi:nodetypes="ccccczc"
         id="path5533"
         d="M -122.5,64 C -123.88889,64 -122.54207,64.497088 -121.15625,65.125 C -119.77043,65.752912 -116.18337,68.340052 -117,72 C -112.67669,71.569417 -110.32087,75.122378 -110,76.28125 C -109.67913,77.440122 -109,78.888889 -109,77.5 C -108.97167,73.694419 -111.84543,71.068299 -113.84375,68.84375 C -115.84207,66.619201 -118.84621,64.476761 -122.5,64 z"
         style="fill:url(#radialGradient5839);fill-opacity:1;stroke:none;stroke-width:1;stroke-miterlimit:4;display:inline" />
      <path
         sodipodi:nodetypes="ccccc"
         id="path5535"
         d="M -121.39912,65.014353 C -120.47682,65.014353 -118.39068,71.210015 -119.31298,75.343603 C -115.01802,74.915844 -110.4596,75.43178 -110,76.28125 C -110.32087,75.122378 -112.67669,71.569417 -117,72 C -116.13534,68.124761 -120.18657,65.382702 -121.39912,65.014353 z"
         style="opacity:0.87854249;fill:url(#linearGradient5836);fill-opacity:1;stroke:none;stroke-width:1;stroke-miterlimit:4;display:inline" />
      <path
         transform="translate(-90,60)"
         d="M -51.46875,4.5 C -52.051916,4.5 -52.5,4.9480842 -52.5,5.53125 L -52.5,42.46875 C -52.5,43.051915 -52.051914,43.5 -51.46875,43.5 L -20.53125,43.5 C -19.948085,43.5 -19.5,43.051914 -19.5,42.46875 C -19.5,42.46875 -19.5,19 -19.5,17.5 C -19.5,16.220971 -19.980469,13.394531 -21.6875,11.6875 C -23.6875,9.6875 -24.6875,8.6875 -26.6875,6.6875 C -28.394531,4.9804687 -31.220971,4.5 -32.5,4.5 C -34,4.5 -51.46875,4.5 -51.46875,4.5 z"
         id="path5537"
         style="fill:none;fill-opacity:1;stroke:url(#linearGradient5816);stroke-width:1;stroke-miterlimit:4;display:inline"
         inkscape:original="M -51.46875 3.5 C -52.589967 3.5 -53.5 4.4100329 -53.5 5.53125 L -53.5 42.46875 C -53.5 43.589967 -52.589966 44.5 -51.46875 44.5 L -20.53125 44.5 C -19.410033 44.5 -18.5 43.589966 -18.5 42.46875 C -18.5 42.46875 -18.5 19 -18.5 17.5 C -18.5 16 -19 13 -21 11 C -23 9 -24 8 -26 6 C -28 4 -31 3.5 -32.5 3.5 C -34 3.5 -51.468749 3.5 -51.46875 3.5 z "
         inkscape:radius="-0.99436891"
         sodipodi:type="inkscape:offset" />
      <g
         inkscape:r_cy="true"
         inkscape:r_cx="true"
         transform="matrix(0.928889,0,0,1,-148.28889,60)"
         style="opacity:0.15;fill:#000000;display:inline"
         id="g5539">
        <rect
           ry="0.46875"
           rx="0.50463516"
           inkscape:r_cy="true"
           inkscape:r_cx="true"
           y="19.0625"
           x="10"
           height="0.9375"
           width="28.125"
           id="rect5549"
           style="opacity:1;fill:#000000;fill-opacity:1;fill-rule:evenodd;stroke:none;stroke-width:0.99999982px;stroke-linecap:round;stroke-linejoin:round;marker:none;marker-start:none;marker-mid:none;marker-end:none;stroke-miterlimit:4;stroke-dasharray:none;stroke-dashoffset:0;stroke-opacity:1;visibility:visible;display:inline;overflow:visible" />
        <rect
           style="opacity:1;fill:#000000;fill-opacity:1;fill-rule:evenodd;stroke:none;stroke-width:0.99999982px;stroke-linecap:round;stroke-linejoin:round;marker:none;marker-start:none;marker-mid:none;marker-end:none;stroke-miterlimit:4;stroke-dasharray:none;stroke-dashoffset:0;stroke-opacity:1;visibility:visible;display:inline;overflow:visible"
           id="rect5553"
           width="28.125"
           height="0.9375"
           x="10"
           y="21.0625"
           inkscape:r_cx="true"
           inkscape:r_cy="true"
           rx="0.50463516"
           ry="0.46875" />
        <rect
           style="opacity:1;fill:#000000;fill-opacity:1;fill-rule:evenodd;stroke:none;stroke-width:0.99999982px;stroke-linecap:round;stroke-linejoin:round;marker:none;marker-start:none;marker-mid:none;marker-end:none;stroke-miterlimit:4;stroke-dasharray:none;stroke-dashoffset:0;stroke-opacity:1;visibility:visible;display:inline;overflow:visible"
           id="rect5555"
           width="28.125"
           height="0.9375"
           x="10"
           y="23.0625"
           inkscape:r_cx="true"
           inkscape:r_cy="true"
           rx="0.50463516"
           ry="0.46875" />
        <rect
           ry="0.46875"
           rx="0.50463516"
           inkscape:r_cy="true"
           inkscape:r_cx="true"
           y="25.0625"
           x="10"
           height="0.9375"
           width="28.125"
           id="rect5557"
           style="opacity:1;fill:#000000;fill-opacity:1;fill-rule:evenodd;stroke:none;stroke-width:0.99999982px;stroke-linecap:round;stroke-linejoin:round;marker:none;marker-start:none;marker-mid:none;marker-end:none;stroke-miterlimit:4;stroke-dasharray:none;stroke-dashoffset:0;stroke-opacity:1;visibility:visible;display:inline;overflow:visible" />
        <rect
           ry="0.46875"
           rx="0.50463516"
           inkscape:r_cy="true"
           inkscape:r_cx="true"
           y="27.0625"
           x="10"
           height="0.9375"
           width="28.125"
           id="rect5559"
           style="opacity:1;fill:#000000;fill-opacity:1;fill-rule:evenodd;stroke:none;stroke-width:0.99999982px;stroke-linecap:round;stroke-linejoin:round;marker:none;marker-start:none;marker-mid:none;marker-end:none;stroke-miterlimit:4;stroke-dasharray:none;stroke-dashoffset:0;stroke-opacity:1;visibility:visible;display:inline;overflow:visible" />
        <rect
           style="opacity:1;fill:#000000;fill-opacity:1;fill-rule:evenodd;stroke:none;stroke-width:0.99999982px;stroke-linecap:round;stroke-linejoin:round;marker:none;marker-start:none;marker-mid:none;marker-end:none;stroke-miterlimit:4;stroke-dasharray:none;stroke-dashoffset:0;stroke-opacity:1;visibility:visible;display:inline;overflow:visible"
           id="rect5561"
           width="28.125"
           height="0.9375"
           x="10"
           y="29.0625"
           inkscape:r_cx="true"
           inkscape:r_cy="true"
           rx="0.50463516"
           ry="0.46875" />
        <rect
           style="opacity:1;fill:#000000;fill-opacity:1;fill-rule:evenodd;stroke:none;stroke-width:0.99999982px;stroke-linecap:round;stroke-linejoin:round;marker:none;marker-start:none;marker-mid:none;marker-end:none;stroke-miterlimit:4;stroke-dasharray:none;stroke-dashoffset:0;stroke-opacity:1;visibility:visible;display:inline;overflow:visible"
           id="rect5563"
           width="28.125"
           height="0.9375"
           x="10"
           y="31.0625"
           inkscape:r_cx="true"
           inkscape:r_cy="true"
           rx="0.50463516"
           ry="0.46875" />
        <rect
           ry="0.46875"
           rx="0.50463516"
           inkscape:r_cy="true"
           inkscape:r_cx="true"
           y="33.0625"
           x="10"
           height="0.9375"
           width="28.125"
           id="rect5565"
           style="opacity:1;fill:#000000;fill-opacity:1;fill-rule:evenodd;stroke:none;stroke-width:0.99999982px;stroke-linecap:round;stroke-linejoin:round;marker:none;marker-start:none;marker-mid:none;marker-end:none;stroke-miterlimit:4;stroke-dasharray:none;stroke-dashoffset:0;stroke-opacity:1;visibility:visible;display:inline;overflow:visible" />
        <rect
           ry="0.46875"
           rx="0.50463516"
           inkscape:r_cy="true"
           inkscape:r_cx="true"
           y="35.0625"
           x="10"
           height="0.9375"
           width="28.125"
           id="rect5567"
           style="opacity:1;fill:#000000;fill-opacity:1;fill-rule:evenodd;stroke:none;stroke-width:0.99999982px;stroke-linecap:round;stroke-linejoin:round;marker:none;marker-start:none;marker-mid:none;marker-end:none;stroke-miterlimit:4;stroke-dasharray:none;stroke-dashoffset:0;stroke-opacity:1;visibility:visible;display:inline;overflow:visible" />
        <rect
           ry="0.46875"
           rx="0.50463516"
           inkscape:r_cy="true"
           inkscape:r_cx="true"
           y="37.0625"
           x="10"
           height="0.9375"
           width="13.8125"
           id="rect5569"
           style="opacity:1;fill:#000000;fill-opacity:1;fill-rule:evenodd;stroke:none;stroke-width:0.99999982px;stroke-linecap:round;stroke-linejoin:round;marker:none;marker-start:none;marker-mid:none;marker-end:none;stroke-miterlimit:4;stroke-dasharray:none;stroke-dashoffset:0;stroke-opacity:1;visibility:visible;display:inline;overflow:visible" />
      </g>
    </g>
    <path
       sodipodi:type="arc"
       style="opacity:0.4;fill:url(#radialGradient5797);fill-opacity:1;fill-rule:nonzero;stroke:none;stroke-width:1;stroke-linecap:butt;stroke-linejoin:miter;marker:none;marker-start:none;marker-mid:none;marker-end:none;stroke-miterlimit:10;stroke-dasharray:none;stroke-dashoffset:0;stroke-opacity:1;visibility:visible;display:block;overflow:visible;enable-background:accumulate"
       id="path5789"
       sodipodi:cx="11.313708"
       sodipodi:cy="19.083185"
       sodipodi:rx="9.8994951"
       sodipodi:ry="2.7400389"
       d="M 21.213203,19.083185 A 9.8994951,2.7400389 0 1 1 1.4142132,19.083185 A 9.8994951,2.7400389 0 1 1 21.213203,19.083185 z"
       transform="matrix(1.5152288,0,0,1.4598333,15.857145,16.141731)" />
    <path
       style="opacity:1;fill:url(#linearGradient5779);fill-opacity:1;fill-rule:nonzero;stroke:#888a85;stroke-width:1.00040913;stroke-linecap:butt;stroke-linejoin:miter;marker:none;marker-start:none;marker-mid:none;marker-end:none;stroke-miterlimit:10;stroke-dasharray:none;stroke-dashoffset:0;stroke-opacity:1;visibility:visible;display:block;overflow:visible;enable-background:accumulate"
       d="M 32.74108,18.500361 C 31.276181,18.52445 31.972292,21.341166 30.540241,21.650581 C 29.108189,21.959995 28.561578,19.125816 27.217406,19.708664 C 25.873234,20.291513 27.602123,22.629152 26.397486,23.463036 C 25.19285,24.29692 23.618767,21.849164 22.599961,22.902038 C 21.581154,23.954912 24.041091,25.468161 23.247266,26.699563 C 22.453441,27.930965 20.031232,26.329489 19.492894,27.692098 C 18.954557,29.054707 21.826433,29.487173 21.564272,30.928624 C 21.302111,32.370075 18.47627,31.794025 18.500359,33.258924 C 18.524449,34.723822 21.341165,34.02771 21.650579,35.459762 C 21.959993,36.891814 19.125815,37.438425 19.708663,38.782597 C 20.291511,40.126768 22.629151,38.397881 23.463035,39.602518 C 24.296918,40.807153 21.849163,42.381236 22.902036,43.400043 C 23.95491,44.418848 25.468159,41.95891 26.699562,42.752737 C 27.930964,43.546562 26.329488,45.968772 27.692098,46.507108 C 29.054706,47.045445 29.487173,44.173568 30.928624,44.435731 C 32.370075,44.697893 31.794024,47.523733 33.258923,47.499642 C 34.723822,47.475555 34.027711,44.658839 35.459762,44.349423 C 36.891814,44.040009 37.438427,46.874189 38.782597,46.29134 C 40.126768,45.708491 38.397882,43.370851 39.602518,42.536969 C 40.807153,41.703085 42.381237,44.150841 43.400043,43.097966 C 44.418849,42.045092 41.958913,40.531843 42.752737,39.300441 C 43.546562,38.069039 45.968771,39.670515 46.507108,38.307905 C 47.045446,36.945297 44.17357,36.51283 44.435731,35.071379 C 44.697893,33.629928 47.523732,34.205978 47.499644,32.74108 C 47.475556,31.276181 44.658838,31.972293 44.349424,30.540242 C 44.040009,29.10819 46.874189,28.561578 46.29134,27.217407 C 45.708492,25.873236 43.370854,27.602122 42.536969,26.397488 C 41.703085,25.192851 44.150839,23.618768 43.097967,22.599962 C 42.045092,21.581156 40.531845,24.041092 39.300441,23.247267 C 38.069039,22.453443 39.670516,20.031233 38.307906,19.492896 C 36.945297,18.954559 36.51283,21.826435 35.071379,21.564273 C 33.629928,21.302112 34.205978,18.476272 32.74108,18.500361 z M 33.000001,25.5 C 37.192469,25.5 40.500002,28.807534 40.500002,33.000002 C 40.500002,37.192469 37.192469,40.5 33.000001,40.5 C 28.807534,40.5 25.500002,37.192469 25.500002,33.000002 C 25.500002,28.807534 28.807534,25.5 33.000001,25.5 z"
       id="path5665"
       sodipodi:nodetypes="csssssssssssssssssssssssssssssssccsssc" />
    <path
       sodipodi:type="arc"
       style="opacity:1;fill:none;fill-opacity:1;fill-rule:nonzero;stroke:url(#linearGradient5775);stroke-width:0.76935947;stroke-linecap:butt;stroke-linejoin:miter;marker:none;marker-start:none;marker-mid:none;marker-end:none;stroke-miterlimit:10;stroke-dasharray:none;stroke-dashoffset:0;stroke-opacity:1;visibility:visible;display:block;overflow:visible;enable-background:accumulate"
       id="path5767"
       sodipodi:cx="10.783379"
       sodipodi:cy="10.863069"
       sodipodi:rx="6.5407376"
       sodipodi:ry="6.5407376"
       d="M 17.324116,10.863069 A 6.5407376,6.5407376 0 1 1 4.242641,10.863069 A 6.5407376,6.5407376 0 1 1 17.324116,10.863069 z"
       transform="matrix(1.2995607,0,0,1.2995607,18.986347,18.882783)" />
    <path
       sodipodi:type="inkscape:offset"
       inkscape:radius="-1.0570278"
       inkscape:original="M 32.75 18.5 C 31.2851 18.52409 31.963301 21.346835 30.53125 21.65625 C 29.099198 21.965664 28.562922 19.135902 27.21875 19.71875 C 25.874579 20.301599 27.610887 22.634866 26.40625 23.46875 C 25.201614 24.302634 23.612556 21.853376 22.59375 22.90625 C 21.574944 23.959123 24.043825 25.456098 23.25 26.6875 C 22.456174 27.918903 20.038338 26.324891 19.5 27.6875 C 18.961664 29.050108 21.824661 29.496049 21.5625 30.9375 C 21.300339 32.378952 18.475911 31.785101 18.5 33.25 C 18.52409 34.714899 21.346836 34.036698 21.65625 35.46875 C 21.965664 36.900801 19.135902 37.437078 19.71875 38.78125 C 20.301597 40.125421 22.634866 38.389113 23.46875 39.59375 C 24.302632 40.798387 21.853377 42.387443 22.90625 43.40625 C 23.959123 44.425055 25.456097 41.956173 26.6875 42.75 C 27.918902 43.543827 26.32489 45.961664 27.6875 46.5 C 29.050107 47.038338 29.496049 44.175337 30.9375 44.4375 C 32.378952 44.699663 31.785101 47.524091 33.25 47.5 C 34.714899 47.475914 34.036699 44.653166 35.46875 44.34375 C 36.900801 44.034337 37.43708 46.864099 38.78125 46.28125 C 40.125421 45.698401 38.389114 43.365132 39.59375 42.53125 C 40.798387 41.697367 42.387444 44.146625 43.40625 43.09375 C 44.425056 42.040877 41.956176 40.543902 42.75 39.3125 C 43.543827 38.081097 45.961663 39.67511 46.5 38.3125 C 47.038339 36.949894 44.175339 36.503951 44.4375 35.0625 C 44.699663 33.621047 47.524088 34.214898 47.5 32.75 C 47.475911 31.2851 44.653164 31.963301 44.34375 30.53125 C 44.034337 29.099199 46.864099 28.562921 46.28125 27.21875 C 45.698402 25.874579 43.365135 27.610884 42.53125 26.40625 C 41.697367 25.201613 44.146622 23.612556 43.09375 22.59375 C 42.040877 21.574944 40.543904 24.043825 39.3125 23.25 C 38.081097 22.456176 39.67511 20.038337 38.3125 19.5 C 36.94989 18.961664 36.503951 21.824662 35.0625 21.5625 C 33.621047 21.300338 34.214898 18.475911 32.75 18.5 z M 33 25.5 C 37.192469 25.5 40.5 28.807532 40.5 33 C 40.499998 37.192465 37.192468 40.5 33 40.5 C 28.807534 40.5 25.5 37.192467 25.5 33 C 25.5 28.80753 28.807533 25.5 33 25.5 z "
       xlink:href="#path5665"
       style="opacity:1;fill:none;fill-opacity:1;fill-rule:nonzero;stroke:url(#linearGradient7187);stroke-width:1;stroke-linecap:butt;stroke-linejoin:miter;marker:none;marker-start:none;marker-mid:none;marker-end:none;stroke-miterlimit:10;stroke-dasharray:none;stroke-dashoffset:0;stroke-opacity:1;visibility:visible;display:block;overflow:visible;enable-background:accumulate"
       id="path5777"
       inkscape:href="#path5665"
       d="M 32.78125,28 C 32.737587,28.127167 32.706099,28.183555 32.65625,28.375 C 32.561471,28.738998 32.466773,29.184574 32.21875,29.65625 C 31.970727,30.127926 31.445541,30.662219 30.75,30.8125 C 30.053586,30.96297 29.358065,30.703035 28.9375,30.375 C 28.516935,30.046965 28.268064,29.668328 28.03125,29.375 C 27.923081,29.241017 27.866819,29.218078 27.78125,29.125 C 27.792228,29.25189 27.786415,29.296984 27.8125,29.46875 C 27.869376,29.843278 27.948958,30.278974 27.90625,30.8125 C 27.863542,31.346026 27.588542,32.061345 27,32.46875 C 26.410316,32.876947 25.671327,32.866514 25.15625,32.71875 C 24.641173,32.570986 24.238833,32.341689 23.90625,32.15625 C 23.742982,32.065216 23.682786,32.056532 23.5625,32 C 23.622342,32.121622 23.652087,32.17642 23.75,32.34375 C 23.942329,32.672433 24.184426,33.052072 24.34375,33.5625 C 24.503074,34.072928 24.512599,34.804996 24.125,35.40625 C 23.737874,36.00677 23.060946,36.306223 22.53125,36.375 C 22.001554,36.443777 21.566984,36.380297 21.1875,36.34375 C 20.974722,36.323258 20.891148,36.314566 20.75,36.3125 C 20.851908,36.40048 20.902111,36.444184 21.0625,36.5625 C 21.365688,36.786155 21.747986,37.061398 22.09375,37.46875 C 22.439514,37.876102 22.721494,38.547619 22.59375,39.25 C 22.466253,39.951023 21.962515,40.484647 21.5,40.75 C 21.037485,41.015353 20.580907,41.140426 20.21875,41.25 C 20.044695,41.302662 19.997307,41.328756 19.875,41.375 C 19.999395,41.414882 20.041832,41.456265 20.21875,41.5 C 20.586864,41.591 21.054601,41.662518 21.53125,41.90625 C 22.007899,42.149982 22.536276,42.675093 22.6875,43.375 C 22.838137,44.07219 22.575988,44.765069 22.25,45.1875 C 21.924012,45.609931 21.543294,45.884369 21.25,46.125 C 21.103353,46.245316 21.065948,46.283014 20.96875,46.375 C 21.101141,46.364454 21.156486,46.372188 21.34375,46.34375 C 21.718278,46.286874 22.153974,46.207292 22.6875,46.25 C 23.221026,46.292708 23.936345,46.567708 24.34375,47.15625 C 24.750729,47.744176 24.74247,48.486134 24.59375,49 C 24.44503,49.513866 24.216677,49.890037 24.03125,50.21875 C 23.946965,50.368165 23.92972,50.417829 23.875,50.53125 C 23.989581,50.474624 24.03442,50.463823 24.1875,50.375 C 24.512146,50.186628 24.897438,49.968212 25.40625,49.8125 C 25.915062,49.656788 26.653112,49.646465 27.25,50.03125 C 27.850521,50.418376 28.149973,51.095304 28.21875,51.625 C 28.287527,52.154696 28.224047,52.589266 28.1875,52.96875 C 28.167008,53.181528 28.158316,53.265102 28.15625,53.40625 C 28.247128,53.303061 28.314364,53.257851 28.4375,53.09375 C 28.66497,52.790606 28.934418,52.406115 29.34375,52.0625 C 29.753082,51.718885 30.421957,51.434634 31.125,51.5625 C 31.826684,51.690118 32.362787,52.191327 32.625,52.65625 C 32.887213,53.121173 32.987988,53.575233 33.09375,53.9375 C 33.14458,54.111608 33.17395,54.159322 33.21875,54.28125 C 33.26124,54.154307 33.296341,54.090248 33.34375,53.90625 C 33.438568,53.538255 33.53423,53.099273 33.78125,52.625 C 34.02827,52.150727 34.550869,51.619808 35.25,51.46875 C 35.946414,51.318281 36.641935,51.578215 37.0625,51.90625 C 37.483065,52.234285 37.731936,52.612922 37.96875,52.90625 C 38.07692,53.040233 38.133181,53.063172 38.21875,53.15625 C 38.207772,53.02936 38.213584,52.984266 38.1875,52.8125 C 38.130624,52.437972 38.051042,52.002276 38.09375,51.46875 C 38.136458,50.935224 38.411458,50.219905 39,49.8125 C 39.589685,49.404304 40.328673,49.414736 40.84375,49.5625 C 41.358827,49.710264 41.761167,49.939561 42.09375,50.125 C 42.257018,50.216034 42.317214,50.224718 42.4375,50.28125 C 42.377658,50.159628 42.347913,50.10483 42.25,49.9375 C 42.057671,49.608817 41.815574,49.229178 41.65625,48.71875 C 41.496926,48.208322 41.487401,47.476254 41.875,46.875 C 42.262127,46.27448 42.939054,45.975026 43.46875,45.90625 C 43.998446,45.837474 44.433016,45.900953 44.8125,45.9375 C 45.025278,45.957992 45.108852,45.966684 45.25,45.96875 C 45.148092,45.88077 45.09789,45.837066 44.9375,45.71875 C 44.634312,45.495095 44.252014,45.219852 43.90625,44.8125 C 43.560486,44.405148 43.278506,43.733631 43.40625,43.03125 C 43.533748,42.330228 44.037485,41.796603 44.5,41.53125 C 44.962515,41.265897 45.419093,41.140824 45.78125,41.03125 C 45.955305,40.978588 46.002693,40.952494 46.125,40.90625 C 46.000605,40.866368 45.958168,40.824985 45.78125,40.78125 C 45.413136,40.69025 44.945398,40.618732 44.46875,40.375 C 43.992102,40.131268 43.463724,39.606157 43.3125,38.90625 C 43.162031,38.209836 43.421965,37.514315 43.75,37.09375 C 44.078035,36.673185 44.456672,36.424314 44.75,36.1875 C 44.909345,36.058856 44.963384,36.000113 45.0625,35.90625 C 44.925787,35.914762 44.858919,35.908805 44.65625,35.9375 C 44.281892,35.990504 43.813139,36.078342 43.28125,36.03125 C 42.749361,35.984158 42.062439,35.711782 41.65625,35.125 C 41.249271,34.537074 41.25753,33.795116 41.40625,33.28125 C 41.55497,32.767384 41.783323,32.391213 41.96875,32.0625 C 42.053035,31.913085 42.07028,31.863421 42.125,31.75 C 42.010419,31.806626 41.96558,31.817427 41.8125,31.90625 C 41.487855,32.094622 41.102562,32.313038 40.59375,32.46875 C 40.084938,32.624462 39.346888,32.634784 38.75,32.25 C 38.149479,31.862875 37.850027,31.185946 37.78125,30.65625 C 37.712473,30.126554 37.775953,29.691984 37.8125,29.3125 C 37.832992,29.099722 37.841684,29.016148 37.84375,28.875 C 37.75237,28.980143 37.685696,29.021236 37.5625,29.1875 C 37.334919,29.494641 37.064823,29.871268 36.65625,30.21875 C 36.247677,30.566232 35.58168,30.878527 34.875,30.75 C 34.173315,30.622383 33.637213,30.121173 33.375,29.65625 C 33.112787,29.191327 33.012012,28.737268 32.90625,28.375 C 32.851318,28.186841 32.828444,28.125867 32.78125,28 z M 33,32.59375 C 37.748411,32.59375 41.5625,36.40784 41.5625,41.15625 C 41.562498,45.904658 37.74841,49.71875 33,49.71875 C 28.251592,49.71875 24.4375,45.904659 24.4375,41.15625 C 24.4375,36.407839 28.251591,32.59375 33,32.59375 z" />
  </g>
</svg>
