/* XPM */
static char * bottom_right_inactive_xpm[] = {
"16 8 3 1",
" 	c None",
".	c #2D2D2D",
"+	c #393939",
"              .+",
"              .+",
"              .+",
"              .+",
"...............+",
"...............+",
"...............+",
"++++++++++++++++"};
