/* XPM */
static char * bottom_left_inactive_xpm[] = {
"16 16 3 1",
" 	c None",
".	c #393939",
"+	c #2D2D2D",
".+++            ",
".+++            ",
".+++            ",
".+++            ",
".+++            ",
".+++            ",
".+++            ",
".+++            ",
".+++            ",
".+++            ",
".+++            ",
".+++            ",
".+++++++++++++++",
".+++++++++++++++",
".+++++++++++++++",
"................"};
