/* XPM */
static char * bottom_inactive_xpm[] = {
"8 4 3 1",
" 	c None",
".	c #2D2D2D",
"+	c #393939",
"........",
"........",
"........",
"++++++++"};
