/* XPM */
static char *close_prelight[] = {
/* columns rows colors chars-per-pixel */
"22 25 8 1 ",
"  c #2D2D2D2D2D2D",
". c #4007304C2E4A",
"X c #452131252E98",
"o c #484848484848",
"O c #BEE2455135CC",
"+ c #C23645DE35FF",
"@ c #C60A46813639",
"# c #D6D649493737 s active_color_1",
/* pixels */
"oooooooooooooooooooooo",
"                      ",
"                      ",
"                      ",
"                      ",
"                      ",
"                      ",
"                      ",
"                      ",
"       ##.  .##       ",
"       ###..###       ",
"       .######.       ",
"        .####.        ",
"        .####.        ",
"       .######.       ",
"       ###..###       ",
"       ##.  .##       ",
"                      ",
"                      ",
"                      ",
"                      ",
"                      ",
"                      ",
"                      ",
"                      "
};
