/* XPM */
static char * close_inactive_xpm[] = {
"24 24 10 1",
" 	c None",
".	c #141414",
"+	c #282828",
"@	c #313131",
"#	c #2F2F2F",
"$	c #2B2B2B",
"%	c #444444",
"&	c #343434",
"*	c #323232",
"=	c #2C2C2C",
"........................",
"........................",
"........................",
"........................",
"........................",
"........................",
"........................",
"........+@....#$........",
".......+%%@..#%%$.......",
".......@%%%@#%%%&.......",
"........@%%%%%%&........",
".........@%%%%&.........",
".........#%%%%*.........",
"........#%%%%%%@........",
".......#%%%&*%%%@.......",
".......=%%&..@%%#.......",
"........=&....@#........",
"........................",
"........................",
"........................",
"........................",
"........................",
"........................",
"........................"};
