/* XPM */
static char *close_pressed[] = {
/* columns rows colors chars-per-pixel */
"22 25 8 1 ",
"  c #2D2D2D2D2D2D",
". c #3C0F2F9A2E0F",
"X c #3C972FB02E17",
"o c #402230442E4C",
"O c #484848484848",
"+ c #A1A940293414",
"@ c #A76B4119346B",
"# c #B4B443433535",
/* pixels */
"OOOOOOOOOOOOOOOOOOOOOO",
"                      ",
"                      ",
"                      ",
"                      ",
"                      ",
"                      ",
"                      ",
"                      ",
"       #+.  .+#       ",
"       @#+.X+#+       ",
"       X+#@@#+X       ",
"        .@##@X        ",
"        X@##@X        ",
"       X@#+@#@o       ",
"       +#@oo+#@       ",
"       #+.  X+#       ",
"                      ",
"                      ",
"                      ",
"                      ",
"                      ",
"                      ",
"                      ",
"                      "
};
