/* XPM */
static char * close_active_xpm[] = {
"16 16 15 1",
" 	c None",
".	c #2D2D2D",
"+	c #DCDCDC",
"@	c #A4A4A4",
"#	c #3F3F3F",
"$	c #A6A6A6",
"%	c #D1D1D1",
"&	c #525252",
"*	c #414141",
"=	c #D3D3D3",
"-	c #CECECE",
";	c #575757",
">	c #505050",
",	c #A2A2A2",
"'	c #3D3D3D",
"................",
"................",
"................",
"................",
"....+@#..#@+....",
"....$+%&&%+@....",
"....*=+--+%#....",
".....;=++-&.....",
".....;=++-&.....",
"....*=+--+%#....",
"....$+->>-+@....",
"....+,'..',+....",
"................",
"................",
"................",
"................"};
