/* XPM */
static char * close_pressed_xpm[] = {
"24 24 11 1",
" 	c None",
".	c #141414",
"+	c #3F3F3F",
"@	c #515151",
"#	c #4B4B4B",
"$	c #444444",
"%	c #777777",
"&	c #565656",
"*	c #151515",
"=	c #525252",
"-	c #464646",
"........................",
"........................",
"........................",
"........................",
"........................",
"........................",
"........................",
"........+@....#$........",
".......+%%@..#%%$.......",
".......@%%%@#%%%&*......",
"........@%%%%%%&*.......",
".........@%%%%&*........",
".........#%%%%=.........",
"........#%%%%%%@........",
".......#%%%&=%%%@.......",
".......-%%&*.@%%#.......",
"........-&*...@#........",
"........................",
"........................",
"........................",
"........................",
"........................",
"........................",
"........................"};
