/* XPM */
static char *close_active[] = {
/* columns rows colors chars-per-pixel */
"22 25 8 1 ",
"  c #2D2D2D2D2D2D",
". c #407740774077",
"X c #454A454A454A",
"o c #484848484848",
"O c #C40FC40FC40F",
"+ c #C4BFC4BFC4BF",
"@ c #CBA3CBA3CBA3",
"# c gainsboro",
/* pixels */
"oooooooooooooooooooooo",
"                      ",
"                      ",
"                      ",
"                      ",
"                      ",
"                      ",
"                      ",
"                      ",
"       #O.  .+#       ",
"       @#O..+#+       ",
"       .O#@@#+.       ",
"        .+##@.        ",
"        X@##@X        ",
"       X@#+@#@X       ",
"       +#@X.@#+       ",
"       #+.  .+#       ",
"                      ",
"                      ",
"                      ",
"                      ",
"                      ",
"                      ",
"                      ",
"                      "
};
