/* XPM */
static char *close_inactive[] = {
/* columns rows colors chars-per-pixel */
"22 25 6 1 ",
"  c #2D2D2D2D2D2D",
". c #375437543754",
"X c #394439443944",
"o c #7BA27BA27BA2",
"O c #7F7C7F7C7F7C",
"+ c #888888888888",
/* pixels */
"XXXXXXXXXXXXXXXXXXXXXX",
"                      ",
"                      ",
"                      ",
"                      ",
"                      ",
"                      ",
"                      ",
"                      ",
"       +o.  .o+       ",
"       O+o..o+O       ",
"       .o+OO+o.       ",
"        .O++O.        ",
"        .O++O.        ",
"       XO+oO+OX       ",
"       o+OX.O+O       ",
"       +o.  .o+       ",
"                      ",
"                      ",
"                      ",
"                      ",
"                      ",
"                      ",
"                      ",
"                      "
};
