/* XPM */
static char * hide_prelight_xpm[] = {
"24 24 5 1",
" 	c None",
".	c #141414",
"+	c #9C9C9C",
"@	c #CCCCCC",
"#	c #989898",
"........................",
"........................",
"........................",
"........................",
"........................",
"........................",
"........................",
"........................",
"........................",
"........................",
"........................",
".......+@@@@@@@@+.......",
".......@@@@@@@@@@.......",
".......#@@@@@@@@#.......",
"........................",
"........................",
"........................",
"........................",
"........................",
"........................",
"........................",
"........................",
"........................",
"........................"};
