/* XPM */
static char * hide_pressed_xpm[] = {
"16 16 3 1",
" 	c None",
".	c #2D2D2D",
"+	c #B44335",
"................",
"................",
"................",
"................",
"................",
"................",
"................",
"....++++++++....",
"....++++++++....",
"................",
"................",
"................",
"................",
"................",
"................",
"................"};
