/* XPM */
static char * hide_inactive_xpm[] = {
"16 16 3 1",
" 	c None",
".	c #2D2D2D",
"+	c #ADA9A8",
"................",
"................",
"................",
"................",
"................",
"................",
"................",
"....++++++++....",
"....++++++++....",
"................",
"................",
"................",
"................",
"................",
"................",
"................"};
