/* XPM */
static char *hide_prelight[] = {
/* columns rows colors chars-per-pixel */
"22 25 5 1 ",
"  c #2D2D2D2D2D2D",
". c #32802E0F2D7E",
"X c #484848484848",
"o c #D22E488336F0",
"O c #D6D649493737",
/* pixels */
"XXXXXXXXXXXXXXXXXXXXXX",
"                      ",
"                      ",
"                      ",
"                      ",
"                      ",
"                      ",
"                      ",
"                      ",
"                      ",
"                      ",
"       ........       ",
"       OOOOOOOO       ",
"       oooooooo       ",
"                      ",
"                      ",
"                      ",
"                      ",
"                      ",
"                      ",
"                      ",
"                      ",
"                      ",
"                      ",
"                      "
};
