/* XPM */
static char *hide_prelight[] = {
/* columns rows colors chars-per-pixel */
"22 25 3 1 ",
"  c #2D2D2D2D2D2D",
". c #32802E0F2D7E s active_color_1",
"X c #484848484848",
/* pixels */
"XXXXXXXXXXXXXXXXXXXXXX",
"                      ",
"                      ",
"                      ",
"                      ",
"                      ",
"                      ",
"                      ",
"                      ",
"                      ",
"                      ",
"                      ",
"       ........       ",
"       ........       ",
"                      ",
"                      ",
"                      ",
"                      ",
"                      ",
"                      ",
"                      ",
"                      ",
"                      ",
"                      ",
"                      "
};
