/* XPM */
static char *maximize_toggled_prelight[] = {
/* columns rows colors chars-per-pixel */
"22 25 3 1 ",
"  c #2D2D2D2D2D2D",
". c #484848484848",
"X c #D6D649493737",
/* pixels */
"......................",
"                      ",
"                      ",
"                      ",
"                      ",
"                      ",
"                      ",
"                      ",
"                      ",
"       XXXXXXXX       ",
"       XXXXXXXX       ",
"       XX    XX       ",
"       XX    XX       ",
"       XX    XX       ",
"       XX    XX       ",
"       XXXXXXXX       ",
"       XXXXXXXX       ",
"                      ",
"                      ",
"                      ",
"                      ",
"                      ",
"                      ",
"                      ",
"                      "
};
