/* XPM */
static char * maximize_inactive_xpm[] = {
"24 24 5 1",
" 	c None",
".	c #141414",
"+	c #373737",
"@	c #444444",
"#	c #363636",
"........................",
"........................",
"........................",
"........................",
"........................",
"........................",
"........................",
".......+@@@@@@@@+.......",
".......@@@@@@@@@@.......",
".......@@@@@@@@@@.......",
".......@@@....@@@.......",
".......@@@....@@@.......",
".......@@@....@@@.......",
".......@@@....@@@.......",
".......@@@@@@@@@@.......",
".......@@@@@@@@@@.......",
".......#@@@@@@@@#.......",
"........................",
"........................",
"........................",
"........................",
"........................",
"........................",
"........................"};
