/* XPM */
static char * menu_active_xpm[] = {
"16 25 3 1",
" 	c None",
".	c #484848",
"+	c #2D2D2D",
"................",
"++++++++++++++++",
"++++++++++++++++",
"++++++++++++++++",
"++++++++++++++++",
"++++++++++++++++",
"++++++++++++++++",
"++++++++++++++++",
"++++++++++++++++",
"++++++++++++++++",
"++++++++++++++++",
"++++++++++++++++",
"++++++++++++++++",
"++++++++++++++++",
"++++++++++++++++",
"++++++++++++++++",
"++++++++++++++++",
"++++++++++++++++",
"++++++++++++++++",
"++++++++++++++++",
"++++++++++++++++",
"++++++++++++++++",
"++++++++++++++++",
"++++++++++++++++",
"++++++++++++++++"};
