/* XPM */
static char * right_inactive_xpm[] = {
"8 21 2 1",
" 	c None",
".	c #2D2D2D",
"..      ",
"..      ",
"..      ",
"..      ",
"..      ",
"..      ",
"..      ",
"..      ",
"..      ",
"..      ",
"..      ",
"..      ",
"..      ",
"..      ",
"..      ",
"..      ",
"..      ",
"..      ",
"..      ",
"..      ",
"..      "};
