/* XPM */
static char *shade_toggled_active[] = {
/* columns rows colors chars-per-pixel */
"22 25 8 1 ",
"  c #2D2D2D2D2D2D",
". c #41D841D841D8",
"X c #484848484848",
"o c #855D855D855D",
"O c #8AE08AE08AE0",
"+ c #C40FC40FC40F",
"@ c #C6D0C6D0C6D0",
"# c gainsboro",
/* pixels */
"XXXXXXXXXXXXXXXXXXXXXX",
"                      ",
"                      ",
"                      ",
"                      ",
"                      ",
"                      ",
"                      ",
"                      ",
"          ##          ",
"          ##          ",
"          ##          ",
"       #+.##.@#       ",
"       O#@##@#O       ",
"        o####o        ",
"         o##o         ",
"          oo          ",
"                      ",
"                      ",
"                      ",
"                      ",
"                      ",
"                      ",
"                      ",
"                      "
};
