/* XPM */
static char *shade_toggled_prelight[] = {
/* columns rows colors chars-per-pixel */
"22 25 8 1 ",
"  c #2D2D2D2D2D2D",
". c #4123307C2E5B",
"X c #484848484848",
"o c #82573B493237",
"O c #87A93C2B3288",
"+ c #BF8D456D35D6",
"@ c #C18C45C235F4",
"# c #D6D649493737",
/* pixels */
"XXXXXXXXXXXXXXXXXXXXXX",
"                      ",
"                      ",
"                      ",
"                      ",
"                      ",
"                      ",
"                      ",
"                      ",
"          ##          ",
"          ##          ",
"          ##          ",
"       #+.##.+#       ",
"       O#@##@#O       ",
"        o####o        ",
"         o##o         ",
"          oo          ",
"                      ",
"                      ",
"                      ",
"                      ",
"                      ",
"                      ",
"                      ",
"                      "
};
