/* XPM */
static char *shade_toggled_prelight[] = {
/* columns rows colors chars-per-pixel */
"22 25 4 1 ",
"  c #2D2D2D2D2D2D",
". c #4123307C2E5B",
"X c #484848484848",
"# c #D6D649493737 s active_color_1",
/* pixels */
"XXXXXXXXXXXXXXXXXXXXXX",
"                      ",
"                      ",
"                      ",
"                      ",
"                      ",
"                      ",
"                      ",
"                      ",
"          ##          ",
"          ##          ",
"          ##          ",
"       ## ## ##       ",
"       ########       ",
"        ######        ",
"         ####         ",
"          ##          ",
"                      ",
"                      ",
"                      ",
"                      ",
"                      ",
"                      ",
"                      ",
"                      "
};
