/* XPM */
static char *shade_active[] = {
/* columns rows colors chars-per-pixel */
"22 25 8 1 ",
"  c #2D2D2D2D2D2D",
". c #449A449A449A",
"X c #484848484848",
"o c #7F297F297F29",
"O c #855D855D855D",
"+ c #C780C780C780",
"@ c #C992C992C992",
"# c gainsboro",
/* pixels */
"XXXXXXXXXXXXXXXXXXXXXX",
"                      ",
"                      ",
"                      ",
"                      ",
"                      ",
"                      ",
"                      ",
"                      ",
"          oo          ",
"         O##O         ",
"        O####O        ",
"       o#+##+#o       ",
"       #@.##.@#       ",
"          ##          ",
"          ##          ",
"          ##          ",
"                      ",
"                      ",
"                      ",
"                      ",
"                      ",
"                      ",
"                      ",
"                      "
};
