/* XPM */
static char *shade_toggled_pressed[] = {
/* columns rows colors chars-per-pixel */
"22 25 7 1 ",
"  c #2D2D2D2D2D2D",
". c #3D1F2FC62E1F",
"X c #713538433135",
"o c #757538F43176",
"O c #484848484848",
"+ c #A36E4072342F",
"@ c #B4B443433535",
/* pixels */
"OOOOOOOOOOOOOOOOOOOOOO",
"                      ",
"                      ",
"                      ",
"                      ",
"                      ",
"                      ",
"                      ",
"                      ",
"          @@          ",
"          @@          ",
"          @@          ",
"       @+.@@.+@       ",
"       X@+@@+@o       ",
"        X@@@@X        ",
"         X@@X         ",
"          XX          ",
"                      ",
"                      ",
"                      ",
"                      ",
"                      ",
"                      ",
"                      ",
"                      "
};
