/* XPM */
static char *shade_prelight[] = {
/* columns rows colors chars-per-pixel */
"22 25 8 1 ",
"  c #2D2D2D2D2D2D",
". c #43CC30EC2E84",
"X c #7C5A3A4B31DC",
"o c #484848484848",
"O c #82573B493237",
"+ c #C23645DE35FF",
"@ c #C3E046253618",
"# c #D6D649493737",
/* pixels */
"oooooooooooooooooooooo",
"                      ",
"                      ",
"                      ",
"                      ",
"                      ",
"                      ",
"                      ",
"                      ",
"          XX          ",
"         O##O         ",
"        O####O        ",
"       X#+##+#X       ",
"       #+.##.+#       ",
"          ##          ",
"          ##          ",
"          ##          ",
"                      ",
"                      ",
"                      ",
"                      ",
"                      ",
"                      ",
"                      ",
"                      "
};
