/* XPM */
static char *shade_toggled_inactive[] = {
/* columns rows colors chars-per-pixel */
"22 25 7 1 ",
"  c #2D2D2D2D2D2D",
". c #393939393939",
"X c #5B085B085B08",
"o c #5DE65DE65DE6",
"O c #7BA27BA27BA2",
"+ c #7C5A7C5A7C5A",
"@ c #888888888888",
/* pixels */
"......................",
"                      ",
"                      ",
"                      ",
"                      ",
"                      ",
"                      ",
"                      ",
"                      ",
"          @@          ",
"          @@          ",
"          @@          ",
"       @O.@@.O@       ",
"       o@+@@+@o       ",
"        X@@@@X        ",
"         X@@X         ",
"          XX          ",
"                      ",
"                      ",
"                      ",
"                      ",
"                      ",
"                      ",
"                      ",
"                      "
};
