/* XPM */
static char *stick_prelight[] = {
/* columns rows colors chars-per-pixel */
"22 25 13 1 ",
"  c #2D2D2D2D2D2D",
". c #3F2430272E3D",
"X c #4123307C2E5B",
"o c #43CC30EC2E84",
"O c #484848484848",
"+ c #9B9F3F7933B6",
"@ c #9C9F3FA433C5",
"# c #9D9E3FCE33D4",
"$ c #A4F041053443",
"% c #C23645DE35FF",
"& c #C4DF464F3627",
"* c #CB864769368C",
"= c #D6D649493737",
/* pixels */
"OOOOOOOOOOOOOOOOOOOOOO",
"                      ",
"                      ",
"                      ",
"                      ",
"                      ",
"                      ",
"                      ",
"                      ",
"        X#%%#X        ",
"       X*====*X       ",
"       #=$Xo$=+       ",
"       &=X  X=&       ",
"       &=.  X=&       ",
"       +=$..$=@       ",
"       .*====*X       ",
"        X#**#X        ",
"                      ",
"                      ",
"                      ",
"                      ",
"                      ",
"                      ",
"                      ",
"                      "
};
