/* XPM */
static char *stick_pressed[] = {
/* columns rows colors chars-per-pixel */
"22 25 12 1 ",
"  c #2D2D2D2D2D2D",
". c #3B872F842E07",
"X c #3C0F2F9A2E0F",
"o c #3D412FCC2E21",
"O c #3F3F301F2E3F",
"+ c #484848484848",
"@ c #85943B95326A",
"# c #86FF3BD03280",
"$ c #8CD83CC432D8",
"% c #A43A4094343B",
"& c #ABAB41CA34AC",
"* c #B4B443433535",
/* pixels */
"++++++++++++++++++++++",
"                      ",
"                      ",
"                      ",
"                      ",
"                      ",
"                      ",
"                      ",
"                      ",
"        o#%%#o        ",
"       o&****&o       ",
"       @*$oo$*#       ",
"       &*.  o*%       ",
"       %*.  o*&       ",
"       @*$..$*@       ",
"       .&****&X       ",
"        X#&&#X        ",
"                      ",
"                      ",
"                      ",
"                      ",
"                      ",
"                      ",
"                      ",
"                      "
};
