/* XPM */
static char *stick_toggled_prelight[] = {
/* columns rows colors chars-per-pixel */
"22 25 12 1 ",
"  c #2D2D2D2D2D2D",
". c #312B2DD62D69",
"X c #566D34032F9E",
"o c #591634732FC6",
"O c #484848484848",
"+ c #85AA3BD63269",
"@ c #87A93C2B3288",
"# c #88543C473292",
"$ c #C23645DE35FF",
"% c #C5DF467A3636",
"& c #C8DD46F83663",
"* c #D6D649493737",
/* pixels */
"OOOOOOOOOOOOOOOOOOOOOO",
"                      ",
"                      ",
"                      ",
"                      ",
"                      ",
"                      ",
"                      ",
"                      ",
"                      ",
"        .@$$@         ",
"        @****@        ",
"        %*Xo*%        ",
"        %*XX*%        ",
"        #****@        ",
"        .#%%@.        ",
"                      ",
"                      ",
"                      ",
"                      ",
"                      ",
"                      ",
"                      ",
"                      ",
"                      "
};
