/* XPM */
static char *stick_toggled_active[] = {
/* columns rows colors chars-per-pixel */
"22 25 11 1 ",
"  c #2D2D2D2D2D2D",
". c #314F314F314F",
"X c #484848484848",
"o c #568356835683",
"O c #5AA65AA65AA6",
"+ c #88CF88CF88CF",
"@ c #8AA58AA58AA5",
"# c #C780C780C780",
"$ c #CBA3CBA3CBA3",
"% c #CD03CD03CD03",
"& c gainsboro",
/* pixels */
"XXXXXXXXXXXXXXXXXXXXXX",
"                      ",
"                      ",
"                      ",
"                      ",
"                      ",
"                      ",
"                      ",
"                      ",
"                      ",
"        .@##@         ",
"        @&&&&@        ",
"        $&OO&$        ",
"        $&oo&$        ",
"        @&&&&@        ",
"        .@%$@.        ",
"                      ",
"                      ",
"                      ",
"                      ",
"                      ",
"                      ",
"                      ",
"                      ",
"                      "
};
