/* XPM */
static char *stick_toggled_pressed[] = {
/* columns rows colors chars-per-pixel */
"22 25 11 1 ",
"  c #2D2D2D2D2D2D",
". c #305D2DB22D5D",
"X c #4E6532972F25",
"o c #504132E42F41",
"O c #73DD38B2315D",
"+ c #757538F43176",
"@ c #484848484848",
"# c #A43A4094343B",
"$ c #A76B4119346B",
"% c #A87B4145347C",
"& c #B4B443433535",
/* pixels */
"@@@@@@@@@@@@@@@@@@@@@@",
"                      ",
"                      ",
"                      ",
"                      ",
"                      ",
"                      ",
"                      ",
"                      ",
"                      ",
"        .+##+         ",
"        +&&&&O        ",
"        #&Xo&%        ",
"        %&XX&#        ",
"        +&&&&+        ",
"        .+%%+.        ",
"                      ",
"                      ",
"                      ",
"                      ",
"                      ",
"                      ",
"                      ",
"                      ",
"                      "
};
