/* XPM */
static char *stick_prelight[] = {
/* columns rows colors chars-per-pixel */
"22 25 3 1 ",
"  c #2D2D2D2D2D2D",
"X c #4123307C2E5B s active_color_1",
"O c #484848484848",
/* pixels */
"OOOOOOOOOOOOOOOOOOOOOO",
"                      ",
"                      ",
"                      ",
"                      ",
"                      ",
"                      ",
"                      ",
"                      ",
"        XXXXXX        ",
"       XXXXXXXX       ",
"       XXXXXXXX       ",
"       XXX  XXX       ",
"       XXX  XXX       ",
"       XXXXXXXX       ",
"       XXXXXXXX       ",
"        XXXXXX        ",
"                      ",
"                      ",
"                      ",
"                      ",
"                      ",
"                      ",
"                      ",
"                      "
};
