/* XPM */
static char * stick_active_xpm[] = {
"24 24 7 1",
" 	c None",
".	c #2D2D2D",
"+	c #333333",
"@	c #7E7E7E",
"#	c #C8C8C8",
"$	c #C5C5C5",
"%	c #DBDBDB",
"........................",
"........................",
"........................",
"........................",
"........................",
"........................",
"........................",
"........................",
".........+@##@+.........",
"........+$%%%%$+........",
"........@%%%%%%@........",
"........#%%..%%#........",
"........#%%..%%#........",
"........@%%%%%%@........",
"........+$%%%%$+........",
".........+@##@+.........",
"........................",
"........................",
"........................",
"........................",
"........................",
"........................",
"........................",
"........................"};
