/* XPM */
static char *stick_inactive[] = {
/* columns rows colors chars-per-pixel */
"22 25 9 1 ",
"  c #2D2D2D2D2D2D",
". c #375137513751",
"X c #393839383938",
"o c #68A568A568A5",
"O c #697469746974",
"+ c #6DA96DA96DA9",
"@ c #7D6D7D6D7D6D",
"# c #81B981B981B9",
"$ c #888888888888",
/* pixels */
"XXXXXXXXXXXXXXXXXXXXXX",
"                      ",
"                      ",
"                      ",
"                      ",
"                      ",
"                      ",
"                      ",
"                      ",
"        XO@@O.        ",
"       X#$$$$#.       ",
"       O$+XX+$O       ",
"       @$.  X$@       ",
"       @$.  .$#       ",
"       O$+..+$O       ",
"       .#$$$$#.       ",
"        XO##OX        ",
"                      ",
"                      ",
"                      ",
"                      ",
"                      ",
"                      ",
"                      ",
"                      "
};
