/* XPM */
static char * title_2_active_xpm[] = {
"1 25 3 1",
" 	c None",
".	c #484848",
"+	c #2D2D2D",
".",
"+",
"+",
"+",
"+",
"+",
"+",
"+",
"+",
"+",
"+",
"+",
"+",
"+",
"+",
"+",
"+",
"+",
"+",
"+",
"+",
"+",
"+",
"+",
"+"};
