/* XPM */
static char * top_left_active_xpm[] = {
"2 26 5 1",
" 	c None",
".	c #484848",
"+	c #383838",
"@	c #2E2E2E",
"#	c #2D2D2D",
" .",
".+",
".@",
".#",
".#",
".#",
".#",
".#",
".#",
".#",
".#",
".#",
".#",
".#",
".#",
".#",
".#",
".#",
".#",
".#",
".#",
".#",
".#",
".#",
".#",
".#"};
