/* XPM */
static char * top_right_active_xpm[] = {
"2 21 3 1",
" 	c None",
".	c #484848",
"+	c #2D2D2D",
". ",
"+.",
"+.",
"+.",
"+.",
"+.",
"+.",
"+.",
"+.",
"+.",
"+.",
"+.",
"+.",
"+.",
"+.",
"+.",
"+.",
"+.",
"+.",
"+.",
"+."};
