/* XPM */
static char * button_base_active_xpm[] = {
"22 25 3 1",
" 	c None",
".	c #2D2D2D",
"+	c #484848",
"++++++++++++++++++++++",
"......................",
"......................",
"......................",
"......................",
"......................",
"......................",
"......................",
"......................",
"......................",
"......................",
"......................",
"......................",
"......................",
"......................",
"......................",
"......................",
"......................",
"......................",
"......................",
"......................",
"......................",
"......................",
"......................",
"......................"};
