<svg xmlns="http://www.w3.org/2000/svg" width="128" height="128">
  <g>
    <path d="M64 4a60 60 0 0 1 51.962 30L64 64z" fill="#3584e4"/>
    <path d="M115.962 34a60 60 0 0 1 0 60L64 64z" fill="#a347ba"/>
    <path d="M115.962 94A60 60 0 0 1 64 124V64z" fill="#ed333b"/>
    <path d="M64 124a60 60 0 0 1-51.962-30L64 64z" fill="#ff7800"/>
    <path d="M12.038 94a60 60 0 0 1 0-60L64 64z" fill="#f6d32d"/>
    <path d="M12.038 34A60 60 0 0 1 64 4v60z" fill="#33d17a"/>
    <path d="M123.959 62.83A60 60 0 0 1 64 122 60 60 0 0 1 4.041 63.17 60 60 0 0 0 4 64a60 60 0 0 0 60 60 60 60 0 0 0 60-60 60 60 0 0 0-.041-1.17z" opacity=".2"/>
  </g>
  <g>
    <path d="M92 32a4 4 0 0 0-4 4 4 4 0 0 0 .13 1.002A4 4 0 0 1 92 34a4 4 0 0 1 3.87 2.998A4 4 0 0 0 96 36a4 4 0 0 0-4-4z" opacity=".2"/>
    <path d="M64 24c-22.091 0-40 17.909-40 40s17.909 40 40 40 40-17.909 40-40V32c0-4.432-3.568-8-8-8H64zm28 8a4 4 0 1 1 0 8 4 4 0 0 1 0-8z" fill="#f6f5f4"/>
    <path d="M103.959 62.828A40 40 0 0 1 64 102a40 40 0 0 1-39.959-38.828A40 40 0 0 0 24 64a40 40 0 0 0 40 40 40 40 0 0 0 40-40 40 40 0 0 0-.041-1.172z" opacity=".2"/>
  </g>
</svg>
