<?xml version="1.0" encoding="UTF-8" standalone="no"?>
<!-- Created with Inkscape (http://www.inkscape.org/) -->
<svg
   xmlns:dc="http://purl.org/dc/elements/1.1/"
   xmlns:cc="http://creativecommons.org/ns#"
   xmlns:rdf="http://www.w3.org/1999/02/22-rdf-syntax-ns#"
   xmlns:svg="http://www.w3.org/2000/svg"
   xmlns="http://www.w3.org/2000/svg"
   xmlns:xlink="http://www.w3.org/1999/xlink"
   xmlns:sodipodi="http://sodipodi.sourceforge.net/DTD/sodipodi-0.dtd"
   xmlns:inkscape="http://www.inkscape.org/namespaces/inkscape"
   width="48px"
   height="48px"
   id="svg7743"
   sodipodi:version="0.32"
   inkscape:version="0.46"
   sodipodi:docname="drawing.svg"
   inkscape:output_extension="org.inkscape.output.svg.inkscape">
  <defs
     id="defs7745">
    <linearGradient
       inkscape:collect="always"
       id="linearGradient26-paper-sheet-orig-0-7">
      <stop
         style="stop-color: rgb(0, 0, 0); stop-opacity: 0.554054;"
         offset="0"
         id="stop30-paper-sheet-orig-8-4" />
      <stop
         style="stop-color: rgb(0, 0, 0); stop-opacity: 0;"
         offset="1"
         id="stop31-paper-sheet-orig-8-9" />
    </linearGradient>
    <linearGradient
       inkscape:collect="always"
       xlink:href="#linearGradient26-paper-sheet-orig-0-7"
       id="linearGradient12701"
       gradientUnits="userSpaceOnUse"
       gradientTransform="matrix(0.922306,0,0,0.918575,393.553,51.3257)"
       x1="-19.031248"
       y1="12.617871"
       x2="-28.789402"
       y2="14.069944" />
    <linearGradient
       id="linearGradient13-paper-sheet-orig-7-4">
      <stop
         id="stop19-paper-sheet-orig-0-5"
         offset="0"
         style="stop-color: rgb(255, 255, 255); stop-opacity: 1;" />
      <stop
         style="stop-color: rgb(255, 255, 255); stop-opacity: 1;"
         offset="0.47533694"
         id="stop20-paper-sheet-orig-0-7" />
      <stop
         id="stop21-paper-sheet-orig-6-9"
         offset="1"
         style="stop-color: rgb(255, 255, 255); stop-opacity: 0;" />
    </linearGradient>
    <radialGradient
       inkscape:collect="always"
       xlink:href="#linearGradient13-paper-sheet-orig-7-4"
       id="radialGradient12699"
       gradientUnits="userSpaceOnUse"
       gradientTransform="matrix(0.407336,-0.279828,0.751029,1.09325,370.815,41.5621)"
       cx="-26.305403"
       cy="10.108011"
       fx="-26.305403"
       fy="10.108011"
       r="7.0421038" />
    <linearGradient
       id="linearGradient4616-1"
       inkscape:collect="always">
      <stop
         id="stop4618-9"
         offset="0"
         style="stop-color: rgb(46, 52, 54); stop-opacity: 1;" />
      <stop
         id="stop4620-2"
         offset="1"
         style="stop-color: rgb(46, 52, 54); stop-opacity: 0;" />
    </linearGradient>
    <linearGradient
       inkscape:collect="always"
       xlink:href="#linearGradient4616-1"
       id="linearGradient7472"
       gradientUnits="userSpaceOnUse"
       gradientTransform="translate(102.477,-54.4383)"
       x1="25.355263"
       y1="34.006802"
       x2="25.355263"
       y2="32.409008" />
    <linearGradient
       id="linearGradient7297">
      <stop
         id="stop7299"
         offset="0"
         style="stop-color:#729fcf;stop-opacity:1" />
      <stop
         id="stop7301"
         offset="1"
         style="stop-color:#729fcf;stop-opacity:0" />
    </linearGradient>
    <radialGradient
       inkscape:collect="always"
       xlink:href="#linearGradient7297"
       id="radialGradient7470"
       gradientUnits="userSpaceOnUse"
       gradientTransform="matrix(1,-1.48718e-8,1.42553e-8,0.958546,125.193,-52.8623)"
       cx="-6.0070167"
       cy="32.837029"
       fx="-6.0070167"
       fy="32.837029"
       r="9.90625" />
    <linearGradient
       inkscape:collect="always"
       id="linearGradient6969">
      <stop
         style="stop-color:#204a87;stop-opacity:1"
         offset="0"
         id="stop6971" />
      <stop
         style="stop-color:#729fcf;stop-opacity:1"
         offset="1"
         id="stop6973" />
    </linearGradient>
    <linearGradient
       inkscape:collect="always"
       xlink:href="#linearGradient6969"
       id="linearGradient7468"
       gradientUnits="userSpaceOnUse"
       gradientTransform="translate(138.477,-54.4383)"
       x1="-11.986486"
       y1="13.122552"
       x2="-11.986486"
       y2="29.726542" />
    <linearGradient
       id="linearGradient12-paper-sheet-orig-2"
       inkscape:collect="always">
      <stop
         id="stop17-paper-sheet-orig-1"
         offset="0"
         style="stop-color: rgb(255, 255, 255); stop-opacity: 1;" />
      <stop
         id="stop18-paper-sheet-orig-0"
         offset="1"
         style="stop-color: rgb(255, 255, 255); stop-opacity: 0;" />
    </linearGradient>
    <linearGradient
       inkscape:collect="always"
       xlink:href="#linearGradient12-paper-sheet-orig-2"
       id="linearGradient13197"
       gradientUnits="userSpaceOnUse"
       x1="-26.753757"
       y1="11.566258"
       x2="-24.75"
       y2="9.687501" />
    <linearGradient
       id="linearGradient4-paper-sheet-orig-7"
       inkscape:collect="always">
      <stop
         id="stop8-paper-sheet-orig-2"
         offset="0"
         style="stop-color: rgb(255, 255, 255); stop-opacity: 1;" />
      <stop
         id="stop9-paper-sheet-orig-2"
         offset="1"
         style="stop-color: rgb(255, 255, 255); stop-opacity: 0;" />
    </linearGradient>
    <radialGradient
       inkscape:collect="always"
       xlink:href="#linearGradient4-paper-sheet-orig-7"
       id="radialGradient13195"
       gradientUnits="userSpaceOnUse"
       gradientTransform="matrix(3.23437,0,0,1.52429,-8.93747,-6.07875)"
       cx="4"
       cy="5.2999997"
       fx="4"
       fy="5.2999997"
       r="17" />
    <linearGradient
       inkscape:collect="always"
       id="linearGradient10-paper-sheet-orig-3">
      <stop
         style="stop-color: rgb(85, 87, 83); stop-opacity: 1;"
         offset="0"
         id="stop15-paper-sheet-orig-7" />
      <stop
         style="stop-color: rgb(186, 189, 182); stop-opacity: 1;"
         offset="1"
         id="stop16-paper-sheet-orig-8" />
    </linearGradient>
    <linearGradient
       inkscape:collect="always"
       xlink:href="#linearGradient10-paper-sheet-orig-3"
       id="linearGradient13193"
       gradientUnits="userSpaceOnUse"
       gradientTransform="translate(356,50)"
       x1="-40.278805"
       y1="70.736046"
       x2="-52.75"
       y2="3.8729248" />
    <linearGradient
       id="linearGradient3-paper-sheet-orig-08">
      <stop
         style="stop-color: rgb(255, 255, 255); stop-opacity: 1;"
         offset="0"
         id="stop6-paper-sheet-orig-1" />
      <stop
         style="stop-color: rgb(211, 215, 207); stop-opacity: 1;"
         offset="1"
         id="stop7-paper-sheet-orig-2" />
    </linearGradient>
    <radialGradient
       inkscape:collect="always"
       xlink:href="#linearGradient3-paper-sheet-orig-08"
       id="radialGradient13191"
       gradientUnits="userSpaceOnUse"
       gradientTransform="matrix(3.854,0,0,1.86639,442.334,21.2596)"
       cx="-30.249996"
       cy="35.357208"
       fx="-30.249996"
       fy="35.357208"
       r="18.000002" />
    <linearGradient
       inkscape:collect="always"
       xlink:href="#linearGradient3702"
       id="linearGradient8666"
       gradientUnits="userSpaceOnUse"
       x1="25.058096"
       y1="47.027729"
       x2="25.058096"
       y2="39.999443" />
    <radialGradient
       inkscape:collect="always"
       xlink:href="#linearGradient3688"
       id="radialGradient8664"
       gradientUnits="userSpaceOnUse"
       gradientTransform="matrix(2.003784,0,0,1.4,-20.01187,-104.4)"
       cx="4.9929786"
       cy="43.5"
       fx="4.9929786"
       fy="43.5"
       r="2.5" />
    <radialGradient
       inkscape:collect="always"
       xlink:href="#linearGradient3688"
       id="radialGradient8662"
       gradientUnits="userSpaceOnUse"
       gradientTransform="matrix(2.003784,0,0,1.4,27.98813,-17.4)"
       cx="4.9929786"
       cy="43.5"
       fx="4.9929786"
       fy="43.5"
       r="2.5" />
    <linearGradient
       id="linearGradient3702">
      <stop
         id="stop3704"
         offset="0"
         style="stop-color:black;stop-opacity:0;" />
      <stop
         style="stop-color:black;stop-opacity:1;"
         offset="0.5"
         id="stop3710" />
      <stop
         id="stop3706"
         offset="1"
         style="stop-color:black;stop-opacity:0;" />
    </linearGradient>
    <linearGradient
       inkscape:collect="always"
       xlink:href="#linearGradient3702"
       id="linearGradient8672"
       gradientUnits="userSpaceOnUse"
       x1="25.058096"
       y1="47.027729"
       x2="25.058096"
       y2="39.999443" />
    <radialGradient
       inkscape:collect="always"
       xlink:href="#linearGradient3688"
       id="radialGradient8670"
       gradientUnits="userSpaceOnUse"
       gradientTransform="matrix(2.003784,0,0,1.4,-20.01187,-104.4)"
       cx="4.9929786"
       cy="43.5"
       fx="4.9929786"
       fy="43.5"
       r="2.5" />
    <linearGradient
       id="linearGradient3688"
       inkscape:collect="always">
      <stop
         id="stop3690"
         offset="0"
         style="stop-color:black;stop-opacity:1;" />
      <stop
         id="stop3692"
         offset="1"
         style="stop-color:black;stop-opacity:0;" />
    </linearGradient>
    <radialGradient
       inkscape:collect="always"
       xlink:href="#linearGradient3688"
       id="radialGradient8668"
       gradientUnits="userSpaceOnUse"
       gradientTransform="matrix(2.003784,0,0,1.4,27.98813,-17.4)"
       cx="4.9929786"
       cy="43.5"
       fx="4.9929786"
       fy="43.5"
       r="2.5" />
  </defs>
  <sodipodi:namedview
     id="base"
     pagecolor="#ffffff"
     bordercolor="#666666"
     borderopacity="1.0"
     inkscape:pageopacity="0.0"
     inkscape:pageshadow="2"
     inkscape:zoom="7"
     inkscape:cx="24"
     inkscape:cy="24"
     inkscape:current-layer="layer1"
     showgrid="true"
     inkscape:grid-bbox="true"
     inkscape:document-units="px"
     inkscape:window-width="641"
     inkscape:window-height="690"
     inkscape:window-x="440"
     inkscape:window-y="347" />
  <metadata
     id="metadata7748">
    <rdf:RDF>
      <cc:Work
         rdf:about="">
        <dc:format>image/svg+xml</dc:format>
        <dc:type
           rdf:resource="http://purl.org/dc/dcmitype/StillImage" />
      </cc:Work>
    </rdf:RDF>
  </metadata>
  <g
     id="layer1"
     inkscape:label="Layer 1"
     inkscape:groupmode="layer">
    <g
       style="opacity:0.65587045;display:inline"
       id="g5508"
       inkscape:label="Shadow"
       transform="matrix(1.0464281,0,0,0.8888889,-2.1857145,4.7222469)">
      <g
         id="g5511"
         style="opacity:0.4"
         transform="matrix(1.052632,0,0,1.285713,-1.263158,-13.42854)">
        <rect
           y="40"
           x="38"
           height="7"
           width="5"
           id="rect5513"
           style="opacity:1;fill:url(#radialGradient8668);fill-opacity:1;stroke:none;stroke-width:1;stroke-linecap:round;stroke-linejoin:miter;stroke-miterlimit:4;stroke-dasharray:none;stroke-opacity:1" />
        <rect
           transform="scale(-1,-1)"
           y="-47"
           x="-10"
           height="7"
           width="5"
           id="rect5515"
           style="opacity:1;fill:url(#radialGradient8670);fill-opacity:1;stroke:none;stroke-width:1;stroke-linecap:round;stroke-linejoin:miter;stroke-miterlimit:4;stroke-dasharray:none;stroke-opacity:1" />
        <rect
           y="40"
           x="10"
           height="7.0000005"
           width="28"
           id="rect5517"
           style="opacity:1;fill:url(#linearGradient8672);fill-opacity:1;stroke:none;stroke-width:1;stroke-linecap:round;stroke-linejoin:miter;stroke-miterlimit:4;stroke-dasharray:none;stroke-opacity:1" />
      </g>
    </g>
    <g
       style="display:inline"
       id="g5519"
       inkscape:label="Shadow"
       transform="matrix(0.9548466,0,0,0.5555562,1.2245107e-2,18.888882)">
      <g
         id="g5521"
         style="opacity:0.4"
         transform="matrix(1.052632,0,0,1.285713,-1.263158,-13.42854)">
        <rect
           y="40"
           x="38"
           height="7"
           width="5"
           id="rect5523"
           style="opacity:1;fill:url(#radialGradient8662);fill-opacity:1;stroke:none;stroke-width:1;stroke-linecap:round;stroke-linejoin:miter;stroke-miterlimit:4;stroke-dasharray:none;stroke-opacity:1" />
        <rect
           transform="scale(-1,-1)"
           y="-47"
           x="-10"
           height="7"
           width="5"
           id="rect5525"
           style="opacity:1;fill:url(#radialGradient8664);fill-opacity:1;stroke:none;stroke-width:1;stroke-linecap:round;stroke-linejoin:miter;stroke-miterlimit:4;stroke-dasharray:none;stroke-opacity:1" />
        <rect
           y="40"
           x="10"
           height="7.0000005"
           width="28"
           id="rect5527"
           style="opacity:1;fill:url(#linearGradient8666);fill-opacity:1;stroke:none;stroke-width:1;stroke-linecap:round;stroke-linejoin:miter;stroke-miterlimit:4;stroke-dasharray:none;stroke-opacity:1" />
      </g>
    </g>
    <g
       id="use7060"
       style="display:inline"
       transform="translate(-701,-49.999908)">
      <g
         transform="translate(400.044,1.01491)"
         id="g13177"
         style="display:inline" />
      <g
         transform="translate(404.044,-0.985092)"
         id="g13183">
        <path
           sodipodi:nodetypes="ccsccccccc"
           id="path13185"
           d="M 304.52386,53.5 C 304.52386,53.5 322,53.5 323.5,53.5 C 327.37705,53.57294 330,56 332.5,58.5 C 335,61 337.10768,63.752625 337.5,67.5 C 337.5,69 337.5,92.47614 337.5,92.47614 C 337.5,93.59736 336.59736,94.5 335.47615,94.5 L 304.52386,94.5 C 303.40264,94.5 302.5,93.59736 302.5,92.47614 L 302.5,55.523858 C 302.5,54.402641 303.40264,53.5 304.52386,53.5 z"
           style="fill:url(#radialGradient13191);fill-opacity:1;stroke:url(#linearGradient13193);stroke-width:1;stroke-miterlimit:4;display:inline" />
        <path
           transform="translate(296,50)"
           d="M 8.53125,4 C 7.6730803,4 7,4.6730802 7,5.53125 L 7,42.46875 C 7,43.32692 7.6730802,44 8.53125,44 L 39.46875,44 C 40.326919,44 41,43.326918 41,42.46875 C 41,42.46875 41,19 41,17.5 C 41,16.10803 40.513021,13.200521 38.65625,11.34375 C 36.65625,9.34375 35.65625,8.34375 33.65625,6.34375 C 31.799479,4.4869792 28.89197,4 27.5,4 C 26,4 8.53125,4 8.53125,4 z"
           id="path13187"
           style="fill:url(#radialGradient13195);fill-opacity:1;stroke:none;display:inline"
           inkscape:original="M 8.53125 3.5 C 7.410033 3.5 6.5 4.4100329 6.5 5.53125 L 6.5 42.46875 C 6.5 43.589967 7.4100329 44.5 8.53125 44.5 L 39.46875 44.5 C 40.589967 44.5 41.5 43.589966 41.5 42.46875 C 41.5 42.46875 41.5 19 41.5 17.5 C 41.5 16 41 13 39 11 C 37 9 36 8 34 6 C 32 4 29 3.5 27.5 3.5 C 26 3.5 8.5312499 3.5 8.53125 3.5 z "
           inkscape:radius="-0.4861359"
           sodipodi:type="inkscape:offset" />
        <path
           transform="translate(356,50)"
           d="M -51.46875,4.5 C -52.051916,4.5 -52.5,4.9480842 -52.5,5.53125 L -52.5,42.46875 C -52.5,43.051915 -52.051914,43.5 -51.46875,43.5 L -20.53125,43.5 C -19.948085,43.5 -19.5,43.051914 -19.5,42.46875 C -19.5,42.46875 -19.5,19 -19.5,17.5 C -19.5,16.220971 -19.980469,13.394531 -21.6875,11.6875 C -23.6875,9.6875 -24.6875,8.6875 -26.6875,6.6875 C -28.394531,4.9804687 -31.220971,4.5 -32.5,4.5 C -34,4.5 -51.46875,4.5 -51.46875,4.5 z"
           id="path13189"
           style="fill:none;stroke:url(#linearGradient13197);stroke-width:1;stroke-miterlimit:4;display:inline"
           inkscape:original="M -51.46875 3.5 C -52.589967 3.5 -53.5 4.4100329 -53.5 5.53125 L -53.5 42.46875 C -53.5 43.589967 -52.589966 44.5 -51.46875 44.5 L -20.53125 44.5 C -19.410033 44.5 -18.5 43.589966 -18.5 42.46875 C -18.5 42.46875 -18.5 19 -18.5 17.5 C -18.5 16 -19 13 -21 11 C -23 9 -24 8 -26 6 C -28 4 -31 3.5 -32.5 3.5 C -34 3.5 -51.468749 3.5 -51.46875 3.5 z "
           inkscape:radius="-0.99436891"
           sodipodi:type="inkscape:offset" />
      </g>
    </g>
    <g
       style="display:inline"
       id="g7486"
       transform="translate(-701,-953.99991)">
      <rect
         ry="0.50145501"
         rx="0.50145501"
         inkscape:r_cy="true"
         inkscape:r_cx="true"
         y="985.9375"
         x="710.00012"
         height="1.00291"
         width="25.00001"
         id="rect7075"
         style="opacity:1;fill:#204a87;fill-opacity:1;fill-rule:evenodd;stroke:none;stroke-width:1px;marker:none;visibility:visible;display:inline;overflow:visible" />
      <rect
         style="opacity:1;fill:#204a87;fill-opacity:1;fill-rule:evenodd;stroke:none;stroke-width:1px;marker:none;visibility:visible;display:inline;overflow:visible"
         id="rect7079"
         width="21"
         height="0.99999964"
         x="710.00012"
         y="987.94043"
         inkscape:r_cx="true"
         inkscape:r_cy="true"
         rx="0.49999982"
         ry="0.49999982" />
      <rect
         style="opacity:1;fill:#204a87;fill-opacity:1;fill-rule:evenodd;stroke:none;stroke-width:1px;marker:none;visibility:visible;display:inline;overflow:visible"
         id="rect7081"
         width="16.771515"
         height="0.9375"
         x="710.00012"
         y="990"
         inkscape:r_cx="true"
         inkscape:r_cy="true"
         rx="0.46875009"
         ry="0.46875" />
      <rect
         ry="0.46875"
         rx="0.46875009"
         inkscape:r_cy="true"
         inkscape:r_cx="true"
         y="979"
         x="710.00012"
         height="0.9375"
         width="27"
         id="rect7083"
         style="opacity:1;fill:#204a87;fill-opacity:1;fill-rule:evenodd;stroke:none;stroke-width:1px;marker:none;visibility:visible;display:inline;overflow:visible" />
      <rect
         style="opacity:1;fill:#204a87;fill-opacity:1;fill-rule:evenodd;stroke:none;stroke-width:1px;marker:none;visibility:visible;display:inline;overflow:visible"
         id="rect7085"
         width="27"
         height="0.9375"
         x="710.00012"
         y="981"
         inkscape:r_cx="true"
         inkscape:r_cy="true"
         rx="0.46875009"
         ry="0.46875" />
      <rect
         ry="0.46875"
         rx="0.46875009"
         inkscape:r_cy="true"
         inkscape:r_cx="true"
         y="983"
         x="710.00012"
         height="0.9375"
         width="9.999999"
         id="rect7087"
         style="opacity:1;fill:#204a87;fill-opacity:1;fill-rule:evenodd;stroke:none;stroke-width:1px;marker:none;visibility:visible;display:inline;overflow:visible" />
      <rect
         style="opacity:1;fill:#204a87;fill-opacity:1;fill-rule:evenodd;stroke:none;stroke-width:1px;marker:none;visibility:visible;display:inline;overflow:visible"
         id="rect7091"
         width="5.0312486"
         height="0.9375"
         x="729.00055"
         y="965"
         inkscape:r_cx="true"
         inkscape:r_cy="true"
         rx="0.46875006"
         ry="0.453125" />
      <rect
         ry="0.46875"
         rx="0.46875006"
         inkscape:r_cy="true"
         inkscape:r_cx="true"
         y="967"
         x="729.00055"
         height="0.9375"
         width="7.9999986"
         id="rect7093"
         style="opacity:1;fill:#204a87;fill-opacity:1;fill-rule:evenodd;stroke:none;stroke-width:1px;marker:none;visibility:visible;display:inline;overflow:visible" />
      <rect
         ry="0.46875"
         rx="0.46875006"
         inkscape:r_cy="true"
         inkscape:r_cx="true"
         y="969"
         x="729.00055"
         height="0.9375"
         width="7.9999986"
         id="rect7095"
         style="opacity:1;fill:#204a87;fill-opacity:1;fill-rule:evenodd;stroke:none;stroke-width:1px;marker:none;visibility:visible;display:inline;overflow:visible" />
      <rect
         style="opacity:1;fill:#204a87;fill-opacity:1;fill-rule:evenodd;stroke:none;stroke-width:1px;marker:none;visibility:visible;display:inline;overflow:visible"
         id="rect7097"
         width="7.9999986"
         height="0.9375"
         x="729.00055"
         y="971"
         inkscape:r_cx="true"
         inkscape:r_cy="true"
         rx="0.46875006"
         ry="0.46875" />
      <rect
         style="opacity:1;fill:#204a87;fill-opacity:1;fill-rule:evenodd;stroke:none;stroke-width:1px;marker:none;visibility:visible;display:inline;overflow:visible"
         id="rect7099"
         width="7.9999986"
         height="0.9375"
         x="729.00055"
         y="973"
         inkscape:r_cx="true"
         inkscape:r_cy="true"
         rx="0.46875006"
         ry="0.46875" />
      <rect
         ry="0.46875"
         rx="0.46875006"
         inkscape:r_cy="true"
         inkscape:r_cx="true"
         y="975"
         x="729.00055"
         height="0.9375"
         width="3.9288881"
         id="rect7101"
         style="opacity:1;fill:#204a87;fill-opacity:1;fill-rule:evenodd;stroke:none;stroke-width:1px;marker:none;visibility:visible;display:inline;overflow:visible" />
    </g>
    <g
       style="display:inline"
       inkscape:r_cy="true"
       inkscape:r_cx="true"
       transform="matrix(0.487331,0,0,0.500001,-44.107859,32.406592)"
       id="g7106">
      <rect
         inkscape:r_cy="true"
         inkscape:r_cx="true"
         style="fill:url(#linearGradient7468);fill-opacity:1;stroke:none"
         id="rect7108"
         width="35.027027"
         height="24"
         x="108.97698"
         y="-42.938244"
         rx="0.89774978"
         ry="0.8749994" />
      <path
         style="fill:url(#radialGradient7470);fill-opacity:1;fill-rule:evenodd;stroke:none;stroke-width:1;marker:none;visibility:visible;display:inline;overflow:visible"
         d="M 118.56077,-31.886469 C 113.39199,-31.558514 109.27952,-27.231281 109.27952,-21.980219 C 109.27952,-21.777434 109.29872,-21.586244 109.31082,-21.386469 L 129.06082,-21.386469 C 129.07282,-21.586244 129.09212,-21.777434 129.09212,-21.980219 C 129.09212,-27.44474 124.65039,-31.886469 119.18587,-31.886469 C 118.97241,-31.886469 118.77098,-31.899799 118.56087,-31.886469 L 118.56077,-31.886469 L 118.56077,-31.886469 z"
         id="path7110"
         inkscape:r_cx="true"
         inkscape:r_cy="true" />
      <rect
         inkscape:r_cy="true"
         inkscape:r_cx="true"
         style="fill:url(#linearGradient7472);fill-opacity:1;stroke:none"
         id="rect7113"
         width="34"
         height="2"
         x="109.47698"
         y="-21.438248"
         rx="0"
         ry="0" />
      <path
         inkscape:r_cy="true"
         inkscape:r_cx="true"
         style="fill:#000000;fill-opacity:1;fill-rule:evenodd;stroke:none"
         d="M 132.03256,-20.465974 C 132.03256,-20.465974 131.47698,-23.549329 131.47698,-25.438246 C 131.49238,-26.299945 139.26369,-33.012855 139.28374,-34.01277 L 137.47698,-32.438246 L 136.21182,-35.880188 L 140.47698,-35.438246 L 142.47698,-37.438246 L 140.21182,-35.775333 L 139.43279,-35.95211 L 138.47698,-39.438246 L 138.96312,-36.040498 L 135.43279,-36.217275 L 136.53764,-33.405314 L 133.47698,-36.438246 L 136.71442,-32.216782 C 136.7145,-31.275254 130.33354,-25.52758 130.3444,-26.518649 L 127.69795,-30.068227 L 127.47698,-34.866817 L 129.47698,-35.438246 L 131.22913,-39.758867 L 128.91941,-35.765552 L 127.11625,-35.847252 L 123.07986,-39.256261 L 117.53764,-41.377582 L 122.27247,-38.775329 L 118.47698,-38.438242 L 123.47698,-38.438242 L 126.47698,-35.438242 L 126.83053,-30.256261 L 121.47698,-35.438242 L 123.72828,-32.731135 L 120.47698,-30.438242 L 124.04841,-32.438242 L 129.69795,-25.322125 L 129.47698,-20.46597 L 132.03256,-20.46597 L 132.03256,-20.465974 L 132.03256,-20.465974 z"
         id="path7115"
         sodipodi:nodetypes="cccccccccccccccccccccccccccccccccccc" />
      <path
         inkscape:r_cy="true"
         inkscape:r_cx="true"
         id="path7117"
         d="M 118.84471,-27.204578 C 116.02417,-27.025617 113.78005,-24.664299 113.78005,-21.798859 C 113.78005,-21.688202 113.79055,-21.583872 113.79705,-21.474857 L 124.57438,-21.474857 C 124.58138,-21.583872 124.59148,-21.688202 124.59148,-21.798859 C 124.59148,-24.780781 122.16768,-27.204578 119.18576,-27.204578 C 119.06928,-27.204578 118.95936,-27.211878 118.8447,-27.204578 L 118.84471,-27.204578 L 118.84471,-27.204578 z"
         style="fill:#b6cee7;fill-opacity:1;fill-rule:evenodd;stroke:none;stroke-width:1;marker:none;visibility:visible;display:inline;overflow:visible" />
      <path
         style="fill:#ffffff;fill-opacity:1;fill-rule:evenodd;stroke:none;stroke-width:1;marker:none;visibility:visible;display:inline;overflow:visible"
         d="M 118.92566,-25.906273 C 116.77457,-25.769787 115.06309,-23.968924 115.06309,-21.783592 C 115.06309,-21.699202 115.07109,-21.619632 115.07609,-21.536492 L 123.29544,-21.536492 C 123.30044,-21.619632 123.30844,-21.6992 123.30844,-21.783592 C 123.30844,-24.057759 121.45993,-25.906273 119.18576,-25.906273 C 119.09696,-25.906273 119.0131,-25.911773 118.92565,-25.906273 L 118.92566,-25.906273 L 118.92566,-25.906273 z"
         id="path7120"
         inkscape:r_cx="true"
         inkscape:r_cy="true" />
    </g>
    <path
       style="opacity:0.5;fill:#729fcf;fill-opacity:1;fill-rule:evenodd;stroke:none;stroke-width:1;stroke-linecap:round;stroke-linejoin:miter;stroke-miterlimit:4;stroke-dasharray:none;stroke-dashoffset:0.3612;stroke-opacity:1;display:inline"
       d="M 7.999941,10.000092 L 7.999941,24.000092 L 7.999941,29.000092 L 7.999941,31.000092 L 7.999941,33.968842 L 7.999941,35.000092 L 7.999941,36.000092 L 7.999941,37.968842 L 26.999941,37.968842 L 26.999941,36.000092 L 30.999941,36.000092 L 30.999941,33.968842 L 34.999941,33.968842 L 34.999941,31.000092 L 19.999941,31.000092 L 19.999941,29.000092 L 36.999941,29.000092 L 36.999941,24.000092 L 26.999941,24.000092 L 26.999941,23.000092 L 32.999941,23.000092 L 32.999941,21.000092 L 36.999941,21.000092 L 36.999941,12.000092 L 33.999941,12.000092 L 33.999941,10.000092 L 26.999941,10.000092 L 7.999941,10.000092 z"
       id="rect7329" />
    <g
       transform="translate(-336.77895,-50.868878)"
       id="use7125"
       style="display:inline">
      <path
         sodipodi:nodetypes="ccccczc"
         id="path12695"
         d="M 363.5,54 C 362.11111,54 363.4579,54.497088 364.84375,55.125 C 366.22957,55.752912 369.81663,58.340052 369,62 C 373.32331,61.569417 375.67913,65.122378 376,66.28125 C 376.32087,67.440122 377,68.888889 377,67.5 C 377.0283,63.694419 374.15457,61.068299 372.15625,58.84375 C 370.15793,56.619201 367.15379,54.476761 363.5,54 z"
         style="fill:url(#radialGradient12699);fill-opacity:1;stroke:none;display:inline" />
      <path
         sodipodi:nodetypes="ccccc"
         id="path12697"
         d="M 364.60088,55.014353 C 365.52318,55.014353 367.60932,61.210015 366.68702,65.343603 C 370.98198,64.915844 375.5404,65.431783 376,66.28125 C 375.67913,65.122378 373.32331,61.569417 369,62 C 369.86466,58.124761 365.81343,55.382702 364.60088,55.014353 z"
         style="opacity:0.87854201;fill:url(#linearGradient12701);fill-opacity:1;stroke:none;display:inline" />
    </g>
    <path
       style="opacity:1;fill:#000000;fill-opacity:1;fill-rule:evenodd;stroke:#ffffff;stroke-width:1;stroke-linecap:round;stroke-linejoin:miter;stroke-miterlimit:4;stroke-dasharray:none;stroke-dashoffset:0.3612;stroke-opacity:1;display:inline"
       d="M 26.499941,33.500092 L 26.499941,35.500092 L 27.499941,35.500092 L 27.499941,37.500092 L 26.499941,37.500092 L 26.499941,39.500092 L 30.499941,39.500092 L 30.499941,37.500092 L 29.499941,37.500092 L 29.499941,35.500092 L 30.499941,35.500092 L 30.499941,33.500092 L 26.499941,33.500092 z"
       id="rect7411" />
  </g>
</svg>
